%TF.GenerationSoftware,KiCad,Pcbnew,(6.0.1-0)*%
%TF.CreationDate,2022-02-11T12:22:00+00:00*%
%TF.ProjectId,Shelly,5368656c-6c79-42e6-9b69-6361645f7063,4*%
%TF.SameCoordinates,Original*%
%TF.FileFunction,Legend,Top*%
%TF.FilePolarity,Positive*%
%FSLAX46Y46*%
G04 Gerber Fmt 4.6, Leading zero omitted, Abs format (unit mm)*
G04 Created by KiCad (PCBNEW (6.0.1-0)) date 2022-02-11 12:22:00*
%MOMM*%
%LPD*%
G01*
G04 APERTURE LIST*
%ADD10C,0.150000*%
%ADD11C,0.120000*%
G04 APERTURE END LIST*
D10*
%TO.C,Q1*%
X171854761Y-58797619D02*
X171759523Y-58750000D01*
X171664285Y-58654761D01*
X171521428Y-58511904D01*
X171426190Y-58464285D01*
X171330952Y-58464285D01*
X171378571Y-58702380D02*
X171283333Y-58654761D01*
X171188095Y-58559523D01*
X171140476Y-58369047D01*
X171140476Y-58035714D01*
X171188095Y-57845238D01*
X171283333Y-57750000D01*
X171378571Y-57702380D01*
X171569047Y-57702380D01*
X171664285Y-57750000D01*
X171759523Y-57845238D01*
X171807142Y-58035714D01*
X171807142Y-58369047D01*
X171759523Y-58559523D01*
X171664285Y-58654761D01*
X171569047Y-58702380D01*
X171378571Y-58702380D01*
X172759523Y-58702380D02*
X172188095Y-58702380D01*
X172473809Y-58702380D02*
X172473809Y-57702380D01*
X172378571Y-57845238D01*
X172283333Y-57940476D01*
X172188095Y-57988095D01*
D11*
X172730000Y-59040000D02*
X172730000Y-59700000D01*
X171320000Y-61360000D02*
X172730000Y-61360000D01*
X172730000Y-60700000D02*
X172730000Y-61360000D01*
X172730000Y-59040000D02*
X170700000Y-59040000D01*
%TO.C,D3*%
X170265000Y-80200000D02*
X170265000Y-82660000D01*
X171735000Y-82660000D02*
X171735000Y-80200000D01*
X170265000Y-82660000D02*
X171735000Y-82660000D01*
%TO.C,R3*%
X182800000Y-78400000D02*
X182800000Y-77800000D01*
X183800000Y-78400000D02*
X183800000Y-77800000D01*
%TO.C,J1*%
X182200000Y-54770000D02*
X183530000Y-54770000D01*
X180930000Y-54770000D02*
X170710000Y-54770000D01*
X180930000Y-54770000D02*
X180930000Y-57430000D01*
X170710000Y-54770000D02*
X170710000Y-57430000D01*
X180930000Y-57430000D02*
X170710000Y-57430000D01*
X183530000Y-54770000D02*
X183530000Y-56100000D01*
%TO.C,U1*%
X182085000Y-60090000D02*
X182810000Y-60090000D01*
X178590000Y-64310000D02*
X178590000Y-63585000D01*
X182810000Y-60090000D02*
X182810000Y-60815000D01*
X178590000Y-60090000D02*
X178590000Y-60815000D01*
X179315000Y-60090000D02*
X178590000Y-60090000D01*
X179315000Y-64310000D02*
X178590000Y-64310000D01*
X182782843Y-64000000D02*
G75*
G03*
X182782843Y-64000000I-282843J0D01*
G01*
%TO.C,R6*%
X170500000Y-77700000D02*
X170500000Y-78300000D01*
X171500000Y-77700000D02*
X171500000Y-78300000D01*
%TO.C,R2*%
X182800000Y-80700000D02*
X182800000Y-81300000D01*
X183800000Y-80700000D02*
X183800000Y-81300000D01*
%TO.C,R4*%
X181100000Y-73500000D02*
X181700000Y-73500000D01*
X181100000Y-72500000D02*
X181700000Y-72500000D01*
%TO.C,R5*%
X181100000Y-74820000D02*
X181700000Y-74820000D01*
X181100000Y-73820000D02*
X181700000Y-73820000D01*
%TO.C,D1*%
X180650000Y-71560000D02*
X182050000Y-71560000D01*
X182050000Y-69240000D02*
X180150000Y-69240000D01*
%TO.C,D2*%
X182000000Y-66240000D02*
X180100000Y-66240000D01*
X180600000Y-68560000D02*
X182000000Y-68560000D01*
%TO.C,R1*%
X174000000Y-61500000D02*
X174000000Y-60900000D01*
X175000000Y-61500000D02*
X175000000Y-60900000D01*
%TO.C,C1*%
X176900000Y-60900000D02*
X176300000Y-60900000D01*
X176900000Y-59900000D02*
X176300000Y-59900000D01*
%TO.C,R7*%
X177600000Y-64900000D02*
X177000000Y-64900000D01*
X177600000Y-65900000D02*
X177000000Y-65900000D01*
%TO.C,R8*%
X172200000Y-65000000D02*
X172200000Y-65600000D01*
X171200000Y-65000000D02*
X171200000Y-65600000D01*
%TD*%
M02*
