%TF.GenerationSoftware,KiCad,Pcbnew,(5.1.9-0-10_14)*%
%TF.CreationDate,2021-08-07T12:29:38+01:00*%
%TF.ProjectId,Shelly,5368656c-6c79-42e6-9b69-6361645f7063,4*%
%TF.SameCoordinates,Original*%
%TF.FileFunction,Copper,L2,Bot*%
%TF.FilePolarity,Positive*%
%FSLAX46Y46*%
G04 Gerber Fmt 4.6, Leading zero omitted, Abs format (unit mm)*
G04 Created by KiCad (PCBNEW (5.1.9-0-10_14)) date 2021-08-07 12:29:38*
%MOMM*%
%LPD*%
G01*
G04 APERTURE LIST*
%TA.AperFunction,NonConductor*%
%ADD10C,0.080000*%
%TD*%
%TA.AperFunction,EtchedComponent*%
%ADD11C,0.250000*%
%TD*%
%TA.AperFunction,SMDPad,CuDef*%
%ADD12R,0.200000X0.400000*%
%TD*%
%TA.AperFunction,SMDPad,CuDef*%
%ADD13R,0.200000X0.200000*%
%TD*%
%TA.AperFunction,SMDPad,CuDef*%
%ADD14R,0.200000X1.000000*%
%TD*%
%TA.AperFunction,SMDPad,CuDef*%
%ADD15R,0.400000X0.200000*%
%TD*%
%TA.AperFunction,SMDPad,CuDef*%
%ADD16R,0.400000X0.400000*%
%TD*%
%TA.AperFunction,SMDPad,CuDef*%
%ADD17R,0.600000X0.200000*%
%TD*%
%TA.AperFunction,SMDPad,CuDef*%
%ADD18R,0.600000X0.600000*%
%TD*%
%TA.AperFunction,SMDPad,CuDef*%
%ADD19R,0.800000X0.200000*%
%TD*%
%TA.AperFunction,SMDPad,CuDef*%
%ADD20R,1.200000X0.200000*%
%TD*%
%TA.AperFunction,SMDPad,CuDef*%
%ADD21R,0.200000X1.400000*%
%TD*%
%TA.AperFunction,SMDPad,CuDef*%
%ADD22R,1.000000X0.200000*%
%TD*%
%TA.AperFunction,SMDPad,CuDef*%
%ADD23R,0.200000X0.600000*%
%TD*%
%TA.AperFunction,SMDPad,CuDef*%
%ADD24R,0.600000X0.400000*%
%TD*%
%TA.AperFunction,SMDPad,CuDef*%
%ADD25R,0.200000X0.800000*%
%TD*%
%TA.AperFunction,ComponentPad*%
%ADD26C,0.350000*%
%TD*%
%TA.AperFunction,ComponentPad*%
%ADD27O,1.700000X1.700000*%
%TD*%
%TA.AperFunction,ComponentPad*%
%ADD28R,1.700000X1.700000*%
%TD*%
%TA.AperFunction,ComponentPad*%
%ADD29C,1.250000*%
%TD*%
%TA.AperFunction,ComponentPad*%
%ADD30C,1.500000*%
%TD*%
%TA.AperFunction,ComponentPad*%
%ADD31C,0.600000*%
%TD*%
%TA.AperFunction,ComponentPad*%
%ADD32O,1.000000X1.000000*%
%TD*%
%TA.AperFunction,ComponentPad*%
%ADD33R,1.000000X1.000000*%
%TD*%
%TA.AperFunction,ViaPad*%
%ADD34C,0.800000*%
%TD*%
%TA.AperFunction,Conductor*%
%ADD35C,0.250000*%
%TD*%
%TA.AperFunction,Conductor*%
%ADD36C,0.254000*%
%TD*%
%TA.AperFunction,Conductor*%
%ADD37C,0.100000*%
%TD*%
G04 APERTURE END LIST*
D10*
X181828571Y-73373809D02*
X181804761Y-73350000D01*
X181757142Y-73326190D01*
X181638095Y-73326190D01*
X181590476Y-73350000D01*
X181566666Y-73373809D01*
X181542857Y-73421428D01*
X181542857Y-73469047D01*
X181566666Y-73540476D01*
X181852380Y-73826190D01*
X181542857Y-73826190D01*
X181233333Y-73326190D02*
X181185714Y-73326190D01*
X181138095Y-73350000D01*
X181114285Y-73373809D01*
X181090476Y-73421428D01*
X181066666Y-73516666D01*
X181066666Y-73635714D01*
X181090476Y-73730952D01*
X181114285Y-73778571D01*
X181138095Y-73802380D01*
X181185714Y-73826190D01*
X181233333Y-73826190D01*
X181280952Y-73802380D01*
X181304761Y-73778571D01*
X181328571Y-73730952D01*
X181352380Y-73635714D01*
X181352380Y-73516666D01*
X181328571Y-73421428D01*
X181304761Y-73373809D01*
X181280952Y-73350000D01*
X181233333Y-73326190D01*
X180876190Y-73373809D02*
X180852380Y-73350000D01*
X180804761Y-73326190D01*
X180685714Y-73326190D01*
X180638095Y-73350000D01*
X180614285Y-73373809D01*
X180590476Y-73421428D01*
X180590476Y-73469047D01*
X180614285Y-73540476D01*
X180900000Y-73826190D01*
X180590476Y-73826190D01*
X180114285Y-73826190D02*
X180400000Y-73826190D01*
X180257142Y-73826190D02*
X180257142Y-73326190D01*
X180304761Y-73397619D01*
X180352380Y-73445238D01*
X180400000Y-73469047D01*
X179900000Y-73635714D02*
X179519047Y-73635714D01*
X179185714Y-73326190D02*
X179138095Y-73326190D01*
X179090476Y-73350000D01*
X179066666Y-73373809D01*
X179042857Y-73421428D01*
X179019047Y-73516666D01*
X179019047Y-73635714D01*
X179042857Y-73730952D01*
X179066666Y-73778571D01*
X179090476Y-73802380D01*
X179138095Y-73826190D01*
X179185714Y-73826190D01*
X179233333Y-73802380D01*
X179257142Y-73778571D01*
X179280952Y-73730952D01*
X179304761Y-73635714D01*
X179304761Y-73516666D01*
X179280952Y-73421428D01*
X179257142Y-73373809D01*
X179233333Y-73350000D01*
X179185714Y-73326190D01*
X178733333Y-73540476D02*
X178780952Y-73516666D01*
X178804761Y-73492857D01*
X178828571Y-73445238D01*
X178828571Y-73421428D01*
X178804761Y-73373809D01*
X178780952Y-73350000D01*
X178733333Y-73326190D01*
X178638095Y-73326190D01*
X178590476Y-73350000D01*
X178566666Y-73373809D01*
X178542857Y-73421428D01*
X178542857Y-73445238D01*
X178566666Y-73492857D01*
X178590476Y-73516666D01*
X178638095Y-73540476D01*
X178733333Y-73540476D01*
X178780952Y-73564285D01*
X178804761Y-73588095D01*
X178828571Y-73635714D01*
X178828571Y-73730952D01*
X178804761Y-73778571D01*
X178780952Y-73802380D01*
X178733333Y-73826190D01*
X178638095Y-73826190D01*
X178590476Y-73802380D01*
X178566666Y-73778571D01*
X178542857Y-73730952D01*
X178542857Y-73635714D01*
X178566666Y-73588095D01*
X178590476Y-73564285D01*
X178638095Y-73540476D01*
X178328571Y-73635714D02*
X177947619Y-73635714D01*
X177614285Y-73326190D02*
X177566666Y-73326190D01*
X177519047Y-73350000D01*
X177495238Y-73373809D01*
X177471428Y-73421428D01*
X177447619Y-73516666D01*
X177447619Y-73635714D01*
X177471428Y-73730952D01*
X177495238Y-73778571D01*
X177519047Y-73802380D01*
X177566666Y-73826190D01*
X177614285Y-73826190D01*
X177661904Y-73802380D01*
X177685714Y-73778571D01*
X177709523Y-73730952D01*
X177733333Y-73635714D01*
X177733333Y-73516666D01*
X177709523Y-73421428D01*
X177685714Y-73373809D01*
X177661904Y-73350000D01*
X177614285Y-73326190D01*
X177280952Y-73326190D02*
X176947619Y-73326190D01*
X177161904Y-73826190D01*
D11*
%TO.C,Logo1*%
X176600000Y-79750000D02*
X178100000Y-79750000D01*
X176600000Y-77650000D02*
X176600000Y-81850000D01*
X176600000Y-77650000D02*
X179600000Y-81850000D01*
X174800000Y-77750000D02*
X176600000Y-79750000D01*
X176600000Y-79750000D02*
X174800000Y-81850000D01*
X176600000Y-81850000D02*
G75*
G03*
X178100000Y-81850000I750000J0D01*
G01*
%TD*%
D12*
%TO.P,U3,~*%
%TO.N,N/C*%
X176500000Y-67300000D03*
D13*
X176500000Y-68200000D03*
X176500000Y-69200000D03*
D14*
X176500000Y-70400000D03*
D15*
X176400000Y-67600000D03*
X176400000Y-68000000D03*
D16*
X176400000Y-68700000D03*
D13*
X176100000Y-68400000D03*
D17*
X176300000Y-69400000D03*
D13*
X175900000Y-67200000D03*
D15*
X176000000Y-67800000D03*
D12*
X175900000Y-69300000D03*
D17*
X175900000Y-68200000D03*
D15*
X175800000Y-68600000D03*
D18*
X175900000Y-70400000D03*
D13*
X175500000Y-67400000D03*
D12*
X175500000Y-68500000D03*
D19*
X175800000Y-69000000D03*
D20*
X176000000Y-69800000D03*
X176000000Y-71000000D03*
D15*
X175400000Y-67000000D03*
D19*
X175600000Y-67600000D03*
D13*
X175300000Y-68200000D03*
D17*
X175500000Y-68800000D03*
D13*
X175300000Y-69200000D03*
D21*
X175300000Y-70400000D03*
D17*
X175300000Y-67200000D03*
D22*
X175500000Y-68000000D03*
D13*
X175100000Y-68400000D03*
X175100000Y-69000000D03*
D15*
X175000000Y-67800000D03*
D13*
X174900000Y-68200000D03*
D23*
X174900000Y-69800000D03*
D13*
X174900000Y-71000000D03*
D23*
X174700000Y-67800000D03*
D16*
X174800000Y-68700000D03*
D15*
X174800000Y-70400000D03*
X174800000Y-70800000D03*
D12*
X174500000Y-67500000D03*
D23*
X174500000Y-68200000D03*
D19*
X174800000Y-69400000D03*
D13*
X174500000Y-69800000D03*
X174500000Y-70600000D03*
D12*
X174300000Y-68700000D03*
D24*
X174500000Y-70100000D03*
D23*
X174300000Y-70800000D03*
D15*
X174200000Y-67000000D03*
D23*
X174100000Y-67600000D03*
X174100000Y-68600000D03*
D13*
X174100000Y-69400000D03*
X174100000Y-69800000D03*
D25*
X174100000Y-70700000D03*
D13*
X173900000Y-69200000D03*
D14*
X173700000Y-67600000D03*
D13*
X173700000Y-68600000D03*
D20*
X174200000Y-69000000D03*
D13*
X173700000Y-69400000D03*
D14*
X173700000Y-70400000D03*
D13*
X173500000Y-68800000D03*
X173300000Y-69000000D03*
X173100000Y-68800000D03*
D15*
X173200000Y-69200000D03*
D18*
X173100000Y-67600000D03*
D15*
X173000000Y-68600000D03*
D13*
X172900000Y-69000000D03*
D17*
X173100000Y-69400000D03*
D18*
X173100000Y-70400000D03*
D20*
X173200000Y-67000000D03*
X173200000Y-68200000D03*
D25*
X172700000Y-68900000D03*
D20*
X173200000Y-69800000D03*
X173200000Y-71000000D03*
D21*
X172500000Y-67600000D03*
D23*
X172500000Y-69200000D03*
D21*
X172500000Y-70400000D03*
%TD*%
D26*
%TO.P,U1,21*%
%TO.N,GND*%
X180700000Y-62200000D03*
%TD*%
D27*
%TO.P,J1,5*%
%TO.N,TXD*%
X172040000Y-56100000D03*
%TO.P,J1,4*%
%TO.N,RXD*%
X174580000Y-56100000D03*
%TO.P,J1,3*%
%TO.N,Net-(J1-Pad3)*%
X177120000Y-56100000D03*
%TO.P,J1,2*%
%TO.N,GPIO0*%
X179660000Y-56100000D03*
D28*
%TO.P,J1,1*%
%TO.N,GND*%
X182200000Y-56100000D03*
%TD*%
D29*
%TO.P,J4,S1*%
%TO.N,GND*%
X181320000Y-80890000D03*
X172680000Y-80890000D03*
D30*
X181320000Y-76720000D03*
X172680000Y-76720000D03*
D31*
X179890000Y-77210000D03*
X174110000Y-77210000D03*
%TD*%
D32*
%TO.P,J2,6*%
%TO.N,TXD*%
X176250000Y-58600000D03*
%TO.P,J2,5*%
%TO.N,RXD*%
X177520000Y-58600000D03*
%TO.P,J2,4*%
%TO.N,+3V3*%
X178790000Y-58600000D03*
%TO.P,J2,3*%
%TO.N,RST*%
X180060000Y-58600000D03*
%TO.P,J2,2*%
%TO.N,GPIO0*%
X181330000Y-58600000D03*
D33*
%TO.P,J2,1*%
%TO.N,GND*%
X182600000Y-58600000D03*
%TD*%
D34*
%TO.N,GND*%
X179650000Y-72350000D03*
X175000000Y-72450000D03*
X181300000Y-66800000D03*
X179522512Y-69565010D03*
X172300000Y-61300000D03*
X174600000Y-57700000D03*
X173700000Y-63300000D03*
%TO.N,VBUS*%
X171784990Y-74436103D03*
X171306143Y-64813823D03*
%TO.N,RXD*%
X177793726Y-63691489D03*
%TO.N,+3V3*%
X170650001Y-74925320D03*
X170900000Y-63900000D03*
%TO.N,GPIO0*%
X179253685Y-65471634D03*
%TO.N,TXD*%
X183350000Y-57500000D03*
X173500000Y-57600000D03*
%TO.N,RST*%
X181962641Y-65100000D03*
X171000000Y-57600000D03*
%TO.N,D-*%
X182850002Y-72000000D03*
X178875553Y-60171425D03*
%TO.N,D+*%
X183250000Y-74000000D03*
X182884188Y-60184188D03*
%TO.N,Net-(C1-Pad1)*%
X182412659Y-64029507D03*
X176084365Y-61682929D03*
%TO.N,Net-(J4-PadA6)*%
X178237009Y-74843354D03*
X176750011Y-74630347D03*
%TO.N,Net-(J4-PadA5)*%
X182000000Y-79200000D03*
X175300000Y-74450000D03*
%TO.N,Net-(D1-Pad1)*%
X172000000Y-82350000D03*
X171748110Y-65710867D03*
%TD*%
D35*
%TO.N,GND*%
X180525001Y-62025001D02*
X180700000Y-62200000D01*
X179950011Y-68149989D02*
X179613600Y-68149989D01*
X181300000Y-66800000D02*
X179950011Y-68149989D01*
X179613600Y-68149989D02*
X179349989Y-68413600D01*
X179349989Y-68413600D02*
X179522512Y-68586123D01*
X179522512Y-68586123D02*
X179522512Y-69565010D01*
X179204283Y-68413600D02*
X179349989Y-68413600D01*
X176504935Y-65695065D02*
X177449914Y-66640043D01*
X179522512Y-69565010D02*
X179522512Y-68712642D01*
X175804935Y-64995065D02*
X176504935Y-65695065D01*
X179522512Y-68712642D02*
X175804935Y-64995065D01*
X182600000Y-59443057D02*
X180700000Y-61343057D01*
X182600000Y-58600000D02*
X182600000Y-59443057D01*
X180700000Y-61343057D02*
X180700000Y-62200000D01*
X175285245Y-61539853D02*
X175285245Y-62919773D01*
X175285245Y-62919773D02*
X173924976Y-64280042D01*
X175089912Y-64280042D02*
X173924976Y-64280042D01*
X175804935Y-64995065D02*
X175089912Y-64280042D01*
X181024999Y-57275001D02*
X176555999Y-57275001D01*
X176455996Y-57174998D02*
X175725002Y-57174998D01*
X182200000Y-56100000D02*
X181024999Y-57275001D01*
X176555999Y-57275001D02*
X176455996Y-57174998D01*
X175725002Y-57174998D02*
X175624999Y-57275001D01*
X175024999Y-57275001D02*
X176555999Y-57275001D01*
X174600000Y-57700000D02*
X175024999Y-57275001D01*
%TO.N,VBUS*%
X170899991Y-65219975D02*
X171306143Y-64813823D01*
X171784990Y-74436103D02*
X170899991Y-73551104D01*
X170899991Y-73551104D02*
X170899991Y-65219975D01*
%TO.N,RXD*%
X172774998Y-57948002D02*
X172774998Y-57251998D01*
X173926996Y-56100000D02*
X174580000Y-56100000D01*
X177520000Y-58600000D02*
X176694999Y-59425001D01*
X174251997Y-59425001D02*
X172774998Y-57948002D01*
X172774998Y-57251998D02*
X173926996Y-56100000D01*
X176694999Y-59425001D02*
X174251997Y-59425001D01*
X177020001Y-59983591D02*
X177793726Y-60757316D01*
X177020001Y-59099999D02*
X177020001Y-59983591D01*
X177793726Y-60757316D02*
X177793726Y-63691489D01*
X177520000Y-58600000D02*
X177020001Y-59099999D01*
%TO.N,+3V3*%
X170449980Y-74725299D02*
X170650001Y-74925320D01*
X170449980Y-64350020D02*
X170449980Y-64850020D01*
X170900000Y-63900000D02*
X170449980Y-64350020D01*
X170449980Y-64850020D02*
X170449980Y-74725299D01*
%TO.N,GPIO0*%
X181330000Y-59307106D02*
X179418750Y-61218356D01*
X179418750Y-65306569D02*
X179253685Y-65471634D01*
X181330000Y-58600000D02*
X181330000Y-59307106D01*
X179418750Y-61218356D02*
X179418750Y-65306569D01*
%TO.N,TXD*%
X176250000Y-58600000D02*
X177075001Y-57774999D01*
X183075001Y-57774999D02*
X183350000Y-57500000D01*
X182725001Y-57774999D02*
X183075001Y-57774999D01*
X177075001Y-57774999D02*
X182725001Y-57774999D01*
X174426998Y-58600000D02*
X173500000Y-57673002D01*
X176250000Y-58600000D02*
X174426998Y-58600000D01*
X173500000Y-57673002D02*
X173500000Y-57600000D01*
%TO.N,RST*%
X177068716Y-64583377D02*
X178316623Y-64583377D01*
X178316623Y-64583377D02*
X178345354Y-64554646D01*
X181334734Y-65100000D02*
X181962641Y-65100000D01*
X178078673Y-64821327D02*
X178078673Y-65988320D01*
X178345354Y-64554646D02*
X178078673Y-64821327D01*
X178078673Y-65988320D02*
X178737000Y-66646647D01*
X178737000Y-66646647D02*
X179788087Y-66646647D01*
X179788087Y-66646647D02*
X181334734Y-65100000D01*
X177068716Y-64583377D02*
X177068716Y-60668716D01*
X180060000Y-58600000D02*
X179213577Y-59446423D01*
X178518728Y-64381272D02*
X178345354Y-64554646D01*
X178502691Y-59446423D02*
X177810967Y-60138145D01*
X179213577Y-59446423D02*
X178502691Y-59446423D01*
X177810967Y-60138145D02*
X178518728Y-60845906D01*
X178518728Y-60845906D02*
X178518728Y-64381272D01*
X173275012Y-59875012D02*
X171000000Y-57600000D01*
X176275012Y-59875012D02*
X173275012Y-59875012D01*
X177068716Y-60668716D02*
X176275012Y-59875012D01*
%TO.N,D-*%
X178923400Y-66196636D02*
X178528684Y-65801920D01*
X178528684Y-65801920D02*
X178528684Y-65123633D01*
X178968739Y-64683578D02*
X178968739Y-60264611D01*
X182850002Y-72000000D02*
X182850002Y-71434315D01*
X182786502Y-63013498D02*
X182403349Y-63013498D01*
X183137662Y-71146655D02*
X183137662Y-63364658D01*
X178968739Y-60264611D02*
X178875553Y-60171425D01*
X179978687Y-65819636D02*
X179601687Y-66196636D01*
X182850002Y-71434315D02*
X183137662Y-71146655D01*
X179978687Y-65438160D02*
X179978687Y-65819636D01*
X183137662Y-63364658D02*
X182786502Y-63013498D01*
X179601687Y-66196636D02*
X178923400Y-66196636D01*
X182403349Y-63013498D02*
X179978687Y-65438160D01*
X178528684Y-65123633D02*
X178968739Y-64683578D01*
%TO.N,D+*%
X183250000Y-74000000D02*
X183250000Y-73434315D01*
X183587673Y-73096642D02*
X183587673Y-60887673D01*
X183250000Y-73434315D02*
X183587673Y-73096642D01*
X183587673Y-60887673D02*
X182884188Y-60184188D01*
%TO.N,Net-(C1-Pad1)*%
X179974487Y-67096658D02*
X178542939Y-67096658D01*
X182412659Y-64029507D02*
X182687651Y-64304499D01*
X178542939Y-67096658D02*
X176084365Y-64638084D01*
X182687651Y-65608397D02*
X182448024Y-65848024D01*
X181223121Y-65848024D02*
X179974487Y-67096658D01*
X176084365Y-64638084D02*
X176084365Y-61682929D01*
X182687651Y-64304499D02*
X182687651Y-65608397D01*
X182448024Y-65848024D02*
X181223121Y-65848024D01*
%TO.N,Net-(J4-PadA6)*%
X178237009Y-74843354D02*
X176963018Y-74843354D01*
X176963018Y-74843354D02*
X176750011Y-74630347D01*
%TO.N,Net-(J4-PadA5)*%
X175300000Y-74450000D02*
X175300000Y-75100000D01*
X179400000Y-79200000D02*
X179900000Y-79200000D01*
X175300000Y-75100000D02*
X179400000Y-79200000D01*
X182000000Y-79200000D02*
X179900000Y-79200000D01*
%TO.N,Net-(D1-Pad1)*%
X171400000Y-72630000D02*
X171400000Y-66058977D01*
X171995000Y-75425000D02*
X172510000Y-74910000D01*
X171475000Y-75425000D02*
X171995000Y-75425000D01*
X172510000Y-73740000D02*
X171400000Y-72630000D01*
X172000000Y-82350000D02*
X170650000Y-81000000D01*
X170650000Y-81000000D02*
X170650000Y-76250000D01*
X172510000Y-74910000D02*
X172510000Y-73740000D01*
X170650000Y-76250000D02*
X171475000Y-75425000D01*
X171400000Y-66058977D02*
X171748110Y-65710867D01*
%TD*%
D36*
%TO.N,GND*%
X182377662Y-70831854D02*
X182339000Y-70870516D01*
X182310002Y-70894314D01*
X182286204Y-70923312D01*
X182286203Y-70923313D01*
X182215028Y-71010039D01*
X182180572Y-71074501D01*
X182144456Y-71142068D01*
X182101015Y-71285276D01*
X182046065Y-71340226D01*
X181932797Y-71509744D01*
X181854776Y-71698102D01*
X181815002Y-71898061D01*
X181815002Y-72101939D01*
X181854776Y-72301898D01*
X181932797Y-72490256D01*
X181996103Y-72585000D01*
X176201191Y-72585000D01*
X176201191Y-73752273D01*
X176116423Y-73808913D01*
X176103937Y-73790226D01*
X175959774Y-73646063D01*
X175790256Y-73532795D01*
X175601898Y-73454774D01*
X175401939Y-73415000D01*
X175198061Y-73415000D01*
X174998102Y-73454774D01*
X174809744Y-73532795D01*
X174640226Y-73646063D01*
X174496063Y-73790226D01*
X174382795Y-73959744D01*
X174304774Y-74148102D01*
X174265000Y-74348061D01*
X174265000Y-74551939D01*
X174304774Y-74751898D01*
X174382795Y-74940256D01*
X174496063Y-75109774D01*
X174541789Y-75155500D01*
X174550997Y-75248986D01*
X174594454Y-75392247D01*
X174611962Y-75425001D01*
X174665026Y-75524276D01*
X174732941Y-75607030D01*
X174760000Y-75640001D01*
X174788998Y-75663799D01*
X176154867Y-77029668D01*
X176108702Y-77070029D01*
X176059999Y-77109999D01*
X176052415Y-77119241D01*
X176043416Y-77127108D01*
X176004983Y-77177037D01*
X175965026Y-77225725D01*
X175959393Y-77236263D01*
X175952099Y-77245739D01*
X175924153Y-77302192D01*
X175894454Y-77357754D01*
X175890982Y-77369199D01*
X175885682Y-77379906D01*
X175869290Y-77440709D01*
X175850997Y-77501015D01*
X175849825Y-77512912D01*
X175846714Y-77524453D01*
X175842498Y-77587301D01*
X175840000Y-77612668D01*
X175840000Y-77624550D01*
X175836695Y-77673823D01*
X175840000Y-77699227D01*
X175840000Y-77769472D01*
X175339929Y-77213838D01*
X175257063Y-77138203D01*
X175128925Y-77060790D01*
X174988146Y-77009863D01*
X174840137Y-76987379D01*
X174690587Y-76994202D01*
X174545241Y-77030069D01*
X174409684Y-77093605D01*
X174289128Y-77182364D01*
X174188203Y-77292937D01*
X174110790Y-77421075D01*
X174059863Y-77561854D01*
X174037379Y-77709863D01*
X174044202Y-77859413D01*
X174080069Y-78004759D01*
X174143605Y-78140316D01*
X174210122Y-78230663D01*
X175588535Y-79762233D01*
X174198669Y-81383744D01*
X174134356Y-81475674D01*
X174074118Y-81612728D01*
X174041777Y-81758899D01*
X174038573Y-81908571D01*
X174064631Y-82055993D01*
X174118947Y-82195498D01*
X174195148Y-82315000D01*
X173035000Y-82315000D01*
X173035000Y-82248061D01*
X173007994Y-82112293D01*
X173235158Y-82027893D01*
X173317694Y-81983777D01*
X173368043Y-81757648D01*
X172680000Y-81069605D01*
X172665858Y-81083748D01*
X172486253Y-80904143D01*
X172500395Y-80890000D01*
X172859605Y-80890000D01*
X173547648Y-81578043D01*
X173773777Y-81527694D01*
X173877168Y-81302056D01*
X173934553Y-81060582D01*
X173943726Y-80812553D01*
X173904335Y-80567501D01*
X173817893Y-80334842D01*
X173773777Y-80252306D01*
X173547648Y-80201957D01*
X172859605Y-80890000D01*
X172500395Y-80890000D01*
X171812352Y-80201957D01*
X171586223Y-80252306D01*
X171482832Y-80477944D01*
X171429052Y-80704250D01*
X171410000Y-80685199D01*
X171410000Y-80022352D01*
X171991957Y-80022352D01*
X172680000Y-80710395D01*
X173368043Y-80022352D01*
X173317694Y-79796223D01*
X173092056Y-79692832D01*
X172850582Y-79635447D01*
X172602553Y-79626274D01*
X172357501Y-79665665D01*
X172124842Y-79752107D01*
X172042306Y-79796223D01*
X171991957Y-80022352D01*
X171410000Y-80022352D01*
X171410000Y-77676993D01*
X171902612Y-77676993D01*
X171968137Y-77915860D01*
X172215116Y-78031760D01*
X172479960Y-78097250D01*
X172752492Y-78109812D01*
X173022238Y-78068965D01*
X173278832Y-77976277D01*
X173391863Y-77915860D01*
X173457388Y-77676993D01*
X172680000Y-76899605D01*
X171902612Y-77676993D01*
X171410000Y-77676993D01*
X171410000Y-77280842D01*
X171423723Y-77318832D01*
X171484140Y-77431863D01*
X171723007Y-77497388D01*
X172500395Y-76720000D01*
X172859605Y-76720000D01*
X173636993Y-77497388D01*
X173875860Y-77431863D01*
X173991760Y-77184884D01*
X174057250Y-76920040D01*
X174069812Y-76647508D01*
X174028965Y-76377762D01*
X173936277Y-76121168D01*
X173875860Y-76008137D01*
X173636993Y-75942612D01*
X172859605Y-76720000D01*
X172500395Y-76720000D01*
X172486253Y-76705858D01*
X172665858Y-76526253D01*
X172680000Y-76540395D01*
X173457388Y-75763007D01*
X173391863Y-75524140D01*
X173144884Y-75408240D01*
X173094499Y-75395781D01*
X173144974Y-75334277D01*
X173215546Y-75202247D01*
X173216294Y-75199780D01*
X173259003Y-75058986D01*
X173270000Y-74947333D01*
X173270000Y-74947323D01*
X173273676Y-74910000D01*
X173270000Y-74872678D01*
X173270000Y-73777322D01*
X173273676Y-73739999D01*
X173270000Y-73702676D01*
X173270000Y-73702667D01*
X173259003Y-73591014D01*
X173215546Y-73447753D01*
X173188408Y-73396982D01*
X173144974Y-73315723D01*
X173073799Y-73228997D01*
X173050001Y-73199999D01*
X173021003Y-73176201D01*
X172160000Y-72315199D01*
X172160000Y-72127000D01*
X177500000Y-72127000D01*
X177524776Y-72124560D01*
X177548601Y-72117333D01*
X177570557Y-72105597D01*
X177589803Y-72089803D01*
X177605597Y-72070557D01*
X177617333Y-72048601D01*
X177624560Y-72024776D01*
X177627000Y-72000000D01*
X177627000Y-67255521D01*
X177979140Y-67607661D01*
X178002938Y-67636659D01*
X178118663Y-67731632D01*
X178250692Y-67802204D01*
X178393953Y-67845661D01*
X178505606Y-67856658D01*
X178505614Y-67856658D01*
X178542939Y-67860334D01*
X178580264Y-67856658D01*
X179937165Y-67856658D01*
X179974487Y-67860334D01*
X180011809Y-67856658D01*
X180011820Y-67856658D01*
X180123473Y-67845661D01*
X180266734Y-67802204D01*
X180398763Y-67731632D01*
X180514488Y-67636659D01*
X180538291Y-67607655D01*
X181537923Y-66608024D01*
X182377663Y-66608024D01*
X182377662Y-70831854D01*
%TA.AperFunction,Conductor*%
D37*
G36*
X182377662Y-70831854D02*
G01*
X182339000Y-70870516D01*
X182310002Y-70894314D01*
X182286204Y-70923312D01*
X182286203Y-70923313D01*
X182215028Y-71010039D01*
X182180572Y-71074501D01*
X182144456Y-71142068D01*
X182101015Y-71285276D01*
X182046065Y-71340226D01*
X181932797Y-71509744D01*
X181854776Y-71698102D01*
X181815002Y-71898061D01*
X181815002Y-72101939D01*
X181854776Y-72301898D01*
X181932797Y-72490256D01*
X181996103Y-72585000D01*
X176201191Y-72585000D01*
X176201191Y-73752273D01*
X176116423Y-73808913D01*
X176103937Y-73790226D01*
X175959774Y-73646063D01*
X175790256Y-73532795D01*
X175601898Y-73454774D01*
X175401939Y-73415000D01*
X175198061Y-73415000D01*
X174998102Y-73454774D01*
X174809744Y-73532795D01*
X174640226Y-73646063D01*
X174496063Y-73790226D01*
X174382795Y-73959744D01*
X174304774Y-74148102D01*
X174265000Y-74348061D01*
X174265000Y-74551939D01*
X174304774Y-74751898D01*
X174382795Y-74940256D01*
X174496063Y-75109774D01*
X174541789Y-75155500D01*
X174550997Y-75248986D01*
X174594454Y-75392247D01*
X174611962Y-75425001D01*
X174665026Y-75524276D01*
X174732941Y-75607030D01*
X174760000Y-75640001D01*
X174788998Y-75663799D01*
X176154867Y-77029668D01*
X176108702Y-77070029D01*
X176059999Y-77109999D01*
X176052415Y-77119241D01*
X176043416Y-77127108D01*
X176004983Y-77177037D01*
X175965026Y-77225725D01*
X175959393Y-77236263D01*
X175952099Y-77245739D01*
X175924153Y-77302192D01*
X175894454Y-77357754D01*
X175890982Y-77369199D01*
X175885682Y-77379906D01*
X175869290Y-77440709D01*
X175850997Y-77501015D01*
X175849825Y-77512912D01*
X175846714Y-77524453D01*
X175842498Y-77587301D01*
X175840000Y-77612668D01*
X175840000Y-77624550D01*
X175836695Y-77673823D01*
X175840000Y-77699227D01*
X175840000Y-77769472D01*
X175339929Y-77213838D01*
X175257063Y-77138203D01*
X175128925Y-77060790D01*
X174988146Y-77009863D01*
X174840137Y-76987379D01*
X174690587Y-76994202D01*
X174545241Y-77030069D01*
X174409684Y-77093605D01*
X174289128Y-77182364D01*
X174188203Y-77292937D01*
X174110790Y-77421075D01*
X174059863Y-77561854D01*
X174037379Y-77709863D01*
X174044202Y-77859413D01*
X174080069Y-78004759D01*
X174143605Y-78140316D01*
X174210122Y-78230663D01*
X175588535Y-79762233D01*
X174198669Y-81383744D01*
X174134356Y-81475674D01*
X174074118Y-81612728D01*
X174041777Y-81758899D01*
X174038573Y-81908571D01*
X174064631Y-82055993D01*
X174118947Y-82195498D01*
X174195148Y-82315000D01*
X173035000Y-82315000D01*
X173035000Y-82248061D01*
X173007994Y-82112293D01*
X173235158Y-82027893D01*
X173317694Y-81983777D01*
X173368043Y-81757648D01*
X172680000Y-81069605D01*
X172665858Y-81083748D01*
X172486253Y-80904143D01*
X172500395Y-80890000D01*
X172859605Y-80890000D01*
X173547648Y-81578043D01*
X173773777Y-81527694D01*
X173877168Y-81302056D01*
X173934553Y-81060582D01*
X173943726Y-80812553D01*
X173904335Y-80567501D01*
X173817893Y-80334842D01*
X173773777Y-80252306D01*
X173547648Y-80201957D01*
X172859605Y-80890000D01*
X172500395Y-80890000D01*
X171812352Y-80201957D01*
X171586223Y-80252306D01*
X171482832Y-80477944D01*
X171429052Y-80704250D01*
X171410000Y-80685199D01*
X171410000Y-80022352D01*
X171991957Y-80022352D01*
X172680000Y-80710395D01*
X173368043Y-80022352D01*
X173317694Y-79796223D01*
X173092056Y-79692832D01*
X172850582Y-79635447D01*
X172602553Y-79626274D01*
X172357501Y-79665665D01*
X172124842Y-79752107D01*
X172042306Y-79796223D01*
X171991957Y-80022352D01*
X171410000Y-80022352D01*
X171410000Y-77676993D01*
X171902612Y-77676993D01*
X171968137Y-77915860D01*
X172215116Y-78031760D01*
X172479960Y-78097250D01*
X172752492Y-78109812D01*
X173022238Y-78068965D01*
X173278832Y-77976277D01*
X173391863Y-77915860D01*
X173457388Y-77676993D01*
X172680000Y-76899605D01*
X171902612Y-77676993D01*
X171410000Y-77676993D01*
X171410000Y-77280842D01*
X171423723Y-77318832D01*
X171484140Y-77431863D01*
X171723007Y-77497388D01*
X172500395Y-76720000D01*
X172859605Y-76720000D01*
X173636993Y-77497388D01*
X173875860Y-77431863D01*
X173991760Y-77184884D01*
X174057250Y-76920040D01*
X174069812Y-76647508D01*
X174028965Y-76377762D01*
X173936277Y-76121168D01*
X173875860Y-76008137D01*
X173636993Y-75942612D01*
X172859605Y-76720000D01*
X172500395Y-76720000D01*
X172486253Y-76705858D01*
X172665858Y-76526253D01*
X172680000Y-76540395D01*
X173457388Y-75763007D01*
X173391863Y-75524140D01*
X173144884Y-75408240D01*
X173094499Y-75395781D01*
X173144974Y-75334277D01*
X173215546Y-75202247D01*
X173216294Y-75199780D01*
X173259003Y-75058986D01*
X173270000Y-74947333D01*
X173270000Y-74947323D01*
X173273676Y-74910000D01*
X173270000Y-74872678D01*
X173270000Y-73777322D01*
X173273676Y-73739999D01*
X173270000Y-73702676D01*
X173270000Y-73702667D01*
X173259003Y-73591014D01*
X173215546Y-73447753D01*
X173188408Y-73396982D01*
X173144974Y-73315723D01*
X173073799Y-73228997D01*
X173050001Y-73199999D01*
X173021003Y-73176201D01*
X172160000Y-72315199D01*
X172160000Y-72127000D01*
X177500000Y-72127000D01*
X177524776Y-72124560D01*
X177548601Y-72117333D01*
X177570557Y-72105597D01*
X177589803Y-72089803D01*
X177605597Y-72070557D01*
X177617333Y-72048601D01*
X177624560Y-72024776D01*
X177627000Y-72000000D01*
X177627000Y-67255521D01*
X177979140Y-67607661D01*
X178002938Y-67636659D01*
X178118663Y-67731632D01*
X178250692Y-67802204D01*
X178393953Y-67845661D01*
X178505606Y-67856658D01*
X178505614Y-67856658D01*
X178542939Y-67860334D01*
X178580264Y-67856658D01*
X179937165Y-67856658D01*
X179974487Y-67860334D01*
X180011809Y-67856658D01*
X180011820Y-67856658D01*
X180123473Y-67845661D01*
X180266734Y-67802204D01*
X180398763Y-67731632D01*
X180514488Y-67636659D01*
X180538291Y-67607655D01*
X181537923Y-66608024D01*
X182377663Y-66608024D01*
X182377662Y-70831854D01*
G37*
%TD.AperFunction*%
D36*
X182590226Y-74803937D02*
X182759744Y-74917205D01*
X182948102Y-74995226D01*
X183148061Y-75035000D01*
X183315000Y-75035000D01*
X183315000Y-81966495D01*
X183305778Y-82060546D01*
X183288194Y-82118787D01*
X183259635Y-82172500D01*
X183221183Y-82219646D01*
X183174310Y-82258423D01*
X183120796Y-82287358D01*
X183062677Y-82305349D01*
X182970855Y-82315000D01*
X180201146Y-82315000D01*
X180247901Y-82254261D01*
X180314318Y-82120094D01*
X180353286Y-81975547D01*
X180363304Y-81826176D01*
X180354390Y-81757648D01*
X180631957Y-81757648D01*
X180682306Y-81983777D01*
X180907944Y-82087168D01*
X181149418Y-82144553D01*
X181397447Y-82153726D01*
X181642499Y-82114335D01*
X181875158Y-82027893D01*
X181957694Y-81983777D01*
X182008043Y-81757648D01*
X181320000Y-81069605D01*
X180631957Y-81757648D01*
X180354390Y-81757648D01*
X180343991Y-81677720D01*
X180298775Y-81543848D01*
X180452352Y-81578043D01*
X181140395Y-80890000D01*
X180452352Y-80201957D01*
X180226223Y-80252306D01*
X180122832Y-80477944D01*
X180065447Y-80719418D01*
X180056274Y-80967447D01*
X180095665Y-81212499D01*
X180114154Y-81262262D01*
X179155393Y-79919997D01*
X179251014Y-79949003D01*
X179400000Y-79963677D01*
X179437333Y-79960000D01*
X180645840Y-79960000D01*
X180631957Y-80022352D01*
X181320000Y-80710395D01*
X181334143Y-80696253D01*
X181513748Y-80875858D01*
X181499605Y-80890000D01*
X182187648Y-81578043D01*
X182413777Y-81527694D01*
X182517168Y-81302056D01*
X182574553Y-81060582D01*
X182583726Y-80812553D01*
X182544335Y-80567501D01*
X182457893Y-80334842D01*
X182413777Y-80252306D01*
X182225589Y-80210405D01*
X182301898Y-80195226D01*
X182490256Y-80117205D01*
X182659774Y-80003937D01*
X182803937Y-79859774D01*
X182917205Y-79690256D01*
X182995226Y-79501898D01*
X183035000Y-79301939D01*
X183035000Y-79098061D01*
X182995226Y-78898102D01*
X182917205Y-78709744D01*
X182803937Y-78540226D01*
X182659774Y-78396063D01*
X182490256Y-78282795D01*
X182301898Y-78204774D01*
X182101939Y-78165000D01*
X181898061Y-78165000D01*
X181698102Y-78204774D01*
X181509744Y-78282795D01*
X181340226Y-78396063D01*
X181296289Y-78440000D01*
X179714802Y-78440000D01*
X178951795Y-77676993D01*
X180542612Y-77676993D01*
X180608137Y-77915860D01*
X180855116Y-78031760D01*
X181119960Y-78097250D01*
X181392492Y-78109812D01*
X181662238Y-78068965D01*
X181918832Y-77976277D01*
X182031863Y-77915860D01*
X182097388Y-77676993D01*
X181320000Y-76899605D01*
X180542612Y-77676993D01*
X178951795Y-77676993D01*
X178067294Y-76792492D01*
X179930188Y-76792492D01*
X179971035Y-77062238D01*
X180063723Y-77318832D01*
X180124140Y-77431863D01*
X180363007Y-77497388D01*
X181140395Y-76720000D01*
X181499605Y-76720000D01*
X182276993Y-77497388D01*
X182515860Y-77431863D01*
X182631760Y-77184884D01*
X182697250Y-76920040D01*
X182709812Y-76647508D01*
X182668965Y-76377762D01*
X182576277Y-76121168D01*
X182515860Y-76008137D01*
X182276993Y-75942612D01*
X181499605Y-76720000D01*
X181140395Y-76720000D01*
X180363007Y-75942612D01*
X180124140Y-76008137D01*
X180008240Y-76255116D01*
X179942750Y-76519960D01*
X179930188Y-76792492D01*
X178067294Y-76792492D01*
X176925515Y-75650714D01*
X177051909Y-75625573D01*
X177105550Y-75603354D01*
X177533298Y-75603354D01*
X177577235Y-75647291D01*
X177746753Y-75760559D01*
X177935111Y-75838580D01*
X178135070Y-75878354D01*
X178338948Y-75878354D01*
X178538907Y-75838580D01*
X178721355Y-75763007D01*
X180542612Y-75763007D01*
X181320000Y-76540395D01*
X182097388Y-75763007D01*
X182031863Y-75524140D01*
X181784884Y-75408240D01*
X181520040Y-75342750D01*
X181247508Y-75330188D01*
X180977762Y-75371035D01*
X180721168Y-75463723D01*
X180608137Y-75524140D01*
X180542612Y-75763007D01*
X178721355Y-75763007D01*
X178727265Y-75760559D01*
X178896783Y-75647291D01*
X179040946Y-75503128D01*
X179154214Y-75333610D01*
X179232235Y-75145252D01*
X179272009Y-74945293D01*
X179272009Y-74741415D01*
X179260787Y-74685000D01*
X182471289Y-74685000D01*
X182590226Y-74803937D01*
%TA.AperFunction,Conductor*%
D37*
G36*
X182590226Y-74803937D02*
G01*
X182759744Y-74917205D01*
X182948102Y-74995226D01*
X183148061Y-75035000D01*
X183315000Y-75035000D01*
X183315000Y-81966495D01*
X183305778Y-82060546D01*
X183288194Y-82118787D01*
X183259635Y-82172500D01*
X183221183Y-82219646D01*
X183174310Y-82258423D01*
X183120796Y-82287358D01*
X183062677Y-82305349D01*
X182970855Y-82315000D01*
X180201146Y-82315000D01*
X180247901Y-82254261D01*
X180314318Y-82120094D01*
X180353286Y-81975547D01*
X180363304Y-81826176D01*
X180354390Y-81757648D01*
X180631957Y-81757648D01*
X180682306Y-81983777D01*
X180907944Y-82087168D01*
X181149418Y-82144553D01*
X181397447Y-82153726D01*
X181642499Y-82114335D01*
X181875158Y-82027893D01*
X181957694Y-81983777D01*
X182008043Y-81757648D01*
X181320000Y-81069605D01*
X180631957Y-81757648D01*
X180354390Y-81757648D01*
X180343991Y-81677720D01*
X180298775Y-81543848D01*
X180452352Y-81578043D01*
X181140395Y-80890000D01*
X180452352Y-80201957D01*
X180226223Y-80252306D01*
X180122832Y-80477944D01*
X180065447Y-80719418D01*
X180056274Y-80967447D01*
X180095665Y-81212499D01*
X180114154Y-81262262D01*
X179155393Y-79919997D01*
X179251014Y-79949003D01*
X179400000Y-79963677D01*
X179437333Y-79960000D01*
X180645840Y-79960000D01*
X180631957Y-80022352D01*
X181320000Y-80710395D01*
X181334143Y-80696253D01*
X181513748Y-80875858D01*
X181499605Y-80890000D01*
X182187648Y-81578043D01*
X182413777Y-81527694D01*
X182517168Y-81302056D01*
X182574553Y-81060582D01*
X182583726Y-80812553D01*
X182544335Y-80567501D01*
X182457893Y-80334842D01*
X182413777Y-80252306D01*
X182225589Y-80210405D01*
X182301898Y-80195226D01*
X182490256Y-80117205D01*
X182659774Y-80003937D01*
X182803937Y-79859774D01*
X182917205Y-79690256D01*
X182995226Y-79501898D01*
X183035000Y-79301939D01*
X183035000Y-79098061D01*
X182995226Y-78898102D01*
X182917205Y-78709744D01*
X182803937Y-78540226D01*
X182659774Y-78396063D01*
X182490256Y-78282795D01*
X182301898Y-78204774D01*
X182101939Y-78165000D01*
X181898061Y-78165000D01*
X181698102Y-78204774D01*
X181509744Y-78282795D01*
X181340226Y-78396063D01*
X181296289Y-78440000D01*
X179714802Y-78440000D01*
X178951795Y-77676993D01*
X180542612Y-77676993D01*
X180608137Y-77915860D01*
X180855116Y-78031760D01*
X181119960Y-78097250D01*
X181392492Y-78109812D01*
X181662238Y-78068965D01*
X181918832Y-77976277D01*
X182031863Y-77915860D01*
X182097388Y-77676993D01*
X181320000Y-76899605D01*
X180542612Y-77676993D01*
X178951795Y-77676993D01*
X178067294Y-76792492D01*
X179930188Y-76792492D01*
X179971035Y-77062238D01*
X180063723Y-77318832D01*
X180124140Y-77431863D01*
X180363007Y-77497388D01*
X181140395Y-76720000D01*
X181499605Y-76720000D01*
X182276993Y-77497388D01*
X182515860Y-77431863D01*
X182631760Y-77184884D01*
X182697250Y-76920040D01*
X182709812Y-76647508D01*
X182668965Y-76377762D01*
X182576277Y-76121168D01*
X182515860Y-76008137D01*
X182276993Y-75942612D01*
X181499605Y-76720000D01*
X181140395Y-76720000D01*
X180363007Y-75942612D01*
X180124140Y-76008137D01*
X180008240Y-76255116D01*
X179942750Y-76519960D01*
X179930188Y-76792492D01*
X178067294Y-76792492D01*
X176925515Y-75650714D01*
X177051909Y-75625573D01*
X177105550Y-75603354D01*
X177533298Y-75603354D01*
X177577235Y-75647291D01*
X177746753Y-75760559D01*
X177935111Y-75838580D01*
X178135070Y-75878354D01*
X178338948Y-75878354D01*
X178538907Y-75838580D01*
X178721355Y-75763007D01*
X180542612Y-75763007D01*
X181320000Y-76540395D01*
X182097388Y-75763007D01*
X182031863Y-75524140D01*
X181784884Y-75408240D01*
X181520040Y-75342750D01*
X181247508Y-75330188D01*
X180977762Y-75371035D01*
X180721168Y-75463723D01*
X180608137Y-75524140D01*
X180542612Y-75763007D01*
X178721355Y-75763007D01*
X178727265Y-75760559D01*
X178896783Y-75647291D01*
X179040946Y-75503128D01*
X179154214Y-75333610D01*
X179232235Y-75145252D01*
X179272009Y-74945293D01*
X179272009Y-74741415D01*
X179260787Y-74685000D01*
X182471289Y-74685000D01*
X182590226Y-74803937D01*
G37*
%TD.AperFunction*%
D36*
X170698102Y-58595226D02*
X170898061Y-58635000D01*
X170960199Y-58635000D01*
X172711212Y-60386014D01*
X172735011Y-60415013D01*
X172850736Y-60509986D01*
X172982765Y-60580558D01*
X173126026Y-60624015D01*
X173237679Y-60635012D01*
X173237689Y-60635012D01*
X173275012Y-60638688D01*
X173312335Y-60635012D01*
X175960211Y-60635012D01*
X175974670Y-60649472D01*
X175782467Y-60687703D01*
X175594109Y-60765724D01*
X175424591Y-60878992D01*
X175280428Y-61023155D01*
X175167160Y-61192673D01*
X175089139Y-61381031D01*
X175049365Y-61580990D01*
X175049365Y-61784868D01*
X175089139Y-61984827D01*
X175167160Y-62173185D01*
X175280428Y-62342703D01*
X175324366Y-62386641D01*
X175324365Y-64600761D01*
X175320689Y-64638084D01*
X175324365Y-64675406D01*
X175324365Y-64675416D01*
X175335362Y-64787069D01*
X175371721Y-64906930D01*
X175378819Y-64930330D01*
X175449391Y-65062360D01*
X175475889Y-65094647D01*
X175544364Y-65178085D01*
X175573368Y-65201888D01*
X176244480Y-65873000D01*
X172771137Y-65873000D01*
X172783110Y-65812806D01*
X172783110Y-65608928D01*
X172743336Y-65408969D01*
X172665315Y-65220611D01*
X172552047Y-65051093D01*
X172407884Y-64906930D01*
X172341143Y-64862335D01*
X172341143Y-64711884D01*
X172301369Y-64511925D01*
X172223348Y-64323567D01*
X172110080Y-64154049D01*
X171965917Y-64009886D01*
X171935000Y-63989228D01*
X171935000Y-63798061D01*
X171895226Y-63598102D01*
X171817205Y-63409744D01*
X171703937Y-63240226D01*
X171559774Y-63096063D01*
X171390256Y-62982795D01*
X171201898Y-62904774D01*
X171001939Y-62865000D01*
X170798061Y-62865000D01*
X170685000Y-62887489D01*
X170685000Y-58589799D01*
X170698102Y-58595226D01*
%TA.AperFunction,Conductor*%
D37*
G36*
X170698102Y-58595226D02*
G01*
X170898061Y-58635000D01*
X170960199Y-58635000D01*
X172711212Y-60386014D01*
X172735011Y-60415013D01*
X172850736Y-60509986D01*
X172982765Y-60580558D01*
X173126026Y-60624015D01*
X173237679Y-60635012D01*
X173237689Y-60635012D01*
X173275012Y-60638688D01*
X173312335Y-60635012D01*
X175960211Y-60635012D01*
X175974670Y-60649472D01*
X175782467Y-60687703D01*
X175594109Y-60765724D01*
X175424591Y-60878992D01*
X175280428Y-61023155D01*
X175167160Y-61192673D01*
X175089139Y-61381031D01*
X175049365Y-61580990D01*
X175049365Y-61784868D01*
X175089139Y-61984827D01*
X175167160Y-62173185D01*
X175280428Y-62342703D01*
X175324366Y-62386641D01*
X175324365Y-64600761D01*
X175320689Y-64638084D01*
X175324365Y-64675406D01*
X175324365Y-64675416D01*
X175335362Y-64787069D01*
X175371721Y-64906930D01*
X175378819Y-64930330D01*
X175449391Y-65062360D01*
X175475889Y-65094647D01*
X175544364Y-65178085D01*
X175573368Y-65201888D01*
X176244480Y-65873000D01*
X172771137Y-65873000D01*
X172783110Y-65812806D01*
X172783110Y-65608928D01*
X172743336Y-65408969D01*
X172665315Y-65220611D01*
X172552047Y-65051093D01*
X172407884Y-64906930D01*
X172341143Y-64862335D01*
X172341143Y-64711884D01*
X172301369Y-64511925D01*
X172223348Y-64323567D01*
X172110080Y-64154049D01*
X171965917Y-64009886D01*
X171935000Y-63989228D01*
X171935000Y-63798061D01*
X171895226Y-63598102D01*
X171817205Y-63409744D01*
X171703937Y-63240226D01*
X171559774Y-63096063D01*
X171390256Y-62982795D01*
X171201898Y-62904774D01*
X171001939Y-62865000D01*
X170798061Y-62865000D01*
X170685000Y-62887489D01*
X170685000Y-58589799D01*
X170698102Y-58595226D01*
G37*
%TD.AperFunction*%
D36*
X181888962Y-59882290D02*
X181849188Y-60082249D01*
X181849188Y-60286127D01*
X181888962Y-60486086D01*
X181966983Y-60674444D01*
X182080251Y-60843962D01*
X182224414Y-60988125D01*
X182393932Y-61101393D01*
X182582290Y-61179414D01*
X182782249Y-61219188D01*
X182827674Y-61219188D01*
X182827674Y-62253876D01*
X182823835Y-62253498D01*
X182823824Y-62253498D01*
X182786502Y-62249822D01*
X182749180Y-62253498D01*
X182440672Y-62253498D01*
X182403349Y-62249822D01*
X182366026Y-62253498D01*
X182366016Y-62253498D01*
X182254363Y-62264495D01*
X182111102Y-62307952D01*
X181979072Y-62378524D01*
X181895432Y-62447166D01*
X181863348Y-62473497D01*
X181839550Y-62502495D01*
X180178750Y-64163296D01*
X180178750Y-61533157D01*
X181841003Y-59870905D01*
X181870001Y-59847107D01*
X181937710Y-59764604D01*
X181888962Y-59882290D01*
%TA.AperFunction,Conductor*%
D37*
G36*
X181888962Y-59882290D02*
G01*
X181849188Y-60082249D01*
X181849188Y-60286127D01*
X181888962Y-60486086D01*
X181966983Y-60674444D01*
X182080251Y-60843962D01*
X182224414Y-60988125D01*
X182393932Y-61101393D01*
X182582290Y-61179414D01*
X182782249Y-61219188D01*
X182827674Y-61219188D01*
X182827674Y-62253876D01*
X182823835Y-62253498D01*
X182823824Y-62253498D01*
X182786502Y-62249822D01*
X182749180Y-62253498D01*
X182440672Y-62253498D01*
X182403349Y-62249822D01*
X182366026Y-62253498D01*
X182366016Y-62253498D01*
X182254363Y-62264495D01*
X182111102Y-62307952D01*
X181979072Y-62378524D01*
X181895432Y-62447166D01*
X181863348Y-62473497D01*
X181839550Y-62502495D01*
X180178750Y-64163296D01*
X180178750Y-61533157D01*
X181841003Y-59870905D01*
X181870001Y-59847107D01*
X181937710Y-59764604D01*
X181888962Y-59882290D01*
G37*
%TD.AperFunction*%
D36*
X182747000Y-58727000D02*
X182727000Y-58727000D01*
X182727000Y-58747000D01*
X182473000Y-58747000D01*
X182473000Y-58727000D01*
X182461974Y-58727000D01*
X182465000Y-58711788D01*
X182465000Y-58534999D01*
X182747000Y-58534999D01*
X182747000Y-58727000D01*
%TA.AperFunction,Conductor*%
D37*
G36*
X182747000Y-58727000D02*
G01*
X182727000Y-58727000D01*
X182727000Y-58747000D01*
X182473000Y-58747000D01*
X182473000Y-58727000D01*
X182461974Y-58727000D01*
X182465000Y-58711788D01*
X182465000Y-58534999D01*
X182747000Y-58534999D01*
X182747000Y-58727000D01*
G37*
%TD.AperFunction*%
D36*
X175966525Y-57046632D02*
X176173368Y-57253475D01*
X176382192Y-57393006D01*
X176310198Y-57465000D01*
X176138212Y-57465000D01*
X175918933Y-57508617D01*
X175712376Y-57594176D01*
X175526480Y-57718388D01*
X175404868Y-57840000D01*
X174741800Y-57840000D01*
X174535000Y-57633200D01*
X174535000Y-57585000D01*
X174726260Y-57585000D01*
X175013158Y-57527932D01*
X175283411Y-57415990D01*
X175526632Y-57253475D01*
X175733475Y-57046632D01*
X175850000Y-56872240D01*
X175966525Y-57046632D01*
%TA.AperFunction,Conductor*%
D37*
G36*
X175966525Y-57046632D02*
G01*
X176173368Y-57253475D01*
X176382192Y-57393006D01*
X176310198Y-57465000D01*
X176138212Y-57465000D01*
X175918933Y-57508617D01*
X175712376Y-57594176D01*
X175526480Y-57718388D01*
X175404868Y-57840000D01*
X174741800Y-57840000D01*
X174535000Y-57633200D01*
X174535000Y-57585000D01*
X174726260Y-57585000D01*
X175013158Y-57527932D01*
X175283411Y-57415990D01*
X175526632Y-57253475D01*
X175733475Y-57046632D01*
X175850000Y-56872240D01*
X175966525Y-57046632D01*
G37*
%TD.AperFunction*%
D36*
X182327000Y-55973000D02*
X182347000Y-55973000D01*
X182347000Y-56227000D01*
X182327000Y-56227000D01*
X182327000Y-56247000D01*
X182073000Y-56247000D01*
X182073000Y-56227000D01*
X182053000Y-56227000D01*
X182053000Y-55973000D01*
X182073000Y-55973000D01*
X182073000Y-55953000D01*
X182327000Y-55953000D01*
X182327000Y-55973000D01*
%TA.AperFunction,Conductor*%
D37*
G36*
X182327000Y-55973000D02*
G01*
X182347000Y-55973000D01*
X182347000Y-56227000D01*
X182327000Y-56227000D01*
X182327000Y-56247000D01*
X182073000Y-56247000D01*
X182073000Y-56227000D01*
X182053000Y-56227000D01*
X182053000Y-55973000D01*
X182073000Y-55973000D01*
X182073000Y-55953000D01*
X182327000Y-55953000D01*
X182327000Y-55973000D01*
G37*
%TD.AperFunction*%
%TD*%
M02*
