%TF.GenerationSoftware,KiCad,Pcbnew,(6.0.1-0)*%
%TF.CreationDate,2022-02-11T11:51:59+00:00*%
%TF.ProjectId,Shelly,5368656c-6c79-42e6-9b69-6361645f7063,4*%
%TF.SameCoordinates,Original*%
%TF.FileFunction,Copper,L1,Top*%
%TF.FilePolarity,Positive*%
%FSLAX46Y46*%
G04 Gerber Fmt 4.6, Leading zero omitted, Abs format (unit mm)*
G04 Created by KiCad (PCBNEW (6.0.1-0)) date 2022-02-11 11:51:59*
%MOMM*%
%LPD*%
G01*
G04 APERTURE LIST*
G04 Aperture macros list*
%AMRoundRect*
0 Rectangle with rounded corners*
0 $1 Rounding radius*
0 $2 $3 $4 $5 $6 $7 $8 $9 X,Y pos of 4 corners*
0 Add a 4 corners polygon primitive as box body*
4,1,4,$2,$3,$4,$5,$6,$7,$8,$9,$2,$3,0*
0 Add four circle primitives for the rounded corners*
1,1,$1+$1,$2,$3*
1,1,$1+$1,$4,$5*
1,1,$1+$1,$6,$7*
1,1,$1+$1,$8,$9*
0 Add four rect primitives between the rounded corners*
20,1,$1+$1,$2,$3,$4,$5,0*
20,1,$1+$1,$4,$5,$6,$7,0*
20,1,$1+$1,$6,$7,$8,$9,0*
20,1,$1+$1,$8,$9,$2,$3,0*%
%AMFreePoly0*
4,1,6,1.000000,-1.000000,-1.000000,-1.000000,-1.000000,0.750000,-0.750000,1.000000,1.000000,1.000000,1.000000,-1.000000,1.000000,-1.000000,$1*%
%AMFreePoly1*
4,1,136,3.383385,4.221938,3.559722,4.168447,3.722236,4.081581,3.864680,3.964680,3.981581,3.822236,4.068447,3.659722,4.121938,3.483385,4.125213,3.450138,4.182769,3.539508,4.186818,3.554319,4.232803,3.599839,4.295387,3.616268,4.357802,3.599205,4.403322,3.553220,4.419751,3.490636,4.402688,3.428221,4.402685,3.428218,4.172864,3.069999,4.056927,2.918726,3.981581,2.777764,
3.864680,2.635320,3.750000,2.541204,3.750000,0.022998,4.066621,-0.229499,4.408387,-0.546611,4.440740,-0.602647,4.440740,-0.667351,4.408387,-0.723387,4.352351,-0.755740,4.287647,-0.755740,4.231611,-0.723387,4.223834,-0.709917,3.889556,-0.400914,3.520256,-0.109781,3.483169,-0.085000,2.500000,-0.085000,2.500000,-1.185000,3.750000,-1.185000,3.750000,-2.745000,-3.750000,-2.745000,
-3.750000,-1.185000,-2.500000,-1.185000,-2.500000,-0.085000,-3.483168,-0.085000,-3.520257,-0.109782,-3.889557,-0.400914,-4.223835,-0.709917,-4.231612,-0.723388,-4.287648,-0.755741,-4.352352,-0.755741,-4.408388,-0.723388,-4.440741,-0.667352,-4.440741,-0.602648,-4.408388,-0.546612,-4.066622,-0.229500,-3.750000,0.022998,-3.750000,2.541204,-3.864680,2.635320,-3.981581,2.777764,-4.057059,2.918973,
-4.182136,3.083248,-4.410822,3.442198,-4.427688,3.504666,-4.411060,3.567198,-4.365394,3.613038,-4.302926,3.629904,-4.240394,3.613276,-4.194554,3.567610,-4.190552,3.552787,-4.125171,3.450557,-4.121938,3.483385,-4.068447,3.659722,-3.981581,3.822236,-3.864680,3.964680,-3.722236,4.081581,-3.559722,4.168447,-3.383385,4.221938,-3.200000,4.240000,-3.137500,4.223253,-3.091747,4.177500,
-3.075000,4.115000,-3.091747,4.052500,-3.137500,4.006747,-3.200000,3.990000,-3.211471,3.993074,-3.354511,3.976957,-3.501274,3.925602,-3.632930,3.842877,-3.742877,3.732930,-3.825602,3.601274,-3.876957,3.454511,-3.894366,3.300000,-3.876957,3.145489,-3.839657,3.038894,-3.713800,2.875371,-3.594054,2.745000,-2.998152,2.745000,-3.015000,3.045000,-2.998253,3.107500,-2.952500,3.153253,
-2.890000,3.170000,-2.827500,3.153253,-2.781747,3.107500,-2.765000,3.045000,-2.768849,3.030634,-2.752213,2.745000,2.752213,2.745000,2.768849,3.030634,2.765000,3.045000,2.781747,3.107500,2.827500,3.153253,2.890000,3.170000,2.952500,3.153253,2.998253,3.107500,3.015000,3.045000,2.998152,2.745000,3.594234,2.745000,3.703871,2.863608,3.839648,3.038866,3.876957,3.145489,
3.894366,3.300000,3.876957,3.454511,3.825602,3.601274,3.742877,3.732930,3.632930,3.842877,3.501274,3.925602,3.354511,3.976957,3.211471,3.993074,3.200000,3.990000,3.137500,4.006747,3.091747,4.052500,3.075000,4.115000,3.091747,4.177500,3.137500,4.223253,3.200000,4.240000,3.383385,4.221938,3.383385,4.221938,$1*%
%AMFreePoly2*
4,1,43,1.102950,0.110584,1.224483,0.068057,1.333507,-0.000447,1.424553,-0.091493,1.493057,-0.200517,1.535584,-0.322050,1.550000,-0.450000,1.533253,-0.512500,1.487500,-0.558253,1.425000,-0.575000,1.362500,-0.558253,1.316747,-0.512500,1.300000,-0.450000,1.302546,-0.440498,1.287946,-0.348318,1.241208,-0.256589,1.168411,-0.183792,1.076682,-0.137054,0.984502,-0.122454,0.975000,-0.125000,
-0.975000,-0.125000,-0.984502,-0.122454,-1.076682,-0.137054,-1.168411,-0.183792,-1.241208,-0.256589,-1.287946,-0.348318,-1.302546,-0.440498,-1.300000,-0.450000,-1.316747,-0.512500,-1.362500,-0.558253,-1.425000,-0.575000,-1.487500,-0.558253,-1.533253,-0.512500,-1.550000,-0.450000,-1.535584,-0.322050,-1.493057,-0.200517,-1.424553,-0.091493,-1.333507,-0.000447,-1.224483,0.068057,-1.102950,0.110584,
-0.975000,0.125000,0.975000,0.125000,1.102950,0.110584,1.102950,0.110584,$1*%
%AMFreePoly3*
4,1,24,1.812500,0.558253,1.858253,0.512500,1.875000,0.450000,1.860584,0.322050,1.818057,0.200517,1.749553,0.091493,1.658507,0.000447,1.549483,-0.068057,1.427950,-0.110584,1.300000,-0.125000,-1.300000,-0.125000,-1.300000,0.125000,1.300000,0.125000,1.309502,0.122454,1.401682,0.137054,1.493411,0.183792,1.566208,0.256589,1.612946,0.348318,1.627546,0.440498,1.625000,0.450000,
1.641747,0.512500,1.687500,0.558253,1.750000,0.575000,1.812500,0.558253,1.812500,0.558253,$1*%
%AMFreePoly4*
4,1,37,1.095671,1.230970,1.176777,1.176777,1.230970,1.095671,1.250000,1.000000,1.234611,0.804457,1.188821,0.613729,1.113759,0.432512,1.011272,0.265269,0.883885,0.116117,0.734733,-0.011271,0.567490,-0.113758,0.386273,-0.188820,0.195545,-0.234610,0.000002,-0.250000,-0.095669,-0.230970,-0.176775,-0.176777,-0.230968,-0.095671,-0.249998,0.000000,-0.230968,0.095671,-0.176775,0.176777,
-0.095669,0.230970,0.000002,0.250000,0.012204,0.247573,0.147027,0.260852,0.288403,0.303738,0.418695,0.373381,0.532897,0.467104,0.626620,0.581306,0.696263,0.711599,0.739148,0.852974,0.752427,0.987798,0.750000,1.000000,0.769030,1.095671,0.823223,1.176777,0.904329,1.230970,1.000000,1.250000,1.095671,1.230970,1.095671,1.230970,$1*%
%AMFreePoly5*
4,1,72,4.686563,7.086550,4.817878,7.046716,4.938899,6.982029,5.044975,6.894975,5.132029,6.788899,5.196716,6.667878,5.236550,6.536563,5.250000,6.400000,5.250000,1.600000,5.230970,1.504329,5.176777,1.423223,5.112500,1.380275,5.112500,0.250000,6.600000,0.250000,6.695671,0.230970,6.776777,0.176777,6.830970,0.095671,6.850000,0.000000,6.830970,-0.095671,6.776777,-0.176777,
6.695671,-0.230970,6.600000,-0.250000,0.000000,-0.250000,-0.095671,-0.230970,-0.176777,-0.176777,-0.230970,-0.095671,-0.250000,0.000000,-0.230970,0.095671,-0.176777,0.176777,-0.095671,0.230970,0.000000,0.250000,4.612500,0.250000,4.612500,1.600000,4.631530,1.695671,4.685723,1.776777,4.750000,1.819725,4.750000,6.400000,4.751388,6.406978,4.742582,6.462574,4.713820,6.519022,
4.669022,6.563820,4.612574,6.592582,4.556978,6.601388,4.550000,6.600000,1.550000,6.600000,1.543022,6.601388,1.487426,6.592582,1.430978,6.563820,1.386180,6.519022,1.357418,6.462574,1.348612,6.406978,1.350000,6.400000,1.350000,5.900000,1.330970,5.804329,1.276777,5.723223,1.195671,5.669030,1.100000,5.650000,1.004329,5.669030,0.923223,5.723223,0.869030,5.804329,
0.850000,5.900000,0.850000,6.400000,0.863450,6.536563,0.903284,6.667878,0.967971,6.788899,1.055025,6.894975,1.161101,6.982029,1.282122,7.046716,1.413437,7.086550,1.550000,7.100000,4.550000,7.100000,4.686563,7.086550,4.686563,7.086550,$1*%
G04 Aperture macros list end*
%TA.AperFunction,SMDPad,CuDef*%
%ADD10RoundRect,0.237500X0.237500X-0.287500X0.237500X0.287500X-0.237500X0.287500X-0.237500X-0.287500X0*%
%TD*%
%TA.AperFunction,SMDPad,CuDef*%
%ADD11RoundRect,0.200000X0.275000X-0.200000X0.275000X0.200000X-0.275000X0.200000X-0.275000X-0.200000X0*%
%TD*%
%TA.AperFunction,ComponentPad*%
%ADD12R,1.700000X1.700000*%
%TD*%
%TA.AperFunction,ComponentPad*%
%ADD13O,1.700000X1.700000*%
%TD*%
%TA.AperFunction,SMDPad,CuDef*%
%ADD14RoundRect,0.062500X0.287500X0.062500X-0.287500X0.062500X-0.287500X-0.062500X0.287500X-0.062500X0*%
%TD*%
%TA.AperFunction,SMDPad,CuDef*%
%ADD15RoundRect,0.062500X0.062500X0.287500X-0.062500X0.287500X-0.062500X-0.287500X0.062500X-0.287500X0*%
%TD*%
%TA.AperFunction,SMDPad,CuDef*%
%ADD16FreePoly0,180.000000*%
%TD*%
%TA.AperFunction,ComponentPad*%
%ADD17C,0.350000*%
%TD*%
%TA.AperFunction,SMDPad,CuDef*%
%ADD18R,0.600000X1.140000*%
%TD*%
%TA.AperFunction,SMDPad,CuDef*%
%ADD19RoundRect,0.075000X-0.075000X-0.495000X0.075000X-0.495000X0.075000X0.495000X-0.075000X0.495000X0*%
%TD*%
%TA.AperFunction,ComponentPad*%
%ADD20C,1.500000*%
%TD*%
%TA.AperFunction,SMDPad,CuDef*%
%ADD21FreePoly1,0.000000*%
%TD*%
%TA.AperFunction,ComponentPad*%
%ADD22C,1.250000*%
%TD*%
%TA.AperFunction,ComponentPad*%
%ADD23C,0.600000*%
%TD*%
%TA.AperFunction,SMDPad,CuDef*%
%ADD24R,5.000000X5.490000*%
%TD*%
%TA.AperFunction,SMDPad,CuDef*%
%ADD25RoundRect,0.200000X-0.275000X0.200000X-0.275000X-0.200000X0.275000X-0.200000X0.275000X0.200000X0*%
%TD*%
%TA.AperFunction,SMDPad,CuDef*%
%ADD26RoundRect,0.200000X-0.200000X-0.275000X0.200000X-0.275000X0.200000X0.275000X-0.200000X0.275000X0*%
%TD*%
%TA.AperFunction,SMDPad,CuDef*%
%ADD27R,0.650000X0.400000*%
%TD*%
%TA.AperFunction,SMDPad,CuDef*%
%ADD28RoundRect,0.225000X0.225000X0.250000X-0.225000X0.250000X-0.225000X-0.250000X0.225000X-0.250000X0*%
%TD*%
%TA.AperFunction,SMDPad,CuDef*%
%ADD29RoundRect,0.150000X-0.587500X-0.150000X0.587500X-0.150000X0.587500X0.150000X-0.587500X0.150000X0*%
%TD*%
%TA.AperFunction,SMDPad,CuDef*%
%ADD30RoundRect,0.200000X0.200000X0.275000X-0.200000X0.275000X-0.200000X-0.275000X0.200000X-0.275000X0*%
%TD*%
%TA.AperFunction,SMDPad,CuDef*%
%ADD31R,0.500000X2.000000*%
%TD*%
%TA.AperFunction,SMDPad,CuDef*%
%ADD32RoundRect,0.249375X-0.463125X-0.625625X0.463125X-0.625625X0.463125X0.625625X-0.463125X0.625625X0*%
%TD*%
%TA.AperFunction,SMDPad,CuDef*%
%ADD33RoundRect,0.225000X0.250000X-0.225000X0.250000X0.225000X-0.250000X0.225000X-0.250000X-0.225000X0*%
%TD*%
%TA.AperFunction,SMDPad,CuDef*%
%ADD34R,0.600000X1.100000*%
%TD*%
%TA.AperFunction,SMDPad,CuDef*%
%ADD35R,1.425000X3.700000*%
%TD*%
%TA.AperFunction,SMDPad,CuDef*%
%ADD36FreePoly2,0.000000*%
%TD*%
%TA.AperFunction,SMDPad,CuDef*%
%ADD37FreePoly3,0.000000*%
%TD*%
%TA.AperFunction,SMDPad,CuDef*%
%ADD38R,2.000000X0.500000*%
%TD*%
%TA.AperFunction,SMDPad,CuDef*%
%ADD39RoundRect,0.250000X-0.475000X0.250000X-0.475000X-0.250000X0.475000X-0.250000X0.475000X0.250000X0*%
%TD*%
%TA.AperFunction,SMDPad,CuDef*%
%ADD40FreePoly4,0.000000*%
%TD*%
%TA.AperFunction,SMDPad,CuDef*%
%ADD41FreePoly5,0.000000*%
%TD*%
%TA.AperFunction,SMDPad,CuDef*%
%ADD42R,0.500000X4.000000*%
%TD*%
%TA.AperFunction,ComponentPad*%
%ADD43R,1.000000X1.000000*%
%TD*%
%TA.AperFunction,ComponentPad*%
%ADD44O,1.000000X1.000000*%
%TD*%
%TA.AperFunction,ViaPad*%
%ADD45C,0.800000*%
%TD*%
%TA.AperFunction,Conductor*%
%ADD46C,0.250000*%
%TD*%
%TA.AperFunction,Conductor*%
%ADD47C,0.500000*%
%TD*%
G04 APERTURE END LIST*
D10*
%TO.P,D3,1,K*%
%TO.N,Net-(D3-Pad1)*%
X171000000Y-81875000D03*
%TO.P,D3,2,A*%
%TO.N,Net-(D3-Pad2)*%
X171000000Y-80125000D03*
%TD*%
D11*
%TO.P,R3,1*%
%TO.N,GND*%
X183300000Y-78925000D03*
%TO.P,R3,2*%
%TO.N,Net-(J3-PadB5)*%
X183300000Y-77275000D03*
%TD*%
D12*
%TO.P,J1,1,Pin_1*%
%TO.N,GND*%
X182200000Y-56100000D03*
D13*
%TO.P,J1,2,Pin_2*%
%TO.N,GPIO0*%
X179660000Y-56100000D03*
%TO.P,J1,3,Pin_3*%
%TO.N,Net-(J1-Pad3)*%
X177120000Y-56100000D03*
%TO.P,J1,4,Pin_4*%
%TO.N,RXD*%
X174580000Y-56100000D03*
%TO.P,J1,5,Pin_5*%
%TO.N,TXD*%
X172040000Y-56100000D03*
%TD*%
D14*
%TO.P,U1,1,RXD*%
%TO.N,TXD*%
X182600000Y-63200000D03*
%TO.P,U1,2,~{RI}*%
%TO.N,GND*%
X182600000Y-62700000D03*
%TO.P,U1,3,GND*%
X182600000Y-62200000D03*
%TO.P,U1,4,~{DSR}*%
X182600000Y-61700000D03*
%TO.P,U1,5,~{DCD}*%
X182600000Y-61200000D03*
D15*
%TO.P,U1,6,~{CTS}*%
X181700000Y-60300000D03*
%TO.P,U1,7,CBUS2*%
%TO.N,unconnected-(U1-Pad7)*%
X181200000Y-60300000D03*
%TO.P,U1,8,USBDP*%
%TO.N,D+*%
X180700000Y-60300000D03*
%TO.P,U1,9,USBDM*%
%TO.N,D-*%
X180200000Y-60300000D03*
%TO.P,U1,10,3V3OUT*%
%TO.N,Net-(C1-Pad1)*%
X179700000Y-60300000D03*
D14*
%TO.P,U1,11,~{RESET}*%
X178800000Y-61200000D03*
%TO.P,U1,12,VCC*%
%TO.N,VBUS*%
X178800000Y-61700000D03*
%TO.P,U1,13,GND*%
%TO.N,GND*%
X178800000Y-62200000D03*
%TO.P,U1,14,CBUS1*%
%TO.N,unconnected-(U1-Pad14)*%
X178800000Y-62700000D03*
%TO.P,U1,15,CBUS0*%
%TO.N,Net-(D3-Pad1)*%
X178800000Y-63200000D03*
D15*
%TO.P,U1,16,CBUS3*%
%TO.N,unconnected-(U1-Pad16)*%
X179700000Y-64100000D03*
%TO.P,U1,17,TXD*%
%TO.N,RXD*%
X180200000Y-64100000D03*
%TO.P,U1,18,~{DTR}*%
%TO.N,GPIO0*%
X180700000Y-64100000D03*
%TO.P,U1,19,~{RTS}*%
%TO.N,RST*%
X181200000Y-64100000D03*
%TO.P,U1,20,VCCIO*%
%TO.N,Net-(C1-Pad1)*%
X181700000Y-64100000D03*
D16*
%TO.P,U1,21,GND*%
%TO.N,GND*%
X180700000Y-62200000D03*
D17*
X180700000Y-62200000D03*
%TD*%
D18*
%TO.P,J3,A1,GND*%
%TO.N,GND*%
X173800000Y-76040000D03*
%TO.P,J3,A4,VBUS*%
%TO.N,VBUS*%
X174600000Y-76040000D03*
D19*
%TO.P,J3,A5,CC1*%
%TO.N,Net-(J3-PadA5)*%
X175750000Y-76040000D03*
%TO.P,J3,A6,D+*%
%TO.N,Net-(J3-PadA6)*%
X176750000Y-76040000D03*
%TO.P,J3,A7,D-*%
%TO.N,Net-(J3-PadA7)*%
X177250000Y-76040000D03*
%TO.P,J3,A8,SBU1*%
%TO.N,unconnected-(J3-PadA8)*%
X178250000Y-76040000D03*
D18*
%TO.P,J3,A9,VBUS*%
%TO.N,VBUS*%
X179400000Y-76040000D03*
%TO.P,J3,A12,GND*%
%TO.N,GND*%
X180200000Y-76040000D03*
%TO.P,J3,B1,GND*%
X180200000Y-76040000D03*
%TO.P,J3,B4,VBUS*%
%TO.N,VBUS*%
X179400000Y-76040000D03*
D19*
%TO.P,J3,B5,CC2*%
%TO.N,Net-(J3-PadB5)*%
X178750000Y-76040000D03*
%TO.P,J3,B6,D+*%
%TO.N,Net-(J3-PadA6)*%
X177750000Y-76040000D03*
%TO.P,J3,B7,D-*%
%TO.N,Net-(J3-PadA7)*%
X176250000Y-76040000D03*
%TO.P,J3,B8,SBU2*%
%TO.N,unconnected-(J3-PadB8)*%
X175250000Y-76040000D03*
D18*
%TO.P,J3,B9,VBUS*%
%TO.N,VBUS*%
X174600000Y-76040000D03*
%TO.P,J3,B12,GND*%
%TO.N,GND*%
X173800000Y-76040000D03*
D20*
%TO.P,J3,S1,SHIELD*%
X181320000Y-76620000D03*
D21*
X177000000Y-80155000D03*
D22*
X181320000Y-80790000D03*
X172680000Y-80790000D03*
D20*
X172680000Y-76620000D03*
D23*
X179890000Y-77110000D03*
D24*
X177000000Y-80155000D03*
D23*
X174110000Y-77110000D03*
%TD*%
D25*
%TO.P,R6,1*%
%TO.N,+3V3*%
X171000000Y-77175000D03*
%TO.P,R6,2*%
%TO.N,Net-(D3-Pad2)*%
X171000000Y-78825000D03*
%TD*%
%TO.P,R2,1*%
%TO.N,Net-(J3-PadA5)*%
X183300000Y-80175000D03*
%TO.P,R2,2*%
%TO.N,GND*%
X183300000Y-81825000D03*
%TD*%
D26*
%TO.P,R4,1*%
%TO.N,Net-(J3-PadA7)*%
X180575000Y-73000000D03*
%TO.P,R4,2*%
%TO.N,D-*%
X182225000Y-73000000D03*
%TD*%
%TO.P,R5,1*%
%TO.N,Net-(J3-PadA6)*%
X180575000Y-74320000D03*
%TO.P,R5,2*%
%TO.N,D+*%
X182225000Y-74320000D03*
%TD*%
D27*
%TO.P,D1,1,A1*%
%TO.N,GND*%
X180400000Y-69750000D03*
%TO.P,D1,2,K2*%
%TO.N,+3V3*%
X180400000Y-70400000D03*
%TO.P,D1,3,K1A2*%
%TO.N,RST*%
X180400000Y-71050000D03*
%TO.P,D1,4,A3*%
%TO.N,GND*%
X182300000Y-71050000D03*
%TO.P,D1,5,K4*%
%TO.N,+3V3*%
X182300000Y-70400000D03*
%TO.P,D1,6,K3A4*%
%TO.N,TXD*%
X182300000Y-69750000D03*
%TD*%
%TO.P,D2,1,A1*%
%TO.N,GND*%
X180350000Y-66750000D03*
%TO.P,D2,2,K2*%
%TO.N,+3V3*%
X180350000Y-67400000D03*
%TO.P,D2,3,K1A2*%
%TO.N,RXD*%
X180350000Y-68050000D03*
%TO.P,D2,4,A3*%
%TO.N,GND*%
X182250000Y-68050000D03*
%TO.P,D2,5,K4*%
%TO.N,+3V3*%
X182250000Y-67400000D03*
%TO.P,D2,6,K3A4*%
%TO.N,GPIO0*%
X182250000Y-66750000D03*
%TD*%
D11*
%TO.P,R1,1*%
%TO.N,GND*%
X174500000Y-62025000D03*
%TO.P,R1,2*%
%TO.N,Net-(J1-Pad3)*%
X174500000Y-60375000D03*
%TD*%
D28*
%TO.P,C1,1*%
%TO.N,Net-(C1-Pad1)*%
X177375000Y-60400000D03*
%TO.P,C1,2*%
%TO.N,GND*%
X175825000Y-60400000D03*
%TD*%
D29*
%TO.P,Q1,1,G*%
%TO.N,RST*%
X171062500Y-59250000D03*
%TO.P,Q1,2,S*%
%TO.N,+3V3*%
X171062500Y-61150000D03*
%TO.P,Q1,3,D*%
%TO.N,Net-(J1-Pad3)*%
X172937500Y-60200000D03*
%TD*%
D30*
%TO.P,R7,1*%
%TO.N,+3V3*%
X178125000Y-65400000D03*
%TO.P,R7,2*%
%TO.N,Net-(R7-Pad2)*%
X176475000Y-65400000D03*
%TD*%
D25*
%TO.P,R8,1*%
%TO.N,GND*%
X171700000Y-64475000D03*
%TO.P,R8,2*%
%TO.N,Net-(R7-Pad2)*%
X171700000Y-66125000D03*
%TD*%
D31*
%TO.P,U2,*%
%TO.N,*%
X173730000Y-71050000D03*
D32*
X173577500Y-71920000D03*
D33*
X170680000Y-69775000D03*
D34*
X173730000Y-67400000D03*
D35*
X175180000Y-68800000D03*
D34*
X173730000Y-70100000D03*
D36*
X172305000Y-69200000D03*
D37*
X171980000Y-68300000D03*
D33*
X170680000Y-68225000D03*
D38*
X174680000Y-70100000D03*
D34*
%TO.P,U2,1,SHDN*%
%TO.N,VBUS*%
X171830000Y-70100000D03*
D39*
%TO.P,U2,2,VIN*%
X171930000Y-71350000D03*
D34*
X172780000Y-70100000D03*
D40*
X171720000Y-71300000D03*
D32*
%TO.P,U2,3,GND*%
%TO.N,GND*%
X176542500Y-71920000D03*
D34*
X172780000Y-67400000D03*
D39*
X171930000Y-73250000D03*
D41*
X171680000Y-73250000D03*
D39*
X178180000Y-73250000D03*
D35*
%TO.P,U2,4,VOUT*%
%TO.N,+3V3*%
X178180000Y-68800000D03*
D39*
X178180000Y-71350000D03*
D42*
X178180000Y-69550000D03*
D34*
%TO.P,U2,5,FB*%
%TO.N,Net-(R7-Pad2)*%
X171830000Y-67400000D03*
%TD*%
D43*
%TO.P,J2,1,Pin_1*%
%TO.N,GND*%
X182600000Y-58600000D03*
D44*
%TO.P,J2,2,Pin_2*%
%TO.N,GPIO0*%
X181330000Y-58600000D03*
%TO.P,J2,3,Pin_3*%
%TO.N,Net-(J1-Pad3)*%
X180060000Y-58600000D03*
%TO.P,J2,4,Pin_4*%
%TO.N,+3V3*%
X178790000Y-58600000D03*
%TO.P,J2,5,Pin_5*%
%TO.N,RXD*%
X177520000Y-58600000D03*
%TO.P,J2,6,Pin_6*%
%TO.N,TXD*%
X176250000Y-58600000D03*
%TD*%
D45*
%TO.N,GND*%
X173100000Y-62000000D03*
X171100000Y-60200000D03*
X179635478Y-72275500D03*
X177394473Y-66354963D03*
X174500000Y-64000000D03*
X173600000Y-73700000D03*
X179600000Y-69600000D03*
X174600000Y-57700000D03*
X181323526Y-66675500D03*
%TO.N,VBUS*%
X171300000Y-63400000D03*
X171784990Y-74436103D03*
%TO.N,RXD*%
X177853918Y-64117827D03*
%TO.N,+3V3*%
X170609922Y-75013509D03*
X171100000Y-62200000D03*
%TO.N,GPIO0*%
X179754439Y-65499329D03*
%TO.N,TXD*%
X173510538Y-57597948D03*
X183350000Y-57500000D03*
%TO.N,RST*%
X171000000Y-57600000D03*
X181962641Y-65100000D03*
%TO.N,D-*%
X182850002Y-72000000D03*
X178974010Y-60190693D03*
%TO.N,D+*%
X182884188Y-60184188D03*
X183250000Y-74000000D03*
%TO.N,Net-(C1-Pad1)*%
X176094056Y-62480310D03*
X182602434Y-64077448D03*
%TO.N,Net-(D3-Pad1)*%
X172000000Y-82350000D03*
X172900000Y-64500000D03*
%TO.N,Net-(J3-PadA6)*%
X176757146Y-74724500D03*
X181213616Y-74465690D03*
%TO.N,Net-(J3-PadA5)*%
X182000000Y-79200000D03*
X175000000Y-74200000D03*
%TD*%
D46*
%TO.N,GND*%
X173150000Y-73250000D02*
X173600000Y-73700000D01*
X174600000Y-57700000D02*
X174600000Y-58650000D01*
X180400000Y-69705714D02*
X180400000Y-69750000D01*
X182600000Y-61700000D02*
X181200000Y-61700000D01*
X182600000Y-61200000D02*
X181700000Y-61200000D01*
X181700000Y-60200000D02*
X181700000Y-61075000D01*
X179682923Y-72201186D02*
X179682923Y-72228055D01*
X181525012Y-72025012D02*
X179974988Y-72025012D01*
X179682923Y-72228055D02*
X179635478Y-72275500D01*
X178700000Y-62200000D02*
X180575000Y-62200000D01*
X174250000Y-59000000D02*
X173421134Y-59000000D01*
X182200000Y-58200000D02*
X182600000Y-58600000D01*
X181143668Y-66750000D02*
X180350000Y-66750000D01*
X182600000Y-62200000D02*
X180700000Y-62200000D01*
X172239464Y-59489464D02*
X171832226Y-59896702D01*
X183300000Y-78925000D02*
X183300000Y-78705000D01*
X175825000Y-60400000D02*
X175825000Y-60700000D01*
X181200000Y-62700000D02*
X180700000Y-62200000D01*
X181320000Y-80790000D02*
X182128726Y-81598726D01*
X182200000Y-56100000D02*
X182200000Y-58200000D01*
X174500000Y-64000000D02*
X174412132Y-63912132D01*
X182250000Y-68050000D02*
X182055714Y-68050000D01*
X180700000Y-62200000D02*
X181700000Y-61200000D01*
X183300000Y-81825000D02*
X182675000Y-81825000D01*
X171930000Y-73250000D02*
X173150000Y-73250000D01*
X182600000Y-62700000D02*
X181200000Y-62700000D01*
X182300000Y-71050000D02*
X182300000Y-71250024D01*
D47*
X176557500Y-71940000D02*
X176577500Y-71960000D01*
D46*
X171700000Y-64475000D02*
X172103769Y-64071231D01*
X176555965Y-67193472D02*
X177394473Y-66354963D01*
X183300000Y-78705000D02*
X181325000Y-76730000D01*
X176572500Y-71960000D02*
X175490000Y-71960000D01*
X175825000Y-60700000D02*
X174500000Y-62025000D01*
X176542500Y-71920000D02*
X176542500Y-67225978D01*
X173900000Y-63700000D02*
X173000000Y-63700000D01*
X175490000Y-71960000D02*
X175000000Y-72450000D01*
X180400000Y-69750000D02*
X179750000Y-69750000D01*
X181700000Y-61075000D02*
X180575000Y-62200000D01*
X182055714Y-68050000D02*
X180400000Y-69705714D01*
X173900000Y-63700001D02*
G75*
G02*
X174412131Y-63912133I4J-724254D01*
G01*
X173000000Y-63700001D02*
G75*
G03*
X172103770Y-64071232I-2J-1267457D01*
G01*
X179600000Y-69600000D02*
G75*
G03*
X179750000Y-69750000I150000J0D01*
G01*
X174250000Y-59000000D02*
G75*
G03*
X174600000Y-58650000I-1J350001D01*
G01*
X172239464Y-59489464D02*
G75*
G02*
X173421134Y-59000000I1181668J-1181664D01*
G01*
X181143668Y-66749999D02*
G75*
G03*
X181323525Y-66675499I-4J254366D01*
G01*
X179682923Y-72201186D02*
G75*
G02*
X179974988Y-72025012I294819J-158574D01*
G01*
X182675000Y-81824999D02*
G75*
G02*
X182128727Y-81598725I0J772548D01*
G01*
X171100000Y-60200000D02*
G75*
G03*
X171832226Y-59896702I-2J1035528D01*
G01*
X176555965Y-67193472D02*
G75*
G03*
X176542500Y-67225978I32500J-32504D01*
G01*
X181525012Y-72025012D02*
G75*
G03*
X182300000Y-71250024I-1J774989D01*
G01*
%TO.N,VBUS*%
X178925006Y-77000000D02*
X175074994Y-77000000D01*
X171784990Y-74436103D02*
X173716103Y-74436103D01*
X178545982Y-61700000D02*
X178800000Y-61700000D01*
X174600000Y-76525006D02*
X174600000Y-75320000D01*
X170500000Y-72000000D02*
X170500000Y-73500000D01*
X171860000Y-70140000D02*
X172810000Y-70140000D01*
X171930000Y-71350000D02*
X171150000Y-71350000D01*
X171784990Y-74436103D02*
X171436103Y-74436103D01*
X176701336Y-63401336D02*
X178301336Y-61801336D01*
X175982842Y-63600000D02*
X176221719Y-63600000D01*
X179400000Y-76040000D02*
X179400000Y-76525006D01*
X171782842Y-63200000D02*
X175017158Y-63200000D01*
X174600000Y-75320000D02*
G75*
G03*
X173716103Y-74436103I-883896J1D01*
G01*
X171782842Y-63200000D02*
G75*
G03*
X171300000Y-63400000I4J-682850D01*
G01*
X178925006Y-77000000D02*
G75*
G03*
X179400000Y-76525006I-2J474996D01*
G01*
X170500000Y-72000000D02*
G75*
G02*
X171150000Y-71350000I650001J-1D01*
G01*
X175500000Y-63400000D02*
G75*
G03*
X175017158Y-63200000I-482841J-482839D01*
G01*
X174600000Y-76525006D02*
G75*
G03*
X175074994Y-77000000I474996J2D01*
G01*
X175982842Y-63599999D02*
G75*
G02*
X175500001Y-63399999I-1J682838D01*
G01*
X176701336Y-63401336D02*
G75*
G02*
X176221719Y-63600000I-479614J479608D01*
G01*
X170500000Y-73500000D02*
G75*
G03*
X171436103Y-74436103I936102J-1D01*
G01*
X178545982Y-61700001D02*
G75*
G03*
X178301337Y-61801337I-1J-345978D01*
G01*
%TO.N,RXD*%
X180350000Y-68050000D02*
X179825978Y-68050000D01*
X179076170Y-64774828D02*
X180025172Y-64774828D01*
X178717827Y-64117827D02*
X177853918Y-64117827D01*
X179614962Y-67838984D02*
X179614962Y-67415368D01*
X180200000Y-64100000D02*
X180200000Y-64600000D01*
X179029924Y-66002962D02*
X179029924Y-64429924D01*
X178717827Y-64117827D02*
G75*
G02*
X179029924Y-64429924I0J-312097D01*
G01*
X179614962Y-67838984D02*
G75*
G03*
X179825978Y-68050000I211015J-1D01*
G01*
X180025172Y-64774828D02*
G75*
G03*
X180200000Y-64600000I0J174828D01*
G01*
X179239962Y-66510038D02*
G75*
G02*
X179614962Y-67415368I-905327J-905329D01*
G01*
X179029924Y-66002962D02*
G75*
G03*
X179239962Y-66510038I717115J1D01*
G01*
%TO.N,+3V3*%
X170531505Y-62601075D02*
X170590024Y-62479561D01*
X181274998Y-67525002D02*
X181274998Y-67650473D01*
X170501494Y-62732565D02*
X170531505Y-62601075D01*
X181649999Y-70475001D02*
X181649999Y-70910003D01*
X179550000Y-71100000D02*
X179550000Y-70400000D01*
X177911612Y-65311612D02*
X177400000Y-64800000D01*
X171062500Y-61150000D02*
X171062500Y-61962500D01*
X178210000Y-71390000D02*
X178300000Y-71300000D01*
X175877138Y-61600000D02*
X176300000Y-61600000D01*
X176600000Y-61300000D02*
X176600000Y-60100000D01*
X178277904Y-59112096D02*
X178790000Y-58600000D01*
X178125000Y-65400000D02*
X178125000Y-68745000D01*
X170901075Y-62231505D02*
X171032565Y-62201494D01*
X171849520Y-62749520D02*
X174992263Y-62749520D01*
X179550000Y-70400000D02*
X179284498Y-70400000D01*
X171032565Y-62201494D02*
X171100000Y-62200000D01*
X180985001Y-71575001D02*
X180025001Y-71575001D01*
X178210000Y-68840000D02*
X179993544Y-68840000D01*
X170779561Y-62290024D02*
X170901075Y-62231505D01*
X176917158Y-64600000D02*
X176261341Y-64600000D01*
X170500000Y-64800000D02*
X170500000Y-62800000D01*
X174995656Y-65300000D02*
X171000000Y-65300000D01*
X179284498Y-70400000D02*
X178210000Y-69325502D01*
X170674114Y-62374114D02*
X170779561Y-62290024D01*
X179550000Y-70400000D02*
X180400000Y-70400000D01*
X170767638Y-75057274D02*
X170653687Y-75057274D01*
X182300000Y-70400000D02*
X181725000Y-70400000D01*
X170653687Y-75057274D02*
X170609922Y-75013509D01*
X171000000Y-77175000D02*
X171000000Y-75408274D01*
X170500000Y-62800000D02*
X170501494Y-62732565D01*
X180350000Y-67400000D02*
X182250000Y-67400000D01*
X175864413Y-64764413D02*
X175564413Y-65064413D01*
X170590024Y-62479561D02*
X170674114Y-62374114D01*
X178210000Y-69325502D02*
X178210000Y-68840000D01*
X175350999Y-62390784D02*
X175350999Y-62126139D01*
X175877138Y-61600000D02*
G75*
G03*
X175350999Y-62126139I2J-526141D01*
G01*
X180945632Y-68445632D02*
G75*
G03*
X181274998Y-67650473I-795153J795157D01*
G01*
X180985001Y-71575001D02*
G75*
G03*
X181649999Y-70910003I1J664997D01*
G01*
X178277904Y-59112096D02*
G75*
G02*
X177100000Y-59600000I-1177904J1177902D01*
G01*
X175864413Y-64764413D02*
G75*
G02*
X176261341Y-64600000I396927J-396926D01*
G01*
X170500000Y-64800000D02*
G75*
G03*
X171000000Y-65300000I500001J1D01*
G01*
X176600000Y-61300000D02*
G75*
G02*
X176300000Y-61600000I-300000J0D01*
G01*
X170767638Y-75057274D02*
G75*
G02*
X171000000Y-75408274I-151918J-352981D01*
G01*
X171849520Y-62749520D02*
G75*
G02*
X171062500Y-61962500I1J787021D01*
G01*
X175350999Y-62390784D02*
G75*
G02*
X174992263Y-62749520I-358735J-1D01*
G01*
X177100000Y-59600000D02*
G75*
G03*
X176600000Y-60100000I1J-500001D01*
G01*
X180945632Y-68445632D02*
G75*
G02*
X179993544Y-68840000I-952084J952079D01*
G01*
X174995656Y-65300000D02*
G75*
G03*
X175564413Y-65064413I0J804343D01*
G01*
X176917158Y-64600001D02*
G75*
G02*
X177399999Y-64800001I1J-682838D01*
G01*
X181649999Y-70475001D02*
G75*
G02*
X181725000Y-70400000I75000J1D01*
G01*
X177911612Y-65311612D02*
G75*
G03*
X178125000Y-65400000I213384J213379D01*
G01*
X178180000Y-68800000D02*
G75*
G02*
X178125000Y-68745000I0J55000D01*
G01*
X179550000Y-71100000D02*
G75*
G03*
X180025001Y-71575001I475002J1D01*
G01*
%TO.N,GPIO0*%
X180700000Y-65126996D02*
X180538498Y-65288498D01*
X180700000Y-65126996D02*
X181536502Y-65963498D01*
X181536502Y-65963498D02*
X181913498Y-65963498D01*
X182250000Y-66300000D02*
X182250000Y-66750000D01*
X179660000Y-56100000D02*
X180743101Y-57183101D01*
X180700000Y-64100000D02*
X180700000Y-65126996D01*
X181913498Y-65963498D02*
X182250000Y-66300000D01*
X179754439Y-65499329D02*
X180029507Y-65499329D01*
X180538498Y-65288498D02*
G75*
G03*
X180700000Y-64898598I-389901J389901D01*
G01*
X180538498Y-65288498D02*
G75*
G02*
X180029507Y-65499329I-508987J508982D01*
G01*
X180931221Y-65358217D02*
G75*
G02*
X180700000Y-64800000I558212J558215D01*
G01*
X181329999Y-58600000D02*
G75*
G03*
X180743100Y-57183102I-2003792J2D01*
G01*
%TO.N,TXD*%
X173510538Y-57570538D02*
X173510538Y-57597948D01*
X183609189Y-57759189D02*
X183609189Y-62990811D01*
X183609189Y-62990811D02*
X183425001Y-63174999D01*
X182600000Y-63200000D02*
X183400000Y-63200000D01*
X172040000Y-56100000D02*
X173510538Y-57570538D01*
X183425001Y-63174999D02*
X183425001Y-68624999D01*
X183400000Y-63200000D02*
X183425001Y-63174999D01*
X183350000Y-57500000D02*
X183609189Y-57759189D01*
X182300000Y-69750000D02*
G75*
G03*
X183425001Y-68624999I1J1125000D01*
G01*
%TO.N,RST*%
X181100000Y-70101064D02*
X181100000Y-70925000D01*
X181396956Y-65100000D02*
X181962641Y-65100000D01*
X182900001Y-66037360D02*
X182900001Y-68599999D01*
X181200000Y-64100000D02*
X181200000Y-64903044D01*
X182500000Y-69000000D02*
X182201064Y-69000000D01*
X181100000Y-70925000D02*
X180975000Y-71050000D01*
X180975000Y-71050000D02*
X180400000Y-71050000D01*
X171000000Y-57600000D02*
X171000000Y-59250000D01*
X182900001Y-66037360D02*
G75*
G03*
X181962641Y-65100000I-937359J1D01*
G01*
X181396956Y-65100000D02*
G75*
G02*
X181200000Y-64903044I0J196956D01*
G01*
X181100000Y-70101064D02*
G75*
G02*
X182201064Y-69000000I1101063J1D01*
G01*
X182500000Y-69000000D02*
G75*
G03*
X182900001Y-68599999I-1J400002D01*
G01*
%TO.N,D-*%
X180200000Y-59902672D02*
X180200000Y-60300000D01*
X179922318Y-59624990D02*
X179539713Y-59624990D01*
X182850002Y-72000000D02*
X182850002Y-72374998D01*
X178974010Y-60190693D02*
G75*
G02*
X179539713Y-59624990I565704J-1D01*
G01*
X180200000Y-59902672D02*
G75*
G03*
X179922318Y-59624990I-277681J1D01*
G01*
X182225000Y-73000000D02*
G75*
G03*
X182850002Y-72374998I-1J625003D01*
G01*
%TO.N,D+*%
X182930000Y-74320000D02*
X182225000Y-74320000D01*
X180700000Y-60300000D02*
X180700000Y-59902672D01*
X180990011Y-59612661D02*
X182312661Y-59612661D01*
X182930000Y-74320000D02*
G75*
G03*
X183250000Y-74000000I-1J320001D01*
G01*
X180990011Y-59612661D02*
G75*
G03*
X180700000Y-59902672I-1J-290010D01*
G01*
X182884188Y-60184188D02*
G75*
G03*
X182312661Y-59612661I-571526J1D01*
G01*
%TO.N,Net-(C1-Pad1)*%
X176094056Y-62480310D02*
X176619690Y-62480310D01*
X182579882Y-64100000D02*
X182602434Y-64077448D01*
X178800000Y-61200000D02*
X178846447Y-61200000D01*
X177400000Y-61700000D02*
X177400000Y-61200000D01*
X177400000Y-61200000D02*
X177400000Y-60425000D01*
X178800000Y-61200000D02*
X177400000Y-61200000D01*
X179700000Y-60300000D02*
X179700000Y-60346447D01*
X181700000Y-64100000D02*
X182579882Y-64100000D01*
X177400000Y-61700000D02*
G75*
G02*
X176619690Y-62480310I-780312J2D01*
G01*
X177375000Y-60400000D02*
G75*
G02*
X177400000Y-60425000I1J-24999D01*
G01*
X179450000Y-60950000D02*
G75*
G02*
X178846447Y-61200000I-603550J603545D01*
G01*
X179450000Y-60950000D02*
G75*
G03*
X179700000Y-60346447I-603556J603555D01*
G01*
%TO.N,Net-(J1-Pad3)*%
X177511002Y-56100000D02*
X180011002Y-58600000D01*
X175453078Y-57919925D02*
X177120000Y-56253004D01*
X177120000Y-56100000D02*
X177120000Y-56253004D01*
X172937500Y-60200000D02*
X174325000Y-60200000D01*
X175186502Y-58563498D02*
X175186502Y-59086502D01*
X180011002Y-58600000D02*
X180060000Y-58600000D01*
X174636502Y-59636502D02*
X173500998Y-59636502D01*
X177120000Y-56100000D02*
X177511002Y-56100000D01*
X175453078Y-57919925D02*
G75*
G03*
X175186502Y-58563498I643577J-643574D01*
G01*
X174500000Y-60375000D02*
G75*
G03*
X174325000Y-60200000I-174999J1D01*
G01*
X174636502Y-59636502D02*
G75*
G03*
X175186502Y-59086502I1J549999D01*
G01*
X172937500Y-60200000D02*
G75*
G02*
X173500998Y-59636502I563499J-1D01*
G01*
%TO.N,Net-(D3-Pad2)*%
X171000000Y-78825000D02*
X171000000Y-80125000D01*
%TO.N,Net-(D3-Pad1)*%
X175632148Y-64332148D02*
X175482148Y-64482148D01*
X178800000Y-63200000D02*
X178200000Y-63200000D01*
X176242982Y-64142982D02*
X176088835Y-64142982D01*
X171000000Y-81875000D02*
X171525000Y-81875000D01*
X177353227Y-63550745D02*
X177127277Y-63776695D01*
X174714786Y-64800000D02*
X173624264Y-64800000D01*
X175632148Y-64332148D02*
G75*
G02*
X176088835Y-64142982I456684J-456681D01*
G01*
X172000000Y-82350000D02*
G75*
G03*
X171525000Y-81875000I-474999J1D01*
G01*
X176242982Y-64142982D02*
G75*
G03*
X177127277Y-63776695I-1J1250583D01*
G01*
X177353227Y-63550745D02*
G75*
G02*
X178200000Y-63200000I846775J-846778D01*
G01*
X172900000Y-64500000D02*
G75*
G03*
X173624264Y-64800000I724260J724253D01*
G01*
X174714786Y-64800000D02*
G75*
G03*
X175482148Y-64482148I4J1085203D01*
G01*
%TO.N,Net-(J3-PadA7)*%
X175850000Y-74500000D02*
X175850000Y-74567158D01*
X176250000Y-76040000D02*
X176250000Y-75465685D01*
X179300000Y-73200000D02*
X179300000Y-73667493D01*
X177129907Y-74074520D02*
X178892973Y-74074520D01*
X176950000Y-74000000D02*
X176350000Y-74000000D01*
X177485829Y-74525130D02*
X177485829Y-74868098D01*
X177250000Y-76040000D02*
X177250000Y-75437439D01*
X180575000Y-73000000D02*
X179500000Y-73000000D01*
X175850000Y-74500000D02*
G75*
G02*
X176350000Y-74000000I500001J-1D01*
G01*
X177378123Y-75128123D02*
G75*
G03*
X177250000Y-75437439I309318J-309317D01*
G01*
X176050000Y-75050000D02*
G75*
G02*
X176250000Y-75532842I-482839J-482841D01*
G01*
X179300000Y-73200000D02*
G75*
G02*
X179500000Y-73000000I200001J-1D01*
G01*
X178892973Y-74074520D02*
G75*
G03*
X179300000Y-73667493I2J407025D01*
G01*
X177378123Y-75128123D02*
G75*
G03*
X177485829Y-74868098I-260028J260027D01*
G01*
X176950000Y-74000000D02*
G75*
G03*
X177129907Y-74074520I179908J179910D01*
G01*
X177485829Y-74525130D02*
G75*
G02*
X177936439Y-74074520I450611J-1D01*
G01*
X176050000Y-75050000D02*
G75*
G02*
X175850000Y-74567158I482839J482841D01*
G01*
%TO.N,Net-(J3-PadA6)*%
X176750000Y-74731646D02*
X176757146Y-74724500D01*
X180256065Y-74638935D02*
X178211065Y-74638935D01*
X180575000Y-74320000D02*
X180256065Y-74638935D01*
X181067926Y-74320000D02*
X180575000Y-74320000D01*
X177750000Y-76040000D02*
X177750000Y-75482784D01*
X176750000Y-76040000D02*
X176750000Y-74731646D01*
X181067926Y-74320000D02*
G75*
G02*
X181213616Y-74465690I-1J-145691D01*
G01*
X178020670Y-74829330D02*
G75*
G02*
X178211065Y-74638935I190394J1D01*
G01*
X177814230Y-75327720D02*
G75*
G03*
X177750000Y-75482784I155065J-155065D01*
G01*
X177814230Y-75327720D02*
G75*
G03*
X178020670Y-74829330I-498388J498389D01*
G01*
%TO.N,Net-(J3-PadA5)*%
X175316074Y-74963070D02*
X175750000Y-75396996D01*
X175750000Y-75396996D02*
X175750000Y-76040000D01*
X182554809Y-79429810D02*
X183300000Y-80175000D01*
X175000001Y-74200000D02*
G75*
G03*
X175316075Y-74963069I1079141J-1D01*
G01*
X182554809Y-79429810D02*
G75*
G03*
X182000000Y-79200000I-554810J-554809D01*
G01*
%TO.N,Net-(J3-PadB5)*%
X178924511Y-75145489D02*
X180626978Y-75145489D01*
X182975000Y-77275000D02*
X183300000Y-77275000D01*
X178750000Y-76040000D02*
X178750000Y-75320000D01*
X181482842Y-75500000D02*
X181719589Y-75500000D01*
X182400000Y-76180411D02*
X182400000Y-76700000D01*
X182975000Y-77275000D02*
G75*
G02*
X182400000Y-76700000I1J575001D01*
G01*
X181000000Y-75300000D02*
G75*
G03*
X180626978Y-75145489I-373022J-373020D01*
G01*
X178924511Y-75145489D02*
G75*
G03*
X178750000Y-75320000I0J-174511D01*
G01*
X181482842Y-75499999D02*
G75*
G02*
X181000001Y-75299999I-3J682833D01*
G01*
X182400000Y-76180411D02*
G75*
G03*
X181719589Y-75500000I-680412J-1D01*
G01*
%TO.N,Net-(R7-Pad2)*%
X176135273Y-65785995D02*
X176473923Y-65447345D01*
X176473923Y-65447345D02*
X176475000Y-65400000D01*
X171700000Y-65871990D02*
X171785995Y-65785995D01*
X171785995Y-65785995D02*
X176135273Y-65785995D01*
X171830000Y-67400000D02*
X171830000Y-66255000D01*
X171700000Y-66125000D02*
X171700000Y-65871990D01*
X171700000Y-66125000D02*
G75*
G02*
X171830000Y-66255000I0J-130000D01*
G01*
%TD*%
%TA.AperFunction,Conductor*%
%TO.N,GND*%
G36*
X173215937Y-74835605D02*
G01*
X173262430Y-74889261D01*
X173272534Y-74959535D01*
X173243040Y-75024115D01*
X173223381Y-75042429D01*
X173144276Y-75101715D01*
X173131715Y-75114276D01*
X173055214Y-75216351D01*
X173046676Y-75231946D01*
X173023171Y-75294645D01*
X172980529Y-75351409D01*
X172913968Y-75376109D01*
X172894207Y-75375936D01*
X172685475Y-75357674D01*
X172674525Y-75357674D01*
X172466196Y-75375901D01*
X172455401Y-75377804D01*
X172253405Y-75431928D01*
X172243113Y-75435674D01*
X172053583Y-75524054D01*
X172044093Y-75529534D01*
X172002851Y-75558411D01*
X171994477Y-75568887D01*
X172001545Y-75582334D01*
X172667189Y-76247979D01*
X172681132Y-76255592D01*
X172682966Y-76255461D01*
X172689579Y-76251210D01*
X172939192Y-76001597D01*
X172952000Y-75978141D01*
X172952000Y-75912000D01*
X172972002Y-75843879D01*
X173025658Y-75797386D01*
X173078000Y-75786000D01*
X173136674Y-75786000D01*
X173162319Y-75778470D01*
X173329124Y-75611665D01*
X173391436Y-75577639D01*
X173462251Y-75582704D01*
X173507314Y-75611665D01*
X173533190Y-75637541D01*
X173543276Y-75643048D01*
X173546000Y-75635744D01*
X173546000Y-74980117D01*
X173545114Y-74977099D01*
X173545116Y-74906103D01*
X173583500Y-74846377D01*
X173648082Y-74816885D01*
X173666011Y-74815603D01*
X173676315Y-74815603D01*
X173696025Y-74817154D01*
X173716103Y-74820334D01*
X173725897Y-74818783D01*
X173735811Y-74818783D01*
X173735811Y-74819804D01*
X173750514Y-74819481D01*
X173814236Y-74826660D01*
X173841744Y-74832938D01*
X173880149Y-74846377D01*
X173921552Y-74860865D01*
X173946971Y-74873106D01*
X173995035Y-74903306D01*
X174042073Y-74956484D01*
X174054000Y-75009994D01*
X174054000Y-75389790D01*
X174051579Y-75414371D01*
X174045500Y-75444933D01*
X174045501Y-76008339D01*
X174045501Y-76168000D01*
X174025499Y-76236121D01*
X173971843Y-76282614D01*
X173919501Y-76294000D01*
X173383326Y-76294000D01*
X173357681Y-76301530D01*
X173052021Y-76607189D01*
X173044408Y-76621132D01*
X173044539Y-76622966D01*
X173048790Y-76629580D01*
X173718391Y-77299180D01*
X173730161Y-77305607D01*
X173742176Y-77296311D01*
X173770466Y-77255907D01*
X173775946Y-77246417D01*
X173801904Y-77190749D01*
X173848821Y-77137464D01*
X173916099Y-77117999D01*
X174144669Y-77117999D01*
X174151490Y-77117629D01*
X174202352Y-77112105D01*
X174217607Y-77108478D01*
X174309693Y-77073957D01*
X174380500Y-77068774D01*
X174442869Y-77102695D01*
X174451321Y-77112005D01*
X174467852Y-77132148D01*
X174597965Y-77238929D01*
X174603423Y-77241847D01*
X174603424Y-77241847D01*
X174740952Y-77315358D01*
X174740955Y-77315359D01*
X174746410Y-77318275D01*
X174907483Y-77367136D01*
X174975796Y-77373865D01*
X174994144Y-77375672D01*
X175003468Y-77377130D01*
X175008845Y-77379018D01*
X175014410Y-77379500D01*
X175026822Y-77379500D01*
X175039170Y-77380107D01*
X175052924Y-77381462D01*
X175061344Y-77382291D01*
X175064376Y-77382680D01*
X175065199Y-77382680D01*
X175074992Y-77384231D01*
X175095070Y-77381051D01*
X175114780Y-77379500D01*
X178885220Y-77379500D01*
X178904930Y-77381051D01*
X178925008Y-77384231D01*
X178934801Y-77382680D01*
X178935625Y-77382680D01*
X178938658Y-77382291D01*
X179013354Y-77374933D01*
X179092517Y-77367136D01*
X179253590Y-77318275D01*
X179259045Y-77315359D01*
X179259048Y-77315358D01*
X179396576Y-77241847D01*
X179396577Y-77241847D01*
X179402035Y-77238929D01*
X179532148Y-77132148D01*
X179548679Y-77112005D01*
X179607356Y-77072036D01*
X179678327Y-77070136D01*
X179690307Y-77073957D01*
X179782391Y-77108478D01*
X179797649Y-77112105D01*
X179848514Y-77117631D01*
X179855328Y-77118000D01*
X180083901Y-77118000D01*
X180152022Y-77138002D01*
X180198095Y-77190749D01*
X180224052Y-77246412D01*
X180229534Y-77255907D01*
X180258411Y-77297149D01*
X180268887Y-77305523D01*
X180282334Y-77298455D01*
X180947979Y-76632811D01*
X180955592Y-76618868D01*
X180955461Y-76617034D01*
X180951210Y-76610421D01*
X180647597Y-76306808D01*
X180624141Y-76294000D01*
X180080500Y-76294000D01*
X180012379Y-76273998D01*
X179965886Y-76220342D01*
X179954500Y-76168000D01*
X179954499Y-75650989D01*
X179974501Y-75582868D01*
X180028156Y-75536375D01*
X180080499Y-75524989D01*
X180328188Y-75524989D01*
X180396309Y-75544991D01*
X180442802Y-75598647D01*
X180449084Y-75615492D01*
X180457237Y-75643260D01*
X180464330Y-75640021D01*
X180492686Y-75611665D01*
X180554998Y-75577639D01*
X180625813Y-75582704D01*
X180670876Y-75611665D01*
X180832399Y-75773188D01*
X180855861Y-75786000D01*
X180922000Y-75786000D01*
X180990121Y-75806002D01*
X181036614Y-75859658D01*
X181048000Y-75912000D01*
X181048000Y-75970674D01*
X181055530Y-75996319D01*
X181320000Y-76260790D01*
X182048662Y-76989451D01*
X182073401Y-77028282D01*
X182074638Y-77027705D01*
X182142896Y-77174086D01*
X182142899Y-77174091D01*
X182145222Y-77179073D01*
X182148378Y-77183580D01*
X182148379Y-77183582D01*
X182229322Y-77299180D01*
X182241018Y-77315884D01*
X182359116Y-77433982D01*
X182363624Y-77437139D01*
X182363627Y-77437141D01*
X182397883Y-77461127D01*
X182495927Y-77529778D01*
X182500913Y-77532103D01*
X182527474Y-77544489D01*
X182580759Y-77591406D01*
X182593105Y-77616934D01*
X182618791Y-77690076D01*
X182699990Y-77800010D01*
X182707561Y-77805602D01*
X182771208Y-77852613D01*
X182814119Y-77909174D01*
X182819638Y-77979956D01*
X182786014Y-78042486D01*
X182744791Y-78067628D01*
X182745677Y-78069591D01*
X182725012Y-78078921D01*
X182591426Y-78159824D01*
X182579557Y-78169131D01*
X182469131Y-78279557D01*
X182459824Y-78291426D01*
X182378921Y-78425012D01*
X182372715Y-78438757D01*
X182355993Y-78492119D01*
X182316536Y-78551141D01*
X182251433Y-78579461D01*
X182205064Y-78576644D01*
X182090004Y-78547743D01*
X182090000Y-78547743D01*
X182082633Y-78545892D01*
X182075034Y-78545852D01*
X182075033Y-78545852D01*
X182009181Y-78545507D01*
X181924221Y-78545062D01*
X181916841Y-78546834D01*
X181916839Y-78546834D01*
X181777563Y-78580271D01*
X181777560Y-78580272D01*
X181770184Y-78582043D01*
X181629414Y-78654700D01*
X181510039Y-78758838D01*
X181418950Y-78888444D01*
X181361406Y-79036037D01*
X181360414Y-79043570D01*
X181360414Y-79043571D01*
X181342113Y-79182585D01*
X181340729Y-79193096D01*
X181358113Y-79350553D01*
X181360723Y-79357684D01*
X181360723Y-79357686D01*
X181408087Y-79487115D01*
X181412713Y-79557961D01*
X181378303Y-79620061D01*
X181315781Y-79653700D01*
X181288112Y-79656405D01*
X181236507Y-79655730D01*
X181225027Y-79656633D01*
X181031199Y-79689938D01*
X181020079Y-79692918D01*
X180835557Y-79760992D01*
X180825179Y-79765942D01*
X180734146Y-79820101D01*
X180724547Y-79830436D01*
X180728033Y-79838823D01*
X181307188Y-80417978D01*
X181321132Y-80425592D01*
X181322965Y-80425461D01*
X181329580Y-80421210D01*
X181860056Y-79890734D01*
X181922368Y-79856708D01*
X181951130Y-79853845D01*
X182061318Y-79855576D01*
X182061321Y-79855576D01*
X182068916Y-79855695D01*
X182223332Y-79820329D01*
X182265293Y-79799225D01*
X182335138Y-79786488D01*
X182400781Y-79813533D01*
X182411001Y-79822696D01*
X182533595Y-79945290D01*
X182567621Y-80007602D01*
X182570500Y-80034384D01*
X182570501Y-80200656D01*
X182570501Y-80223522D01*
X182550499Y-80291643D01*
X182496844Y-80338136D01*
X182426570Y-80348241D01*
X182361989Y-80318748D01*
X182331495Y-80279252D01*
X182292734Y-80200652D01*
X182291577Y-80198765D01*
X182282732Y-80192126D01*
X182270312Y-80198898D01*
X181692022Y-80777188D01*
X181684408Y-80791132D01*
X181684539Y-80792965D01*
X181688790Y-80799580D01*
X182281415Y-81392205D01*
X182279136Y-81394484D01*
X182308769Y-81424118D01*
X182323651Y-81496029D01*
X182318087Y-81556585D01*
X182321475Y-81568124D01*
X182322865Y-81569329D01*
X182330548Y-81571000D01*
X183428000Y-81571000D01*
X183496121Y-81591002D01*
X183542614Y-81644658D01*
X183554000Y-81697000D01*
X183554000Y-81953000D01*
X183533998Y-82021121D01*
X183480342Y-82067614D01*
X183428000Y-82079000D01*
X182335116Y-82079000D01*
X182319877Y-82083475D01*
X182318672Y-82084865D01*
X182317709Y-82089294D01*
X182323132Y-82148315D01*
X182325743Y-82161351D01*
X182372715Y-82311243D01*
X182378921Y-82324988D01*
X182459824Y-82458574D01*
X182469131Y-82470443D01*
X182529593Y-82530905D01*
X182563619Y-82593217D01*
X182558554Y-82664032D01*
X182516007Y-82720868D01*
X182449487Y-82745679D01*
X182440498Y-82746000D01*
X172732700Y-82746000D01*
X172664579Y-82725998D01*
X172618086Y-82672342D01*
X172607982Y-82602068D01*
X172615792Y-82573004D01*
X172616572Y-82571065D01*
X172636842Y-82520641D01*
X172651954Y-82414456D01*
X172658581Y-82367891D01*
X172658581Y-82367888D01*
X172659162Y-82363807D01*
X172659307Y-82350000D01*
X172640276Y-82192733D01*
X172603809Y-82096227D01*
X172598441Y-82025435D01*
X172632198Y-81962978D01*
X172694364Y-81928686D01*
X172726622Y-81925787D01*
X172733783Y-81926068D01*
X172745265Y-81925466D01*
X172939905Y-81897245D01*
X172951101Y-81894557D01*
X173137343Y-81831336D01*
X173147840Y-81826662D01*
X173266401Y-81760266D01*
X173276264Y-81750189D01*
X173275929Y-81749319D01*
X180725041Y-81749319D01*
X180734923Y-81761809D01*
X180772259Y-81786756D01*
X180782371Y-81792247D01*
X180963081Y-81869885D01*
X180974014Y-81873437D01*
X181165844Y-81916845D01*
X181177253Y-81918347D01*
X181373783Y-81926068D01*
X181385265Y-81925466D01*
X181579905Y-81897245D01*
X181591101Y-81894557D01*
X181777343Y-81831336D01*
X181787840Y-81826662D01*
X181906401Y-81760266D01*
X181916264Y-81750189D01*
X181913309Y-81742519D01*
X181332812Y-81162022D01*
X181318868Y-81154408D01*
X181317035Y-81154539D01*
X181310420Y-81158790D01*
X180731237Y-81737973D01*
X180725041Y-81749319D01*
X173275929Y-81749319D01*
X173273309Y-81742519D01*
X172321922Y-80791132D01*
X173044408Y-80791132D01*
X173044539Y-80792965D01*
X173048790Y-80799580D01*
X173628603Y-81379393D01*
X173640983Y-81386153D01*
X173647563Y-81381227D01*
X173716662Y-81257840D01*
X173721336Y-81247343D01*
X173784557Y-81061101D01*
X173787245Y-81049905D01*
X173815762Y-80853224D01*
X173816392Y-80845843D01*
X173817757Y-80793704D01*
X173817514Y-80786305D01*
X173815647Y-80765980D01*
X180182914Y-80765980D01*
X180195777Y-80962233D01*
X180197577Y-80973601D01*
X180245991Y-81164228D01*
X180249829Y-81175066D01*
X180332173Y-81353685D01*
X180337922Y-81363642D01*
X180347850Y-81377690D01*
X180358439Y-81386078D01*
X180371740Y-81379050D01*
X180947978Y-80802812D01*
X180955592Y-80788868D01*
X180955461Y-80787035D01*
X180951210Y-80780420D01*
X180370031Y-80199241D01*
X180357651Y-80192481D01*
X180351685Y-80196947D01*
X180271452Y-80349445D01*
X180267047Y-80360079D01*
X180208724Y-80547910D01*
X180206332Y-80559164D01*
X180183215Y-80754479D01*
X180182914Y-80765980D01*
X173815647Y-80765980D01*
X173799330Y-80588397D01*
X173797233Y-80577083D01*
X173743846Y-80387789D01*
X173739724Y-80377050D01*
X173652736Y-80200656D01*
X173651577Y-80198765D01*
X173642732Y-80192126D01*
X173630312Y-80198898D01*
X173052022Y-80777188D01*
X173044408Y-80791132D01*
X172321922Y-80791132D01*
X171766405Y-80235615D01*
X171732379Y-80173303D01*
X171729500Y-80146520D01*
X171729500Y-79830436D01*
X172084547Y-79830436D01*
X172088033Y-79838823D01*
X172667188Y-80417978D01*
X172681132Y-80425592D01*
X172682965Y-80425461D01*
X172689580Y-80421210D01*
X173268407Y-79842383D01*
X173275167Y-79830003D01*
X173269137Y-79821948D01*
X173201459Y-79779246D01*
X173191211Y-79774025D01*
X173008531Y-79701143D01*
X172997504Y-79697876D01*
X172804605Y-79659506D01*
X172793159Y-79658303D01*
X172596507Y-79655730D01*
X172585027Y-79656633D01*
X172391199Y-79689938D01*
X172380079Y-79692918D01*
X172195557Y-79760992D01*
X172185179Y-79765942D01*
X172094146Y-79820101D01*
X172084547Y-79830436D01*
X171729500Y-79830436D01*
X171729500Y-79790930D01*
X171722964Y-79730764D01*
X171706037Y-79685613D01*
X171676644Y-79607205D01*
X171676643Y-79607202D01*
X171673493Y-79598801D01*
X171600098Y-79500870D01*
X171575251Y-79434364D01*
X171590304Y-79364982D01*
X171600973Y-79350722D01*
X171600010Y-79350010D01*
X171675613Y-79247652D01*
X171681209Y-79240076D01*
X171726493Y-79111127D01*
X171729500Y-79079315D01*
X171729499Y-78570686D01*
X171726493Y-78538873D01*
X171681209Y-78409924D01*
X171600010Y-78299990D01*
X171490076Y-78218791D01*
X171361127Y-78173507D01*
X171353485Y-78172785D01*
X171353482Y-78172784D01*
X171338579Y-78171376D01*
X171329315Y-78170500D01*
X171000223Y-78170500D01*
X170670686Y-78170501D01*
X170667738Y-78170780D01*
X170667729Y-78170780D01*
X170646522Y-78172784D01*
X170646520Y-78172784D01*
X170638873Y-78173507D01*
X170509924Y-78218791D01*
X170502350Y-78224386D01*
X170502345Y-78224388D01*
X170454859Y-78259462D01*
X170388181Y-78283845D01*
X170318905Y-78268308D01*
X170269027Y-78217785D01*
X170254000Y-78158111D01*
X170254000Y-77841889D01*
X170274002Y-77773768D01*
X170327658Y-77727275D01*
X170397932Y-77717171D01*
X170454859Y-77740538D01*
X170502345Y-77775612D01*
X170502350Y-77775614D01*
X170509924Y-77781209D01*
X170638873Y-77826493D01*
X170646515Y-77827215D01*
X170646518Y-77827216D01*
X170661421Y-77828624D01*
X170670685Y-77829500D01*
X170999777Y-77829500D01*
X171329314Y-77829499D01*
X171332262Y-77829220D01*
X171332271Y-77829220D01*
X171353478Y-77827216D01*
X171353480Y-77827216D01*
X171361127Y-77826493D01*
X171490076Y-77781209D01*
X171600010Y-77700010D01*
X171622057Y-77670161D01*
X171674882Y-77598643D01*
X171731444Y-77555732D01*
X171802225Y-77550213D01*
X171859216Y-77581096D01*
X171860185Y-77579941D01*
X171872796Y-77590524D01*
X172044088Y-77710464D01*
X172053584Y-77715947D01*
X172243113Y-77804326D01*
X172253405Y-77808072D01*
X172455401Y-77862196D01*
X172466196Y-77864099D01*
X172674525Y-77882326D01*
X172685475Y-77882326D01*
X172893804Y-77864099D01*
X172904599Y-77862196D01*
X173106595Y-77808072D01*
X173116887Y-77804326D01*
X173306416Y-77715947D01*
X173315912Y-77710464D01*
X173357148Y-77681590D01*
X173365523Y-77671113D01*
X173365023Y-77670161D01*
X180634393Y-77670161D01*
X180643687Y-77682175D01*
X180684088Y-77710464D01*
X180693584Y-77715947D01*
X180883113Y-77804326D01*
X180893405Y-77808072D01*
X181095401Y-77862196D01*
X181106196Y-77864099D01*
X181314525Y-77882326D01*
X181325475Y-77882326D01*
X181533804Y-77864099D01*
X181544599Y-77862196D01*
X181746595Y-77808072D01*
X181756887Y-77804326D01*
X181946416Y-77715947D01*
X181955912Y-77710464D01*
X181997148Y-77681590D01*
X182005523Y-77671112D01*
X181998457Y-77657668D01*
X181332811Y-76992021D01*
X181318868Y-76984408D01*
X181317034Y-76984539D01*
X181310420Y-76988790D01*
X180640820Y-77658391D01*
X180634393Y-77670161D01*
X173365023Y-77670161D01*
X173358454Y-77657665D01*
X172320790Y-76620000D01*
X171641611Y-75940822D01*
X171629839Y-75934394D01*
X171617822Y-75943691D01*
X171608714Y-75956699D01*
X171553257Y-76001029D01*
X171482638Y-76008339D01*
X171419277Y-75976309D01*
X171383292Y-75915108D01*
X171379500Y-75884430D01*
X171379500Y-75446752D01*
X171380951Y-75427682D01*
X171382726Y-75416091D01*
X171382726Y-75416090D01*
X171384226Y-75406293D01*
X171381496Y-75389613D01*
X171380494Y-75382067D01*
X171379865Y-75375901D01*
X171367934Y-75259059D01*
X171365109Y-75249762D01*
X171346413Y-75188223D01*
X171345749Y-75117229D01*
X171383573Y-75057146D01*
X171447875Y-75027051D01*
X171518240Y-75036497D01*
X171527094Y-75040864D01*
X171542283Y-75049111D01*
X171695512Y-75089310D01*
X171779467Y-75090629D01*
X171846309Y-75091679D01*
X171846312Y-75091679D01*
X171853906Y-75091798D01*
X172008322Y-75056432D01*
X172100655Y-75009994D01*
X172143062Y-74988666D01*
X172143065Y-74988664D01*
X172149845Y-74985254D01*
X172155616Y-74980325D01*
X172155619Y-74980323D01*
X172264532Y-74887302D01*
X172264533Y-74887301D01*
X172270304Y-74882372D01*
X172280576Y-74868077D01*
X172336571Y-74824429D01*
X172382899Y-74815603D01*
X173147816Y-74815603D01*
X173215937Y-74835605D01*
G37*
%TD.AperFunction*%
%TA.AperFunction,Conductor*%
G36*
X179321005Y-71589699D02*
G01*
X179327296Y-71596802D01*
X179417854Y-71707147D01*
X179547968Y-71813929D01*
X179553426Y-71816847D01*
X179553427Y-71816847D01*
X179559975Y-71820347D01*
X179696415Y-71893276D01*
X179702335Y-71895072D01*
X179702338Y-71895073D01*
X179830727Y-71934019D01*
X179857489Y-71942137D01*
X179911259Y-71947433D01*
X179944151Y-71950673D01*
X179953475Y-71952131D01*
X179958852Y-71954019D01*
X179964417Y-71954501D01*
X179976829Y-71954501D01*
X179989177Y-71955108D01*
X180002922Y-71956462D01*
X180011352Y-71957292D01*
X180014384Y-71957681D01*
X180015207Y-71957681D01*
X180025000Y-71959232D01*
X180045078Y-71956052D01*
X180064788Y-71954501D01*
X180945212Y-71954501D01*
X180964922Y-71956052D01*
X180985000Y-71959232D01*
X180994789Y-71957682D01*
X180995864Y-71957682D01*
X180999833Y-71957195D01*
X181161577Y-71943043D01*
X181161583Y-71943042D01*
X181167069Y-71942562D01*
X181175362Y-71940340D01*
X181338295Y-71896683D01*
X181338297Y-71896682D01*
X181343605Y-71895260D01*
X181354120Y-71890357D01*
X181504258Y-71820347D01*
X181504263Y-71820344D01*
X181509245Y-71818021D01*
X181516153Y-71813184D01*
X181640969Y-71725787D01*
X181708243Y-71703099D01*
X181757470Y-71711018D01*
X181857394Y-71748478D01*
X181872649Y-71752105D01*
X181923514Y-71757631D01*
X181930328Y-71758000D01*
X182078006Y-71758000D01*
X182146127Y-71778002D01*
X182192620Y-71831658D01*
X182202928Y-71900445D01*
X182191722Y-71985564D01*
X182191722Y-71985569D01*
X182190731Y-71993096D01*
X182196672Y-72046903D01*
X182205920Y-72130674D01*
X182193514Y-72200579D01*
X182145284Y-72252679D01*
X182080682Y-72270501D01*
X181970686Y-72270501D01*
X181967738Y-72270780D01*
X181967729Y-72270780D01*
X181946522Y-72272784D01*
X181946520Y-72272784D01*
X181938873Y-72273507D01*
X181809924Y-72318791D01*
X181699990Y-72399990D01*
X181618791Y-72509924D01*
X181573507Y-72638873D01*
X181570500Y-72670685D01*
X181570501Y-73329314D01*
X181570780Y-73332262D01*
X181570780Y-73332271D01*
X181572067Y-73345892D01*
X181573507Y-73361127D01*
X181618791Y-73490076D01*
X181689007Y-73585140D01*
X181713390Y-73651819D01*
X181697854Y-73721094D01*
X181689007Y-73734860D01*
X181625001Y-73821516D01*
X181568439Y-73864427D01*
X181497658Y-73869946D01*
X181464692Y-73858011D01*
X181456601Y-73853727D01*
X181456599Y-73853726D01*
X181449890Y-73850174D01*
X181296249Y-73811582D01*
X181288652Y-73811542D01*
X181288650Y-73811542D01*
X181260393Y-73811394D01*
X181230326Y-73811237D01*
X181162311Y-73790879D01*
X181129635Y-73760099D01*
X181110993Y-73734860D01*
X181086610Y-73668182D01*
X181102146Y-73598906D01*
X181110993Y-73585140D01*
X181181209Y-73490076D01*
X181226493Y-73361127D01*
X181229500Y-73329315D01*
X181229499Y-72670686D01*
X181226493Y-72638873D01*
X181181209Y-72509924D01*
X181100010Y-72399990D01*
X180990076Y-72318791D01*
X180861127Y-72273507D01*
X180853485Y-72272785D01*
X180853482Y-72272784D01*
X180838579Y-72271376D01*
X180829315Y-72270500D01*
X180575172Y-72270500D01*
X180320686Y-72270501D01*
X180317738Y-72270780D01*
X180317729Y-72270780D01*
X180296522Y-72272784D01*
X180296520Y-72272784D01*
X180288873Y-72273507D01*
X180159924Y-72318791D01*
X180049990Y-72399990D01*
X179968791Y-72509924D01*
X179963268Y-72525652D01*
X179959546Y-72536250D01*
X179918102Y-72593895D01*
X179852072Y-72619982D01*
X179840664Y-72620500D01*
X179539786Y-72620500D01*
X179520076Y-72618949D01*
X179509792Y-72617320D01*
X179509791Y-72617320D01*
X179499998Y-72615769D01*
X179479527Y-72619012D01*
X179473919Y-72619772D01*
X179401566Y-72627924D01*
X179331634Y-72615674D01*
X179280315Y-72569020D01*
X179257330Y-72531877D01*
X179253478Y-72525652D01*
X179128303Y-72400695D01*
X179122072Y-72396854D01*
X178983968Y-72311725D01*
X178983966Y-72311724D01*
X178977738Y-72307885D01*
X178865025Y-72270500D01*
X178824680Y-72257118D01*
X178766320Y-72216687D01*
X178739083Y-72151123D01*
X178751616Y-72081242D01*
X178799941Y-72029230D01*
X178822599Y-72018642D01*
X178822799Y-72018572D01*
X178868184Y-72002634D01*
X178875754Y-71997042D01*
X178875757Y-71997041D01*
X178969579Y-71927742D01*
X178977150Y-71922150D01*
X178997011Y-71895260D01*
X179052041Y-71820757D01*
X179052042Y-71820754D01*
X179057634Y-71813184D01*
X179102519Y-71685369D01*
X179104456Y-71664878D01*
X179130780Y-71598942D01*
X179188573Y-71557705D01*
X179259486Y-71554260D01*
X179321005Y-71589699D01*
G37*
%TD.AperFunction*%
%TA.AperFunction,Conductor*%
G36*
X175321677Y-70870502D02*
G01*
X175368170Y-70924158D01*
X175378274Y-70994432D01*
X175373149Y-71016167D01*
X175332195Y-71139641D01*
X175321500Y-71244023D01*
X175321501Y-71850273D01*
X175321501Y-72360271D01*
X175301499Y-72428392D01*
X175247843Y-72474885D01*
X175195501Y-72486271D01*
X174616500Y-72486271D01*
X174548379Y-72466269D01*
X174501886Y-72412613D01*
X174490500Y-72360271D01*
X174490499Y-71243594D01*
X174490499Y-71240628D01*
X174489495Y-71229998D01*
X174488245Y-71216774D01*
X174488245Y-71216773D01*
X174487522Y-71209125D01*
X174442699Y-71081488D01*
X174420444Y-71051357D01*
X174396062Y-70984682D01*
X174411598Y-70915406D01*
X174462122Y-70865527D01*
X174521796Y-70850500D01*
X175253556Y-70850500D01*
X175321677Y-70870502D01*
G37*
%TD.AperFunction*%
%TA.AperFunction,Conductor*%
G36*
X183709095Y-69493368D02*
G01*
X183743120Y-69555680D01*
X183746000Y-69582464D01*
X183746000Y-71865898D01*
X183725998Y-71934019D01*
X183672342Y-71980512D01*
X183602068Y-71990616D01*
X183537488Y-71961122D01*
X183499104Y-71901396D01*
X183494913Y-71881035D01*
X183491190Y-71850273D01*
X183490278Y-71842733D01*
X183434282Y-71694546D01*
X183406302Y-71653834D01*
X183348857Y-71570251D01*
X183348856Y-71570249D01*
X183344555Y-71563992D01*
X183226277Y-71458611D01*
X183218891Y-71454700D01*
X183197118Y-71443172D01*
X183146274Y-71393619D01*
X183130814Y-71318209D01*
X183132631Y-71301483D01*
X183133000Y-71294672D01*
X183133000Y-71268115D01*
X183128525Y-71252876D01*
X183127135Y-71251671D01*
X183119452Y-71250000D01*
X182226000Y-71250000D01*
X182157879Y-71229998D01*
X182111386Y-71176342D01*
X182100000Y-71124000D01*
X182100000Y-70980500D01*
X182120002Y-70912379D01*
X182173658Y-70865886D01*
X182226000Y-70854500D01*
X182631117Y-70854499D01*
X182650066Y-70854499D01*
X182660513Y-70852421D01*
X182685093Y-70850000D01*
X183114884Y-70850000D01*
X183130123Y-70845525D01*
X183131328Y-70844135D01*
X183132999Y-70836452D01*
X183132999Y-70805331D01*
X183132629Y-70798510D01*
X183127105Y-70747648D01*
X183123479Y-70732396D01*
X183078324Y-70611946D01*
X183069786Y-70596351D01*
X182993285Y-70494276D01*
X182980728Y-70481719D01*
X182929935Y-70443652D01*
X182887420Y-70386792D01*
X182879500Y-70342826D01*
X182879499Y-70181123D01*
X182879499Y-70174934D01*
X182870255Y-70128458D01*
X182876584Y-70057745D01*
X182920139Y-70001678D01*
X182933449Y-69993291D01*
X182989234Y-69962830D01*
X183115472Y-69893899D01*
X183207601Y-69824933D01*
X183284155Y-69767626D01*
X183284158Y-69767623D01*
X183287756Y-69764930D01*
X183439931Y-69612755D01*
X183442626Y-69609155D01*
X183442632Y-69609148D01*
X183519131Y-69506956D01*
X183575967Y-69464409D01*
X183646783Y-69459343D01*
X183709095Y-69493368D01*
G37*
%TD.AperFunction*%
%TA.AperFunction,Conductor*%
G36*
X179542655Y-69239502D02*
G01*
X179589148Y-69293158D01*
X179599252Y-69363432D01*
X179592516Y-69389730D01*
X179576522Y-69432394D01*
X179572895Y-69447649D01*
X179567369Y-69498514D01*
X179567000Y-69505328D01*
X179567000Y-69531885D01*
X179571475Y-69547124D01*
X179572865Y-69548329D01*
X179580548Y-69550000D01*
X180474000Y-69550000D01*
X180542121Y-69570002D01*
X180588614Y-69623658D01*
X180600000Y-69676000D01*
X180600000Y-69819500D01*
X180579998Y-69887621D01*
X180526342Y-69934114D01*
X180474000Y-69945500D01*
X180066069Y-69945501D01*
X180049934Y-69945501D01*
X180040193Y-69947439D01*
X180039486Y-69947579D01*
X180014907Y-69950000D01*
X179585116Y-69950000D01*
X179569878Y-69954474D01*
X179568343Y-69956246D01*
X179508617Y-69994631D01*
X179437621Y-69994632D01*
X179384022Y-69962830D01*
X179183905Y-69762713D01*
X179149879Y-69700401D01*
X179147000Y-69673618D01*
X179147000Y-69345500D01*
X179167002Y-69277379D01*
X179220658Y-69230886D01*
X179273000Y-69219500D01*
X179474534Y-69219500D01*
X179542655Y-69239502D01*
G37*
%TD.AperFunction*%
%TA.AperFunction,Conductor*%
G36*
X181350226Y-66299927D02*
G01*
X181351149Y-66300654D01*
X181359786Y-66303687D01*
X181367236Y-66309011D01*
X181377212Y-66311995D01*
X181377213Y-66311995D01*
X181385168Y-66314374D01*
X181416351Y-66323700D01*
X181421988Y-66325532D01*
X181462869Y-66339888D01*
X181470353Y-66342516D01*
X181475918Y-66342998D01*
X181478626Y-66342998D01*
X181481260Y-66343112D01*
X181481358Y-66343141D01*
X181481351Y-66343305D01*
X181482055Y-66343349D01*
X181488280Y-66345211D01*
X181542137Y-66343095D01*
X181547084Y-66342998D01*
X181553158Y-66342998D01*
X181621279Y-66363000D01*
X181667772Y-66416656D01*
X181676737Y-66493579D01*
X181670500Y-66524933D01*
X181670501Y-66743613D01*
X181670501Y-66894500D01*
X181650499Y-66962620D01*
X181596844Y-67009113D01*
X181544501Y-67020500D01*
X181292704Y-67020500D01*
X181224583Y-67000498D01*
X181197761Y-66969544D01*
X181177135Y-66951671D01*
X181169452Y-66950000D01*
X180735100Y-66950000D01*
X180710519Y-66947579D01*
X180706135Y-66946707D01*
X180700067Y-66945500D01*
X180684720Y-66945500D01*
X180275999Y-66945501D01*
X180207880Y-66925499D01*
X180161386Y-66871844D01*
X180150000Y-66819501D01*
X180150000Y-66676000D01*
X180170002Y-66607879D01*
X180223658Y-66561386D01*
X180276000Y-66550000D01*
X181164884Y-66550000D01*
X181180123Y-66545525D01*
X181181328Y-66544135D01*
X181182999Y-66536452D01*
X181182999Y-66505331D01*
X181182629Y-66498510D01*
X181177105Y-66447651D01*
X181175980Y-66442917D01*
X181179683Y-66372017D01*
X181221129Y-66314374D01*
X181287160Y-66288289D01*
X181350226Y-66299927D01*
G37*
%TD.AperFunction*%
%TA.AperFunction,Conductor*%
G36*
X177338011Y-65275158D02*
G01*
X177344594Y-65281288D01*
X177433596Y-65370290D01*
X177467622Y-65432602D01*
X177470501Y-65459385D01*
X177470501Y-65729314D01*
X177473507Y-65761127D01*
X177518791Y-65890076D01*
X177599990Y-66000010D01*
X177607561Y-66005602D01*
X177607564Y-66005605D01*
X177694359Y-66069713D01*
X177737270Y-66126274D01*
X177745500Y-66171064D01*
X177745500Y-66569501D01*
X177725498Y-66637622D01*
X177671842Y-66684115D01*
X177619500Y-66695501D01*
X177541112Y-66695501D01*
X177472991Y-66675499D01*
X177426498Y-66621843D01*
X177417533Y-66594080D01*
X177412087Y-66566699D01*
X177412086Y-66566696D01*
X177411480Y-66563648D01*
X177371453Y-66431697D01*
X177338099Y-66351173D01*
X177334099Y-66341516D01*
X177334095Y-66341507D01*
X177332913Y-66338654D01*
X177279297Y-66238345D01*
X177269374Y-66219781D01*
X177269372Y-66219778D01*
X177267913Y-66217048D01*
X177211963Y-66133314D01*
X177124488Y-66026725D01*
X177112994Y-66015231D01*
X177078968Y-65952919D01*
X177083207Y-65884387D01*
X177123948Y-65768374D01*
X177126493Y-65761127D01*
X177129500Y-65729315D01*
X177129499Y-65370381D01*
X177149501Y-65302263D01*
X177203156Y-65255770D01*
X177273430Y-65245665D01*
X177338011Y-65275158D01*
G37*
%TD.AperFunction*%
%TA.AperFunction,Conductor*%
G36*
X174997082Y-63581051D02*
G01*
X175007365Y-63582680D01*
X175007366Y-63582680D01*
X175017159Y-63584231D01*
X175026955Y-63582679D01*
X175033047Y-63582679D01*
X175049494Y-63583757D01*
X175077740Y-63587476D01*
X175079225Y-63587671D01*
X175110993Y-63596184D01*
X175153501Y-63613791D01*
X175181988Y-63630238D01*
X175205773Y-63648489D01*
X175218164Y-63659356D01*
X175222480Y-63663672D01*
X175228307Y-63671692D01*
X175236325Y-63677517D01*
X175239174Y-63679587D01*
X175246942Y-63685712D01*
X175352716Y-63776051D01*
X175352720Y-63776054D01*
X175356482Y-63779267D01*
X175360695Y-63781849D01*
X175360705Y-63781856D01*
X175403779Y-63808252D01*
X175451411Y-63860900D01*
X175463017Y-63930941D01*
X175434913Y-63996139D01*
X175411082Y-64017287D01*
X175410916Y-64017367D01*
X175406640Y-64020962D01*
X175395802Y-64031800D01*
X175388539Y-64038515D01*
X175382312Y-64043834D01*
X175380245Y-64045599D01*
X175372475Y-64051724D01*
X175360455Y-64060457D01*
X175354628Y-64068477D01*
X175348507Y-64076902D01*
X175335666Y-64091936D01*
X175241937Y-64185665D01*
X175226903Y-64198506D01*
X175210454Y-64210457D01*
X175204624Y-64218481D01*
X175197613Y-64225493D01*
X175197149Y-64225029D01*
X175186994Y-64235801D01*
X175116451Y-64293694D01*
X175095914Y-64307417D01*
X174995794Y-64360932D01*
X174972981Y-64370382D01*
X174864338Y-64403338D01*
X174840115Y-64408156D01*
X174749297Y-64417101D01*
X174734498Y-64416665D01*
X174734498Y-64417320D01*
X174724580Y-64417320D01*
X174714787Y-64415769D01*
X174694710Y-64418949D01*
X174674999Y-64420500D01*
X173664050Y-64420500D01*
X173644331Y-64418947D01*
X173636562Y-64417716D01*
X173572411Y-64387300D01*
X173538415Y-64337808D01*
X173486963Y-64201647D01*
X173484280Y-64194546D01*
X173477748Y-64185042D01*
X173398855Y-64070251D01*
X173398854Y-64070249D01*
X173394553Y-64063992D01*
X173276275Y-63958611D01*
X173268889Y-63954700D01*
X173142988Y-63888039D01*
X173142989Y-63888039D01*
X173136274Y-63884484D01*
X172982633Y-63845892D01*
X172975034Y-63845852D01*
X172975033Y-63845852D01*
X172909181Y-63845507D01*
X172824221Y-63845062D01*
X172816841Y-63846834D01*
X172816839Y-63846834D01*
X172670184Y-63882043D01*
X172669641Y-63879779D01*
X172610233Y-63883972D01*
X172547953Y-63849888D01*
X172537980Y-63838626D01*
X172530867Y-63829555D01*
X172495907Y-63794595D01*
X172461881Y-63732283D01*
X172466946Y-63661468D01*
X172509493Y-63604632D01*
X172576013Y-63579821D01*
X172585002Y-63579500D01*
X174977371Y-63579500D01*
X174997082Y-63581051D01*
G37*
%TD.AperFunction*%
%TA.AperFunction,Conductor*%
G36*
X173788480Y-60752424D02*
G01*
X173818082Y-60788057D01*
X173818791Y-60790076D01*
X173899990Y-60900010D01*
X173907561Y-60905602D01*
X173971208Y-60952613D01*
X174014119Y-61009174D01*
X174019638Y-61079956D01*
X173986014Y-61142486D01*
X173944791Y-61167628D01*
X173945677Y-61169591D01*
X173925012Y-61178921D01*
X173791426Y-61259824D01*
X173779557Y-61269131D01*
X173669131Y-61379557D01*
X173659824Y-61391426D01*
X173578921Y-61525012D01*
X173572715Y-61538757D01*
X173525744Y-61688644D01*
X173523131Y-61701694D01*
X173518087Y-61756586D01*
X173521475Y-61768124D01*
X173522865Y-61769329D01*
X173530548Y-61771000D01*
X174628000Y-61771000D01*
X174696121Y-61791002D01*
X174742614Y-61844658D01*
X174754000Y-61897000D01*
X174754000Y-62153000D01*
X174733998Y-62221121D01*
X174680342Y-62267614D01*
X174628000Y-62279000D01*
X173535116Y-62279000D01*
X173519877Y-62283475D01*
X173506180Y-62299283D01*
X173487705Y-62333116D01*
X173425392Y-62367141D01*
X173398610Y-62370020D01*
X171889308Y-62370020D01*
X171869589Y-62368467D01*
X171862571Y-62367355D01*
X171798420Y-62336939D01*
X171760897Y-62276669D01*
X171757547Y-62225155D01*
X171758581Y-62217891D01*
X171758581Y-62217888D01*
X171759162Y-62213807D01*
X171759307Y-62200000D01*
X171740276Y-62042733D01*
X171684280Y-61894546D01*
X171679362Y-61887390D01*
X171679114Y-61886633D01*
X171676459Y-61881555D01*
X171677305Y-61881113D01*
X171657258Y-61819923D01*
X171675138Y-61751215D01*
X171727327Y-61703081D01*
X171763484Y-61691569D01*
X171766758Y-61691050D01*
X171766760Y-61691049D01*
X171776555Y-61689498D01*
X171890723Y-61631326D01*
X171981326Y-61540723D01*
X172039498Y-61426555D01*
X172054500Y-61331834D01*
X172054500Y-60968166D01*
X172039498Y-60873445D01*
X172042435Y-60872980D01*
X172040867Y-60817931D01*
X172077535Y-60757136D01*
X172141250Y-60725817D01*
X172204794Y-60733113D01*
X172205178Y-60731932D01*
X172211012Y-60733827D01*
X172211783Y-60733916D01*
X172212937Y-60734453D01*
X172214611Y-60734997D01*
X172223445Y-60739498D01*
X172318166Y-60754500D01*
X173556834Y-60754500D01*
X173651555Y-60739498D01*
X173660389Y-60734997D01*
X173669822Y-60731932D01*
X173670955Y-60735419D01*
X173722700Y-60725711D01*
X173788480Y-60752424D01*
G37*
%TD.AperFunction*%
%TA.AperFunction,Conductor*%
G36*
X171915634Y-59801302D02*
G01*
X171956540Y-59859330D01*
X171959280Y-59923251D01*
X171960502Y-59923445D01*
X171945500Y-60018166D01*
X171945500Y-60381834D01*
X171946275Y-60386726D01*
X171960502Y-60476555D01*
X171957565Y-60477020D01*
X171959133Y-60532069D01*
X171922465Y-60592864D01*
X171858750Y-60624183D01*
X171795206Y-60616887D01*
X171794822Y-60618068D01*
X171788988Y-60616173D01*
X171788217Y-60616084D01*
X171787063Y-60615547D01*
X171785389Y-60615003D01*
X171776555Y-60610502D01*
X171681834Y-60595500D01*
X170443166Y-60595500D01*
X170399709Y-60602383D01*
X170329300Y-60593284D01*
X170274986Y-60547562D01*
X170254000Y-60477934D01*
X170254000Y-59922066D01*
X170274002Y-59853945D01*
X170327658Y-59807452D01*
X170399709Y-59797617D01*
X170443166Y-59804500D01*
X171681834Y-59804500D01*
X171776555Y-59789498D01*
X171785389Y-59784997D01*
X171794822Y-59781932D01*
X171795742Y-59784763D01*
X171849849Y-59774602D01*
X171915634Y-59801302D01*
G37*
%TD.AperFunction*%
%TA.AperFunction,Conductor*%
G36*
X176188740Y-55274002D02*
G01*
X176235233Y-55327658D01*
X176245337Y-55397932D01*
X176219569Y-55458005D01*
X176189720Y-55495869D01*
X176187031Y-55500980D01*
X176187029Y-55500983D01*
X176174073Y-55525609D01*
X176095203Y-55675515D01*
X176055548Y-55803225D01*
X176039639Y-55854462D01*
X176035007Y-55869378D01*
X176011148Y-56070964D01*
X176024424Y-56273522D01*
X176025845Y-56279118D01*
X176025846Y-56279123D01*
X176046119Y-56358945D01*
X176074392Y-56470269D01*
X176076809Y-56475512D01*
X176129653Y-56590141D01*
X176140008Y-56660379D01*
X176110745Y-56725064D01*
X176104323Y-56731987D01*
X175657725Y-57178584D01*
X175212864Y-57623445D01*
X175197830Y-57636285D01*
X175181385Y-57648233D01*
X175175830Y-57655879D01*
X175175233Y-57656578D01*
X175174279Y-57657532D01*
X175172610Y-57659649D01*
X175053291Y-57799353D01*
X175053288Y-57799358D01*
X175050076Y-57803118D01*
X174944012Y-57976199D01*
X174942119Y-57980769D01*
X174942117Y-57980773D01*
X174875265Y-58142168D01*
X174866329Y-58163742D01*
X174858746Y-58195329D01*
X174845315Y-58251274D01*
X174818941Y-58361128D01*
X174808720Y-58491003D01*
X174808010Y-58495851D01*
X174807484Y-58497349D01*
X174807002Y-58502914D01*
X174807002Y-58507872D01*
X174806614Y-58517758D01*
X174804136Y-58549245D01*
X174803823Y-58551890D01*
X174803823Y-58553222D01*
X174803748Y-58554174D01*
X174802271Y-58563498D01*
X174803822Y-58573291D01*
X174803822Y-58573292D01*
X174805451Y-58583575D01*
X174807002Y-58603286D01*
X174807002Y-59046715D01*
X174805451Y-59066425D01*
X174802271Y-59086503D01*
X174803445Y-59093913D01*
X174801402Y-59114655D01*
X174798914Y-59127166D01*
X174780100Y-59172589D01*
X174770986Y-59186229D01*
X174736230Y-59220985D01*
X174722589Y-59230100D01*
X174677166Y-59248914D01*
X174664655Y-59251402D01*
X174643913Y-59253445D01*
X174636503Y-59252271D01*
X174620580Y-59254793D01*
X174616426Y-59255451D01*
X174596715Y-59257002D01*
X173540785Y-59257002D01*
X173521074Y-59255451D01*
X173516920Y-59254793D01*
X173500997Y-59252271D01*
X173491204Y-59253822D01*
X173491203Y-59253822D01*
X173489422Y-59254104D01*
X173480694Y-59255176D01*
X173336622Y-59267781D01*
X173331309Y-59269205D01*
X173331307Y-59269205D01*
X173182552Y-59309064D01*
X173182550Y-59309065D01*
X173177242Y-59310487D01*
X173172262Y-59312809D01*
X173172260Y-59312810D01*
X173032685Y-59377895D01*
X173032680Y-59377898D01*
X173027698Y-59380221D01*
X173023191Y-59383377D01*
X173023189Y-59383378D01*
X172897046Y-59471704D01*
X172897043Y-59471706D01*
X172892535Y-59474863D01*
X172775861Y-59591537D01*
X172772702Y-59596049D01*
X172769169Y-59600259D01*
X172767166Y-59598578D01*
X172720291Y-59636079D01*
X172672485Y-59645500D01*
X172318166Y-59645500D01*
X172223445Y-59660502D01*
X172214611Y-59665003D01*
X172205178Y-59668068D01*
X172204258Y-59665237D01*
X172150151Y-59675398D01*
X172084366Y-59648698D01*
X172043460Y-59590670D01*
X172040720Y-59526749D01*
X172039498Y-59526555D01*
X172040454Y-59520522D01*
X172040454Y-59520520D01*
X172054500Y-59431834D01*
X172054500Y-59068166D01*
X172039498Y-58973445D01*
X171981326Y-58859277D01*
X171890723Y-58768674D01*
X171776555Y-58710502D01*
X171681834Y-58695500D01*
X171505500Y-58695500D01*
X171437379Y-58675498D01*
X171390886Y-58621842D01*
X171379500Y-58569500D01*
X171379500Y-58194730D01*
X171399502Y-58126609D01*
X171423669Y-58098919D01*
X171479536Y-58051204D01*
X171485314Y-58046269D01*
X171577755Y-57917624D01*
X171636842Y-57770641D01*
X171652939Y-57657532D01*
X171658581Y-57617891D01*
X171658581Y-57617888D01*
X171659162Y-57613807D01*
X171659307Y-57600000D01*
X171640276Y-57442733D01*
X171598838Y-57333072D01*
X171593470Y-57262279D01*
X171627227Y-57199821D01*
X171689393Y-57165529D01*
X171744511Y-57165641D01*
X171793509Y-57176728D01*
X171889580Y-57198467D01*
X171889583Y-57198467D01*
X171895216Y-57199742D01*
X171900987Y-57199969D01*
X171900989Y-57199969D01*
X171960756Y-57202317D01*
X172098053Y-57207712D01*
X172201423Y-57192724D01*
X172293231Y-57179413D01*
X172293236Y-57179412D01*
X172298945Y-57178584D01*
X172335634Y-57166130D01*
X172435991Y-57132063D01*
X172506926Y-57129107D01*
X172565587Y-57162281D01*
X172823975Y-57420669D01*
X172858001Y-57482981D01*
X172859802Y-57526209D01*
X172852258Y-57583511D01*
X172852258Y-57583517D01*
X172851267Y-57591044D01*
X172855813Y-57632218D01*
X172866798Y-57731715D01*
X172868651Y-57748501D01*
X172871261Y-57755632D01*
X172871261Y-57755634D01*
X172917323Y-57881504D01*
X172923091Y-57897267D01*
X172927327Y-57903570D01*
X172927327Y-57903571D01*
X172996569Y-58006613D01*
X173011446Y-58028753D01*
X173017065Y-58033866D01*
X173017066Y-58033867D01*
X173111854Y-58120117D01*
X173128614Y-58135367D01*
X173267831Y-58210956D01*
X173421060Y-58251155D01*
X173505015Y-58252474D01*
X173571857Y-58253524D01*
X173571860Y-58253524D01*
X173579454Y-58253643D01*
X173733870Y-58218277D01*
X173804280Y-58182865D01*
X173868610Y-58150511D01*
X173868613Y-58150509D01*
X173875393Y-58147099D01*
X173881164Y-58142170D01*
X173881167Y-58142168D01*
X173990074Y-58049152D01*
X173990074Y-58049151D01*
X173995852Y-58044217D01*
X174088293Y-57915572D01*
X174147380Y-57768589D01*
X174158005Y-57693930D01*
X174169119Y-57615839D01*
X174169119Y-57615836D01*
X174169700Y-57611755D01*
X174169845Y-57597948D01*
X174150814Y-57440681D01*
X174107469Y-57325973D01*
X174102101Y-57255181D01*
X174135858Y-57192724D01*
X174198024Y-57158432D01*
X174253142Y-57158543D01*
X174286672Y-57166130D01*
X174429579Y-57198467D01*
X174429584Y-57198468D01*
X174435216Y-57199742D01*
X174440987Y-57199969D01*
X174440989Y-57199969D01*
X174500756Y-57202317D01*
X174638053Y-57207712D01*
X174741423Y-57192724D01*
X174833231Y-57179413D01*
X174833236Y-57179412D01*
X174838945Y-57178584D01*
X174844409Y-57176729D01*
X174844414Y-57176728D01*
X175025693Y-57115192D01*
X175025698Y-57115190D01*
X175031165Y-57113334D01*
X175208276Y-57014147D01*
X175242692Y-56985524D01*
X175359913Y-56888031D01*
X175364345Y-56884345D01*
X175478611Y-56746956D01*
X175490453Y-56732718D01*
X175490455Y-56732715D01*
X175494147Y-56728276D01*
X175593334Y-56551165D01*
X175595190Y-56545698D01*
X175595192Y-56545693D01*
X175656728Y-56364414D01*
X175656729Y-56364409D01*
X175658584Y-56358945D01*
X175659412Y-56353236D01*
X175659413Y-56353231D01*
X175687179Y-56161727D01*
X175687179Y-56161726D01*
X175687712Y-56158053D01*
X175689232Y-56100000D01*
X175670658Y-55897859D01*
X175669090Y-55892299D01*
X175617125Y-55708046D01*
X175617124Y-55708044D01*
X175615557Y-55702487D01*
X175604978Y-55681033D01*
X175528331Y-55525609D01*
X175525776Y-55520428D01*
X175477209Y-55455389D01*
X175452477Y-55388839D01*
X175467651Y-55319483D01*
X175517913Y-55269341D01*
X175578167Y-55254000D01*
X176120619Y-55254000D01*
X176188740Y-55274002D01*
G37*
%TD.AperFunction*%
%TD*%
M02*
