%TF.GenerationSoftware,KiCad,Pcbnew,(6.0.2-0)*%
%TF.CreationDate,2022-02-15T08:15:06+00:00*%
%TF.ProjectId,Shelly,5368656c-6c79-42e6-9b69-6361645f7063,4*%
%TF.SameCoordinates,Original*%
%TF.FileFunction,Copper,L1,Top*%
%TF.FilePolarity,Positive*%
%FSLAX46Y46*%
G04 Gerber Fmt 4.6, Leading zero omitted, Abs format (unit mm)*
G04 Created by KiCad (PCBNEW (6.0.2-0)) date 2022-02-15 08:15:06*
%MOMM*%
%LPD*%
G01*
G04 APERTURE LIST*
G04 Aperture macros list*
%AMRoundRect*
0 Rectangle with rounded corners*
0 $1 Rounding radius*
0 $2 $3 $4 $5 $6 $7 $8 $9 X,Y pos of 4 corners*
0 Add a 4 corners polygon primitive as box body*
4,1,4,$2,$3,$4,$5,$6,$7,$8,$9,$2,$3,0*
0 Add four circle primitives for the rounded corners*
1,1,$1+$1,$2,$3*
1,1,$1+$1,$4,$5*
1,1,$1+$1,$6,$7*
1,1,$1+$1,$8,$9*
0 Add four rect primitives between the rounded corners*
20,1,$1+$1,$2,$3,$4,$5,0*
20,1,$1+$1,$4,$5,$6,$7,0*
20,1,$1+$1,$6,$7,$8,$9,0*
20,1,$1+$1,$8,$9,$2,$3,0*%
%AMFreePoly0*
4,1,6,1.000000,-1.000000,-1.000000,-1.000000,-1.000000,0.750000,-0.750000,1.000000,1.000000,1.000000,1.000000,-1.000000,1.000000,-1.000000,$1*%
%AMFreePoly1*
4,1,136,3.383385,4.221938,3.559722,4.168447,3.722236,4.081581,3.864680,3.964680,3.981581,3.822236,4.068447,3.659722,4.121938,3.483385,4.125213,3.450138,4.182769,3.539508,4.186818,3.554319,4.232803,3.599839,4.295387,3.616268,4.357802,3.599205,4.403322,3.553220,4.419751,3.490636,4.402688,3.428221,4.402685,3.428218,4.172864,3.069999,4.056927,2.918726,3.981581,2.777764,
3.864680,2.635320,3.750000,2.541204,3.750000,0.022998,4.066621,-0.229499,4.408387,-0.546611,4.440740,-0.602647,4.440740,-0.667351,4.408387,-0.723387,4.352351,-0.755740,4.287647,-0.755740,4.231611,-0.723387,4.223834,-0.709917,3.889556,-0.400914,3.520256,-0.109781,3.483169,-0.085000,2.500000,-0.085000,2.500000,-1.185000,3.750000,-1.185000,3.750000,-2.745000,-3.750000,-2.745000,
-3.750000,-1.185000,-2.500000,-1.185000,-2.500000,-0.085000,-3.483168,-0.085000,-3.520257,-0.109782,-3.889557,-0.400914,-4.223835,-0.709917,-4.231612,-0.723388,-4.287648,-0.755741,-4.352352,-0.755741,-4.408388,-0.723388,-4.440741,-0.667352,-4.440741,-0.602648,-4.408388,-0.546612,-4.066622,-0.229500,-3.750000,0.022998,-3.750000,2.541204,-3.864680,2.635320,-3.981581,2.777764,-4.057059,2.918973,
-4.182136,3.083248,-4.410822,3.442198,-4.427688,3.504666,-4.411060,3.567198,-4.365394,3.613038,-4.302926,3.629904,-4.240394,3.613276,-4.194554,3.567610,-4.190552,3.552787,-4.125171,3.450557,-4.121938,3.483385,-4.068447,3.659722,-3.981581,3.822236,-3.864680,3.964680,-3.722236,4.081581,-3.559722,4.168447,-3.383385,4.221938,-3.200000,4.240000,-3.137500,4.223253,-3.091747,4.177500,
-3.075000,4.115000,-3.091747,4.052500,-3.137500,4.006747,-3.200000,3.990000,-3.211471,3.993074,-3.354511,3.976957,-3.501274,3.925602,-3.632930,3.842877,-3.742877,3.732930,-3.825602,3.601274,-3.876957,3.454511,-3.894366,3.300000,-3.876957,3.145489,-3.839657,3.038894,-3.713800,2.875371,-3.594054,2.745000,-2.998152,2.745000,-3.015000,3.045000,-2.998253,3.107500,-2.952500,3.153253,
-2.890000,3.170000,-2.827500,3.153253,-2.781747,3.107500,-2.765000,3.045000,-2.768849,3.030634,-2.752213,2.745000,2.752213,2.745000,2.768849,3.030634,2.765000,3.045000,2.781747,3.107500,2.827500,3.153253,2.890000,3.170000,2.952500,3.153253,2.998253,3.107500,3.015000,3.045000,2.998152,2.745000,3.594234,2.745000,3.703871,2.863608,3.839648,3.038866,3.876957,3.145489,
3.894366,3.300000,3.876957,3.454511,3.825602,3.601274,3.742877,3.732930,3.632930,3.842877,3.501274,3.925602,3.354511,3.976957,3.211471,3.993074,3.200000,3.990000,3.137500,4.006747,3.091747,4.052500,3.075000,4.115000,3.091747,4.177500,3.137500,4.223253,3.200000,4.240000,3.383385,4.221938,3.383385,4.221938,$1*%
%AMFreePoly2*
4,1,43,1.102950,0.110584,1.224483,0.068057,1.333507,-0.000447,1.424553,-0.091493,1.493057,-0.200517,1.535584,-0.322050,1.550000,-0.450000,1.533253,-0.512500,1.487500,-0.558253,1.425000,-0.575000,1.362500,-0.558253,1.316747,-0.512500,1.300000,-0.450000,1.302546,-0.440498,1.287946,-0.348318,1.241208,-0.256589,1.168411,-0.183792,1.076682,-0.137054,0.984502,-0.122454,0.975000,-0.125000,
-0.975000,-0.125000,-0.984502,-0.122454,-1.076682,-0.137054,-1.168411,-0.183792,-1.241208,-0.256589,-1.287946,-0.348318,-1.302546,-0.440498,-1.300000,-0.450000,-1.316747,-0.512500,-1.362500,-0.558253,-1.425000,-0.575000,-1.487500,-0.558253,-1.533253,-0.512500,-1.550000,-0.450000,-1.535584,-0.322050,-1.493057,-0.200517,-1.424553,-0.091493,-1.333507,-0.000447,-1.224483,0.068057,-1.102950,0.110584,
-0.975000,0.125000,0.975000,0.125000,1.102950,0.110584,1.102950,0.110584,$1*%
%AMFreePoly3*
4,1,24,1.812500,0.558253,1.858253,0.512500,1.875000,0.450000,1.860584,0.322050,1.818057,0.200517,1.749553,0.091493,1.658507,0.000447,1.549483,-0.068057,1.427950,-0.110584,1.300000,-0.125000,-1.300000,-0.125000,-1.300000,0.125000,1.300000,0.125000,1.309502,0.122454,1.401682,0.137054,1.493411,0.183792,1.566208,0.256589,1.612946,0.348318,1.627546,0.440498,1.625000,0.450000,
1.641747,0.512500,1.687500,0.558253,1.750000,0.575000,1.812500,0.558253,1.812500,0.558253,$1*%
%AMFreePoly4*
4,1,37,1.095671,1.230970,1.176777,1.176777,1.230970,1.095671,1.250000,1.000000,1.234611,0.804457,1.188821,0.613729,1.113759,0.432512,1.011272,0.265269,0.883885,0.116117,0.734733,-0.011271,0.567490,-0.113758,0.386273,-0.188820,0.195545,-0.234610,0.000002,-0.250000,-0.095669,-0.230970,-0.176775,-0.176777,-0.230968,-0.095671,-0.249998,0.000000,-0.230968,0.095671,-0.176775,0.176777,
-0.095669,0.230970,0.000002,0.250000,0.012204,0.247573,0.147027,0.260852,0.288403,0.303738,0.418695,0.373381,0.532897,0.467104,0.626620,0.581306,0.696263,0.711599,0.739148,0.852974,0.752427,0.987798,0.750000,1.000000,0.769030,1.095671,0.823223,1.176777,0.904329,1.230970,1.000000,1.250000,1.095671,1.230970,1.095671,1.230970,$1*%
%AMFreePoly5*
4,1,72,4.686563,7.086550,4.817878,7.046716,4.938899,6.982029,5.044975,6.894975,5.132029,6.788899,5.196716,6.667878,5.236550,6.536563,5.250000,6.400000,5.250000,1.600000,5.230970,1.504329,5.176777,1.423223,5.112500,1.380275,5.112500,0.250000,6.600000,0.250000,6.695671,0.230970,6.776777,0.176777,6.830970,0.095671,6.850000,0.000000,6.830970,-0.095671,6.776777,-0.176777,
6.695671,-0.230970,6.600000,-0.250000,0.000000,-0.250000,-0.095671,-0.230970,-0.176777,-0.176777,-0.230970,-0.095671,-0.250000,0.000000,-0.230970,0.095671,-0.176777,0.176777,-0.095671,0.230970,0.000000,0.250000,4.612500,0.250000,4.612500,1.600000,4.631530,1.695671,4.685723,1.776777,4.750000,1.819725,4.750000,6.400000,4.751388,6.406978,4.742582,6.462574,4.713820,6.519022,
4.669022,6.563820,4.612574,6.592582,4.556978,6.601388,4.550000,6.600000,1.550000,6.600000,1.543022,6.601388,1.487426,6.592582,1.430978,6.563820,1.386180,6.519022,1.357418,6.462574,1.348612,6.406978,1.350000,6.400000,1.350000,5.900000,1.330970,5.804329,1.276777,5.723223,1.195671,5.669030,1.100000,5.650000,1.004329,5.669030,0.923223,5.723223,0.869030,5.804329,
0.850000,5.900000,0.850000,6.400000,0.863450,6.536563,0.903284,6.667878,0.967971,6.788899,1.055025,6.894975,1.161101,6.982029,1.282122,7.046716,1.413437,7.086550,1.550000,7.100000,4.550000,7.100000,4.686563,7.086550,4.686563,7.086550,$1*%
G04 Aperture macros list end*
%TA.AperFunction,SMDPad,CuDef*%
%ADD10RoundRect,0.237500X0.237500X-0.287500X0.237500X0.287500X-0.237500X0.287500X-0.237500X-0.287500X0*%
%TD*%
%TA.AperFunction,SMDPad,CuDef*%
%ADD11RoundRect,0.200000X0.275000X-0.200000X0.275000X0.200000X-0.275000X0.200000X-0.275000X-0.200000X0*%
%TD*%
%TA.AperFunction,ComponentPad*%
%ADD12R,1.700000X1.700000*%
%TD*%
%TA.AperFunction,ComponentPad*%
%ADD13O,1.700000X1.700000*%
%TD*%
%TA.AperFunction,SMDPad,CuDef*%
%ADD14RoundRect,0.062500X0.287500X0.062500X-0.287500X0.062500X-0.287500X-0.062500X0.287500X-0.062500X0*%
%TD*%
%TA.AperFunction,SMDPad,CuDef*%
%ADD15RoundRect,0.062500X0.062500X0.287500X-0.062500X0.287500X-0.062500X-0.287500X0.062500X-0.287500X0*%
%TD*%
%TA.AperFunction,SMDPad,CuDef*%
%ADD16FreePoly0,180.000000*%
%TD*%
%TA.AperFunction,ComponentPad*%
%ADD17C,0.350000*%
%TD*%
%TA.AperFunction,SMDPad,CuDef*%
%ADD18R,0.600000X1.140000*%
%TD*%
%TA.AperFunction,SMDPad,CuDef*%
%ADD19RoundRect,0.075000X-0.075000X-0.495000X0.075000X-0.495000X0.075000X0.495000X-0.075000X0.495000X0*%
%TD*%
%TA.AperFunction,ComponentPad*%
%ADD20C,1.500000*%
%TD*%
%TA.AperFunction,SMDPad,CuDef*%
%ADD21FreePoly1,0.000000*%
%TD*%
%TA.AperFunction,ComponentPad*%
%ADD22C,1.250000*%
%TD*%
%TA.AperFunction,ComponentPad*%
%ADD23C,0.600000*%
%TD*%
%TA.AperFunction,SMDPad,CuDef*%
%ADD24R,5.000000X5.490000*%
%TD*%
%TA.AperFunction,SMDPad,CuDef*%
%ADD25RoundRect,0.200000X-0.275000X0.200000X-0.275000X-0.200000X0.275000X-0.200000X0.275000X0.200000X0*%
%TD*%
%TA.AperFunction,SMDPad,CuDef*%
%ADD26RoundRect,0.200000X-0.200000X-0.275000X0.200000X-0.275000X0.200000X0.275000X-0.200000X0.275000X0*%
%TD*%
%TA.AperFunction,SMDPad,CuDef*%
%ADD27R,0.650000X0.400000*%
%TD*%
%TA.AperFunction,SMDPad,CuDef*%
%ADD28RoundRect,0.225000X0.225000X0.250000X-0.225000X0.250000X-0.225000X-0.250000X0.225000X-0.250000X0*%
%TD*%
%TA.AperFunction,SMDPad,CuDef*%
%ADD29R,0.450000X0.700000*%
%TD*%
%TA.AperFunction,SMDPad,CuDef*%
%ADD30RoundRect,0.200000X0.200000X0.275000X-0.200000X0.275000X-0.200000X-0.275000X0.200000X-0.275000X0*%
%TD*%
%TA.AperFunction,SMDPad,CuDef*%
%ADD31R,0.500000X2.000000*%
%TD*%
%TA.AperFunction,SMDPad,CuDef*%
%ADD32RoundRect,0.249375X-0.463125X-0.625625X0.463125X-0.625625X0.463125X0.625625X-0.463125X0.625625X0*%
%TD*%
%TA.AperFunction,SMDPad,CuDef*%
%ADD33RoundRect,0.225000X0.250000X-0.225000X0.250000X0.225000X-0.250000X0.225000X-0.250000X-0.225000X0*%
%TD*%
%TA.AperFunction,SMDPad,CuDef*%
%ADD34R,0.600000X1.100000*%
%TD*%
%TA.AperFunction,SMDPad,CuDef*%
%ADD35R,1.425000X3.700000*%
%TD*%
%TA.AperFunction,SMDPad,CuDef*%
%ADD36FreePoly2,0.000000*%
%TD*%
%TA.AperFunction,SMDPad,CuDef*%
%ADD37FreePoly3,0.000000*%
%TD*%
%TA.AperFunction,SMDPad,CuDef*%
%ADD38R,2.000000X0.500000*%
%TD*%
%TA.AperFunction,SMDPad,CuDef*%
%ADD39RoundRect,0.250000X-0.475000X0.250000X-0.475000X-0.250000X0.475000X-0.250000X0.475000X0.250000X0*%
%TD*%
%TA.AperFunction,SMDPad,CuDef*%
%ADD40FreePoly4,0.000000*%
%TD*%
%TA.AperFunction,SMDPad,CuDef*%
%ADD41FreePoly5,0.000000*%
%TD*%
%TA.AperFunction,SMDPad,CuDef*%
%ADD42R,0.500000X4.000000*%
%TD*%
%TA.AperFunction,ComponentPad*%
%ADD43R,1.000000X1.000000*%
%TD*%
%TA.AperFunction,ComponentPad*%
%ADD44O,1.000000X1.000000*%
%TD*%
%TA.AperFunction,ViaPad*%
%ADD45C,0.800000*%
%TD*%
%TA.AperFunction,Conductor*%
%ADD46C,0.250000*%
%TD*%
G04 APERTURE END LIST*
D10*
%TO.P,D3,1,K*%
%TO.N,Net-(D3-Pad1)*%
X171000000Y-81875000D03*
%TO.P,D3,2,A*%
%TO.N,Net-(D3-Pad2)*%
X171000000Y-80125000D03*
%TD*%
D11*
%TO.P,R3,1*%
%TO.N,GND*%
X183300000Y-78925000D03*
%TO.P,R3,2*%
%TO.N,Net-(J3-PadB5)*%
X183300000Y-77275000D03*
%TD*%
D12*
%TO.P,J1,1,Pin_1*%
%TO.N,GND*%
X182200000Y-56100000D03*
D13*
%TO.P,J1,2,Pin_2*%
%TO.N,GPIO0*%
X179660000Y-56100000D03*
%TO.P,J1,3,Pin_3*%
%TO.N,Net-(J1-Pad3)*%
X177120000Y-56100000D03*
%TO.P,J1,4,Pin_4*%
%TO.N,RXD*%
X174580000Y-56100000D03*
%TO.P,J1,5,Pin_5*%
%TO.N,TXD*%
X172040000Y-56100000D03*
%TD*%
D14*
%TO.P,U1,1,RXD*%
%TO.N,TXD*%
X182600000Y-63500000D03*
%TO.P,U1,2,~{RI}*%
%TO.N,GND*%
X182600000Y-63000000D03*
%TO.P,U1,3,GND*%
X182600000Y-62500000D03*
%TO.P,U1,4,~{DSR}*%
X182600000Y-62000000D03*
%TO.P,U1,5,~{DCD}*%
X182600000Y-61500000D03*
D15*
%TO.P,U1,6,~{CTS}*%
X181700000Y-60600000D03*
%TO.P,U1,7,CBUS2*%
%TO.N,unconnected-(U1-Pad7)*%
X181200000Y-60600000D03*
%TO.P,U1,8,USBDP*%
%TO.N,D+*%
X180700000Y-60600000D03*
%TO.P,U1,9,USBDM*%
%TO.N,D-*%
X180200000Y-60600000D03*
%TO.P,U1,10,3V3OUT*%
%TO.N,Net-(C1-Pad1)*%
X179700000Y-60600000D03*
D14*
%TO.P,U1,11,~{RESET}*%
X178800000Y-61500000D03*
%TO.P,U1,12,VCC*%
%TO.N,VBUS*%
X178800000Y-62000000D03*
%TO.P,U1,13,GND*%
%TO.N,GND*%
X178800000Y-62500000D03*
%TO.P,U1,14,CBUS1*%
%TO.N,unconnected-(U1-Pad14)*%
X178800000Y-63000000D03*
%TO.P,U1,15,CBUS0*%
%TO.N,Net-(D3-Pad1)*%
X178800000Y-63500000D03*
D15*
%TO.P,U1,16,CBUS3*%
%TO.N,unconnected-(U1-Pad16)*%
X179700000Y-64400000D03*
%TO.P,U1,17,TXD*%
%TO.N,RXD*%
X180200000Y-64400000D03*
%TO.P,U1,18,~{DTR}*%
%TO.N,GPIO0*%
X180700000Y-64400000D03*
%TO.P,U1,19,~{RTS}*%
%TO.N,RST*%
X181200000Y-64400000D03*
%TO.P,U1,20,VCCIO*%
%TO.N,Net-(C1-Pad1)*%
X181700000Y-64400000D03*
D16*
%TO.P,U1,21,GND*%
%TO.N,GND*%
X180700000Y-62500000D03*
D17*
X180700000Y-62500000D03*
%TD*%
D18*
%TO.P,J3,A1,GND*%
%TO.N,GND*%
X173800000Y-76040000D03*
%TO.P,J3,A4,VBUS*%
%TO.N,VBUS*%
X174600000Y-76040000D03*
D19*
%TO.P,J3,A5,CC1*%
%TO.N,Net-(J3-PadA5)*%
X175750000Y-76040000D03*
%TO.P,J3,A6,D+*%
%TO.N,Net-(J3-PadA6)*%
X176750000Y-76040000D03*
%TO.P,J3,A7,D-*%
%TO.N,Net-(J3-PadA7)*%
X177250000Y-76040000D03*
%TO.P,J3,A8,SBU1*%
%TO.N,unconnected-(J3-PadA8)*%
X178250000Y-76040000D03*
D18*
%TO.P,J3,A9,VBUS*%
%TO.N,VBUS*%
X179400000Y-76040000D03*
%TO.P,J3,A12,GND*%
%TO.N,GND*%
X180200000Y-76040000D03*
%TO.P,J3,B1,GND*%
X180200000Y-76040000D03*
%TO.P,J3,B4,VBUS*%
%TO.N,VBUS*%
X179400000Y-76040000D03*
D19*
%TO.P,J3,B5,CC2*%
%TO.N,Net-(J3-PadB5)*%
X178750000Y-76040000D03*
%TO.P,J3,B6,D+*%
%TO.N,Net-(J3-PadA6)*%
X177750000Y-76040000D03*
%TO.P,J3,B7,D-*%
%TO.N,Net-(J3-PadA7)*%
X176250000Y-76040000D03*
%TO.P,J3,B8,SBU2*%
%TO.N,unconnected-(J3-PadB8)*%
X175250000Y-76040000D03*
D18*
%TO.P,J3,B9,VBUS*%
%TO.N,VBUS*%
X174600000Y-76040000D03*
%TO.P,J3,B12,GND*%
%TO.N,GND*%
X173800000Y-76040000D03*
D20*
%TO.P,J3,S1,SHIELD*%
X181320000Y-76620000D03*
D21*
X177000000Y-80155000D03*
D22*
X181320000Y-80790000D03*
X172680000Y-80790000D03*
D20*
X172680000Y-76620000D03*
D23*
X179890000Y-77110000D03*
D24*
X177000000Y-80155000D03*
D23*
X174110000Y-77110000D03*
%TD*%
D25*
%TO.P,R6,1*%
%TO.N,+3V3*%
X171000000Y-77175000D03*
%TO.P,R6,2*%
%TO.N,Net-(D3-Pad2)*%
X171000000Y-78825000D03*
%TD*%
%TO.P,R2,1*%
%TO.N,Net-(J3-PadA5)*%
X183300000Y-80175000D03*
%TO.P,R2,2*%
%TO.N,GND*%
X183300000Y-81825000D03*
%TD*%
D26*
%TO.P,R4,1*%
%TO.N,Net-(J3-PadA7)*%
X180575000Y-73000000D03*
%TO.P,R4,2*%
%TO.N,D-*%
X182225000Y-73000000D03*
%TD*%
%TO.P,R5,1*%
%TO.N,Net-(J3-PadA6)*%
X180575000Y-74320000D03*
%TO.P,R5,2*%
%TO.N,D+*%
X182225000Y-74320000D03*
%TD*%
D27*
%TO.P,D1,1,A1*%
%TO.N,GND*%
X180400000Y-69750000D03*
%TO.P,D1,2,K2*%
%TO.N,+3V3*%
X180400000Y-70400000D03*
%TO.P,D1,3,K1A2*%
%TO.N,RST*%
X180400000Y-71050000D03*
%TO.P,D1,4,A3*%
%TO.N,GND*%
X182300000Y-71050000D03*
%TO.P,D1,5,K4*%
%TO.N,+3V3*%
X182300000Y-70400000D03*
%TO.P,D1,6,K3A4*%
%TO.N,TXD*%
X182300000Y-69750000D03*
%TD*%
%TO.P,D2,1,A1*%
%TO.N,GND*%
X180350000Y-66750000D03*
%TO.P,D2,2,K2*%
%TO.N,+3V3*%
X180350000Y-67400000D03*
%TO.P,D2,3,K1A2*%
%TO.N,RXD*%
X180350000Y-68050000D03*
%TO.P,D2,4,A3*%
%TO.N,GND*%
X182250000Y-68050000D03*
%TO.P,D2,5,K4*%
%TO.N,+3V3*%
X182250000Y-67400000D03*
%TO.P,D2,6,K3A4*%
%TO.N,GPIO0*%
X182250000Y-66750000D03*
%TD*%
D28*
%TO.P,C1,1*%
%TO.N,Net-(C1-Pad1)*%
X177565000Y-61200000D03*
%TO.P,C1,2*%
%TO.N,GND*%
X176015000Y-61200000D03*
%TD*%
D29*
%TO.P,Q2,1,G*%
%TO.N,RST*%
X170750000Y-60800000D03*
%TO.P,Q2,2,S*%
%TO.N,+3V3*%
X172050000Y-60800000D03*
%TO.P,Q2,3,D*%
%TO.N,Net-(J1-Pad3)*%
X171400000Y-58800000D03*
%TD*%
D30*
%TO.P,R7,1*%
%TO.N,+3V3*%
X177175000Y-65450000D03*
%TO.P,R7,2*%
%TO.N,Net-(R7-Pad2)*%
X175525000Y-65450000D03*
%TD*%
D25*
%TO.P,R8,1*%
%TO.N,GND*%
X171700000Y-64475000D03*
%TO.P,R8,2*%
%TO.N,Net-(R7-Pad2)*%
X171700000Y-66125000D03*
%TD*%
D29*
%TO.P,Q1,1,G*%
%TO.N,RST*%
X173250000Y-60800000D03*
%TO.P,Q1,2,S*%
%TO.N,GND*%
X174550000Y-60800000D03*
%TO.P,Q1,3,D*%
%TO.N,Net-(J2-Pad3)*%
X173900000Y-58800000D03*
%TD*%
D31*
%TO.P,U2,*%
%TO.N,*%
X173730000Y-71050000D03*
D32*
X173577500Y-71920000D03*
D33*
X170680000Y-69775000D03*
D34*
X173730000Y-67400000D03*
D35*
X175180000Y-68800000D03*
D34*
X173730000Y-70100000D03*
D36*
X172305000Y-69200000D03*
D37*
X171980000Y-68300000D03*
D33*
X170680000Y-68225000D03*
D38*
X174680000Y-70100000D03*
D34*
%TO.P,U2,1,SHDN*%
%TO.N,VBUS*%
X171830000Y-70100000D03*
D39*
%TO.P,U2,2,VIN*%
X171930000Y-71350000D03*
D34*
X172780000Y-70100000D03*
D40*
X171720000Y-71300000D03*
D32*
%TO.P,U2,3,GND*%
%TO.N,GND*%
X176542500Y-71920000D03*
D34*
X172780000Y-67400000D03*
D39*
X171930000Y-73250000D03*
D41*
X171680000Y-73250000D03*
D39*
X178180000Y-73250000D03*
D35*
%TO.P,U2,4,VOUT*%
%TO.N,+3V3*%
X178180000Y-68800000D03*
D39*
X178180000Y-71350000D03*
D42*
X178180000Y-69550000D03*
D34*
%TO.P,U2,5,FB*%
%TO.N,Net-(R7-Pad2)*%
X171830000Y-67400000D03*
%TD*%
D43*
%TO.P,J2,1,Pin_1*%
%TO.N,GND*%
X182600000Y-58600000D03*
D44*
%TO.P,J2,2,Pin_2*%
%TO.N,GPIO0*%
X181330000Y-58600000D03*
%TO.P,J2,3,Pin_3*%
%TO.N,Net-(J2-Pad3)*%
X180060000Y-58600000D03*
%TO.P,J2,4,Pin_4*%
%TO.N,+3V3*%
X178790000Y-58600000D03*
%TO.P,J2,5,Pin_5*%
%TO.N,RXD*%
X177520000Y-58600000D03*
%TO.P,J2,6,Pin_6*%
%TO.N,TXD*%
X176250000Y-58600000D03*
%TD*%
D45*
%TO.N,+3V3*%
X170400000Y-75850000D03*
%TO.N,GND*%
X170650000Y-57200000D03*
X172990000Y-59440000D03*
X175192248Y-58230015D03*
%TO.N,RST*%
X174100000Y-62200000D03*
%TO.N,+3V3*%
X170603326Y-59330529D03*
%TO.N,RST*%
X181375498Y-69800000D03*
%TO.N,GND*%
X173710000Y-74310000D03*
X179633200Y-72289455D03*
X178400000Y-56900000D03*
X183300000Y-75600000D03*
X174051697Y-64577929D03*
X174950000Y-63100000D03*
X181300000Y-66600000D03*
X179600000Y-69500000D03*
%TO.N,VBUS*%
X172384900Y-74565696D03*
X172800000Y-64100001D03*
%TO.N,RXD*%
X177264422Y-63826967D03*
%TO.N,+3V3*%
X170449980Y-63340020D03*
%TO.N,GPIO0*%
X179750000Y-65800000D03*
%TO.N,D-*%
X182850002Y-72000000D03*
X178950592Y-60474008D03*
%TO.N,D+*%
X182775500Y-60184188D03*
X183250000Y-74000000D03*
%TO.N,Net-(C1-Pad1)*%
X176067108Y-62308294D03*
X182602434Y-64224500D03*
%TO.N,Net-(D3-Pad1)*%
X178787724Y-64350020D03*
X172650500Y-82014335D03*
%TO.N,Net-(J3-PadA6)*%
X176757146Y-74724500D03*
X181222137Y-74420989D03*
%TO.N,Net-(J3-PadA5)*%
X182000000Y-79200000D03*
X175000000Y-74200000D03*
%TD*%
D46*
%TO.N,Net-(J3-PadA6)*%
X181191267Y-74383276D02*
X181222137Y-74414146D01*
X181222137Y-74414146D02*
X181222137Y-74420989D01*
%TO.N,Net-(J3-PadB5)*%
X182975000Y-77275000D02*
G75*
G02*
X182400000Y-76700000I1J575001D01*
G01*
%TO.N,Net-(J3-PadA6)*%
X180575000Y-74320000D02*
X181067926Y-74320000D01*
%TO.N,Net-(J3-PadB5)*%
X182400000Y-76180411D02*
G75*
G03*
X181365078Y-75145489I-1034923J-1D01*
G01*
%TO.N,Net-(J3-PadA6)*%
X181191266Y-74383277D02*
G75*
G03*
X181067926Y-74320001I-126355J-94449D01*
G01*
%TO.N,Net-(J3-PadB5)*%
X178924511Y-75145489D02*
G75*
G03*
X178750000Y-75320000I0J-174511D01*
G01*
X178750000Y-76040000D02*
X178750000Y-75320000D01*
X178924511Y-75145489D02*
X181365078Y-75145489D01*
X182400000Y-76180411D02*
X182400000Y-76700000D01*
X182975000Y-77275000D02*
X183300000Y-77275000D01*
%TO.N,RXD*%
X179924520Y-65074520D02*
X178075480Y-65074520D01*
X180200000Y-64400000D02*
X180200000Y-64799040D01*
X179924520Y-65074520D02*
G75*
G03*
X180200000Y-64799040I1J275479D01*
G01*
%TO.N,VBUS*%
X178800000Y-62000000D02*
X178418671Y-62000000D01*
X177984162Y-62434509D02*
G75*
G02*
X178418671Y-62000000I434510J-1D01*
G01*
%TO.N,+3V3*%
X177491962Y-59458038D02*
X175058038Y-59458038D01*
X178243089Y-59146911D02*
G75*
G02*
X177491962Y-59458038I-751126J751124D01*
G01*
X178243089Y-59146911D02*
X178790000Y-58600000D01*
X174450000Y-58850000D02*
G75*
G03*
X175058038Y-59458038I608037J-1D01*
G01*
X174077457Y-58077457D02*
G75*
G02*
X174450000Y-58450000I1J-372542D01*
G01*
X172050000Y-58600000D02*
G75*
G02*
X172572543Y-58077457I522542J1D01*
G01*
X172050000Y-58600000D02*
X172050000Y-60800000D01*
X174450000Y-58850000D02*
X174450000Y-58450000D01*
X174077457Y-58077457D02*
X172572543Y-58077457D01*
%TO.N,VBUS*%
X171450000Y-74100000D02*
X171919204Y-74100000D01*
X172384900Y-74565696D02*
G75*
G03*
X171919204Y-74100000I-465695J1D01*
G01*
X170880480Y-72380480D02*
G75*
G02*
X171910960Y-71350000I1030481J-1D01*
G01*
X171450000Y-74100000D02*
G75*
G02*
X170880480Y-73530480I2J569522D01*
G01*
X171930000Y-71350000D02*
X171910960Y-71350000D01*
X170880480Y-72380480D02*
X170880480Y-73530480D01*
%TO.N,+3V3*%
X171000000Y-77175000D02*
X171000000Y-76450000D01*
X170400000Y-75850000D02*
G75*
G02*
X171000000Y-76450000I0J-600000D01*
G01*
X180400000Y-70400000D02*
X179800000Y-70400000D01*
X179800000Y-70400000D02*
X179030000Y-70400000D01*
X182300000Y-70400000D02*
X182100000Y-70400000D01*
X181170745Y-71575001D02*
X179964160Y-71575001D01*
X179750000Y-71360841D02*
G75*
G03*
X179964160Y-71575001I214160J0D01*
G01*
X179750000Y-71360841D02*
X179750000Y-70450000D01*
X181649999Y-70850001D02*
G75*
G02*
X182100000Y-70400000I450000J1D01*
G01*
X181170745Y-71575001D02*
G75*
G03*
X181649999Y-71095747I1J479253D01*
G01*
X179800000Y-70400000D02*
G75*
G03*
X179750000Y-70450000I1J-50001D01*
G01*
X181649999Y-70850001D02*
X181649999Y-71095747D01*
X178180000Y-69550000D02*
G75*
G03*
X179030000Y-70400000I849999J-1D01*
G01*
%TO.N,Net-(J3-PadA7)*%
X177812783Y-74150000D02*
X177486899Y-74475884D01*
%TO.N,GND*%
X182300000Y-71050000D02*
X182300000Y-71250024D01*
%TO.N,Net-(J3-PadA7)*%
X178950000Y-74150000D02*
X177812783Y-74150000D01*
X179933299Y-73166701D02*
X178950000Y-74150000D01*
%TO.N,GND*%
X179682923Y-72201186D02*
G75*
G02*
X179974988Y-72025012I294819J-158574D01*
G01*
X181525012Y-72025012D02*
G75*
G03*
X182300000Y-71250024I-1J774989D01*
G01*
%TO.N,Net-(J3-PadA7)*%
X180575000Y-73000000D02*
X179947255Y-73000000D01*
X179947255Y-73000000D02*
X179933299Y-73013956D01*
%TO.N,GND*%
X179682923Y-72239732D02*
X179633200Y-72289455D01*
X179682923Y-72201186D02*
X179682923Y-72239732D01*
X181525012Y-72025012D02*
X179974988Y-72025012D01*
%TO.N,Net-(J3-PadA7)*%
X179933299Y-73013956D02*
X179933299Y-73166701D01*
X177486899Y-74475884D02*
X177485829Y-74525130D01*
%TO.N,GND*%
X178025489Y-57274511D02*
G75*
G03*
X178400000Y-56900000I-1J374512D01*
G01*
X175192248Y-58210955D02*
X175192248Y-58230015D01*
X178025489Y-57274511D02*
X176824511Y-57274511D01*
X175726597Y-57676607D02*
G75*
G02*
X176824511Y-57274511I1102225J-1309640D01*
G01*
X175726597Y-57676606D02*
X175192248Y-58210955D01*
%TO.N,Net-(J3-PadA7)*%
X176350000Y-74000000D02*
X176960699Y-74000000D01*
X177485829Y-74525130D02*
G75*
G03*
X176960699Y-74000000I-525130J0D01*
G01*
%TO.N,Net-(J3-PadA6)*%
X176750000Y-76040000D02*
X176750000Y-74731646D01*
X176750000Y-74731646D02*
X176757146Y-74724500D01*
%TO.N,VBUS*%
X174425489Y-75145489D02*
G75*
G02*
X174600000Y-75320000I0J-174511D01*
G01*
X172384900Y-74565696D02*
G75*
G03*
X172964693Y-75145489I579792J-1D01*
G01*
X174425489Y-75145489D02*
X172964693Y-75145489D01*
%TO.N,+3V3*%
X170449980Y-63340020D02*
X170449980Y-64549980D01*
X171200000Y-65300000D02*
G75*
G02*
X170449980Y-64549980I1J750021D01*
G01*
%TO.N,VBUS*%
X176395406Y-63504594D02*
G75*
G02*
X176041852Y-63858148I-353555J1D01*
G01*
X173004380Y-63858148D02*
X173746878Y-63858148D01*
X176950000Y-62950000D02*
X177650000Y-62950000D01*
X176950000Y-62950000D02*
G75*
G03*
X176395406Y-63504594I1J-554595D01*
G01*
X173751598Y-63853428D02*
X174351796Y-63853428D01*
X172800000Y-64100001D02*
X172800719Y-64061809D01*
X172800719Y-64061809D02*
X173004380Y-63858148D01*
X177984162Y-62615838D02*
G75*
G02*
X177650000Y-62950000I-334163J1D01*
G01*
X174351796Y-63853428D02*
X174356516Y-63858148D01*
X173746878Y-63858148D02*
X173751598Y-63853428D01*
X177984162Y-62615838D02*
X177984162Y-62434509D01*
X174356516Y-63858148D02*
X176041852Y-63858148D01*
%TO.N,GND*%
X172049501Y-64824501D02*
X173806711Y-64824501D01*
X174028718Y-64691024D02*
G75*
G02*
X173806711Y-64824500I-224541J122105D01*
G01*
X174028719Y-64691024D02*
X174028719Y-64600907D01*
X172049501Y-64824501D02*
G75*
G02*
X171700000Y-64475000I-2J349499D01*
G01*
%TO.N,+3V3*%
X174042851Y-65307149D02*
X173752805Y-65307149D01*
%TO.N,GND*%
X174028719Y-64600907D02*
X174051697Y-64577929D01*
%TO.N,+3V3*%
X174830076Y-64830076D02*
X174630076Y-65030076D01*
X174572313Y-65087838D02*
G75*
G02*
X174042851Y-65307149I-529461J529458D01*
G01*
X174572313Y-65087838D02*
X174630076Y-65030076D01*
X176800000Y-64550000D02*
G75*
G02*
X177175000Y-64925000I0J-375000D01*
G01*
X174830076Y-64830076D02*
G75*
G02*
X175506239Y-64550000I676163J-676162D01*
G01*
X176800000Y-64550000D02*
X175506239Y-64550000D01*
X173745656Y-65300000D02*
X171200000Y-65300000D01*
X177175000Y-65450000D02*
X177175000Y-64925000D01*
X173752805Y-65307149D02*
X173745656Y-65300000D01*
X177175000Y-65450000D02*
X177175000Y-66075000D01*
X177550000Y-66450000D02*
G75*
G02*
X177175000Y-66075000I0J375000D01*
G01*
%TO.N,D+*%
X182491312Y-59900000D02*
X181200000Y-59900000D01*
X180700000Y-60600000D02*
X180700000Y-60400000D01*
X181200000Y-59900000D02*
G75*
G03*
X180700000Y-60400000I1J-500001D01*
G01*
X182491312Y-59900000D02*
G75*
G02*
X182775500Y-60184188I-1J-284189D01*
G01*
%TO.N,GND*%
X173550000Y-60000000D02*
G75*
G02*
X172990000Y-59440000I-1J559999D01*
G01*
X173550000Y-60000000D02*
X173850000Y-60000000D01*
%TO.N,D-*%
X179350000Y-59900000D02*
X179850000Y-59900000D01*
X180200000Y-60600000D02*
X180200000Y-60250000D01*
X179850000Y-59900000D02*
G75*
G02*
X180200000Y-60250000I-1J-350001D01*
G01*
X179350000Y-59900000D02*
G75*
G03*
X178950592Y-60299408I0J-399408D01*
G01*
X178950592Y-60474008D02*
X178950592Y-60299408D01*
%TO.N,Net-(J2-Pad3)*%
X175099022Y-59999022D02*
X177100978Y-59999022D01*
X177100978Y-59999022D02*
G75*
G03*
X179764065Y-58895935I-1J3766175D01*
G01*
X180060000Y-58600000D02*
X179764065Y-58895935D01*
%TO.N,GND*%
X173850000Y-60100000D02*
X173850000Y-60000000D01*
X173850000Y-60100000D02*
G75*
G03*
X174550000Y-60800000I699999J-1D01*
G01*
%TO.N,RST*%
X174100000Y-62200000D02*
G75*
G02*
X173250000Y-61350000I-1J849999D01*
G01*
X170750000Y-60800000D02*
X170750000Y-60900000D01*
X171400000Y-61550000D02*
G75*
G02*
X170750000Y-60900000I1J650001D01*
G01*
X173250000Y-60800000D02*
X173250000Y-61500000D01*
X171400000Y-61550000D02*
X173200000Y-61550000D01*
X173250000Y-61500000D02*
G75*
G02*
X173200000Y-61550000I-50001J1D01*
G01*
%TO.N,Net-(C1-Pad1)*%
X177565000Y-61200000D02*
X177565000Y-61935000D01*
X177191706Y-62308294D02*
G75*
G03*
X177565000Y-61935000I1J373293D01*
G01*
X176067108Y-62308294D02*
X177191706Y-62308294D01*
%TO.N,Net-(D3-Pad1)*%
X178800000Y-63500000D02*
X178800000Y-64337744D01*
X178800000Y-64337744D02*
X178787724Y-64350020D01*
%TO.N,RXD*%
X178000000Y-65150000D02*
X178000000Y-65650000D01*
X178000000Y-64150000D02*
X178000000Y-65150000D01*
X178000000Y-65150000D02*
G75*
G02*
X178075480Y-65074520I75481J-1D01*
G01*
X178000000Y-64150000D02*
G75*
G03*
X177676967Y-63826967I-323032J1D01*
G01*
X177264422Y-63826967D02*
X177676967Y-63826967D01*
X178750000Y-66400000D02*
G75*
G02*
X178000000Y-65650000I0J750000D01*
G01*
X179250000Y-66900000D02*
G75*
G03*
X178750000Y-66400000I-500001J-1D01*
G01*
X179900000Y-68050000D02*
G75*
G02*
X179250000Y-67400000I1J650001D01*
G01*
X179250000Y-66900000D02*
X179250000Y-67400000D01*
X179900000Y-68050000D02*
X180350000Y-68050000D01*
%TO.N,+3V3*%
X178180000Y-67080000D02*
G75*
G03*
X177550000Y-66450000I-630001J-1D01*
G01*
X178180000Y-67080000D02*
X178180000Y-68800000D01*
%TO.N,Net-(R7-Pad2)*%
X175225000Y-65800000D02*
G75*
G03*
X175525000Y-65500000I0J300000D01*
G01*
X171700000Y-66125000D02*
G75*
G02*
X172025000Y-65800000I324999J1D01*
G01*
X175225000Y-65800000D02*
X172025000Y-65800000D01*
%TO.N,GND*%
X175221739Y-62378261D02*
X175221739Y-62828261D01*
X174950000Y-63100000D02*
G75*
G03*
X175221739Y-62828261I-2J271741D01*
G01*
%TO.N,Net-(J2-Pad3)*%
X175099022Y-59999022D02*
G75*
G02*
X173900000Y-58800000I-1J1199021D01*
G01*
%TO.N,Net-(J1-Pad3)*%
X175619470Y-56721540D02*
G75*
G02*
X177120000Y-56100000I1500530J-1500530D01*
G01*
X174300000Y-57400000D02*
G75*
G03*
X175394273Y-56946737I0J1547534D01*
G01*
X171400000Y-58000000D02*
G75*
G02*
X172000000Y-57400000I600000J0D01*
G01*
X175619470Y-56721540D02*
X175394273Y-56946737D01*
X174300000Y-57400000D02*
X172000000Y-57400000D01*
X171400000Y-58000000D02*
X171400000Y-58800000D01*
%TO.N,GND*%
X178774511Y-57274511D02*
G75*
G02*
X178400000Y-56900000I1J374512D01*
G01*
X182200000Y-56850000D02*
G75*
G02*
X181775489Y-57274511I-424510J-1D01*
G01*
X178774511Y-57274511D02*
X181775489Y-57274511D01*
X182200000Y-56850000D02*
X182200000Y-56100000D01*
%TO.N,Net-(C1-Pad1)*%
X178800000Y-61500000D02*
G75*
G03*
X179700000Y-60600000I0J900000D01*
G01*
%TO.N,GND*%
X174550000Y-60800000D02*
X175615000Y-60800000D01*
X176015000Y-61200000D02*
G75*
G03*
X175615000Y-60800000I-399999J1D01*
G01*
X175221739Y-62378261D02*
G75*
G02*
X175493975Y-61721025I929472J0D01*
G01*
X176015000Y-61200000D02*
X175493975Y-61721025D01*
%TO.N,TXD*%
X183500000Y-58100000D02*
X183500000Y-63450000D01*
X183500000Y-63450000D02*
X183500000Y-68900000D01*
X183500000Y-63450000D02*
G75*
G02*
X183450000Y-63500000I-50001J1D01*
G01*
X182600000Y-63500000D02*
X183450000Y-63500000D01*
%TO.N,Net-(C1-Pad1)*%
X182426934Y-64400000D02*
G75*
G03*
X182602434Y-64224500I-1J175501D01*
G01*
X182426934Y-64400000D02*
X181700000Y-64400000D01*
%TO.N,RST*%
X181200000Y-64400000D02*
X181200000Y-64864296D01*
X181686193Y-65350489D02*
G75*
G02*
X181200000Y-64864296I1J486194D01*
G01*
%TO.N,GPIO0*%
X181876369Y-65800000D02*
X180700000Y-65800000D01*
X180700000Y-64400000D02*
X180700000Y-65800000D01*
X179700000Y-65800000D02*
X180700000Y-65800000D01*
X182250000Y-66750000D02*
X182250000Y-66173631D01*
X181876369Y-65800000D02*
G75*
G02*
X182250000Y-66173631I0J-373631D01*
G01*
%TO.N,RST*%
X181978403Y-69197095D02*
X182302905Y-69197095D01*
X182900001Y-68599999D02*
G75*
G02*
X182302905Y-69197095I-597095J-1D01*
G01*
X182386193Y-65350489D02*
G75*
G02*
X182900001Y-65864297I0J-513808D01*
G01*
X181978403Y-69197095D02*
G75*
G03*
X181375498Y-69800000I1J-602906D01*
G01*
X182900001Y-68599999D02*
X182900001Y-65864297D01*
X182386193Y-65350489D02*
X181686193Y-65350489D01*
%TO.N,+3V3*%
X181000000Y-67500000D02*
G75*
G02*
X181100000Y-67400000I99999J1D01*
G01*
X180775489Y-68574511D02*
G75*
G03*
X181000000Y-68350000I-1J224512D01*
G01*
X178180000Y-68800000D02*
G75*
G02*
X178405489Y-68574511I225488J1D01*
G01*
X181000000Y-67500000D02*
X181000000Y-68350000D01*
X180775489Y-68574511D02*
X178405489Y-68574511D01*
%TO.N,GND*%
X181219880Y-68880120D02*
X182050000Y-68050000D01*
X180802857Y-69052856D02*
G75*
G03*
X181219879Y-68880119I-1J589760D01*
G01*
X180400000Y-69750000D02*
X180400000Y-69455714D01*
X180802857Y-69052857D02*
G75*
G03*
X180400000Y-69455714I0J-402857D01*
G01*
%TO.N,RST*%
X180400000Y-71050000D02*
X180700000Y-71050000D01*
X181150000Y-70600000D02*
G75*
G02*
X180700000Y-71050000I-450000J0D01*
G01*
X181150000Y-70600000D02*
X181150000Y-70025498D01*
X181375498Y-69800000D02*
G75*
G03*
X181150000Y-70025498I1J-225499D01*
G01*
%TO.N,TXD*%
X182300000Y-69750000D02*
X182650000Y-69750000D01*
X183500000Y-68900000D02*
G75*
G02*
X182650000Y-69750000I-849999J-1D01*
G01*
X177074511Y-57775489D02*
G75*
G03*
X176250000Y-58600000I1J-824512D01*
G01*
X183500000Y-58100000D02*
G75*
G03*
X183175489Y-57775489I-324511J0D01*
G01*
X177074511Y-57775489D02*
X183175489Y-57775489D01*
%TO.N,+3V3*%
X170603326Y-59330529D02*
X170747308Y-59474511D01*
X170747308Y-59474511D02*
X171925489Y-59474511D01*
%TO.N,GND*%
X182600000Y-63000000D02*
X181200000Y-63000000D01*
X182050000Y-68050000D02*
X182250000Y-68050000D01*
X178800000Y-62500000D02*
X180700000Y-62500000D01*
X181200000Y-63000000D02*
X180700000Y-62500000D01*
X173400000Y-73250000D02*
X173710000Y-73560000D01*
X183300000Y-78925000D02*
X183300000Y-78705000D01*
X171930000Y-73250000D02*
X173400000Y-73250000D01*
X181320000Y-80790000D02*
X182128726Y-81598726D01*
X182600000Y-62500000D02*
X180700000Y-62500000D01*
X183300000Y-81825000D02*
X182675000Y-81825000D01*
X181700000Y-60600000D02*
X181700000Y-61500000D01*
X182600000Y-61500000D02*
X181700000Y-61500000D01*
X180700000Y-62500000D02*
X181700000Y-61500000D01*
X173710000Y-73560000D02*
X173710000Y-74310000D01*
X183300000Y-78705000D02*
X181325000Y-76730000D01*
X182600000Y-62000000D02*
X181200000Y-62000000D01*
X182675000Y-81824999D02*
G75*
G02*
X182128727Y-81598725I0J772548D01*
G01*
%TO.N,VBUS*%
X178925006Y-77000000D02*
X175074994Y-77000000D01*
X171860000Y-70140000D02*
X172810000Y-70140000D01*
X174600000Y-76525006D02*
X174600000Y-75320000D01*
X179400000Y-76040000D02*
X179400000Y-76525006D01*
X174600000Y-76525006D02*
G75*
G03*
X175074994Y-77000000I474996J2D01*
G01*
X178925006Y-77000000D02*
G75*
G03*
X179400000Y-76525006I-2J474996D01*
G01*
%TO.N,+3V3*%
X180350000Y-67400000D02*
X181100000Y-67400000D01*
X178210000Y-71390000D02*
X178300000Y-71300000D01*
X181100000Y-67400000D02*
X182250000Y-67400000D01*
%TO.N,D-*%
X182850002Y-72000000D02*
X182850002Y-72374998D01*
X182225000Y-73000000D02*
G75*
G03*
X182850002Y-72374998I-1J625003D01*
G01*
%TO.N,D+*%
X182930000Y-74320000D02*
X182225000Y-74320000D01*
X182930000Y-74320000D02*
G75*
G03*
X183250000Y-74000000I-1J320001D01*
G01*
%TO.N,Net-(C1-Pad1)*%
X177865000Y-61500000D02*
X177565000Y-61200000D01*
X178800000Y-61500000D02*
X177865000Y-61500000D01*
%TO.N,Net-(D3-Pad2)*%
X171000000Y-78825000D02*
X171000000Y-80125000D01*
%TO.N,Net-(D3-Pad1)*%
X171000000Y-81875000D02*
X172511165Y-81875000D01*
X172511165Y-81875000D02*
X172650500Y-82014335D01*
%TO.N,Net-(J3-PadA7)*%
X175850000Y-74500000D02*
X175850000Y-74567158D01*
X176250000Y-76040000D02*
X176250000Y-75465685D01*
X177485829Y-74525130D02*
X177485829Y-74868098D01*
X177250000Y-76040000D02*
X177250000Y-75437439D01*
X175850000Y-74500000D02*
G75*
G02*
X176350000Y-74000000I500001J-1D01*
G01*
X177378123Y-75128123D02*
G75*
G03*
X177250000Y-75437439I309318J-309317D01*
G01*
X176050000Y-75050000D02*
G75*
G02*
X176250000Y-75532842I-482839J-482841D01*
G01*
X177378123Y-75128123D02*
G75*
G03*
X177485829Y-74868098I-260028J260027D01*
G01*
X176050000Y-75050000D02*
G75*
G02*
X175850000Y-74567158I482839J482841D01*
G01*
%TO.N,Net-(J3-PadA6)*%
X180256065Y-74638935D02*
X178211065Y-74638935D01*
X180575000Y-74320000D02*
X180256065Y-74638935D01*
X177750000Y-76040000D02*
X177750000Y-75482784D01*
X178020670Y-74829330D02*
G75*
G02*
X178211065Y-74638935I190394J1D01*
G01*
X177814230Y-75327720D02*
G75*
G03*
X177750000Y-75482784I155065J-155065D01*
G01*
X177814230Y-75327720D02*
G75*
G03*
X178020670Y-74829330I-498388J498389D01*
G01*
%TO.N,Net-(J3-PadA5)*%
X175316074Y-74963070D02*
X175750000Y-75396996D01*
X175750000Y-75396996D02*
X175750000Y-76040000D01*
X182554809Y-79429810D02*
X183300000Y-80175000D01*
X175000001Y-74200000D02*
G75*
G03*
X175316075Y-74963069I1079141J-1D01*
G01*
X182554809Y-79429810D02*
G75*
G03*
X182000000Y-79200000I-554810J-554809D01*
G01*
%TO.N,Net-(R7-Pad2)*%
X171830000Y-67400000D02*
X171830000Y-66255000D01*
%TD*%
%TA.AperFunction,Conductor*%
%TO.N,GND*%
G36*
X170462512Y-73539575D02*
G01*
X170500896Y-73599301D01*
X170505521Y-73623817D01*
X170511828Y-73695906D01*
X170513251Y-73701216D01*
X170513251Y-73701217D01*
X170530736Y-73766469D01*
X170554807Y-73856304D01*
X170557129Y-73861283D01*
X170557131Y-73861289D01*
X170602636Y-73958873D01*
X170624986Y-74006802D01*
X170720232Y-74142828D01*
X170837652Y-74260248D01*
X170973678Y-74355494D01*
X170978656Y-74357815D01*
X170978659Y-74357817D01*
X171119191Y-74423349D01*
X171119197Y-74423351D01*
X171124176Y-74425673D01*
X171284574Y-74468652D01*
X171366193Y-74475793D01*
X171370814Y-74476197D01*
X171379583Y-74477519D01*
X171383851Y-74479018D01*
X171389416Y-74479500D01*
X171403060Y-74479500D01*
X171414043Y-74479980D01*
X171430031Y-74481379D01*
X171438745Y-74482448D01*
X171449999Y-74484231D01*
X171459792Y-74482680D01*
X171459793Y-74482680D01*
X171470076Y-74481051D01*
X171489787Y-74479500D01*
X171604020Y-74479500D01*
X171672141Y-74499502D01*
X171718634Y-74553158D01*
X171729259Y-74591673D01*
X171741529Y-74702804D01*
X171743013Y-74716249D01*
X171745623Y-74723380D01*
X171745623Y-74723382D01*
X171780137Y-74817695D01*
X171797453Y-74865015D01*
X171801689Y-74871318D01*
X171801689Y-74871319D01*
X171829321Y-74912439D01*
X171885808Y-74996501D01*
X171891427Y-75001614D01*
X171891428Y-75001615D01*
X171965872Y-75069353D01*
X172002976Y-75103115D01*
X172142193Y-75178704D01*
X172216108Y-75198095D01*
X172273228Y-75230876D01*
X172276079Y-75233727D01*
X172310105Y-75296039D01*
X172305040Y-75366854D01*
X172262493Y-75423690D01*
X172240234Y-75437017D01*
X172053583Y-75524054D01*
X172044093Y-75529534D01*
X172002851Y-75558411D01*
X171994477Y-75568887D01*
X172001545Y-75582334D01*
X172667189Y-76247979D01*
X172681132Y-76255592D01*
X172682966Y-76255461D01*
X172689579Y-76251210D01*
X172939192Y-76001597D01*
X172952000Y-75978141D01*
X172952000Y-75912000D01*
X172972002Y-75843879D01*
X173025658Y-75797386D01*
X173078000Y-75786000D01*
X173136674Y-75786000D01*
X173162319Y-75778470D01*
X173329124Y-75611665D01*
X173391436Y-75577639D01*
X173462251Y-75582704D01*
X173507314Y-75611665D01*
X173533190Y-75637541D01*
X173543276Y-75643048D01*
X173553623Y-75615306D01*
X173556126Y-75616240D01*
X173568476Y-75579131D01*
X173623756Y-75534581D01*
X173671977Y-75524989D01*
X173919500Y-75524989D01*
X173987621Y-75544991D01*
X174034114Y-75598647D01*
X174045500Y-75650989D01*
X174045501Y-76034566D01*
X174045501Y-76168000D01*
X174025499Y-76236121D01*
X173971844Y-76282614D01*
X173919501Y-76294000D01*
X173383326Y-76294000D01*
X173357681Y-76301530D01*
X173052021Y-76607189D01*
X173044408Y-76621132D01*
X173044539Y-76622966D01*
X173048790Y-76629580D01*
X173718391Y-77299180D01*
X173730161Y-77305607D01*
X173742176Y-77296311D01*
X173770466Y-77255907D01*
X173775946Y-77246417D01*
X173801904Y-77190749D01*
X173848821Y-77137464D01*
X173916099Y-77117999D01*
X174144669Y-77117999D01*
X174151490Y-77117629D01*
X174202352Y-77112105D01*
X174217607Y-77108478D01*
X174309693Y-77073957D01*
X174380500Y-77068774D01*
X174442869Y-77102695D01*
X174451321Y-77112005D01*
X174467852Y-77132148D01*
X174597965Y-77238929D01*
X174603423Y-77241847D01*
X174603424Y-77241847D01*
X174740952Y-77315358D01*
X174740955Y-77315359D01*
X174746410Y-77318275D01*
X174907483Y-77367136D01*
X174975796Y-77373865D01*
X174994144Y-77375672D01*
X175003468Y-77377130D01*
X175008845Y-77379018D01*
X175014410Y-77379500D01*
X175026822Y-77379500D01*
X175039170Y-77380107D01*
X175052924Y-77381462D01*
X175061344Y-77382291D01*
X175064376Y-77382680D01*
X175065199Y-77382680D01*
X175074992Y-77384231D01*
X175095070Y-77381051D01*
X175114780Y-77379500D01*
X178885220Y-77379500D01*
X178904930Y-77381051D01*
X178925008Y-77384231D01*
X178934801Y-77382680D01*
X178935625Y-77382680D01*
X178938658Y-77382291D01*
X179013354Y-77374933D01*
X179092517Y-77367136D01*
X179253590Y-77318275D01*
X179259045Y-77315359D01*
X179259048Y-77315358D01*
X179396576Y-77241847D01*
X179396577Y-77241847D01*
X179402035Y-77238929D01*
X179532148Y-77132148D01*
X179548679Y-77112005D01*
X179607356Y-77072036D01*
X179678327Y-77070136D01*
X179690307Y-77073957D01*
X179782391Y-77108478D01*
X179797649Y-77112105D01*
X179848514Y-77117631D01*
X179855328Y-77118000D01*
X180083901Y-77118000D01*
X180152022Y-77138002D01*
X180198095Y-77190749D01*
X180224052Y-77246412D01*
X180229534Y-77255907D01*
X180258411Y-77297149D01*
X180268887Y-77305523D01*
X180282334Y-77298455D01*
X180947979Y-76632811D01*
X180955592Y-76618868D01*
X180955461Y-76617034D01*
X180951210Y-76610421D01*
X180647597Y-76306808D01*
X180624141Y-76294000D01*
X180080500Y-76294000D01*
X180012379Y-76273998D01*
X179965886Y-76220342D01*
X179954500Y-76168000D01*
X179954499Y-75650989D01*
X179974501Y-75582868D01*
X180028156Y-75536375D01*
X180080499Y-75524989D01*
X180328188Y-75524989D01*
X180396309Y-75544991D01*
X180442802Y-75598647D01*
X180449084Y-75615492D01*
X180457237Y-75643260D01*
X180464330Y-75640021D01*
X180492686Y-75611665D01*
X180554998Y-75577639D01*
X180625813Y-75582704D01*
X180670876Y-75611665D01*
X180832399Y-75773188D01*
X180855861Y-75786000D01*
X180922000Y-75786000D01*
X180990121Y-75806002D01*
X181036614Y-75859658D01*
X181048000Y-75912000D01*
X181048000Y-75970674D01*
X181055530Y-75996319D01*
X181320000Y-76260790D01*
X182048662Y-76989451D01*
X182073401Y-77028282D01*
X182074638Y-77027705D01*
X182142896Y-77174086D01*
X182142899Y-77174091D01*
X182145222Y-77179073D01*
X182148378Y-77183580D01*
X182148379Y-77183582D01*
X182229322Y-77299180D01*
X182241018Y-77315884D01*
X182359116Y-77433982D01*
X182363624Y-77437139D01*
X182363627Y-77437141D01*
X182397883Y-77461127D01*
X182495927Y-77529778D01*
X182500913Y-77532103D01*
X182527474Y-77544489D01*
X182580759Y-77591406D01*
X182593105Y-77616934D01*
X182618791Y-77690076D01*
X182699990Y-77800010D01*
X182707561Y-77805602D01*
X182771208Y-77852613D01*
X182814119Y-77909174D01*
X182819638Y-77979956D01*
X182786014Y-78042486D01*
X182744791Y-78067628D01*
X182745677Y-78069591D01*
X182725012Y-78078921D01*
X182591426Y-78159824D01*
X182579557Y-78169131D01*
X182469131Y-78279557D01*
X182459824Y-78291426D01*
X182378921Y-78425012D01*
X182372715Y-78438757D01*
X182355993Y-78492119D01*
X182316536Y-78551141D01*
X182251433Y-78579461D01*
X182205064Y-78576644D01*
X182090004Y-78547743D01*
X182090000Y-78547743D01*
X182082633Y-78545892D01*
X182075034Y-78545852D01*
X182075033Y-78545852D01*
X182009181Y-78545507D01*
X181924221Y-78545062D01*
X181916841Y-78546834D01*
X181916839Y-78546834D01*
X181777563Y-78580271D01*
X181777560Y-78580272D01*
X181770184Y-78582043D01*
X181629414Y-78654700D01*
X181510039Y-78758838D01*
X181418950Y-78888444D01*
X181361406Y-79036037D01*
X181360414Y-79043570D01*
X181360414Y-79043571D01*
X181342113Y-79182585D01*
X181340729Y-79193096D01*
X181358113Y-79350553D01*
X181360723Y-79357684D01*
X181360723Y-79357686D01*
X181408087Y-79487115D01*
X181412713Y-79557961D01*
X181378303Y-79620061D01*
X181315781Y-79653700D01*
X181288112Y-79656405D01*
X181236507Y-79655730D01*
X181225027Y-79656633D01*
X181031199Y-79689938D01*
X181020079Y-79692918D01*
X180835557Y-79760992D01*
X180825179Y-79765942D01*
X180734146Y-79820101D01*
X180724547Y-79830436D01*
X180728033Y-79838823D01*
X181307188Y-80417978D01*
X181321132Y-80425592D01*
X181322965Y-80425461D01*
X181329580Y-80421210D01*
X181860056Y-79890734D01*
X181922368Y-79856708D01*
X181951130Y-79853845D01*
X182061318Y-79855576D01*
X182061321Y-79855576D01*
X182068916Y-79855695D01*
X182223332Y-79820329D01*
X182265293Y-79799225D01*
X182335138Y-79786488D01*
X182400781Y-79813533D01*
X182411001Y-79822696D01*
X182533595Y-79945290D01*
X182567621Y-80007602D01*
X182570500Y-80034384D01*
X182570501Y-80200656D01*
X182570501Y-80223522D01*
X182550499Y-80291643D01*
X182496844Y-80338136D01*
X182426570Y-80348241D01*
X182361989Y-80318748D01*
X182331495Y-80279252D01*
X182292734Y-80200652D01*
X182291577Y-80198765D01*
X182282732Y-80192126D01*
X182270312Y-80198898D01*
X181692022Y-80777188D01*
X181684408Y-80791132D01*
X181684539Y-80792965D01*
X181688790Y-80799580D01*
X182281415Y-81392205D01*
X182279136Y-81394484D01*
X182308769Y-81424118D01*
X182323651Y-81496029D01*
X182318087Y-81556585D01*
X182321475Y-81568124D01*
X182322865Y-81569329D01*
X182330548Y-81571000D01*
X183428000Y-81571000D01*
X183496121Y-81591002D01*
X183542614Y-81644658D01*
X183554000Y-81697000D01*
X183554000Y-81953000D01*
X183533998Y-82021121D01*
X183480342Y-82067614D01*
X183428000Y-82079000D01*
X182335116Y-82079000D01*
X182319877Y-82083475D01*
X182318672Y-82084865D01*
X182317709Y-82089294D01*
X182323132Y-82148315D01*
X182325743Y-82161351D01*
X182372715Y-82311243D01*
X182378921Y-82324988D01*
X182459824Y-82458574D01*
X182469131Y-82470443D01*
X182529593Y-82530905D01*
X182563619Y-82593217D01*
X182558554Y-82664032D01*
X182516007Y-82720868D01*
X182449487Y-82745679D01*
X182440498Y-82746000D01*
X173143197Y-82746000D01*
X173075076Y-82725998D01*
X173028583Y-82672342D01*
X173018479Y-82602068D01*
X173047973Y-82537488D01*
X173061366Y-82524189D01*
X173130036Y-82465539D01*
X173130036Y-82465538D01*
X173135814Y-82460604D01*
X173228255Y-82331959D01*
X173287342Y-82184976D01*
X173300959Y-82089294D01*
X173309081Y-82032226D01*
X173309081Y-82032223D01*
X173309662Y-82028142D01*
X173309807Y-82014335D01*
X173290776Y-81857068D01*
X173288091Y-81849963D01*
X173288090Y-81849958D01*
X173280683Y-81830357D01*
X173275149Y-81760353D01*
X173276904Y-81751851D01*
X173275929Y-81749319D01*
X180725041Y-81749319D01*
X180734923Y-81761809D01*
X180772259Y-81786756D01*
X180782371Y-81792247D01*
X180963081Y-81869885D01*
X180974014Y-81873437D01*
X181165844Y-81916845D01*
X181177253Y-81918347D01*
X181373783Y-81926068D01*
X181385265Y-81925466D01*
X181579905Y-81897245D01*
X181591101Y-81894557D01*
X181777343Y-81831336D01*
X181787840Y-81826662D01*
X181906401Y-81760266D01*
X181916264Y-81750189D01*
X181913309Y-81742519D01*
X181332812Y-81162022D01*
X181318868Y-81154408D01*
X181317035Y-81154539D01*
X181310420Y-81158790D01*
X180731237Y-81737973D01*
X180725041Y-81749319D01*
X173275929Y-81749319D01*
X173273309Y-81742519D01*
X173232220Y-81701430D01*
X173217475Y-81683702D01*
X173149355Y-81584586D01*
X173149354Y-81584584D01*
X173145053Y-81578327D01*
X173026775Y-81472946D01*
X173020068Y-81469395D01*
X173020064Y-81469392D01*
X172994551Y-81455884D01*
X172964414Y-81433624D01*
X172321922Y-80791132D01*
X173044408Y-80791132D01*
X173044539Y-80792965D01*
X173048790Y-80799580D01*
X173628603Y-81379393D01*
X173640983Y-81386153D01*
X173647563Y-81381227D01*
X173716662Y-81257840D01*
X173721336Y-81247343D01*
X173784557Y-81061101D01*
X173787245Y-81049905D01*
X173815762Y-80853224D01*
X173816392Y-80845843D01*
X173817757Y-80793704D01*
X173817514Y-80786305D01*
X173815647Y-80765980D01*
X180182914Y-80765980D01*
X180195777Y-80962233D01*
X180197577Y-80973601D01*
X180245991Y-81164228D01*
X180249829Y-81175066D01*
X180332173Y-81353685D01*
X180337922Y-81363642D01*
X180347850Y-81377690D01*
X180358439Y-81386078D01*
X180371740Y-81379050D01*
X180947978Y-80802812D01*
X180955592Y-80788868D01*
X180955461Y-80787035D01*
X180951210Y-80780420D01*
X180370031Y-80199241D01*
X180357651Y-80192481D01*
X180351685Y-80196947D01*
X180271452Y-80349445D01*
X180267047Y-80360079D01*
X180208724Y-80547910D01*
X180206332Y-80559164D01*
X180183215Y-80754479D01*
X180182914Y-80765980D01*
X173815647Y-80765980D01*
X173799330Y-80588397D01*
X173797233Y-80577083D01*
X173743846Y-80387789D01*
X173739724Y-80377050D01*
X173652736Y-80200656D01*
X173651577Y-80198765D01*
X173642732Y-80192126D01*
X173630312Y-80198898D01*
X173052022Y-80777188D01*
X173044408Y-80791132D01*
X172321922Y-80791132D01*
X171766405Y-80235615D01*
X171732379Y-80173303D01*
X171729500Y-80146520D01*
X171729500Y-79830436D01*
X172084547Y-79830436D01*
X172088033Y-79838823D01*
X172667188Y-80417978D01*
X172681132Y-80425592D01*
X172682965Y-80425461D01*
X172689580Y-80421210D01*
X173268407Y-79842383D01*
X173275167Y-79830003D01*
X173269137Y-79821948D01*
X173201459Y-79779246D01*
X173191211Y-79774025D01*
X173008531Y-79701143D01*
X172997504Y-79697876D01*
X172804605Y-79659506D01*
X172793159Y-79658303D01*
X172596507Y-79655730D01*
X172585027Y-79656633D01*
X172391199Y-79689938D01*
X172380079Y-79692918D01*
X172195557Y-79760992D01*
X172185179Y-79765942D01*
X172094146Y-79820101D01*
X172084547Y-79830436D01*
X171729500Y-79830436D01*
X171729500Y-79790930D01*
X171722964Y-79730764D01*
X171706037Y-79685613D01*
X171676644Y-79607205D01*
X171676643Y-79607202D01*
X171673493Y-79598801D01*
X171600098Y-79500870D01*
X171575251Y-79434364D01*
X171590304Y-79364982D01*
X171600973Y-79350722D01*
X171600010Y-79350010D01*
X171675613Y-79247652D01*
X171681209Y-79240076D01*
X171726493Y-79111127D01*
X171729500Y-79079315D01*
X171729499Y-78570686D01*
X171726493Y-78538873D01*
X171681209Y-78409924D01*
X171600010Y-78299990D01*
X171490076Y-78218791D01*
X171361127Y-78173507D01*
X171353485Y-78172785D01*
X171353482Y-78172784D01*
X171338579Y-78171376D01*
X171329315Y-78170500D01*
X171000223Y-78170500D01*
X170670686Y-78170501D01*
X170667738Y-78170780D01*
X170667729Y-78170780D01*
X170646522Y-78172784D01*
X170646520Y-78172784D01*
X170638873Y-78173507D01*
X170509924Y-78218791D01*
X170502350Y-78224386D01*
X170502345Y-78224388D01*
X170454859Y-78259462D01*
X170388181Y-78283845D01*
X170318905Y-78268308D01*
X170269027Y-78217785D01*
X170254000Y-78158111D01*
X170254000Y-77841889D01*
X170274002Y-77773768D01*
X170327658Y-77727275D01*
X170397932Y-77717171D01*
X170454859Y-77740538D01*
X170502345Y-77775612D01*
X170502350Y-77775614D01*
X170509924Y-77781209D01*
X170638873Y-77826493D01*
X170646515Y-77827215D01*
X170646518Y-77827216D01*
X170661421Y-77828624D01*
X170670685Y-77829500D01*
X170999777Y-77829500D01*
X171329314Y-77829499D01*
X171332262Y-77829220D01*
X171332271Y-77829220D01*
X171353478Y-77827216D01*
X171353480Y-77827216D01*
X171361127Y-77826493D01*
X171490076Y-77781209D01*
X171600010Y-77700010D01*
X171622057Y-77670161D01*
X171674882Y-77598643D01*
X171731444Y-77555732D01*
X171802225Y-77550213D01*
X171859216Y-77581096D01*
X171860185Y-77579941D01*
X171872796Y-77590524D01*
X172044088Y-77710464D01*
X172053584Y-77715947D01*
X172243113Y-77804326D01*
X172253405Y-77808072D01*
X172455401Y-77862196D01*
X172466196Y-77864099D01*
X172674525Y-77882326D01*
X172685475Y-77882326D01*
X172893804Y-77864099D01*
X172904599Y-77862196D01*
X173106595Y-77808072D01*
X173116887Y-77804326D01*
X173306416Y-77715947D01*
X173315912Y-77710464D01*
X173357148Y-77681590D01*
X173365523Y-77671113D01*
X173365023Y-77670161D01*
X180634393Y-77670161D01*
X180643687Y-77682175D01*
X180684088Y-77710464D01*
X180693584Y-77715947D01*
X180883113Y-77804326D01*
X180893405Y-77808072D01*
X181095401Y-77862196D01*
X181106196Y-77864099D01*
X181314525Y-77882326D01*
X181325475Y-77882326D01*
X181533804Y-77864099D01*
X181544599Y-77862196D01*
X181746595Y-77808072D01*
X181756887Y-77804326D01*
X181946416Y-77715947D01*
X181955912Y-77710464D01*
X181997148Y-77681590D01*
X182005523Y-77671112D01*
X181998457Y-77657668D01*
X181332811Y-76992021D01*
X181318868Y-76984408D01*
X181317034Y-76984539D01*
X181310420Y-76988790D01*
X180640820Y-77658391D01*
X180634393Y-77670161D01*
X173365023Y-77670161D01*
X173358454Y-77657665D01*
X172320790Y-76620000D01*
X171641611Y-75940822D01*
X171629839Y-75934394D01*
X171617824Y-75943690D01*
X171589534Y-75984093D01*
X171584054Y-75993583D01*
X171540186Y-76087658D01*
X171493268Y-76140943D01*
X171424991Y-76160404D01*
X171357031Y-76139862D01*
X171311796Y-76087657D01*
X171253841Y-75963370D01*
X171253837Y-75963364D01*
X171251513Y-75958379D01*
X171153207Y-75817984D01*
X171066942Y-75731719D01*
X171038171Y-75687162D01*
X170986964Y-75551649D01*
X170984280Y-75544546D01*
X170910378Y-75437017D01*
X170898855Y-75420251D01*
X170898854Y-75420249D01*
X170894553Y-75413992D01*
X170776275Y-75308611D01*
X170636274Y-75234484D01*
X170482633Y-75195892D01*
X170475034Y-75195852D01*
X170475033Y-75195852D01*
X170430192Y-75195617D01*
X170379339Y-75195351D01*
X170311325Y-75174993D01*
X170265114Y-75121094D01*
X170254000Y-75069353D01*
X170254000Y-73634799D01*
X170274002Y-73566678D01*
X170327658Y-73520185D01*
X170397932Y-73510081D01*
X170462512Y-73539575D01*
G37*
%TD.AperFunction*%
%TA.AperFunction,Conductor*%
G36*
X183698875Y-74589343D02*
G01*
X183739476Y-74647584D01*
X183746000Y-74687602D01*
X183746000Y-76494500D01*
X183725998Y-76562621D01*
X183672342Y-76609114D01*
X183620000Y-76620500D01*
X183129834Y-76620501D01*
X182970686Y-76620501D01*
X182967738Y-76620780D01*
X182967729Y-76620780D01*
X182955158Y-76621968D01*
X182938873Y-76623507D01*
X182932227Y-76625841D01*
X182861675Y-76620920D01*
X182804765Y-76578473D01*
X182779837Y-76511997D01*
X182779500Y-76502787D01*
X182779500Y-76220199D01*
X182781051Y-76200488D01*
X182782679Y-76190207D01*
X182784231Y-76180411D01*
X182783521Y-76175931D01*
X182766406Y-75958462D01*
X182755252Y-75912000D01*
X182727735Y-75797386D01*
X182714433Y-75741979D01*
X182691727Y-75687162D01*
X182631129Y-75540865D01*
X182631127Y-75540861D01*
X182629234Y-75536291D01*
X182512908Y-75346464D01*
X182432699Y-75252551D01*
X182403668Y-75187762D01*
X182414273Y-75117562D01*
X182461148Y-75064239D01*
X182501507Y-75047648D01*
X182503476Y-75047216D01*
X182511127Y-75046493D01*
X182640076Y-75001209D01*
X182750010Y-74920010D01*
X182831209Y-74810076D01*
X182839839Y-74785503D01*
X182881280Y-74727859D01*
X182939013Y-74702804D01*
X182948814Y-74701252D01*
X182956170Y-74700308D01*
X182982402Y-74697724D01*
X183067127Y-74689379D01*
X183079543Y-74685613D01*
X183166248Y-74659312D01*
X183204801Y-74653903D01*
X183311318Y-74655576D01*
X183311321Y-74655576D01*
X183318916Y-74655695D01*
X183473332Y-74620329D01*
X183563386Y-74575037D01*
X183633231Y-74562299D01*
X183698875Y-74589343D01*
G37*
%TD.AperFunction*%
%TA.AperFunction,Conductor*%
G36*
X174288789Y-74033731D02*
G01*
X174335282Y-74087387D01*
X174345590Y-74156174D01*
X174340729Y-74193096D01*
X174358113Y-74350553D01*
X174360723Y-74357684D01*
X174360723Y-74357686D01*
X174407032Y-74484231D01*
X174412553Y-74499319D01*
X174416788Y-74505622D01*
X174416792Y-74505629D01*
X174459855Y-74569713D01*
X174481248Y-74637410D01*
X174462644Y-74705926D01*
X174409951Y-74753507D01*
X174355274Y-74765989D01*
X173162723Y-74765989D01*
X173094602Y-74745987D01*
X173048109Y-74692331D01*
X173037980Y-74622237D01*
X173044062Y-74579503D01*
X173044207Y-74565696D01*
X173025176Y-74408429D01*
X172969180Y-74260242D01*
X172935403Y-74211096D01*
X172913303Y-74143627D01*
X172931189Y-74074920D01*
X172983380Y-74026789D01*
X173039243Y-74013729D01*
X174220668Y-74013729D01*
X174288789Y-74033731D01*
G37*
%TD.AperFunction*%
%TA.AperFunction,Conductor*%
G36*
X179312621Y-70799502D02*
G01*
X179359114Y-70853158D01*
X179370500Y-70905500D01*
X179370500Y-71321053D01*
X179368949Y-71340763D01*
X179365769Y-71360841D01*
X179367321Y-71370636D01*
X179368702Y-71379356D01*
X179369461Y-71384958D01*
X179381722Y-71493779D01*
X179425907Y-71620050D01*
X179429667Y-71626035D01*
X179429668Y-71626036D01*
X179493319Y-71727337D01*
X179497081Y-71733324D01*
X179591677Y-71827920D01*
X179597663Y-71831681D01*
X179597664Y-71831682D01*
X179690564Y-71890054D01*
X179704951Y-71899094D01*
X179831222Y-71943279D01*
X179870352Y-71947688D01*
X179882588Y-71950623D01*
X179882782Y-71949724D01*
X179890534Y-71951393D01*
X179898011Y-71954019D01*
X179903576Y-71954501D01*
X179923748Y-71954501D01*
X179937851Y-71955293D01*
X179940035Y-71955539D01*
X179945634Y-71956297D01*
X179964160Y-71959232D01*
X179973953Y-71957681D01*
X179973954Y-71957681D01*
X179984237Y-71956052D01*
X180003948Y-71954501D01*
X181130956Y-71954501D01*
X181150666Y-71956052D01*
X181170744Y-71959232D01*
X181180360Y-71957709D01*
X181180644Y-71957681D01*
X181181436Y-71957681D01*
X181184049Y-71957346D01*
X181339090Y-71942076D01*
X181500966Y-71892971D01*
X181506421Y-71890055D01*
X181506424Y-71890054D01*
X181644693Y-71816148D01*
X181644694Y-71816147D01*
X181650152Y-71813230D01*
X181713146Y-71761532D01*
X181778493Y-71733778D01*
X181837310Y-71740949D01*
X181857394Y-71748478D01*
X181872649Y-71752105D01*
X181923514Y-71757631D01*
X181930328Y-71758000D01*
X182078006Y-71758000D01*
X182146127Y-71778002D01*
X182192620Y-71831658D01*
X182202928Y-71900445D01*
X182191722Y-71985564D01*
X182191722Y-71985569D01*
X182190731Y-71993096D01*
X182196672Y-72046903D01*
X182205920Y-72130674D01*
X182193514Y-72200579D01*
X182145284Y-72252679D01*
X182080682Y-72270501D01*
X181970686Y-72270501D01*
X181967738Y-72270780D01*
X181967729Y-72270780D01*
X181946522Y-72272784D01*
X181946520Y-72272784D01*
X181938873Y-72273507D01*
X181809924Y-72318791D01*
X181699990Y-72399990D01*
X181618791Y-72509924D01*
X181573507Y-72638873D01*
X181570500Y-72670685D01*
X181570501Y-73329314D01*
X181570780Y-73332262D01*
X181570780Y-73332271D01*
X181572067Y-73345892D01*
X181573507Y-73361127D01*
X181618791Y-73490076D01*
X181689007Y-73585140D01*
X181713390Y-73651819D01*
X181697854Y-73721094D01*
X181689007Y-73734860D01*
X181651131Y-73786139D01*
X181594569Y-73829050D01*
X181523787Y-73834569D01*
X181490825Y-73822636D01*
X181458411Y-73805473D01*
X181304770Y-73766881D01*
X181297171Y-73766841D01*
X181297170Y-73766841D01*
X181257770Y-73766635D01*
X181226109Y-73766469D01*
X181158094Y-73746111D01*
X181111883Y-73692212D01*
X181102147Y-73621886D01*
X181125418Y-73565612D01*
X181175611Y-73497655D01*
X181175613Y-73497652D01*
X181181209Y-73490076D01*
X181226493Y-73361127D01*
X181229500Y-73329315D01*
X181229499Y-72670686D01*
X181228655Y-72661746D01*
X181227216Y-72646522D01*
X181227215Y-72646518D01*
X181226493Y-72638873D01*
X181181209Y-72509924D01*
X181100010Y-72399990D01*
X180990076Y-72318791D01*
X180861127Y-72273507D01*
X180853485Y-72272785D01*
X180853482Y-72272784D01*
X180838579Y-72271376D01*
X180829315Y-72270500D01*
X180575172Y-72270500D01*
X180320686Y-72270501D01*
X180317738Y-72270780D01*
X180317729Y-72270780D01*
X180296522Y-72272784D01*
X180296520Y-72272784D01*
X180288873Y-72273507D01*
X180159924Y-72318791D01*
X180049990Y-72399990D01*
X179968791Y-72509924D01*
X179963268Y-72525652D01*
X179956226Y-72545703D01*
X179914783Y-72603348D01*
X179860095Y-72625819D01*
X179860263Y-72626398D01*
X179854875Y-72627964D01*
X179852158Y-72629080D01*
X179850259Y-72629305D01*
X179850255Y-72629306D01*
X179839914Y-72630530D01*
X179831662Y-72634493D01*
X179822629Y-72635996D01*
X179813460Y-72640943D01*
X179813458Y-72640944D01*
X179777523Y-72660334D01*
X179772231Y-72663031D01*
X179726023Y-72685219D01*
X179721748Y-72688813D01*
X179719823Y-72690738D01*
X179717893Y-72692509D01*
X179717808Y-72692555D01*
X179717696Y-72692432D01*
X179717161Y-72692904D01*
X179711441Y-72695990D01*
X179704372Y-72703637D01*
X179704371Y-72703638D01*
X179700574Y-72707746D01*
X179690413Y-72716287D01*
X179690813Y-72716726D01*
X179683110Y-72723735D01*
X179674359Y-72729385D01*
X179667912Y-72737564D01*
X179667909Y-72737566D01*
X179653570Y-72755756D01*
X179649622Y-72760199D01*
X179649695Y-72760261D01*
X179646336Y-72764225D01*
X179642661Y-72767900D01*
X179639409Y-72772451D01*
X179634415Y-72778584D01*
X179632753Y-72781114D01*
X179625681Y-72788765D01*
X179625473Y-72789235D01*
X179621419Y-72792678D01*
X179623297Y-72794158D01*
X179601100Y-72822315D01*
X179543219Y-72863429D01*
X179472299Y-72866723D01*
X179410856Y-72831152D01*
X179382627Y-72784187D01*
X179348870Y-72683007D01*
X179348869Y-72683005D01*
X179346550Y-72676054D01*
X179253478Y-72525652D01*
X179128303Y-72400695D01*
X179122072Y-72396854D01*
X178983968Y-72311725D01*
X178983966Y-72311724D01*
X178977738Y-72307885D01*
X178852136Y-72266225D01*
X178824680Y-72257118D01*
X178766320Y-72216687D01*
X178739083Y-72151123D01*
X178751616Y-72081242D01*
X178799941Y-72029230D01*
X178822599Y-72018642D01*
X178836368Y-72013807D01*
X178868184Y-72002634D01*
X178875754Y-71997042D01*
X178875757Y-71997041D01*
X178969579Y-71927742D01*
X178977150Y-71922150D01*
X178994180Y-71899094D01*
X179052041Y-71820757D01*
X179052042Y-71820754D01*
X179057634Y-71813184D01*
X179102519Y-71685369D01*
X179105500Y-71653834D01*
X179105500Y-71046166D01*
X179102519Y-71014631D01*
X179078856Y-70947248D01*
X179075158Y-70876348D01*
X179110378Y-70814703D01*
X179173334Y-70781886D01*
X179197739Y-70779500D01*
X179244500Y-70779500D01*
X179312621Y-70799502D01*
G37*
%TD.AperFunction*%
%TA.AperFunction,Conductor*%
G36*
X183714630Y-69768241D02*
G01*
X183744586Y-69832608D01*
X183746000Y-69851434D01*
X183746000Y-71865898D01*
X183725998Y-71934019D01*
X183672342Y-71980512D01*
X183602068Y-71990616D01*
X183537488Y-71961122D01*
X183499104Y-71901396D01*
X183494913Y-71881035D01*
X183491190Y-71850273D01*
X183490278Y-71842733D01*
X183434282Y-71694546D01*
X183387197Y-71626036D01*
X183348857Y-71570251D01*
X183348856Y-71570249D01*
X183344555Y-71563992D01*
X183226277Y-71458611D01*
X183218891Y-71454700D01*
X183197118Y-71443172D01*
X183146274Y-71393619D01*
X183130814Y-71318209D01*
X183132631Y-71301483D01*
X183133000Y-71294672D01*
X183133000Y-71268115D01*
X183128525Y-71252876D01*
X183127135Y-71251671D01*
X183119452Y-71250000D01*
X182226000Y-71250000D01*
X182157879Y-71229998D01*
X182111386Y-71176342D01*
X182100000Y-71124000D01*
X182100000Y-70980500D01*
X182120002Y-70912379D01*
X182173658Y-70865886D01*
X182226000Y-70854500D01*
X182630859Y-70854499D01*
X182650066Y-70854499D01*
X182660513Y-70852421D01*
X182685093Y-70850000D01*
X183114884Y-70850000D01*
X183130123Y-70845525D01*
X183131328Y-70844135D01*
X183132999Y-70836452D01*
X183132999Y-70805331D01*
X183132629Y-70798510D01*
X183127105Y-70747648D01*
X183123479Y-70732396D01*
X183078324Y-70611946D01*
X183069786Y-70596351D01*
X182993285Y-70494276D01*
X182980728Y-70481719D01*
X182929935Y-70443652D01*
X182887420Y-70386792D01*
X182879500Y-70342826D01*
X182879499Y-70208670D01*
X182899501Y-70140549D01*
X182953156Y-70094056D01*
X182976084Y-70086151D01*
X182999719Y-70080476D01*
X183026297Y-70074096D01*
X183026300Y-70074095D01*
X183031111Y-70072940D01*
X183035678Y-70071048D01*
X183035685Y-70071046D01*
X183205333Y-70000776D01*
X183205337Y-70000774D01*
X183209907Y-69998881D01*
X183374917Y-69897763D01*
X183522077Y-69772077D01*
X183525290Y-69768315D01*
X183528793Y-69764812D01*
X183529874Y-69765893D01*
X183583635Y-69730796D01*
X183654630Y-69730286D01*
X183714630Y-69768241D01*
G37*
%TD.AperFunction*%
%TA.AperFunction,Conductor*%
G36*
X179713003Y-68974013D02*
G01*
X179759496Y-69027669D01*
X179769600Y-69097943D01*
X179740106Y-69162523D01*
X179720449Y-69180836D01*
X179719275Y-69181716D01*
X179706715Y-69194276D01*
X179630214Y-69296351D01*
X179621676Y-69311946D01*
X179576522Y-69432394D01*
X179572895Y-69447649D01*
X179567369Y-69498514D01*
X179567000Y-69505328D01*
X179567000Y-69531885D01*
X179571475Y-69547124D01*
X179572865Y-69548329D01*
X179580548Y-69550000D01*
X180474000Y-69550000D01*
X180542121Y-69570002D01*
X180588614Y-69623658D01*
X180600000Y-69676000D01*
X180600000Y-69819500D01*
X180579998Y-69887621D01*
X180526342Y-69934114D01*
X180474000Y-69945500D01*
X180065873Y-69945501D01*
X180049934Y-69945501D01*
X180040193Y-69947439D01*
X180039486Y-69947579D01*
X180014907Y-69950000D01*
X179585116Y-69950000D01*
X179569877Y-69954475D01*
X179550347Y-69977013D01*
X179490621Y-70015396D01*
X179455123Y-70020500D01*
X179273000Y-70020500D01*
X179204879Y-70000498D01*
X179158386Y-69946842D01*
X179147000Y-69894500D01*
X179147000Y-69080011D01*
X179167002Y-69011890D01*
X179220658Y-68965397D01*
X179273000Y-68954011D01*
X179644882Y-68954011D01*
X179713003Y-68974013D01*
G37*
%TD.AperFunction*%
%TA.AperFunction,Conductor*%
G36*
X181510127Y-68555315D02*
G01*
X181540687Y-68584338D01*
X181556715Y-68605724D01*
X181569276Y-68618285D01*
X181638298Y-68670014D01*
X181680813Y-68726873D01*
X181685839Y-68797691D01*
X181651779Y-68859985D01*
X181615983Y-68885035D01*
X181490305Y-68943640D01*
X181490302Y-68943642D01*
X181485324Y-68945963D01*
X181344513Y-69044559D01*
X181251539Y-69137533D01*
X181191857Y-69170957D01*
X181154401Y-69179949D01*
X181083493Y-69176401D01*
X181049424Y-69158257D01*
X180998201Y-69119868D01*
X180955685Y-69063009D01*
X180950659Y-68992190D01*
X180984719Y-68929897D01*
X181026471Y-68903676D01*
X181026167Y-68903044D01*
X181031786Y-68900338D01*
X181032143Y-68900114D01*
X181032540Y-68899975D01*
X181032542Y-68899974D01*
X181039218Y-68897638D01*
X181062948Y-68882728D01*
X181148480Y-68828985D01*
X181148481Y-68828984D01*
X181154467Y-68825223D01*
X181250712Y-68728978D01*
X181323127Y-68613729D01*
X181325463Y-68607052D01*
X181326338Y-68605236D01*
X181373914Y-68552539D01*
X181442428Y-68533929D01*
X181510127Y-68555315D01*
G37*
%TD.AperFunction*%
%TA.AperFunction,Conductor*%
G36*
X181698868Y-66199502D02*
G01*
X181745361Y-66253158D01*
X181755465Y-66323432D01*
X181735513Y-66375499D01*
X181685266Y-66450699D01*
X181670500Y-66524933D01*
X181670501Y-66743613D01*
X181670501Y-66894500D01*
X181650499Y-66962620D01*
X181596844Y-67009113D01*
X181544501Y-67020500D01*
X181292704Y-67020500D01*
X181224583Y-67000498D01*
X181197761Y-66969544D01*
X181177135Y-66951671D01*
X181169452Y-66950000D01*
X180735100Y-66950000D01*
X180710519Y-66947579D01*
X180706135Y-66946707D01*
X180700067Y-66945500D01*
X180684720Y-66945500D01*
X180275999Y-66945501D01*
X180207880Y-66925499D01*
X180161386Y-66871844D01*
X180150000Y-66819501D01*
X180150000Y-66676000D01*
X180170002Y-66607879D01*
X180223658Y-66561386D01*
X180276000Y-66550000D01*
X181164884Y-66550000D01*
X181180123Y-66545525D01*
X181181328Y-66544135D01*
X181182999Y-66536452D01*
X181182999Y-66505331D01*
X181182629Y-66498510D01*
X181177105Y-66447648D01*
X181173478Y-66432394D01*
X181142489Y-66349729D01*
X181137306Y-66278922D01*
X181171227Y-66216553D01*
X181233482Y-66182424D01*
X181260471Y-66179500D01*
X181630747Y-66179500D01*
X181698868Y-66199502D01*
G37*
%TD.AperFunction*%
%TA.AperFunction,Conductor*%
G36*
X174285390Y-64235418D02*
G01*
X174290367Y-64237166D01*
X174295932Y-64237648D01*
X174298640Y-64237648D01*
X174301274Y-64237762D01*
X174301372Y-64237791D01*
X174301365Y-64237955D01*
X174302069Y-64237999D01*
X174308294Y-64239861D01*
X174362151Y-64237745D01*
X174367098Y-64237648D01*
X174592162Y-64237648D01*
X174660283Y-64257650D01*
X174706776Y-64311306D01*
X174716880Y-64381580D01*
X174687386Y-64446160D01*
X174675246Y-64458374D01*
X174616340Y-64510032D01*
X174610285Y-64514603D01*
X174608844Y-64515295D01*
X174604569Y-64518889D01*
X174595572Y-64527886D01*
X174589571Y-64533508D01*
X174579173Y-64542627D01*
X174570168Y-64549821D01*
X174566405Y-64552555D01*
X174566403Y-64552557D01*
X174558383Y-64558384D01*
X174552557Y-64566403D01*
X174546433Y-64574832D01*
X174533591Y-64589867D01*
X174404571Y-64718887D01*
X174332103Y-64791354D01*
X174317068Y-64804196D01*
X174300620Y-64816146D01*
X174294794Y-64824165D01*
X174290474Y-64828485D01*
X174278091Y-64839346D01*
X174240646Y-64868079D01*
X174212163Y-64884523D01*
X174153751Y-64908718D01*
X174121982Y-64917231D01*
X174075187Y-64923392D01*
X174058738Y-64924470D01*
X174052647Y-64924470D01*
X174042852Y-64922918D01*
X174033059Y-64924469D01*
X174033058Y-64924469D01*
X174022775Y-64926098D01*
X174003064Y-64927649D01*
X173851463Y-64927649D01*
X173824945Y-64924827D01*
X173819282Y-64923608D01*
X173811805Y-64920982D01*
X173806240Y-64920500D01*
X173803532Y-64920500D01*
X173800898Y-64920386D01*
X173800800Y-64920357D01*
X173800807Y-64920193D01*
X173800103Y-64920149D01*
X173793878Y-64918287D01*
X173740021Y-64920403D01*
X173735074Y-64920500D01*
X173156287Y-64920500D01*
X173088166Y-64900498D01*
X173041673Y-64846842D01*
X173031569Y-64776568D01*
X173061063Y-64711988D01*
X173099673Y-64681935D01*
X173158071Y-64652564D01*
X173164855Y-64649152D01*
X173170626Y-64644223D01*
X173170629Y-64644221D01*
X173279536Y-64551205D01*
X173279536Y-64551204D01*
X173285314Y-64546270D01*
X173377755Y-64417625D01*
X173380589Y-64410576D01*
X173380592Y-64410570D01*
X173418346Y-64316652D01*
X173462312Y-64260907D01*
X173535253Y-64237648D01*
X173692958Y-64237648D01*
X173716906Y-64240197D01*
X173718571Y-64240276D01*
X173728754Y-64242468D01*
X173739095Y-64241244D01*
X173762101Y-64238521D01*
X173768032Y-64238171D01*
X173768024Y-64238076D01*
X173773204Y-64237648D01*
X173778402Y-64237648D01*
X173783524Y-64236795D01*
X173783529Y-64236795D01*
X173796484Y-64234638D01*
X173817174Y-64232928D01*
X174261994Y-64232928D01*
X174285390Y-64235418D01*
G37*
%TD.AperFunction*%
%TA.AperFunction,Conductor*%
G36*
X170419940Y-61385886D02*
G01*
X170425699Y-61389734D01*
X170444095Y-61393393D01*
X170446290Y-61393830D01*
X170509200Y-61426737D01*
X170524922Y-61445138D01*
X170594890Y-61545062D01*
X170608345Y-61564278D01*
X170735722Y-61691655D01*
X170740230Y-61694812D01*
X170740233Y-61694814D01*
X170873167Y-61787895D01*
X170883284Y-61794979D01*
X170888266Y-61797302D01*
X170888271Y-61797305D01*
X170970233Y-61835524D01*
X171046545Y-61871109D01*
X171220546Y-61917733D01*
X171272459Y-61922275D01*
X171323227Y-61926716D01*
X171330360Y-61927792D01*
X171333851Y-61929018D01*
X171339416Y-61929500D01*
X171349541Y-61929500D01*
X171360521Y-61929979D01*
X171372776Y-61931051D01*
X171384366Y-61932065D01*
X171389364Y-61932679D01*
X171390202Y-61932679D01*
X171399999Y-61934231D01*
X171409792Y-61932680D01*
X171409793Y-61932680D01*
X171420076Y-61931051D01*
X171439787Y-61929500D01*
X172942563Y-61929500D01*
X173010684Y-61949502D01*
X173049995Y-61989665D01*
X173102237Y-62074917D01*
X173227923Y-62222077D01*
X173375083Y-62347763D01*
X173379298Y-62350346D01*
X173379309Y-62350354D01*
X173443387Y-62389621D01*
X173491018Y-62442268D01*
X173495878Y-62453752D01*
X173497743Y-62458847D01*
X173512553Y-62499319D01*
X173516789Y-62505622D01*
X173516789Y-62505623D01*
X173585324Y-62607613D01*
X173600908Y-62630805D01*
X173606527Y-62635918D01*
X173606528Y-62635919D01*
X173707789Y-62728059D01*
X173718076Y-62737419D01*
X173857293Y-62813008D01*
X174010522Y-62853207D01*
X174094477Y-62854526D01*
X174161319Y-62855576D01*
X174161322Y-62855576D01*
X174168916Y-62855695D01*
X174323332Y-62820329D01*
X174393742Y-62784917D01*
X174458072Y-62752563D01*
X174458075Y-62752561D01*
X174464855Y-62749151D01*
X174470626Y-62744222D01*
X174470629Y-62744220D01*
X174579536Y-62651204D01*
X174579536Y-62651203D01*
X174585314Y-62646269D01*
X174677755Y-62517624D01*
X174736842Y-62370641D01*
X174757985Y-62222077D01*
X174758581Y-62217891D01*
X174758581Y-62217888D01*
X174759162Y-62213807D01*
X174759307Y-62200000D01*
X174740276Y-62042733D01*
X174684280Y-61894546D01*
X174670790Y-61874917D01*
X174657352Y-61855365D01*
X174635253Y-61787895D01*
X174653139Y-61719189D01*
X174705331Y-61671059D01*
X174761193Y-61657999D01*
X174819669Y-61657999D01*
X174826490Y-61657629D01*
X174877352Y-61652105D01*
X174892607Y-61648478D01*
X174939868Y-61630761D01*
X175010675Y-61625578D01*
X175073044Y-61659499D01*
X175103621Y-61708868D01*
X175119380Y-61756105D01*
X175125555Y-61769286D01*
X175207788Y-61902173D01*
X175216824Y-61913574D01*
X175327429Y-62023986D01*
X175338840Y-62032998D01*
X175365884Y-62049668D01*
X175413377Y-62102440D01*
X175424690Y-62173374D01*
X175417856Y-62225290D01*
X175407837Y-62301390D01*
X175408671Y-62308940D01*
X175423391Y-62442268D01*
X175425221Y-62458847D01*
X175427831Y-62465978D01*
X175427831Y-62465980D01*
X175471741Y-62585969D01*
X175479661Y-62607613D01*
X175483897Y-62613916D01*
X175483897Y-62613917D01*
X175558209Y-62724504D01*
X175568016Y-62739099D01*
X175685184Y-62845713D01*
X175824401Y-62921302D01*
X175977630Y-62961501D01*
X175985221Y-62961620D01*
X175991965Y-62962544D01*
X176056742Y-62991605D01*
X176095523Y-63051073D01*
X176095997Y-63122068D01*
X176089061Y-63140628D01*
X176086337Y-63146471D01*
X176072730Y-63175651D01*
X176068886Y-63183894D01*
X176067464Y-63189202D01*
X176067463Y-63189204D01*
X176056825Y-63228907D01*
X176026583Y-63341770D01*
X176026104Y-63347244D01*
X176026103Y-63347250D01*
X176024671Y-63363627D01*
X175998809Y-63429746D01*
X175941306Y-63471387D01*
X175899150Y-63478648D01*
X174446318Y-63478648D01*
X174422922Y-63476158D01*
X174417945Y-63474410D01*
X174412380Y-63473928D01*
X174409672Y-63473928D01*
X174407038Y-63473814D01*
X174406940Y-63473785D01*
X174406947Y-63473621D01*
X174406243Y-63473577D01*
X174400018Y-63471715D01*
X174346237Y-63473828D01*
X174346161Y-63473831D01*
X174341214Y-63473928D01*
X173805518Y-63473928D01*
X173781570Y-63471379D01*
X173779905Y-63471300D01*
X173769722Y-63469108D01*
X173747696Y-63471715D01*
X173736375Y-63473055D01*
X173730444Y-63473405D01*
X173730452Y-63473500D01*
X173725272Y-63473928D01*
X173720074Y-63473928D01*
X173714952Y-63474781D01*
X173714947Y-63474781D01*
X173701992Y-63476938D01*
X173681302Y-63478648D01*
X173058300Y-63478648D01*
X173034352Y-63476099D01*
X173032687Y-63476020D01*
X173022504Y-63473828D01*
X173012160Y-63475052D01*
X173008174Y-63474864D01*
X172983421Y-63471209D01*
X172882633Y-63445893D01*
X172875033Y-63445853D01*
X172875032Y-63445853D01*
X172810232Y-63445514D01*
X172724221Y-63445063D01*
X172716841Y-63446835D01*
X172716839Y-63446835D01*
X172577563Y-63480272D01*
X172577560Y-63480273D01*
X172570184Y-63482044D01*
X172429414Y-63554701D01*
X172423697Y-63559688D01*
X172423690Y-63559693D01*
X172380782Y-63597125D01*
X172316300Y-63626834D01*
X172260274Y-63622412D01*
X172111350Y-63575743D01*
X172098306Y-63573131D01*
X172034479Y-63567266D01*
X172028691Y-63567000D01*
X171972115Y-63567000D01*
X171956876Y-63571475D01*
X171955671Y-63572865D01*
X171954000Y-63580548D01*
X171954000Y-64603000D01*
X171933998Y-64671121D01*
X171880342Y-64717614D01*
X171828000Y-64729000D01*
X171572000Y-64729000D01*
X171503879Y-64708998D01*
X171457386Y-64655342D01*
X171446000Y-64603000D01*
X171446000Y-63585116D01*
X171441525Y-63569877D01*
X171440135Y-63568672D01*
X171432452Y-63567001D01*
X171371295Y-63567001D01*
X171365546Y-63567264D01*
X171301685Y-63573132D01*
X171288651Y-63575742D01*
X171258262Y-63585265D01*
X171187277Y-63586548D01*
X171126867Y-63549249D01*
X171096212Y-63485212D01*
X171095842Y-63447281D01*
X171109142Y-63353827D01*
X171109287Y-63340020D01*
X171090256Y-63182753D01*
X171034260Y-63034566D01*
X170944533Y-62904012D01*
X170826255Y-62798631D01*
X170686254Y-62724504D01*
X170532613Y-62685912D01*
X170525014Y-62685872D01*
X170525013Y-62685872D01*
X170421897Y-62685332D01*
X170379340Y-62685109D01*
X170311325Y-62664751D01*
X170265114Y-62610852D01*
X170254000Y-62559111D01*
X170254000Y-61504566D01*
X170274002Y-61436445D01*
X170327658Y-61389952D01*
X170397932Y-61379848D01*
X170419940Y-61385886D01*
G37*
%TD.AperFunction*%
%TA.AperFunction,Conductor*%
G36*
X173362621Y-58476959D02*
G01*
X173409114Y-58530615D01*
X173420500Y-58582957D01*
X173420501Y-58879868D01*
X173420501Y-59175066D01*
X173435266Y-59249301D01*
X173442161Y-59259621D01*
X173442162Y-59259622D01*
X173463435Y-59291458D01*
X173491516Y-59333484D01*
X173575699Y-59389734D01*
X173587871Y-59392155D01*
X173594063Y-59394720D01*
X173649344Y-59439269D01*
X173659102Y-59456404D01*
X173659480Y-59457417D01*
X173767693Y-59655593D01*
X173770386Y-59659190D01*
X173879743Y-59805275D01*
X173903007Y-59836353D01*
X173969728Y-59903074D01*
X174003754Y-59965386D01*
X173998689Y-60036201D01*
X173969726Y-60081267D01*
X173956711Y-60094282D01*
X173880214Y-60196351D01*
X173871676Y-60211946D01*
X173866429Y-60225942D01*
X173823787Y-60282706D01*
X173757225Y-60307406D01*
X173687877Y-60292198D01*
X173663359Y-60273812D01*
X173658484Y-60266516D01*
X173618115Y-60239542D01*
X173584620Y-60217161D01*
X173574301Y-60210266D01*
X173500067Y-60195500D01*
X173250041Y-60195500D01*
X172999934Y-60195501D01*
X172968978Y-60201658D01*
X172937874Y-60207844D01*
X172937872Y-60207845D01*
X172925699Y-60210266D01*
X172915379Y-60217161D01*
X172915378Y-60217162D01*
X172855928Y-60256886D01*
X172841516Y-60266516D01*
X172785266Y-60350699D01*
X172782845Y-60362871D01*
X172773578Y-60409458D01*
X172740670Y-60472367D01*
X172678975Y-60507499D01*
X172608080Y-60503699D01*
X172550494Y-60462173D01*
X172526420Y-60409455D01*
X172514734Y-60350699D01*
X172506492Y-60338363D01*
X172458484Y-60266516D01*
X172459749Y-60265671D01*
X172432379Y-60215548D01*
X172429500Y-60188765D01*
X172429500Y-58639787D01*
X172431051Y-58620076D01*
X172432680Y-58609791D01*
X172434231Y-58599999D01*
X172433057Y-58592588D01*
X172435101Y-58571840D01*
X172435498Y-58569844D01*
X172454307Y-58524430D01*
X172457467Y-58519700D01*
X172492243Y-58484924D01*
X172496973Y-58481764D01*
X172542386Y-58462955D01*
X172544384Y-58462558D01*
X172565131Y-58460514D01*
X172572542Y-58461688D01*
X172592620Y-58458508D01*
X172612330Y-58456957D01*
X173294500Y-58456957D01*
X173362621Y-58476959D01*
G37*
%TD.AperFunction*%
%TA.AperFunction,Conductor*%
G36*
X176251577Y-56799637D02*
G01*
X176276194Y-56820737D01*
X176276533Y-56820389D01*
X176421938Y-56962035D01*
X176590720Y-57074812D01*
X176596023Y-57077090D01*
X176596026Y-57077092D01*
X176771921Y-57152662D01*
X176777228Y-57154942D01*
X176846723Y-57170667D01*
X176908749Y-57205210D01*
X176942254Y-57267803D01*
X176936600Y-57338574D01*
X176893581Y-57395054D01*
X176848333Y-57416077D01*
X176701301Y-57451377D01*
X176696729Y-57453271D01*
X176530785Y-57522007D01*
X176530781Y-57522009D01*
X176526211Y-57523902D01*
X176364623Y-57622923D01*
X176322699Y-57658729D01*
X176224281Y-57742785D01*
X176224276Y-57742790D01*
X176220514Y-57746003D01*
X176182688Y-57790292D01*
X176159777Y-57817118D01*
X176100327Y-57855927D01*
X176093197Y-57857782D01*
X176086957Y-57858438D01*
X176038606Y-57874898D01*
X175933387Y-57910717D01*
X175933384Y-57910718D01*
X175926717Y-57912988D01*
X175920719Y-57916678D01*
X175920717Y-57916679D01*
X175788543Y-57997993D01*
X175788541Y-57997995D01*
X175782544Y-58001684D01*
X175661605Y-58120117D01*
X175657794Y-58126031D01*
X175657792Y-58126033D01*
X175635378Y-58160813D01*
X175569909Y-58262400D01*
X175567498Y-58269025D01*
X175514425Y-58414840D01*
X175514424Y-58414845D01*
X175512015Y-58421463D01*
X175490800Y-58589399D01*
X175507318Y-58757862D01*
X175554905Y-58900912D01*
X175558848Y-58912766D01*
X175561371Y-58983718D01*
X175525134Y-59044770D01*
X175461642Y-59076540D01*
X175439290Y-59078538D01*
X175097825Y-59078538D01*
X175078114Y-59076987D01*
X175067831Y-59075358D01*
X175067830Y-59075358D01*
X175058037Y-59073807D01*
X175048240Y-59075359D01*
X175047884Y-59075359D01*
X175028170Y-59073808D01*
X175007126Y-59070475D01*
X174969632Y-59058292D01*
X174941485Y-59043950D01*
X174909594Y-59020779D01*
X174887259Y-58998444D01*
X174864088Y-58966553D01*
X174849746Y-58938406D01*
X174837563Y-58900912D01*
X174834230Y-58879868D01*
X174832679Y-58860154D01*
X174832679Y-58859798D01*
X174834231Y-58850001D01*
X174831051Y-58829923D01*
X174829500Y-58810213D01*
X174829500Y-58489789D01*
X174831051Y-58470078D01*
X174832680Y-58459795D01*
X174832680Y-58459794D01*
X174834231Y-58450001D01*
X174831923Y-58435429D01*
X174830979Y-58428071D01*
X174819226Y-58308738D01*
X174818619Y-58302574D01*
X174775617Y-58160813D01*
X174705784Y-58030166D01*
X174686455Y-58006613D01*
X174631988Y-57940245D01*
X174604234Y-57874898D01*
X174616216Y-57804920D01*
X174664129Y-57752528D01*
X174704805Y-57736733D01*
X174795783Y-57718636D01*
X174795786Y-57718635D01*
X174799824Y-57717832D01*
X175039027Y-57636633D01*
X175060307Y-57626139D01*
X175261882Y-57526734D01*
X175261887Y-57526731D01*
X175265586Y-57524907D01*
X175311182Y-57494440D01*
X175472191Y-57386857D01*
X175472196Y-57386853D01*
X175475622Y-57384564D01*
X175478724Y-57381844D01*
X175478730Y-57381839D01*
X175654550Y-57227650D01*
X175654564Y-57227636D01*
X175660701Y-57222254D01*
X175665966Y-57218429D01*
X175677916Y-57201981D01*
X175690758Y-57186946D01*
X175859683Y-57018021D01*
X175874717Y-57005180D01*
X175883142Y-56999059D01*
X175891162Y-56993232D01*
X175896988Y-56985213D01*
X175901449Y-56980752D01*
X175914316Y-56966648D01*
X176052984Y-56845039D01*
X176066055Y-56835010D01*
X176115357Y-56802067D01*
X176183110Y-56780853D01*
X176251577Y-56799637D01*
G37*
%TD.AperFunction*%
%TA.AperFunction,Conductor*%
G36*
X171108740Y-55274002D02*
G01*
X171155233Y-55327658D01*
X171165337Y-55397932D01*
X171139569Y-55458005D01*
X171109720Y-55495869D01*
X171107031Y-55500980D01*
X171107029Y-55500983D01*
X171094073Y-55525609D01*
X171015203Y-55675515D01*
X170975548Y-55803225D01*
X170959639Y-55854462D01*
X170955007Y-55869378D01*
X170931148Y-56070964D01*
X170944424Y-56273522D01*
X170945845Y-56279118D01*
X170945846Y-56279123D01*
X170966119Y-56358945D01*
X170994392Y-56470269D01*
X170996809Y-56475512D01*
X171034010Y-56556208D01*
X171079377Y-56654616D01*
X171196533Y-56820389D01*
X171341938Y-56962035D01*
X171346742Y-56965245D01*
X171410214Y-57007656D01*
X171455742Y-57062133D01*
X171464589Y-57132576D01*
X171433948Y-57196620D01*
X171412483Y-57215634D01*
X171372495Y-57243634D01*
X171372492Y-57243636D01*
X171367984Y-57246793D01*
X171246793Y-57367984D01*
X171243636Y-57372492D01*
X171243634Y-57372495D01*
X171219379Y-57407135D01*
X171148487Y-57508379D01*
X171146164Y-57513361D01*
X171146161Y-57513366D01*
X171088064Y-57637957D01*
X171076055Y-57663711D01*
X171074633Y-57669019D01*
X171074632Y-57669021D01*
X171044396Y-57781865D01*
X171031696Y-57829262D01*
X171031216Y-57834746D01*
X171031215Y-57834753D01*
X171023604Y-57921735D01*
X171022376Y-57929883D01*
X171020982Y-57933851D01*
X171020500Y-57939416D01*
X171020500Y-57951729D01*
X171020022Y-57962691D01*
X171018359Y-57981696D01*
X171017320Y-57990160D01*
X171017320Y-57990205D01*
X171015769Y-58000000D01*
X171017320Y-58009792D01*
X171018949Y-58020077D01*
X171020500Y-58039788D01*
X171020500Y-58188765D01*
X171000498Y-58256886D01*
X170994162Y-58264748D01*
X170991516Y-58266516D01*
X170985592Y-58275382D01*
X170985591Y-58275383D01*
X170963304Y-58308738D01*
X170935266Y-58350699D01*
X170920500Y-58424933D01*
X170920500Y-58573770D01*
X170900498Y-58641891D01*
X170846842Y-58688384D01*
X170776568Y-58698488D01*
X170763805Y-58695974D01*
X170693330Y-58678272D01*
X170693326Y-58678272D01*
X170685959Y-58676421D01*
X170678360Y-58676381D01*
X170678359Y-58676381D01*
X170612507Y-58676036D01*
X170527547Y-58675591D01*
X170520167Y-58677363D01*
X170520165Y-58677363D01*
X170409414Y-58703952D01*
X170338506Y-58700405D01*
X170280772Y-58659085D01*
X170254542Y-58593111D01*
X170254000Y-58581433D01*
X170254000Y-56037425D01*
X170256421Y-56012844D01*
X170256555Y-56012170D01*
X170258976Y-56000000D01*
X170256555Y-55987828D01*
X170256555Y-55980246D01*
X170257162Y-55967896D01*
X170267118Y-55866812D01*
X170271935Y-55842592D01*
X170307187Y-55726383D01*
X170316631Y-55703582D01*
X170373876Y-55596483D01*
X170387594Y-55575953D01*
X170464626Y-55482091D01*
X170482091Y-55464626D01*
X170575953Y-55387594D01*
X170596483Y-55373876D01*
X170703582Y-55316631D01*
X170726383Y-55307187D01*
X170842592Y-55271935D01*
X170866812Y-55267118D01*
X170967896Y-55257162D01*
X170980246Y-55256555D01*
X170987828Y-55256555D01*
X171000000Y-55258976D01*
X171012847Y-55256421D01*
X171037425Y-55254000D01*
X171040619Y-55254000D01*
X171108740Y-55274002D01*
G37*
%TD.AperFunction*%
%TA.AperFunction,Conductor*%
G36*
X178728740Y-55274002D02*
G01*
X178775233Y-55327658D01*
X178785337Y-55397932D01*
X178759569Y-55458005D01*
X178729720Y-55495869D01*
X178727031Y-55500980D01*
X178727029Y-55500983D01*
X178714073Y-55525609D01*
X178635203Y-55675515D01*
X178595548Y-55803225D01*
X178579639Y-55854462D01*
X178575007Y-55869378D01*
X178551148Y-56070964D01*
X178564424Y-56273522D01*
X178565845Y-56279118D01*
X178565846Y-56279123D01*
X178586119Y-56358945D01*
X178614392Y-56470269D01*
X178616809Y-56475512D01*
X178654010Y-56556208D01*
X178699377Y-56654616D01*
X178816533Y-56820389D01*
X178961938Y-56962035D01*
X179130720Y-57074812D01*
X179136023Y-57077090D01*
X179136026Y-57077092D01*
X179315550Y-57154221D01*
X179370243Y-57199489D01*
X179391780Y-57267140D01*
X179373323Y-57335696D01*
X179320732Y-57383390D01*
X179265812Y-57395989D01*
X177501660Y-57395989D01*
X177433539Y-57375987D01*
X177387046Y-57322331D01*
X177376942Y-57252057D01*
X177406436Y-57187477D01*
X177461159Y-57150676D01*
X177565693Y-57115192D01*
X177565698Y-57115190D01*
X177571165Y-57113334D01*
X177576987Y-57110074D01*
X177680056Y-57052352D01*
X177748276Y-57014147D01*
X177763495Y-57001490D01*
X177899913Y-56888031D01*
X177904345Y-56884345D01*
X177972775Y-56802067D01*
X178030453Y-56732718D01*
X178030455Y-56732715D01*
X178034147Y-56728276D01*
X178133334Y-56551165D01*
X178135190Y-56545698D01*
X178135192Y-56545693D01*
X178196728Y-56364414D01*
X178196729Y-56364409D01*
X178198584Y-56358945D01*
X178199412Y-56353236D01*
X178199413Y-56353231D01*
X178227179Y-56161727D01*
X178227712Y-56158053D01*
X178229232Y-56100000D01*
X178210658Y-55897859D01*
X178209090Y-55892299D01*
X178157125Y-55708046D01*
X178157124Y-55708044D01*
X178155557Y-55702487D01*
X178144978Y-55681033D01*
X178068331Y-55525609D01*
X178065776Y-55520428D01*
X178017209Y-55455389D01*
X177992477Y-55388839D01*
X178007651Y-55319483D01*
X178057913Y-55269341D01*
X178118167Y-55254000D01*
X178660619Y-55254000D01*
X178728740Y-55274002D01*
G37*
%TD.AperFunction*%
%TD*%
M02*
