M48
; DRILL file {KiCad (5.1.9-0-10_14)} date Saturday, August 07, 2021 at 09:23:40 AM
; FORMAT={-:-/ absolute / inch / decimal}
; #@! TF.CreationDate,2021-08-07T09:23:40+01:00
; #@! TF.GenerationSoftware,Kicad,Pcbnew,(5.1.9-0-10_14)
; #@! TF.FileFunction,Plated,1,2,PTH
FMAT,2
INCH
T1C0.0098
T2C0.0157
T3C0.0236
T4C0.0256
T5C0.0394
T6C0.0492
%
G90
G05
T1
X7.1102Y-2.5
T2
X6.7185Y-2.9498
X6.7402Y-2.3819
X6.7474Y-2.4976
X6.7717Y-3.2421
X6.7744Y-2.9386
X6.7987Y-2.5428
X6.8386Y-2.3839
X6.8534Y-2.5079
X6.8945Y-2.8323
X6.8986Y-2.948
X6.901Y-2.4228
X6.9557Y-2.9389
X6.9572Y-2.5529
X6.9585Y-2.4316
X6.9911Y-2.574
X7.0172Y-2.9466
X7.0591Y-2.3494
X7.0748Y-2.6457
X7.0827Y-2.776
X7.1349Y-2.6309
X7.1388Y-2.3707
X7.1634Y-2.7772
X7.1634Y-2.6594
X7.1654Y-3.1181
X7.1776Y-2.3641
X7.2062Y-2.6171
X7.2092Y-2.7121
X7.2185Y-2.3622
T3
X6.8547Y-3.0398
X7.0823Y-3.0398
T4
X6.939Y-2.3071
X6.989Y-2.3071
X7.039Y-2.3071
X7.089Y-2.3071
X7.139Y-2.3071
X7.189Y-2.3071
T5
X6.7732Y-2.2087
X6.7984Y-3.1846
X6.8732Y-2.2087
X6.9732Y-2.2087
X7.0732Y-2.2087
X7.1386Y-3.1846
X7.1732Y-2.2087
T6
X6.7984Y-3.0205
X7.1386Y-3.0205
T0
M30
