%TF.GenerationSoftware,KiCad,Pcbnew,(5.1.9-0-10_14)*%
%TF.CreationDate,2021-06-18T08:37:58+01:00*%
%TF.ProjectId,Shelly,5368656c-6c79-42e6-9b69-6361645f7063,4*%
%TF.SameCoordinates,Original*%
%TF.FileFunction,Soldermask,Top*%
%TF.FilePolarity,Negative*%
%FSLAX46Y46*%
G04 Gerber Fmt 4.6, Leading zero omitted, Abs format (unit mm)*
G04 Created by KiCad (PCBNEW (5.1.9-0-10_14)) date 2021-06-18 08:37:58*
%MOMM*%
%LPD*%
G01*
G04 APERTURE LIST*
%ADD10C,0.350000*%
%ADD11C,0.100000*%
%ADD12R,0.600000X1.100000*%
%ADD13R,1.425000X3.700000*%
%ADD14O,1.700000X1.700000*%
%ADD15R,1.700000X1.700000*%
%ADD16R,0.800000X1.200000*%
%ADD17R,0.600000X1.140000*%
%ADD18C,1.500000*%
%ADD19C,1.750000*%
%ADD20R,0.300000X1.140000*%
%ADD21O,1.000000X1.000000*%
%ADD22R,1.000000X1.000000*%
G04 APERTURE END LIST*
D10*
%TO.C,U1*%
X180600000Y-63500000D03*
D11*
G36*
X179600000Y-62500000D02*
G01*
X181600000Y-62500000D01*
X181600000Y-64250000D01*
X181350000Y-64500000D01*
X179600000Y-64500000D01*
X179600000Y-62500000D01*
G37*
G36*
G01*
X181725000Y-65112500D02*
X181725000Y-65687500D01*
G75*
G02*
X181662500Y-65750000I-62500J0D01*
G01*
X181537500Y-65750000D01*
G75*
G02*
X181475000Y-65687500I0J62500D01*
G01*
X181475000Y-65112500D01*
G75*
G02*
X181537500Y-65050000I62500J0D01*
G01*
X181662500Y-65050000D01*
G75*
G02*
X181725000Y-65112500I0J-62500D01*
G01*
G37*
G36*
G01*
X181225000Y-65112500D02*
X181225000Y-65687500D01*
G75*
G02*
X181162500Y-65750000I-62500J0D01*
G01*
X181037500Y-65750000D01*
G75*
G02*
X180975000Y-65687500I0J62500D01*
G01*
X180975000Y-65112500D01*
G75*
G02*
X181037500Y-65050000I62500J0D01*
G01*
X181162500Y-65050000D01*
G75*
G02*
X181225000Y-65112500I0J-62500D01*
G01*
G37*
G36*
G01*
X180725000Y-65112500D02*
X180725000Y-65687500D01*
G75*
G02*
X180662500Y-65750000I-62500J0D01*
G01*
X180537500Y-65750000D01*
G75*
G02*
X180475000Y-65687500I0J62500D01*
G01*
X180475000Y-65112500D01*
G75*
G02*
X180537500Y-65050000I62500J0D01*
G01*
X180662500Y-65050000D01*
G75*
G02*
X180725000Y-65112500I0J-62500D01*
G01*
G37*
G36*
G01*
X180225000Y-65112500D02*
X180225000Y-65687500D01*
G75*
G02*
X180162500Y-65750000I-62500J0D01*
G01*
X180037500Y-65750000D01*
G75*
G02*
X179975000Y-65687500I0J62500D01*
G01*
X179975000Y-65112500D01*
G75*
G02*
X180037500Y-65050000I62500J0D01*
G01*
X180162500Y-65050000D01*
G75*
G02*
X180225000Y-65112500I0J-62500D01*
G01*
G37*
G36*
G01*
X179725000Y-65112500D02*
X179725000Y-65687500D01*
G75*
G02*
X179662500Y-65750000I-62500J0D01*
G01*
X179537500Y-65750000D01*
G75*
G02*
X179475000Y-65687500I0J62500D01*
G01*
X179475000Y-65112500D01*
G75*
G02*
X179537500Y-65050000I62500J0D01*
G01*
X179662500Y-65050000D01*
G75*
G02*
X179725000Y-65112500I0J-62500D01*
G01*
G37*
G36*
G01*
X179050000Y-64437500D02*
X179050000Y-64562500D01*
G75*
G02*
X178987500Y-64625000I-62500J0D01*
G01*
X178412500Y-64625000D01*
G75*
G02*
X178350000Y-64562500I0J62500D01*
G01*
X178350000Y-64437500D01*
G75*
G02*
X178412500Y-64375000I62500J0D01*
G01*
X178987500Y-64375000D01*
G75*
G02*
X179050000Y-64437500I0J-62500D01*
G01*
G37*
G36*
G01*
X179050000Y-63937500D02*
X179050000Y-64062500D01*
G75*
G02*
X178987500Y-64125000I-62500J0D01*
G01*
X178412500Y-64125000D01*
G75*
G02*
X178350000Y-64062500I0J62500D01*
G01*
X178350000Y-63937500D01*
G75*
G02*
X178412500Y-63875000I62500J0D01*
G01*
X178987500Y-63875000D01*
G75*
G02*
X179050000Y-63937500I0J-62500D01*
G01*
G37*
G36*
G01*
X179050000Y-63437500D02*
X179050000Y-63562500D01*
G75*
G02*
X178987500Y-63625000I-62500J0D01*
G01*
X178412500Y-63625000D01*
G75*
G02*
X178350000Y-63562500I0J62500D01*
G01*
X178350000Y-63437500D01*
G75*
G02*
X178412500Y-63375000I62500J0D01*
G01*
X178987500Y-63375000D01*
G75*
G02*
X179050000Y-63437500I0J-62500D01*
G01*
G37*
G36*
G01*
X179050000Y-62937500D02*
X179050000Y-63062500D01*
G75*
G02*
X178987500Y-63125000I-62500J0D01*
G01*
X178412500Y-63125000D01*
G75*
G02*
X178350000Y-63062500I0J62500D01*
G01*
X178350000Y-62937500D01*
G75*
G02*
X178412500Y-62875000I62500J0D01*
G01*
X178987500Y-62875000D01*
G75*
G02*
X179050000Y-62937500I0J-62500D01*
G01*
G37*
G36*
G01*
X179050000Y-62437500D02*
X179050000Y-62562500D01*
G75*
G02*
X178987500Y-62625000I-62500J0D01*
G01*
X178412500Y-62625000D01*
G75*
G02*
X178350000Y-62562500I0J62500D01*
G01*
X178350000Y-62437500D01*
G75*
G02*
X178412500Y-62375000I62500J0D01*
G01*
X178987500Y-62375000D01*
G75*
G02*
X179050000Y-62437500I0J-62500D01*
G01*
G37*
G36*
G01*
X179725000Y-61312500D02*
X179725000Y-61887500D01*
G75*
G02*
X179662500Y-61950000I-62500J0D01*
G01*
X179537500Y-61950000D01*
G75*
G02*
X179475000Y-61887500I0J62500D01*
G01*
X179475000Y-61312500D01*
G75*
G02*
X179537500Y-61250000I62500J0D01*
G01*
X179662500Y-61250000D01*
G75*
G02*
X179725000Y-61312500I0J-62500D01*
G01*
G37*
G36*
G01*
X180225000Y-61312500D02*
X180225000Y-61887500D01*
G75*
G02*
X180162500Y-61950000I-62500J0D01*
G01*
X180037500Y-61950000D01*
G75*
G02*
X179975000Y-61887500I0J62500D01*
G01*
X179975000Y-61312500D01*
G75*
G02*
X180037500Y-61250000I62500J0D01*
G01*
X180162500Y-61250000D01*
G75*
G02*
X180225000Y-61312500I0J-62500D01*
G01*
G37*
G36*
G01*
X180725000Y-61312500D02*
X180725000Y-61887500D01*
G75*
G02*
X180662500Y-61950000I-62500J0D01*
G01*
X180537500Y-61950000D01*
G75*
G02*
X180475000Y-61887500I0J62500D01*
G01*
X180475000Y-61312500D01*
G75*
G02*
X180537500Y-61250000I62500J0D01*
G01*
X180662500Y-61250000D01*
G75*
G02*
X180725000Y-61312500I0J-62500D01*
G01*
G37*
G36*
G01*
X181225000Y-61312500D02*
X181225000Y-61887500D01*
G75*
G02*
X181162500Y-61950000I-62500J0D01*
G01*
X181037500Y-61950000D01*
G75*
G02*
X180975000Y-61887500I0J62500D01*
G01*
X180975000Y-61312500D01*
G75*
G02*
X181037500Y-61250000I62500J0D01*
G01*
X181162500Y-61250000D01*
G75*
G02*
X181225000Y-61312500I0J-62500D01*
G01*
G37*
G36*
G01*
X181725000Y-61312500D02*
X181725000Y-61887500D01*
G75*
G02*
X181662500Y-61950000I-62500J0D01*
G01*
X181537500Y-61950000D01*
G75*
G02*
X181475000Y-61887500I0J62500D01*
G01*
X181475000Y-61312500D01*
G75*
G02*
X181537500Y-61250000I62500J0D01*
G01*
X181662500Y-61250000D01*
G75*
G02*
X181725000Y-61312500I0J-62500D01*
G01*
G37*
G36*
G01*
X182850000Y-62437500D02*
X182850000Y-62562500D01*
G75*
G02*
X182787500Y-62625000I-62500J0D01*
G01*
X182212500Y-62625000D01*
G75*
G02*
X182150000Y-62562500I0J62500D01*
G01*
X182150000Y-62437500D01*
G75*
G02*
X182212500Y-62375000I62500J0D01*
G01*
X182787500Y-62375000D01*
G75*
G02*
X182850000Y-62437500I0J-62500D01*
G01*
G37*
G36*
G01*
X182850000Y-62937500D02*
X182850000Y-63062500D01*
G75*
G02*
X182787500Y-63125000I-62500J0D01*
G01*
X182212500Y-63125000D01*
G75*
G02*
X182150000Y-63062500I0J62500D01*
G01*
X182150000Y-62937500D01*
G75*
G02*
X182212500Y-62875000I62500J0D01*
G01*
X182787500Y-62875000D01*
G75*
G02*
X182850000Y-62937500I0J-62500D01*
G01*
G37*
G36*
G01*
X182850000Y-63437500D02*
X182850000Y-63562500D01*
G75*
G02*
X182787500Y-63625000I-62500J0D01*
G01*
X182212500Y-63625000D01*
G75*
G02*
X182150000Y-63562500I0J62500D01*
G01*
X182150000Y-63437500D01*
G75*
G02*
X182212500Y-63375000I62500J0D01*
G01*
X182787500Y-63375000D01*
G75*
G02*
X182850000Y-63437500I0J-62500D01*
G01*
G37*
G36*
G01*
X182850000Y-63937500D02*
X182850000Y-64062500D01*
G75*
G02*
X182787500Y-64125000I-62500J0D01*
G01*
X182212500Y-64125000D01*
G75*
G02*
X182150000Y-64062500I0J62500D01*
G01*
X182150000Y-63937500D01*
G75*
G02*
X182212500Y-63875000I62500J0D01*
G01*
X182787500Y-63875000D01*
G75*
G02*
X182850000Y-63937500I0J-62500D01*
G01*
G37*
G36*
G01*
X182850000Y-64437500D02*
X182850000Y-64562500D01*
G75*
G02*
X182787500Y-64625000I-62500J0D01*
G01*
X182212500Y-64625000D01*
G75*
G02*
X182150000Y-64562500I0J62500D01*
G01*
X182150000Y-64437500D01*
G75*
G02*
X182212500Y-64375000I62500J0D01*
G01*
X182787500Y-64375000D01*
G75*
G02*
X182850000Y-64437500I0J-62500D01*
G01*
G37*
%TD*%
D12*
%TO.C,Reg1*%
X173760000Y-67440000D03*
X171860000Y-67440000D03*
X172810000Y-67440000D03*
X171860000Y-70140000D03*
X172810000Y-70140000D03*
X173760000Y-70140000D03*
G36*
G01*
X177735000Y-70890000D02*
X178685000Y-70890000D01*
G75*
G02*
X178935000Y-71140000I0J-250000D01*
G01*
X178935000Y-71640000D01*
G75*
G02*
X178685000Y-71890000I-250000J0D01*
G01*
X177735000Y-71890000D01*
G75*
G02*
X177485000Y-71640000I0J250000D01*
G01*
X177485000Y-71140000D01*
G75*
G02*
X177735000Y-70890000I250000J0D01*
G01*
G37*
G36*
G01*
X177735000Y-72790000D02*
X178685000Y-72790000D01*
G75*
G02*
X178935000Y-73040000I0J-250000D01*
G01*
X178935000Y-73540000D01*
G75*
G02*
X178685000Y-73790000I-250000J0D01*
G01*
X177735000Y-73790000D01*
G75*
G02*
X177485000Y-73540000I0J250000D01*
G01*
X177485000Y-73040000D01*
G75*
G02*
X177735000Y-72790000I250000J0D01*
G01*
G37*
G36*
G01*
X171485000Y-72790000D02*
X172435000Y-72790000D01*
G75*
G02*
X172685000Y-73040000I0J-250000D01*
G01*
X172685000Y-73540000D01*
G75*
G02*
X172435000Y-73790000I-250000J0D01*
G01*
X171485000Y-73790000D01*
G75*
G02*
X171235000Y-73540000I0J250000D01*
G01*
X171235000Y-73040000D01*
G75*
G02*
X171485000Y-72790000I250000J0D01*
G01*
G37*
G36*
G01*
X171485000Y-70890000D02*
X172435000Y-70890000D01*
G75*
G02*
X172685000Y-71140000I0J-250000D01*
G01*
X172685000Y-71640000D01*
G75*
G02*
X172435000Y-71890000I-250000J0D01*
G01*
X171485000Y-71890000D01*
G75*
G02*
X171235000Y-71640000I0J250000D01*
G01*
X171235000Y-71140000D01*
G75*
G02*
X171485000Y-70890000I250000J0D01*
G01*
G37*
G36*
G01*
X170960000Y-68465000D02*
X170460000Y-68465000D01*
G75*
G02*
X170235000Y-68240000I0J225000D01*
G01*
X170235000Y-67790000D01*
G75*
G02*
X170460000Y-67565000I225000J0D01*
G01*
X170960000Y-67565000D01*
G75*
G02*
X171185000Y-67790000I0J-225000D01*
G01*
X171185000Y-68240000D01*
G75*
G02*
X170960000Y-68465000I-225000J0D01*
G01*
G37*
G36*
G01*
X170960000Y-70015000D02*
X170460000Y-70015000D01*
G75*
G02*
X170235000Y-69790000I0J225000D01*
G01*
X170235000Y-69340000D01*
G75*
G02*
X170460000Y-69115000I225000J0D01*
G01*
X170960000Y-69115000D01*
G75*
G02*
X171185000Y-69340000I0J-225000D01*
G01*
X171185000Y-69790000D01*
G75*
G02*
X170960000Y-70015000I-225000J0D01*
G01*
G37*
G36*
G01*
X172885000Y-72585626D02*
X172885000Y-71334374D01*
G75*
G02*
X173134374Y-71085000I249374J0D01*
G01*
X174060626Y-71085000D01*
G75*
G02*
X174310000Y-71334374I0J-249374D01*
G01*
X174310000Y-72585626D01*
G75*
G02*
X174060626Y-72835000I-249374J0D01*
G01*
X173134374Y-72835000D01*
G75*
G02*
X172885000Y-72585626I0J249374D01*
G01*
G37*
G36*
G01*
X175860000Y-72585626D02*
X175860000Y-71334374D01*
G75*
G02*
X176109374Y-71085000I249374J0D01*
G01*
X177035626Y-71085000D01*
G75*
G02*
X177285000Y-71334374I0J-249374D01*
G01*
X177285000Y-72585626D01*
G75*
G02*
X177035626Y-72835000I-249374J0D01*
G01*
X176109374Y-72835000D01*
G75*
G02*
X175860000Y-72585626I0J249374D01*
G01*
G37*
D13*
X178210000Y-68840000D03*
X175210000Y-68840000D03*
%TD*%
D14*
%TO.C,J1*%
X172040000Y-56100000D03*
X174580000Y-56100000D03*
X177120000Y-56100000D03*
X179660000Y-56100000D03*
D15*
X182200000Y-56100000D03*
%TD*%
%TO.C,R6*%
G36*
G01*
X175725000Y-64425000D02*
X176275000Y-64425000D01*
G75*
G02*
X176475000Y-64625000I0J-200000D01*
G01*
X176475000Y-65025000D01*
G75*
G02*
X176275000Y-65225000I-200000J0D01*
G01*
X175725000Y-65225000D01*
G75*
G02*
X175525000Y-65025000I0J200000D01*
G01*
X175525000Y-64625000D01*
G75*
G02*
X175725000Y-64425000I200000J0D01*
G01*
G37*
G36*
G01*
X175725000Y-62775000D02*
X176275000Y-62775000D01*
G75*
G02*
X176475000Y-62975000I0J-200000D01*
G01*
X176475000Y-63375000D01*
G75*
G02*
X176275000Y-63575000I-200000J0D01*
G01*
X175725000Y-63575000D01*
G75*
G02*
X175525000Y-63375000I0J200000D01*
G01*
X175525000Y-62975000D01*
G75*
G02*
X175725000Y-62775000I200000J0D01*
G01*
G37*
%TD*%
%TO.C,R5*%
G36*
G01*
X181825000Y-74675000D02*
X181825000Y-74125000D01*
G75*
G02*
X182025000Y-73925000I200000J0D01*
G01*
X182425000Y-73925000D01*
G75*
G02*
X182625000Y-74125000I0J-200000D01*
G01*
X182625000Y-74675000D01*
G75*
G02*
X182425000Y-74875000I-200000J0D01*
G01*
X182025000Y-74875000D01*
G75*
G02*
X181825000Y-74675000I0J200000D01*
G01*
G37*
G36*
G01*
X180175000Y-74675000D02*
X180175000Y-74125000D01*
G75*
G02*
X180375000Y-73925000I200000J0D01*
G01*
X180775000Y-73925000D01*
G75*
G02*
X180975000Y-74125000I0J-200000D01*
G01*
X180975000Y-74675000D01*
G75*
G02*
X180775000Y-74875000I-200000J0D01*
G01*
X180375000Y-74875000D01*
G75*
G02*
X180175000Y-74675000I0J200000D01*
G01*
G37*
%TD*%
%TO.C,R4*%
G36*
G01*
X181825000Y-73275000D02*
X181825000Y-72725000D01*
G75*
G02*
X182025000Y-72525000I200000J0D01*
G01*
X182425000Y-72525000D01*
G75*
G02*
X182625000Y-72725000I0J-200000D01*
G01*
X182625000Y-73275000D01*
G75*
G02*
X182425000Y-73475000I-200000J0D01*
G01*
X182025000Y-73475000D01*
G75*
G02*
X181825000Y-73275000I0J200000D01*
G01*
G37*
G36*
G01*
X180175000Y-73275000D02*
X180175000Y-72725000D01*
G75*
G02*
X180375000Y-72525000I200000J0D01*
G01*
X180775000Y-72525000D01*
G75*
G02*
X180975000Y-72725000I0J-200000D01*
G01*
X180975000Y-73275000D01*
G75*
G02*
X180775000Y-73475000I-200000J0D01*
G01*
X180375000Y-73475000D01*
G75*
G02*
X180175000Y-73275000I0J200000D01*
G01*
G37*
%TD*%
%TO.C,R3*%
G36*
G01*
X170725000Y-78425000D02*
X171275000Y-78425000D01*
G75*
G02*
X171475000Y-78625000I0J-200000D01*
G01*
X171475000Y-79025000D01*
G75*
G02*
X171275000Y-79225000I-200000J0D01*
G01*
X170725000Y-79225000D01*
G75*
G02*
X170525000Y-79025000I0J200000D01*
G01*
X170525000Y-78625000D01*
G75*
G02*
X170725000Y-78425000I200000J0D01*
G01*
G37*
G36*
G01*
X170725000Y-76775000D02*
X171275000Y-76775000D01*
G75*
G02*
X171475000Y-76975000I0J-200000D01*
G01*
X171475000Y-77375000D01*
G75*
G02*
X171275000Y-77575000I-200000J0D01*
G01*
X170725000Y-77575000D01*
G75*
G02*
X170525000Y-77375000I0J200000D01*
G01*
X170525000Y-76975000D01*
G75*
G02*
X170725000Y-76775000I200000J0D01*
G01*
G37*
%TD*%
%TO.C,R2*%
G36*
G01*
X183575000Y-77675000D02*
X183025000Y-77675000D01*
G75*
G02*
X182825000Y-77475000I0J200000D01*
G01*
X182825000Y-77075000D01*
G75*
G02*
X183025000Y-76875000I200000J0D01*
G01*
X183575000Y-76875000D01*
G75*
G02*
X183775000Y-77075000I0J-200000D01*
G01*
X183775000Y-77475000D01*
G75*
G02*
X183575000Y-77675000I-200000J0D01*
G01*
G37*
G36*
G01*
X183575000Y-79325000D02*
X183025000Y-79325000D01*
G75*
G02*
X182825000Y-79125000I0J200000D01*
G01*
X182825000Y-78725000D01*
G75*
G02*
X183025000Y-78525000I200000J0D01*
G01*
X183575000Y-78525000D01*
G75*
G02*
X183775000Y-78725000I0J-200000D01*
G01*
X183775000Y-79125000D01*
G75*
G02*
X183575000Y-79325000I-200000J0D01*
G01*
G37*
%TD*%
%TO.C,R1*%
G36*
G01*
X183025000Y-81425000D02*
X183575000Y-81425000D01*
G75*
G02*
X183775000Y-81625000I0J-200000D01*
G01*
X183775000Y-82025000D01*
G75*
G02*
X183575000Y-82225000I-200000J0D01*
G01*
X183025000Y-82225000D01*
G75*
G02*
X182825000Y-82025000I0J200000D01*
G01*
X182825000Y-81625000D01*
G75*
G02*
X183025000Y-81425000I200000J0D01*
G01*
G37*
G36*
G01*
X183025000Y-79775000D02*
X183575000Y-79775000D01*
G75*
G02*
X183775000Y-79975000I0J-200000D01*
G01*
X183775000Y-80375000D01*
G75*
G02*
X183575000Y-80575000I-200000J0D01*
G01*
X183025000Y-80575000D01*
G75*
G02*
X182825000Y-80375000I0J200000D01*
G01*
X182825000Y-79975000D01*
G75*
G02*
X183025000Y-79775000I200000J0D01*
G01*
G37*
%TD*%
%TO.C,C1*%
G36*
G01*
X176175000Y-60650000D02*
X176175000Y-61150000D01*
G75*
G02*
X175950000Y-61375000I-225000J0D01*
G01*
X175500000Y-61375000D01*
G75*
G02*
X175275000Y-61150000I0J225000D01*
G01*
X175275000Y-60650000D01*
G75*
G02*
X175500000Y-60425000I225000J0D01*
G01*
X175950000Y-60425000D01*
G75*
G02*
X176175000Y-60650000I0J-225000D01*
G01*
G37*
G36*
G01*
X177725000Y-60650000D02*
X177725000Y-61150000D01*
G75*
G02*
X177500000Y-61375000I-225000J0D01*
G01*
X177050000Y-61375000D01*
G75*
G02*
X176825000Y-61150000I0J225000D01*
G01*
X176825000Y-60650000D01*
G75*
G02*
X177050000Y-60425000I225000J0D01*
G01*
X177500000Y-60425000D01*
G75*
G02*
X177725000Y-60650000I0J-225000D01*
G01*
G37*
%TD*%
%TO.C,D1*%
G36*
G01*
X171237500Y-80650000D02*
X170762500Y-80650000D01*
G75*
G02*
X170525000Y-80412500I0J237500D01*
G01*
X170525000Y-79837500D01*
G75*
G02*
X170762500Y-79600000I237500J0D01*
G01*
X171237500Y-79600000D01*
G75*
G02*
X171475000Y-79837500I0J-237500D01*
G01*
X171475000Y-80412500D01*
G75*
G02*
X171237500Y-80650000I-237500J0D01*
G01*
G37*
G36*
G01*
X171237500Y-82400000D02*
X170762500Y-82400000D01*
G75*
G02*
X170525000Y-82162500I0J237500D01*
G01*
X170525000Y-81587500D01*
G75*
G02*
X170762500Y-81350000I237500J0D01*
G01*
X171237500Y-81350000D01*
G75*
G02*
X171475000Y-81587500I0J-237500D01*
G01*
X171475000Y-82162500D01*
G75*
G02*
X171237500Y-82400000I-237500J0D01*
G01*
G37*
%TD*%
D16*
%TO.C,U2*%
X171230000Y-64900000D03*
X173770000Y-64900000D03*
X173770000Y-58900000D03*
X171230000Y-58900000D03*
%TD*%
D11*
%TO.C,J4*%
G36*
X173813071Y-76015685D02*
G01*
X173825139Y-76017555D01*
X173836968Y-76020591D01*
X173848444Y-76024769D01*
X173859457Y-76030047D01*
X173869903Y-76036373D01*
X173879681Y-76043688D01*
X173888699Y-76051924D01*
X173896871Y-76061001D01*
X173904118Y-76070830D01*
X173910370Y-76081320D01*
X173915570Y-76092371D01*
X173919666Y-76103875D01*
X173922620Y-76115725D01*
X173924404Y-76127807D01*
X173925000Y-76140005D01*
X173924402Y-76152203D01*
X173922618Y-76164284D01*
X173919663Y-76176134D01*
X173915566Y-76187638D01*
X173910366Y-76198688D01*
X173904112Y-76209178D01*
X173896865Y-76219007D01*
X173888692Y-76228082D01*
X173879674Y-76236317D01*
X173869895Y-76243632D01*
X173859449Y-76249958D01*
X173848435Y-76255235D01*
X173836959Y-76259411D01*
X173825129Y-76262447D01*
X173813061Y-76264315D01*
X173800868Y-76264997D01*
X173792977Y-76265052D01*
X173723107Y-76269448D01*
X173656573Y-76280224D01*
X173591405Y-76297443D01*
X173528238Y-76320934D01*
X173467665Y-76350477D01*
X173410261Y-76385792D01*
X173356576Y-76426541D01*
X173307120Y-76472337D01*
X173262373Y-76522737D01*
X173222754Y-76577269D01*
X173188653Y-76635392D01*
X173160381Y-76696580D01*
X173138216Y-76760228D01*
X173122368Y-76825739D01*
X173112988Y-76892476D01*
X173110166Y-76959813D01*
X173113929Y-77027106D01*
X173124240Y-77093718D01*
X173141001Y-77158998D01*
X173162742Y-77218729D01*
X173164112Y-77220691D01*
X173411285Y-77510000D01*
X174001371Y-77510000D01*
X173985529Y-77258200D01*
X173985431Y-77256458D01*
X173985431Y-77253835D01*
X173985285Y-77251225D01*
X173985003Y-77210874D01*
X173985003Y-77209129D01*
X173985685Y-77196934D01*
X173987553Y-77184866D01*
X173990590Y-77173038D01*
X173994767Y-77161561D01*
X174000044Y-77150548D01*
X174006370Y-77140102D01*
X174013685Y-77130323D01*
X174021920Y-77121304D01*
X174030996Y-77113133D01*
X174040826Y-77105885D01*
X174051315Y-77099632D01*
X174062365Y-77094432D01*
X174073870Y-77090336D01*
X174085719Y-77087381D01*
X174097801Y-77085596D01*
X174109999Y-77085000D01*
X174122197Y-77085597D01*
X174134279Y-77087380D01*
X174146129Y-77090335D01*
X174157633Y-77094431D01*
X174168683Y-77099631D01*
X174179173Y-77105884D01*
X174189003Y-77113132D01*
X174198078Y-77121303D01*
X174206314Y-77130321D01*
X174213629Y-77140100D01*
X174219955Y-77150546D01*
X174225232Y-77161560D01*
X174229410Y-77173036D01*
X174232446Y-77184865D01*
X174234315Y-77196933D01*
X174234997Y-77209126D01*
X174235255Y-77245993D01*
X174251865Y-77510000D01*
X179747196Y-77510000D01*
X179751655Y-77479804D01*
X179765149Y-77203894D01*
X179765246Y-77202151D01*
X179766608Y-77190014D01*
X179769148Y-77178069D01*
X179772840Y-77166429D01*
X179777651Y-77155203D01*
X179783534Y-77144502D01*
X179790434Y-77134425D01*
X179798283Y-77125070D01*
X179807009Y-77116525D01*
X179816527Y-77108873D01*
X179826746Y-77102185D01*
X179837569Y-77096528D01*
X179848892Y-77091953D01*
X179860607Y-77088505D01*
X179872603Y-77086216D01*
X179884766Y-77085109D01*
X179896978Y-77085195D01*
X179909123Y-77086472D01*
X179921087Y-77088927D01*
X179932753Y-77092538D01*
X179944010Y-77097271D01*
X179954753Y-77103080D01*
X179964878Y-77109908D01*
X179974288Y-77117693D01*
X179982893Y-77126359D01*
X179990612Y-77135822D01*
X179997370Y-77145995D01*
X180003103Y-77156778D01*
X180007757Y-77168069D01*
X180011287Y-77179760D01*
X180013659Y-77191740D01*
X180014850Y-77203894D01*
X180014851Y-77216106D01*
X180001058Y-77498121D01*
X180000961Y-77499864D01*
X180000371Y-77505118D01*
X179999893Y-77510000D01*
X180590209Y-77510000D01*
X180631934Y-77467229D01*
X180843014Y-77203671D01*
X180861783Y-77149774D01*
X180877632Y-77084261D01*
X180887012Y-77017524D01*
X180889834Y-76950187D01*
X180886071Y-76882894D01*
X180875760Y-76816286D01*
X180858998Y-76751002D01*
X180835949Y-76687677D01*
X180806825Y-76626888D01*
X180771912Y-76569239D01*
X180731542Y-76515276D01*
X180686093Y-76465504D01*
X180636003Y-76420402D01*
X180581756Y-76380408D01*
X180523866Y-76345899D01*
X180462879Y-76317200D01*
X180399392Y-76294594D01*
X180333993Y-76278288D01*
X180267319Y-76268442D01*
X180193893Y-76264851D01*
X180192151Y-76264754D01*
X180180014Y-76263392D01*
X180168069Y-76260852D01*
X180156428Y-76257160D01*
X180145203Y-76252349D01*
X180134502Y-76246465D01*
X180124425Y-76239566D01*
X180115070Y-76231716D01*
X180106525Y-76222990D01*
X180098873Y-76213472D01*
X180092185Y-76203253D01*
X180086528Y-76192431D01*
X180081953Y-76181108D01*
X180078505Y-76169393D01*
X180076216Y-76157396D01*
X180075109Y-76145234D01*
X180075195Y-76133021D01*
X180076472Y-76120876D01*
X180078927Y-76108913D01*
X180082538Y-76097246D01*
X180087271Y-76085989D01*
X180093080Y-76075246D01*
X180099909Y-76065122D01*
X180107694Y-76055712D01*
X180116359Y-76047107D01*
X180125823Y-76039388D01*
X180135995Y-76032630D01*
X180146778Y-76026897D01*
X180158069Y-76022243D01*
X180169760Y-76018713D01*
X180181740Y-76016341D01*
X180193894Y-76015150D01*
X180206107Y-76015149D01*
X180285637Y-76019039D01*
X180287379Y-76019136D01*
X180292633Y-76019726D01*
X180297791Y-76020231D01*
X180376561Y-76031863D01*
X180378286Y-76032130D01*
X180383412Y-76033219D01*
X180388541Y-76034235D01*
X180465801Y-76053498D01*
X180467491Y-76053932D01*
X180472486Y-76055516D01*
X180477492Y-76057028D01*
X180552504Y-76083738D01*
X180554143Y-76084335D01*
X180558953Y-76086396D01*
X180563795Y-76088392D01*
X180635841Y-76122295D01*
X180637415Y-76123049D01*
X180642033Y-76125587D01*
X180646624Y-76128028D01*
X180715019Y-76168799D01*
X180716511Y-76169702D01*
X180720861Y-76172680D01*
X180725191Y-76175557D01*
X180789281Y-76222808D01*
X180790678Y-76223853D01*
X180794687Y-76227217D01*
X180798746Y-76230527D01*
X180857918Y-76283807D01*
X180859207Y-76284983D01*
X180862874Y-76288729D01*
X180866584Y-76292412D01*
X180920275Y-76351211D01*
X180921442Y-76352507D01*
X180924742Y-76356612D01*
X180928059Y-76360621D01*
X180975757Y-76424380D01*
X180976793Y-76425784D01*
X180979670Y-76430181D01*
X180982586Y-76434504D01*
X181023834Y-76502612D01*
X181024728Y-76504111D01*
X181027154Y-76508753D01*
X181029644Y-76513357D01*
X181064048Y-76585166D01*
X181064791Y-76586744D01*
X181066775Y-76591656D01*
X181068779Y-76596422D01*
X181096013Y-76671244D01*
X181096599Y-76672888D01*
X181098087Y-76677945D01*
X181099625Y-76682912D01*
X181119427Y-76760035D01*
X181119849Y-76761728D01*
X181120831Y-76766874D01*
X181121883Y-76771999D01*
X181125392Y-76794668D01*
X181190027Y-76695484D01*
X181190990Y-76694029D01*
X181198287Y-76684235D01*
X181206505Y-76675202D01*
X181215565Y-76667013D01*
X181225381Y-76659747D01*
X181235859Y-76653474D01*
X181246899Y-76648253D01*
X181258395Y-76644134D01*
X181270240Y-76641157D01*
X181282318Y-76639351D01*
X181294515Y-76638730D01*
X181306714Y-76639304D01*
X181318798Y-76641064D01*
X181330653Y-76643996D01*
X181342166Y-76648071D01*
X181353227Y-76653250D01*
X181363729Y-76659483D01*
X181373572Y-76666712D01*
X181382663Y-76674866D01*
X181390916Y-76683869D01*
X181398249Y-76693633D01*
X181404596Y-76704068D01*
X181409893Y-76715071D01*
X181414092Y-76726539D01*
X181417151Y-76738362D01*
X181419043Y-76750427D01*
X181419748Y-76762619D01*
X181419260Y-76774822D01*
X181417583Y-76786918D01*
X181414734Y-76798794D01*
X181410739Y-76810335D01*
X181405638Y-76821430D01*
X181399479Y-76831976D01*
X181134173Y-77239097D01*
X181133210Y-77240552D01*
X181130060Y-77244779D01*
X181127013Y-77248991D01*
X181059808Y-77332904D01*
X181035728Y-77385018D01*
X181034985Y-77386597D01*
X181032485Y-77391220D01*
X181030070Y-77395840D01*
X180989777Y-77464518D01*
X180988884Y-77466017D01*
X180985937Y-77470386D01*
X180983089Y-77474738D01*
X180936287Y-77539156D01*
X180935251Y-77540560D01*
X180931897Y-77544614D01*
X180928635Y-77548672D01*
X180875770Y-77608216D01*
X180874603Y-77609513D01*
X180870877Y-77613213D01*
X180867225Y-77616943D01*
X180808802Y-77671042D01*
X180807513Y-77672219D01*
X180803473Y-77675514D01*
X180799448Y-77678892D01*
X180750000Y-77716425D01*
X180750000Y-80237838D01*
X180918597Y-80361232D01*
X180919998Y-80362272D01*
X180924021Y-80365624D01*
X180928089Y-80368918D01*
X181373053Y-80766762D01*
X181374346Y-80767934D01*
X181376033Y-80769645D01*
X181377816Y-80771250D01*
X181408080Y-80801305D01*
X181409310Y-80802543D01*
X181417419Y-80811676D01*
X181424596Y-80821556D01*
X181430776Y-80832089D01*
X181435899Y-80843176D01*
X181439915Y-80854709D01*
X181442786Y-80866579D01*
X181444486Y-80878672D01*
X181444997Y-80890874D01*
X181444315Y-80903068D01*
X181442447Y-80915137D01*
X181439409Y-80926965D01*
X181435233Y-80938441D01*
X181429956Y-80949454D01*
X181423630Y-80959900D01*
X181416314Y-80969680D01*
X181408079Y-80978698D01*
X181399003Y-80986869D01*
X181389173Y-80994116D01*
X181378683Y-81000370D01*
X181367633Y-81005569D01*
X181356128Y-81009666D01*
X181344279Y-81012620D01*
X181332197Y-81014404D01*
X181319999Y-81015000D01*
X181307802Y-81014404D01*
X181295720Y-81012619D01*
X181283871Y-81009665D01*
X181272366Y-81005568D01*
X181261315Y-81000368D01*
X181250826Y-80994114D01*
X181240996Y-80986867D01*
X181231920Y-80978696D01*
X181203984Y-80950954D01*
X180766015Y-80559363D01*
X180466293Y-80340000D01*
X179500000Y-80340000D01*
X179500000Y-81440000D01*
X180750000Y-81440000D01*
X180750000Y-83000000D01*
X173250000Y-83000000D01*
X173250000Y-81440000D01*
X174500000Y-81440000D01*
X174500000Y-80340000D01*
X173532537Y-80340000D01*
X173201610Y-80585769D01*
X172763965Y-80982601D01*
X172762664Y-80983764D01*
X172753119Y-80991383D01*
X172742877Y-80998034D01*
X172732035Y-81003655D01*
X172720696Y-81008190D01*
X172708968Y-81011597D01*
X172696964Y-81013843D01*
X172684799Y-81014908D01*
X172672587Y-81014780D01*
X172660445Y-81013461D01*
X172648491Y-81010964D01*
X172636838Y-81007311D01*
X172625596Y-81002540D01*
X172614874Y-80996694D01*
X172604773Y-80989830D01*
X172595390Y-80982012D01*
X172586815Y-80973316D01*
X172579130Y-80963826D01*
X172572407Y-80953630D01*
X172566711Y-80942827D01*
X172562097Y-80931520D01*
X172558608Y-80919817D01*
X172556278Y-80907829D01*
X172555129Y-80895670D01*
X172555172Y-80883458D01*
X172556405Y-80871308D01*
X172558819Y-80859337D01*
X172562390Y-80847658D01*
X172567083Y-80836383D01*
X172572854Y-80825620D01*
X172579648Y-80815472D01*
X172587400Y-80806035D01*
X172596035Y-80797399D01*
X173038211Y-80396459D01*
X173039512Y-80395296D01*
X173043633Y-80392006D01*
X173047648Y-80388708D01*
X173250000Y-80238428D01*
X173250000Y-77716152D01*
X173210719Y-77687192D01*
X173209321Y-77686147D01*
X173205304Y-77682776D01*
X173201254Y-77679473D01*
X173142081Y-77626193D01*
X173140793Y-77625016D01*
X173137146Y-77621292D01*
X173133416Y-77617588D01*
X173079725Y-77558789D01*
X173078557Y-77557492D01*
X173075254Y-77553384D01*
X173071941Y-77549379D01*
X173024243Y-77485620D01*
X173023207Y-77484216D01*
X173020330Y-77479819D01*
X173017414Y-77475496D01*
X172976166Y-77407388D01*
X172975272Y-77405889D01*
X172972839Y-77401235D01*
X172970356Y-77396643D01*
X172944756Y-77343209D01*
X172684504Y-76970276D01*
X172683516Y-76968838D01*
X172681696Y-76965845D01*
X172679764Y-76962950D01*
X172572752Y-76784209D01*
X172571866Y-76782706D01*
X172566263Y-76771854D01*
X172561746Y-76760508D01*
X172558357Y-76748775D01*
X172556129Y-76736767D01*
X172555085Y-76724600D01*
X172555232Y-76712388D01*
X172556570Y-76700250D01*
X172559087Y-76688299D01*
X172562758Y-76676651D01*
X172567547Y-76665417D01*
X172573410Y-76654705D01*
X172580290Y-76644615D01*
X172588122Y-76635245D01*
X172596831Y-76626683D01*
X172606335Y-76619012D01*
X172616541Y-76612306D01*
X172627353Y-76606628D01*
X172638668Y-76602031D01*
X172650377Y-76598561D01*
X172662368Y-76596250D01*
X172674528Y-76595120D01*
X172686740Y-76595182D01*
X172698888Y-76596435D01*
X172710856Y-76598869D01*
X172722529Y-76602457D01*
X172733796Y-76607169D01*
X172744550Y-76612957D01*
X172754687Y-76619766D01*
X172764112Y-76627533D01*
X172772734Y-76636183D01*
X172780470Y-76645632D01*
X172787248Y-76655791D01*
X172873540Y-76799923D01*
X172875653Y-76784887D01*
X172875907Y-76783160D01*
X172876970Y-76777980D01*
X172877941Y-76772891D01*
X172896664Y-76695499D01*
X172897086Y-76693806D01*
X172898636Y-76688801D01*
X172900112Y-76683784D01*
X172926298Y-76608588D01*
X172926883Y-76606944D01*
X172928917Y-76602105D01*
X172930873Y-76597264D01*
X172964272Y-76524983D01*
X172965015Y-76523404D01*
X172967506Y-76518797D01*
X172969930Y-76514160D01*
X173010223Y-76445482D01*
X173011116Y-76443983D01*
X173014053Y-76439628D01*
X173016910Y-76435262D01*
X173063713Y-76370845D01*
X173064748Y-76369440D01*
X173068110Y-76365377D01*
X173071365Y-76361328D01*
X173124230Y-76301784D01*
X173125397Y-76300487D01*
X173129143Y-76296767D01*
X173132775Y-76293058D01*
X173191198Y-76238958D01*
X173192486Y-76237781D01*
X173196567Y-76234453D01*
X173200553Y-76231108D01*
X173263977Y-76182966D01*
X173265374Y-76181921D01*
X173269740Y-76179020D01*
X173274054Y-76176066D01*
X173341873Y-76134344D01*
X173343366Y-76133440D01*
X173348017Y-76130967D01*
X173352575Y-76128461D01*
X173424140Y-76093556D01*
X173425714Y-76092802D01*
X173430567Y-76090802D01*
X173435366Y-76088745D01*
X173509998Y-76060989D01*
X173511638Y-76060392D01*
X173516661Y-76058876D01*
X173521638Y-76057297D01*
X173598621Y-76036957D01*
X173600311Y-76036523D01*
X173605470Y-76035502D01*
X173610566Y-76034418D01*
X173689167Y-76021687D01*
X173690891Y-76021420D01*
X173696128Y-76020906D01*
X173701304Y-76020326D01*
X173780772Y-76015326D01*
X173782514Y-76015228D01*
X173785143Y-76015228D01*
X173787753Y-76015082D01*
X173799132Y-76015003D01*
X173800877Y-76015003D01*
X173813071Y-76015685D01*
G37*
D17*
X174600000Y-76140000D03*
X179400000Y-76140000D03*
D18*
X181320000Y-80890000D03*
X172680000Y-80890000D03*
D19*
X181320000Y-76720000D03*
X172680000Y-76720000D03*
D20*
X177250000Y-76140000D03*
X176750000Y-76140000D03*
X177750000Y-76140000D03*
X176250000Y-76140000D03*
X178250000Y-76140000D03*
X175750000Y-76140000D03*
X178750000Y-76140000D03*
X175250000Y-76140000D03*
D17*
X180200000Y-76140000D03*
X173800000Y-76140000D03*
%TD*%
D21*
%TO.C,J2*%
X176250000Y-58600000D03*
X177520000Y-58600000D03*
X178790000Y-58600000D03*
X180060000Y-58600000D03*
X181330000Y-58600000D03*
D22*
X182600000Y-58600000D03*
%TD*%
M02*
