%TF.GenerationSoftware,KiCad,Pcbnew,(6.0.0-0)*%
%TF.CreationDate,2022-01-02T19:24:35+00:00*%
%TF.ProjectId,Shelly,5368656c-6c79-42e6-9b69-6361645f7063,4*%
%TF.SameCoordinates,Original*%
%TF.FileFunction,Copper,L1,Top*%
%TF.FilePolarity,Positive*%
%FSLAX46Y46*%
G04 Gerber Fmt 4.6, Leading zero omitted, Abs format (unit mm)*
G04 Created by KiCad (PCBNEW (6.0.0-0)) date 2022-01-02 19:24:35*
%MOMM*%
%LPD*%
G01*
G04 APERTURE LIST*
G04 Aperture macros list*
%AMRoundRect*
0 Rectangle with rounded corners*
0 $1 Rounding radius*
0 $2 $3 $4 $5 $6 $7 $8 $9 X,Y pos of 4 corners*
0 Add a 4 corners polygon primitive as box body*
4,1,4,$2,$3,$4,$5,$6,$7,$8,$9,$2,$3,0*
0 Add four circle primitives for the rounded corners*
1,1,$1+$1,$2,$3*
1,1,$1+$1,$4,$5*
1,1,$1+$1,$6,$7*
1,1,$1+$1,$8,$9*
0 Add four rect primitives between the rounded corners*
20,1,$1+$1,$2,$3,$4,$5,0*
20,1,$1+$1,$4,$5,$6,$7,0*
20,1,$1+$1,$6,$7,$8,$9,0*
20,1,$1+$1,$8,$9,$2,$3,0*%
%AMFreePoly0*
4,1,6,1.000000,-1.000000,-1.000000,-1.000000,-1.000000,0.750000,-0.750000,1.000000,1.000000,1.000000,1.000000,-1.000000,1.000000,-1.000000,$1*%
%AMFreePoly1*
4,1,136,3.383385,4.221938,3.559722,4.168447,3.722236,4.081581,3.864680,3.964680,3.981581,3.822236,4.068447,3.659722,4.121938,3.483385,4.125212,3.450146,4.182769,3.539510,4.186818,3.554319,4.232803,3.599839,4.295387,3.616268,4.357802,3.599205,4.403322,3.553220,4.419751,3.490636,4.402688,3.428221,4.402685,3.428218,4.172659,3.069707,4.056942,2.918754,3.981581,2.777764,
3.864680,2.635320,3.750000,2.541204,3.750000,0.022998,4.066621,-0.229499,4.408387,-0.546611,4.440740,-0.602647,4.440740,-0.667351,4.408387,-0.723387,4.352351,-0.755740,4.287647,-0.755740,4.231611,-0.723387,4.223834,-0.709917,3.889556,-0.400914,3.520256,-0.109781,3.483169,-0.085000,2.500000,-0.085000,2.500000,-1.185000,3.750000,-1.185000,3.750000,-2.745000,-3.750000,-2.745000,
-3.750000,-1.185000,-2.500000,-1.185000,-2.500000,-0.085000,-3.483168,-0.085000,-3.520257,-0.109782,-3.889557,-0.400914,-4.223835,-0.709917,-4.231612,-0.723388,-4.287648,-0.755741,-4.352352,-0.755741,-4.408388,-0.723388,-4.440741,-0.667352,-4.440741,-0.602648,-4.408388,-0.546612,-4.066622,-0.229500,-3.750000,0.022998,-3.750000,2.541204,-3.864680,2.635320,-3.981581,2.777764,-4.057092,2.919035,
-4.187017,3.090259,-4.415279,3.449900,-4.432036,3.512397,-4.415299,3.574900,-4.369553,3.620660,-4.307056,3.637417,-4.244553,3.620680,-4.198793,3.574934,-4.194818,3.560109,-4.125151,3.450765,-4.121938,3.483385,-4.068447,3.659722,-3.981581,3.822236,-3.864680,3.964680,-3.722236,4.081581,-3.559722,4.168447,-3.383385,4.221938,-3.200000,4.240000,-3.137500,4.223253,-3.091747,4.177500,
-3.075000,4.115000,-3.091747,4.052500,-3.137500,4.006747,-3.200000,3.990000,-3.211471,3.993074,-3.354511,3.976957,-3.501274,3.925602,-3.632930,3.842877,-3.742877,3.732930,-3.825602,3.601274,-3.876957,3.454511,-3.894366,3.300000,-3.876957,3.145489,-3.839651,3.038875,-3.718794,2.881317,-3.593979,2.745000,-2.998152,2.745000,-3.015000,3.045000,-2.998253,3.107500,-2.952500,3.153253,
-2.890000,3.170000,-2.827500,3.153253,-2.781747,3.107500,-2.765000,3.045000,-2.768849,3.030634,-2.752213,2.745000,2.752213,2.745000,2.768849,3.030634,2.765000,3.045000,2.781747,3.107500,2.827500,3.153253,2.890000,3.170000,2.952500,3.153253,2.998253,3.107500,3.015000,3.045000,2.998152,2.745000,3.594236,2.745000,3.703415,2.863070,3.839654,3.038885,3.876957,3.145489,
3.894366,3.300000,3.876957,3.454511,3.825602,3.601274,3.742877,3.732930,3.632930,3.842877,3.501274,3.925602,3.354511,3.976957,3.211471,3.993074,3.200000,3.990000,3.137500,4.006747,3.091747,4.052500,3.075000,4.115000,3.091747,4.177500,3.137500,4.223253,3.200000,4.240000,3.383385,4.221938,3.383385,4.221938,$1*%
%AMFreePoly2*
4,1,24,1.812500,0.558253,1.858253,0.512500,1.875000,0.450000,1.860584,0.322050,1.818057,0.200517,1.749553,0.091493,1.658507,0.000447,1.549483,-0.068057,1.427950,-0.110584,1.300000,-0.125000,-1.300000,-0.125000,-1.300000,0.125000,1.300000,0.125000,1.309502,0.122454,1.401682,0.137054,1.493411,0.183792,1.566208,0.256589,1.612946,0.348318,1.627546,0.440498,1.625000,0.450000,
1.641747,0.512500,1.687500,0.558253,1.750000,0.575000,1.812500,0.558253,1.812500,0.558253,$1*%
%AMFreePoly3*
4,1,24,1.427950,0.110584,1.549483,0.068057,1.658507,-0.000447,1.749553,-0.091493,1.818057,-0.200517,1.860584,-0.322050,1.875000,-0.450000,1.858253,-0.512500,1.812500,-0.558253,1.750000,-0.575000,1.687500,-0.558253,1.641747,-0.512500,1.625000,-0.450000,1.627546,-0.440498,1.612946,-0.348318,1.566208,-0.256589,1.493411,-0.183792,1.401682,-0.137054,1.309502,-0.122454,1.300000,-0.125000,
-1.300000,-0.125000,-1.300000,0.125000,1.300000,0.125000,1.427950,0.110584,1.427950,0.110584,$1*%
%AMFreePoly4*
4,1,37,1.095671,1.230970,1.176777,1.176777,1.230970,1.095671,1.250000,1.000000,1.234611,0.804457,1.188821,0.613729,1.113759,0.432512,1.011272,0.265269,0.883885,0.116117,0.734733,-0.011271,0.567490,-0.113758,0.386273,-0.188820,0.195545,-0.234610,0.000002,-0.250000,-0.095669,-0.230970,-0.176775,-0.176777,-0.230968,-0.095671,-0.249998,0.000000,-0.230968,0.095671,-0.176775,0.176777,
-0.095669,0.230970,0.000002,0.250000,0.012204,0.247573,0.147027,0.260852,0.288403,0.303738,0.418695,0.373381,0.532897,0.467104,0.626620,0.581306,0.696263,0.711599,0.739148,0.852974,0.752427,0.987798,0.750000,1.000000,0.769030,1.095671,0.823223,1.176777,0.904329,1.230970,1.000000,1.250000,1.095671,1.230970,1.095671,1.230970,$1*%
%AMFreePoly5*
4,1,72,4.686563,7.086550,4.817878,7.046716,4.938899,6.982029,5.044975,6.894975,5.132029,6.788899,5.196716,6.667878,5.236550,6.536563,5.250000,6.400000,5.250000,1.600000,5.230970,1.504329,5.176777,1.423223,5.112500,1.380275,5.112500,0.250000,6.600000,0.250000,6.695671,0.230970,6.776777,0.176777,6.830970,0.095671,6.850000,0.000000,6.830970,-0.095671,6.776777,-0.176777,
6.695671,-0.230970,6.600000,-0.250000,0.000000,-0.250000,-0.095671,-0.230970,-0.176777,-0.176777,-0.230970,-0.095671,-0.250000,0.000000,-0.230970,0.095671,-0.176777,0.176777,-0.095671,0.230970,0.000000,0.250000,4.612500,0.250000,4.612500,1.600000,4.631530,1.695671,4.685723,1.776777,4.750000,1.819725,4.750000,6.400000,4.751388,6.406978,4.742582,6.462574,4.713820,6.519022,
4.669022,6.563820,4.612574,6.592582,4.556978,6.601388,4.550000,6.600000,1.550000,6.600000,1.543022,6.601388,1.487426,6.592582,1.430978,6.563820,1.386180,6.519022,1.357418,6.462574,1.348612,6.406978,1.350000,6.400000,1.350000,5.900000,1.330970,5.804329,1.276777,5.723223,1.195671,5.669030,1.100000,5.650000,1.004329,5.669030,0.923223,5.723223,0.869030,5.804329,
0.850000,5.900000,0.850000,6.400000,0.863450,6.536563,0.903284,6.667878,0.967971,6.788899,1.055025,6.894975,1.161101,6.982029,1.282122,7.046716,1.413437,7.086550,1.550000,7.100000,4.550000,7.100000,4.686563,7.086550,4.686563,7.086550,$1*%
%AMFreePoly6*
4,1,60,4.834761,1.684672,5.024726,1.639066,5.205218,1.564304,5.371792,1.462227,5.520347,1.335349,5.647226,1.186794,5.749303,1.020220,5.824065,0.839728,5.869672,0.649763,5.882971,0.480778,6.469120,-1.362112,6.474975,-1.397505,6.456516,-1.465416,6.404294,-1.512593,6.334861,-1.524080,6.270227,-1.496235,6.230880,-1.437887,5.640880,0.417113,5.635025,0.452505,5.635349,0.453698,
5.635000,0.455002,5.637865,0.465696,5.623627,0.628442,5.578566,0.796612,5.504987,0.954402,5.405126,1.097018,5.282017,1.220127,5.139400,1.319988,4.981610,1.393566,4.813440,1.438627,4.650694,1.452865,4.640000,1.450000,1.294998,1.450000,1.294996,1.450001,1.278652,1.452371,1.121558,1.438627,0.953388,1.393566,0.795598,1.319987,0.652982,1.220126,0.529873,1.097017,
0.430012,0.954400,0.356434,0.796610,0.311373,0.628440,0.300000,0.498442,0.300000,-0.550000,-0.300000,-0.550000,-0.300000,0.550000,0.057477,0.550000,0.065328,0.649761,0.110934,0.839726,0.185696,1.020218,0.287773,1.186792,0.414651,1.335347,0.563206,1.462226,0.729780,1.564303,0.910272,1.639065,1.100237,1.684672,1.294998,1.700000,4.640000,1.700000,4.834761,1.684672,
4.834761,1.684672,$1*%
G04 Aperture macros list end*
%TA.AperFunction,SMDPad,CuDef*%
%ADD10RoundRect,0.237500X0.237500X-0.287500X0.237500X0.287500X-0.237500X0.287500X-0.237500X-0.287500X0*%
%TD*%
%TA.AperFunction,SMDPad,CuDef*%
%ADD11RoundRect,0.200000X0.275000X-0.200000X0.275000X0.200000X-0.275000X0.200000X-0.275000X-0.200000X0*%
%TD*%
%TA.AperFunction,ComponentPad*%
%ADD12R,1.700000X1.700000*%
%TD*%
%TA.AperFunction,ComponentPad*%
%ADD13O,1.700000X1.700000*%
%TD*%
%TA.AperFunction,SMDPad,CuDef*%
%ADD14RoundRect,0.062500X0.287500X0.062500X-0.287500X0.062500X-0.287500X-0.062500X0.287500X-0.062500X0*%
%TD*%
%TA.AperFunction,SMDPad,CuDef*%
%ADD15RoundRect,0.062500X0.062500X0.287500X-0.062500X0.287500X-0.062500X-0.287500X0.062500X-0.287500X0*%
%TD*%
%TA.AperFunction,SMDPad,CuDef*%
%ADD16FreePoly0,180.000000*%
%TD*%
%TA.AperFunction,ComponentPad*%
%ADD17C,0.350000*%
%TD*%
%TA.AperFunction,SMDPad,CuDef*%
%ADD18R,0.600000X1.140000*%
%TD*%
%TA.AperFunction,SMDPad,CuDef*%
%ADD19RoundRect,0.075000X-0.075000X-0.495000X0.075000X-0.495000X0.075000X0.495000X-0.075000X0.495000X0*%
%TD*%
%TA.AperFunction,ComponentPad*%
%ADD20C,1.500000*%
%TD*%
%TA.AperFunction,ComponentPad*%
%ADD21C,1.250000*%
%TD*%
%TA.AperFunction,SMDPad,CuDef*%
%ADD22R,5.000000X5.490000*%
%TD*%
%TA.AperFunction,SMDPad,CuDef*%
%ADD23FreePoly1,0.000000*%
%TD*%
%TA.AperFunction,ComponentPad*%
%ADD24C,0.600000*%
%TD*%
%TA.AperFunction,SMDPad,CuDef*%
%ADD25RoundRect,0.200000X-0.275000X0.200000X-0.275000X-0.200000X0.275000X-0.200000X0.275000X0.200000X0*%
%TD*%
%TA.AperFunction,SMDPad,CuDef*%
%ADD26RoundRect,0.200000X-0.200000X-0.275000X0.200000X-0.275000X0.200000X0.275000X-0.200000X0.275000X0*%
%TD*%
%TA.AperFunction,SMDPad,CuDef*%
%ADD27R,0.650000X0.400000*%
%TD*%
%TA.AperFunction,SMDPad,CuDef*%
%ADD28RoundRect,0.225000X0.225000X0.250000X-0.225000X0.250000X-0.225000X-0.250000X0.225000X-0.250000X0*%
%TD*%
%TA.AperFunction,SMDPad,CuDef*%
%ADD29RoundRect,0.150000X-0.587500X-0.150000X0.587500X-0.150000X0.587500X0.150000X-0.587500X0.150000X0*%
%TD*%
%TA.AperFunction,SMDPad,CuDef*%
%ADD30FreePoly2,0.000000*%
%TD*%
%TA.AperFunction,SMDPad,CuDef*%
%ADD31RoundRect,0.225000X0.250000X-0.225000X0.250000X0.225000X-0.250000X0.225000X-0.250000X-0.225000X0*%
%TD*%
%TA.AperFunction,SMDPad,CuDef*%
%ADD32R,0.600000X1.100000*%
%TD*%
%TA.AperFunction,SMDPad,CuDef*%
%ADD33R,1.425000X3.700000*%
%TD*%
%TA.AperFunction,SMDPad,CuDef*%
%ADD34R,0.500000X2.000000*%
%TD*%
%TA.AperFunction,SMDPad,CuDef*%
%ADD35RoundRect,0.249375X-0.463125X-0.625625X0.463125X-0.625625X0.463125X0.625625X-0.463125X0.625625X0*%
%TD*%
%TA.AperFunction,SMDPad,CuDef*%
%ADD36FreePoly3,0.000000*%
%TD*%
%TA.AperFunction,SMDPad,CuDef*%
%ADD37R,2.000000X0.500000*%
%TD*%
%TA.AperFunction,SMDPad,CuDef*%
%ADD38RoundRect,0.250000X-0.475000X0.250000X-0.475000X-0.250000X0.475000X-0.250000X0.475000X0.250000X0*%
%TD*%
%TA.AperFunction,SMDPad,CuDef*%
%ADD39FreePoly4,0.000000*%
%TD*%
%TA.AperFunction,SMDPad,CuDef*%
%ADD40FreePoly5,0.000000*%
%TD*%
%TA.AperFunction,SMDPad,CuDef*%
%ADD41R,0.500000X4.000000*%
%TD*%
%TA.AperFunction,SMDPad,CuDef*%
%ADD42FreePoly6,0.000000*%
%TD*%
%TA.AperFunction,ComponentPad*%
%ADD43R,1.000000X1.000000*%
%TD*%
%TA.AperFunction,ComponentPad*%
%ADD44O,1.000000X1.000000*%
%TD*%
%TA.AperFunction,ViaPad*%
%ADD45C,0.800000*%
%TD*%
%TA.AperFunction,Conductor*%
%ADD46C,0.250000*%
%TD*%
%TA.AperFunction,Conductor*%
%ADD47C,0.500000*%
%TD*%
G04 APERTURE END LIST*
D10*
%TO.P,D3,1,K*%
%TO.N,Net-(D3-Pad1)*%
X171000000Y-81875000D03*
%TO.P,D3,2,A*%
%TO.N,Net-(D3-Pad2)*%
X171000000Y-80125000D03*
%TD*%
D11*
%TO.P,R3,1*%
%TO.N,GND*%
X183300000Y-78925000D03*
%TO.P,R3,2*%
%TO.N,Net-(J3-PadB5)*%
X183300000Y-77275000D03*
%TD*%
D12*
%TO.P,J1,1,Pin_1*%
%TO.N,GND*%
X182200000Y-56100000D03*
D13*
%TO.P,J1,2,Pin_2*%
%TO.N,GPIO0*%
X179660000Y-56100000D03*
%TO.P,J1,3,Pin_3*%
%TO.N,Net-(J1-Pad3)*%
X177120000Y-56100000D03*
%TO.P,J1,4,Pin_4*%
%TO.N,RXD*%
X174580000Y-56100000D03*
%TO.P,J1,5,Pin_5*%
%TO.N,TXD*%
X172040000Y-56100000D03*
%TD*%
D14*
%TO.P,U1,1,RXD*%
%TO.N,TXD*%
X182600000Y-63200000D03*
%TO.P,U1,2,~{RI}*%
%TO.N,GND*%
X182600000Y-62700000D03*
%TO.P,U1,3,GND*%
X182600000Y-62200000D03*
%TO.P,U1,4,~{DSR}*%
X182600000Y-61700000D03*
%TO.P,U1,5,~{DCD}*%
X182600000Y-61200000D03*
D15*
%TO.P,U1,6,~{CTS}*%
X181700000Y-60300000D03*
%TO.P,U1,7,CBUS2*%
%TO.N,unconnected-(U1-Pad7)*%
X181200000Y-60300000D03*
%TO.P,U1,8,USBDP*%
%TO.N,D+*%
X180700000Y-60300000D03*
%TO.P,U1,9,USBDM*%
%TO.N,D-*%
X180200000Y-60300000D03*
%TO.P,U1,10,3V3OUT*%
%TO.N,Net-(C1-Pad1)*%
X179700000Y-60300000D03*
D14*
%TO.P,U1,11,~{RESET}*%
X178800000Y-61200000D03*
%TO.P,U1,12,VCC*%
%TO.N,VBUS*%
X178800000Y-61700000D03*
%TO.P,U1,13,GND*%
%TO.N,GND*%
X178800000Y-62200000D03*
%TO.P,U1,14,CBUS1*%
%TO.N,unconnected-(U1-Pad14)*%
X178800000Y-62700000D03*
%TO.P,U1,15,CBUS0*%
%TO.N,Net-(D3-Pad1)*%
X178800000Y-63200000D03*
D15*
%TO.P,U1,16,CBUS3*%
%TO.N,unconnected-(U1-Pad16)*%
X179700000Y-64100000D03*
%TO.P,U1,17,TXD*%
%TO.N,RXD*%
X180200000Y-64100000D03*
%TO.P,U1,18,~{DTR}*%
%TO.N,GPIO0*%
X180700000Y-64100000D03*
%TO.P,U1,19,~{RTS}*%
%TO.N,RST*%
X181200000Y-64100000D03*
%TO.P,U1,20,VCCIO*%
%TO.N,Net-(C1-Pad1)*%
X181700000Y-64100000D03*
D16*
%TO.P,U1,21,GND*%
%TO.N,GND*%
X180700000Y-62200000D03*
D17*
X180700000Y-62200000D03*
%TD*%
D18*
%TO.P,J3,A1,GND*%
%TO.N,GND*%
X173800000Y-76040000D03*
%TO.P,J3,A4,VBUS*%
%TO.N,VBUS*%
X174600000Y-76040000D03*
D19*
%TO.P,J3,A5,CC1*%
%TO.N,Net-(J3-PadA5)*%
X175750000Y-76040000D03*
%TO.P,J3,A6,D+*%
%TO.N,Net-(J3-PadA6)*%
X176750000Y-76040000D03*
%TO.P,J3,A7,D-*%
%TO.N,Net-(J3-PadA7)*%
X177250000Y-76040000D03*
%TO.P,J3,A8,SBU1*%
%TO.N,unconnected-(J3-PadA8)*%
X178250000Y-76040000D03*
D18*
%TO.P,J3,A9,VBUS*%
%TO.N,VBUS*%
X179400000Y-76040000D03*
%TO.P,J3,A12,GND*%
%TO.N,GND*%
X180200000Y-76040000D03*
%TO.P,J3,B1,GND*%
X180200000Y-76040000D03*
%TO.P,J3,B4,VBUS*%
%TO.N,VBUS*%
X179400000Y-76040000D03*
D19*
%TO.P,J3,B5,CC2*%
%TO.N,Net-(J3-PadB5)*%
X178750000Y-76040000D03*
%TO.P,J3,B6,D+*%
%TO.N,Net-(J3-PadA6)*%
X177750000Y-76040000D03*
%TO.P,J3,B7,D-*%
%TO.N,Net-(J3-PadA7)*%
X176250000Y-76040000D03*
%TO.P,J3,B8,SBU2*%
%TO.N,unconnected-(J3-PadB8)*%
X175250000Y-76040000D03*
D18*
%TO.P,J3,B9,VBUS*%
%TO.N,VBUS*%
X174600000Y-76040000D03*
%TO.P,J3,B12,GND*%
%TO.N,GND*%
X173800000Y-76040000D03*
D20*
%TO.P,J3,S1,SHIELD*%
X181320000Y-76620000D03*
D21*
X172680000Y-80790000D03*
D22*
X177000000Y-80155000D03*
D21*
X181320000Y-80790000D03*
D23*
X177000000Y-80155000D03*
D24*
X174110000Y-77110000D03*
X179890000Y-77110000D03*
D20*
X172680000Y-76620000D03*
%TD*%
D25*
%TO.P,R6,1*%
%TO.N,+3V3*%
X171000000Y-77175000D03*
%TO.P,R6,2*%
%TO.N,Net-(D3-Pad2)*%
X171000000Y-78825000D03*
%TD*%
%TO.P,R2,1*%
%TO.N,Net-(J3-PadA5)*%
X183300000Y-80175000D03*
%TO.P,R2,2*%
%TO.N,GND*%
X183300000Y-81825000D03*
%TD*%
D26*
%TO.P,R4,1*%
%TO.N,Net-(J3-PadA7)*%
X180575000Y-73000000D03*
%TO.P,R4,2*%
%TO.N,D-*%
X182225000Y-73000000D03*
%TD*%
%TO.P,R5,1*%
%TO.N,Net-(J3-PadA6)*%
X180575000Y-74320000D03*
%TO.P,R5,2*%
%TO.N,D+*%
X182225000Y-74320000D03*
%TD*%
D27*
%TO.P,D1,1,A1*%
%TO.N,GND*%
X180400000Y-69750000D03*
%TO.P,D1,2,K2*%
%TO.N,+3V3*%
X180400000Y-70400000D03*
%TO.P,D1,3,K1A2*%
%TO.N,RST*%
X180400000Y-71050000D03*
%TO.P,D1,4,A3*%
%TO.N,GND*%
X182300000Y-71050000D03*
%TO.P,D1,5,K4*%
%TO.N,+3V3*%
X182300000Y-70400000D03*
%TO.P,D1,6,K3A4*%
%TO.N,TXD*%
X182300000Y-69750000D03*
%TD*%
%TO.P,D2,1,A1*%
%TO.N,GND*%
X180350000Y-66750000D03*
%TO.P,D2,2,K2*%
%TO.N,+3V3*%
X180350000Y-67400000D03*
%TO.P,D2,3,K1A2*%
%TO.N,RXD*%
X180350000Y-68050000D03*
%TO.P,D2,4,A3*%
%TO.N,GND*%
X182250000Y-68050000D03*
%TO.P,D2,5,K4*%
%TO.N,+3V3*%
X182250000Y-67400000D03*
%TO.P,D2,6,K3A4*%
%TO.N,GPIO0*%
X182250000Y-66750000D03*
%TD*%
D11*
%TO.P,R1,1*%
%TO.N,GND*%
X174500000Y-62025000D03*
%TO.P,R1,2*%
%TO.N,Net-(J1-Pad3)*%
X174500000Y-60375000D03*
%TD*%
D28*
%TO.P,C1,1*%
%TO.N,Net-(C1-Pad1)*%
X177375000Y-60400000D03*
%TO.P,C1,2*%
%TO.N,GND*%
X175825000Y-60400000D03*
%TD*%
D29*
%TO.P,Q1,1,G*%
%TO.N,RST*%
X171062500Y-59250000D03*
%TO.P,Q1,2,S*%
%TO.N,+3V3*%
X171062500Y-61150000D03*
%TO.P,Q1,3,D*%
%TO.N,Net-(J1-Pad3)*%
X172937500Y-60200000D03*
%TD*%
D30*
%TO.P,U2,*%
%TO.N,*%
X171980000Y-68300000D03*
D31*
X170680000Y-67975000D03*
D32*
X173730000Y-67400000D03*
X173730000Y-70100000D03*
D33*
X175180000Y-68800000D03*
D34*
X173730000Y-71050000D03*
D31*
X170680000Y-69525000D03*
D35*
X173577500Y-71920000D03*
D36*
X171980000Y-69200000D03*
D37*
X174680000Y-70100000D03*
D32*
%TO.P,U2,1,SHDN*%
%TO.N,VBUS*%
X171830000Y-70100000D03*
D38*
%TO.P,U2,2,VIN*%
X171930000Y-71350000D03*
D32*
X172780000Y-70100000D03*
D39*
X171720000Y-71300000D03*
D35*
%TO.P,U2,3,GND*%
%TO.N,GND*%
X176542500Y-71920000D03*
D40*
X171680000Y-73250000D03*
D38*
X178180000Y-73250000D03*
X171930000Y-73250000D03*
D32*
X172780000Y-67400000D03*
D33*
%TO.P,U2,4,VOUT*%
%TO.N,+3V3*%
X178180000Y-68800000D03*
D41*
X178180000Y-69550000D03*
D42*
X171830000Y-67400000D03*
D32*
X171830000Y-67400000D03*
D38*
X178180000Y-71350000D03*
%TD*%
D43*
%TO.P,J2,1,Pin_1*%
%TO.N,GND*%
X182600000Y-58600000D03*
D44*
%TO.P,J2,2,Pin_2*%
%TO.N,GPIO0*%
X181330000Y-58600000D03*
%TO.P,J2,3,Pin_3*%
%TO.N,Net-(J1-Pad3)*%
X180060000Y-58600000D03*
%TO.P,J2,4,Pin_4*%
%TO.N,+3V3*%
X178790000Y-58600000D03*
%TO.P,J2,5,Pin_5*%
%TO.N,RXD*%
X177520000Y-58600000D03*
%TO.P,J2,6,Pin_6*%
%TO.N,TXD*%
X176250000Y-58600000D03*
%TD*%
D45*
%TO.N,Net-(J3-PadA6)*%
X176757146Y-74724500D03*
%TO.N,GND*%
X179635478Y-72275500D03*
%TO.N,Net-(J3-PadA6)*%
X181213616Y-74465690D03*
%TO.N,Net-(J3-PadA5)*%
X175000000Y-74200000D03*
%TO.N,GND*%
X173806060Y-63155500D03*
X171100000Y-60200000D03*
X175000000Y-72450000D03*
X179522512Y-69565010D03*
X174600000Y-57700000D03*
X181323526Y-66675500D03*
%TO.N,VBUS*%
X171784990Y-74436103D03*
X171249742Y-64589522D03*
%TO.N,RXD*%
X177853918Y-64117827D03*
%TO.N,+3V3*%
X170609922Y-75013509D03*
X170870000Y-63190000D03*
%TO.N,GPIO0*%
X179754439Y-65499329D03*
%TO.N,TXD*%
X173510538Y-57597948D03*
X183350000Y-57500000D03*
%TO.N,RST*%
X171000000Y-57600000D03*
X181962641Y-65100000D03*
%TO.N,D-*%
X182850002Y-72000000D03*
X178974010Y-60190693D03*
%TO.N,D+*%
X182884188Y-60184188D03*
X183250000Y-74000000D03*
%TO.N,Net-(C1-Pad1)*%
X176094056Y-62480310D03*
X182602434Y-64077448D03*
%TO.N,Net-(D3-Pad1)*%
X172000000Y-82350000D03*
X171856683Y-65480825D03*
%TO.N,Net-(J3-PadA5)*%
X182000000Y-79200000D03*
%TD*%
D46*
%TO.N,Net-(J3-PadA7)*%
X177250000Y-76040000D02*
X177250000Y-75437439D01*
X177378123Y-75128123D02*
G75*
G03*
X177250000Y-75437439I309318J-309317D01*
G01*
%TO.N,Net-(J3-PadA6)*%
X177750000Y-76040000D02*
X177750000Y-75482784D01*
X177814230Y-75327720D02*
G75*
G03*
X177750000Y-75482784I155065J-155065D01*
G01*
X177814230Y-75327720D02*
G75*
G03*
X178020670Y-74829330I-498388J498389D01*
G01*
%TO.N,Net-(J3-PadA7)*%
X177378123Y-75128123D02*
G75*
G03*
X177485829Y-74868098I-260028J260027D01*
G01*
X177485829Y-74525130D02*
X177485829Y-74868098D01*
X178325480Y-74074520D02*
X177936439Y-74074520D01*
X177485829Y-74525130D02*
G75*
G02*
X177936439Y-74074520I450611J-1D01*
G01*
%TO.N,Net-(J3-PadA6)*%
X178020670Y-74829330D02*
G75*
G02*
X178211065Y-74638935I190394J1D01*
G01*
X180575000Y-74320000D02*
X180256065Y-74638935D01*
X180256065Y-74638935D02*
X178211065Y-74638935D01*
%TO.N,Net-(J3-PadA5)*%
X175316074Y-74963070D02*
X175750000Y-75396996D01*
X175750000Y-75396996D02*
X175750000Y-76040000D01*
X175000001Y-74200000D02*
G75*
G03*
X175316075Y-74963069I1079141J-1D01*
G01*
%TO.N,Net-(J3-PadA7)*%
X176250000Y-76040000D02*
X176250000Y-75532842D01*
X176050000Y-75050000D02*
G75*
G02*
X176250000Y-75532842I-482839J-482841D01*
G01*
X176050000Y-75050000D02*
G75*
G02*
X175850000Y-74567158I482839J482841D01*
G01*
X175850000Y-74500000D02*
X175850000Y-74567158D01*
X178175480Y-74074520D02*
X177129907Y-74074520D01*
X178175480Y-74074520D02*
X177936439Y-74074520D01*
X176950000Y-74000000D02*
G75*
G03*
X177129907Y-74074520I179908J179910D01*
G01*
%TO.N,Net-(J3-PadA6)*%
X176750000Y-76040000D02*
X176750000Y-74731646D01*
%TO.N,Net-(J3-PadA7)*%
X175850000Y-74500000D02*
G75*
G02*
X176350000Y-74000000I500001J-1D01*
G01*
%TO.N,Net-(J3-PadA6)*%
X176750000Y-74731646D02*
X176757146Y-74724500D01*
%TO.N,Net-(J3-PadA7)*%
X176950000Y-74000000D02*
X176350000Y-74000000D01*
X176250000Y-76040000D02*
X176250000Y-75465685D01*
X178325480Y-74074520D02*
X178175480Y-74074520D01*
%TO.N,+3V3*%
X181649999Y-70475001D02*
G75*
G02*
X181725000Y-70400000I75000J1D01*
G01*
X182300000Y-70400000D02*
X181725000Y-70400000D01*
X180985001Y-71575001D02*
G75*
G03*
X181649999Y-70910003I1J664997D01*
G01*
X179550000Y-71100000D02*
G75*
G03*
X180025001Y-71575001I475002J1D01*
G01*
X181649999Y-70475001D02*
X181649999Y-70910003D01*
X180985001Y-71575001D02*
X180025001Y-71575001D01*
X179550000Y-71100000D02*
X179550000Y-70400000D01*
%TO.N,Net-(J3-PadB5)*%
X183300000Y-76450000D02*
X183300000Y-77275000D01*
X178924511Y-75145489D02*
X180868815Y-75145489D01*
X180913517Y-75190191D02*
X182040191Y-75190191D01*
X178750000Y-76040000D02*
X178750000Y-75320000D01*
%TO.N,Net-(J3-PadA6)*%
X181067926Y-74320000D02*
X180575000Y-74320000D01*
%TO.N,Net-(J3-PadB5)*%
X178750000Y-75320000D02*
X178924511Y-75145489D01*
X180868815Y-75145489D02*
X180913517Y-75190191D01*
X182040191Y-75190191D02*
X183300000Y-76450000D01*
%TO.N,Net-(J3-PadA6)*%
X181067926Y-74320000D02*
G75*
G02*
X181213616Y-74465690I-1J-145691D01*
G01*
%TO.N,GND*%
X181525012Y-72025012D02*
G75*
G03*
X182300000Y-71250024I-1J774989D01*
G01*
X179682923Y-72228055D02*
X179635478Y-72275500D01*
X179682923Y-72201186D02*
G75*
G02*
X179974988Y-72025012I294819J-158574D01*
G01*
X179682923Y-72201186D02*
X179682923Y-72228055D01*
X181525012Y-72025012D02*
X179974988Y-72025012D01*
X182300000Y-71050000D02*
X182300000Y-71250024D01*
%TO.N,Net-(J3-PadA7)*%
X179300000Y-73200000D02*
X179300000Y-73667493D01*
X179300000Y-73200000D02*
G75*
G02*
X179500000Y-73000000I200001J-1D01*
G01*
X180575000Y-73000000D02*
X179500000Y-73000000D01*
X178892973Y-74074520D02*
G75*
G03*
X179300000Y-73667493I2J407025D01*
G01*
X178892973Y-74074520D02*
X178325480Y-74074520D01*
%TO.N,+3V3*%
X171000000Y-77175000D02*
X171000000Y-75408274D01*
X170767638Y-75057274D02*
X170653687Y-75057274D01*
X170767638Y-75057274D02*
G75*
G02*
X171000000Y-75408274I-151918J-352981D01*
G01*
X170653687Y-75057274D02*
X170609922Y-75013509D01*
%TO.N,VBUS*%
X171784990Y-74436103D02*
X173716103Y-74436103D01*
X174600000Y-75320000D02*
G75*
G03*
X173716103Y-74436103I-883896J1D01*
G01*
X170500000Y-72000000D02*
X170500000Y-73500000D01*
X171784990Y-74436103D02*
X171436103Y-74436103D01*
X170500000Y-73500000D02*
G75*
G03*
X171436103Y-74436103I936102J-1D01*
G01*
%TO.N,RXD*%
X177830204Y-64390807D02*
X177830204Y-64141541D01*
X177830204Y-64141541D02*
X177853918Y-64117827D01*
X179075499Y-64775499D02*
X178375499Y-64775499D01*
X177830204Y-64390807D02*
G75*
G03*
X178375499Y-64775499I547228J196868D01*
G01*
%TO.N,Net-(J1-Pad3)*%
X175186502Y-58563498D02*
X175186502Y-59086502D01*
X175453078Y-57919925D02*
X177120000Y-56253004D01*
X175453078Y-57919925D02*
G75*
G03*
X175186502Y-58563498I643577J-643574D01*
G01*
%TO.N,GND*%
X181143668Y-66749999D02*
G75*
G03*
X181323525Y-66675499I-4J254366D01*
G01*
X181143668Y-66750000D02*
X180350000Y-66750000D01*
%TO.N,GPIO0*%
X181536502Y-65963498D02*
X181913498Y-65963498D01*
X181913498Y-65963498D02*
X182250000Y-66300000D01*
X182250000Y-66300000D02*
X182250000Y-66750000D01*
%TO.N,+3V3*%
X180350000Y-67400000D02*
X182250000Y-67400000D01*
%TO.N,GND*%
X183300000Y-81825000D02*
X182675000Y-81825000D01*
X182675000Y-81824999D02*
G75*
G02*
X182128727Y-81598725I0J772548D01*
G01*
X181320000Y-80790000D02*
X182128726Y-81598726D01*
%TO.N,Net-(J3-PadA5)*%
X182554809Y-79429810D02*
G75*
G03*
X182000000Y-79200000I-554810J-554809D01*
G01*
X182554809Y-79429810D02*
X183300000Y-80175000D01*
%TO.N,+3V3*%
X170525242Y-64022321D02*
G75*
G02*
X170870001Y-63190001I1177073J2D01*
G01*
X170525241Y-64022321D02*
X170525241Y-65224759D01*
X171147836Y-66727836D02*
G75*
G02*
X170525241Y-65224759I1503077J1503077D01*
G01*
X171147836Y-66727836D02*
X171860000Y-67440000D01*
X174380000Y-63880000D02*
X172380000Y-63880000D01*
X170870000Y-63190000D02*
X170980172Y-63300172D01*
X172380000Y-63879999D02*
G75*
G02*
X170980173Y-63300171I-3J1979647D01*
G01*
X178790000Y-58600000D02*
X178277904Y-59112096D01*
X177100000Y-59600000D02*
G75*
G03*
X178277904Y-59112096I0J1665806D01*
G01*
%TO.N,GPIO0*%
X179660000Y-56100000D02*
X180743101Y-57183101D01*
X181329999Y-58600000D02*
G75*
G03*
X180743100Y-57183102I-2003792J2D01*
G01*
%TO.N,Net-(C1-Pad1)*%
X178800000Y-61200000D02*
X177700000Y-61200000D01*
X177700000Y-61200000D02*
X177500000Y-61200000D01*
X177700000Y-61200000D02*
G75*
G02*
X177375000Y-60875000I-1J324999D01*
G01*
X177375000Y-60400000D02*
X177375000Y-60875000D01*
X178800000Y-61200000D02*
X178846447Y-61200000D01*
X179450000Y-60950000D02*
G75*
G02*
X178846447Y-61200000I-603550J603545D01*
G01*
X179700000Y-60300000D02*
X179700000Y-60346447D01*
X179450000Y-60950000D02*
G75*
G03*
X179700000Y-60346447I-603556J603555D01*
G01*
%TO.N,D-*%
X179922318Y-59624990D02*
X179539713Y-59624990D01*
X178974010Y-60190693D02*
G75*
G02*
X179539713Y-59624990I565704J-1D01*
G01*
%TO.N,D+*%
X180990011Y-59612661D02*
G75*
G03*
X180700000Y-59902672I-1J-290010D01*
G01*
X182884188Y-60184188D02*
G75*
G03*
X182312661Y-59612661I-571526J1D01*
G01*
X180700000Y-60300000D02*
X180700000Y-59902672D01*
X180990011Y-59612661D02*
X182312661Y-59612661D01*
%TO.N,RXD*%
X179239962Y-66510038D02*
G75*
G02*
X179029924Y-66002962I507077J507077D01*
G01*
X179614962Y-67415368D02*
G75*
G03*
X179239962Y-66510038I-1280327J1D01*
G01*
X179825978Y-68050000D02*
G75*
G02*
X179614962Y-67838984I-1J211015D01*
G01*
X179075499Y-64775499D02*
X179029924Y-64821074D01*
X179029924Y-64821074D02*
X179029924Y-66002962D01*
X179825978Y-68050000D02*
X180350000Y-68050000D01*
X179614962Y-67415368D02*
X179614962Y-67838984D01*
%TO.N,+3V3*%
X181274998Y-67525002D02*
X181274998Y-67650473D01*
X180945632Y-68445632D02*
G75*
G03*
X181274998Y-67650473I-795153J795157D01*
G01*
X180945632Y-68445632D02*
G75*
G02*
X179993544Y-68840000I-952084J952079D01*
G01*
X179550000Y-70400000D02*
X179284498Y-70400000D01*
X179284498Y-70400000D02*
X178210000Y-69325502D01*
X178210000Y-69325502D02*
X178210000Y-68840000D01*
X178210000Y-68840000D02*
X179993544Y-68840000D01*
%TO.N,GND*%
X180400000Y-69750000D02*
X179707502Y-69750000D01*
X179522512Y-69565010D02*
G75*
G03*
X179707502Y-69750000I184989J-1D01*
G01*
X182250000Y-68050000D02*
X182055714Y-68050000D01*
X182055714Y-68050000D02*
X180400000Y-69705714D01*
X180400000Y-69705714D02*
X180400000Y-69750000D01*
%TO.N,RST*%
X182900001Y-66037360D02*
X182900001Y-68599999D01*
X181100000Y-70101064D02*
G75*
G02*
X182201064Y-69000000I1101063J1D01*
G01*
X182500000Y-69000000D02*
G75*
G03*
X182900001Y-68599999I-1J400002D01*
G01*
X182500000Y-69000000D02*
X182201064Y-69000000D01*
%TO.N,TXD*%
X182300000Y-69750000D02*
G75*
G03*
X183425001Y-68624999I1J1125000D01*
G01*
X183425001Y-63174999D02*
X183425001Y-68624999D01*
%TO.N,RST*%
X182900001Y-66037360D02*
G75*
G03*
X181962641Y-65100000I-937359J1D01*
G01*
X181100000Y-70101064D02*
X181100000Y-70925000D01*
X180975000Y-71050000D02*
X180400000Y-71050000D01*
X181100000Y-70925000D02*
X180975000Y-71050000D01*
%TO.N,GPIO0*%
X179754439Y-65499329D02*
X180029507Y-65499329D01*
X180538498Y-65288498D02*
G75*
G02*
X180029507Y-65499329I-508987J508982D01*
G01*
X180700000Y-65126996D02*
X180538498Y-65288498D01*
X180538498Y-65288498D02*
G75*
G03*
X180700000Y-64898598I-389901J389901D01*
G01*
X180700000Y-65126996D02*
X181536502Y-65963498D01*
X180700000Y-64100000D02*
X180700000Y-65126996D01*
X180931221Y-65358217D02*
G75*
G02*
X180700000Y-64800000I558212J558215D01*
G01*
%TO.N,VBUS*%
X177517106Y-62231392D02*
G75*
G02*
X178800000Y-61700000I1282893J-1282892D01*
G01*
X176569202Y-63179297D02*
X177517106Y-62231392D01*
X176569202Y-63179297D02*
X176569203Y-63190278D01*
X176569203Y-63190278D02*
X175169960Y-64589522D01*
X175169960Y-64589522D02*
X171249742Y-64589522D01*
%TO.N,+3V3*%
X176600000Y-60100000D02*
G75*
G02*
X177100000Y-59600000I500001J-1D01*
G01*
%TO.N,Net-(C1-Pad1)*%
X177500000Y-61200000D02*
X176219690Y-62480310D01*
%TO.N,+3V3*%
X176600000Y-60877138D02*
X175686776Y-61790362D01*
%TO.N,Net-(C1-Pad1)*%
X176219690Y-62480310D02*
X176094056Y-62480310D01*
%TO.N,+3V3*%
X175351000Y-62600999D02*
G75*
G02*
X175686777Y-61790363I1146415J-1D01*
G01*
X174380000Y-63880000D02*
G75*
G03*
X175350999Y-62909001I0J970999D01*
G01*
X176600000Y-60100000D02*
X176600000Y-60877138D01*
X175350999Y-62600999D02*
X175350999Y-62909001D01*
%TO.N,GND*%
X174250000Y-59000000D02*
G75*
G03*
X174600000Y-58650000I-1J350001D01*
G01*
X174250000Y-59000000D02*
X173421134Y-59000000D01*
X172239464Y-59489464D02*
G75*
G02*
X173421134Y-59000000I1181668J-1181664D01*
G01*
X172239464Y-59489464D02*
X171832226Y-59896702D01*
X171100000Y-60200000D02*
G75*
G03*
X171832226Y-59896702I-2J1035528D01*
G01*
X174600000Y-57700000D02*
X174600000Y-58650000D01*
%TO.N,D-*%
X180200000Y-59902672D02*
G75*
G03*
X179922318Y-59624990I-277681J1D01*
G01*
X180200000Y-59902672D02*
X180200000Y-60300000D01*
%TO.N,D+*%
X182930000Y-74320000D02*
G75*
G03*
X183250000Y-74000000I-1J320001D01*
G01*
X182930000Y-74320000D02*
X182225000Y-74320000D01*
%TO.N,D-*%
X182850002Y-72000000D02*
X182850002Y-72374998D01*
X182225000Y-73000000D02*
G75*
G03*
X182850002Y-72374998I-1J625003D01*
G01*
%TO.N,VBUS*%
X178925006Y-77000000D02*
G75*
G03*
X179400000Y-76525006I-2J474996D01*
G01*
X179400000Y-76040000D02*
X179400000Y-76525006D01*
X174600000Y-76525006D02*
G75*
G03*
X175074994Y-77000000I474996J2D01*
G01*
X178925006Y-77000000D02*
X175074994Y-77000000D01*
%TO.N,Net-(D3-Pad1)*%
X171475000Y-82350000D02*
G75*
G02*
X171000000Y-81875000I-1J474999D01*
G01*
X171475000Y-82350000D02*
X172000000Y-82350000D01*
%TO.N,VBUS*%
X171930000Y-71350000D02*
X171150000Y-71350000D01*
X170500000Y-72000000D02*
G75*
G02*
X171150000Y-71350000I650001J-1D01*
G01*
%TO.N,Net-(D3-Pad1)*%
X175939132Y-65310868D02*
X172026640Y-65310868D01*
X177029355Y-64220645D02*
G75*
G02*
X175939132Y-65310868I-1090223J0D01*
G01*
X177029355Y-64220645D02*
X177029355Y-63976330D01*
X177018713Y-63965688D02*
G75*
G02*
X177784401Y-63200000I765689J-1D01*
G01*
X177018713Y-63965688D02*
X177029355Y-63976330D01*
X171856683Y-65480825D02*
G75*
G02*
X172026640Y-65310868I169956J1D01*
G01*
X178800000Y-63200000D02*
X177784401Y-63200000D01*
%TO.N,RXD*%
X180200000Y-64100000D02*
X180200000Y-64600000D01*
X180025172Y-64774828D02*
G75*
G03*
X180200000Y-64600000I0J174828D01*
G01*
%TO.N,RST*%
X181200000Y-64100000D02*
X181200000Y-64903044D01*
X181396956Y-65100000D02*
G75*
G02*
X181200000Y-64903044I0J196956D01*
G01*
%TO.N,Net-(J1-Pad3)*%
X174636502Y-59636502D02*
G75*
G03*
X175186502Y-59086502I1J549999D01*
G01*
X172937500Y-60200000D02*
G75*
G02*
X173500998Y-59636502I563499J-1D01*
G01*
X177120000Y-56100000D02*
X177120000Y-56253004D01*
X174636502Y-59636502D02*
X173500998Y-59636502D01*
X172937500Y-60200000D02*
X174325000Y-60200000D01*
X174500000Y-60375000D02*
G75*
G03*
X174325000Y-60200000I-174999J1D01*
G01*
%TO.N,RXD*%
X179076170Y-64774828D02*
X180025172Y-64774828D01*
X179075499Y-64775499D02*
X179076170Y-64774828D01*
%TO.N,TXD*%
X172040000Y-56100000D02*
X173510538Y-57570538D01*
X173510538Y-57570538D02*
X173510538Y-57597948D01*
%TO.N,GND*%
X182600000Y-61700000D02*
X181200000Y-61700000D01*
X182600000Y-61200000D02*
X181700000Y-61200000D01*
X181700000Y-60200000D02*
X181700000Y-61075000D01*
X178700000Y-62200000D02*
X180575000Y-62200000D01*
X182200000Y-58200000D02*
X182600000Y-58600000D01*
X182600000Y-62200000D02*
X180700000Y-62200000D01*
X183300000Y-78925000D02*
X183300000Y-78705000D01*
X175825000Y-60400000D02*
X175825000Y-60700000D01*
X181200000Y-62700000D02*
X180700000Y-62200000D01*
X182200000Y-56100000D02*
X182200000Y-58200000D01*
X180700000Y-62200000D02*
X181700000Y-61200000D01*
X182600000Y-62700000D02*
X181200000Y-62700000D01*
D47*
X176557500Y-71940000D02*
X176577500Y-71960000D01*
D46*
X183300000Y-78705000D02*
X181325000Y-76730000D01*
X176572500Y-71960000D02*
X175490000Y-71960000D01*
X175825000Y-60700000D02*
X174500000Y-62025000D01*
X175490000Y-71960000D02*
X175000000Y-72450000D01*
X181700000Y-61075000D02*
X180575000Y-62200000D01*
%TO.N,VBUS*%
X174600000Y-76525006D02*
X174600000Y-75320000D01*
X171860000Y-70140000D02*
X172810000Y-70140000D01*
%TO.N,+3V3*%
X178210000Y-71390000D02*
X178300000Y-71300000D01*
X179550000Y-70400000D02*
X180400000Y-70400000D01*
X171062500Y-62997500D02*
X170870000Y-63190000D01*
X171062500Y-61150000D02*
X171062500Y-62997500D01*
%TO.N,TXD*%
X183609189Y-57759189D02*
X183609189Y-62990811D01*
X183609189Y-62990811D02*
X183425001Y-63174999D01*
X182600000Y-63200000D02*
X183400000Y-63200000D01*
X183400000Y-63200000D02*
X183425001Y-63174999D01*
X183350000Y-57500000D02*
X183609189Y-57759189D01*
%TO.N,RST*%
X181396956Y-65100000D02*
X181962641Y-65100000D01*
X171000000Y-57600000D02*
X171000000Y-59250000D01*
%TO.N,Net-(C1-Pad1)*%
X182579882Y-64100000D02*
X182602434Y-64077448D01*
X181700000Y-64100000D02*
X182579882Y-64100000D01*
%TO.N,Net-(J1-Pad3)*%
X177511002Y-56100000D02*
X180011002Y-58600000D01*
X180011002Y-58600000D02*
X180060000Y-58600000D01*
X177120000Y-56100000D02*
X177511002Y-56100000D01*
%TO.N,Net-(D3-Pad2)*%
X171000000Y-78825000D02*
X171000000Y-80125000D01*
%TD*%
%TA.AperFunction,Conductor*%
%TO.N,GND*%
G36*
X171893561Y-75343076D02*
G01*
X171960010Y-75348145D01*
X172016644Y-75390961D01*
X172041139Y-75457598D01*
X172025719Y-75526900D01*
X172013840Y-75544663D01*
X171994477Y-75568887D01*
X172001545Y-75582334D01*
X172667189Y-76247979D01*
X172681132Y-76255592D01*
X172682966Y-76255461D01*
X172689579Y-76251210D01*
X172939192Y-76001597D01*
X172952000Y-75978141D01*
X172952000Y-75912000D01*
X172972002Y-75843879D01*
X173025658Y-75797386D01*
X173078000Y-75786000D01*
X173136674Y-75786000D01*
X173162319Y-75778470D01*
X173329124Y-75611665D01*
X173391436Y-75577639D01*
X173462251Y-75582704D01*
X173507314Y-75611665D01*
X173533190Y-75637541D01*
X173543275Y-75643048D01*
X173547444Y-75631872D01*
X173589991Y-75575037D01*
X173656512Y-75550226D01*
X173725886Y-75565318D01*
X173776088Y-75615520D01*
X173791500Y-75675905D01*
X173791500Y-76168000D01*
X173771498Y-76236121D01*
X173717842Y-76282614D01*
X173665500Y-76294000D01*
X173383326Y-76294000D01*
X173357681Y-76301530D01*
X173052021Y-76607189D01*
X173044408Y-76621132D01*
X173044539Y-76622966D01*
X173048790Y-76629580D01*
X173718391Y-77299180D01*
X173730161Y-77305607D01*
X173742176Y-77296311D01*
X173770466Y-77255907D01*
X173775946Y-77246417D01*
X173801904Y-77190749D01*
X173848821Y-77137464D01*
X173916099Y-77117999D01*
X174071401Y-77117999D01*
X174139522Y-77138001D01*
X174174614Y-77171728D01*
X174222596Y-77240253D01*
X174359747Y-77377404D01*
X174518630Y-77488656D01*
X174523612Y-77490979D01*
X174523617Y-77490982D01*
X174687696Y-77567493D01*
X174694417Y-77570627D01*
X174699725Y-77572049D01*
X174699727Y-77572050D01*
X174765827Y-77589761D01*
X174881769Y-77620828D01*
X174968301Y-77628399D01*
X174984685Y-77631200D01*
X174987288Y-77631529D01*
X174994964Y-77633500D01*
X175020995Y-77633500D01*
X175038748Y-77634757D01*
X175057543Y-77637432D01*
X175057547Y-77637432D01*
X175061627Y-77638013D01*
X175068244Y-77638082D01*
X175070866Y-77638110D01*
X175070869Y-77638110D01*
X175074991Y-77638153D01*
X175079084Y-77637658D01*
X175079097Y-77637657D01*
X175105906Y-77634413D01*
X175121043Y-77633500D01*
X178871013Y-77633500D01*
X178888766Y-77634757D01*
X178907561Y-77637432D01*
X178907564Y-77637432D01*
X178911645Y-77638013D01*
X178918206Y-77638082D01*
X178920882Y-77638110D01*
X178920886Y-77638110D01*
X178925009Y-77638153D01*
X178929108Y-77637657D01*
X178929110Y-77637657D01*
X178935452Y-77636890D01*
X178939600Y-77636458D01*
X178999691Y-77631200D01*
X179118231Y-77620828D01*
X179123549Y-77619403D01*
X179300273Y-77572050D01*
X179300275Y-77572049D01*
X179305583Y-77570627D01*
X179312304Y-77567493D01*
X179476383Y-77490982D01*
X179476388Y-77490979D01*
X179481370Y-77488656D01*
X179640253Y-77377404D01*
X179777404Y-77240253D01*
X179825386Y-77171728D01*
X179880842Y-77127401D01*
X179928598Y-77118000D01*
X180083901Y-77118000D01*
X180152022Y-77138002D01*
X180198095Y-77190749D01*
X180224052Y-77246412D01*
X180229534Y-77255907D01*
X180258411Y-77297149D01*
X180268887Y-77305523D01*
X180282334Y-77298455D01*
X180947979Y-76632811D01*
X180955592Y-76618868D01*
X180955461Y-76617034D01*
X180951210Y-76610421D01*
X180647597Y-76306808D01*
X180624141Y-76294000D01*
X180334500Y-76294000D01*
X180266379Y-76273998D01*
X180219886Y-76220342D01*
X180208500Y-76168000D01*
X180208500Y-75904989D01*
X180228502Y-75836868D01*
X180282158Y-75790375D01*
X180334500Y-75778989D01*
X180644751Y-75778989D01*
X180678080Y-75785346D01*
X180678455Y-75783886D01*
X180698075Y-75788923D01*
X180716783Y-75795328D01*
X180735372Y-75803372D01*
X180743200Y-75804612D01*
X180743207Y-75804614D01*
X180779041Y-75810290D01*
X180790661Y-75812696D01*
X180825806Y-75821719D01*
X180833487Y-75823691D01*
X180853741Y-75823691D01*
X180873451Y-75825242D01*
X180893460Y-75828411D01*
X180910142Y-75826834D01*
X180979843Y-75840336D01*
X181031179Y-75889378D01*
X181048000Y-75952275D01*
X181048000Y-75970674D01*
X181055531Y-75996321D01*
X181590115Y-76530905D01*
X181624141Y-76593217D01*
X181619076Y-76664032D01*
X181590115Y-76709095D01*
X181320000Y-76979210D01*
X180640824Y-77658387D01*
X180634394Y-77670162D01*
X180643690Y-77682176D01*
X180684088Y-77710464D01*
X180693584Y-77715947D01*
X180883113Y-77804326D01*
X180893405Y-77808072D01*
X181095401Y-77862196D01*
X181106196Y-77864099D01*
X181314525Y-77882326D01*
X181325475Y-77882326D01*
X181533804Y-77864099D01*
X181544599Y-77862196D01*
X181746595Y-77808072D01*
X181756887Y-77804326D01*
X181946416Y-77715947D01*
X181955912Y-77710464D01*
X182127211Y-77590519D01*
X182134090Y-77584746D01*
X182199129Y-77556278D01*
X182269234Y-77567493D01*
X182322147Y-77614829D01*
X182335319Y-77643584D01*
X182347413Y-77682176D01*
X182374528Y-77768699D01*
X182463361Y-77915381D01*
X182559239Y-78011259D01*
X182593265Y-78073571D01*
X182588200Y-78144386D01*
X182559239Y-78189449D01*
X182469134Y-78279554D01*
X182455135Y-78297407D01*
X182453763Y-78296331D01*
X182408286Y-78337906D01*
X182338306Y-78349876D01*
X182301663Y-78339832D01*
X182288323Y-78333892D01*
X182288315Y-78333889D01*
X182282288Y-78331206D01*
X182188887Y-78311353D01*
X182101944Y-78292872D01*
X182101939Y-78292872D01*
X182095487Y-78291500D01*
X181904513Y-78291500D01*
X181898061Y-78292872D01*
X181898056Y-78292872D01*
X181811112Y-78311353D01*
X181717712Y-78331206D01*
X181711682Y-78333891D01*
X181711681Y-78333891D01*
X181549278Y-78406197D01*
X181549276Y-78406198D01*
X181543248Y-78408882D01*
X181388747Y-78521134D01*
X181384326Y-78526044D01*
X181384325Y-78526045D01*
X181348801Y-78565499D01*
X181260960Y-78663056D01*
X181165473Y-78828444D01*
X181106458Y-79010072D01*
X181105768Y-79016633D01*
X181105768Y-79016635D01*
X181098633Y-79084526D01*
X181086496Y-79200000D01*
X181087186Y-79206565D01*
X181099655Y-79325197D01*
X181106458Y-79389928D01*
X181149815Y-79523366D01*
X181151843Y-79594332D01*
X181115180Y-79655130D01*
X181051318Y-79686481D01*
X181031202Y-79689937D01*
X181020079Y-79692918D01*
X180835557Y-79760992D01*
X180825179Y-79765942D01*
X180734146Y-79820101D01*
X180724547Y-79830436D01*
X180728033Y-79838823D01*
X182281415Y-81392205D01*
X182279136Y-81394484D01*
X182308769Y-81424118D01*
X182323651Y-81496029D01*
X182318087Y-81556585D01*
X182321475Y-81568124D01*
X182322865Y-81569329D01*
X182330548Y-81571000D01*
X183366000Y-81571000D01*
X183434121Y-81591002D01*
X183480614Y-81644658D01*
X183492000Y-81697000D01*
X183492000Y-81950673D01*
X183490502Y-81970041D01*
X183490140Y-81972368D01*
X183459905Y-82036605D01*
X183399740Y-82074297D01*
X183365638Y-82079000D01*
X182335116Y-82079000D01*
X182319877Y-82083475D01*
X182318672Y-82084865D01*
X182317709Y-82089294D01*
X182323132Y-82148315D01*
X182325743Y-82161351D01*
X182372714Y-82311239D01*
X182374028Y-82314149D01*
X182374350Y-82316460D01*
X182374987Y-82318492D01*
X182374648Y-82318598D01*
X182383831Y-82384465D01*
X182354061Y-82448919D01*
X182294171Y-82487047D01*
X182259191Y-82492000D01*
X173038517Y-82492000D01*
X172970396Y-82471998D01*
X172923903Y-82418342D01*
X172914893Y-82363171D01*
X172912814Y-82363171D01*
X172912814Y-82356565D01*
X172913504Y-82350000D01*
X172899332Y-82215159D01*
X172894232Y-82166635D01*
X172894232Y-82166633D01*
X172893542Y-82160072D01*
X172859799Y-82056222D01*
X172857771Y-81985257D01*
X172894433Y-81924459D01*
X172945856Y-81897090D01*
X172945627Y-81896415D01*
X172949758Y-81895013D01*
X172950214Y-81894770D01*
X172951099Y-81894558D01*
X173137343Y-81831336D01*
X173147840Y-81826662D01*
X173266401Y-81760266D01*
X173276264Y-81750189D01*
X173275929Y-81749319D01*
X180725041Y-81749319D01*
X180734923Y-81761809D01*
X180772259Y-81786756D01*
X180782371Y-81792247D01*
X180963081Y-81869885D01*
X180974014Y-81873437D01*
X181165844Y-81916845D01*
X181177253Y-81918347D01*
X181373783Y-81926068D01*
X181385265Y-81925466D01*
X181579905Y-81897245D01*
X181591101Y-81894557D01*
X181777343Y-81831336D01*
X181787840Y-81826662D01*
X181906401Y-81760266D01*
X181916264Y-81750189D01*
X181913309Y-81742519D01*
X181332812Y-81162022D01*
X181318868Y-81154408D01*
X181317035Y-81154539D01*
X181310420Y-81158790D01*
X180731237Y-81737973D01*
X180725041Y-81749319D01*
X173275929Y-81749319D01*
X173273309Y-81742519D01*
X172409885Y-80879095D01*
X172375859Y-80816783D01*
X172377694Y-80791132D01*
X173044408Y-80791132D01*
X173044539Y-80792965D01*
X173048790Y-80799580D01*
X173628603Y-81379393D01*
X173640983Y-81386153D01*
X173647563Y-81381227D01*
X173716662Y-81257840D01*
X173721336Y-81247343D01*
X173784557Y-81061101D01*
X173787245Y-81049905D01*
X173815762Y-80853224D01*
X173816392Y-80845843D01*
X173817757Y-80793704D01*
X173817514Y-80786305D01*
X173815647Y-80765980D01*
X180182914Y-80765980D01*
X180195777Y-80962233D01*
X180197577Y-80973601D01*
X180245991Y-81164228D01*
X180249829Y-81175066D01*
X180332173Y-81353685D01*
X180337922Y-81363642D01*
X180347850Y-81377690D01*
X180358439Y-81386078D01*
X180371740Y-81379050D01*
X180947978Y-80802812D01*
X180955592Y-80788868D01*
X180955461Y-80787035D01*
X180951210Y-80780420D01*
X180370031Y-80199241D01*
X180357651Y-80192481D01*
X180351685Y-80196947D01*
X180271452Y-80349445D01*
X180267047Y-80360079D01*
X180208724Y-80547910D01*
X180206332Y-80559164D01*
X180183215Y-80754479D01*
X180182914Y-80765980D01*
X173815647Y-80765980D01*
X173799330Y-80588397D01*
X173797233Y-80577083D01*
X173743846Y-80387789D01*
X173739724Y-80377050D01*
X173652736Y-80200656D01*
X173651577Y-80198765D01*
X173642732Y-80192126D01*
X173630312Y-80198898D01*
X173052022Y-80777188D01*
X173044408Y-80791132D01*
X172377694Y-80791132D01*
X172380924Y-80745968D01*
X172409885Y-80700905D01*
X173268407Y-79842383D01*
X173275167Y-79830003D01*
X173269137Y-79821948D01*
X173201459Y-79779246D01*
X173191211Y-79774025D01*
X173008531Y-79701143D01*
X172997504Y-79697876D01*
X172804605Y-79659506D01*
X172793159Y-79658303D01*
X172596507Y-79655730D01*
X172585027Y-79656633D01*
X172391199Y-79689938D01*
X172380079Y-79692918D01*
X172195557Y-79760992D01*
X172185182Y-79765940D01*
X172162483Y-79779445D01*
X172093713Y-79797084D01*
X172026323Y-79774743D01*
X171981709Y-79719515D01*
X171976036Y-79697249D01*
X171974873Y-79697500D01*
X171973418Y-79690764D01*
X171972707Y-79683907D01*
X171963307Y-79655730D01*
X171919972Y-79525841D01*
X171917654Y-79518893D01*
X171900921Y-79491853D01*
X171882084Y-79423401D01*
X171900290Y-79360280D01*
X171921537Y-79325197D01*
X171921538Y-79325195D01*
X171925472Y-79318699D01*
X171976753Y-79155062D01*
X171983500Y-79081635D01*
X171983499Y-78568366D01*
X171976753Y-78494938D01*
X171931293Y-78349876D01*
X171927744Y-78338550D01*
X171927743Y-78338548D01*
X171925472Y-78331301D01*
X171836639Y-78184619D01*
X171741115Y-78089095D01*
X171707089Y-78026783D01*
X171712154Y-77955968D01*
X171741115Y-77910905D01*
X171836639Y-77815381D01*
X171873543Y-77754445D01*
X171925940Y-77706538D01*
X171995920Y-77694565D01*
X172044324Y-77710600D01*
X172053581Y-77715945D01*
X172243113Y-77804326D01*
X172253405Y-77808072D01*
X172455401Y-77862196D01*
X172466196Y-77864099D01*
X172674525Y-77882326D01*
X172685475Y-77882326D01*
X172893804Y-77864099D01*
X172904599Y-77862196D01*
X173106595Y-77808072D01*
X173116887Y-77804326D01*
X173306416Y-77715947D01*
X173315912Y-77710464D01*
X173357148Y-77681590D01*
X173365523Y-77671113D01*
X173358454Y-77657665D01*
X172320790Y-76620000D01*
X171670405Y-75969616D01*
X171636379Y-75907304D01*
X171633500Y-75880521D01*
X171633500Y-75470603D01*
X171653502Y-75402482D01*
X171707158Y-75355989D01*
X171759500Y-75344603D01*
X171880477Y-75344603D01*
X171886935Y-75343230D01*
X171886938Y-75343230D01*
X171889220Y-75342745D01*
X171890573Y-75342848D01*
X171893505Y-75342540D01*
X171893561Y-75343076D01*
G37*
%TD.AperFunction*%
%TA.AperFunction,Conductor*%
G36*
X175321677Y-70870502D02*
G01*
X175368170Y-70924158D01*
X175378274Y-70994432D01*
X175373149Y-71016167D01*
X175342627Y-71108188D01*
X175332195Y-71139641D01*
X175321500Y-71244023D01*
X175321501Y-71851742D01*
X175321501Y-72360271D01*
X175301499Y-72428392D01*
X175247843Y-72474885D01*
X175195501Y-72486271D01*
X174616500Y-72486271D01*
X174548379Y-72466269D01*
X174501886Y-72412613D01*
X174490500Y-72360271D01*
X174490499Y-71243594D01*
X174490499Y-71240628D01*
X174487522Y-71209125D01*
X174442699Y-71081488D01*
X174420444Y-71051357D01*
X174396062Y-70984682D01*
X174411598Y-70915406D01*
X174462122Y-70865527D01*
X174521796Y-70850500D01*
X175253556Y-70850500D01*
X175321677Y-70870502D01*
G37*
%TD.AperFunction*%
%TA.AperFunction,Conductor*%
G36*
X179209087Y-71851742D02*
G01*
X179309749Y-71952404D01*
X179314257Y-71955561D01*
X179314260Y-71955563D01*
X179360094Y-71987656D01*
X179468633Y-72063656D01*
X179473615Y-72065979D01*
X179473620Y-72065982D01*
X179601114Y-72125433D01*
X179654399Y-72172350D01*
X179673860Y-72240628D01*
X179653318Y-72308588D01*
X179599295Y-72354653D01*
X179530111Y-72364371D01*
X179513361Y-72361987D01*
X179506318Y-72361913D01*
X179504117Y-72361890D01*
X179504115Y-72361890D01*
X179499997Y-72361847D01*
X179473815Y-72365015D01*
X179471088Y-72365314D01*
X179437117Y-72368660D01*
X179336603Y-72378561D01*
X179227282Y-72411723D01*
X179156291Y-72412356D01*
X179124593Y-72398408D01*
X178983968Y-72311725D01*
X178983966Y-72311724D01*
X178977738Y-72307885D01*
X178866535Y-72271001D01*
X178824680Y-72257118D01*
X178766320Y-72216687D01*
X178739083Y-72151123D01*
X178751616Y-72081242D01*
X178799941Y-72029230D01*
X178822599Y-72018642D01*
X178859302Y-72005753D01*
X178859301Y-72005753D01*
X178868184Y-72002634D01*
X178875754Y-71997042D01*
X178875757Y-71997041D01*
X178969579Y-71927742D01*
X178977150Y-71922150D01*
X178982742Y-71914579D01*
X178982746Y-71914575D01*
X179018642Y-71865977D01*
X179075203Y-71823066D01*
X179145985Y-71817547D01*
X179209087Y-71851742D01*
G37*
%TD.AperFunction*%
%TA.AperFunction,Conductor*%
G36*
X173596473Y-61008866D02*
G01*
X173663335Y-61022925D01*
X173692814Y-61044834D01*
X173759239Y-61111259D01*
X173793265Y-61173571D01*
X173788200Y-61244386D01*
X173759239Y-61289449D01*
X173669131Y-61379557D01*
X173659824Y-61391426D01*
X173578921Y-61525012D01*
X173572715Y-61538757D01*
X173525744Y-61688644D01*
X173523131Y-61701694D01*
X173518087Y-61756586D01*
X173521475Y-61768124D01*
X173522865Y-61769329D01*
X173530548Y-61771000D01*
X174628000Y-61771000D01*
X174696121Y-61791002D01*
X174742614Y-61844658D01*
X174754000Y-61897000D01*
X174754000Y-62229785D01*
X174751579Y-62254366D01*
X174728941Y-62368175D01*
X174728672Y-62372282D01*
X174728671Y-62372288D01*
X174719634Y-62510174D01*
X174719254Y-62514133D01*
X174717499Y-62520969D01*
X174717499Y-62538625D01*
X174717229Y-62546867D01*
X174716211Y-62562396D01*
X174715224Y-62571906D01*
X174713567Y-62583548D01*
X174713566Y-62583556D01*
X174712986Y-62587634D01*
X174712846Y-62600998D01*
X174713341Y-62605088D01*
X174713341Y-62605089D01*
X174716586Y-62631902D01*
X174717499Y-62647040D01*
X174717499Y-62858983D01*
X174716421Y-62875429D01*
X174712881Y-62902318D01*
X174713714Y-62909863D01*
X174713714Y-62909875D01*
X174713715Y-62909880D01*
X174713398Y-62940149D01*
X174708164Y-62979907D01*
X174699652Y-63011675D01*
X174678631Y-63062426D01*
X174662184Y-63090912D01*
X174628746Y-63134489D01*
X174605488Y-63157747D01*
X174561911Y-63191185D01*
X174533427Y-63207631D01*
X174482674Y-63228653D01*
X174450905Y-63237165D01*
X174415407Y-63241838D01*
X174397644Y-63242909D01*
X174394211Y-63242873D01*
X174386683Y-63241882D01*
X174379138Y-63242715D01*
X174379134Y-63242715D01*
X174351747Y-63245739D01*
X174337920Y-63246500D01*
X172430017Y-63246500D01*
X172413571Y-63245422D01*
X172394213Y-63242873D01*
X172394209Y-63242873D01*
X172386682Y-63241882D01*
X172379136Y-63242715D01*
X172379128Y-63242715D01*
X172368959Y-63243838D01*
X172346895Y-63244329D01*
X172212536Y-63235523D01*
X172196194Y-63233372D01*
X172039685Y-63202240D01*
X172023766Y-63197974D01*
X171872674Y-63146686D01*
X171857446Y-63140379D01*
X171836280Y-63129941D01*
X171784031Y-63081872D01*
X171766699Y-63030107D01*
X171764232Y-63006636D01*
X171764232Y-63006635D01*
X171763542Y-63000072D01*
X171704527Y-62818444D01*
X171705346Y-62818178D01*
X171696000Y-62774207D01*
X171696000Y-62289294D01*
X173517709Y-62289294D01*
X173523132Y-62348315D01*
X173525743Y-62361351D01*
X173572715Y-62511243D01*
X173578921Y-62524988D01*
X173659824Y-62658574D01*
X173669131Y-62670443D01*
X173779557Y-62780869D01*
X173791426Y-62790176D01*
X173925012Y-62871079D01*
X173938757Y-62877285D01*
X174088644Y-62924256D01*
X174101694Y-62926869D01*
X174165521Y-62932734D01*
X174171309Y-62933000D01*
X174227885Y-62933000D01*
X174243124Y-62928525D01*
X174244329Y-62927135D01*
X174246000Y-62919452D01*
X174246000Y-62297115D01*
X174241525Y-62281876D01*
X174240135Y-62280671D01*
X174232452Y-62279000D01*
X173535116Y-62279000D01*
X173519877Y-62283475D01*
X173518672Y-62284865D01*
X173517709Y-62289294D01*
X171696000Y-62289294D01*
X171696000Y-62066967D01*
X171716002Y-61998846D01*
X171769658Y-61952353D01*
X171786848Y-61945970D01*
X171905986Y-61911358D01*
X171905991Y-61911356D01*
X171913601Y-61909145D01*
X171942411Y-61892107D01*
X172049980Y-61828491D01*
X172049983Y-61828489D01*
X172056807Y-61824453D01*
X172174453Y-61706807D01*
X172178489Y-61699983D01*
X172178491Y-61699980D01*
X172255108Y-61570427D01*
X172259145Y-61563601D01*
X172305562Y-61403831D01*
X172306539Y-61391426D01*
X172308307Y-61368958D01*
X172308307Y-61368950D01*
X172308500Y-61366502D01*
X172308500Y-61134500D01*
X172328502Y-61066379D01*
X172382158Y-61019886D01*
X172434500Y-61008500D01*
X173591502Y-61008500D01*
X173593958Y-61008307D01*
X173596447Y-61008209D01*
X173596473Y-61008866D01*
G37*
%TD.AperFunction*%
%TA.AperFunction,Conductor*%
G36*
X171633621Y-60078502D02*
G01*
X171680114Y-60132158D01*
X171691500Y-60184500D01*
X171691500Y-60215500D01*
X171671498Y-60283621D01*
X171617842Y-60330114D01*
X171565500Y-60341500D01*
X170634000Y-60341500D01*
X170565879Y-60321498D01*
X170519386Y-60267842D01*
X170508000Y-60215500D01*
X170508000Y-60184500D01*
X170528002Y-60116379D01*
X170581658Y-60069886D01*
X170634000Y-60058500D01*
X171565500Y-60058500D01*
X171633621Y-60078502D01*
G37*
%TD.AperFunction*%
%TA.AperFunction,Conductor*%
G36*
X172495129Y-57451034D02*
G01*
X172560819Y-57516724D01*
X172594845Y-57579036D01*
X172596880Y-57597964D01*
X172597034Y-57597948D01*
X172613745Y-57756940D01*
X172616996Y-57787876D01*
X172676011Y-57969504D01*
X172771498Y-58134892D01*
X172899285Y-58276814D01*
X172969493Y-58327823D01*
X173015954Y-58361579D01*
X173053786Y-58389066D01*
X173059814Y-58391750D01*
X173059816Y-58391751D01*
X173222219Y-58464057D01*
X173228250Y-58466742D01*
X173321651Y-58486595D01*
X173408594Y-58505076D01*
X173408599Y-58505076D01*
X173415051Y-58506448D01*
X173606025Y-58506448D01*
X173612477Y-58505076D01*
X173612482Y-58505076D01*
X173699425Y-58486595D01*
X173792826Y-58466742D01*
X173798857Y-58464057D01*
X173961260Y-58391751D01*
X173961262Y-58391750D01*
X173967290Y-58389066D01*
X174005123Y-58361579D01*
X174051583Y-58327823D01*
X174121791Y-58276814D01*
X174249578Y-58134892D01*
X174345065Y-57969504D01*
X174404080Y-57787876D01*
X174407332Y-57756940D01*
X174423352Y-57604513D01*
X174424042Y-57597948D01*
X174423352Y-57591383D01*
X174423352Y-57584778D01*
X174426355Y-57584778D01*
X174436779Y-57527777D01*
X174485281Y-57475931D01*
X174553934Y-57458530D01*
X174636673Y-57461564D01*
X174636677Y-57461564D01*
X174641837Y-57461753D01*
X174646957Y-57461097D01*
X174646959Y-57461097D01*
X174733031Y-57450071D01*
X174803141Y-57461256D01*
X174856075Y-57508569D01*
X174875026Y-57576989D01*
X174853806Y-57645052D01*
X174756943Y-57790018D01*
X174667445Y-57971502D01*
X174666120Y-57975407D01*
X174666119Y-57975408D01*
X174644464Y-58039204D01*
X174602402Y-58163115D01*
X174601599Y-58167154D01*
X174601597Y-58167160D01*
X174574672Y-58302524D01*
X174562925Y-58361579D01*
X174562655Y-58365692D01*
X174562655Y-58365695D01*
X174556188Y-58464350D01*
X174555465Y-58471898D01*
X174554974Y-58475788D01*
X174553002Y-58483468D01*
X174553002Y-58508844D01*
X174552733Y-58517075D01*
X174552651Y-58518328D01*
X174551665Y-58527816D01*
X174548489Y-58550133D01*
X174548349Y-58563497D01*
X174548844Y-58567587D01*
X174548844Y-58567588D01*
X174552089Y-58594401D01*
X174553002Y-58609539D01*
X174553002Y-58877002D01*
X174533000Y-58945123D01*
X174479344Y-58991616D01*
X174427002Y-59003002D01*
X173554992Y-59003002D01*
X173537238Y-59001745D01*
X173533957Y-59001278D01*
X173514361Y-58998489D01*
X173508250Y-58998425D01*
X173505132Y-58998392D01*
X173505127Y-58998392D01*
X173500997Y-58998349D01*
X173481113Y-59000755D01*
X173475896Y-59001277D01*
X173313166Y-59014084D01*
X173308359Y-59015238D01*
X173308353Y-59015239D01*
X173227732Y-59034595D01*
X173129961Y-59058068D01*
X173125390Y-59059961D01*
X173125388Y-59059962D01*
X172960466Y-59128275D01*
X172960462Y-59128277D01*
X172955892Y-59130170D01*
X172795245Y-59228615D01*
X172651976Y-59350978D01*
X172648868Y-59354617D01*
X172586596Y-59388621D01*
X172559813Y-59391500D01*
X172434500Y-59391500D01*
X172366379Y-59371498D01*
X172319886Y-59317842D01*
X172308500Y-59265500D01*
X172308500Y-59033498D01*
X172306972Y-59014084D01*
X172306067Y-59002579D01*
X172306066Y-59002574D01*
X172305562Y-58996169D01*
X172259145Y-58836399D01*
X172242107Y-58807589D01*
X172178491Y-58700020D01*
X172178489Y-58700017D01*
X172174453Y-58693193D01*
X172056807Y-58575547D01*
X172049983Y-58571511D01*
X172049980Y-58571509D01*
X171920427Y-58494892D01*
X171920428Y-58494892D01*
X171913601Y-58490855D01*
X171905990Y-58488644D01*
X171905988Y-58488643D01*
X171835325Y-58468114D01*
X171753831Y-58444438D01*
X171747419Y-58443933D01*
X171741078Y-58442775D01*
X171741406Y-58440978D01*
X171683270Y-58418818D01*
X171641132Y-58361679D01*
X171633500Y-58318494D01*
X171633500Y-58302524D01*
X171653502Y-58234403D01*
X171665858Y-58218221D01*
X171739040Y-58136944D01*
X171834527Y-57971556D01*
X171893542Y-57789928D01*
X171894448Y-57781313D01*
X171912814Y-57606565D01*
X171913504Y-57600000D01*
X171912814Y-57593435D01*
X171912814Y-57586830D01*
X171915543Y-57586830D01*
X171926120Y-57528889D01*
X171974606Y-57477027D01*
X172043293Y-57459606D01*
X172060814Y-57460249D01*
X172096674Y-57461564D01*
X172096678Y-57461564D01*
X172101837Y-57461753D01*
X172106957Y-57461097D01*
X172106959Y-57461097D01*
X172176153Y-57452233D01*
X172323416Y-57433368D01*
X172369826Y-57419444D01*
X172440821Y-57419026D01*
X172495129Y-57451034D01*
G37*
%TD.AperFunction*%
%TD*%
M02*
