M48
; DRILL file {KiCad (6.0.1-0)} date Wednesday, 19 January 2022 at 10:47:40
; FORMAT={-:-/ absolute / inch / decimal}
; #@! TF.CreationDate,2022-01-19T10:47:40+00:00
; #@! TF.GenerationSoftware,Kicad,Pcbnew,(6.0.1-0)
; #@! TF.FileFunction,Plated,1,2,PTH
FMAT,2
INCH
; #@! TA.AperFunction,Plated,PTH,ComponentDrill
T1C0.0098
; #@! TA.AperFunction,Plated,PTH,ViaDrill
T2C0.0157
; #@! TA.AperFunction,Plated,PTH,ComponentDrill
T3C0.0236
; #@! TA.AperFunction,Plated,PTH,ComponentDrill
T4C0.0256
; #@! TA.AperFunction,Plated,PTH,ComponentDrill
T5C0.0394
; #@! TA.AperFunction,Plated,PTH,ComponentDrill
T6C0.0492
%
G90
G05
T1
X7.1142Y-2.4488
T2
X6.7169Y-2.9533
X6.7323Y-2.2677
X6.7362Y-2.3701
X6.7362Y-2.4488
X6.7441Y-2.4961
X6.7632Y-2.9306
X6.7717Y-3.2421
X6.8071Y-2.5394
X6.815Y-2.4409
X6.8311Y-2.2676
X6.8701Y-2.5197
X6.874Y-2.2717
X6.8898Y-2.8524
X6.8898Y-2.9213
X6.9328Y-2.4599
X6.9589Y-2.9419
X7.0021Y-2.5243
X7.0462Y-2.3697
X7.0678Y-2.7388
X7.0723Y-2.8455
X7.0769Y-2.5787
X7.1344Y-2.9317
X7.1387Y-2.625
X7.1639Y-2.563
X7.1654Y-3.1181
X7.1891Y-2.5227
X7.1988Y-2.8346
X7.2002Y-2.3695
X7.2146Y-2.9134
X7.2185Y-2.2638
T3
X6.8547Y-3.0358
X7.0823Y-3.0358
T4
X6.939Y-2.3071
X6.989Y-2.3071
X7.039Y-2.3071
X7.089Y-2.3071
X7.139Y-2.3071
X7.189Y-2.3071
T5
X6.7732Y-2.2087
X6.7984Y-3.1807
X6.8732Y-2.2087
X6.9732Y-2.2087
X7.0732Y-2.2087
X7.1386Y-3.1807
X7.1732Y-2.2087
T6
X6.7984Y-3.0165
X7.1386Y-3.0165
T0
M30
