%TF.GenerationSoftware,KiCad,Pcbnew,(5.1.9-0-10_14)*%
%TF.CreationDate,2021-08-07T10:13:38+01:00*%
%TF.ProjectId,Shelly,5368656c-6c79-42e6-9b69-6361645f7063,4*%
%TF.SameCoordinates,Original*%
%TF.FileFunction,Legend,Top*%
%TF.FilePolarity,Positive*%
%FSLAX46Y46*%
G04 Gerber Fmt 4.6, Leading zero omitted, Abs format (unit mm)*
G04 Created by KiCad (PCBNEW (5.1.9-0-10_14)) date 2021-08-07 10:13:38*
%MOMM*%
%LPD*%
G01*
G04 APERTURE LIST*
%ADD10C,0.120000*%
%ADD11C,0.080000*%
%ADD12C,0.100000*%
G04 APERTURE END LIST*
D10*
%TO.C,D2*%
X182050000Y-69240000D02*
X180150000Y-69240000D01*
X180650000Y-71560000D02*
X182050000Y-71560000D01*
%TO.C,U1*%
X181985000Y-65610000D02*
X182710000Y-65610000D01*
X178490000Y-61390000D02*
X178490000Y-62115000D01*
X179215000Y-61390000D02*
X178490000Y-61390000D01*
X182710000Y-61390000D02*
X182710000Y-62115000D01*
X181985000Y-61390000D02*
X182710000Y-61390000D01*
X178490000Y-65610000D02*
X178490000Y-64885000D01*
X179215000Y-65610000D02*
X178490000Y-65610000D01*
%TO.C,J1*%
X170710000Y-54770000D02*
X170710000Y-57430000D01*
X180930000Y-54770000D02*
X170710000Y-54770000D01*
X180930000Y-57430000D02*
X170710000Y-57430000D01*
X180930000Y-54770000D02*
X180930000Y-57430000D01*
X182200000Y-54770000D02*
X183530000Y-54770000D01*
X183530000Y-54770000D02*
X183530000Y-56100000D01*
%TO.C,R6*%
X176510000Y-63859420D02*
X176510000Y-64140580D01*
X175490000Y-63859420D02*
X175490000Y-64140580D01*
%TO.C,R5*%
X181259420Y-73890000D02*
X181540580Y-73890000D01*
X181259420Y-74910000D02*
X181540580Y-74910000D01*
%TO.C,R4*%
X181259420Y-72490000D02*
X181540580Y-72490000D01*
X181259420Y-73510000D02*
X181540580Y-73510000D01*
%TO.C,R3*%
X171510000Y-77859420D02*
X171510000Y-78140580D01*
X170490000Y-77859420D02*
X170490000Y-78140580D01*
%TO.C,R2*%
X182790000Y-78240580D02*
X182790000Y-77959420D01*
X183810000Y-78240580D02*
X183810000Y-77959420D01*
%TO.C,R1*%
X183810000Y-80859420D02*
X183810000Y-81140580D01*
X182790000Y-80859420D02*
X182790000Y-81140580D01*
%TO.C,C1*%
X176640580Y-61410000D02*
X176359420Y-61410000D01*
X176640580Y-60390000D02*
X176359420Y-60390000D01*
%TO.C,D1*%
X170265000Y-80200000D02*
X170265000Y-82660000D01*
X170265000Y-82660000D02*
X171735000Y-82660000D01*
X171735000Y-82660000D02*
X171735000Y-80200000D01*
%TO.C,D2*%
D11*
X180980952Y-68826190D02*
X180980952Y-68326190D01*
X181100000Y-68326190D01*
X181171428Y-68350000D01*
X181219047Y-68397619D01*
X181242857Y-68445238D01*
X181266666Y-68540476D01*
X181266666Y-68611904D01*
X181242857Y-68707142D01*
X181219047Y-68754761D01*
X181171428Y-68802380D01*
X181100000Y-68826190D01*
X180980952Y-68826190D01*
X181457142Y-68373809D02*
X181480952Y-68350000D01*
X181528571Y-68326190D01*
X181647619Y-68326190D01*
X181695238Y-68350000D01*
X181719047Y-68373809D01*
X181742857Y-68421428D01*
X181742857Y-68469047D01*
X181719047Y-68540476D01*
X181433333Y-68826190D01*
X181742857Y-68826190D01*
%TO.C,Reg1*%
D12*
X170579761Y-66516190D02*
X170413095Y-66278095D01*
X170294047Y-66516190D02*
X170294047Y-66016190D01*
X170484523Y-66016190D01*
X170532142Y-66040000D01*
X170555952Y-66063809D01*
X170579761Y-66111428D01*
X170579761Y-66182857D01*
X170555952Y-66230476D01*
X170532142Y-66254285D01*
X170484523Y-66278095D01*
X170294047Y-66278095D01*
X170984523Y-66492380D02*
X170936904Y-66516190D01*
X170841666Y-66516190D01*
X170794047Y-66492380D01*
X170770238Y-66444761D01*
X170770238Y-66254285D01*
X170794047Y-66206666D01*
X170841666Y-66182857D01*
X170936904Y-66182857D01*
X170984523Y-66206666D01*
X171008333Y-66254285D01*
X171008333Y-66301904D01*
X170770238Y-66349523D01*
X171436904Y-66182857D02*
X171436904Y-66587619D01*
X171413095Y-66635238D01*
X171389285Y-66659047D01*
X171341666Y-66682857D01*
X171270238Y-66682857D01*
X171222619Y-66659047D01*
X171436904Y-66492380D02*
X171389285Y-66516190D01*
X171294047Y-66516190D01*
X171246428Y-66492380D01*
X171222619Y-66468571D01*
X171198809Y-66420952D01*
X171198809Y-66278095D01*
X171222619Y-66230476D01*
X171246428Y-66206666D01*
X171294047Y-66182857D01*
X171389285Y-66182857D01*
X171436904Y-66206666D01*
X171936904Y-66516190D02*
X171651190Y-66516190D01*
X171794047Y-66516190D02*
X171794047Y-66016190D01*
X171746428Y-66087619D01*
X171698809Y-66135238D01*
X171651190Y-66159047D01*
%TO.C,R6*%
D11*
X175916666Y-62626190D02*
X175750000Y-62388095D01*
X175630952Y-62626190D02*
X175630952Y-62126190D01*
X175821428Y-62126190D01*
X175869047Y-62150000D01*
X175892857Y-62173809D01*
X175916666Y-62221428D01*
X175916666Y-62292857D01*
X175892857Y-62340476D01*
X175869047Y-62364285D01*
X175821428Y-62388095D01*
X175630952Y-62388095D01*
X176345238Y-62126190D02*
X176250000Y-62126190D01*
X176202380Y-62150000D01*
X176178571Y-62173809D01*
X176130952Y-62245238D01*
X176107142Y-62340476D01*
X176107142Y-62530952D01*
X176130952Y-62578571D01*
X176154761Y-62602380D01*
X176202380Y-62626190D01*
X176297619Y-62626190D01*
X176345238Y-62602380D01*
X176369047Y-62578571D01*
X176392857Y-62530952D01*
X176392857Y-62411904D01*
X176369047Y-62364285D01*
X176345238Y-62340476D01*
X176297619Y-62316666D01*
X176202380Y-62316666D01*
X176154761Y-62340476D01*
X176130952Y-62364285D01*
X176107142Y-62411904D01*
%TO.C,R5*%
X180026190Y-74483333D02*
X179788095Y-74650000D01*
X180026190Y-74769047D02*
X179526190Y-74769047D01*
X179526190Y-74578571D01*
X179550000Y-74530952D01*
X179573809Y-74507142D01*
X179621428Y-74483333D01*
X179692857Y-74483333D01*
X179740476Y-74507142D01*
X179764285Y-74530952D01*
X179788095Y-74578571D01*
X179788095Y-74769047D01*
X179526190Y-74030952D02*
X179526190Y-74269047D01*
X179764285Y-74292857D01*
X179740476Y-74269047D01*
X179716666Y-74221428D01*
X179716666Y-74102380D01*
X179740476Y-74054761D01*
X179764285Y-74030952D01*
X179811904Y-74007142D01*
X179930952Y-74007142D01*
X179978571Y-74030952D01*
X180002380Y-74054761D01*
X180026190Y-74102380D01*
X180026190Y-74221428D01*
X180002380Y-74269047D01*
X179978571Y-74292857D01*
%TO.C,R4*%
X180026190Y-73083333D02*
X179788095Y-73250000D01*
X180026190Y-73369047D02*
X179526190Y-73369047D01*
X179526190Y-73178571D01*
X179550000Y-73130952D01*
X179573809Y-73107142D01*
X179621428Y-73083333D01*
X179692857Y-73083333D01*
X179740476Y-73107142D01*
X179764285Y-73130952D01*
X179788095Y-73178571D01*
X179788095Y-73369047D01*
X179692857Y-72654761D02*
X180026190Y-72654761D01*
X179502380Y-72773809D02*
X179859523Y-72892857D01*
X179859523Y-72583333D01*
%TO.C,R3*%
X170916666Y-76626190D02*
X170750000Y-76388095D01*
X170630952Y-76626190D02*
X170630952Y-76126190D01*
X170821428Y-76126190D01*
X170869047Y-76150000D01*
X170892857Y-76173809D01*
X170916666Y-76221428D01*
X170916666Y-76292857D01*
X170892857Y-76340476D01*
X170869047Y-76364285D01*
X170821428Y-76388095D01*
X170630952Y-76388095D01*
X171083333Y-76126190D02*
X171392857Y-76126190D01*
X171226190Y-76316666D01*
X171297619Y-76316666D01*
X171345238Y-76340476D01*
X171369047Y-76364285D01*
X171392857Y-76411904D01*
X171392857Y-76530952D01*
X171369047Y-76578571D01*
X171345238Y-76602380D01*
X171297619Y-76626190D01*
X171154761Y-76626190D01*
X171107142Y-76602380D01*
X171083333Y-76578571D01*
%TO.C,R2*%
X183216666Y-76426190D02*
X183050000Y-76188095D01*
X182930952Y-76426190D02*
X182930952Y-75926190D01*
X183121428Y-75926190D01*
X183169047Y-75950000D01*
X183192857Y-75973809D01*
X183216666Y-76021428D01*
X183216666Y-76092857D01*
X183192857Y-76140476D01*
X183169047Y-76164285D01*
X183121428Y-76188095D01*
X182930952Y-76188095D01*
X183407142Y-75973809D02*
X183430952Y-75950000D01*
X183478571Y-75926190D01*
X183597619Y-75926190D01*
X183645238Y-75950000D01*
X183669047Y-75973809D01*
X183692857Y-76021428D01*
X183692857Y-76069047D01*
X183669047Y-76140476D01*
X183383333Y-76426190D01*
X183692857Y-76426190D01*
%TO.C,R1*%
X182576190Y-80033333D02*
X182338095Y-80200000D01*
X182576190Y-80319047D02*
X182076190Y-80319047D01*
X182076190Y-80128571D01*
X182100000Y-80080952D01*
X182123809Y-80057142D01*
X182171428Y-80033333D01*
X182242857Y-80033333D01*
X182290476Y-80057142D01*
X182314285Y-80080952D01*
X182338095Y-80128571D01*
X182338095Y-80319047D01*
X182576190Y-79557142D02*
X182576190Y-79842857D01*
X182576190Y-79700000D02*
X182076190Y-79700000D01*
X182147619Y-79747619D01*
X182195238Y-79795238D01*
X182219047Y-79842857D01*
%TO.C,C1*%
X176416666Y-60078571D02*
X176392857Y-60102380D01*
X176321428Y-60126190D01*
X176273809Y-60126190D01*
X176202380Y-60102380D01*
X176154761Y-60054761D01*
X176130952Y-60007142D01*
X176107142Y-59911904D01*
X176107142Y-59840476D01*
X176130952Y-59745238D01*
X176154761Y-59697619D01*
X176202380Y-59650000D01*
X176273809Y-59626190D01*
X176321428Y-59626190D01*
X176392857Y-59650000D01*
X176416666Y-59673809D01*
X176892857Y-60126190D02*
X176607142Y-60126190D01*
X176750000Y-60126190D02*
X176750000Y-59626190D01*
X176702380Y-59697619D01*
X176654761Y-59745238D01*
X176607142Y-59769047D01*
%TO.C,D1*%
X172226190Y-79669047D02*
X171726190Y-79669047D01*
X171726190Y-79550000D01*
X171750000Y-79478571D01*
X171797619Y-79430952D01*
X171845238Y-79407142D01*
X171940476Y-79383333D01*
X172011904Y-79383333D01*
X172107142Y-79407142D01*
X172154761Y-79430952D01*
X172202380Y-79478571D01*
X172226190Y-79550000D01*
X172226190Y-79669047D01*
X172226190Y-78907142D02*
X172226190Y-79192857D01*
X172226190Y-79050000D02*
X171726190Y-79050000D01*
X171797619Y-79097619D01*
X171845238Y-79145238D01*
X171869047Y-79192857D01*
%TD*%
M02*
