M48
; DRILL file {KiCad (5.1.9-0-10_14)} date Saturday, August 07, 2021 at 10:58:48 AM
; FORMAT={-:-/ absolute / inch / decimal}
; #@! TF.CreationDate,2021-08-07T10:58:48+01:00
; #@! TF.GenerationSoftware,Kicad,Pcbnew,(5.1.9-0-10_14)
; #@! TF.FileFunction,Plated,1,2,PTH
FMAT,2
INCH
T1C0.0098
T2C0.0157
T3C0.0236
T4C0.0256
T5C0.0394
T6C0.0492
%
G90
G05
T1
X7.1102Y-2.5
T2
X6.7185Y-2.9498
X6.7402Y-2.3819
X6.7474Y-2.4976
X6.7632Y-2.9306
X6.7717Y-3.2421
X6.7987Y-2.5428
X6.8386Y-2.3839
X6.8534Y-2.5079
X6.8898Y-2.8524
X6.901Y-2.4228
X6.9016Y-2.9311
X6.9585Y-2.4316
X6.9587Y-2.9382
X6.9793Y-2.5295
X7.0172Y-2.9466
X7.0276Y-2.3622
X7.0276Y-2.4134
X7.0728Y-2.7146
X7.0728Y-2.8484
X7.0787Y-2.6181
X7.1239Y-2.6566
X7.1499Y-2.627
X7.1654Y-3.1181
X7.1776Y-2.3641
X7.185Y-2.4094
X7.1872Y-2.701
X7.2008Y-2.8346
X7.2146Y-2.9134
X7.2185Y-2.3603
T3
X6.8547Y-3.0398
X7.0823Y-3.0398
T4
X6.939Y-2.3071
X6.989Y-2.3071
X7.039Y-2.3071
X7.089Y-2.3071
X7.139Y-2.3071
X7.189Y-2.3071
T5
X6.7732Y-2.2087
X6.7984Y-3.1846
X6.8732Y-2.2087
X6.9732Y-2.2087
X7.0732Y-2.2087
X7.1386Y-3.1846
X7.1732Y-2.2087
T6
X6.7984Y-3.0205
X7.1386Y-3.0205
T0
M30
