%TF.GenerationSoftware,KiCad,Pcbnew,(5.1.10-1-10_14)*%
%TF.CreationDate,2021-05-12T08:07:51+01:00*%
%TF.ProjectId,Shelly,5368656c-6c79-42e6-9b69-6361645f7063,4*%
%TF.SameCoordinates,Original*%
%TF.FileFunction,Copper,L2,Bot*%
%TF.FilePolarity,Positive*%
%FSLAX46Y46*%
G04 Gerber Fmt 4.6, Leading zero omitted, Abs format (unit mm)*
G04 Created by KiCad (PCBNEW (5.1.10-1-10_14)) date 2021-05-12 08:07:51*
%MOMM*%
%LPD*%
G01*
G04 APERTURE LIST*
%TA.AperFunction,ComponentPad*%
%ADD10O,1.700000X1.700000*%
%TD*%
%TA.AperFunction,ComponentPad*%
%ADD11R,1.700000X1.700000*%
%TD*%
%TA.AperFunction,ComponentPad*%
%ADD12C,1.700000*%
%TD*%
%TA.AperFunction,ComponentPad*%
%ADD13C,2.000000*%
%TD*%
%TA.AperFunction,ComponentPad*%
%ADD14C,0.600000*%
%TD*%
%TA.AperFunction,ComponentPad*%
%ADD15C,0.350000*%
%TD*%
%TA.AperFunction,ComponentPad*%
%ADD16O,1.000000X1.000000*%
%TD*%
%TA.AperFunction,ComponentPad*%
%ADD17R,1.000000X1.000000*%
%TD*%
%TA.AperFunction,ViaPad*%
%ADD18C,0.800000*%
%TD*%
%TA.AperFunction,Conductor*%
%ADD19C,0.250000*%
%TD*%
%TA.AperFunction,Conductor*%
%ADD20C,0.254000*%
%TD*%
%TA.AperFunction,Conductor*%
%ADD21C,0.100000*%
%TD*%
G04 APERTURE END LIST*
D10*
%TO.P,J1,5*%
%TO.N,TXD*%
X172040000Y-56100000D03*
%TO.P,J1,4*%
%TO.N,RXD*%
X174580000Y-56100000D03*
%TO.P,J1,3*%
%TO.N,Net-(J1-Pad3)*%
X177120000Y-56100000D03*
%TO.P,J1,2*%
%TO.N,GPIO0*%
X179660000Y-56100000D03*
D11*
%TO.P,J1,1*%
%TO.N,GND*%
X182200000Y-56100000D03*
%TD*%
D12*
%TO.P,J4,S1*%
%TO.N,GND*%
X181325000Y-80910000D03*
X172675000Y-80910000D03*
D13*
X181325000Y-76730000D03*
X172675000Y-76730000D03*
D14*
X179890000Y-77210000D03*
X174110000Y-77210000D03*
%TD*%
D15*
%TO.P,U1,21*%
%TO.N,GND*%
X180600000Y-63500000D03*
%TD*%
D16*
%TO.P,J2,6*%
%TO.N,TXD*%
X176250000Y-58600000D03*
%TO.P,J2,5*%
%TO.N,RXD*%
X177520000Y-58600000D03*
%TO.P,J2,4*%
%TO.N,+3V3*%
X178790000Y-58600000D03*
%TO.P,J2,3*%
%TO.N,RST*%
X180060000Y-58600000D03*
%TO.P,J2,2*%
%TO.N,GPIO0*%
X181330000Y-58600000D03*
D17*
%TO.P,J2,1*%
%TO.N,GND*%
X182600000Y-58600000D03*
%TD*%
D18*
%TO.N,GND*%
X180800000Y-70900000D03*
X175200000Y-61700000D03*
%TO.N,VBUS*%
X172100000Y-66000000D03*
X173415012Y-74701173D03*
%TO.N,RXD*%
X177349113Y-65015125D03*
%TO.N,+3V3*%
X171200000Y-60500000D03*
X170650000Y-74700000D03*
X173603946Y-66100538D03*
%TO.N,GPIO0*%
X182811544Y-66669950D03*
X182310858Y-60047895D03*
%TO.N,TXD*%
X183350000Y-60000000D03*
X173700000Y-60550011D03*
%TO.N,RST*%
X181150011Y-66903426D03*
X176598663Y-65676071D03*
%TO.N,D-*%
X179700000Y-67200000D03*
X178788304Y-60006376D03*
%TO.N,D+*%
X183112660Y-68887340D03*
X181325010Y-60215606D03*
%TO.N,Net-(C1-Pad1)*%
X177133335Y-62065537D03*
X181773500Y-67724979D03*
%TO.N,Net-(J4-PadA6)*%
X178254757Y-74756595D03*
X176675022Y-74648155D03*
%TO.N,Net-(J4-PadA5)*%
X182000000Y-79200000D03*
X175225010Y-74878226D03*
%TO.N,Net-(D1-Pad1)*%
X172000000Y-82350000D03*
X172713009Y-65206987D03*
%TD*%
D19*
%TO.N,GND*%
X182600000Y-58600000D02*
X182600000Y-58700000D01*
X181874999Y-59425001D02*
X180774999Y-59425001D01*
X182600000Y-58700000D02*
X181874999Y-59425001D01*
X180774999Y-59425001D02*
X180600000Y-59600000D01*
X180600000Y-59600000D02*
X180600000Y-63500000D01*
X180600000Y-63500000D02*
X180900000Y-63500000D01*
X181024999Y-57275001D02*
X175624999Y-57275001D01*
X182200000Y-56100000D02*
X181024999Y-57275001D01*
X175624999Y-57275001D02*
X174500000Y-58400000D01*
%TO.N,VBUS*%
X172100000Y-73386161D02*
X173415012Y-74701173D01*
X172100000Y-66000000D02*
X172100000Y-73386161D01*
%TO.N,RXD*%
X177520000Y-58600000D02*
X178019999Y-59099999D01*
X178019999Y-59099999D02*
X178019999Y-64344239D01*
X178019999Y-64344239D02*
X177349113Y-65015125D01*
%TO.N,+3V3*%
X170650000Y-61050000D02*
X171200000Y-60500000D01*
X173603946Y-66100538D02*
X173603946Y-65003946D01*
X173050000Y-64450000D02*
X170650000Y-64450000D01*
X170650000Y-64450000D02*
X170650000Y-61050000D01*
X173603946Y-65003946D02*
X173050000Y-64450000D01*
X170650000Y-74700000D02*
X170650000Y-64450000D01*
%TO.N,GPIO0*%
X182811544Y-66669950D02*
X182811544Y-60548581D01*
X182811544Y-60548581D02*
X182310858Y-60047895D01*
%TO.N,TXD*%
X183600000Y-59750000D02*
X183350000Y-60000000D01*
X183600000Y-58014998D02*
X183600000Y-59750000D01*
X177075001Y-57774999D02*
X183360001Y-57774999D01*
X183360001Y-57774999D02*
X183600000Y-58014998D01*
X176250000Y-58600000D02*
X177075001Y-57774999D01*
X175650011Y-58600000D02*
X176250000Y-58600000D01*
X173700000Y-60550011D02*
X175650011Y-58600000D01*
%TO.N,RST*%
X180060000Y-65813415D02*
X181150011Y-66903426D01*
X180103449Y-67949988D02*
X178872580Y-67949988D01*
X178872580Y-67949988D02*
X176598663Y-65676071D01*
X181150011Y-66903426D02*
X180103449Y-67949988D01*
X180060000Y-65813415D02*
X180013415Y-65813415D01*
X180013415Y-65813415D02*
X179200000Y-65000000D01*
X179200000Y-65000000D02*
X179200000Y-60620000D01*
X180060000Y-58600000D02*
X180060000Y-59760000D01*
X179200000Y-60620000D02*
X180060000Y-59760000D01*
%TO.N,D-*%
X179700000Y-67200000D02*
X178500001Y-66000001D01*
X178500001Y-66000001D02*
X178500001Y-60294679D01*
X178500001Y-60294679D02*
X178788304Y-60006376D01*
%TO.N,D+*%
X182081249Y-60971845D02*
X181325010Y-60215606D01*
X183112660Y-68036638D02*
X182081249Y-67005227D01*
X183112660Y-68887340D02*
X183112660Y-68036638D01*
X182081249Y-67005227D02*
X182081249Y-60971845D01*
%TO.N,Net-(C1-Pad1)*%
X175408064Y-63790808D02*
X175408064Y-65819347D01*
X181098480Y-68399999D02*
X181773500Y-67724979D01*
X177988716Y-68399999D02*
X181098480Y-68399999D01*
X175408064Y-65819347D02*
X177988716Y-68399999D01*
X177133335Y-62065537D02*
X175408064Y-63790808D01*
%TO.N,Net-(J4-PadA6)*%
X176783462Y-74756595D02*
X176675022Y-74648155D01*
X178254757Y-74756595D02*
X176783462Y-74756595D01*
%TO.N,Net-(J4-PadA5)*%
X179546784Y-79200000D02*
X175225010Y-74878226D01*
X182000000Y-79200000D02*
X179546784Y-79200000D01*
%TO.N,Net-(D1-Pad1)*%
X172825001Y-65318979D02*
X172713009Y-65206987D01*
X174735001Y-81564999D02*
X174735001Y-75644162D01*
X174140014Y-74353171D02*
X174125001Y-74338158D01*
X174140014Y-75049175D02*
X174140014Y-74353171D01*
X174125001Y-74338158D02*
X174125001Y-67788591D01*
X173950000Y-82350000D02*
X174735001Y-81564999D01*
X174735001Y-75644162D02*
X174140014Y-75049175D01*
X172000000Y-82350000D02*
X173950000Y-82350000D01*
X174125001Y-67788591D02*
X172825001Y-66488591D01*
X172825001Y-66488591D02*
X172825001Y-65318979D01*
%TD*%
D20*
%TO.N,GND*%
X171465026Y-73810437D02*
X171535298Y-73896063D01*
X171560000Y-73926162D01*
X171588998Y-73949960D01*
X172380012Y-74740975D01*
X172380012Y-74803112D01*
X172419786Y-75003071D01*
X172463538Y-75108697D01*
X172293325Y-75132039D01*
X171988912Y-75237205D01*
X171814956Y-75330186D01*
X171719192Y-75594587D01*
X172675000Y-76550395D01*
X172689143Y-76536253D01*
X172868748Y-76715858D01*
X172854605Y-76730000D01*
X172868748Y-76744143D01*
X172689143Y-76923748D01*
X172675000Y-76909605D01*
X171719192Y-77865413D01*
X171814956Y-78129814D01*
X172104571Y-78270704D01*
X172416108Y-78352384D01*
X172737595Y-78371718D01*
X173056675Y-78327961D01*
X173361088Y-78222795D01*
X173535044Y-78129814D01*
X173628885Y-77870723D01*
X173632500Y-77867108D01*
X173657660Y-77892268D01*
X173665575Y-78037763D01*
X173835603Y-78108562D01*
X173975002Y-78136559D01*
X173975001Y-80180992D01*
X173952472Y-80138843D01*
X173703397Y-80061208D01*
X172854605Y-80910000D01*
X172868748Y-80924143D01*
X172689143Y-81103748D01*
X172675000Y-81089605D01*
X172660858Y-81103748D01*
X172481253Y-80924143D01*
X172495395Y-80910000D01*
X171646603Y-80061208D01*
X171397528Y-80138843D01*
X171271629Y-80402883D01*
X171199661Y-80686411D01*
X171184389Y-80978531D01*
X171226401Y-81268019D01*
X171324081Y-81543747D01*
X171330511Y-81555778D01*
X171196063Y-81690226D01*
X171082795Y-81859744D01*
X171004774Y-82048102D01*
X170965000Y-82248061D01*
X170965000Y-82315000D01*
X170685000Y-82315000D01*
X170685000Y-79881603D01*
X171826208Y-79881603D01*
X172675000Y-80730395D01*
X173523792Y-79881603D01*
X173446157Y-79632528D01*
X173182117Y-79506629D01*
X172898589Y-79434661D01*
X172606469Y-79419389D01*
X172316981Y-79461401D01*
X172041253Y-79559081D01*
X171903843Y-79632528D01*
X171826208Y-79881603D01*
X170685000Y-79881603D01*
X170685000Y-76792595D01*
X171033282Y-76792595D01*
X171077039Y-77111675D01*
X171182205Y-77416088D01*
X171275186Y-77590044D01*
X171539587Y-77685808D01*
X172495395Y-76730000D01*
X171539587Y-75774192D01*
X171275186Y-75869956D01*
X171134296Y-76159571D01*
X171052616Y-76471108D01*
X171033282Y-76792595D01*
X170685000Y-76792595D01*
X170685000Y-75735000D01*
X170751939Y-75735000D01*
X170951898Y-75695226D01*
X171140256Y-75617205D01*
X171309774Y-75503937D01*
X171453937Y-75359774D01*
X171567205Y-75190256D01*
X171645226Y-75001898D01*
X171685000Y-74801939D01*
X171685000Y-74598061D01*
X171645226Y-74398102D01*
X171567205Y-74209744D01*
X171453937Y-74040226D01*
X171410000Y-73996289D01*
X171410000Y-73707491D01*
X171465026Y-73810437D01*
%TA.AperFunction,Conductor*%
D21*
G36*
X171465026Y-73810437D02*
G01*
X171535298Y-73896063D01*
X171560000Y-73926162D01*
X171588998Y-73949960D01*
X172380012Y-74740975D01*
X172380012Y-74803112D01*
X172419786Y-75003071D01*
X172463538Y-75108697D01*
X172293325Y-75132039D01*
X171988912Y-75237205D01*
X171814956Y-75330186D01*
X171719192Y-75594587D01*
X172675000Y-76550395D01*
X172689143Y-76536253D01*
X172868748Y-76715858D01*
X172854605Y-76730000D01*
X172868748Y-76744143D01*
X172689143Y-76923748D01*
X172675000Y-76909605D01*
X171719192Y-77865413D01*
X171814956Y-78129814D01*
X172104571Y-78270704D01*
X172416108Y-78352384D01*
X172737595Y-78371718D01*
X173056675Y-78327961D01*
X173361088Y-78222795D01*
X173535044Y-78129814D01*
X173628885Y-77870723D01*
X173632500Y-77867108D01*
X173657660Y-77892268D01*
X173665575Y-78037763D01*
X173835603Y-78108562D01*
X173975002Y-78136559D01*
X173975001Y-80180992D01*
X173952472Y-80138843D01*
X173703397Y-80061208D01*
X172854605Y-80910000D01*
X172868748Y-80924143D01*
X172689143Y-81103748D01*
X172675000Y-81089605D01*
X172660858Y-81103748D01*
X172481253Y-80924143D01*
X172495395Y-80910000D01*
X171646603Y-80061208D01*
X171397528Y-80138843D01*
X171271629Y-80402883D01*
X171199661Y-80686411D01*
X171184389Y-80978531D01*
X171226401Y-81268019D01*
X171324081Y-81543747D01*
X171330511Y-81555778D01*
X171196063Y-81690226D01*
X171082795Y-81859744D01*
X171004774Y-82048102D01*
X170965000Y-82248061D01*
X170965000Y-82315000D01*
X170685000Y-82315000D01*
X170685000Y-79881603D01*
X171826208Y-79881603D01*
X172675000Y-80730395D01*
X173523792Y-79881603D01*
X173446157Y-79632528D01*
X173182117Y-79506629D01*
X172898589Y-79434661D01*
X172606469Y-79419389D01*
X172316981Y-79461401D01*
X172041253Y-79559081D01*
X171903843Y-79632528D01*
X171826208Y-79881603D01*
X170685000Y-79881603D01*
X170685000Y-76792595D01*
X171033282Y-76792595D01*
X171077039Y-77111675D01*
X171182205Y-77416088D01*
X171275186Y-77590044D01*
X171539587Y-77685808D01*
X172495395Y-76730000D01*
X171539587Y-75774192D01*
X171275186Y-75869956D01*
X171134296Y-76159571D01*
X171052616Y-76471108D01*
X171033282Y-76792595D01*
X170685000Y-76792595D01*
X170685000Y-75735000D01*
X170751939Y-75735000D01*
X170951898Y-75695226D01*
X171140256Y-75617205D01*
X171309774Y-75503937D01*
X171453937Y-75359774D01*
X171567205Y-75190256D01*
X171645226Y-75001898D01*
X171685000Y-74801939D01*
X171685000Y-74598061D01*
X171645226Y-74398102D01*
X171567205Y-74209744D01*
X171453937Y-74040226D01*
X171410000Y-73996289D01*
X171410000Y-73707491D01*
X171465026Y-73810437D01*
G37*
%TD.AperFunction*%
D20*
X170724010Y-56803411D02*
X170886525Y-57046632D01*
X171093368Y-57253475D01*
X171336589Y-57415990D01*
X171606842Y-57527932D01*
X171893740Y-57585000D01*
X172186260Y-57585000D01*
X172473158Y-57527932D01*
X172743411Y-57415990D01*
X172986632Y-57253475D01*
X173193475Y-57046632D01*
X173310000Y-56872240D01*
X173426525Y-57046632D01*
X173633368Y-57253475D01*
X173876589Y-57415990D01*
X174146842Y-57527932D01*
X174433740Y-57585000D01*
X174726260Y-57585000D01*
X175013158Y-57527932D01*
X175283411Y-57415990D01*
X175526632Y-57253475D01*
X175733475Y-57046632D01*
X175850000Y-56872240D01*
X175966525Y-57046632D01*
X176173368Y-57253475D01*
X176382192Y-57393006D01*
X176310198Y-57465000D01*
X176138212Y-57465000D01*
X175918933Y-57508617D01*
X175712376Y-57594176D01*
X175526480Y-57718388D01*
X175368388Y-57876480D01*
X175355608Y-57895606D01*
X175225734Y-57965026D01*
X175164844Y-58014998D01*
X175110010Y-58059999D01*
X175086212Y-58088997D01*
X173660199Y-59515011D01*
X173598061Y-59515011D01*
X173398102Y-59554785D01*
X173209744Y-59632806D01*
X173040226Y-59746074D01*
X172896063Y-59890237D01*
X172782795Y-60059755D01*
X172704774Y-60248113D01*
X172665000Y-60448072D01*
X172665000Y-60651950D01*
X172704774Y-60851909D01*
X172782795Y-61040267D01*
X172896063Y-61209785D01*
X173040226Y-61353948D01*
X173209744Y-61467216D01*
X173398102Y-61545237D01*
X173598061Y-61585011D01*
X173801939Y-61585011D01*
X174001898Y-61545237D01*
X174190256Y-61467216D01*
X174359774Y-61353948D01*
X174503937Y-61209785D01*
X174617205Y-61040267D01*
X174695226Y-60851909D01*
X174735000Y-60651950D01*
X174735000Y-60589812D01*
X175717052Y-59607761D01*
X175918933Y-59691383D01*
X176138212Y-59735000D01*
X176361788Y-59735000D01*
X176581067Y-59691383D01*
X176787624Y-59605824D01*
X176885000Y-59540759D01*
X176982376Y-59605824D01*
X177188933Y-59691383D01*
X177259999Y-59705519D01*
X177259999Y-61035455D01*
X177235274Y-61030537D01*
X177031396Y-61030537D01*
X176831437Y-61070311D01*
X176643079Y-61148332D01*
X176473561Y-61261600D01*
X176329398Y-61405763D01*
X176216130Y-61575281D01*
X176138109Y-61763639D01*
X176098335Y-61963598D01*
X176098335Y-62025735D01*
X174897067Y-63227004D01*
X174868063Y-63250807D01*
X174812935Y-63317982D01*
X174773090Y-63366532D01*
X174702519Y-63498561D01*
X174702518Y-63498562D01*
X174659061Y-63641823D01*
X174648064Y-63753476D01*
X174648064Y-63753486D01*
X174644388Y-63790808D01*
X174648064Y-63828131D01*
X174648065Y-65782015D01*
X174644388Y-65819347D01*
X174648065Y-65856680D01*
X174659061Y-65968317D01*
X174659062Y-65968332D01*
X174702518Y-66111593D01*
X174773090Y-66243623D01*
X174820916Y-66301898D01*
X174868064Y-66359348D01*
X174897062Y-66383146D01*
X177424917Y-68911002D01*
X177448715Y-68940000D01*
X177477713Y-68963798D01*
X177564439Y-69034973D01*
X177696469Y-69105545D01*
X177839730Y-69149002D01*
X177951383Y-69159999D01*
X177951392Y-69159999D01*
X177988715Y-69163675D01*
X178026038Y-69159999D01*
X181061158Y-69159999D01*
X181098480Y-69163675D01*
X181135802Y-69159999D01*
X181135813Y-69159999D01*
X181247466Y-69149002D01*
X181390727Y-69105545D01*
X181522756Y-69034973D01*
X181638481Y-68940000D01*
X181662283Y-68910997D01*
X181813302Y-68759979D01*
X181875439Y-68759979D01*
X182075398Y-68720205D01*
X182091996Y-68713330D01*
X182077660Y-68785401D01*
X182077660Y-68989279D01*
X182117434Y-69189238D01*
X182195455Y-69377596D01*
X182308723Y-69547114D01*
X182452886Y-69691277D01*
X182622404Y-69804545D01*
X182810762Y-69882566D01*
X183010721Y-69922340D01*
X183214599Y-69922340D01*
X183315000Y-69902369D01*
X183315000Y-82315000D01*
X181806089Y-82315000D01*
X181958747Y-82260919D01*
X182096157Y-82187472D01*
X182173792Y-81938397D01*
X181325000Y-81089605D01*
X180476208Y-81938397D01*
X180553843Y-82187472D01*
X180817883Y-82313371D01*
X180824301Y-82315000D01*
X175059802Y-82315000D01*
X175246005Y-82128797D01*
X175275002Y-82105000D01*
X175321697Y-82048102D01*
X175369975Y-81989276D01*
X175440547Y-81857246D01*
X175483688Y-81715026D01*
X175484004Y-81713985D01*
X175495001Y-81602332D01*
X175495001Y-81602323D01*
X175498677Y-81565000D01*
X175495001Y-81527677D01*
X175495001Y-76223018D01*
X178982989Y-79711008D01*
X179006783Y-79740001D01*
X179035776Y-79763795D01*
X179035780Y-79763799D01*
X179106469Y-79821811D01*
X179122508Y-79834974D01*
X179254537Y-79905546D01*
X179397798Y-79949003D01*
X179509451Y-79960000D01*
X179509460Y-79960000D01*
X179546783Y-79963676D01*
X179584106Y-79960000D01*
X180195392Y-79960000D01*
X180296601Y-80061209D01*
X180047528Y-80138843D01*
X179921629Y-80402883D01*
X179849661Y-80686411D01*
X179834389Y-80978531D01*
X179876401Y-81268019D01*
X179974081Y-81543747D01*
X180047528Y-81681157D01*
X180296603Y-81758792D01*
X181145395Y-80910000D01*
X181131253Y-80895858D01*
X181310858Y-80716253D01*
X181325000Y-80730395D01*
X181339143Y-80716253D01*
X181518748Y-80895858D01*
X181504605Y-80910000D01*
X182353397Y-81758792D01*
X182602472Y-81681157D01*
X182728371Y-81417117D01*
X182800339Y-81133589D01*
X182815611Y-80841469D01*
X182773599Y-80551981D01*
X182675919Y-80276253D01*
X182602472Y-80138843D01*
X182503869Y-80108109D01*
X182659774Y-80003937D01*
X182803937Y-79859774D01*
X182917205Y-79690256D01*
X182995226Y-79501898D01*
X183035000Y-79301939D01*
X183035000Y-79098061D01*
X182995226Y-78898102D01*
X182917205Y-78709744D01*
X182803937Y-78540226D01*
X182659774Y-78396063D01*
X182490256Y-78282795D01*
X182301898Y-78204774D01*
X182114530Y-78167504D01*
X182185044Y-78129814D01*
X182280808Y-77865413D01*
X181325000Y-76909605D01*
X181310858Y-76923748D01*
X181131253Y-76744143D01*
X181145395Y-76730000D01*
X181504605Y-76730000D01*
X182460413Y-77685808D01*
X182724814Y-77590044D01*
X182865704Y-77300429D01*
X182947384Y-76988892D01*
X182966718Y-76667405D01*
X182922961Y-76348325D01*
X182817795Y-76043912D01*
X182724814Y-75869956D01*
X182460413Y-75774192D01*
X181504605Y-76730000D01*
X181145395Y-76730000D01*
X180189587Y-75774192D01*
X179925186Y-75869956D01*
X179784296Y-76159571D01*
X179751596Y-76284294D01*
X179618939Y-76310426D01*
X179448649Y-76380592D01*
X179445575Y-76382237D01*
X179435064Y-76575459D01*
X179688222Y-76828617D01*
X179727039Y-77111675D01*
X179802651Y-77330541D01*
X179696253Y-77224143D01*
X179710395Y-77210000D01*
X179255459Y-76755064D01*
X179062237Y-76765575D01*
X178991438Y-76935603D01*
X178955172Y-77116176D01*
X178954829Y-77300355D01*
X178990426Y-77481061D01*
X179051940Y-77630354D01*
X177039178Y-75617593D01*
X177165278Y-75565360D01*
X177238260Y-75516595D01*
X177551046Y-75516595D01*
X177594983Y-75560532D01*
X177764501Y-75673800D01*
X177952859Y-75751821D01*
X178152818Y-75791595D01*
X178356696Y-75791595D01*
X178556655Y-75751821D01*
X178745013Y-75673800D01*
X178863563Y-75594587D01*
X180369192Y-75594587D01*
X181325000Y-76550395D01*
X182280808Y-75594587D01*
X182185044Y-75330186D01*
X181895429Y-75189296D01*
X181583892Y-75107616D01*
X181262405Y-75088282D01*
X180943325Y-75132039D01*
X180638912Y-75237205D01*
X180464956Y-75330186D01*
X180369192Y-75594587D01*
X178863563Y-75594587D01*
X178914531Y-75560532D01*
X179058694Y-75416369D01*
X179171962Y-75246851D01*
X179249983Y-75058493D01*
X179289757Y-74858534D01*
X179289757Y-74654656D01*
X179249983Y-74454697D01*
X179171962Y-74266339D01*
X179058694Y-74096821D01*
X178914531Y-73952658D01*
X178745013Y-73839390D01*
X178556655Y-73761369D01*
X178356696Y-73721595D01*
X178152818Y-73721595D01*
X177952859Y-73761369D01*
X177764501Y-73839390D01*
X177594983Y-73952658D01*
X177551046Y-73996595D01*
X177484447Y-73996595D01*
X177478959Y-73988381D01*
X177334796Y-73844218D01*
X177165278Y-73730950D01*
X176976920Y-73652929D01*
X176776961Y-73613155D01*
X176573083Y-73613155D01*
X176373124Y-73652929D01*
X176184766Y-73730950D01*
X176015248Y-73844218D01*
X175871085Y-73988381D01*
X175835629Y-74041445D01*
X175715266Y-73961021D01*
X175526908Y-73883000D01*
X175326949Y-73843226D01*
X175123071Y-73843226D01*
X174923112Y-73883000D01*
X174885001Y-73898786D01*
X174885001Y-67825916D01*
X174888677Y-67788591D01*
X174885001Y-67751266D01*
X174885001Y-67751258D01*
X174874004Y-67639605D01*
X174830547Y-67496344D01*
X174759975Y-67364315D01*
X174665002Y-67248590D01*
X174636004Y-67224792D01*
X174289703Y-66878492D01*
X174407883Y-66760312D01*
X174521151Y-66590794D01*
X174599172Y-66402436D01*
X174638946Y-66202477D01*
X174638946Y-65998599D01*
X174599172Y-65798640D01*
X174521151Y-65610282D01*
X174407883Y-65440764D01*
X174363946Y-65396827D01*
X174363946Y-65041269D01*
X174367622Y-65003946D01*
X174363946Y-64966623D01*
X174363946Y-64966613D01*
X174352949Y-64854960D01*
X174309492Y-64711699D01*
X174271740Y-64641071D01*
X174238920Y-64579669D01*
X174167745Y-64492943D01*
X174143947Y-64463945D01*
X174114948Y-64440146D01*
X173613803Y-63939002D01*
X173590001Y-63909999D01*
X173474276Y-63815026D01*
X173342247Y-63744454D01*
X173198986Y-63700997D01*
X173087333Y-63690000D01*
X173087322Y-63690000D01*
X173050000Y-63686324D01*
X173012678Y-63690000D01*
X171410000Y-63690000D01*
X171410000Y-61513506D01*
X171501898Y-61495226D01*
X171690256Y-61417205D01*
X171859774Y-61303937D01*
X172003937Y-61159774D01*
X172117205Y-60990256D01*
X172195226Y-60801898D01*
X172235000Y-60601939D01*
X172235000Y-60398061D01*
X172195226Y-60198102D01*
X172117205Y-60009744D01*
X172003937Y-59840226D01*
X171859774Y-59696063D01*
X171690256Y-59582795D01*
X171501898Y-59504774D01*
X171301939Y-59465000D01*
X171098061Y-59465000D01*
X170898102Y-59504774D01*
X170709744Y-59582795D01*
X170685000Y-59599328D01*
X170685000Y-56709232D01*
X170724010Y-56803411D01*
%TA.AperFunction,Conductor*%
D21*
G36*
X170724010Y-56803411D02*
G01*
X170886525Y-57046632D01*
X171093368Y-57253475D01*
X171336589Y-57415990D01*
X171606842Y-57527932D01*
X171893740Y-57585000D01*
X172186260Y-57585000D01*
X172473158Y-57527932D01*
X172743411Y-57415990D01*
X172986632Y-57253475D01*
X173193475Y-57046632D01*
X173310000Y-56872240D01*
X173426525Y-57046632D01*
X173633368Y-57253475D01*
X173876589Y-57415990D01*
X174146842Y-57527932D01*
X174433740Y-57585000D01*
X174726260Y-57585000D01*
X175013158Y-57527932D01*
X175283411Y-57415990D01*
X175526632Y-57253475D01*
X175733475Y-57046632D01*
X175850000Y-56872240D01*
X175966525Y-57046632D01*
X176173368Y-57253475D01*
X176382192Y-57393006D01*
X176310198Y-57465000D01*
X176138212Y-57465000D01*
X175918933Y-57508617D01*
X175712376Y-57594176D01*
X175526480Y-57718388D01*
X175368388Y-57876480D01*
X175355608Y-57895606D01*
X175225734Y-57965026D01*
X175164844Y-58014998D01*
X175110010Y-58059999D01*
X175086212Y-58088997D01*
X173660199Y-59515011D01*
X173598061Y-59515011D01*
X173398102Y-59554785D01*
X173209744Y-59632806D01*
X173040226Y-59746074D01*
X172896063Y-59890237D01*
X172782795Y-60059755D01*
X172704774Y-60248113D01*
X172665000Y-60448072D01*
X172665000Y-60651950D01*
X172704774Y-60851909D01*
X172782795Y-61040267D01*
X172896063Y-61209785D01*
X173040226Y-61353948D01*
X173209744Y-61467216D01*
X173398102Y-61545237D01*
X173598061Y-61585011D01*
X173801939Y-61585011D01*
X174001898Y-61545237D01*
X174190256Y-61467216D01*
X174359774Y-61353948D01*
X174503937Y-61209785D01*
X174617205Y-61040267D01*
X174695226Y-60851909D01*
X174735000Y-60651950D01*
X174735000Y-60589812D01*
X175717052Y-59607761D01*
X175918933Y-59691383D01*
X176138212Y-59735000D01*
X176361788Y-59735000D01*
X176581067Y-59691383D01*
X176787624Y-59605824D01*
X176885000Y-59540759D01*
X176982376Y-59605824D01*
X177188933Y-59691383D01*
X177259999Y-59705519D01*
X177259999Y-61035455D01*
X177235274Y-61030537D01*
X177031396Y-61030537D01*
X176831437Y-61070311D01*
X176643079Y-61148332D01*
X176473561Y-61261600D01*
X176329398Y-61405763D01*
X176216130Y-61575281D01*
X176138109Y-61763639D01*
X176098335Y-61963598D01*
X176098335Y-62025735D01*
X174897067Y-63227004D01*
X174868063Y-63250807D01*
X174812935Y-63317982D01*
X174773090Y-63366532D01*
X174702519Y-63498561D01*
X174702518Y-63498562D01*
X174659061Y-63641823D01*
X174648064Y-63753476D01*
X174648064Y-63753486D01*
X174644388Y-63790808D01*
X174648064Y-63828131D01*
X174648065Y-65782015D01*
X174644388Y-65819347D01*
X174648065Y-65856680D01*
X174659061Y-65968317D01*
X174659062Y-65968332D01*
X174702518Y-66111593D01*
X174773090Y-66243623D01*
X174820916Y-66301898D01*
X174868064Y-66359348D01*
X174897062Y-66383146D01*
X177424917Y-68911002D01*
X177448715Y-68940000D01*
X177477713Y-68963798D01*
X177564439Y-69034973D01*
X177696469Y-69105545D01*
X177839730Y-69149002D01*
X177951383Y-69159999D01*
X177951392Y-69159999D01*
X177988715Y-69163675D01*
X178026038Y-69159999D01*
X181061158Y-69159999D01*
X181098480Y-69163675D01*
X181135802Y-69159999D01*
X181135813Y-69159999D01*
X181247466Y-69149002D01*
X181390727Y-69105545D01*
X181522756Y-69034973D01*
X181638481Y-68940000D01*
X181662283Y-68910997D01*
X181813302Y-68759979D01*
X181875439Y-68759979D01*
X182075398Y-68720205D01*
X182091996Y-68713330D01*
X182077660Y-68785401D01*
X182077660Y-68989279D01*
X182117434Y-69189238D01*
X182195455Y-69377596D01*
X182308723Y-69547114D01*
X182452886Y-69691277D01*
X182622404Y-69804545D01*
X182810762Y-69882566D01*
X183010721Y-69922340D01*
X183214599Y-69922340D01*
X183315000Y-69902369D01*
X183315000Y-82315000D01*
X181806089Y-82315000D01*
X181958747Y-82260919D01*
X182096157Y-82187472D01*
X182173792Y-81938397D01*
X181325000Y-81089605D01*
X180476208Y-81938397D01*
X180553843Y-82187472D01*
X180817883Y-82313371D01*
X180824301Y-82315000D01*
X175059802Y-82315000D01*
X175246005Y-82128797D01*
X175275002Y-82105000D01*
X175321697Y-82048102D01*
X175369975Y-81989276D01*
X175440547Y-81857246D01*
X175483688Y-81715026D01*
X175484004Y-81713985D01*
X175495001Y-81602332D01*
X175495001Y-81602323D01*
X175498677Y-81565000D01*
X175495001Y-81527677D01*
X175495001Y-76223018D01*
X178982989Y-79711008D01*
X179006783Y-79740001D01*
X179035776Y-79763795D01*
X179035780Y-79763799D01*
X179106469Y-79821811D01*
X179122508Y-79834974D01*
X179254537Y-79905546D01*
X179397798Y-79949003D01*
X179509451Y-79960000D01*
X179509460Y-79960000D01*
X179546783Y-79963676D01*
X179584106Y-79960000D01*
X180195392Y-79960000D01*
X180296601Y-80061209D01*
X180047528Y-80138843D01*
X179921629Y-80402883D01*
X179849661Y-80686411D01*
X179834389Y-80978531D01*
X179876401Y-81268019D01*
X179974081Y-81543747D01*
X180047528Y-81681157D01*
X180296603Y-81758792D01*
X181145395Y-80910000D01*
X181131253Y-80895858D01*
X181310858Y-80716253D01*
X181325000Y-80730395D01*
X181339143Y-80716253D01*
X181518748Y-80895858D01*
X181504605Y-80910000D01*
X182353397Y-81758792D01*
X182602472Y-81681157D01*
X182728371Y-81417117D01*
X182800339Y-81133589D01*
X182815611Y-80841469D01*
X182773599Y-80551981D01*
X182675919Y-80276253D01*
X182602472Y-80138843D01*
X182503869Y-80108109D01*
X182659774Y-80003937D01*
X182803937Y-79859774D01*
X182917205Y-79690256D01*
X182995226Y-79501898D01*
X183035000Y-79301939D01*
X183035000Y-79098061D01*
X182995226Y-78898102D01*
X182917205Y-78709744D01*
X182803937Y-78540226D01*
X182659774Y-78396063D01*
X182490256Y-78282795D01*
X182301898Y-78204774D01*
X182114530Y-78167504D01*
X182185044Y-78129814D01*
X182280808Y-77865413D01*
X181325000Y-76909605D01*
X181310858Y-76923748D01*
X181131253Y-76744143D01*
X181145395Y-76730000D01*
X181504605Y-76730000D01*
X182460413Y-77685808D01*
X182724814Y-77590044D01*
X182865704Y-77300429D01*
X182947384Y-76988892D01*
X182966718Y-76667405D01*
X182922961Y-76348325D01*
X182817795Y-76043912D01*
X182724814Y-75869956D01*
X182460413Y-75774192D01*
X181504605Y-76730000D01*
X181145395Y-76730000D01*
X180189587Y-75774192D01*
X179925186Y-75869956D01*
X179784296Y-76159571D01*
X179751596Y-76284294D01*
X179618939Y-76310426D01*
X179448649Y-76380592D01*
X179445575Y-76382237D01*
X179435064Y-76575459D01*
X179688222Y-76828617D01*
X179727039Y-77111675D01*
X179802651Y-77330541D01*
X179696253Y-77224143D01*
X179710395Y-77210000D01*
X179255459Y-76755064D01*
X179062237Y-76765575D01*
X178991438Y-76935603D01*
X178955172Y-77116176D01*
X178954829Y-77300355D01*
X178990426Y-77481061D01*
X179051940Y-77630354D01*
X177039178Y-75617593D01*
X177165278Y-75565360D01*
X177238260Y-75516595D01*
X177551046Y-75516595D01*
X177594983Y-75560532D01*
X177764501Y-75673800D01*
X177952859Y-75751821D01*
X178152818Y-75791595D01*
X178356696Y-75791595D01*
X178556655Y-75751821D01*
X178745013Y-75673800D01*
X178863563Y-75594587D01*
X180369192Y-75594587D01*
X181325000Y-76550395D01*
X182280808Y-75594587D01*
X182185044Y-75330186D01*
X181895429Y-75189296D01*
X181583892Y-75107616D01*
X181262405Y-75088282D01*
X180943325Y-75132039D01*
X180638912Y-75237205D01*
X180464956Y-75330186D01*
X180369192Y-75594587D01*
X178863563Y-75594587D01*
X178914531Y-75560532D01*
X179058694Y-75416369D01*
X179171962Y-75246851D01*
X179249983Y-75058493D01*
X179289757Y-74858534D01*
X179289757Y-74654656D01*
X179249983Y-74454697D01*
X179171962Y-74266339D01*
X179058694Y-74096821D01*
X178914531Y-73952658D01*
X178745013Y-73839390D01*
X178556655Y-73761369D01*
X178356696Y-73721595D01*
X178152818Y-73721595D01*
X177952859Y-73761369D01*
X177764501Y-73839390D01*
X177594983Y-73952658D01*
X177551046Y-73996595D01*
X177484447Y-73996595D01*
X177478959Y-73988381D01*
X177334796Y-73844218D01*
X177165278Y-73730950D01*
X176976920Y-73652929D01*
X176776961Y-73613155D01*
X176573083Y-73613155D01*
X176373124Y-73652929D01*
X176184766Y-73730950D01*
X176015248Y-73844218D01*
X175871085Y-73988381D01*
X175835629Y-74041445D01*
X175715266Y-73961021D01*
X175526908Y-73883000D01*
X175326949Y-73843226D01*
X175123071Y-73843226D01*
X174923112Y-73883000D01*
X174885001Y-73898786D01*
X174885001Y-67825916D01*
X174888677Y-67788591D01*
X174885001Y-67751266D01*
X174885001Y-67751258D01*
X174874004Y-67639605D01*
X174830547Y-67496344D01*
X174759975Y-67364315D01*
X174665002Y-67248590D01*
X174636004Y-67224792D01*
X174289703Y-66878492D01*
X174407883Y-66760312D01*
X174521151Y-66590794D01*
X174599172Y-66402436D01*
X174638946Y-66202477D01*
X174638946Y-65998599D01*
X174599172Y-65798640D01*
X174521151Y-65610282D01*
X174407883Y-65440764D01*
X174363946Y-65396827D01*
X174363946Y-65041269D01*
X174367622Y-65003946D01*
X174363946Y-64966623D01*
X174363946Y-64966613D01*
X174352949Y-64854960D01*
X174309492Y-64711699D01*
X174271740Y-64641071D01*
X174238920Y-64579669D01*
X174167745Y-64492943D01*
X174143947Y-64463945D01*
X174114948Y-64440146D01*
X173613803Y-63939002D01*
X173590001Y-63909999D01*
X173474276Y-63815026D01*
X173342247Y-63744454D01*
X173198986Y-63700997D01*
X173087333Y-63690000D01*
X173087322Y-63690000D01*
X173050000Y-63686324D01*
X173012678Y-63690000D01*
X171410000Y-63690000D01*
X171410000Y-61513506D01*
X171501898Y-61495226D01*
X171690256Y-61417205D01*
X171859774Y-61303937D01*
X172003937Y-61159774D01*
X172117205Y-60990256D01*
X172195226Y-60801898D01*
X172235000Y-60601939D01*
X172235000Y-60398061D01*
X172195226Y-60198102D01*
X172117205Y-60009744D01*
X172003937Y-59840226D01*
X171859774Y-59696063D01*
X171690256Y-59582795D01*
X171501898Y-59504774D01*
X171301939Y-59465000D01*
X171098061Y-59465000D01*
X170898102Y-59504774D01*
X170709744Y-59582795D01*
X170685000Y-59599328D01*
X170685000Y-56709232D01*
X170724010Y-56803411D01*
G37*
%TD.AperFunction*%
D20*
X180407805Y-60705862D02*
X180521073Y-60875380D01*
X180665236Y-61019543D01*
X180834754Y-61132811D01*
X181023112Y-61210832D01*
X181223071Y-61250606D01*
X181285208Y-61250606D01*
X181321250Y-61286648D01*
X181321249Y-65882210D01*
X181251950Y-65868426D01*
X181189813Y-65868426D01*
X180623804Y-65302417D01*
X180600001Y-65273414D01*
X180484276Y-65178441D01*
X180417607Y-65142805D01*
X179960000Y-64685199D01*
X179960000Y-60934801D01*
X180343701Y-60551101D01*
X180407805Y-60705862D01*
%TA.AperFunction,Conductor*%
D21*
G36*
X180407805Y-60705862D02*
G01*
X180521073Y-60875380D01*
X180665236Y-61019543D01*
X180834754Y-61132811D01*
X181023112Y-61210832D01*
X181223071Y-61250606D01*
X181285208Y-61250606D01*
X181321250Y-61286648D01*
X181321249Y-65882210D01*
X181251950Y-65868426D01*
X181189813Y-65868426D01*
X180623804Y-65302417D01*
X180600001Y-65273414D01*
X180484276Y-65178441D01*
X180417607Y-65142805D01*
X179960000Y-64685199D01*
X179960000Y-60934801D01*
X180343701Y-60551101D01*
X180407805Y-60705862D01*
G37*
%TD.AperFunction*%
D20*
X182747000Y-58727000D02*
X182727000Y-58727000D01*
X182727000Y-58747000D01*
X182473000Y-58747000D01*
X182473000Y-58727000D01*
X182461974Y-58727000D01*
X182465000Y-58711788D01*
X182465000Y-58534999D01*
X182747000Y-58534999D01*
X182747000Y-58727000D01*
%TA.AperFunction,Conductor*%
D21*
G36*
X182747000Y-58727000D02*
G01*
X182727000Y-58727000D01*
X182727000Y-58747000D01*
X182473000Y-58747000D01*
X182473000Y-58727000D01*
X182461974Y-58727000D01*
X182465000Y-58711788D01*
X182465000Y-58534999D01*
X182747000Y-58534999D01*
X182747000Y-58727000D01*
G37*
%TD.AperFunction*%
D20*
X182327000Y-55973000D02*
X182347000Y-55973000D01*
X182347000Y-56227000D01*
X182327000Y-56227000D01*
X182327000Y-56247000D01*
X182073000Y-56247000D01*
X182073000Y-56227000D01*
X182053000Y-56227000D01*
X182053000Y-55973000D01*
X182073000Y-55973000D01*
X182073000Y-55953000D01*
X182327000Y-55953000D01*
X182327000Y-55973000D01*
%TA.AperFunction,Conductor*%
D21*
G36*
X182327000Y-55973000D02*
G01*
X182347000Y-55973000D01*
X182347000Y-56227000D01*
X182327000Y-56227000D01*
X182327000Y-56247000D01*
X182073000Y-56247000D01*
X182073000Y-56227000D01*
X182053000Y-56227000D01*
X182053000Y-55973000D01*
X182073000Y-55973000D01*
X182073000Y-55953000D01*
X182327000Y-55953000D01*
X182327000Y-55973000D01*
G37*
%TD.AperFunction*%
%TD*%
M02*
