%TF.GenerationSoftware,KiCad,Pcbnew,(5.1.9-0-10_14)*%
%TF.CreationDate,2021-05-23T12:15:11+01:00*%
%TF.ProjectId,Shelly,5368656c-6c79-42e6-9b69-6361645f7063,4*%
%TF.SameCoordinates,Original*%
%TF.FileFunction,Copper,L1,Top*%
%TF.FilePolarity,Positive*%
%FSLAX46Y46*%
G04 Gerber Fmt 4.6, Leading zero omitted, Abs format (unit mm)*
G04 Created by KiCad (PCBNEW (5.1.9-0-10_14)) date 2021-05-23 12:15:11*
%MOMM*%
%LPD*%
G01*
G04 APERTURE LIST*
%TA.AperFunction,EtchedComponent*%
%ADD10C,0.250000*%
%TD*%
%TA.AperFunction,EtchedComponent*%
%ADD11C,0.500000*%
%TD*%
%TA.AperFunction,SMDPad,CuDef*%
%ADD12C,0.100000*%
%TD*%
%TA.AperFunction,SMDPad,CuDef*%
%ADD13R,0.500000X4.000000*%
%TD*%
%TA.AperFunction,SMDPad,CuDef*%
%ADD14R,0.600000X1.100000*%
%TD*%
%TA.AperFunction,SMDPad,CuDef*%
%ADD15R,1.425000X3.700000*%
%TD*%
%TA.AperFunction,ComponentPad*%
%ADD16O,1.700000X1.700000*%
%TD*%
%TA.AperFunction,ComponentPad*%
%ADD17R,1.700000X1.700000*%
%TD*%
%TA.AperFunction,SMDPad,CuDef*%
%ADD18R,0.800000X1.200000*%
%TD*%
%TA.AperFunction,SMDPad,CuDef*%
%ADD19R,0.200000X0.500000*%
%TD*%
%TA.AperFunction,SMDPad,CuDef*%
%ADD20R,0.600000X1.140000*%
%TD*%
%TA.AperFunction,ComponentPad*%
%ADD21C,1.700000*%
%TD*%
%TA.AperFunction,ComponentPad*%
%ADD22C,2.000000*%
%TD*%
%TA.AperFunction,SMDPad,CuDef*%
%ADD23R,0.300000X1.140000*%
%TD*%
%TA.AperFunction,ComponentPad*%
%ADD24C,0.600000*%
%TD*%
%TA.AperFunction,ComponentPad*%
%ADD25C,0.350000*%
%TD*%
%TA.AperFunction,SMDPad,CuDef*%
%ADD26R,0.200000X0.200000*%
%TD*%
%TA.AperFunction,SMDPad,CuDef*%
%ADD27C,0.500000*%
%TD*%
%TA.AperFunction,ComponentPad*%
%ADD28O,1.000000X1.000000*%
%TD*%
%TA.AperFunction,ComponentPad*%
%ADD29R,1.000000X1.000000*%
%TD*%
%TA.AperFunction,ViaPad*%
%ADD30C,0.800000*%
%TD*%
%TA.AperFunction,Conductor*%
%ADD31C,0.250000*%
%TD*%
%TA.AperFunction,Conductor*%
%ADD32C,0.500000*%
%TD*%
%TA.AperFunction,Conductor*%
%ADD33C,0.254000*%
%TD*%
%TA.AperFunction,Conductor*%
%ADD34C,0.100000*%
%TD*%
G04 APERTURE END LIST*
D10*
%TO.C,Reg1*%
X173410000Y-69240000D02*
G75*
G02*
X173760000Y-69590000I0J-350000D01*
G01*
X173760000Y-67990000D02*
G75*
G02*
X173410000Y-68340000I-350000J0D01*
G01*
X171860000Y-66890000D02*
G75*
G02*
X172880000Y-65870000I1020000J0D01*
G01*
X176500000Y-65870043D02*
G75*
G02*
X177620000Y-66990000I0J-1120000D01*
G01*
X172880000Y-65870000D02*
X176500000Y-65870043D01*
X170810000Y-68340000D02*
X173410000Y-68340000D01*
X170910000Y-69240000D02*
X173410000Y-69240000D01*
D11*
X173760000Y-70140000D02*
X175260000Y-70140000D01*
X173760000Y-71340000D02*
X173760000Y-70140000D01*
%TD*%
%TA.AperFunction,SMDPad,CuDef*%
D12*
%TO.P,Reg1,2*%
%TO.N,VBUS*%
G36*
X172763956Y-70090389D02*
G01*
X172788247Y-70092943D01*
X172812173Y-70097854D01*
X172835506Y-70105076D01*
X172858022Y-70114542D01*
X172879508Y-70126159D01*
X172899756Y-70139818D01*
X172918576Y-70155387D01*
X172935787Y-70172717D01*
X172951224Y-70191646D01*
X172964740Y-70211990D01*
X172976207Y-70233556D01*
X172985515Y-70256137D01*
X172992574Y-70279520D01*
X172997318Y-70303480D01*
X172999702Y-70327788D01*
X172999702Y-70352213D01*
X172994929Y-70449776D01*
X172994929Y-70449795D01*
X172994927Y-70449817D01*
X172994734Y-70453282D01*
X172993566Y-70463698D01*
X172992545Y-70474103D01*
X172978273Y-70570754D01*
X172977739Y-70574204D01*
X172975564Y-70584436D01*
X172973529Y-70594715D01*
X172949893Y-70689513D01*
X172949025Y-70692894D01*
X172945863Y-70702859D01*
X172942834Y-70712894D01*
X172910061Y-70804932D01*
X172908867Y-70808213D01*
X172904739Y-70817844D01*
X172900754Y-70827513D01*
X172859156Y-70915915D01*
X172857647Y-70919064D01*
X172852589Y-70928264D01*
X172847687Y-70937484D01*
X172797660Y-71021404D01*
X172795852Y-71024390D01*
X172789914Y-71033062D01*
X172784143Y-71041748D01*
X172726176Y-71120371D01*
X172726169Y-71120382D01*
X172726160Y-71120393D01*
X172724076Y-71123181D01*
X172717341Y-71131207D01*
X172710731Y-71139311D01*
X172645365Y-71211908D01*
X172645357Y-71211917D01*
X172645347Y-71211927D01*
X172643005Y-71214494D01*
X172635494Y-71221849D01*
X172628146Y-71229248D01*
X172556010Y-71295117D01*
X172556001Y-71295126D01*
X172555990Y-71295135D01*
X172553405Y-71297463D01*
X172545263Y-71304009D01*
X172537181Y-71310695D01*
X172458950Y-71369220D01*
X172456140Y-71371292D01*
X172447368Y-71377032D01*
X172438700Y-71382879D01*
X172355140Y-71433484D01*
X172355131Y-71433490D01*
X172355120Y-71433496D01*
X172352132Y-71435278D01*
X172342842Y-71440134D01*
X172333645Y-71445107D01*
X172245553Y-71487313D01*
X172245537Y-71487322D01*
X172245517Y-71487330D01*
X172242378Y-71488808D01*
X172232671Y-71492730D01*
X172223020Y-71496786D01*
X172131219Y-71530198D01*
X172131213Y-71530201D01*
X172131205Y-71530203D01*
X172127923Y-71531373D01*
X172117875Y-71534330D01*
X172107880Y-71537424D01*
X172013251Y-71561721D01*
X172009864Y-71562566D01*
X171999553Y-71564533D01*
X171989325Y-71566632D01*
X171892775Y-71581579D01*
X171889322Y-71582089D01*
X171878875Y-71583040D01*
X171868484Y-71584132D01*
X171770937Y-71589586D01*
X171767450Y-71589757D01*
X171762646Y-71589723D01*
X171757840Y-71589975D01*
X171750859Y-71589999D01*
X171747368Y-71589987D01*
X171722987Y-71588536D01*
X171698863Y-71584714D01*
X171675228Y-71578556D01*
X171652306Y-71570121D01*
X171630316Y-71559490D01*
X171609468Y-71546762D01*
X171589962Y-71532062D01*
X171571984Y-71515529D01*
X171555706Y-71497320D01*
X171541281Y-71477609D01*
X171528848Y-71456585D01*
X171518527Y-71434448D01*
X171510416Y-71411409D01*
X171504590Y-71387689D01*
X171501108Y-71363514D01*
X171500001Y-71339114D01*
X171501282Y-71314723D01*
X171504935Y-71290573D01*
X171510927Y-71266894D01*
X171519202Y-71243914D01*
X171529681Y-71221851D01*
X171542262Y-71200915D01*
X171556825Y-71181307D01*
X171573232Y-71163214D01*
X171591328Y-71146808D01*
X171610937Y-71132247D01*
X171631874Y-71119668D01*
X171653938Y-71109192D01*
X171676920Y-71100920D01*
X171700598Y-71094929D01*
X171724749Y-71091278D01*
X171749141Y-71090001D01*
X171749580Y-71089999D01*
X171828362Y-71085595D01*
X171900744Y-71074389D01*
X171971700Y-71056171D01*
X172040527Y-71031119D01*
X172106585Y-70999469D01*
X172169224Y-70961534D01*
X172227879Y-70917653D01*
X172281968Y-70868264D01*
X172330975Y-70813835D01*
X172374445Y-70754873D01*
X172411944Y-70691969D01*
X172443133Y-70625689D01*
X172467703Y-70556687D01*
X172485424Y-70485613D01*
X172496123Y-70413155D01*
X172500299Y-70327786D01*
X172500493Y-70324301D01*
X172503216Y-70300029D01*
X172508294Y-70276137D01*
X172515680Y-70252856D01*
X172525302Y-70230406D01*
X172537068Y-70209003D01*
X172550869Y-70188849D01*
X172566568Y-70170139D01*
X172584019Y-70153050D01*
X172603054Y-70137745D01*
X172623492Y-70124371D01*
X172645138Y-70113055D01*
X172667784Y-70103905D01*
X172691216Y-70097010D01*
X172715208Y-70092432D01*
X172739532Y-70090219D01*
X172763956Y-70090389D01*
G37*
%TD.AperFunction*%
%TA.AperFunction,SMDPad,CuDef*%
%TO.P,Reg1,3*%
%TO.N,GND*%
G36*
X176263491Y-66190024D02*
G01*
X176267858Y-66190299D01*
X176272214Y-66190299D01*
X176316107Y-66192446D01*
X176316121Y-66192446D01*
X176316137Y-66192448D01*
X176319613Y-66192641D01*
X176330056Y-66193813D01*
X176340430Y-66194830D01*
X176383919Y-66201251D01*
X176383925Y-66201252D01*
X176383932Y-66201253D01*
X176387374Y-66201785D01*
X176397668Y-66203973D01*
X176407885Y-66205996D01*
X176450528Y-66216628D01*
X176450543Y-66216631D01*
X176450559Y-66216636D01*
X176453926Y-66217500D01*
X176463902Y-66220665D01*
X176473925Y-66223691D01*
X176515343Y-66238439D01*
X176515349Y-66238441D01*
X176515353Y-66238443D01*
X176518624Y-66239633D01*
X176528236Y-66243753D01*
X176537931Y-66247749D01*
X176577712Y-66266469D01*
X176580860Y-66267978D01*
X176590028Y-66273018D01*
X176599269Y-66277932D01*
X176637033Y-66300443D01*
X176640019Y-66302251D01*
X176648676Y-66308178D01*
X176657382Y-66313963D01*
X176692751Y-66340039D01*
X176692768Y-66340051D01*
X176692786Y-66340066D01*
X176695565Y-66342144D01*
X176703575Y-66348865D01*
X176711696Y-66355489D01*
X176744368Y-66384907D01*
X176746946Y-66387261D01*
X176754260Y-66394730D01*
X176761698Y-66402116D01*
X176791333Y-66434571D01*
X176791345Y-66434583D01*
X176791357Y-66434598D01*
X176793680Y-66437176D01*
X176800243Y-66445339D01*
X176806914Y-66453403D01*
X176833250Y-66488607D01*
X176835322Y-66491417D01*
X176841058Y-66500184D01*
X176846908Y-66508856D01*
X176869683Y-66546462D01*
X176871471Y-66549461D01*
X176876307Y-66558712D01*
X176881302Y-66567950D01*
X176900298Y-66607600D01*
X176901784Y-66610758D01*
X176905704Y-66620461D01*
X176909761Y-66630111D01*
X176924791Y-66671406D01*
X176924798Y-66671424D01*
X176924805Y-66671445D01*
X176925969Y-66674713D01*
X176928932Y-66684782D01*
X176932020Y-66694757D01*
X176942951Y-66737328D01*
X176942955Y-66737342D01*
X176942958Y-66737359D01*
X176943799Y-66740728D01*
X176945761Y-66751014D01*
X176947866Y-66761268D01*
X176954592Y-66804716D01*
X176955102Y-66808169D01*
X176956053Y-66818620D01*
X176957145Y-66829008D01*
X176959599Y-66872904D01*
X176959770Y-66876391D01*
X176959736Y-66881199D01*
X176959987Y-66885983D01*
X176959998Y-66889125D01*
X176959996Y-66889909D01*
X176960000Y-66890000D01*
X176960000Y-71690000D01*
X176959976Y-71693491D01*
X176958442Y-71717867D01*
X176954537Y-71741978D01*
X176948298Y-71765592D01*
X176939784Y-71788485D01*
X176929077Y-71810438D01*
X176916278Y-71831242D01*
X176901511Y-71850697D01*
X176884916Y-71868618D01*
X176866651Y-71884834D01*
X176846891Y-71899191D01*
X176825824Y-71911551D01*
X176822500Y-71913087D01*
X176822500Y-73040000D01*
X178310000Y-73040000D01*
X178313491Y-73040024D01*
X178337867Y-73041558D01*
X178361978Y-73045463D01*
X178385592Y-73051702D01*
X178408485Y-73060216D01*
X178430438Y-73070923D01*
X178451242Y-73083722D01*
X178470697Y-73098489D01*
X178488618Y-73115084D01*
X178504834Y-73133349D01*
X178519191Y-73153109D01*
X178531551Y-73174176D01*
X178541796Y-73196348D01*
X178549828Y-73219415D01*
X178555572Y-73243155D01*
X178558971Y-73267342D01*
X178559994Y-73291745D01*
X178558630Y-73316132D01*
X178554894Y-73340269D01*
X178548820Y-73363927D01*
X178540466Y-73386879D01*
X178529912Y-73408906D01*
X178517259Y-73429798D01*
X178502628Y-73449356D01*
X178486159Y-73467393D01*
X178468007Y-73483736D01*
X178448348Y-73498230D01*
X178427368Y-73510737D01*
X178405268Y-73521137D01*
X178382258Y-73529330D01*
X178358559Y-73535239D01*
X178334396Y-73538807D01*
X178310000Y-73540000D01*
X171710000Y-73540000D01*
X171706509Y-73539976D01*
X171682133Y-73538442D01*
X171658022Y-73534537D01*
X171634408Y-73528298D01*
X171611515Y-73519784D01*
X171589562Y-73509077D01*
X171568758Y-73496278D01*
X171549303Y-73481511D01*
X171531382Y-73464916D01*
X171515166Y-73446651D01*
X171500809Y-73426891D01*
X171488449Y-73405824D01*
X171478204Y-73383652D01*
X171470172Y-73360585D01*
X171464428Y-73336845D01*
X171461029Y-73312658D01*
X171460006Y-73288255D01*
X171461370Y-73263868D01*
X171465106Y-73239731D01*
X171471180Y-73216073D01*
X171479534Y-73193121D01*
X171490088Y-73171094D01*
X171502741Y-73150202D01*
X171517372Y-73130644D01*
X171533841Y-73112607D01*
X171551993Y-73096264D01*
X171571652Y-73081770D01*
X171592632Y-73069263D01*
X171614732Y-73058863D01*
X171637742Y-73050670D01*
X171661441Y-73044761D01*
X171685604Y-73041193D01*
X171710000Y-73040000D01*
X176322500Y-73040000D01*
X176322500Y-71690000D01*
X176322524Y-71686509D01*
X176324058Y-71662133D01*
X176327963Y-71638022D01*
X176334202Y-71614408D01*
X176342716Y-71591515D01*
X176353423Y-71569562D01*
X176366222Y-71548758D01*
X176380989Y-71529303D01*
X176397584Y-71511382D01*
X176415849Y-71495166D01*
X176435609Y-71480809D01*
X176456676Y-71468449D01*
X176460000Y-71466913D01*
X176460000Y-66894033D01*
X176458608Y-66869127D01*
X176455622Y-66849842D01*
X176450772Y-66830954D01*
X176444095Y-66812608D01*
X176435664Y-66795013D01*
X176425560Y-66778329D01*
X176413874Y-66762708D01*
X176400715Y-66748297D01*
X176386212Y-66735239D01*
X176370516Y-66723666D01*
X176353757Y-66713676D01*
X176336099Y-66705367D01*
X176317720Y-66698822D01*
X176298793Y-66694103D01*
X176279485Y-66691252D01*
X176253899Y-66690000D01*
X173264033Y-66690000D01*
X173239127Y-66691392D01*
X173219842Y-66694378D01*
X173200954Y-66699228D01*
X173182608Y-66705905D01*
X173165013Y-66714336D01*
X173148329Y-66724440D01*
X173132708Y-66736126D01*
X173118297Y-66749285D01*
X173105239Y-66763788D01*
X173093666Y-66779484D01*
X173083676Y-66796243D01*
X173075367Y-66813901D01*
X173068822Y-66832280D01*
X173064103Y-66851207D01*
X173061252Y-66870515D01*
X173060000Y-66896101D01*
X173060000Y-67390000D01*
X173059976Y-67393491D01*
X173058442Y-67417867D01*
X173054537Y-67441978D01*
X173048298Y-67465592D01*
X173039784Y-67488485D01*
X173029077Y-67510438D01*
X173016278Y-67531242D01*
X173001511Y-67550697D01*
X172984916Y-67568618D01*
X172966651Y-67584834D01*
X172946891Y-67599191D01*
X172925824Y-67611551D01*
X172903652Y-67621796D01*
X172880585Y-67629828D01*
X172856845Y-67635572D01*
X172832658Y-67638971D01*
X172808255Y-67639994D01*
X172783868Y-67638630D01*
X172759731Y-67634894D01*
X172736073Y-67628820D01*
X172713121Y-67620466D01*
X172691094Y-67609912D01*
X172670202Y-67597259D01*
X172650644Y-67582628D01*
X172632607Y-67566159D01*
X172616264Y-67548007D01*
X172601770Y-67528348D01*
X172589263Y-67507368D01*
X172578863Y-67485268D01*
X172570670Y-67462258D01*
X172564761Y-67438559D01*
X172561193Y-67414396D01*
X172560000Y-67390000D01*
X172560000Y-66890000D01*
X172560024Y-66886509D01*
X172560299Y-66882142D01*
X172560299Y-66877786D01*
X172562446Y-66833893D01*
X172562446Y-66833879D01*
X172562448Y-66833863D01*
X172562641Y-66830387D01*
X172563813Y-66819944D01*
X172564830Y-66809570D01*
X172571252Y-66766077D01*
X172571785Y-66762626D01*
X172573973Y-66752332D01*
X172575996Y-66742115D01*
X172586628Y-66699472D01*
X172586631Y-66699457D01*
X172586636Y-66699441D01*
X172587500Y-66696074D01*
X172590665Y-66686098D01*
X172593691Y-66676075D01*
X172608439Y-66634657D01*
X172609633Y-66631376D01*
X172613753Y-66621764D01*
X172617749Y-66612069D01*
X172636469Y-66572288D01*
X172637978Y-66569140D01*
X172643018Y-66559972D01*
X172647932Y-66550731D01*
X172670443Y-66512967D01*
X172672251Y-66509981D01*
X172678178Y-66501324D01*
X172683963Y-66492618D01*
X172710039Y-66457249D01*
X172710051Y-66457232D01*
X172710066Y-66457214D01*
X172712144Y-66454435D01*
X172718865Y-66446425D01*
X172725489Y-66438304D01*
X172754907Y-66405632D01*
X172757261Y-66403054D01*
X172764730Y-66395740D01*
X172772116Y-66388302D01*
X172804571Y-66358667D01*
X172804583Y-66358655D01*
X172804598Y-66358643D01*
X172807176Y-66356320D01*
X172815339Y-66349757D01*
X172823403Y-66343086D01*
X172858607Y-66316750D01*
X172861417Y-66314678D01*
X172870184Y-66308942D01*
X172878856Y-66303092D01*
X172916462Y-66280317D01*
X172919461Y-66278529D01*
X172928712Y-66273693D01*
X172937950Y-66268698D01*
X172977600Y-66249702D01*
X172980758Y-66248216D01*
X172990461Y-66244296D01*
X173000111Y-66240239D01*
X173041406Y-66225209D01*
X173041424Y-66225202D01*
X173041445Y-66225195D01*
X173044713Y-66224031D01*
X173054782Y-66221068D01*
X173064757Y-66217980D01*
X173107328Y-66207049D01*
X173107342Y-66207045D01*
X173107359Y-66207042D01*
X173110728Y-66206201D01*
X173121014Y-66204239D01*
X173131268Y-66202134D01*
X173174716Y-66195408D01*
X173178169Y-66194898D01*
X173188620Y-66193947D01*
X173199008Y-66192855D01*
X173242904Y-66190401D01*
X173246391Y-66190230D01*
X173251199Y-66190264D01*
X173255983Y-66190013D01*
X173259125Y-66190002D01*
X173259909Y-66190004D01*
X173260000Y-66190000D01*
X176260000Y-66190000D01*
X176263491Y-66190024D01*
G37*
%TD.AperFunction*%
D13*
%TO.P,Reg1,4*%
%TO.N,+3V3*%
X178210000Y-69590000D03*
D14*
%TO.P,Reg1,~*%
%TO.N,N/C*%
X173760000Y-67440000D03*
X171860000Y-67440000D03*
%TO.P,Reg1,3*%
%TO.N,GND*%
X172810000Y-67440000D03*
%TO.P,Reg1,1*%
%TO.N,VBUS*%
X171860000Y-70140000D03*
%TO.P,Reg1,2*%
X172810000Y-70140000D03*
%TO.P,Reg1,~*%
%TO.N,N/C*%
X173760000Y-70140000D03*
%TO.P,Reg1,4*%
%TO.N,+3V3*%
%TA.AperFunction,SMDPad,CuDef*%
G36*
G01*
X177735000Y-70890000D02*
X178685000Y-70890000D01*
G75*
G02*
X178935000Y-71140000I0J-250000D01*
G01*
X178935000Y-71640000D01*
G75*
G02*
X178685000Y-71890000I-250000J0D01*
G01*
X177735000Y-71890000D01*
G75*
G02*
X177485000Y-71640000I0J250000D01*
G01*
X177485000Y-71140000D01*
G75*
G02*
X177735000Y-70890000I250000J0D01*
G01*
G37*
%TD.AperFunction*%
%TO.P,Reg1,3*%
%TO.N,GND*%
%TA.AperFunction,SMDPad,CuDef*%
G36*
G01*
X177735000Y-72790000D02*
X178685000Y-72790000D01*
G75*
G02*
X178935000Y-73040000I0J-250000D01*
G01*
X178935000Y-73540000D01*
G75*
G02*
X178685000Y-73790000I-250000J0D01*
G01*
X177735000Y-73790000D01*
G75*
G02*
X177485000Y-73540000I0J250000D01*
G01*
X177485000Y-73040000D01*
G75*
G02*
X177735000Y-72790000I250000J0D01*
G01*
G37*
%TD.AperFunction*%
%TA.AperFunction,SMDPad,CuDef*%
G36*
G01*
X171485000Y-72790000D02*
X172435000Y-72790000D01*
G75*
G02*
X172685000Y-73040000I0J-250000D01*
G01*
X172685000Y-73540000D01*
G75*
G02*
X172435000Y-73790000I-250000J0D01*
G01*
X171485000Y-73790000D01*
G75*
G02*
X171235000Y-73540000I0J250000D01*
G01*
X171235000Y-73040000D01*
G75*
G02*
X171485000Y-72790000I250000J0D01*
G01*
G37*
%TD.AperFunction*%
%TO.P,Reg1,2*%
%TO.N,VBUS*%
%TA.AperFunction,SMDPad,CuDef*%
G36*
G01*
X171485000Y-70890000D02*
X172435000Y-70890000D01*
G75*
G02*
X172685000Y-71140000I0J-250000D01*
G01*
X172685000Y-71640000D01*
G75*
G02*
X172435000Y-71890000I-250000J0D01*
G01*
X171485000Y-71890000D01*
G75*
G02*
X171235000Y-71640000I0J250000D01*
G01*
X171235000Y-71140000D01*
G75*
G02*
X171485000Y-70890000I250000J0D01*
G01*
G37*
%TD.AperFunction*%
%TO.P,Reg1,~*%
%TO.N,N/C*%
%TA.AperFunction,SMDPad,CuDef*%
G36*
G01*
X170960000Y-68465000D02*
X170460000Y-68465000D01*
G75*
G02*
X170235000Y-68240000I0J225000D01*
G01*
X170235000Y-67790000D01*
G75*
G02*
X170460000Y-67565000I225000J0D01*
G01*
X170960000Y-67565000D01*
G75*
G02*
X171185000Y-67790000I0J-225000D01*
G01*
X171185000Y-68240000D01*
G75*
G02*
X170960000Y-68465000I-225000J0D01*
G01*
G37*
%TD.AperFunction*%
%TA.AperFunction,SMDPad,CuDef*%
G36*
G01*
X170960000Y-70015000D02*
X170460000Y-70015000D01*
G75*
G02*
X170235000Y-69790000I0J225000D01*
G01*
X170235000Y-69340000D01*
G75*
G02*
X170460000Y-69115000I225000J0D01*
G01*
X170960000Y-69115000D01*
G75*
G02*
X171185000Y-69340000I0J-225000D01*
G01*
X171185000Y-69790000D01*
G75*
G02*
X170960000Y-70015000I-225000J0D01*
G01*
G37*
%TD.AperFunction*%
%TA.AperFunction,SMDPad,CuDef*%
G36*
G01*
X172885000Y-72585626D02*
X172885000Y-71334374D01*
G75*
G02*
X173134374Y-71085000I249374J0D01*
G01*
X174060626Y-71085000D01*
G75*
G02*
X174310000Y-71334374I0J-249374D01*
G01*
X174310000Y-72585626D01*
G75*
G02*
X174060626Y-72835000I-249374J0D01*
G01*
X173134374Y-72835000D01*
G75*
G02*
X172885000Y-72585626I0J249374D01*
G01*
G37*
%TD.AperFunction*%
%TO.P,Reg1,3*%
%TO.N,GND*%
%TA.AperFunction,SMDPad,CuDef*%
G36*
G01*
X175860000Y-72585626D02*
X175860000Y-71334374D01*
G75*
G02*
X176109374Y-71085000I249374J0D01*
G01*
X177035626Y-71085000D01*
G75*
G02*
X177285000Y-71334374I0J-249374D01*
G01*
X177285000Y-72585626D01*
G75*
G02*
X177035626Y-72835000I-249374J0D01*
G01*
X176109374Y-72835000D01*
G75*
G02*
X175860000Y-72585626I0J249374D01*
G01*
G37*
%TD.AperFunction*%
D15*
%TO.P,Reg1,4*%
%TO.N,+3V3*%
X178210000Y-68840000D03*
%TO.P,Reg1,~*%
%TO.N,N/C*%
X175210000Y-68840000D03*
%TD*%
D16*
%TO.P,J1,5*%
%TO.N,TXD*%
X172040000Y-56100000D03*
%TO.P,J1,4*%
%TO.N,RXD*%
X174580000Y-56100000D03*
%TO.P,J1,3*%
%TO.N,Net-(J1-Pad3)*%
X177120000Y-56100000D03*
%TO.P,J1,2*%
%TO.N,GPIO0*%
X179660000Y-56100000D03*
D17*
%TO.P,J1,1*%
%TO.N,GND*%
X182200000Y-56100000D03*
%TD*%
%TO.P,R6,2*%
%TO.N,RST*%
%TA.AperFunction,SMDPad,CuDef*%
G36*
G01*
X175725000Y-64425000D02*
X176275000Y-64425000D01*
G75*
G02*
X176475000Y-64625000I0J-200000D01*
G01*
X176475000Y-65025000D01*
G75*
G02*
X176275000Y-65225000I-200000J0D01*
G01*
X175725000Y-65225000D01*
G75*
G02*
X175525000Y-65025000I0J200000D01*
G01*
X175525000Y-64625000D01*
G75*
G02*
X175725000Y-64425000I200000J0D01*
G01*
G37*
%TD.AperFunction*%
%TO.P,R6,1*%
%TO.N,Net-(R6-Pad1)*%
%TA.AperFunction,SMDPad,CuDef*%
G36*
G01*
X175725000Y-62775000D02*
X176275000Y-62775000D01*
G75*
G02*
X176475000Y-62975000I0J-200000D01*
G01*
X176475000Y-63375000D01*
G75*
G02*
X176275000Y-63575000I-200000J0D01*
G01*
X175725000Y-63575000D01*
G75*
G02*
X175525000Y-63375000I0J200000D01*
G01*
X175525000Y-62975000D01*
G75*
G02*
X175725000Y-62775000I200000J0D01*
G01*
G37*
%TD.AperFunction*%
%TD*%
%TO.P,R5,2*%
%TO.N,D+*%
%TA.AperFunction,SMDPad,CuDef*%
G36*
G01*
X181825000Y-74675000D02*
X181825000Y-74125000D01*
G75*
G02*
X182025000Y-73925000I200000J0D01*
G01*
X182425000Y-73925000D01*
G75*
G02*
X182625000Y-74125000I0J-200000D01*
G01*
X182625000Y-74675000D01*
G75*
G02*
X182425000Y-74875000I-200000J0D01*
G01*
X182025000Y-74875000D01*
G75*
G02*
X181825000Y-74675000I0J200000D01*
G01*
G37*
%TD.AperFunction*%
%TO.P,R5,1*%
%TO.N,Net-(J4-PadA6)*%
%TA.AperFunction,SMDPad,CuDef*%
G36*
G01*
X180175000Y-74675000D02*
X180175000Y-74125000D01*
G75*
G02*
X180375000Y-73925000I200000J0D01*
G01*
X180775000Y-73925000D01*
G75*
G02*
X180975000Y-74125000I0J-200000D01*
G01*
X180975000Y-74675000D01*
G75*
G02*
X180775000Y-74875000I-200000J0D01*
G01*
X180375000Y-74875000D01*
G75*
G02*
X180175000Y-74675000I0J200000D01*
G01*
G37*
%TD.AperFunction*%
%TD*%
%TO.P,R4,2*%
%TO.N,D-*%
%TA.AperFunction,SMDPad,CuDef*%
G36*
G01*
X181825000Y-73275000D02*
X181825000Y-72725000D01*
G75*
G02*
X182025000Y-72525000I200000J0D01*
G01*
X182425000Y-72525000D01*
G75*
G02*
X182625000Y-72725000I0J-200000D01*
G01*
X182625000Y-73275000D01*
G75*
G02*
X182425000Y-73475000I-200000J0D01*
G01*
X182025000Y-73475000D01*
G75*
G02*
X181825000Y-73275000I0J200000D01*
G01*
G37*
%TD.AperFunction*%
%TO.P,R4,1*%
%TO.N,Net-(J4-PadA7)*%
%TA.AperFunction,SMDPad,CuDef*%
G36*
G01*
X180175000Y-73275000D02*
X180175000Y-72725000D01*
G75*
G02*
X180375000Y-72525000I200000J0D01*
G01*
X180775000Y-72525000D01*
G75*
G02*
X180975000Y-72725000I0J-200000D01*
G01*
X180975000Y-73275000D01*
G75*
G02*
X180775000Y-73475000I-200000J0D01*
G01*
X180375000Y-73475000D01*
G75*
G02*
X180175000Y-73275000I0J200000D01*
G01*
G37*
%TD.AperFunction*%
%TD*%
%TO.P,R3,2*%
%TO.N,Net-(D1-Pad2)*%
%TA.AperFunction,SMDPad,CuDef*%
G36*
G01*
X170725000Y-78425000D02*
X171275000Y-78425000D01*
G75*
G02*
X171475000Y-78625000I0J-200000D01*
G01*
X171475000Y-79025000D01*
G75*
G02*
X171275000Y-79225000I-200000J0D01*
G01*
X170725000Y-79225000D01*
G75*
G02*
X170525000Y-79025000I0J200000D01*
G01*
X170525000Y-78625000D01*
G75*
G02*
X170725000Y-78425000I200000J0D01*
G01*
G37*
%TD.AperFunction*%
%TO.P,R3,1*%
%TO.N,+3V3*%
%TA.AperFunction,SMDPad,CuDef*%
G36*
G01*
X170725000Y-76775000D02*
X171275000Y-76775000D01*
G75*
G02*
X171475000Y-76975000I0J-200000D01*
G01*
X171475000Y-77375000D01*
G75*
G02*
X171275000Y-77575000I-200000J0D01*
G01*
X170725000Y-77575000D01*
G75*
G02*
X170525000Y-77375000I0J200000D01*
G01*
X170525000Y-76975000D01*
G75*
G02*
X170725000Y-76775000I200000J0D01*
G01*
G37*
%TD.AperFunction*%
%TD*%
%TO.P,R2,2*%
%TO.N,Net-(J4-PadB5)*%
%TA.AperFunction,SMDPad,CuDef*%
G36*
G01*
X183575000Y-77675000D02*
X183025000Y-77675000D01*
G75*
G02*
X182825000Y-77475000I0J200000D01*
G01*
X182825000Y-77075000D01*
G75*
G02*
X183025000Y-76875000I200000J0D01*
G01*
X183575000Y-76875000D01*
G75*
G02*
X183775000Y-77075000I0J-200000D01*
G01*
X183775000Y-77475000D01*
G75*
G02*
X183575000Y-77675000I-200000J0D01*
G01*
G37*
%TD.AperFunction*%
%TO.P,R2,1*%
%TO.N,GND*%
%TA.AperFunction,SMDPad,CuDef*%
G36*
G01*
X183575000Y-79325000D02*
X183025000Y-79325000D01*
G75*
G02*
X182825000Y-79125000I0J200000D01*
G01*
X182825000Y-78725000D01*
G75*
G02*
X183025000Y-78525000I200000J0D01*
G01*
X183575000Y-78525000D01*
G75*
G02*
X183775000Y-78725000I0J-200000D01*
G01*
X183775000Y-79125000D01*
G75*
G02*
X183575000Y-79325000I-200000J0D01*
G01*
G37*
%TD.AperFunction*%
%TD*%
%TO.P,R1,2*%
%TO.N,GND*%
%TA.AperFunction,SMDPad,CuDef*%
G36*
G01*
X183025000Y-81425000D02*
X183575000Y-81425000D01*
G75*
G02*
X183775000Y-81625000I0J-200000D01*
G01*
X183775000Y-82025000D01*
G75*
G02*
X183575000Y-82225000I-200000J0D01*
G01*
X183025000Y-82225000D01*
G75*
G02*
X182825000Y-82025000I0J200000D01*
G01*
X182825000Y-81625000D01*
G75*
G02*
X183025000Y-81425000I200000J0D01*
G01*
G37*
%TD.AperFunction*%
%TO.P,R1,1*%
%TO.N,Net-(J4-PadA5)*%
%TA.AperFunction,SMDPad,CuDef*%
G36*
G01*
X183025000Y-79775000D02*
X183575000Y-79775000D01*
G75*
G02*
X183775000Y-79975000I0J-200000D01*
G01*
X183775000Y-80375000D01*
G75*
G02*
X183575000Y-80575000I-200000J0D01*
G01*
X183025000Y-80575000D01*
G75*
G02*
X182825000Y-80375000I0J200000D01*
G01*
X182825000Y-79975000D01*
G75*
G02*
X183025000Y-79775000I200000J0D01*
G01*
G37*
%TD.AperFunction*%
%TD*%
%TO.P,C1,2*%
%TO.N,GND*%
%TA.AperFunction,SMDPad,CuDef*%
G36*
G01*
X176175000Y-60650000D02*
X176175000Y-61150000D01*
G75*
G02*
X175950000Y-61375000I-225000J0D01*
G01*
X175500000Y-61375000D01*
G75*
G02*
X175275000Y-61150000I0J225000D01*
G01*
X175275000Y-60650000D01*
G75*
G02*
X175500000Y-60425000I225000J0D01*
G01*
X175950000Y-60425000D01*
G75*
G02*
X176175000Y-60650000I0J-225000D01*
G01*
G37*
%TD.AperFunction*%
%TO.P,C1,1*%
%TO.N,Net-(C1-Pad1)*%
%TA.AperFunction,SMDPad,CuDef*%
G36*
G01*
X177725000Y-60650000D02*
X177725000Y-61150000D01*
G75*
G02*
X177500000Y-61375000I-225000J0D01*
G01*
X177050000Y-61375000D01*
G75*
G02*
X176825000Y-61150000I0J225000D01*
G01*
X176825000Y-60650000D01*
G75*
G02*
X177050000Y-60425000I225000J0D01*
G01*
X177500000Y-60425000D01*
G75*
G02*
X177725000Y-60650000I0J-225000D01*
G01*
G37*
%TD.AperFunction*%
%TD*%
%TO.P,D1,2*%
%TO.N,Net-(D1-Pad2)*%
%TA.AperFunction,SMDPad,CuDef*%
G36*
G01*
X171237500Y-80650000D02*
X170762500Y-80650000D01*
G75*
G02*
X170525000Y-80412500I0J237500D01*
G01*
X170525000Y-79837500D01*
G75*
G02*
X170762500Y-79600000I237500J0D01*
G01*
X171237500Y-79600000D01*
G75*
G02*
X171475000Y-79837500I0J-237500D01*
G01*
X171475000Y-80412500D01*
G75*
G02*
X171237500Y-80650000I-237500J0D01*
G01*
G37*
%TD.AperFunction*%
%TO.P,D1,1*%
%TO.N,Net-(D1-Pad1)*%
%TA.AperFunction,SMDPad,CuDef*%
G36*
G01*
X171237500Y-82400000D02*
X170762500Y-82400000D01*
G75*
G02*
X170525000Y-82162500I0J237500D01*
G01*
X170525000Y-81587500D01*
G75*
G02*
X170762500Y-81350000I237500J0D01*
G01*
X171237500Y-81350000D01*
G75*
G02*
X171475000Y-81587500I0J-237500D01*
G01*
X171475000Y-82162500D01*
G75*
G02*
X171237500Y-82400000I-237500J0D01*
G01*
G37*
%TD.AperFunction*%
%TD*%
D18*
%TO.P,U2,1*%
%TO.N,Net-(R6-Pad1)*%
X171230000Y-64900000D03*
%TO.P,U2,2*%
%TO.N,GND*%
X173770000Y-64900000D03*
%TO.P,U2,3*%
%TO.N,Net-(J1-Pad3)*%
X173770000Y-58900000D03*
%TO.P,U2,4*%
%TO.N,+3V3*%
X171230000Y-58900000D03*
%TD*%
D19*
%TO.P,J4,S1*%
%TO.N,GND*%
X181020000Y-77580000D03*
%TA.AperFunction,SMDPad,CuDef*%
D12*
G36*
X173813064Y-76015684D02*
G01*
X173825132Y-76017553D01*
X173836960Y-76020589D01*
X173848437Y-76024766D01*
X173859450Y-76030043D01*
X173869897Y-76036369D01*
X173879675Y-76043684D01*
X173888694Y-76051919D01*
X173896866Y-76060995D01*
X173904114Y-76070824D01*
X173910366Y-76081314D01*
X173915567Y-76092364D01*
X173919664Y-76103868D01*
X173922619Y-76115718D01*
X173924403Y-76127800D01*
X173925000Y-76139998D01*
X173924403Y-76152195D01*
X173922620Y-76164277D01*
X173919665Y-76176127D01*
X173915569Y-76187631D01*
X173910369Y-76198682D01*
X173904116Y-76209172D01*
X173896869Y-76219002D01*
X173888697Y-76228077D01*
X173879680Y-76236312D01*
X173869901Y-76243628D01*
X173859455Y-76249954D01*
X173848442Y-76255232D01*
X173836966Y-76259409D01*
X173825137Y-76262446D01*
X173813068Y-76264315D01*
X173800875Y-76264997D01*
X173788790Y-76265082D01*
X173689663Y-76271318D01*
X173594201Y-76286779D01*
X173500694Y-76311485D01*
X173410058Y-76345193D01*
X173323139Y-76387585D01*
X173240766Y-76438261D01*
X173163735Y-76496731D01*
X173092779Y-76562437D01*
X173028569Y-76634760D01*
X172971731Y-76712991D01*
X172922792Y-76796404D01*
X172882228Y-76884191D01*
X172850423Y-76975523D01*
X172827682Y-77069522D01*
X172821153Y-77115977D01*
X172826323Y-77198150D01*
X172876832Y-77510000D01*
X174001371Y-77510000D01*
X173985529Y-77258200D01*
X173985431Y-77256458D01*
X173985431Y-77253835D01*
X173985285Y-77251225D01*
X173985003Y-77210874D01*
X173985003Y-77209129D01*
X173985685Y-77196934D01*
X173987553Y-77184866D01*
X173990590Y-77173038D01*
X173994767Y-77161561D01*
X174000044Y-77150548D01*
X174006370Y-77140102D01*
X174013685Y-77130323D01*
X174021920Y-77121304D01*
X174030996Y-77113133D01*
X174040826Y-77105885D01*
X174051315Y-77099632D01*
X174062365Y-77094432D01*
X174073870Y-77090336D01*
X174085719Y-77087381D01*
X174097801Y-77085596D01*
X174109999Y-77085000D01*
X174122197Y-77085597D01*
X174134279Y-77087380D01*
X174146129Y-77090335D01*
X174157633Y-77094431D01*
X174168683Y-77099631D01*
X174179173Y-77105884D01*
X174189003Y-77113132D01*
X174198078Y-77121303D01*
X174206314Y-77130321D01*
X174213629Y-77140100D01*
X174219955Y-77150546D01*
X174225232Y-77161560D01*
X174229410Y-77173036D01*
X174232446Y-77184865D01*
X174234315Y-77196933D01*
X174234997Y-77209126D01*
X174235255Y-77245993D01*
X174251865Y-77510000D01*
X179747196Y-77510000D01*
X179751655Y-77479804D01*
X179765149Y-77203894D01*
X179765246Y-77202151D01*
X179766608Y-77190014D01*
X179769148Y-77178069D01*
X179772840Y-77166429D01*
X179777651Y-77155203D01*
X179783534Y-77144502D01*
X179790434Y-77134425D01*
X179798283Y-77125070D01*
X179807009Y-77116525D01*
X179816527Y-77108873D01*
X179826746Y-77102185D01*
X179837569Y-77096528D01*
X179848892Y-77091953D01*
X179860607Y-77088505D01*
X179872603Y-77086216D01*
X179884766Y-77085109D01*
X179896978Y-77085195D01*
X179909123Y-77086472D01*
X179921087Y-77088927D01*
X179932753Y-77092538D01*
X179944010Y-77097271D01*
X179954753Y-77103080D01*
X179964878Y-77109908D01*
X179974288Y-77117693D01*
X179982893Y-77126359D01*
X179990612Y-77135822D01*
X179997370Y-77145995D01*
X180003103Y-77156778D01*
X180007757Y-77168069D01*
X180011287Y-77179760D01*
X180013659Y-77191740D01*
X180014850Y-77203894D01*
X180014851Y-77216106D01*
X180001058Y-77498121D01*
X180000961Y-77499864D01*
X180000371Y-77505118D01*
X179999893Y-77510000D01*
X181125145Y-77510000D01*
X181179806Y-77139837D01*
X181180481Y-77126039D01*
X181169634Y-77055967D01*
X181145581Y-76962290D01*
X181112506Y-76871416D01*
X181070721Y-76784204D01*
X181020625Y-76701485D01*
X180962696Y-76624049D01*
X180897483Y-76552633D01*
X180825612Y-76487918D01*
X180747771Y-76430530D01*
X180664700Y-76381010D01*
X180577197Y-76339835D01*
X180486101Y-76307398D01*
X180392261Y-76284001D01*
X180296594Y-76269873D01*
X180193894Y-76264851D01*
X180192152Y-76264754D01*
X180180015Y-76263392D01*
X180168070Y-76260853D01*
X180156429Y-76257161D01*
X180145204Y-76252350D01*
X180134502Y-76246466D01*
X180124425Y-76239566D01*
X180115071Y-76231717D01*
X180106526Y-76222991D01*
X180098873Y-76213473D01*
X180092186Y-76203254D01*
X180086528Y-76192432D01*
X180081953Y-76181109D01*
X180078505Y-76169394D01*
X180076216Y-76157397D01*
X180075109Y-76145235D01*
X180075195Y-76133022D01*
X180076472Y-76120877D01*
X180078927Y-76108914D01*
X180082538Y-76097247D01*
X180087271Y-76085990D01*
X180093079Y-76075247D01*
X180099908Y-76065123D01*
X180107693Y-76055713D01*
X180116359Y-76047108D01*
X180125822Y-76039389D01*
X180135994Y-76032630D01*
X180146777Y-76026897D01*
X180158068Y-76022243D01*
X180169759Y-76018713D01*
X180181739Y-76016341D01*
X180193893Y-76015150D01*
X180206106Y-76015149D01*
X180314911Y-76020470D01*
X180316653Y-76020567D01*
X180321897Y-76021155D01*
X180327066Y-76021662D01*
X180434832Y-76037576D01*
X180436557Y-76037843D01*
X180441689Y-76038934D01*
X180446812Y-76039948D01*
X180552511Y-76066302D01*
X180554201Y-76066736D01*
X180559207Y-76068324D01*
X180564201Y-76069832D01*
X180666824Y-76106374D01*
X180668464Y-76106970D01*
X180673288Y-76109038D01*
X180678115Y-76111027D01*
X180776682Y-76157409D01*
X180778256Y-76158163D01*
X180782834Y-76160680D01*
X180787467Y-76163143D01*
X180881037Y-76218923D01*
X180882530Y-76219827D01*
X180886849Y-76222784D01*
X180891209Y-76225681D01*
X180978890Y-76290325D01*
X180980288Y-76291371D01*
X180984310Y-76294746D01*
X180988355Y-76298044D01*
X181069309Y-76370936D01*
X181070598Y-76372113D01*
X181074280Y-76375873D01*
X181077974Y-76379541D01*
X181151428Y-76459984D01*
X181152596Y-76461280D01*
X181155908Y-76465400D01*
X181159213Y-76469394D01*
X181224468Y-76556622D01*
X181225504Y-76558026D01*
X181228375Y-76562414D01*
X181231298Y-76566747D01*
X181264121Y-76620944D01*
X181272568Y-76616529D01*
X181283891Y-76611953D01*
X181295607Y-76608506D01*
X181307603Y-76606217D01*
X181319765Y-76605110D01*
X181331978Y-76605195D01*
X181344123Y-76606472D01*
X181356086Y-76608927D01*
X181367753Y-76612539D01*
X181379010Y-76617271D01*
X181389753Y-76623080D01*
X181399878Y-76629909D01*
X181409288Y-76637694D01*
X181417893Y-76646359D01*
X181425612Y-76655823D01*
X181432370Y-76665995D01*
X181438103Y-76676778D01*
X181442757Y-76688069D01*
X181446287Y-76699760D01*
X181448659Y-76711740D01*
X181449850Y-76723894D01*
X181449851Y-76736107D01*
X181431424Y-77112891D01*
X181432420Y-77119327D01*
X181432676Y-77121053D01*
X181433153Y-77126303D01*
X181433697Y-77131473D01*
X181439778Y-77240238D01*
X181439864Y-77241981D01*
X181439827Y-77247257D01*
X181439863Y-77252450D01*
X181435301Y-77361290D01*
X181435216Y-77363033D01*
X181434669Y-77368232D01*
X181434194Y-77373452D01*
X181419033Y-77481327D01*
X181418779Y-77483053D01*
X181417717Y-77488226D01*
X181416745Y-77493323D01*
X181391130Y-77599203D01*
X181390708Y-77600897D01*
X181389156Y-77605911D01*
X181387682Y-77610920D01*
X181351857Y-77713794D01*
X181351272Y-77715438D01*
X181349238Y-77720277D01*
X181347282Y-77725118D01*
X181315824Y-77793199D01*
X181261694Y-78010303D01*
X181261260Y-78011993D01*
X181259676Y-78016988D01*
X181258164Y-78021994D01*
X181170000Y-78269587D01*
X181170000Y-80660000D01*
X181750000Y-80660000D01*
X181750000Y-81160000D01*
X181170000Y-81160000D01*
X181170000Y-83000000D01*
X172830000Y-83000000D01*
X172830000Y-81160000D01*
X172250000Y-81160000D01*
X172250000Y-80660000D01*
X172830000Y-80660000D01*
X172830000Y-78268766D01*
X172760290Y-78081322D01*
X172759693Y-78079682D01*
X172758181Y-78074675D01*
X172756597Y-78069681D01*
X172682550Y-77789421D01*
X172659394Y-77741091D01*
X172658651Y-77739512D01*
X172656687Y-77734651D01*
X172654662Y-77729833D01*
X172617403Y-77627466D01*
X172616818Y-77625822D01*
X172615339Y-77620796D01*
X172613792Y-77615800D01*
X172586701Y-77510288D01*
X172586279Y-77508595D01*
X172585294Y-77503433D01*
X172584245Y-77498325D01*
X172567580Y-77390673D01*
X172567324Y-77388946D01*
X172566847Y-77383704D01*
X172566303Y-77378527D01*
X172560222Y-77269762D01*
X172560136Y-77268019D01*
X172560173Y-77262743D01*
X172560137Y-77257549D01*
X172564699Y-77148710D01*
X172564784Y-77146967D01*
X172565333Y-77141747D01*
X172565806Y-77136548D01*
X172570053Y-77106330D01*
X172550669Y-76798235D01*
X172550571Y-76796492D01*
X172550571Y-76793869D01*
X172550425Y-76791259D01*
X172550003Y-76730874D01*
X172550003Y-76729128D01*
X172550685Y-76716934D01*
X172552553Y-76704866D01*
X172555590Y-76693038D01*
X172559767Y-76681561D01*
X172565044Y-76670548D01*
X172571370Y-76660101D01*
X172578685Y-76650323D01*
X172586920Y-76641304D01*
X172595996Y-76633133D01*
X172605826Y-76625885D01*
X172616315Y-76619632D01*
X172627365Y-76614432D01*
X172638870Y-76610336D01*
X172650720Y-76607381D01*
X172662801Y-76605596D01*
X172674999Y-76605000D01*
X172687197Y-76605597D01*
X172699279Y-76607380D01*
X172711129Y-76610335D01*
X172722633Y-76614431D01*
X172733683Y-76619631D01*
X172735884Y-76620943D01*
X172759194Y-76581213D01*
X172760087Y-76579714D01*
X172763025Y-76575358D01*
X172765881Y-76570994D01*
X172829911Y-76482864D01*
X172830946Y-76481459D01*
X172834294Y-76477412D01*
X172837563Y-76473346D01*
X172909888Y-76391884D01*
X172911056Y-76390587D01*
X172914801Y-76386868D01*
X172918433Y-76383159D01*
X172998362Y-76309144D01*
X172999650Y-76307967D01*
X173003728Y-76304641D01*
X173007717Y-76301294D01*
X173094487Y-76235432D01*
X173095884Y-76234386D01*
X173100278Y-76231467D01*
X173104564Y-76228532D01*
X173197347Y-76171452D01*
X173198840Y-76170548D01*
X173203504Y-76168068D01*
X173208049Y-76165569D01*
X173305950Y-76117819D01*
X173305958Y-76117815D01*
X173305967Y-76117811D01*
X173307532Y-76117061D01*
X173312359Y-76115072D01*
X173317183Y-76113004D01*
X173419286Y-76075032D01*
X173420926Y-76074435D01*
X173425933Y-76072923D01*
X173430927Y-76071339D01*
X173536247Y-76043512D01*
X173537937Y-76043078D01*
X173543090Y-76042058D01*
X173548194Y-76040973D01*
X173655727Y-76023557D01*
X173657452Y-76023290D01*
X173662676Y-76022778D01*
X173667863Y-76022196D01*
X173776583Y-76015356D01*
X173778326Y-76015258D01*
X173780947Y-76015258D01*
X173783557Y-76015112D01*
X173799124Y-76015003D01*
X173800869Y-76015003D01*
X173813064Y-76015684D01*
G37*
%TD.AperFunction*%
D20*
%TO.P,J4,A12*%
X180200000Y-76140000D03*
%TO.P,J4,A4*%
%TO.N,VBUS*%
X174600000Y-76140000D03*
%TO.P,J4,B12*%
%TO.N,GND*%
X173800000Y-76140000D03*
%TO.P,J4,B4*%
%TO.N,VBUS*%
X179400000Y-76140000D03*
D21*
%TO.P,J4,S1*%
%TO.N,GND*%
X181325000Y-80910000D03*
X172675000Y-80910000D03*
D22*
X181325000Y-76730000D03*
X172675000Y-76730000D03*
D23*
%TO.P,J4,A7*%
%TO.N,Net-(J4-PadA7)*%
X177250000Y-76140000D03*
%TO.P,J4,A6*%
%TO.N,Net-(J4-PadA6)*%
X176750000Y-76140000D03*
%TO.P,J4,B6*%
X177750000Y-76140000D03*
%TO.P,J4,B7*%
%TO.N,Net-(J4-PadA7)*%
X176250000Y-76140000D03*
%TO.P,J4,A8*%
%TO.N,Net-(J4-PadA8)*%
X178250000Y-76140000D03*
%TO.P,J4,A5*%
%TO.N,Net-(J4-PadA5)*%
X175750000Y-76140000D03*
%TO.P,J4,B5*%
%TO.N,Net-(J4-PadB5)*%
X178750000Y-76140000D03*
%TO.P,J4,B8*%
%TO.N,Net-(J4-PadB8)*%
X175250000Y-76140000D03*
D20*
%TO.P,J4,A9*%
%TO.N,VBUS*%
X179400000Y-76140000D03*
%TO.P,J4,B9*%
X174600000Y-76140000D03*
%TO.P,J4,B1*%
%TO.N,GND*%
X180200000Y-76140000D03*
D24*
%TO.P,J4,S1*%
X179890000Y-77210000D03*
X174110000Y-77210000D03*
D20*
%TO.P,J4,A1*%
X173800000Y-76140000D03*
%TD*%
D25*
%TO.P,U1,21*%
%TO.N,GND*%
X180600000Y-63500000D03*
D26*
%TO.P,U1,~*%
%TO.N,N/C*%
X182600000Y-65500000D03*
X178600000Y-61500000D03*
X182600000Y-61500000D03*
X178600000Y-65500000D03*
D27*
X182600000Y-65500000D03*
%TA.AperFunction,SMDPad,CuDef*%
D12*
%TO.P,U1,21*%
%TO.N,GND*%
G36*
X179600000Y-62500000D02*
G01*
X181600000Y-62500000D01*
X181600000Y-64250000D01*
X181350000Y-64500000D01*
X179600000Y-64500000D01*
X179600000Y-62500000D01*
G37*
%TD.AperFunction*%
%TO.P,U1,20*%
%TO.N,Net-(C1-Pad1)*%
%TA.AperFunction,SMDPad,CuDef*%
G36*
G01*
X181725000Y-65062500D02*
X181725000Y-65937500D01*
G75*
G02*
X181662500Y-66000000I-62500J0D01*
G01*
X181537500Y-66000000D01*
G75*
G02*
X181475000Y-65937500I0J62500D01*
G01*
X181475000Y-65062500D01*
G75*
G02*
X181537500Y-65000000I62500J0D01*
G01*
X181662500Y-65000000D01*
G75*
G02*
X181725000Y-65062500I0J-62500D01*
G01*
G37*
%TD.AperFunction*%
%TO.P,U1,19*%
%TO.N,RST*%
%TA.AperFunction,SMDPad,CuDef*%
G36*
G01*
X181225000Y-65062500D02*
X181225000Y-65937500D01*
G75*
G02*
X181162500Y-66000000I-62500J0D01*
G01*
X181037500Y-66000000D01*
G75*
G02*
X180975000Y-65937500I0J62500D01*
G01*
X180975000Y-65062500D01*
G75*
G02*
X181037500Y-65000000I62500J0D01*
G01*
X181162500Y-65000000D01*
G75*
G02*
X181225000Y-65062500I0J-62500D01*
G01*
G37*
%TD.AperFunction*%
%TO.P,U1,18*%
%TO.N,GPIO0*%
%TA.AperFunction,SMDPad,CuDef*%
G36*
G01*
X180725000Y-65062500D02*
X180725000Y-65937500D01*
G75*
G02*
X180662500Y-66000000I-62500J0D01*
G01*
X180537500Y-66000000D01*
G75*
G02*
X180475000Y-65937500I0J62500D01*
G01*
X180475000Y-65062500D01*
G75*
G02*
X180537500Y-65000000I62500J0D01*
G01*
X180662500Y-65000000D01*
G75*
G02*
X180725000Y-65062500I0J-62500D01*
G01*
G37*
%TD.AperFunction*%
%TO.P,U1,17*%
%TO.N,RXD*%
%TA.AperFunction,SMDPad,CuDef*%
G36*
G01*
X180225000Y-65062500D02*
X180225000Y-65937500D01*
G75*
G02*
X180162500Y-66000000I-62500J0D01*
G01*
X180037500Y-66000000D01*
G75*
G02*
X179975000Y-65937500I0J62500D01*
G01*
X179975000Y-65062500D01*
G75*
G02*
X180037500Y-65000000I62500J0D01*
G01*
X180162500Y-65000000D01*
G75*
G02*
X180225000Y-65062500I0J-62500D01*
G01*
G37*
%TD.AperFunction*%
%TO.P,U1,16*%
%TO.N,Net-(U1-Pad16)*%
%TA.AperFunction,SMDPad,CuDef*%
G36*
G01*
X179725000Y-65062500D02*
X179725000Y-65937500D01*
G75*
G02*
X179662500Y-66000000I-62500J0D01*
G01*
X179537500Y-66000000D01*
G75*
G02*
X179475000Y-65937500I0J62500D01*
G01*
X179475000Y-65062500D01*
G75*
G02*
X179537500Y-65000000I62500J0D01*
G01*
X179662500Y-65000000D01*
G75*
G02*
X179725000Y-65062500I0J-62500D01*
G01*
G37*
%TD.AperFunction*%
%TO.P,U1,15*%
%TO.N,Net-(D1-Pad1)*%
%TA.AperFunction,SMDPad,CuDef*%
G36*
G01*
X179100000Y-64437500D02*
X179100000Y-64562500D01*
G75*
G02*
X179037500Y-64625000I-62500J0D01*
G01*
X178162500Y-64625000D01*
G75*
G02*
X178100000Y-64562500I0J62500D01*
G01*
X178100000Y-64437500D01*
G75*
G02*
X178162500Y-64375000I62500J0D01*
G01*
X179037500Y-64375000D01*
G75*
G02*
X179100000Y-64437500I0J-62500D01*
G01*
G37*
%TD.AperFunction*%
%TO.P,U1,14*%
%TO.N,Net-(U1-Pad14)*%
%TA.AperFunction,SMDPad,CuDef*%
G36*
G01*
X179100000Y-63937500D02*
X179100000Y-64062500D01*
G75*
G02*
X179037500Y-64125000I-62500J0D01*
G01*
X178162500Y-64125000D01*
G75*
G02*
X178100000Y-64062500I0J62500D01*
G01*
X178100000Y-63937500D01*
G75*
G02*
X178162500Y-63875000I62500J0D01*
G01*
X179037500Y-63875000D01*
G75*
G02*
X179100000Y-63937500I0J-62500D01*
G01*
G37*
%TD.AperFunction*%
%TO.P,U1,13*%
%TO.N,GND*%
%TA.AperFunction,SMDPad,CuDef*%
G36*
G01*
X179100000Y-63437500D02*
X179100000Y-63562500D01*
G75*
G02*
X179037500Y-63625000I-62500J0D01*
G01*
X178162500Y-63625000D01*
G75*
G02*
X178100000Y-63562500I0J62500D01*
G01*
X178100000Y-63437500D01*
G75*
G02*
X178162500Y-63375000I62500J0D01*
G01*
X179037500Y-63375000D01*
G75*
G02*
X179100000Y-63437500I0J-62500D01*
G01*
G37*
%TD.AperFunction*%
%TO.P,U1,12*%
%TO.N,VBUS*%
%TA.AperFunction,SMDPad,CuDef*%
G36*
G01*
X179100000Y-62937500D02*
X179100000Y-63062500D01*
G75*
G02*
X179037500Y-63125000I-62500J0D01*
G01*
X178162500Y-63125000D01*
G75*
G02*
X178100000Y-63062500I0J62500D01*
G01*
X178100000Y-62937500D01*
G75*
G02*
X178162500Y-62875000I62500J0D01*
G01*
X179037500Y-62875000D01*
G75*
G02*
X179100000Y-62937500I0J-62500D01*
G01*
G37*
%TD.AperFunction*%
%TO.P,U1,11*%
%TO.N,Net-(C1-Pad1)*%
%TA.AperFunction,SMDPad,CuDef*%
G36*
G01*
X179100000Y-62437500D02*
X179100000Y-62562500D01*
G75*
G02*
X179037500Y-62625000I-62500J0D01*
G01*
X178162500Y-62625000D01*
G75*
G02*
X178100000Y-62562500I0J62500D01*
G01*
X178100000Y-62437500D01*
G75*
G02*
X178162500Y-62375000I62500J0D01*
G01*
X179037500Y-62375000D01*
G75*
G02*
X179100000Y-62437500I0J-62500D01*
G01*
G37*
%TD.AperFunction*%
%TO.P,U1,10*%
%TA.AperFunction,SMDPad,CuDef*%
G36*
G01*
X179725000Y-61062500D02*
X179725000Y-61937500D01*
G75*
G02*
X179662500Y-62000000I-62500J0D01*
G01*
X179537500Y-62000000D01*
G75*
G02*
X179475000Y-61937500I0J62500D01*
G01*
X179475000Y-61062500D01*
G75*
G02*
X179537500Y-61000000I62500J0D01*
G01*
X179662500Y-61000000D01*
G75*
G02*
X179725000Y-61062500I0J-62500D01*
G01*
G37*
%TD.AperFunction*%
%TO.P,U1,9*%
%TO.N,D-*%
%TA.AperFunction,SMDPad,CuDef*%
G36*
G01*
X180225000Y-61062500D02*
X180225000Y-61937500D01*
G75*
G02*
X180162500Y-62000000I-62500J0D01*
G01*
X180037500Y-62000000D01*
G75*
G02*
X179975000Y-61937500I0J62500D01*
G01*
X179975000Y-61062500D01*
G75*
G02*
X180037500Y-61000000I62500J0D01*
G01*
X180162500Y-61000000D01*
G75*
G02*
X180225000Y-61062500I0J-62500D01*
G01*
G37*
%TD.AperFunction*%
%TO.P,U1,8*%
%TO.N,D+*%
%TA.AperFunction,SMDPad,CuDef*%
G36*
G01*
X180725000Y-61062500D02*
X180725000Y-61937500D01*
G75*
G02*
X180662500Y-62000000I-62500J0D01*
G01*
X180537500Y-62000000D01*
G75*
G02*
X180475000Y-61937500I0J62500D01*
G01*
X180475000Y-61062500D01*
G75*
G02*
X180537500Y-61000000I62500J0D01*
G01*
X180662500Y-61000000D01*
G75*
G02*
X180725000Y-61062500I0J-62500D01*
G01*
G37*
%TD.AperFunction*%
%TO.P,U1,7*%
%TO.N,Net-(U1-Pad7)*%
%TA.AperFunction,SMDPad,CuDef*%
G36*
G01*
X181225000Y-61062500D02*
X181225000Y-61937500D01*
G75*
G02*
X181162500Y-62000000I-62500J0D01*
G01*
X181037500Y-62000000D01*
G75*
G02*
X180975000Y-61937500I0J62500D01*
G01*
X180975000Y-61062500D01*
G75*
G02*
X181037500Y-61000000I62500J0D01*
G01*
X181162500Y-61000000D01*
G75*
G02*
X181225000Y-61062500I0J-62500D01*
G01*
G37*
%TD.AperFunction*%
%TO.P,U1,6*%
%TO.N,GND*%
%TA.AperFunction,SMDPad,CuDef*%
G36*
G01*
X181725000Y-61062500D02*
X181725000Y-61937500D01*
G75*
G02*
X181662500Y-62000000I-62500J0D01*
G01*
X181537500Y-62000000D01*
G75*
G02*
X181475000Y-61937500I0J62500D01*
G01*
X181475000Y-61062500D01*
G75*
G02*
X181537500Y-61000000I62500J0D01*
G01*
X181662500Y-61000000D01*
G75*
G02*
X181725000Y-61062500I0J-62500D01*
G01*
G37*
%TD.AperFunction*%
%TO.P,U1,5*%
%TA.AperFunction,SMDPad,CuDef*%
G36*
G01*
X183100000Y-62437500D02*
X183100000Y-62562500D01*
G75*
G02*
X183037500Y-62625000I-62500J0D01*
G01*
X182162500Y-62625000D01*
G75*
G02*
X182100000Y-62562500I0J62500D01*
G01*
X182100000Y-62437500D01*
G75*
G02*
X182162500Y-62375000I62500J0D01*
G01*
X183037500Y-62375000D01*
G75*
G02*
X183100000Y-62437500I0J-62500D01*
G01*
G37*
%TD.AperFunction*%
%TO.P,U1,4*%
%TA.AperFunction,SMDPad,CuDef*%
G36*
G01*
X183100000Y-62937500D02*
X183100000Y-63062500D01*
G75*
G02*
X183037500Y-63125000I-62500J0D01*
G01*
X182162500Y-63125000D01*
G75*
G02*
X182100000Y-63062500I0J62500D01*
G01*
X182100000Y-62937500D01*
G75*
G02*
X182162500Y-62875000I62500J0D01*
G01*
X183037500Y-62875000D01*
G75*
G02*
X183100000Y-62937500I0J-62500D01*
G01*
G37*
%TD.AperFunction*%
%TO.P,U1,3*%
%TA.AperFunction,SMDPad,CuDef*%
G36*
G01*
X183100000Y-63437500D02*
X183100000Y-63562500D01*
G75*
G02*
X183037500Y-63625000I-62500J0D01*
G01*
X182162500Y-63625000D01*
G75*
G02*
X182100000Y-63562500I0J62500D01*
G01*
X182100000Y-63437500D01*
G75*
G02*
X182162500Y-63375000I62500J0D01*
G01*
X183037500Y-63375000D01*
G75*
G02*
X183100000Y-63437500I0J-62500D01*
G01*
G37*
%TD.AperFunction*%
%TO.P,U1,2*%
%TA.AperFunction,SMDPad,CuDef*%
G36*
G01*
X183100000Y-63937500D02*
X183100000Y-64062500D01*
G75*
G02*
X183037500Y-64125000I-62500J0D01*
G01*
X182162500Y-64125000D01*
G75*
G02*
X182100000Y-64062500I0J62500D01*
G01*
X182100000Y-63937500D01*
G75*
G02*
X182162500Y-63875000I62500J0D01*
G01*
X183037500Y-63875000D01*
G75*
G02*
X183100000Y-63937500I0J-62500D01*
G01*
G37*
%TD.AperFunction*%
%TO.P,U1,1*%
%TO.N,TXD*%
%TA.AperFunction,SMDPad,CuDef*%
G36*
G01*
X183100000Y-64437500D02*
X183100000Y-64562500D01*
G75*
G02*
X183037500Y-64625000I-62500J0D01*
G01*
X182162500Y-64625000D01*
G75*
G02*
X182100000Y-64562500I0J62500D01*
G01*
X182100000Y-64437500D01*
G75*
G02*
X182162500Y-64375000I62500J0D01*
G01*
X183037500Y-64375000D01*
G75*
G02*
X183100000Y-64437500I0J-62500D01*
G01*
G37*
%TD.AperFunction*%
%TD*%
D28*
%TO.P,J2,6*%
%TO.N,TXD*%
X176250000Y-58600000D03*
%TO.P,J2,5*%
%TO.N,RXD*%
X177520000Y-58600000D03*
%TO.P,J2,4*%
%TO.N,+3V3*%
X178790000Y-58600000D03*
%TO.P,J2,3*%
%TO.N,RST*%
X180060000Y-58600000D03*
%TO.P,J2,2*%
%TO.N,GPIO0*%
X181330000Y-58600000D03*
D29*
%TO.P,J2,1*%
%TO.N,GND*%
X182600000Y-58600000D03*
%TD*%
D30*
%TO.N,GND*%
X181950000Y-70540000D03*
X174024042Y-63752132D03*
X175235941Y-61593758D03*
X175120000Y-71940000D03*
%TO.N,VBUS*%
X171384973Y-63440293D03*
X172070000Y-74640000D03*
%TO.N,RXD*%
X177349113Y-65015125D03*
%TO.N,+3V3*%
X171200000Y-60500000D03*
X170650001Y-74832376D03*
X179900000Y-70510000D03*
%TO.N,GPIO0*%
X182310858Y-60047895D03*
X182986734Y-66486682D03*
%TO.N,TXD*%
X183350000Y-60000000D03*
X173700000Y-60550011D03*
%TO.N,RST*%
X175986945Y-64718804D03*
X181227583Y-66825854D03*
%TO.N,D-*%
X179700000Y-67200000D03*
X178788304Y-60006376D03*
%TO.N,D+*%
X183112660Y-68887340D03*
X181325010Y-60215606D03*
%TO.N,Net-(C1-Pad1)*%
X177133335Y-62065537D03*
X181950104Y-67548375D03*
%TO.N,Net-(J4-PadA6)*%
X176675022Y-74648155D03*
X178237009Y-74843354D03*
%TO.N,Net-(J4-PadA5)*%
X182000000Y-79200000D03*
X175225010Y-74878226D03*
%TO.N,Net-(D1-Pad1)*%
X172000000Y-82350000D03*
X172713009Y-64526991D03*
%TD*%
D31*
%TO.N,GND*%
X181600000Y-62375000D02*
X180475000Y-63500000D01*
X181600000Y-61500000D02*
X181600000Y-62375000D01*
X181475000Y-62500000D02*
X180600000Y-63375000D01*
X182600000Y-62500000D02*
X181475000Y-62500000D01*
X180975000Y-63000000D02*
X180600000Y-63375000D01*
X182600000Y-63000000D02*
X180975000Y-63000000D01*
X180725000Y-63500000D02*
X180600000Y-63375000D01*
X182600000Y-63500000D02*
X180725000Y-63500000D01*
X180975000Y-64000000D02*
X180475000Y-63500000D01*
X182600000Y-64000000D02*
X180975000Y-64000000D01*
X180475000Y-63500000D02*
X180600000Y-63375000D01*
X178600000Y-63500000D02*
X180475000Y-63500000D01*
X182200000Y-58200000D02*
X182600000Y-58600000D01*
X182200000Y-56100000D02*
X182200000Y-58200000D01*
X182240000Y-81825000D02*
X181325000Y-80910000D01*
X183300000Y-81825000D02*
X182240000Y-81825000D01*
X183300000Y-78705000D02*
X181325000Y-76730000D01*
X183300000Y-78925000D02*
X183300000Y-78705000D01*
X173770000Y-64900000D02*
X173770000Y-64006174D01*
X173770000Y-64006174D02*
X174024042Y-63752132D01*
X175725000Y-61104699D02*
X175235941Y-61593758D01*
X175725000Y-60900000D02*
X175725000Y-61104699D01*
D32*
X176557500Y-71940000D02*
X176577500Y-71960000D01*
X175120000Y-71940000D02*
X176557500Y-71940000D01*
D31*
%TO.N,VBUS*%
X174600000Y-76795002D02*
X174904998Y-77100000D01*
X174600000Y-76140000D02*
X174600000Y-76795002D01*
X179400000Y-76795002D02*
X179400000Y-76140000D01*
X179095002Y-77100000D02*
X179400000Y-76795002D01*
X174904998Y-77100000D02*
X179095002Y-77100000D01*
X174975256Y-62357522D02*
X174744843Y-62127109D01*
X174744843Y-62127109D02*
X172698157Y-62127109D01*
X178600000Y-63000000D02*
X177042478Y-63000000D01*
X177042478Y-63000000D02*
X176400000Y-62357522D01*
X172698157Y-62127109D02*
X171384973Y-63440293D01*
X176400000Y-62357522D02*
X174975256Y-62357522D01*
X174600000Y-75484998D02*
X174600000Y-76140000D01*
X173755002Y-74640000D02*
X174600000Y-75484998D01*
X172070000Y-74640000D02*
X173755002Y-74640000D01*
X171521810Y-74640000D02*
X172070000Y-74640000D01*
X170490000Y-73608190D02*
X171521810Y-74640000D01*
X170490000Y-71550000D02*
X170490000Y-73608190D01*
X170650000Y-71390000D02*
X170490000Y-71550000D01*
X171710000Y-71390000D02*
X170650000Y-71390000D01*
X171860000Y-70140000D02*
X172810000Y-70140000D01*
%TO.N,RXD*%
X179088460Y-66325010D02*
X178818451Y-66055001D01*
X180100000Y-66048022D02*
X179823012Y-66325010D01*
X178818451Y-66055001D02*
X177823304Y-66055001D01*
X177823304Y-66055001D02*
X177349113Y-65580810D01*
X180100000Y-65500000D02*
X180100000Y-66048022D01*
X177349113Y-65580810D02*
X177349113Y-65015125D01*
X179823012Y-66325010D02*
X179088460Y-66325010D01*
X176694999Y-59425001D02*
X177520000Y-58600000D01*
X173109999Y-59825001D02*
X174430001Y-59825001D01*
X174430001Y-59825001D02*
X174830001Y-59425001D01*
X174830001Y-59425001D02*
X176694999Y-59425001D01*
X173044999Y-59760001D02*
X173109999Y-59825001D01*
X173044999Y-57635001D02*
X173044999Y-59760001D01*
X174580000Y-56100000D02*
X173044999Y-57635001D01*
%TO.N,+3V3*%
X171200000Y-58930000D02*
X171230000Y-58900000D01*
X171200000Y-60500000D02*
X171200000Y-58930000D01*
X175448003Y-59875012D02*
X177514988Y-59875012D01*
X174048002Y-61275013D02*
X175448003Y-59875012D01*
X177514988Y-59875012D02*
X178790000Y-58600000D01*
X171000000Y-77175000D02*
X171000000Y-75182375D01*
X171000000Y-75182375D02*
X170650001Y-74832376D01*
X172150000Y-60500000D02*
X172925013Y-61275013D01*
X171200000Y-60500000D02*
X172150000Y-60500000D01*
X172925013Y-61275013D02*
X174048002Y-61275013D01*
X178300000Y-71300000D02*
X178210000Y-71390000D01*
X178270000Y-71330000D02*
X178210000Y-71390000D01*
X179130000Y-70510000D02*
X178210000Y-69590000D01*
X179900000Y-70510000D02*
X179130000Y-70510000D01*
%TO.N,GPIO0*%
X181330000Y-57770000D02*
X181330000Y-58600000D01*
X179660000Y-56100000D02*
X181330000Y-57770000D01*
X181330000Y-59067037D02*
X182310858Y-60047895D01*
X181330000Y-58600000D02*
X181330000Y-59067037D01*
X180425001Y-66501995D02*
X180425001Y-67048591D01*
X181826399Y-68449989D02*
X182450011Y-68449989D01*
X180600000Y-66326996D02*
X180425001Y-66501995D01*
X182986734Y-67913266D02*
X182986734Y-66486682D01*
X182450011Y-68449989D02*
X182986734Y-67913266D01*
X180600000Y-65500000D02*
X180600000Y-66326996D01*
X180425001Y-67048591D02*
X181826399Y-68449989D01*
%TO.N,TXD*%
X183425010Y-60075010D02*
X183350000Y-60000000D01*
X183425010Y-64223012D02*
X183425010Y-60075010D01*
X183148022Y-64500000D02*
X183425010Y-64223012D01*
X182600000Y-64500000D02*
X183148022Y-64500000D01*
X172040000Y-59391413D02*
X172040000Y-56100000D01*
X173198597Y-60550011D02*
X172040000Y-59391413D01*
X173700000Y-60550011D02*
X173198597Y-60550011D01*
%TO.N,RST*%
X176000000Y-64825000D02*
X175986945Y-64811945D01*
X175986945Y-64811945D02*
X175986945Y-64718804D01*
X181100000Y-66698271D02*
X181227583Y-66825854D01*
X181100000Y-65500000D02*
X181100000Y-66698271D01*
%TO.N,D-*%
X179353989Y-60006376D02*
X178788304Y-60006376D01*
X180100000Y-61500000D02*
X180100000Y-60752387D01*
X180100000Y-60752387D02*
X179353989Y-60006376D01*
X182900000Y-72325000D02*
X182225000Y-73000000D01*
X183000000Y-69800000D02*
X183000000Y-72325000D01*
X182100000Y-68900000D02*
X183000000Y-69800000D01*
X181400000Y-68900000D02*
X182100000Y-68900000D01*
X183000000Y-72325000D02*
X182900000Y-72325000D01*
X179700000Y-67200000D02*
X181400000Y-68900000D01*
%TO.N,D+*%
X183512659Y-73612341D02*
X183512659Y-69287339D01*
X183512659Y-69287339D02*
X183112660Y-68887340D01*
X180600000Y-61500000D02*
X180600000Y-60940616D01*
X180600000Y-60940616D02*
X181325010Y-60215606D01*
X183012659Y-73612341D02*
X182225000Y-74400000D01*
X183512659Y-73612341D02*
X183012659Y-73612341D01*
%TO.N,Net-(C1-Pad1)*%
X177275000Y-61175000D02*
X178600000Y-62500000D01*
X177275000Y-60900000D02*
X177275000Y-61175000D01*
X179600000Y-61500000D02*
X178600000Y-62500000D01*
X177275000Y-60900000D02*
X177275000Y-61923872D01*
X177275000Y-61923872D02*
X177133335Y-62065537D01*
X182080770Y-65980770D02*
X182080770Y-67417709D01*
X182080770Y-67417709D02*
X181950104Y-67548375D01*
X181600000Y-65500000D02*
X182080770Y-65980770D01*
%TO.N,Net-(J4-PadA7)*%
X177425925Y-74225925D02*
X177760763Y-74225925D01*
X177425925Y-74970254D02*
X177250000Y-75146179D01*
X176250000Y-76140000D02*
X176250000Y-75288592D01*
X175950012Y-74988604D02*
X175950012Y-74149988D01*
X177250000Y-75146179D02*
X177250000Y-76140000D01*
X176250000Y-75288592D02*
X175950012Y-74988604D01*
X175950012Y-74149988D02*
X176200000Y-73900000D01*
X177100000Y-73900000D02*
X177425925Y-74225925D01*
X176200000Y-73900000D02*
X177100000Y-73900000D01*
X177425925Y-74225925D02*
X177425925Y-74970254D01*
X179456656Y-74118344D02*
X180197500Y-73377500D01*
X177868344Y-74118344D02*
X179456656Y-74118344D01*
X180197500Y-73377500D02*
X180575000Y-73000000D01*
X177760763Y-74225925D02*
X177868344Y-74118344D01*
%TO.N,Net-(J4-PadA6)*%
X176750000Y-76140000D02*
X176750000Y-74723133D01*
X176750000Y-74723133D02*
X176675022Y-74648155D01*
X178285375Y-74794988D02*
X178237009Y-74843354D01*
X177750000Y-76140000D02*
X177750000Y-75282590D01*
X178189236Y-74843354D02*
X178237009Y-74843354D01*
X180180012Y-74794988D02*
X178285375Y-74794988D01*
X177750000Y-75282590D02*
X178189236Y-74843354D01*
X180575000Y-74400000D02*
X180180012Y-74794988D01*
%TO.N,Net-(J4-PadA5)*%
X182325000Y-79200000D02*
X183300000Y-80175000D01*
X182000000Y-79200000D02*
X182325000Y-79200000D01*
X175750000Y-76140000D02*
X175750000Y-75425002D01*
X175225010Y-74900012D02*
X175225010Y-74878226D01*
X175750000Y-75425002D02*
X175225010Y-74900012D01*
%TO.N,Net-(J4-PadB5)*%
X178905034Y-75244999D02*
X182244999Y-75244999D01*
X178750000Y-75400033D02*
X178905034Y-75244999D01*
X182244999Y-75244999D02*
X183300000Y-76300000D01*
X178750000Y-76140000D02*
X178750000Y-75400033D01*
X183300000Y-76300000D02*
X183300000Y-77275000D01*
%TO.N,Net-(D1-Pad2)*%
X171000000Y-78825000D02*
X171000000Y-80125000D01*
%TO.N,Net-(D1-Pad1)*%
X171475000Y-82350000D02*
X171000000Y-81875000D01*
X172000000Y-82350000D02*
X171475000Y-82350000D01*
X177306992Y-63900000D02*
X175244912Y-63900000D01*
X177906992Y-64500000D02*
X177306992Y-63900000D01*
X178600000Y-64500000D02*
X177906992Y-64500000D01*
X174372043Y-63027131D02*
X173499865Y-63027131D01*
X173499865Y-63027131D02*
X172713009Y-63813987D01*
X175244912Y-63900000D02*
X174372043Y-63027131D01*
X172713009Y-63813987D02*
X172713009Y-64526991D01*
%TO.N,Net-(J1-Pad3)*%
X174320000Y-58900000D02*
X177120000Y-56100000D01*
X173770000Y-58900000D02*
X174320000Y-58900000D01*
%TO.N,Net-(R6-Pad1)*%
X173273465Y-62577120D02*
X174558443Y-62577120D01*
X171230000Y-64620585D02*
X173273465Y-62577120D01*
X171230000Y-64900000D02*
X171230000Y-64620585D01*
X175156323Y-63175000D02*
X176000000Y-63175000D01*
X174558443Y-62577120D02*
X175156323Y-63175000D01*
%TD*%
D33*
%TO.N,GND*%
X172861938Y-76709048D02*
X172861928Y-76710000D01*
X172863065Y-76721540D01*
X172854605Y-76730000D01*
X172864913Y-76740308D01*
X172874188Y-76834482D01*
X172910498Y-76954180D01*
X172969463Y-77064494D01*
X173048815Y-77161185D01*
X173145506Y-77240537D01*
X173255820Y-77299502D01*
X173375518Y-77335812D01*
X173469692Y-77345087D01*
X173810413Y-77685808D01*
X174074814Y-77590044D01*
X174155134Y-77424937D01*
X174341194Y-77610997D01*
X174364997Y-77640001D01*
X174480722Y-77734974D01*
X174612751Y-77805546D01*
X174756012Y-77849003D01*
X174867665Y-77860000D01*
X174867674Y-77860000D01*
X174904997Y-77863676D01*
X174942320Y-77860000D01*
X179057680Y-77860000D01*
X179095002Y-77863676D01*
X179132324Y-77860000D01*
X179132335Y-77860000D01*
X179243988Y-77849003D01*
X179387249Y-77805546D01*
X179519278Y-77734974D01*
X179635003Y-77640001D01*
X179658806Y-77610997D01*
X179839697Y-77430106D01*
X179925186Y-77590044D01*
X180189587Y-77685808D01*
X180285000Y-77590395D01*
X180285000Y-77707002D01*
X180439748Y-77707002D01*
X180285000Y-77861750D01*
X180288590Y-77921965D01*
X180318664Y-78043380D01*
X180371847Y-78156595D01*
X180446095Y-78257259D01*
X180538555Y-78341503D01*
X180645674Y-78406091D01*
X180763335Y-78448540D01*
X180861250Y-78465000D01*
X180993027Y-78333223D01*
X181066108Y-78352384D01*
X181066136Y-78352386D01*
X181178750Y-78465000D01*
X181276665Y-78448540D01*
X181294005Y-78442284D01*
X181196063Y-78540226D01*
X181082795Y-78709744D01*
X181004774Y-78898102D01*
X180965000Y-79098061D01*
X180965000Y-79301939D01*
X180995884Y-79457206D01*
X180966981Y-79461401D01*
X180691253Y-79559081D01*
X180553843Y-79632528D01*
X180476208Y-79881603D01*
X181325000Y-80730395D01*
X181339143Y-80716253D01*
X181518748Y-80895858D01*
X181504605Y-80910000D01*
X181518748Y-80924143D01*
X181339143Y-81103748D01*
X181325000Y-81089605D01*
X180476208Y-81938397D01*
X180553843Y-82187472D01*
X180817883Y-82313371D01*
X180824301Y-82315000D01*
X173156089Y-82315000D01*
X173308747Y-82260919D01*
X173446157Y-82187472D01*
X173523792Y-81938397D01*
X172675000Y-81089605D01*
X172660858Y-81103748D01*
X172481253Y-80924143D01*
X172495395Y-80910000D01*
X172854605Y-80910000D01*
X173703397Y-81758792D01*
X173952472Y-81681157D01*
X174078371Y-81417117D01*
X174150339Y-81133589D01*
X174158445Y-80978531D01*
X179834389Y-80978531D01*
X179876401Y-81268019D01*
X179974081Y-81543747D01*
X180047528Y-81681157D01*
X180296603Y-81758792D01*
X181145395Y-80910000D01*
X180296603Y-80061208D01*
X180047528Y-80138843D01*
X179921629Y-80402883D01*
X179849661Y-80686411D01*
X179834389Y-80978531D01*
X174158445Y-80978531D01*
X174165611Y-80841469D01*
X174123599Y-80551981D01*
X174025919Y-80276253D01*
X173952472Y-80138843D01*
X173703397Y-80061208D01*
X172854605Y-80910000D01*
X172495395Y-80910000D01*
X172481253Y-80895858D01*
X172660858Y-80716253D01*
X172675000Y-80730395D01*
X173523792Y-79881603D01*
X173446157Y-79632528D01*
X173182117Y-79506629D01*
X172898589Y-79434661D01*
X172606469Y-79419389D01*
X172316981Y-79461401D01*
X172061438Y-79551930D01*
X172046423Y-79502433D01*
X172005967Y-79426745D01*
X172049278Y-79345716D01*
X172096969Y-79188500D01*
X172113072Y-79025000D01*
X172113072Y-78625000D01*
X172096969Y-78461500D01*
X172049278Y-78304284D01*
X172005592Y-78222553D01*
X172104571Y-78270704D01*
X172416108Y-78352384D01*
X172737595Y-78371718D01*
X173056675Y-78327961D01*
X173361088Y-78222795D01*
X173535044Y-78129814D01*
X173630808Y-77865413D01*
X172675000Y-76909605D01*
X172660858Y-76923748D01*
X172481253Y-76744143D01*
X172495395Y-76730000D01*
X172481253Y-76715858D01*
X172660858Y-76536253D01*
X172675000Y-76550395D01*
X172689143Y-76536253D01*
X172861938Y-76709048D01*
%TA.AperFunction,Conductor*%
D34*
G36*
X172861938Y-76709048D02*
G01*
X172861928Y-76710000D01*
X172863065Y-76721540D01*
X172854605Y-76730000D01*
X172864913Y-76740308D01*
X172874188Y-76834482D01*
X172910498Y-76954180D01*
X172969463Y-77064494D01*
X173048815Y-77161185D01*
X173145506Y-77240537D01*
X173255820Y-77299502D01*
X173375518Y-77335812D01*
X173469692Y-77345087D01*
X173810413Y-77685808D01*
X174074814Y-77590044D01*
X174155134Y-77424937D01*
X174341194Y-77610997D01*
X174364997Y-77640001D01*
X174480722Y-77734974D01*
X174612751Y-77805546D01*
X174756012Y-77849003D01*
X174867665Y-77860000D01*
X174867674Y-77860000D01*
X174904997Y-77863676D01*
X174942320Y-77860000D01*
X179057680Y-77860000D01*
X179095002Y-77863676D01*
X179132324Y-77860000D01*
X179132335Y-77860000D01*
X179243988Y-77849003D01*
X179387249Y-77805546D01*
X179519278Y-77734974D01*
X179635003Y-77640001D01*
X179658806Y-77610997D01*
X179839697Y-77430106D01*
X179925186Y-77590044D01*
X180189587Y-77685808D01*
X180285000Y-77590395D01*
X180285000Y-77707002D01*
X180439748Y-77707002D01*
X180285000Y-77861750D01*
X180288590Y-77921965D01*
X180318664Y-78043380D01*
X180371847Y-78156595D01*
X180446095Y-78257259D01*
X180538555Y-78341503D01*
X180645674Y-78406091D01*
X180763335Y-78448540D01*
X180861250Y-78465000D01*
X180993027Y-78333223D01*
X181066108Y-78352384D01*
X181066136Y-78352386D01*
X181178750Y-78465000D01*
X181276665Y-78448540D01*
X181294005Y-78442284D01*
X181196063Y-78540226D01*
X181082795Y-78709744D01*
X181004774Y-78898102D01*
X180965000Y-79098061D01*
X180965000Y-79301939D01*
X180995884Y-79457206D01*
X180966981Y-79461401D01*
X180691253Y-79559081D01*
X180553843Y-79632528D01*
X180476208Y-79881603D01*
X181325000Y-80730395D01*
X181339143Y-80716253D01*
X181518748Y-80895858D01*
X181504605Y-80910000D01*
X181518748Y-80924143D01*
X181339143Y-81103748D01*
X181325000Y-81089605D01*
X180476208Y-81938397D01*
X180553843Y-82187472D01*
X180817883Y-82313371D01*
X180824301Y-82315000D01*
X173156089Y-82315000D01*
X173308747Y-82260919D01*
X173446157Y-82187472D01*
X173523792Y-81938397D01*
X172675000Y-81089605D01*
X172660858Y-81103748D01*
X172481253Y-80924143D01*
X172495395Y-80910000D01*
X172854605Y-80910000D01*
X173703397Y-81758792D01*
X173952472Y-81681157D01*
X174078371Y-81417117D01*
X174150339Y-81133589D01*
X174158445Y-80978531D01*
X179834389Y-80978531D01*
X179876401Y-81268019D01*
X179974081Y-81543747D01*
X180047528Y-81681157D01*
X180296603Y-81758792D01*
X181145395Y-80910000D01*
X180296603Y-80061208D01*
X180047528Y-80138843D01*
X179921629Y-80402883D01*
X179849661Y-80686411D01*
X179834389Y-80978531D01*
X174158445Y-80978531D01*
X174165611Y-80841469D01*
X174123599Y-80551981D01*
X174025919Y-80276253D01*
X173952472Y-80138843D01*
X173703397Y-80061208D01*
X172854605Y-80910000D01*
X172495395Y-80910000D01*
X172481253Y-80895858D01*
X172660858Y-80716253D01*
X172675000Y-80730395D01*
X173523792Y-79881603D01*
X173446157Y-79632528D01*
X173182117Y-79506629D01*
X172898589Y-79434661D01*
X172606469Y-79419389D01*
X172316981Y-79461401D01*
X172061438Y-79551930D01*
X172046423Y-79502433D01*
X172005967Y-79426745D01*
X172049278Y-79345716D01*
X172096969Y-79188500D01*
X172113072Y-79025000D01*
X172113072Y-78625000D01*
X172096969Y-78461500D01*
X172049278Y-78304284D01*
X172005592Y-78222553D01*
X172104571Y-78270704D01*
X172416108Y-78352384D01*
X172737595Y-78371718D01*
X173056675Y-78327961D01*
X173361088Y-78222795D01*
X173535044Y-78129814D01*
X173630808Y-77865413D01*
X172675000Y-76909605D01*
X172660858Y-76923748D01*
X172481253Y-76744143D01*
X172495395Y-76730000D01*
X172481253Y-76715858D01*
X172660858Y-76536253D01*
X172675000Y-76550395D01*
X172689143Y-76536253D01*
X172861938Y-76709048D01*
G37*
%TD.AperFunction*%
D33*
X183315000Y-81972000D02*
X183173000Y-81972000D01*
X183173000Y-81952000D01*
X182392400Y-81952000D01*
X182469504Y-81874896D01*
X182353399Y-81758791D01*
X182548435Y-81698000D01*
X183173000Y-81698000D01*
X183173000Y-81678000D01*
X183315000Y-81678000D01*
X183315000Y-81972000D01*
%TA.AperFunction,Conductor*%
D34*
G36*
X183315000Y-81972000D02*
G01*
X183173000Y-81972000D01*
X183173000Y-81952000D01*
X182392400Y-81952000D01*
X182469504Y-81874896D01*
X182353399Y-81758791D01*
X182548435Y-81698000D01*
X183173000Y-81698000D01*
X183173000Y-81678000D01*
X183315000Y-81678000D01*
X183315000Y-81972000D01*
G37*
%TD.AperFunction*%
D33*
X183315000Y-79072000D02*
X183271801Y-79072000D01*
X183153000Y-78953199D01*
X183153000Y-78798000D01*
X183173000Y-78798000D01*
X183173000Y-78778000D01*
X183315000Y-78778000D01*
X183315000Y-79072000D01*
%TA.AperFunction,Conductor*%
D34*
G36*
X183315000Y-79072000D02*
G01*
X183271801Y-79072000D01*
X183153000Y-78953199D01*
X183153000Y-78798000D01*
X183173000Y-78798000D01*
X183173000Y-78778000D01*
X183315000Y-78778000D01*
X183315000Y-79072000D01*
G37*
%TD.AperFunction*%
D33*
X181518748Y-76715858D02*
X181504605Y-76730000D01*
X181518748Y-76744143D01*
X181465853Y-76797037D01*
X181394326Y-76753909D01*
X181276665Y-76711460D01*
X181178750Y-76695000D01*
X181147002Y-76726749D01*
X181147002Y-76700108D01*
X181310858Y-76536253D01*
X181325000Y-76550395D01*
X181339143Y-76536253D01*
X181518748Y-76715858D01*
%TA.AperFunction,Conductor*%
D34*
G36*
X181518748Y-76715858D02*
G01*
X181504605Y-76730000D01*
X181518748Y-76744143D01*
X181465853Y-76797037D01*
X181394326Y-76753909D01*
X181276665Y-76711460D01*
X181178750Y-76695000D01*
X181147002Y-76726749D01*
X181147002Y-76700108D01*
X181310858Y-76536253D01*
X181325000Y-76550395D01*
X181339143Y-76536253D01*
X181518748Y-76715858D01*
G37*
%TD.AperFunction*%
D33*
X179598061Y-68235000D02*
X179660199Y-68235000D01*
X180836200Y-69411002D01*
X180859999Y-69440001D01*
X180888997Y-69463799D01*
X180975723Y-69534974D01*
X181082601Y-69592102D01*
X181107753Y-69605546D01*
X181251014Y-69649003D01*
X181362667Y-69660000D01*
X181362676Y-69660000D01*
X181399999Y-69663676D01*
X181437322Y-69660000D01*
X181785199Y-69660000D01*
X182240000Y-70114802D01*
X182240001Y-71886928D01*
X182025000Y-71886928D01*
X181861500Y-71903031D01*
X181704284Y-71950722D01*
X181559392Y-72028169D01*
X181432394Y-72132394D01*
X181400000Y-72171866D01*
X181367606Y-72132394D01*
X181240608Y-72028169D01*
X181095716Y-71950722D01*
X180938500Y-71903031D01*
X180775000Y-71886928D01*
X180375000Y-71886928D01*
X180211500Y-71903031D01*
X180054284Y-71950722D01*
X179909392Y-72028169D01*
X179782394Y-72132394D01*
X179678169Y-72259392D01*
X179600722Y-72404284D01*
X179553031Y-72561500D01*
X179536928Y-72725000D01*
X179536928Y-72803847D01*
X179505472Y-72700150D01*
X179423405Y-72546614D01*
X179312962Y-72412038D01*
X179225183Y-72340000D01*
X179312962Y-72267962D01*
X179423405Y-72133386D01*
X179505472Y-71979850D01*
X179556008Y-71813254D01*
X179573072Y-71640000D01*
X179573072Y-71494858D01*
X179598102Y-71505226D01*
X179798061Y-71545000D01*
X180001939Y-71545000D01*
X180201898Y-71505226D01*
X180390256Y-71427205D01*
X180559774Y-71313937D01*
X180703937Y-71169774D01*
X180817205Y-71000256D01*
X180895226Y-70811898D01*
X180935000Y-70611939D01*
X180935000Y-70408061D01*
X180895226Y-70208102D01*
X180817205Y-70019744D01*
X180703937Y-69850226D01*
X180559774Y-69706063D01*
X180390256Y-69592795D01*
X180201898Y-69514774D01*
X180001939Y-69475000D01*
X179798061Y-69475000D01*
X179598102Y-69514774D01*
X179560572Y-69530320D01*
X179560572Y-68227543D01*
X179598061Y-68235000D01*
%TA.AperFunction,Conductor*%
D34*
G36*
X179598061Y-68235000D02*
G01*
X179660199Y-68235000D01*
X180836200Y-69411002D01*
X180859999Y-69440001D01*
X180888997Y-69463799D01*
X180975723Y-69534974D01*
X181082601Y-69592102D01*
X181107753Y-69605546D01*
X181251014Y-69649003D01*
X181362667Y-69660000D01*
X181362676Y-69660000D01*
X181399999Y-69663676D01*
X181437322Y-69660000D01*
X181785199Y-69660000D01*
X182240000Y-70114802D01*
X182240001Y-71886928D01*
X182025000Y-71886928D01*
X181861500Y-71903031D01*
X181704284Y-71950722D01*
X181559392Y-72028169D01*
X181432394Y-72132394D01*
X181400000Y-72171866D01*
X181367606Y-72132394D01*
X181240608Y-72028169D01*
X181095716Y-71950722D01*
X180938500Y-71903031D01*
X180775000Y-71886928D01*
X180375000Y-71886928D01*
X180211500Y-71903031D01*
X180054284Y-71950722D01*
X179909392Y-72028169D01*
X179782394Y-72132394D01*
X179678169Y-72259392D01*
X179600722Y-72404284D01*
X179553031Y-72561500D01*
X179536928Y-72725000D01*
X179536928Y-72803847D01*
X179505472Y-72700150D01*
X179423405Y-72546614D01*
X179312962Y-72412038D01*
X179225183Y-72340000D01*
X179312962Y-72267962D01*
X179423405Y-72133386D01*
X179505472Y-71979850D01*
X179556008Y-71813254D01*
X179573072Y-71640000D01*
X179573072Y-71494858D01*
X179598102Y-71505226D01*
X179798061Y-71545000D01*
X180001939Y-71545000D01*
X180201898Y-71505226D01*
X180390256Y-71427205D01*
X180559774Y-71313937D01*
X180703937Y-71169774D01*
X180817205Y-71000256D01*
X180895226Y-70811898D01*
X180935000Y-70611939D01*
X180935000Y-70408061D01*
X180895226Y-70208102D01*
X180817205Y-70019744D01*
X180703937Y-69850226D01*
X180559774Y-69706063D01*
X180390256Y-69592795D01*
X180201898Y-69514774D01*
X180001939Y-69475000D01*
X179798061Y-69475000D01*
X179598102Y-69514774D01*
X179560572Y-69530320D01*
X179560572Y-68227543D01*
X179598061Y-68235000D01*
G37*
%TD.AperFunction*%
D33*
X175221928Y-71334374D02*
X175221928Y-72401928D01*
X174948072Y-72401928D01*
X174948072Y-71334374D01*
X174947451Y-71328072D01*
X175222549Y-71328072D01*
X175221928Y-71334374D01*
%TA.AperFunction,Conductor*%
D34*
G36*
X175221928Y-71334374D02*
G01*
X175221928Y-72401928D01*
X174948072Y-72401928D01*
X174948072Y-71334374D01*
X174947451Y-71328072D01*
X175222549Y-71328072D01*
X175221928Y-71334374D01*
G37*
%TD.AperFunction*%
D33*
X174820636Y-64534974D02*
X174892036Y-64573139D01*
X174886928Y-64625000D01*
X174886928Y-65025000D01*
X174895302Y-65110024D01*
X174729272Y-65110022D01*
X174646250Y-65027000D01*
X173897000Y-65027000D01*
X173897000Y-65047000D01*
X173643000Y-65047000D01*
X173643000Y-65027000D01*
X173623697Y-65027000D01*
X173630214Y-65017247D01*
X173708235Y-64828889D01*
X173723330Y-64753000D01*
X173897000Y-64753000D01*
X173897000Y-64773000D01*
X174646250Y-64773000D01*
X174805000Y-64614250D01*
X174805893Y-64522875D01*
X174820636Y-64534974D01*
%TA.AperFunction,Conductor*%
D34*
G36*
X174820636Y-64534974D02*
G01*
X174892036Y-64573139D01*
X174886928Y-64625000D01*
X174886928Y-65025000D01*
X174895302Y-65110024D01*
X174729272Y-65110022D01*
X174646250Y-65027000D01*
X173897000Y-65027000D01*
X173897000Y-65047000D01*
X173643000Y-65047000D01*
X173643000Y-65027000D01*
X173623697Y-65027000D01*
X173630214Y-65017247D01*
X173708235Y-64828889D01*
X173723330Y-64753000D01*
X173897000Y-64753000D01*
X173897000Y-64773000D01*
X174646250Y-64773000D01*
X174805000Y-64614250D01*
X174805893Y-64522875D01*
X174820636Y-64534974D01*
G37*
%TD.AperFunction*%
D33*
X173897002Y-63823748D02*
X173897002Y-63787131D01*
X173933619Y-63787131D01*
X173897002Y-63823748D01*
%TA.AperFunction,Conductor*%
D34*
G36*
X173897002Y-63823748D02*
G01*
X173897002Y-63787131D01*
X173933619Y-63787131D01*
X173897002Y-63823748D01*
G37*
%TD.AperFunction*%
D33*
X182665010Y-63125000D02*
X182473000Y-63125000D01*
X182473000Y-62375000D01*
X182665010Y-62375000D01*
X182665010Y-63125000D01*
%TA.AperFunction,Conductor*%
D34*
G36*
X182665010Y-63125000D02*
G01*
X182473000Y-63125000D01*
X182473000Y-62375000D01*
X182665010Y-62375000D01*
X182665010Y-63125000D01*
G37*
%TD.AperFunction*%
D33*
X175852000Y-60773000D02*
X175872000Y-60773000D01*
X175872000Y-61027000D01*
X175852000Y-61027000D01*
X175852000Y-61047000D01*
X175598000Y-61047000D01*
X175598000Y-61027000D01*
X175578000Y-61027000D01*
X175578000Y-60819818D01*
X175644818Y-60753000D01*
X175852000Y-60753000D01*
X175852000Y-60773000D01*
%TA.AperFunction,Conductor*%
D34*
G36*
X175852000Y-60773000D02*
G01*
X175872000Y-60773000D01*
X175872000Y-61027000D01*
X175852000Y-61027000D01*
X175852000Y-61047000D01*
X175598000Y-61047000D01*
X175598000Y-61027000D01*
X175578000Y-61027000D01*
X175578000Y-60819818D01*
X175644818Y-60753000D01*
X175852000Y-60753000D01*
X175852000Y-60773000D01*
G37*
%TD.AperFunction*%
D33*
X182727000Y-58473000D02*
X182747000Y-58473000D01*
X182747000Y-58727000D01*
X182727000Y-58727000D01*
X182727000Y-58747000D01*
X182473000Y-58747000D01*
X182473000Y-58727000D01*
X182461974Y-58727000D01*
X182465000Y-58711788D01*
X182465000Y-58488212D01*
X182461974Y-58473000D01*
X182473000Y-58473000D01*
X182473000Y-58453000D01*
X182727000Y-58453000D01*
X182727000Y-58473000D01*
%TA.AperFunction,Conductor*%
D34*
G36*
X182727000Y-58473000D02*
G01*
X182747000Y-58473000D01*
X182747000Y-58727000D01*
X182727000Y-58727000D01*
X182727000Y-58747000D01*
X182473000Y-58747000D01*
X182473000Y-58727000D01*
X182461974Y-58727000D01*
X182465000Y-58711788D01*
X182465000Y-58488212D01*
X182461974Y-58473000D01*
X182473000Y-58473000D01*
X182473000Y-58453000D01*
X182727000Y-58453000D01*
X182727000Y-58473000D01*
G37*
%TD.AperFunction*%
D33*
X182327000Y-55973000D02*
X182347000Y-55973000D01*
X182347000Y-56227000D01*
X182327000Y-56227000D01*
X182327000Y-56247000D01*
X182073000Y-56247000D01*
X182073000Y-56227000D01*
X182053000Y-56227000D01*
X182053000Y-55973000D01*
X182073000Y-55973000D01*
X182073000Y-55953000D01*
X182327000Y-55953000D01*
X182327000Y-55973000D01*
%TA.AperFunction,Conductor*%
D34*
G36*
X182327000Y-55973000D02*
G01*
X182347000Y-55973000D01*
X182347000Y-56227000D01*
X182327000Y-56227000D01*
X182327000Y-56247000D01*
X182073000Y-56247000D01*
X182073000Y-56227000D01*
X182053000Y-56227000D01*
X182053000Y-55973000D01*
X182073000Y-55973000D01*
X182073000Y-55953000D01*
X182327000Y-55953000D01*
X182327000Y-55973000D01*
G37*
%TD.AperFunction*%
%TD*%
M02*
