%TF.GenerationSoftware,KiCad,Pcbnew,(5.1.9-0-10_14)*%
%TF.CreationDate,2021-05-23T12:15:11+01:00*%
%TF.ProjectId,Shelly,5368656c-6c79-42e6-9b69-6361645f7063,4*%
%TF.SameCoordinates,Original*%
%TF.FileFunction,Soldermask,Top*%
%TF.FilePolarity,Negative*%
%FSLAX46Y46*%
G04 Gerber Fmt 4.6, Leading zero omitted, Abs format (unit mm)*
G04 Created by KiCad (PCBNEW (5.1.9-0-10_14)) date 2021-05-23 12:15:11*
%MOMM*%
%LPD*%
G01*
G04 APERTURE LIST*
%ADD10R,0.600000X1.100000*%
%ADD11R,1.425000X3.700000*%
%ADD12O,1.700000X1.700000*%
%ADD13R,1.700000X1.700000*%
%ADD14R,0.800000X1.200000*%
%ADD15C,0.100000*%
%ADD16R,0.600000X1.140000*%
%ADD17C,1.700000*%
%ADD18C,2.000000*%
%ADD19R,0.300000X1.140000*%
%ADD20C,0.350000*%
%ADD21C,0.500000*%
%ADD22O,1.000000X1.000000*%
%ADD23R,1.000000X1.000000*%
G04 APERTURE END LIST*
D10*
%TO.C,Reg1*%
X173760000Y-67440000D03*
X171860000Y-67440000D03*
X172810000Y-67440000D03*
X171860000Y-70140000D03*
X172810000Y-70140000D03*
X173760000Y-70140000D03*
G36*
G01*
X177735000Y-70890000D02*
X178685000Y-70890000D01*
G75*
G02*
X178935000Y-71140000I0J-250000D01*
G01*
X178935000Y-71640000D01*
G75*
G02*
X178685000Y-71890000I-250000J0D01*
G01*
X177735000Y-71890000D01*
G75*
G02*
X177485000Y-71640000I0J250000D01*
G01*
X177485000Y-71140000D01*
G75*
G02*
X177735000Y-70890000I250000J0D01*
G01*
G37*
G36*
G01*
X177735000Y-72790000D02*
X178685000Y-72790000D01*
G75*
G02*
X178935000Y-73040000I0J-250000D01*
G01*
X178935000Y-73540000D01*
G75*
G02*
X178685000Y-73790000I-250000J0D01*
G01*
X177735000Y-73790000D01*
G75*
G02*
X177485000Y-73540000I0J250000D01*
G01*
X177485000Y-73040000D01*
G75*
G02*
X177735000Y-72790000I250000J0D01*
G01*
G37*
G36*
G01*
X171485000Y-72790000D02*
X172435000Y-72790000D01*
G75*
G02*
X172685000Y-73040000I0J-250000D01*
G01*
X172685000Y-73540000D01*
G75*
G02*
X172435000Y-73790000I-250000J0D01*
G01*
X171485000Y-73790000D01*
G75*
G02*
X171235000Y-73540000I0J250000D01*
G01*
X171235000Y-73040000D01*
G75*
G02*
X171485000Y-72790000I250000J0D01*
G01*
G37*
G36*
G01*
X171485000Y-70890000D02*
X172435000Y-70890000D01*
G75*
G02*
X172685000Y-71140000I0J-250000D01*
G01*
X172685000Y-71640000D01*
G75*
G02*
X172435000Y-71890000I-250000J0D01*
G01*
X171485000Y-71890000D01*
G75*
G02*
X171235000Y-71640000I0J250000D01*
G01*
X171235000Y-71140000D01*
G75*
G02*
X171485000Y-70890000I250000J0D01*
G01*
G37*
G36*
G01*
X170960000Y-68465000D02*
X170460000Y-68465000D01*
G75*
G02*
X170235000Y-68240000I0J225000D01*
G01*
X170235000Y-67790000D01*
G75*
G02*
X170460000Y-67565000I225000J0D01*
G01*
X170960000Y-67565000D01*
G75*
G02*
X171185000Y-67790000I0J-225000D01*
G01*
X171185000Y-68240000D01*
G75*
G02*
X170960000Y-68465000I-225000J0D01*
G01*
G37*
G36*
G01*
X170960000Y-70015000D02*
X170460000Y-70015000D01*
G75*
G02*
X170235000Y-69790000I0J225000D01*
G01*
X170235000Y-69340000D01*
G75*
G02*
X170460000Y-69115000I225000J0D01*
G01*
X170960000Y-69115000D01*
G75*
G02*
X171185000Y-69340000I0J-225000D01*
G01*
X171185000Y-69790000D01*
G75*
G02*
X170960000Y-70015000I-225000J0D01*
G01*
G37*
G36*
G01*
X172885000Y-72585626D02*
X172885000Y-71334374D01*
G75*
G02*
X173134374Y-71085000I249374J0D01*
G01*
X174060626Y-71085000D01*
G75*
G02*
X174310000Y-71334374I0J-249374D01*
G01*
X174310000Y-72585626D01*
G75*
G02*
X174060626Y-72835000I-249374J0D01*
G01*
X173134374Y-72835000D01*
G75*
G02*
X172885000Y-72585626I0J249374D01*
G01*
G37*
G36*
G01*
X175860000Y-72585626D02*
X175860000Y-71334374D01*
G75*
G02*
X176109374Y-71085000I249374J0D01*
G01*
X177035626Y-71085000D01*
G75*
G02*
X177285000Y-71334374I0J-249374D01*
G01*
X177285000Y-72585626D01*
G75*
G02*
X177035626Y-72835000I-249374J0D01*
G01*
X176109374Y-72835000D01*
G75*
G02*
X175860000Y-72585626I0J249374D01*
G01*
G37*
D11*
X178210000Y-68840000D03*
X175210000Y-68840000D03*
%TD*%
D12*
%TO.C,J1*%
X172040000Y-56100000D03*
X174580000Y-56100000D03*
X177120000Y-56100000D03*
X179660000Y-56100000D03*
D13*
X182200000Y-56100000D03*
%TD*%
%TO.C,R6*%
G36*
G01*
X175725000Y-64425000D02*
X176275000Y-64425000D01*
G75*
G02*
X176475000Y-64625000I0J-200000D01*
G01*
X176475000Y-65025000D01*
G75*
G02*
X176275000Y-65225000I-200000J0D01*
G01*
X175725000Y-65225000D01*
G75*
G02*
X175525000Y-65025000I0J200000D01*
G01*
X175525000Y-64625000D01*
G75*
G02*
X175725000Y-64425000I200000J0D01*
G01*
G37*
G36*
G01*
X175725000Y-62775000D02*
X176275000Y-62775000D01*
G75*
G02*
X176475000Y-62975000I0J-200000D01*
G01*
X176475000Y-63375000D01*
G75*
G02*
X176275000Y-63575000I-200000J0D01*
G01*
X175725000Y-63575000D01*
G75*
G02*
X175525000Y-63375000I0J200000D01*
G01*
X175525000Y-62975000D01*
G75*
G02*
X175725000Y-62775000I200000J0D01*
G01*
G37*
%TD*%
%TO.C,R5*%
G36*
G01*
X181825000Y-74675000D02*
X181825000Y-74125000D01*
G75*
G02*
X182025000Y-73925000I200000J0D01*
G01*
X182425000Y-73925000D01*
G75*
G02*
X182625000Y-74125000I0J-200000D01*
G01*
X182625000Y-74675000D01*
G75*
G02*
X182425000Y-74875000I-200000J0D01*
G01*
X182025000Y-74875000D01*
G75*
G02*
X181825000Y-74675000I0J200000D01*
G01*
G37*
G36*
G01*
X180175000Y-74675000D02*
X180175000Y-74125000D01*
G75*
G02*
X180375000Y-73925000I200000J0D01*
G01*
X180775000Y-73925000D01*
G75*
G02*
X180975000Y-74125000I0J-200000D01*
G01*
X180975000Y-74675000D01*
G75*
G02*
X180775000Y-74875000I-200000J0D01*
G01*
X180375000Y-74875000D01*
G75*
G02*
X180175000Y-74675000I0J200000D01*
G01*
G37*
%TD*%
%TO.C,R4*%
G36*
G01*
X181825000Y-73275000D02*
X181825000Y-72725000D01*
G75*
G02*
X182025000Y-72525000I200000J0D01*
G01*
X182425000Y-72525000D01*
G75*
G02*
X182625000Y-72725000I0J-200000D01*
G01*
X182625000Y-73275000D01*
G75*
G02*
X182425000Y-73475000I-200000J0D01*
G01*
X182025000Y-73475000D01*
G75*
G02*
X181825000Y-73275000I0J200000D01*
G01*
G37*
G36*
G01*
X180175000Y-73275000D02*
X180175000Y-72725000D01*
G75*
G02*
X180375000Y-72525000I200000J0D01*
G01*
X180775000Y-72525000D01*
G75*
G02*
X180975000Y-72725000I0J-200000D01*
G01*
X180975000Y-73275000D01*
G75*
G02*
X180775000Y-73475000I-200000J0D01*
G01*
X180375000Y-73475000D01*
G75*
G02*
X180175000Y-73275000I0J200000D01*
G01*
G37*
%TD*%
%TO.C,R3*%
G36*
G01*
X170725000Y-78425000D02*
X171275000Y-78425000D01*
G75*
G02*
X171475000Y-78625000I0J-200000D01*
G01*
X171475000Y-79025000D01*
G75*
G02*
X171275000Y-79225000I-200000J0D01*
G01*
X170725000Y-79225000D01*
G75*
G02*
X170525000Y-79025000I0J200000D01*
G01*
X170525000Y-78625000D01*
G75*
G02*
X170725000Y-78425000I200000J0D01*
G01*
G37*
G36*
G01*
X170725000Y-76775000D02*
X171275000Y-76775000D01*
G75*
G02*
X171475000Y-76975000I0J-200000D01*
G01*
X171475000Y-77375000D01*
G75*
G02*
X171275000Y-77575000I-200000J0D01*
G01*
X170725000Y-77575000D01*
G75*
G02*
X170525000Y-77375000I0J200000D01*
G01*
X170525000Y-76975000D01*
G75*
G02*
X170725000Y-76775000I200000J0D01*
G01*
G37*
%TD*%
%TO.C,R2*%
G36*
G01*
X183575000Y-77675000D02*
X183025000Y-77675000D01*
G75*
G02*
X182825000Y-77475000I0J200000D01*
G01*
X182825000Y-77075000D01*
G75*
G02*
X183025000Y-76875000I200000J0D01*
G01*
X183575000Y-76875000D01*
G75*
G02*
X183775000Y-77075000I0J-200000D01*
G01*
X183775000Y-77475000D01*
G75*
G02*
X183575000Y-77675000I-200000J0D01*
G01*
G37*
G36*
G01*
X183575000Y-79325000D02*
X183025000Y-79325000D01*
G75*
G02*
X182825000Y-79125000I0J200000D01*
G01*
X182825000Y-78725000D01*
G75*
G02*
X183025000Y-78525000I200000J0D01*
G01*
X183575000Y-78525000D01*
G75*
G02*
X183775000Y-78725000I0J-200000D01*
G01*
X183775000Y-79125000D01*
G75*
G02*
X183575000Y-79325000I-200000J0D01*
G01*
G37*
%TD*%
%TO.C,R1*%
G36*
G01*
X183025000Y-81425000D02*
X183575000Y-81425000D01*
G75*
G02*
X183775000Y-81625000I0J-200000D01*
G01*
X183775000Y-82025000D01*
G75*
G02*
X183575000Y-82225000I-200000J0D01*
G01*
X183025000Y-82225000D01*
G75*
G02*
X182825000Y-82025000I0J200000D01*
G01*
X182825000Y-81625000D01*
G75*
G02*
X183025000Y-81425000I200000J0D01*
G01*
G37*
G36*
G01*
X183025000Y-79775000D02*
X183575000Y-79775000D01*
G75*
G02*
X183775000Y-79975000I0J-200000D01*
G01*
X183775000Y-80375000D01*
G75*
G02*
X183575000Y-80575000I-200000J0D01*
G01*
X183025000Y-80575000D01*
G75*
G02*
X182825000Y-80375000I0J200000D01*
G01*
X182825000Y-79975000D01*
G75*
G02*
X183025000Y-79775000I200000J0D01*
G01*
G37*
%TD*%
%TO.C,C1*%
G36*
G01*
X176175000Y-60650000D02*
X176175000Y-61150000D01*
G75*
G02*
X175950000Y-61375000I-225000J0D01*
G01*
X175500000Y-61375000D01*
G75*
G02*
X175275000Y-61150000I0J225000D01*
G01*
X175275000Y-60650000D01*
G75*
G02*
X175500000Y-60425000I225000J0D01*
G01*
X175950000Y-60425000D01*
G75*
G02*
X176175000Y-60650000I0J-225000D01*
G01*
G37*
G36*
G01*
X177725000Y-60650000D02*
X177725000Y-61150000D01*
G75*
G02*
X177500000Y-61375000I-225000J0D01*
G01*
X177050000Y-61375000D01*
G75*
G02*
X176825000Y-61150000I0J225000D01*
G01*
X176825000Y-60650000D01*
G75*
G02*
X177050000Y-60425000I225000J0D01*
G01*
X177500000Y-60425000D01*
G75*
G02*
X177725000Y-60650000I0J-225000D01*
G01*
G37*
%TD*%
%TO.C,D1*%
G36*
G01*
X171237500Y-80650000D02*
X170762500Y-80650000D01*
G75*
G02*
X170525000Y-80412500I0J237500D01*
G01*
X170525000Y-79837500D01*
G75*
G02*
X170762500Y-79600000I237500J0D01*
G01*
X171237500Y-79600000D01*
G75*
G02*
X171475000Y-79837500I0J-237500D01*
G01*
X171475000Y-80412500D01*
G75*
G02*
X171237500Y-80650000I-237500J0D01*
G01*
G37*
G36*
G01*
X171237500Y-82400000D02*
X170762500Y-82400000D01*
G75*
G02*
X170525000Y-82162500I0J237500D01*
G01*
X170525000Y-81587500D01*
G75*
G02*
X170762500Y-81350000I237500J0D01*
G01*
X171237500Y-81350000D01*
G75*
G02*
X171475000Y-81587500I0J-237500D01*
G01*
X171475000Y-82162500D01*
G75*
G02*
X171237500Y-82400000I-237500J0D01*
G01*
G37*
%TD*%
D14*
%TO.C,U2*%
X171230000Y-64900000D03*
X173770000Y-64900000D03*
X173770000Y-58900000D03*
X171230000Y-58900000D03*
%TD*%
D15*
%TO.C,J4*%
G36*
X173813064Y-76015684D02*
G01*
X173825132Y-76017553D01*
X173836960Y-76020589D01*
X173848437Y-76024766D01*
X173859450Y-76030043D01*
X173869897Y-76036369D01*
X173879675Y-76043684D01*
X173888694Y-76051919D01*
X173896866Y-76060995D01*
X173904114Y-76070824D01*
X173910366Y-76081314D01*
X173915567Y-76092364D01*
X173919664Y-76103868D01*
X173922619Y-76115718D01*
X173924403Y-76127800D01*
X173925000Y-76139998D01*
X173924403Y-76152195D01*
X173922620Y-76164277D01*
X173919665Y-76176127D01*
X173915569Y-76187631D01*
X173910369Y-76198682D01*
X173904116Y-76209172D01*
X173896869Y-76219002D01*
X173888697Y-76228077D01*
X173879680Y-76236312D01*
X173869901Y-76243628D01*
X173859455Y-76249954D01*
X173848442Y-76255232D01*
X173836966Y-76259409D01*
X173825137Y-76262446D01*
X173813068Y-76264315D01*
X173800875Y-76264997D01*
X173788790Y-76265082D01*
X173689663Y-76271318D01*
X173594201Y-76286779D01*
X173500694Y-76311485D01*
X173410058Y-76345193D01*
X173323139Y-76387585D01*
X173240766Y-76438261D01*
X173163735Y-76496731D01*
X173092779Y-76562437D01*
X173028569Y-76634760D01*
X172971731Y-76712991D01*
X172922792Y-76796404D01*
X172882228Y-76884191D01*
X172850423Y-76975523D01*
X172827682Y-77069522D01*
X172821153Y-77115977D01*
X172826323Y-77198150D01*
X172876832Y-77510000D01*
X174001371Y-77510000D01*
X173985529Y-77258200D01*
X173985431Y-77256458D01*
X173985431Y-77253835D01*
X173985285Y-77251225D01*
X173985003Y-77210874D01*
X173985003Y-77209129D01*
X173985685Y-77196934D01*
X173987553Y-77184866D01*
X173990590Y-77173038D01*
X173994767Y-77161561D01*
X174000044Y-77150548D01*
X174006370Y-77140102D01*
X174013685Y-77130323D01*
X174021920Y-77121304D01*
X174030996Y-77113133D01*
X174040826Y-77105885D01*
X174051315Y-77099632D01*
X174062365Y-77094432D01*
X174073870Y-77090336D01*
X174085719Y-77087381D01*
X174097801Y-77085596D01*
X174109999Y-77085000D01*
X174122197Y-77085597D01*
X174134279Y-77087380D01*
X174146129Y-77090335D01*
X174157633Y-77094431D01*
X174168683Y-77099631D01*
X174179173Y-77105884D01*
X174189003Y-77113132D01*
X174198078Y-77121303D01*
X174206314Y-77130321D01*
X174213629Y-77140100D01*
X174219955Y-77150546D01*
X174225232Y-77161560D01*
X174229410Y-77173036D01*
X174232446Y-77184865D01*
X174234315Y-77196933D01*
X174234997Y-77209126D01*
X174235255Y-77245993D01*
X174251865Y-77510000D01*
X179747196Y-77510000D01*
X179751655Y-77479804D01*
X179765149Y-77203894D01*
X179765246Y-77202151D01*
X179766608Y-77190014D01*
X179769148Y-77178069D01*
X179772840Y-77166429D01*
X179777651Y-77155203D01*
X179783534Y-77144502D01*
X179790434Y-77134425D01*
X179798283Y-77125070D01*
X179807009Y-77116525D01*
X179816527Y-77108873D01*
X179826746Y-77102185D01*
X179837569Y-77096528D01*
X179848892Y-77091953D01*
X179860607Y-77088505D01*
X179872603Y-77086216D01*
X179884766Y-77085109D01*
X179896978Y-77085195D01*
X179909123Y-77086472D01*
X179921087Y-77088927D01*
X179932753Y-77092538D01*
X179944010Y-77097271D01*
X179954753Y-77103080D01*
X179964878Y-77109908D01*
X179974288Y-77117693D01*
X179982893Y-77126359D01*
X179990612Y-77135822D01*
X179997370Y-77145995D01*
X180003103Y-77156778D01*
X180007757Y-77168069D01*
X180011287Y-77179760D01*
X180013659Y-77191740D01*
X180014850Y-77203894D01*
X180014851Y-77216106D01*
X180001058Y-77498121D01*
X180000961Y-77499864D01*
X180000371Y-77505118D01*
X179999893Y-77510000D01*
X181125145Y-77510000D01*
X181179806Y-77139837D01*
X181180481Y-77126039D01*
X181169634Y-77055967D01*
X181145581Y-76962290D01*
X181112506Y-76871416D01*
X181070721Y-76784204D01*
X181020625Y-76701485D01*
X180962696Y-76624049D01*
X180897483Y-76552633D01*
X180825612Y-76487918D01*
X180747771Y-76430530D01*
X180664700Y-76381010D01*
X180577197Y-76339835D01*
X180486101Y-76307398D01*
X180392261Y-76284001D01*
X180296594Y-76269873D01*
X180193894Y-76264851D01*
X180192152Y-76264754D01*
X180180015Y-76263392D01*
X180168070Y-76260853D01*
X180156429Y-76257161D01*
X180145204Y-76252350D01*
X180134502Y-76246466D01*
X180124425Y-76239566D01*
X180115071Y-76231717D01*
X180106526Y-76222991D01*
X180098873Y-76213473D01*
X180092186Y-76203254D01*
X180086528Y-76192432D01*
X180081953Y-76181109D01*
X180078505Y-76169394D01*
X180076216Y-76157397D01*
X180075109Y-76145235D01*
X180075195Y-76133022D01*
X180076472Y-76120877D01*
X180078927Y-76108914D01*
X180082538Y-76097247D01*
X180087271Y-76085990D01*
X180093079Y-76075247D01*
X180099908Y-76065123D01*
X180107693Y-76055713D01*
X180116359Y-76047108D01*
X180125822Y-76039389D01*
X180135994Y-76032630D01*
X180146777Y-76026897D01*
X180158068Y-76022243D01*
X180169759Y-76018713D01*
X180181739Y-76016341D01*
X180193893Y-76015150D01*
X180206106Y-76015149D01*
X180314911Y-76020470D01*
X180316653Y-76020567D01*
X180321897Y-76021155D01*
X180327066Y-76021662D01*
X180434832Y-76037576D01*
X180436557Y-76037843D01*
X180441689Y-76038934D01*
X180446812Y-76039948D01*
X180552511Y-76066302D01*
X180554201Y-76066736D01*
X180559207Y-76068324D01*
X180564201Y-76069832D01*
X180666824Y-76106374D01*
X180668464Y-76106970D01*
X180673288Y-76109038D01*
X180678115Y-76111027D01*
X180776682Y-76157409D01*
X180778256Y-76158163D01*
X180782834Y-76160680D01*
X180787467Y-76163143D01*
X180881037Y-76218923D01*
X180882530Y-76219827D01*
X180886849Y-76222784D01*
X180891209Y-76225681D01*
X180978890Y-76290325D01*
X180980288Y-76291371D01*
X180984310Y-76294746D01*
X180988355Y-76298044D01*
X181069309Y-76370936D01*
X181070598Y-76372113D01*
X181074280Y-76375873D01*
X181077974Y-76379541D01*
X181151428Y-76459984D01*
X181152596Y-76461280D01*
X181155908Y-76465400D01*
X181159213Y-76469394D01*
X181224468Y-76556622D01*
X181225504Y-76558026D01*
X181228375Y-76562414D01*
X181231298Y-76566747D01*
X181264121Y-76620944D01*
X181272568Y-76616529D01*
X181283891Y-76611953D01*
X181295607Y-76608506D01*
X181307603Y-76606217D01*
X181319765Y-76605110D01*
X181331978Y-76605195D01*
X181344123Y-76606472D01*
X181356086Y-76608927D01*
X181367753Y-76612539D01*
X181379010Y-76617271D01*
X181389753Y-76623080D01*
X181399878Y-76629909D01*
X181409288Y-76637694D01*
X181417893Y-76646359D01*
X181425612Y-76655823D01*
X181432370Y-76665995D01*
X181438103Y-76676778D01*
X181442757Y-76688069D01*
X181446287Y-76699760D01*
X181448659Y-76711740D01*
X181449850Y-76723894D01*
X181449851Y-76736107D01*
X181431424Y-77112891D01*
X181432420Y-77119327D01*
X181432676Y-77121053D01*
X181433153Y-77126303D01*
X181433697Y-77131473D01*
X181439778Y-77240238D01*
X181439864Y-77241981D01*
X181439827Y-77247257D01*
X181439863Y-77252450D01*
X181435301Y-77361290D01*
X181435216Y-77363033D01*
X181434669Y-77368232D01*
X181434194Y-77373452D01*
X181419033Y-77481327D01*
X181418779Y-77483053D01*
X181417717Y-77488226D01*
X181416745Y-77493323D01*
X181391130Y-77599203D01*
X181390708Y-77600897D01*
X181389156Y-77605911D01*
X181387682Y-77610920D01*
X181351857Y-77713794D01*
X181351272Y-77715438D01*
X181349238Y-77720277D01*
X181347282Y-77725118D01*
X181315824Y-77793199D01*
X181261694Y-78010303D01*
X181261260Y-78011993D01*
X181259676Y-78016988D01*
X181258164Y-78021994D01*
X181170000Y-78269587D01*
X181170000Y-80660000D01*
X181750000Y-80660000D01*
X181750000Y-81160000D01*
X181170000Y-81160000D01*
X181170000Y-83000000D01*
X172830000Y-83000000D01*
X172830000Y-81160000D01*
X172250000Y-81160000D01*
X172250000Y-80660000D01*
X172830000Y-80660000D01*
X172830000Y-78268766D01*
X172760290Y-78081322D01*
X172759693Y-78079682D01*
X172758181Y-78074675D01*
X172756597Y-78069681D01*
X172682550Y-77789421D01*
X172659394Y-77741091D01*
X172658651Y-77739512D01*
X172656687Y-77734651D01*
X172654662Y-77729833D01*
X172617403Y-77627466D01*
X172616818Y-77625822D01*
X172615339Y-77620796D01*
X172613792Y-77615800D01*
X172586701Y-77510288D01*
X172586279Y-77508595D01*
X172585294Y-77503433D01*
X172584245Y-77498325D01*
X172567580Y-77390673D01*
X172567324Y-77388946D01*
X172566847Y-77383704D01*
X172566303Y-77378527D01*
X172560222Y-77269762D01*
X172560136Y-77268019D01*
X172560173Y-77262743D01*
X172560137Y-77257549D01*
X172564699Y-77148710D01*
X172564784Y-77146967D01*
X172565333Y-77141747D01*
X172565806Y-77136548D01*
X172570053Y-77106330D01*
X172550669Y-76798235D01*
X172550571Y-76796492D01*
X172550571Y-76793869D01*
X172550425Y-76791259D01*
X172550003Y-76730874D01*
X172550003Y-76729128D01*
X172550685Y-76716934D01*
X172552553Y-76704866D01*
X172555590Y-76693038D01*
X172559767Y-76681561D01*
X172565044Y-76670548D01*
X172571370Y-76660101D01*
X172578685Y-76650323D01*
X172586920Y-76641304D01*
X172595996Y-76633133D01*
X172605826Y-76625885D01*
X172616315Y-76619632D01*
X172627365Y-76614432D01*
X172638870Y-76610336D01*
X172650720Y-76607381D01*
X172662801Y-76605596D01*
X172674999Y-76605000D01*
X172687197Y-76605597D01*
X172699279Y-76607380D01*
X172711129Y-76610335D01*
X172722633Y-76614431D01*
X172733683Y-76619631D01*
X172735884Y-76620943D01*
X172759194Y-76581213D01*
X172760087Y-76579714D01*
X172763025Y-76575358D01*
X172765881Y-76570994D01*
X172829911Y-76482864D01*
X172830946Y-76481459D01*
X172834294Y-76477412D01*
X172837563Y-76473346D01*
X172909888Y-76391884D01*
X172911056Y-76390587D01*
X172914801Y-76386868D01*
X172918433Y-76383159D01*
X172998362Y-76309144D01*
X172999650Y-76307967D01*
X173003728Y-76304641D01*
X173007717Y-76301294D01*
X173094487Y-76235432D01*
X173095884Y-76234386D01*
X173100278Y-76231467D01*
X173104564Y-76228532D01*
X173197347Y-76171452D01*
X173198840Y-76170548D01*
X173203504Y-76168068D01*
X173208049Y-76165569D01*
X173305950Y-76117819D01*
X173305958Y-76117815D01*
X173305967Y-76117811D01*
X173307532Y-76117061D01*
X173312359Y-76115072D01*
X173317183Y-76113004D01*
X173419286Y-76075032D01*
X173420926Y-76074435D01*
X173425933Y-76072923D01*
X173430927Y-76071339D01*
X173536247Y-76043512D01*
X173537937Y-76043078D01*
X173543090Y-76042058D01*
X173548194Y-76040973D01*
X173655727Y-76023557D01*
X173657452Y-76023290D01*
X173662676Y-76022778D01*
X173667863Y-76022196D01*
X173776583Y-76015356D01*
X173778326Y-76015258D01*
X173780947Y-76015258D01*
X173783557Y-76015112D01*
X173799124Y-76015003D01*
X173800869Y-76015003D01*
X173813064Y-76015684D01*
G37*
D16*
X174600000Y-76140000D03*
X179400000Y-76140000D03*
D17*
X181325000Y-80910000D03*
X172675000Y-80910000D03*
D18*
X181325000Y-76730000D03*
X172675000Y-76730000D03*
D19*
X177250000Y-76140000D03*
X176750000Y-76140000D03*
X177750000Y-76140000D03*
X176250000Y-76140000D03*
X178250000Y-76140000D03*
X175750000Y-76140000D03*
X178750000Y-76140000D03*
X175250000Y-76140000D03*
D16*
X180200000Y-76140000D03*
X173800000Y-76140000D03*
%TD*%
D20*
%TO.C,U1*%
X180600000Y-63500000D03*
D21*
X182600000Y-65500000D03*
D15*
G36*
X179600000Y-62500000D02*
G01*
X181600000Y-62500000D01*
X181600000Y-64250000D01*
X181350000Y-64500000D01*
X179600000Y-64500000D01*
X179600000Y-62500000D01*
G37*
G36*
G01*
X181725000Y-65062500D02*
X181725000Y-65937500D01*
G75*
G02*
X181662500Y-66000000I-62500J0D01*
G01*
X181537500Y-66000000D01*
G75*
G02*
X181475000Y-65937500I0J62500D01*
G01*
X181475000Y-65062500D01*
G75*
G02*
X181537500Y-65000000I62500J0D01*
G01*
X181662500Y-65000000D01*
G75*
G02*
X181725000Y-65062500I0J-62500D01*
G01*
G37*
G36*
G01*
X181225000Y-65062500D02*
X181225000Y-65937500D01*
G75*
G02*
X181162500Y-66000000I-62500J0D01*
G01*
X181037500Y-66000000D01*
G75*
G02*
X180975000Y-65937500I0J62500D01*
G01*
X180975000Y-65062500D01*
G75*
G02*
X181037500Y-65000000I62500J0D01*
G01*
X181162500Y-65000000D01*
G75*
G02*
X181225000Y-65062500I0J-62500D01*
G01*
G37*
G36*
G01*
X180725000Y-65062500D02*
X180725000Y-65937500D01*
G75*
G02*
X180662500Y-66000000I-62500J0D01*
G01*
X180537500Y-66000000D01*
G75*
G02*
X180475000Y-65937500I0J62500D01*
G01*
X180475000Y-65062500D01*
G75*
G02*
X180537500Y-65000000I62500J0D01*
G01*
X180662500Y-65000000D01*
G75*
G02*
X180725000Y-65062500I0J-62500D01*
G01*
G37*
G36*
G01*
X180225000Y-65062500D02*
X180225000Y-65937500D01*
G75*
G02*
X180162500Y-66000000I-62500J0D01*
G01*
X180037500Y-66000000D01*
G75*
G02*
X179975000Y-65937500I0J62500D01*
G01*
X179975000Y-65062500D01*
G75*
G02*
X180037500Y-65000000I62500J0D01*
G01*
X180162500Y-65000000D01*
G75*
G02*
X180225000Y-65062500I0J-62500D01*
G01*
G37*
G36*
G01*
X179725000Y-65062500D02*
X179725000Y-65937500D01*
G75*
G02*
X179662500Y-66000000I-62500J0D01*
G01*
X179537500Y-66000000D01*
G75*
G02*
X179475000Y-65937500I0J62500D01*
G01*
X179475000Y-65062500D01*
G75*
G02*
X179537500Y-65000000I62500J0D01*
G01*
X179662500Y-65000000D01*
G75*
G02*
X179725000Y-65062500I0J-62500D01*
G01*
G37*
G36*
G01*
X179100000Y-64437500D02*
X179100000Y-64562500D01*
G75*
G02*
X179037500Y-64625000I-62500J0D01*
G01*
X178162500Y-64625000D01*
G75*
G02*
X178100000Y-64562500I0J62500D01*
G01*
X178100000Y-64437500D01*
G75*
G02*
X178162500Y-64375000I62500J0D01*
G01*
X179037500Y-64375000D01*
G75*
G02*
X179100000Y-64437500I0J-62500D01*
G01*
G37*
G36*
G01*
X179100000Y-63937500D02*
X179100000Y-64062500D01*
G75*
G02*
X179037500Y-64125000I-62500J0D01*
G01*
X178162500Y-64125000D01*
G75*
G02*
X178100000Y-64062500I0J62500D01*
G01*
X178100000Y-63937500D01*
G75*
G02*
X178162500Y-63875000I62500J0D01*
G01*
X179037500Y-63875000D01*
G75*
G02*
X179100000Y-63937500I0J-62500D01*
G01*
G37*
G36*
G01*
X179100000Y-63437500D02*
X179100000Y-63562500D01*
G75*
G02*
X179037500Y-63625000I-62500J0D01*
G01*
X178162500Y-63625000D01*
G75*
G02*
X178100000Y-63562500I0J62500D01*
G01*
X178100000Y-63437500D01*
G75*
G02*
X178162500Y-63375000I62500J0D01*
G01*
X179037500Y-63375000D01*
G75*
G02*
X179100000Y-63437500I0J-62500D01*
G01*
G37*
G36*
G01*
X179100000Y-62937500D02*
X179100000Y-63062500D01*
G75*
G02*
X179037500Y-63125000I-62500J0D01*
G01*
X178162500Y-63125000D01*
G75*
G02*
X178100000Y-63062500I0J62500D01*
G01*
X178100000Y-62937500D01*
G75*
G02*
X178162500Y-62875000I62500J0D01*
G01*
X179037500Y-62875000D01*
G75*
G02*
X179100000Y-62937500I0J-62500D01*
G01*
G37*
G36*
G01*
X179100000Y-62437500D02*
X179100000Y-62562500D01*
G75*
G02*
X179037500Y-62625000I-62500J0D01*
G01*
X178162500Y-62625000D01*
G75*
G02*
X178100000Y-62562500I0J62500D01*
G01*
X178100000Y-62437500D01*
G75*
G02*
X178162500Y-62375000I62500J0D01*
G01*
X179037500Y-62375000D01*
G75*
G02*
X179100000Y-62437500I0J-62500D01*
G01*
G37*
G36*
G01*
X179725000Y-61062500D02*
X179725000Y-61937500D01*
G75*
G02*
X179662500Y-62000000I-62500J0D01*
G01*
X179537500Y-62000000D01*
G75*
G02*
X179475000Y-61937500I0J62500D01*
G01*
X179475000Y-61062500D01*
G75*
G02*
X179537500Y-61000000I62500J0D01*
G01*
X179662500Y-61000000D01*
G75*
G02*
X179725000Y-61062500I0J-62500D01*
G01*
G37*
G36*
G01*
X180225000Y-61062500D02*
X180225000Y-61937500D01*
G75*
G02*
X180162500Y-62000000I-62500J0D01*
G01*
X180037500Y-62000000D01*
G75*
G02*
X179975000Y-61937500I0J62500D01*
G01*
X179975000Y-61062500D01*
G75*
G02*
X180037500Y-61000000I62500J0D01*
G01*
X180162500Y-61000000D01*
G75*
G02*
X180225000Y-61062500I0J-62500D01*
G01*
G37*
G36*
G01*
X180725000Y-61062500D02*
X180725000Y-61937500D01*
G75*
G02*
X180662500Y-62000000I-62500J0D01*
G01*
X180537500Y-62000000D01*
G75*
G02*
X180475000Y-61937500I0J62500D01*
G01*
X180475000Y-61062500D01*
G75*
G02*
X180537500Y-61000000I62500J0D01*
G01*
X180662500Y-61000000D01*
G75*
G02*
X180725000Y-61062500I0J-62500D01*
G01*
G37*
G36*
G01*
X181225000Y-61062500D02*
X181225000Y-61937500D01*
G75*
G02*
X181162500Y-62000000I-62500J0D01*
G01*
X181037500Y-62000000D01*
G75*
G02*
X180975000Y-61937500I0J62500D01*
G01*
X180975000Y-61062500D01*
G75*
G02*
X181037500Y-61000000I62500J0D01*
G01*
X181162500Y-61000000D01*
G75*
G02*
X181225000Y-61062500I0J-62500D01*
G01*
G37*
G36*
G01*
X181725000Y-61062500D02*
X181725000Y-61937500D01*
G75*
G02*
X181662500Y-62000000I-62500J0D01*
G01*
X181537500Y-62000000D01*
G75*
G02*
X181475000Y-61937500I0J62500D01*
G01*
X181475000Y-61062500D01*
G75*
G02*
X181537500Y-61000000I62500J0D01*
G01*
X181662500Y-61000000D01*
G75*
G02*
X181725000Y-61062500I0J-62500D01*
G01*
G37*
G36*
G01*
X183100000Y-62437500D02*
X183100000Y-62562500D01*
G75*
G02*
X183037500Y-62625000I-62500J0D01*
G01*
X182162500Y-62625000D01*
G75*
G02*
X182100000Y-62562500I0J62500D01*
G01*
X182100000Y-62437500D01*
G75*
G02*
X182162500Y-62375000I62500J0D01*
G01*
X183037500Y-62375000D01*
G75*
G02*
X183100000Y-62437500I0J-62500D01*
G01*
G37*
G36*
G01*
X183100000Y-62937500D02*
X183100000Y-63062500D01*
G75*
G02*
X183037500Y-63125000I-62500J0D01*
G01*
X182162500Y-63125000D01*
G75*
G02*
X182100000Y-63062500I0J62500D01*
G01*
X182100000Y-62937500D01*
G75*
G02*
X182162500Y-62875000I62500J0D01*
G01*
X183037500Y-62875000D01*
G75*
G02*
X183100000Y-62937500I0J-62500D01*
G01*
G37*
G36*
G01*
X183100000Y-63437500D02*
X183100000Y-63562500D01*
G75*
G02*
X183037500Y-63625000I-62500J0D01*
G01*
X182162500Y-63625000D01*
G75*
G02*
X182100000Y-63562500I0J62500D01*
G01*
X182100000Y-63437500D01*
G75*
G02*
X182162500Y-63375000I62500J0D01*
G01*
X183037500Y-63375000D01*
G75*
G02*
X183100000Y-63437500I0J-62500D01*
G01*
G37*
G36*
G01*
X183100000Y-63937500D02*
X183100000Y-64062500D01*
G75*
G02*
X183037500Y-64125000I-62500J0D01*
G01*
X182162500Y-64125000D01*
G75*
G02*
X182100000Y-64062500I0J62500D01*
G01*
X182100000Y-63937500D01*
G75*
G02*
X182162500Y-63875000I62500J0D01*
G01*
X183037500Y-63875000D01*
G75*
G02*
X183100000Y-63937500I0J-62500D01*
G01*
G37*
G36*
G01*
X183100000Y-64437500D02*
X183100000Y-64562500D01*
G75*
G02*
X183037500Y-64625000I-62500J0D01*
G01*
X182162500Y-64625000D01*
G75*
G02*
X182100000Y-64562500I0J62500D01*
G01*
X182100000Y-64437500D01*
G75*
G02*
X182162500Y-64375000I62500J0D01*
G01*
X183037500Y-64375000D01*
G75*
G02*
X183100000Y-64437500I0J-62500D01*
G01*
G37*
%TD*%
D22*
%TO.C,J2*%
X176250000Y-58600000D03*
X177520000Y-58600000D03*
X178790000Y-58600000D03*
X180060000Y-58600000D03*
X181330000Y-58600000D03*
D23*
X182600000Y-58600000D03*
%TD*%
M02*
