%TF.GenerationSoftware,KiCad,Pcbnew,(5.1.9-0-10_14)*%
%TF.CreationDate,2021-08-07T09:23:38+01:00*%
%TF.ProjectId,Shelly,5368656c-6c79-42e6-9b69-6361645f7063,4*%
%TF.SameCoordinates,Original*%
%TF.FileFunction,Legend,Bot*%
%TF.FilePolarity,Positive*%
%FSLAX46Y46*%
G04 Gerber Fmt 4.6, Leading zero omitted, Abs format (unit mm)*
G04 Created by KiCad (PCBNEW (5.1.9-0-10_14)) date 2021-08-07 09:23:38*
%MOMM*%
%LPD*%
G01*
G04 APERTURE LIST*
%ADD10C,0.150000*%
%ADD11C,0.120000*%
G04 APERTURE END LIST*
D10*
X171385714Y-63942857D02*
X172052380Y-64133333D01*
X171576190Y-64323809D01*
X172052380Y-64514285D01*
X171385714Y-64704761D01*
X171385714Y-64990476D02*
X172052380Y-65180952D01*
X171576190Y-65371428D01*
X172052380Y-65561904D01*
X171385714Y-65752380D01*
X171385714Y-66038095D02*
X172052380Y-66228571D01*
X171576190Y-66419047D01*
X172052380Y-66609523D01*
X171385714Y-66800000D01*
X171957142Y-67180952D02*
X172004761Y-67228571D01*
X172052380Y-67180952D01*
X172004761Y-67133333D01*
X171957142Y-67180952D01*
X172052380Y-67180952D01*
X172052380Y-67657142D02*
X171385714Y-67657142D01*
X171480952Y-67657142D02*
X171433333Y-67704761D01*
X171385714Y-67800000D01*
X171385714Y-67942857D01*
X171433333Y-68038095D01*
X171528571Y-68085714D01*
X172052380Y-68085714D01*
X171528571Y-68085714D02*
X171433333Y-68133333D01*
X171385714Y-68228571D01*
X171385714Y-68371428D01*
X171433333Y-68466666D01*
X171528571Y-68514285D01*
X172052380Y-68514285D01*
X172004761Y-69371428D02*
X172052380Y-69276190D01*
X172052380Y-69085714D01*
X172004761Y-68990476D01*
X171909523Y-68942857D01*
X171528571Y-68942857D01*
X171433333Y-68990476D01*
X171385714Y-69085714D01*
X171385714Y-69276190D01*
X171433333Y-69371428D01*
X171528571Y-69419047D01*
X171623809Y-69419047D01*
X171719047Y-68942857D01*
X171957142Y-69847619D02*
X172004761Y-69895238D01*
X172052380Y-69847619D01*
X172004761Y-69800000D01*
X171957142Y-69847619D01*
X172052380Y-69847619D01*
X171385714Y-70752380D02*
X172052380Y-70752380D01*
X171385714Y-70323809D02*
X171909523Y-70323809D01*
X172004761Y-70371428D01*
X172052380Y-70466666D01*
X172052380Y-70609523D01*
X172004761Y-70704761D01*
X171957142Y-70752380D01*
X172052380Y-71228571D02*
X171052380Y-71228571D01*
X171671428Y-71323809D02*
X172052380Y-71609523D01*
X171385714Y-71609523D02*
X171766666Y-71228571D01*
D11*
%TO.C,J2*%
X175555000Y-59710000D02*
X175555000Y-58907530D01*
X175555000Y-58292470D02*
X175555000Y-57490000D01*
X181840000Y-59710000D02*
X175555000Y-59710000D01*
X181840000Y-57490000D02*
X175555000Y-57490000D01*
X181840000Y-59710000D02*
X181840000Y-59163471D01*
X181840000Y-58036529D02*
X181840000Y-57490000D01*
X182600000Y-59710000D02*
X183360000Y-59710000D01*
X183360000Y-59710000D02*
X183360000Y-58600000D01*
%TD*%
M02*
