%TF.GenerationSoftware,KiCad,Pcbnew,(5.1.10-1-10_14)*%
%TF.CreationDate,2021-05-11T16:29:51+01:00*%
%TF.ProjectId,Shelly,5368656c-6c79-42e6-9b69-6361645f7063,4*%
%TF.SameCoordinates,Original*%
%TF.FileFunction,Soldermask,Top*%
%TF.FilePolarity,Negative*%
%FSLAX46Y46*%
G04 Gerber Fmt 4.6, Leading zero omitted, Abs format (unit mm)*
G04 Created by KiCad (PCBNEW (5.1.10-1-10_14)) date 2021-05-11 16:29:51*
%MOMM*%
%LPD*%
G01*
G04 APERTURE LIST*
%ADD10R,1.100000X3.700000*%
%ADD11R,0.650000X1.560000*%
%ADD12R,1.200000X0.800000*%
%ADD13O,1.000000X1.000000*%
%ADD14R,1.000000X1.000000*%
%ADD15R,8.340000X5.490000*%
%ADD16R,0.600000X1.140000*%
%ADD17C,1.700000*%
%ADD18C,2.000000*%
%ADD19R,0.300000X1.140000*%
%ADD20C,0.100000*%
%ADD21R,2.000000X1.750000*%
%ADD22C,0.350000*%
%ADD23C,0.500000*%
%ADD24R,1.750000X2.000000*%
%ADD25O,1.700000X1.700000*%
%ADD26R,1.700000X1.700000*%
G04 APERTURE END LIST*
%TO.C,R6*%
G36*
G01*
X170525000Y-78225000D02*
X171075000Y-78225000D01*
G75*
G02*
X171275000Y-78425000I0J-200000D01*
G01*
X171275000Y-78825000D01*
G75*
G02*
X171075000Y-79025000I-200000J0D01*
G01*
X170525000Y-79025000D01*
G75*
G02*
X170325000Y-78825000I0J200000D01*
G01*
X170325000Y-78425000D01*
G75*
G02*
X170525000Y-78225000I200000J0D01*
G01*
G37*
G36*
G01*
X170525000Y-76575000D02*
X171075000Y-76575000D01*
G75*
G02*
X171275000Y-76775000I0J-200000D01*
G01*
X171275000Y-77175000D01*
G75*
G02*
X171075000Y-77375000I-200000J0D01*
G01*
X170525000Y-77375000D01*
G75*
G02*
X170325000Y-77175000I0J200000D01*
G01*
X170325000Y-76775000D01*
G75*
G02*
X170525000Y-76575000I200000J0D01*
G01*
G37*
%TD*%
%TO.C,R5*%
G36*
G01*
X183925000Y-74775000D02*
X183925000Y-74225000D01*
G75*
G02*
X184125000Y-74025000I200000J0D01*
G01*
X184525000Y-74025000D01*
G75*
G02*
X184725000Y-74225000I0J-200000D01*
G01*
X184725000Y-74775000D01*
G75*
G02*
X184525000Y-74975000I-200000J0D01*
G01*
X184125000Y-74975000D01*
G75*
G02*
X183925000Y-74775000I0J200000D01*
G01*
G37*
G36*
G01*
X182275000Y-74775000D02*
X182275000Y-74225000D01*
G75*
G02*
X182475000Y-74025000I200000J0D01*
G01*
X182875000Y-74025000D01*
G75*
G02*
X183075000Y-74225000I0J-200000D01*
G01*
X183075000Y-74775000D01*
G75*
G02*
X182875000Y-74975000I-200000J0D01*
G01*
X182475000Y-74975000D01*
G75*
G02*
X182275000Y-74775000I0J200000D01*
G01*
G37*
%TD*%
%TO.C,R4*%
G36*
G01*
X183925000Y-73575000D02*
X183925000Y-73025000D01*
G75*
G02*
X184125000Y-72825000I200000J0D01*
G01*
X184525000Y-72825000D01*
G75*
G02*
X184725000Y-73025000I0J-200000D01*
G01*
X184725000Y-73575000D01*
G75*
G02*
X184525000Y-73775000I-200000J0D01*
G01*
X184125000Y-73775000D01*
G75*
G02*
X183925000Y-73575000I0J200000D01*
G01*
G37*
G36*
G01*
X182275000Y-73575000D02*
X182275000Y-73025000D01*
G75*
G02*
X182475000Y-72825000I200000J0D01*
G01*
X182875000Y-72825000D01*
G75*
G02*
X183075000Y-73025000I0J-200000D01*
G01*
X183075000Y-73575000D01*
G75*
G02*
X182875000Y-73775000I-200000J0D01*
G01*
X182475000Y-73775000D01*
G75*
G02*
X182275000Y-73575000I0J200000D01*
G01*
G37*
%TD*%
%TO.C,R3*%
G36*
G01*
X171775000Y-64175000D02*
X171225000Y-64175000D01*
G75*
G02*
X171025000Y-63975000I0J200000D01*
G01*
X171025000Y-63575000D01*
G75*
G02*
X171225000Y-63375000I200000J0D01*
G01*
X171775000Y-63375000D01*
G75*
G02*
X171975000Y-63575000I0J-200000D01*
G01*
X171975000Y-63975000D01*
G75*
G02*
X171775000Y-64175000I-200000J0D01*
G01*
G37*
G36*
G01*
X171775000Y-65825000D02*
X171225000Y-65825000D01*
G75*
G02*
X171025000Y-65625000I0J200000D01*
G01*
X171025000Y-65225000D01*
G75*
G02*
X171225000Y-65025000I200000J0D01*
G01*
X171775000Y-65025000D01*
G75*
G02*
X171975000Y-65225000I0J-200000D01*
G01*
X171975000Y-65625000D01*
G75*
G02*
X171775000Y-65825000I-200000J0D01*
G01*
G37*
%TD*%
%TO.C,R2*%
G36*
G01*
X180325000Y-80725000D02*
X180875000Y-80725000D01*
G75*
G02*
X181075000Y-80925000I0J-200000D01*
G01*
X181075000Y-81325000D01*
G75*
G02*
X180875000Y-81525000I-200000J0D01*
G01*
X180325000Y-81525000D01*
G75*
G02*
X180125000Y-81325000I0J200000D01*
G01*
X180125000Y-80925000D01*
G75*
G02*
X180325000Y-80725000I200000J0D01*
G01*
G37*
G36*
G01*
X180325000Y-79075000D02*
X180875000Y-79075000D01*
G75*
G02*
X181075000Y-79275000I0J-200000D01*
G01*
X181075000Y-79675000D01*
G75*
G02*
X180875000Y-79875000I-200000J0D01*
G01*
X180325000Y-79875000D01*
G75*
G02*
X180125000Y-79675000I0J200000D01*
G01*
X180125000Y-79275000D01*
G75*
G02*
X180325000Y-79075000I200000J0D01*
G01*
G37*
%TD*%
%TO.C,R1*%
G36*
G01*
X170525000Y-80925000D02*
X171075000Y-80925000D01*
G75*
G02*
X171275000Y-81125000I0J-200000D01*
G01*
X171275000Y-81525000D01*
G75*
G02*
X171075000Y-81725000I-200000J0D01*
G01*
X170525000Y-81725000D01*
G75*
G02*
X170325000Y-81525000I0J200000D01*
G01*
X170325000Y-81125000D01*
G75*
G02*
X170525000Y-80925000I200000J0D01*
G01*
G37*
G36*
G01*
X170525000Y-79275000D02*
X171075000Y-79275000D01*
G75*
G02*
X171275000Y-79475000I0J-200000D01*
G01*
X171275000Y-79875000D01*
G75*
G02*
X171075000Y-80075000I-200000J0D01*
G01*
X170525000Y-80075000D01*
G75*
G02*
X170325000Y-79875000I0J200000D01*
G01*
X170325000Y-79475000D01*
G75*
G02*
X170525000Y-79275000I200000J0D01*
G01*
G37*
%TD*%
%TO.C,C1*%
G36*
G01*
X184350000Y-63675000D02*
X183850000Y-63675000D01*
G75*
G02*
X183625000Y-63450000I0J225000D01*
G01*
X183625000Y-63000000D01*
G75*
G02*
X183850000Y-62775000I225000J0D01*
G01*
X184350000Y-62775000D01*
G75*
G02*
X184575000Y-63000000I0J-225000D01*
G01*
X184575000Y-63450000D01*
G75*
G02*
X184350000Y-63675000I-225000J0D01*
G01*
G37*
G36*
G01*
X184350000Y-65225000D02*
X183850000Y-65225000D01*
G75*
G02*
X183625000Y-65000000I0J225000D01*
G01*
X183625000Y-64550000D01*
G75*
G02*
X183850000Y-64325000I225000J0D01*
G01*
X184350000Y-64325000D01*
G75*
G02*
X184575000Y-64550000I0J-225000D01*
G01*
X184575000Y-65000000D01*
G75*
G02*
X184350000Y-65225000I-225000J0D01*
G01*
G37*
%TD*%
%TO.C,D1*%
G36*
G01*
X171262500Y-61850000D02*
X171737500Y-61850000D01*
G75*
G02*
X171975000Y-62087500I0J-237500D01*
G01*
X171975000Y-62662500D01*
G75*
G02*
X171737500Y-62900000I-237500J0D01*
G01*
X171262500Y-62900000D01*
G75*
G02*
X171025000Y-62662500I0J237500D01*
G01*
X171025000Y-62087500D01*
G75*
G02*
X171262500Y-61850000I237500J0D01*
G01*
G37*
G36*
G01*
X171262500Y-60100000D02*
X171737500Y-60100000D01*
G75*
G02*
X171975000Y-60337500I0J-237500D01*
G01*
X171975000Y-60912500D01*
G75*
G02*
X171737500Y-61150000I-237500J0D01*
G01*
X171262500Y-61150000D01*
G75*
G02*
X171025000Y-60912500I0J237500D01*
G01*
X171025000Y-60337500D01*
G75*
G02*
X171262500Y-60100000I237500J0D01*
G01*
G37*
%TD*%
%TO.C,Reg1*%
G36*
G01*
X173650000Y-73475626D02*
X173650000Y-72224374D01*
G75*
G02*
X173899374Y-71975000I249374J0D01*
G01*
X174825626Y-71975000D01*
G75*
G02*
X175075000Y-72224374I0J-249374D01*
G01*
X175075000Y-73475626D01*
G75*
G02*
X174825626Y-73725000I-249374J0D01*
G01*
X173899374Y-73725000D01*
G75*
G02*
X173650000Y-73475626I0J249374D01*
G01*
G37*
G36*
G01*
X176625000Y-73475626D02*
X176625000Y-72224374D01*
G75*
G02*
X176874374Y-71975000I249374J0D01*
G01*
X177800626Y-71975000D01*
G75*
G02*
X178050000Y-72224374I0J-249374D01*
G01*
X178050000Y-73475626D01*
G75*
G02*
X177800626Y-73725000I-249374J0D01*
G01*
X176874374Y-73725000D01*
G75*
G02*
X176625000Y-73475626I0J249374D01*
G01*
G37*
D10*
X177350000Y-69850000D03*
X174350000Y-69850000D03*
G36*
G01*
X176800000Y-75550450D02*
X176800000Y-74649550D01*
G75*
G02*
X177049550Y-74400000I249550J0D01*
G01*
X177700450Y-74400000D01*
G75*
G02*
X177950000Y-74649550I0J-249550D01*
G01*
X177950000Y-75550450D01*
G75*
G02*
X177700450Y-75800000I-249550J0D01*
G01*
X177049550Y-75800000D01*
G75*
G02*
X176800000Y-75550450I0J249550D01*
G01*
G37*
G36*
G01*
X174750000Y-75550450D02*
X174750000Y-74649550D01*
G75*
G02*
X174999550Y-74400000I249550J0D01*
G01*
X175650450Y-74400000D01*
G75*
G02*
X175900000Y-74649550I0J-249550D01*
G01*
X175900000Y-75550450D01*
G75*
G02*
X175650450Y-75800000I-249550J0D01*
G01*
X174999550Y-75800000D01*
G75*
G02*
X174750000Y-75550450I0J249550D01*
G01*
G37*
G36*
G01*
X171837500Y-75500000D02*
X171362500Y-75500000D01*
G75*
G02*
X171125000Y-75262500I0J237500D01*
G01*
X171125000Y-74662500D01*
G75*
G02*
X171362500Y-74425000I237500J0D01*
G01*
X171837500Y-74425000D01*
G75*
G02*
X172075000Y-74662500I0J-237500D01*
G01*
X172075000Y-75262500D01*
G75*
G02*
X171837500Y-75500000I-237500J0D01*
G01*
G37*
G36*
G01*
X171837500Y-73775000D02*
X171362500Y-73775000D01*
G75*
G02*
X171125000Y-73537500I0J237500D01*
G01*
X171125000Y-72937500D01*
G75*
G02*
X171362500Y-72700000I237500J0D01*
G01*
X171837500Y-72700000D01*
G75*
G02*
X172075000Y-72937500I0J-237500D01*
G01*
X172075000Y-73537500D01*
G75*
G02*
X171837500Y-73775000I-237500J0D01*
G01*
G37*
G36*
G01*
X173087500Y-75500000D02*
X172612500Y-75500000D01*
G75*
G02*
X172375000Y-75262500I0J237500D01*
G01*
X172375000Y-74662500D01*
G75*
G02*
X172612500Y-74425000I237500J0D01*
G01*
X173087500Y-74425000D01*
G75*
G02*
X173325000Y-74662500I0J-237500D01*
G01*
X173325000Y-75262500D01*
G75*
G02*
X173087500Y-75500000I-237500J0D01*
G01*
G37*
G36*
G01*
X173087500Y-73775000D02*
X172612500Y-73775000D01*
G75*
G02*
X172375000Y-73537500I0J237500D01*
G01*
X172375000Y-72937500D01*
G75*
G02*
X172612500Y-72700000I237500J0D01*
G01*
X173087500Y-72700000D01*
G75*
G02*
X173325000Y-72937500I0J-237500D01*
G01*
X173325000Y-73537500D01*
G75*
G02*
X173087500Y-73775000I-237500J0D01*
G01*
G37*
D11*
X171150000Y-71450000D03*
X172100000Y-71450000D03*
X173050000Y-71450000D03*
X173050000Y-68750000D03*
X171150000Y-68750000D03*
X172100000Y-68750000D03*
%TD*%
D12*
%TO.C,U2*%
X172800000Y-77430000D03*
X172800000Y-79970000D03*
X178800000Y-79970000D03*
X178800000Y-77430000D03*
%TD*%
D13*
%TO.C,J3*%
X174150000Y-62500000D03*
X175420000Y-62500000D03*
X176690000Y-62500000D03*
X177960000Y-62500000D03*
X179230000Y-62500000D03*
D14*
X180500000Y-62500000D03*
%TD*%
D15*
%TO.C,J4*%
X176000000Y-86255000D03*
D16*
X173600000Y-82140000D03*
X178400000Y-82140000D03*
D17*
X180325000Y-86910000D03*
X171675000Y-86910000D03*
D18*
X180325000Y-82730000D03*
X171675000Y-82730000D03*
D19*
X176250000Y-82140000D03*
X175750000Y-82140000D03*
X176750000Y-82140000D03*
X175250000Y-82140000D03*
X177250000Y-82140000D03*
X174750000Y-82140000D03*
X177750000Y-82140000D03*
X174250000Y-82140000D03*
D16*
X179200000Y-82140000D03*
X172800000Y-82140000D03*
%TD*%
D20*
%TO.C,U1*%
G36*
X182649887Y-69700203D02*
G01*
X180899797Y-67950113D01*
X181150113Y-67699797D01*
X182900203Y-69449887D01*
X182649887Y-69700203D01*
G37*
D21*
X181900000Y-68575000D03*
D22*
X181900000Y-68700000D03*
D23*
X183900000Y-70700000D03*
D24*
X181775000Y-68700000D03*
G36*
G01*
X183025000Y-70262500D02*
X183025000Y-71137500D01*
G75*
G02*
X182962500Y-71200000I-62500J0D01*
G01*
X182837500Y-71200000D01*
G75*
G02*
X182775000Y-71137500I0J62500D01*
G01*
X182775000Y-70262500D01*
G75*
G02*
X182837500Y-70200000I62500J0D01*
G01*
X182962500Y-70200000D01*
G75*
G02*
X183025000Y-70262500I0J-62500D01*
G01*
G37*
G36*
G01*
X182525000Y-70262500D02*
X182525000Y-71137500D01*
G75*
G02*
X182462500Y-71200000I-62500J0D01*
G01*
X182337500Y-71200000D01*
G75*
G02*
X182275000Y-71137500I0J62500D01*
G01*
X182275000Y-70262500D01*
G75*
G02*
X182337500Y-70200000I62500J0D01*
G01*
X182462500Y-70200000D01*
G75*
G02*
X182525000Y-70262500I0J-62500D01*
G01*
G37*
G36*
G01*
X182025000Y-70262500D02*
X182025000Y-71137500D01*
G75*
G02*
X181962500Y-71200000I-62500J0D01*
G01*
X181837500Y-71200000D01*
G75*
G02*
X181775000Y-71137500I0J62500D01*
G01*
X181775000Y-70262500D01*
G75*
G02*
X181837500Y-70200000I62500J0D01*
G01*
X181962500Y-70200000D01*
G75*
G02*
X182025000Y-70262500I0J-62500D01*
G01*
G37*
G36*
G01*
X181525000Y-70262500D02*
X181525000Y-71137500D01*
G75*
G02*
X181462500Y-71200000I-62500J0D01*
G01*
X181337500Y-71200000D01*
G75*
G02*
X181275000Y-71137500I0J62500D01*
G01*
X181275000Y-70262500D01*
G75*
G02*
X181337500Y-70200000I62500J0D01*
G01*
X181462500Y-70200000D01*
G75*
G02*
X181525000Y-70262500I0J-62500D01*
G01*
G37*
G36*
G01*
X181025000Y-70262500D02*
X181025000Y-71137500D01*
G75*
G02*
X180962500Y-71200000I-62500J0D01*
G01*
X180837500Y-71200000D01*
G75*
G02*
X180775000Y-71137500I0J62500D01*
G01*
X180775000Y-70262500D01*
G75*
G02*
X180837500Y-70200000I62500J0D01*
G01*
X180962500Y-70200000D01*
G75*
G02*
X181025000Y-70262500I0J-62500D01*
G01*
G37*
G36*
G01*
X180400000Y-69637500D02*
X180400000Y-69762500D01*
G75*
G02*
X180337500Y-69825000I-62500J0D01*
G01*
X179462500Y-69825000D01*
G75*
G02*
X179400000Y-69762500I0J62500D01*
G01*
X179400000Y-69637500D01*
G75*
G02*
X179462500Y-69575000I62500J0D01*
G01*
X180337500Y-69575000D01*
G75*
G02*
X180400000Y-69637500I0J-62500D01*
G01*
G37*
G36*
G01*
X180400000Y-69137500D02*
X180400000Y-69262500D01*
G75*
G02*
X180337500Y-69325000I-62500J0D01*
G01*
X179462500Y-69325000D01*
G75*
G02*
X179400000Y-69262500I0J62500D01*
G01*
X179400000Y-69137500D01*
G75*
G02*
X179462500Y-69075000I62500J0D01*
G01*
X180337500Y-69075000D01*
G75*
G02*
X180400000Y-69137500I0J-62500D01*
G01*
G37*
G36*
G01*
X180400000Y-68637500D02*
X180400000Y-68762500D01*
G75*
G02*
X180337500Y-68825000I-62500J0D01*
G01*
X179462500Y-68825000D01*
G75*
G02*
X179400000Y-68762500I0J62500D01*
G01*
X179400000Y-68637500D01*
G75*
G02*
X179462500Y-68575000I62500J0D01*
G01*
X180337500Y-68575000D01*
G75*
G02*
X180400000Y-68637500I0J-62500D01*
G01*
G37*
G36*
G01*
X180400000Y-68137500D02*
X180400000Y-68262500D01*
G75*
G02*
X180337500Y-68325000I-62500J0D01*
G01*
X179462500Y-68325000D01*
G75*
G02*
X179400000Y-68262500I0J62500D01*
G01*
X179400000Y-68137500D01*
G75*
G02*
X179462500Y-68075000I62500J0D01*
G01*
X180337500Y-68075000D01*
G75*
G02*
X180400000Y-68137500I0J-62500D01*
G01*
G37*
G36*
G01*
X180400000Y-67637500D02*
X180400000Y-67762500D01*
G75*
G02*
X180337500Y-67825000I-62500J0D01*
G01*
X179462500Y-67825000D01*
G75*
G02*
X179400000Y-67762500I0J62500D01*
G01*
X179400000Y-67637500D01*
G75*
G02*
X179462500Y-67575000I62500J0D01*
G01*
X180337500Y-67575000D01*
G75*
G02*
X180400000Y-67637500I0J-62500D01*
G01*
G37*
G36*
G01*
X181025000Y-66262500D02*
X181025000Y-67137500D01*
G75*
G02*
X180962500Y-67200000I-62500J0D01*
G01*
X180837500Y-67200000D01*
G75*
G02*
X180775000Y-67137500I0J62500D01*
G01*
X180775000Y-66262500D01*
G75*
G02*
X180837500Y-66200000I62500J0D01*
G01*
X180962500Y-66200000D01*
G75*
G02*
X181025000Y-66262500I0J-62500D01*
G01*
G37*
G36*
G01*
X181525000Y-66262500D02*
X181525000Y-67137500D01*
G75*
G02*
X181462500Y-67200000I-62500J0D01*
G01*
X181337500Y-67200000D01*
G75*
G02*
X181275000Y-67137500I0J62500D01*
G01*
X181275000Y-66262500D01*
G75*
G02*
X181337500Y-66200000I62500J0D01*
G01*
X181462500Y-66200000D01*
G75*
G02*
X181525000Y-66262500I0J-62500D01*
G01*
G37*
G36*
G01*
X182025000Y-66262500D02*
X182025000Y-67137500D01*
G75*
G02*
X181962500Y-67200000I-62500J0D01*
G01*
X181837500Y-67200000D01*
G75*
G02*
X181775000Y-67137500I0J62500D01*
G01*
X181775000Y-66262500D01*
G75*
G02*
X181837500Y-66200000I62500J0D01*
G01*
X181962500Y-66200000D01*
G75*
G02*
X182025000Y-66262500I0J-62500D01*
G01*
G37*
G36*
G01*
X182525000Y-66262500D02*
X182525000Y-67137500D01*
G75*
G02*
X182462500Y-67200000I-62500J0D01*
G01*
X182337500Y-67200000D01*
G75*
G02*
X182275000Y-67137500I0J62500D01*
G01*
X182275000Y-66262500D01*
G75*
G02*
X182337500Y-66200000I62500J0D01*
G01*
X182462500Y-66200000D01*
G75*
G02*
X182525000Y-66262500I0J-62500D01*
G01*
G37*
G36*
G01*
X183025000Y-66262500D02*
X183025000Y-67137500D01*
G75*
G02*
X182962500Y-67200000I-62500J0D01*
G01*
X182837500Y-67200000D01*
G75*
G02*
X182775000Y-67137500I0J62500D01*
G01*
X182775000Y-66262500D01*
G75*
G02*
X182837500Y-66200000I62500J0D01*
G01*
X182962500Y-66200000D01*
G75*
G02*
X183025000Y-66262500I0J-62500D01*
G01*
G37*
G36*
G01*
X184400000Y-67637500D02*
X184400000Y-67762500D01*
G75*
G02*
X184337500Y-67825000I-62500J0D01*
G01*
X183462500Y-67825000D01*
G75*
G02*
X183400000Y-67762500I0J62500D01*
G01*
X183400000Y-67637500D01*
G75*
G02*
X183462500Y-67575000I62500J0D01*
G01*
X184337500Y-67575000D01*
G75*
G02*
X184400000Y-67637500I0J-62500D01*
G01*
G37*
G36*
G01*
X184400000Y-68137500D02*
X184400000Y-68262500D01*
G75*
G02*
X184337500Y-68325000I-62500J0D01*
G01*
X183462500Y-68325000D01*
G75*
G02*
X183400000Y-68262500I0J62500D01*
G01*
X183400000Y-68137500D01*
G75*
G02*
X183462500Y-68075000I62500J0D01*
G01*
X184337500Y-68075000D01*
G75*
G02*
X184400000Y-68137500I0J-62500D01*
G01*
G37*
G36*
G01*
X184400000Y-68637500D02*
X184400000Y-68762500D01*
G75*
G02*
X184337500Y-68825000I-62500J0D01*
G01*
X183462500Y-68825000D01*
G75*
G02*
X183400000Y-68762500I0J62500D01*
G01*
X183400000Y-68637500D01*
G75*
G02*
X183462500Y-68575000I62500J0D01*
G01*
X184337500Y-68575000D01*
G75*
G02*
X184400000Y-68637500I0J-62500D01*
G01*
G37*
G36*
G01*
X184400000Y-69137500D02*
X184400000Y-69262500D01*
G75*
G02*
X184337500Y-69325000I-62500J0D01*
G01*
X183462500Y-69325000D01*
G75*
G02*
X183400000Y-69262500I0J62500D01*
G01*
X183400000Y-69137500D01*
G75*
G02*
X183462500Y-69075000I62500J0D01*
G01*
X184337500Y-69075000D01*
G75*
G02*
X184400000Y-69137500I0J-62500D01*
G01*
G37*
G36*
G01*
X184400000Y-69637500D02*
X184400000Y-69762500D01*
G75*
G02*
X184337500Y-69825000I-62500J0D01*
G01*
X183462500Y-69825000D01*
G75*
G02*
X183400000Y-69762500I0J62500D01*
G01*
X183400000Y-69637500D01*
G75*
G02*
X183462500Y-69575000I62500J0D01*
G01*
X184337500Y-69575000D01*
G75*
G02*
X184400000Y-69637500I0J-62500D01*
G01*
G37*
%TD*%
D13*
%TO.C,J2*%
X174150000Y-60630000D03*
X175420000Y-60630000D03*
X176690000Y-60630000D03*
X177960000Y-60630000D03*
X179230000Y-60630000D03*
D14*
X180500000Y-60630000D03*
%TD*%
D25*
%TO.C,J1*%
X183000000Y-76840000D03*
X183000000Y-79380000D03*
X183000000Y-81920000D03*
X183000000Y-84460000D03*
D26*
X183000000Y-87000000D03*
%TD*%
M02*
