%TF.GenerationSoftware,KiCad,Pcbnew,(5.1.10-1-10_14)*%
%TF.CreationDate,2021-05-11T16:29:51+01:00*%
%TF.ProjectId,Shelly,5368656c-6c79-42e6-9b69-6361645f7063,4*%
%TF.SameCoordinates,Original*%
%TF.FileFunction,Copper,L1,Top*%
%TF.FilePolarity,Positive*%
%FSLAX46Y46*%
G04 Gerber Fmt 4.6, Leading zero omitted, Abs format (unit mm)*
G04 Created by KiCad (PCBNEW (5.1.10-1-10_14)) date 2021-05-11 16:29:51*
%MOMM*%
%LPD*%
G01*
G04 APERTURE LIST*
%TA.AperFunction,EtchedComponent*%
%ADD10C,0.250000*%
%TD*%
%TA.AperFunction,EtchedComponent*%
%ADD11C,0.500000*%
%TD*%
%TA.AperFunction,SMDPad,CuDef*%
%ADD12R,1.000000X0.500000*%
%TD*%
%TA.AperFunction,SMDPad,CuDef*%
%ADD13C,0.100000*%
%TD*%
%TA.AperFunction,SMDPad,CuDef*%
%ADD14R,0.500000X1.000000*%
%TD*%
%TA.AperFunction,SMDPad,CuDef*%
%ADD15R,0.500000X0.800000*%
%TD*%
%TA.AperFunction,SMDPad,CuDef*%
%ADD16R,0.500000X3.650000*%
%TD*%
%TA.AperFunction,SMDPad,CuDef*%
%ADD17R,2.500000X0.500000*%
%TD*%
%TA.AperFunction,SMDPad,CuDef*%
%ADD18R,1.100000X3.700000*%
%TD*%
%TA.AperFunction,SMDPad,CuDef*%
%ADD19R,0.650000X1.560000*%
%TD*%
%TA.AperFunction,SMDPad,CuDef*%
%ADD20R,1.200000X0.800000*%
%TD*%
%TA.AperFunction,ComponentPad*%
%ADD21O,1.000000X1.000000*%
%TD*%
%TA.AperFunction,ComponentPad*%
%ADD22R,1.000000X1.000000*%
%TD*%
%TA.AperFunction,SMDPad,CuDef*%
%ADD23R,0.200000X0.500000*%
%TD*%
%TA.AperFunction,SMDPad,CuDef*%
%ADD24R,0.500000X0.200000*%
%TD*%
%TA.AperFunction,SMDPad,CuDef*%
%ADD25R,8.340000X5.490000*%
%TD*%
%TA.AperFunction,SMDPad,CuDef*%
%ADD26R,0.600000X1.140000*%
%TD*%
%TA.AperFunction,ComponentPad*%
%ADD27C,1.700000*%
%TD*%
%TA.AperFunction,ComponentPad*%
%ADD28C,2.000000*%
%TD*%
%TA.AperFunction,SMDPad,CuDef*%
%ADD29R,0.300000X1.140000*%
%TD*%
%TA.AperFunction,ComponentPad*%
%ADD30C,0.600000*%
%TD*%
%TA.AperFunction,SMDPad,CuDef*%
%ADD31R,2.000000X1.750000*%
%TD*%
%TA.AperFunction,ComponentPad*%
%ADD32C,0.350000*%
%TD*%
%TA.AperFunction,SMDPad,CuDef*%
%ADD33R,0.200000X0.200000*%
%TD*%
%TA.AperFunction,SMDPad,CuDef*%
%ADD34C,0.500000*%
%TD*%
%TA.AperFunction,SMDPad,CuDef*%
%ADD35R,1.750000X2.000000*%
%TD*%
%TA.AperFunction,ComponentPad*%
%ADD36O,1.700000X1.700000*%
%TD*%
%TA.AperFunction,ComponentPad*%
%ADD37R,1.700000X1.700000*%
%TD*%
%TA.AperFunction,ViaPad*%
%ADD38C,0.800000*%
%TD*%
%TA.AperFunction,Conductor*%
%ADD39C,0.250000*%
%TD*%
%TA.AperFunction,Conductor*%
%ADD40C,0.500000*%
%TD*%
%TA.AperFunction,Conductor*%
%ADD41C,0.254000*%
%TD*%
%TA.AperFunction,Conductor*%
%ADD42C,0.100000*%
%TD*%
G04 APERTURE END LIST*
D10*
%TO.C,Reg1*%
X172600000Y-67600000D02*
X171150000Y-67600000D01*
X172600000Y-67600000D02*
X172600000Y-67100000D01*
X175950000Y-69850000D02*
X176800000Y-69850000D01*
X175950000Y-69850000D02*
X175950000Y-67100000D01*
D11*
X174500000Y-71100000D02*
X173100000Y-71100000D01*
X174350000Y-71100000D02*
X174350000Y-73100000D01*
D10*
X174350000Y-73100000D02*
X172850000Y-73100000D01*
X172850000Y-74100000D02*
X175450000Y-74100000D01*
X175450000Y-74100000D02*
X175450000Y-67600000D01*
X173100000Y-68800000D02*
X173100000Y-67600000D01*
X173100000Y-67600000D02*
X175450000Y-67600000D01*
X171150000Y-68800000D02*
X171150000Y-67600000D01*
X172600000Y-67100000D02*
X175950000Y-67100000D01*
X172850000Y-74850000D02*
X172850000Y-74100000D01*
%TD*%
%TO.P,R6,2*%
%TO.N,RST*%
%TA.AperFunction,SMDPad,CuDef*%
G36*
G01*
X170525000Y-78225000D02*
X171075000Y-78225000D01*
G75*
G02*
X171275000Y-78425000I0J-200000D01*
G01*
X171275000Y-78825000D01*
G75*
G02*
X171075000Y-79025000I-200000J0D01*
G01*
X170525000Y-79025000D01*
G75*
G02*
X170325000Y-78825000I0J200000D01*
G01*
X170325000Y-78425000D01*
G75*
G02*
X170525000Y-78225000I200000J0D01*
G01*
G37*
%TD.AperFunction*%
%TO.P,R6,1*%
%TO.N,Net-(R6-Pad1)*%
%TA.AperFunction,SMDPad,CuDef*%
G36*
G01*
X170525000Y-76575000D02*
X171075000Y-76575000D01*
G75*
G02*
X171275000Y-76775000I0J-200000D01*
G01*
X171275000Y-77175000D01*
G75*
G02*
X171075000Y-77375000I-200000J0D01*
G01*
X170525000Y-77375000D01*
G75*
G02*
X170325000Y-77175000I0J200000D01*
G01*
X170325000Y-76775000D01*
G75*
G02*
X170525000Y-76575000I200000J0D01*
G01*
G37*
%TD.AperFunction*%
%TD*%
%TO.P,R5,2*%
%TO.N,D+*%
%TA.AperFunction,SMDPad,CuDef*%
G36*
G01*
X183925000Y-74775000D02*
X183925000Y-74225000D01*
G75*
G02*
X184125000Y-74025000I200000J0D01*
G01*
X184525000Y-74025000D01*
G75*
G02*
X184725000Y-74225000I0J-200000D01*
G01*
X184725000Y-74775000D01*
G75*
G02*
X184525000Y-74975000I-200000J0D01*
G01*
X184125000Y-74975000D01*
G75*
G02*
X183925000Y-74775000I0J200000D01*
G01*
G37*
%TD.AperFunction*%
%TO.P,R5,1*%
%TO.N,Net-(J4-PadA6)*%
%TA.AperFunction,SMDPad,CuDef*%
G36*
G01*
X182275000Y-74775000D02*
X182275000Y-74225000D01*
G75*
G02*
X182475000Y-74025000I200000J0D01*
G01*
X182875000Y-74025000D01*
G75*
G02*
X183075000Y-74225000I0J-200000D01*
G01*
X183075000Y-74775000D01*
G75*
G02*
X182875000Y-74975000I-200000J0D01*
G01*
X182475000Y-74975000D01*
G75*
G02*
X182275000Y-74775000I0J200000D01*
G01*
G37*
%TD.AperFunction*%
%TD*%
%TO.P,R4,2*%
%TO.N,D-*%
%TA.AperFunction,SMDPad,CuDef*%
G36*
G01*
X183925000Y-73575000D02*
X183925000Y-73025000D01*
G75*
G02*
X184125000Y-72825000I200000J0D01*
G01*
X184525000Y-72825000D01*
G75*
G02*
X184725000Y-73025000I0J-200000D01*
G01*
X184725000Y-73575000D01*
G75*
G02*
X184525000Y-73775000I-200000J0D01*
G01*
X184125000Y-73775000D01*
G75*
G02*
X183925000Y-73575000I0J200000D01*
G01*
G37*
%TD.AperFunction*%
%TO.P,R4,1*%
%TO.N,Net-(J4-PadA7)*%
%TA.AperFunction,SMDPad,CuDef*%
G36*
G01*
X182275000Y-73575000D02*
X182275000Y-73025000D01*
G75*
G02*
X182475000Y-72825000I200000J0D01*
G01*
X182875000Y-72825000D01*
G75*
G02*
X183075000Y-73025000I0J-200000D01*
G01*
X183075000Y-73575000D01*
G75*
G02*
X182875000Y-73775000I-200000J0D01*
G01*
X182475000Y-73775000D01*
G75*
G02*
X182275000Y-73575000I0J200000D01*
G01*
G37*
%TD.AperFunction*%
%TD*%
%TO.P,R3,2*%
%TO.N,Net-(D1-Pad2)*%
%TA.AperFunction,SMDPad,CuDef*%
G36*
G01*
X171775000Y-64175000D02*
X171225000Y-64175000D01*
G75*
G02*
X171025000Y-63975000I0J200000D01*
G01*
X171025000Y-63575000D01*
G75*
G02*
X171225000Y-63375000I200000J0D01*
G01*
X171775000Y-63375000D01*
G75*
G02*
X171975000Y-63575000I0J-200000D01*
G01*
X171975000Y-63975000D01*
G75*
G02*
X171775000Y-64175000I-200000J0D01*
G01*
G37*
%TD.AperFunction*%
%TO.P,R3,1*%
%TO.N,+3V3*%
%TA.AperFunction,SMDPad,CuDef*%
G36*
G01*
X171775000Y-65825000D02*
X171225000Y-65825000D01*
G75*
G02*
X171025000Y-65625000I0J200000D01*
G01*
X171025000Y-65225000D01*
G75*
G02*
X171225000Y-65025000I200000J0D01*
G01*
X171775000Y-65025000D01*
G75*
G02*
X171975000Y-65225000I0J-200000D01*
G01*
X171975000Y-65625000D01*
G75*
G02*
X171775000Y-65825000I-200000J0D01*
G01*
G37*
%TD.AperFunction*%
%TD*%
%TO.P,R2,2*%
%TO.N,Net-(J4-PadB5)*%
%TA.AperFunction,SMDPad,CuDef*%
G36*
G01*
X180325000Y-80725000D02*
X180875000Y-80725000D01*
G75*
G02*
X181075000Y-80925000I0J-200000D01*
G01*
X181075000Y-81325000D01*
G75*
G02*
X180875000Y-81525000I-200000J0D01*
G01*
X180325000Y-81525000D01*
G75*
G02*
X180125000Y-81325000I0J200000D01*
G01*
X180125000Y-80925000D01*
G75*
G02*
X180325000Y-80725000I200000J0D01*
G01*
G37*
%TD.AperFunction*%
%TO.P,R2,1*%
%TO.N,GND*%
%TA.AperFunction,SMDPad,CuDef*%
G36*
G01*
X180325000Y-79075000D02*
X180875000Y-79075000D01*
G75*
G02*
X181075000Y-79275000I0J-200000D01*
G01*
X181075000Y-79675000D01*
G75*
G02*
X180875000Y-79875000I-200000J0D01*
G01*
X180325000Y-79875000D01*
G75*
G02*
X180125000Y-79675000I0J200000D01*
G01*
X180125000Y-79275000D01*
G75*
G02*
X180325000Y-79075000I200000J0D01*
G01*
G37*
%TD.AperFunction*%
%TD*%
%TO.P,R1,2*%
%TO.N,GND*%
%TA.AperFunction,SMDPad,CuDef*%
G36*
G01*
X170525000Y-80925000D02*
X171075000Y-80925000D01*
G75*
G02*
X171275000Y-81125000I0J-200000D01*
G01*
X171275000Y-81525000D01*
G75*
G02*
X171075000Y-81725000I-200000J0D01*
G01*
X170525000Y-81725000D01*
G75*
G02*
X170325000Y-81525000I0J200000D01*
G01*
X170325000Y-81125000D01*
G75*
G02*
X170525000Y-80925000I200000J0D01*
G01*
G37*
%TD.AperFunction*%
%TO.P,R1,1*%
%TO.N,Net-(J4-PadA5)*%
%TA.AperFunction,SMDPad,CuDef*%
G36*
G01*
X170525000Y-79275000D02*
X171075000Y-79275000D01*
G75*
G02*
X171275000Y-79475000I0J-200000D01*
G01*
X171275000Y-79875000D01*
G75*
G02*
X171075000Y-80075000I-200000J0D01*
G01*
X170525000Y-80075000D01*
G75*
G02*
X170325000Y-79875000I0J200000D01*
G01*
X170325000Y-79475000D01*
G75*
G02*
X170525000Y-79275000I200000J0D01*
G01*
G37*
%TD.AperFunction*%
%TD*%
%TO.P,C1,2*%
%TO.N,GND*%
%TA.AperFunction,SMDPad,CuDef*%
G36*
G01*
X184350000Y-63675000D02*
X183850000Y-63675000D01*
G75*
G02*
X183625000Y-63450000I0J225000D01*
G01*
X183625000Y-63000000D01*
G75*
G02*
X183850000Y-62775000I225000J0D01*
G01*
X184350000Y-62775000D01*
G75*
G02*
X184575000Y-63000000I0J-225000D01*
G01*
X184575000Y-63450000D01*
G75*
G02*
X184350000Y-63675000I-225000J0D01*
G01*
G37*
%TD.AperFunction*%
%TO.P,C1,1*%
%TO.N,Net-(C1-Pad1)*%
%TA.AperFunction,SMDPad,CuDef*%
G36*
G01*
X184350000Y-65225000D02*
X183850000Y-65225000D01*
G75*
G02*
X183625000Y-65000000I0J225000D01*
G01*
X183625000Y-64550000D01*
G75*
G02*
X183850000Y-64325000I225000J0D01*
G01*
X184350000Y-64325000D01*
G75*
G02*
X184575000Y-64550000I0J-225000D01*
G01*
X184575000Y-65000000D01*
G75*
G02*
X184350000Y-65225000I-225000J0D01*
G01*
G37*
%TD.AperFunction*%
%TD*%
%TO.P,D1,2*%
%TO.N,Net-(D1-Pad2)*%
%TA.AperFunction,SMDPad,CuDef*%
G36*
G01*
X171262500Y-61850000D02*
X171737500Y-61850000D01*
G75*
G02*
X171975000Y-62087500I0J-237500D01*
G01*
X171975000Y-62662500D01*
G75*
G02*
X171737500Y-62900000I-237500J0D01*
G01*
X171262500Y-62900000D01*
G75*
G02*
X171025000Y-62662500I0J237500D01*
G01*
X171025000Y-62087500D01*
G75*
G02*
X171262500Y-61850000I237500J0D01*
G01*
G37*
%TD.AperFunction*%
%TO.P,D1,1*%
%TO.N,Net-(D1-Pad1)*%
%TA.AperFunction,SMDPad,CuDef*%
G36*
G01*
X171262500Y-60100000D02*
X171737500Y-60100000D01*
G75*
G02*
X171975000Y-60337500I0J-237500D01*
G01*
X171975000Y-60912500D01*
G75*
G02*
X171737500Y-61150000I-237500J0D01*
G01*
X171262500Y-61150000D01*
G75*
G02*
X171025000Y-60912500I0J237500D01*
G01*
X171025000Y-60337500D01*
G75*
G02*
X171262500Y-60100000I237500J0D01*
G01*
G37*
%TD.AperFunction*%
%TD*%
D12*
%TO.P,Reg1,4*%
%TO.N,+3V3*%
X176900000Y-70800000D03*
%TA.AperFunction,SMDPad,CuDef*%
G36*
G01*
X176315165Y-74488388D02*
X176138388Y-74665165D01*
G75*
G02*
X175961612Y-74665165I-88388J88388D01*
G01*
X175784835Y-74488388D01*
G75*
G02*
X175784835Y-74311612I88388J88388D01*
G01*
X175961612Y-74134835D01*
G75*
G02*
X176138388Y-74134835I88388J-88388D01*
G01*
X176315165Y-74311612D01*
G75*
G02*
X176315165Y-74488388I-88388J-88388D01*
G01*
G37*
%TD.AperFunction*%
%TA.AperFunction,SMDPad,CuDef*%
G36*
G01*
X175850000Y-74375000D02*
X175850000Y-74125000D01*
G75*
G02*
X175975000Y-74000000I125000J0D01*
G01*
X176225000Y-74000000D01*
G75*
G02*
X176350000Y-74125000I0J-125000D01*
G01*
X176350000Y-74375000D01*
G75*
G02*
X176225000Y-74500000I-125000J0D01*
G01*
X175975000Y-74500000D01*
G75*
G02*
X175850000Y-74375000I0J125000D01*
G01*
G37*
%TD.AperFunction*%
%TA.AperFunction,SMDPad,CuDef*%
D13*
G36*
X176330330Y-74473223D02*
G01*
X175623223Y-75180330D01*
X175269670Y-74826777D01*
X175976777Y-74119670D01*
X176330330Y-74473223D01*
G37*
%TD.AperFunction*%
%TO.P,Reg1,2*%
%TO.N,VBUS*%
%TA.AperFunction,SMDPad,CuDef*%
G36*
G01*
X171850000Y-72425000D02*
X171850000Y-72175000D01*
G75*
G02*
X171975000Y-72050000I125000J0D01*
G01*
X172225000Y-72050000D01*
G75*
G02*
X172350000Y-72175000I0J-125000D01*
G01*
X172350000Y-72425000D01*
G75*
G02*
X172225000Y-72550000I-125000J0D01*
G01*
X171975000Y-72550000D01*
G75*
G02*
X171850000Y-72425000I0J125000D01*
G01*
G37*
%TD.AperFunction*%
%TA.AperFunction,SMDPad,CuDef*%
G36*
G01*
X172315165Y-72538388D02*
X172138388Y-72715165D01*
G75*
G02*
X171961612Y-72715165I-88388J88388D01*
G01*
X171784835Y-72538388D01*
G75*
G02*
X171784835Y-72361612I88388J88388D01*
G01*
X171961612Y-72184835D01*
G75*
G02*
X172138388Y-72184835I88388J-88388D01*
G01*
X172315165Y-72361612D01*
G75*
G02*
X172315165Y-72538388I-88388J-88388D01*
G01*
G37*
%TD.AperFunction*%
D14*
X172100000Y-71950000D03*
%TA.AperFunction,SMDPad,CuDef*%
D13*
G36*
X172280330Y-72573223D02*
G01*
X171573223Y-73280330D01*
X171219670Y-72926777D01*
X171926777Y-72219670D01*
X172280330Y-72573223D01*
G37*
%TD.AperFunction*%
D14*
%TO.P,Reg1,3*%
%TO.N,GND*%
X177350000Y-74450000D03*
X177350000Y-73600000D03*
X172100000Y-69350000D03*
D15*
X172100000Y-69950000D03*
D14*
X177350000Y-74100000D03*
%TO.P,Reg1,4*%
%TO.N,+3V3*%
%TA.AperFunction,SMDPad,CuDef*%
G36*
G01*
X175850000Y-70925000D02*
X175850000Y-70675000D01*
G75*
G02*
X175975000Y-70550000I125000J0D01*
G01*
X176225000Y-70550000D01*
G75*
G02*
X176350000Y-70675000I0J-125000D01*
G01*
X176350000Y-70925000D01*
G75*
G02*
X176225000Y-71050000I-125000J0D01*
G01*
X175975000Y-71050000D01*
G75*
G02*
X175850000Y-70925000I0J125000D01*
G01*
G37*
%TD.AperFunction*%
D12*
X176500000Y-70800000D03*
D16*
X176100000Y-72500000D03*
%TO.P,Reg1,~*%
%TO.N,N/C*%
%TA.AperFunction,SMDPad,CuDef*%
G36*
G01*
X173650000Y-73475626D02*
X173650000Y-72224374D01*
G75*
G02*
X173899374Y-71975000I249374J0D01*
G01*
X174825626Y-71975000D01*
G75*
G02*
X175075000Y-72224374I0J-249374D01*
G01*
X175075000Y-73475626D01*
G75*
G02*
X174825626Y-73725000I-249374J0D01*
G01*
X173899374Y-73725000D01*
G75*
G02*
X173650000Y-73475626I0J249374D01*
G01*
G37*
%TD.AperFunction*%
%TO.P,Reg1,3*%
%TO.N,GND*%
%TA.AperFunction,SMDPad,CuDef*%
G36*
G01*
X176625000Y-73475626D02*
X176625000Y-72224374D01*
G75*
G02*
X176874374Y-71975000I249374J0D01*
G01*
X177800626Y-71975000D01*
G75*
G02*
X178050000Y-72224374I0J-249374D01*
G01*
X178050000Y-73475626D01*
G75*
G02*
X177800626Y-73725000I-249374J0D01*
G01*
X176874374Y-73725000D01*
G75*
G02*
X176625000Y-73475626I0J249374D01*
G01*
G37*
%TD.AperFunction*%
D17*
X172100000Y-70100000D03*
D15*
X172100000Y-69700000D03*
D18*
%TO.P,Reg1,4*%
%TO.N,+3V3*%
X177350000Y-69850000D03*
%TO.P,Reg1,~*%
%TO.N,N/C*%
X174350000Y-69850000D03*
%TO.P,Reg1,3*%
%TO.N,GND*%
%TA.AperFunction,SMDPad,CuDef*%
G36*
G01*
X176800000Y-75550450D02*
X176800000Y-74649550D01*
G75*
G02*
X177049550Y-74400000I249550J0D01*
G01*
X177700450Y-74400000D01*
G75*
G02*
X177950000Y-74649550I0J-249550D01*
G01*
X177950000Y-75550450D01*
G75*
G02*
X177700450Y-75800000I-249550J0D01*
G01*
X177049550Y-75800000D01*
G75*
G02*
X176800000Y-75550450I0J249550D01*
G01*
G37*
%TD.AperFunction*%
%TO.P,Reg1,4*%
%TO.N,+3V3*%
%TA.AperFunction,SMDPad,CuDef*%
G36*
G01*
X174750000Y-75550450D02*
X174750000Y-74649550D01*
G75*
G02*
X174999550Y-74400000I249550J0D01*
G01*
X175650450Y-74400000D01*
G75*
G02*
X175900000Y-74649550I0J-249550D01*
G01*
X175900000Y-75550450D01*
G75*
G02*
X175650450Y-75800000I-249550J0D01*
G01*
X174999550Y-75800000D01*
G75*
G02*
X174750000Y-75550450I0J249550D01*
G01*
G37*
%TD.AperFunction*%
%TO.P,Reg1,3*%
%TO.N,GND*%
%TA.AperFunction,SMDPad,CuDef*%
G36*
G01*
X171837500Y-75500000D02*
X171362500Y-75500000D01*
G75*
G02*
X171125000Y-75262500I0J237500D01*
G01*
X171125000Y-74662500D01*
G75*
G02*
X171362500Y-74425000I237500J0D01*
G01*
X171837500Y-74425000D01*
G75*
G02*
X172075000Y-74662500I0J-237500D01*
G01*
X172075000Y-75262500D01*
G75*
G02*
X171837500Y-75500000I-237500J0D01*
G01*
G37*
%TD.AperFunction*%
%TO.P,Reg1,2*%
%TO.N,VBUS*%
%TA.AperFunction,SMDPad,CuDef*%
G36*
G01*
X171837500Y-73775000D02*
X171362500Y-73775000D01*
G75*
G02*
X171125000Y-73537500I0J237500D01*
G01*
X171125000Y-72937500D01*
G75*
G02*
X171362500Y-72700000I237500J0D01*
G01*
X171837500Y-72700000D01*
G75*
G02*
X172075000Y-72937500I0J-237500D01*
G01*
X172075000Y-73537500D01*
G75*
G02*
X171837500Y-73775000I-237500J0D01*
G01*
G37*
%TD.AperFunction*%
%TO.P,Reg1,~*%
%TO.N,N/C*%
%TA.AperFunction,SMDPad,CuDef*%
G36*
G01*
X173087500Y-75500000D02*
X172612500Y-75500000D01*
G75*
G02*
X172375000Y-75262500I0J237500D01*
G01*
X172375000Y-74662500D01*
G75*
G02*
X172612500Y-74425000I237500J0D01*
G01*
X173087500Y-74425000D01*
G75*
G02*
X173325000Y-74662500I0J-237500D01*
G01*
X173325000Y-75262500D01*
G75*
G02*
X173087500Y-75500000I-237500J0D01*
G01*
G37*
%TD.AperFunction*%
%TA.AperFunction,SMDPad,CuDef*%
G36*
G01*
X173087500Y-73775000D02*
X172612500Y-73775000D01*
G75*
G02*
X172375000Y-73537500I0J237500D01*
G01*
X172375000Y-72937500D01*
G75*
G02*
X172612500Y-72700000I237500J0D01*
G01*
X173087500Y-72700000D01*
G75*
G02*
X173325000Y-72937500I0J-237500D01*
G01*
X173325000Y-73537500D01*
G75*
G02*
X173087500Y-73775000I-237500J0D01*
G01*
G37*
%TD.AperFunction*%
D19*
%TO.P,Reg1,1*%
%TO.N,VBUS*%
X171150000Y-71450000D03*
%TO.P,Reg1,2*%
X172100000Y-71450000D03*
%TO.P,Reg1,~*%
%TO.N,N/C*%
X173050000Y-71450000D03*
X173050000Y-68750000D03*
X171150000Y-68750000D03*
%TO.P,Reg1,3*%
%TO.N,GND*%
X172100000Y-68750000D03*
%TD*%
D20*
%TO.P,U2,1*%
%TO.N,Net-(R6-Pad1)*%
X172800000Y-77430000D03*
%TO.P,U2,2*%
%TO.N,GND*%
X172800000Y-79970000D03*
%TO.P,U2,3*%
%TO.N,Net-(J1-Pad3)*%
X178800000Y-79970000D03*
%TO.P,U2,4*%
%TO.N,+3V3*%
X178800000Y-77430000D03*
%TD*%
D21*
%TO.P,J3,6*%
%TO.N,TXD*%
X174150000Y-62500000D03*
%TO.P,J3,5*%
%TO.N,RXD*%
X175420000Y-62500000D03*
%TO.P,J3,4*%
%TO.N,+3V3*%
X176690000Y-62500000D03*
%TO.P,J3,3*%
%TO.N,RST*%
X177960000Y-62500000D03*
%TO.P,J3,2*%
%TO.N,GPIO0*%
X179230000Y-62500000D03*
D22*
%TO.P,J3,1*%
%TO.N,GND*%
X180500000Y-62500000D03*
%TD*%
D23*
%TO.P,J4,S1*%
%TO.N,GND*%
X180020000Y-83580000D03*
X171970000Y-83570000D03*
X178890000Y-83560000D03*
X178890000Y-83430000D03*
X173100000Y-83560000D03*
X173100000Y-83410000D03*
D24*
X172390000Y-86920000D03*
%TA.AperFunction,SMDPad,CuDef*%
D13*
G36*
X179323934Y-82312513D02*
G01*
X179677487Y-82666066D01*
X179536066Y-82807487D01*
X179182513Y-82453934D01*
X179323934Y-82312513D01*
G37*
%TD.AperFunction*%
%TA.AperFunction,SMDPad,CuDef*%
G36*
X172797487Y-82513934D02*
G01*
X172443934Y-82867487D01*
X172302513Y-82726066D01*
X172656066Y-82372513D01*
X172797487Y-82513934D01*
G37*
%TD.AperFunction*%
D24*
X179620000Y-86920000D03*
D25*
X176000000Y-86255000D03*
D26*
%TO.P,J4,A12*%
X179200000Y-82140000D03*
%TO.P,J4,A4*%
%TO.N,VBUS*%
X173600000Y-82140000D03*
%TO.P,J4,B12*%
%TO.N,GND*%
X172800000Y-82140000D03*
%TO.P,J4,B4*%
%TO.N,VBUS*%
X178400000Y-82140000D03*
D27*
%TO.P,J4,S1*%
%TO.N,GND*%
X180325000Y-86910000D03*
X171675000Y-86910000D03*
D28*
X180325000Y-82730000D03*
X171675000Y-82730000D03*
D29*
%TO.P,J4,A7*%
%TO.N,Net-(J4-PadA7)*%
X176250000Y-82140000D03*
%TO.P,J4,A6*%
%TO.N,Net-(J4-PadA6)*%
X175750000Y-82140000D03*
%TO.P,J4,B6*%
X176750000Y-82140000D03*
%TO.P,J4,B7*%
%TO.N,Net-(J4-PadA7)*%
X175250000Y-82140000D03*
%TO.P,J4,A8*%
%TO.N,Net-(J4-PadA8)*%
X177250000Y-82140000D03*
%TO.P,J4,A5*%
%TO.N,Net-(J4-PadA5)*%
X174750000Y-82140000D03*
%TO.P,J4,B5*%
%TO.N,Net-(J4-PadB5)*%
X177750000Y-82140000D03*
%TO.P,J4,B8*%
%TO.N,Net-(J4-PadB8)*%
X174250000Y-82140000D03*
D26*
%TO.P,J4,A9*%
%TO.N,VBUS*%
X178400000Y-82140000D03*
%TO.P,J4,B9*%
X173600000Y-82140000D03*
%TO.P,J4,B1*%
%TO.N,GND*%
X179200000Y-82140000D03*
D30*
%TO.P,J4,S1*%
X178890000Y-83210000D03*
X173110000Y-83210000D03*
D26*
%TO.P,J4,A1*%
X172800000Y-82140000D03*
%TD*%
%TA.AperFunction,SMDPad,CuDef*%
D13*
%TO.P,U1,21*%
%TO.N,GND*%
G36*
X182649887Y-69700203D02*
G01*
X180899797Y-67950113D01*
X181150113Y-67699797D01*
X182900203Y-69449887D01*
X182649887Y-69700203D01*
G37*
%TD.AperFunction*%
D31*
X181900000Y-68575000D03*
D32*
X181900000Y-68700000D03*
D33*
%TO.P,U1,~*%
%TO.N,N/C*%
X183900000Y-70700000D03*
X179900000Y-66700000D03*
X183900000Y-66700000D03*
X179900000Y-70700000D03*
D34*
X183900000Y-70700000D03*
D35*
%TO.P,U1,21*%
%TO.N,GND*%
X181775000Y-68700000D03*
%TO.P,U1,20*%
%TO.N,Net-(C1-Pad1)*%
%TA.AperFunction,SMDPad,CuDef*%
G36*
G01*
X183025000Y-70262500D02*
X183025000Y-71137500D01*
G75*
G02*
X182962500Y-71200000I-62500J0D01*
G01*
X182837500Y-71200000D01*
G75*
G02*
X182775000Y-71137500I0J62500D01*
G01*
X182775000Y-70262500D01*
G75*
G02*
X182837500Y-70200000I62500J0D01*
G01*
X182962500Y-70200000D01*
G75*
G02*
X183025000Y-70262500I0J-62500D01*
G01*
G37*
%TD.AperFunction*%
%TO.P,U1,19*%
%TO.N,RST*%
%TA.AperFunction,SMDPad,CuDef*%
G36*
G01*
X182525000Y-70262500D02*
X182525000Y-71137500D01*
G75*
G02*
X182462500Y-71200000I-62500J0D01*
G01*
X182337500Y-71200000D01*
G75*
G02*
X182275000Y-71137500I0J62500D01*
G01*
X182275000Y-70262500D01*
G75*
G02*
X182337500Y-70200000I62500J0D01*
G01*
X182462500Y-70200000D01*
G75*
G02*
X182525000Y-70262500I0J-62500D01*
G01*
G37*
%TD.AperFunction*%
%TO.P,U1,18*%
%TO.N,GPIO0*%
%TA.AperFunction,SMDPad,CuDef*%
G36*
G01*
X182025000Y-70262500D02*
X182025000Y-71137500D01*
G75*
G02*
X181962500Y-71200000I-62500J0D01*
G01*
X181837500Y-71200000D01*
G75*
G02*
X181775000Y-71137500I0J62500D01*
G01*
X181775000Y-70262500D01*
G75*
G02*
X181837500Y-70200000I62500J0D01*
G01*
X181962500Y-70200000D01*
G75*
G02*
X182025000Y-70262500I0J-62500D01*
G01*
G37*
%TD.AperFunction*%
%TO.P,U1,17*%
%TO.N,RXD*%
%TA.AperFunction,SMDPad,CuDef*%
G36*
G01*
X181525000Y-70262500D02*
X181525000Y-71137500D01*
G75*
G02*
X181462500Y-71200000I-62500J0D01*
G01*
X181337500Y-71200000D01*
G75*
G02*
X181275000Y-71137500I0J62500D01*
G01*
X181275000Y-70262500D01*
G75*
G02*
X181337500Y-70200000I62500J0D01*
G01*
X181462500Y-70200000D01*
G75*
G02*
X181525000Y-70262500I0J-62500D01*
G01*
G37*
%TD.AperFunction*%
%TO.P,U1,16*%
%TO.N,Net-(U1-Pad16)*%
%TA.AperFunction,SMDPad,CuDef*%
G36*
G01*
X181025000Y-70262500D02*
X181025000Y-71137500D01*
G75*
G02*
X180962500Y-71200000I-62500J0D01*
G01*
X180837500Y-71200000D01*
G75*
G02*
X180775000Y-71137500I0J62500D01*
G01*
X180775000Y-70262500D01*
G75*
G02*
X180837500Y-70200000I62500J0D01*
G01*
X180962500Y-70200000D01*
G75*
G02*
X181025000Y-70262500I0J-62500D01*
G01*
G37*
%TD.AperFunction*%
%TO.P,U1,15*%
%TO.N,Net-(D1-Pad1)*%
%TA.AperFunction,SMDPad,CuDef*%
G36*
G01*
X180400000Y-69637500D02*
X180400000Y-69762500D01*
G75*
G02*
X180337500Y-69825000I-62500J0D01*
G01*
X179462500Y-69825000D01*
G75*
G02*
X179400000Y-69762500I0J62500D01*
G01*
X179400000Y-69637500D01*
G75*
G02*
X179462500Y-69575000I62500J0D01*
G01*
X180337500Y-69575000D01*
G75*
G02*
X180400000Y-69637500I0J-62500D01*
G01*
G37*
%TD.AperFunction*%
%TO.P,U1,14*%
%TO.N,Net-(U1-Pad14)*%
%TA.AperFunction,SMDPad,CuDef*%
G36*
G01*
X180400000Y-69137500D02*
X180400000Y-69262500D01*
G75*
G02*
X180337500Y-69325000I-62500J0D01*
G01*
X179462500Y-69325000D01*
G75*
G02*
X179400000Y-69262500I0J62500D01*
G01*
X179400000Y-69137500D01*
G75*
G02*
X179462500Y-69075000I62500J0D01*
G01*
X180337500Y-69075000D01*
G75*
G02*
X180400000Y-69137500I0J-62500D01*
G01*
G37*
%TD.AperFunction*%
%TO.P,U1,13*%
%TO.N,GND*%
%TA.AperFunction,SMDPad,CuDef*%
G36*
G01*
X180400000Y-68637500D02*
X180400000Y-68762500D01*
G75*
G02*
X180337500Y-68825000I-62500J0D01*
G01*
X179462500Y-68825000D01*
G75*
G02*
X179400000Y-68762500I0J62500D01*
G01*
X179400000Y-68637500D01*
G75*
G02*
X179462500Y-68575000I62500J0D01*
G01*
X180337500Y-68575000D01*
G75*
G02*
X180400000Y-68637500I0J-62500D01*
G01*
G37*
%TD.AperFunction*%
%TO.P,U1,12*%
%TO.N,VBUS*%
%TA.AperFunction,SMDPad,CuDef*%
G36*
G01*
X180400000Y-68137500D02*
X180400000Y-68262500D01*
G75*
G02*
X180337500Y-68325000I-62500J0D01*
G01*
X179462500Y-68325000D01*
G75*
G02*
X179400000Y-68262500I0J62500D01*
G01*
X179400000Y-68137500D01*
G75*
G02*
X179462500Y-68075000I62500J0D01*
G01*
X180337500Y-68075000D01*
G75*
G02*
X180400000Y-68137500I0J-62500D01*
G01*
G37*
%TD.AperFunction*%
%TO.P,U1,11*%
%TO.N,Net-(C1-Pad1)*%
%TA.AperFunction,SMDPad,CuDef*%
G36*
G01*
X180400000Y-67637500D02*
X180400000Y-67762500D01*
G75*
G02*
X180337500Y-67825000I-62500J0D01*
G01*
X179462500Y-67825000D01*
G75*
G02*
X179400000Y-67762500I0J62500D01*
G01*
X179400000Y-67637500D01*
G75*
G02*
X179462500Y-67575000I62500J0D01*
G01*
X180337500Y-67575000D01*
G75*
G02*
X180400000Y-67637500I0J-62500D01*
G01*
G37*
%TD.AperFunction*%
%TO.P,U1,10*%
%TA.AperFunction,SMDPad,CuDef*%
G36*
G01*
X181025000Y-66262500D02*
X181025000Y-67137500D01*
G75*
G02*
X180962500Y-67200000I-62500J0D01*
G01*
X180837500Y-67200000D01*
G75*
G02*
X180775000Y-67137500I0J62500D01*
G01*
X180775000Y-66262500D01*
G75*
G02*
X180837500Y-66200000I62500J0D01*
G01*
X180962500Y-66200000D01*
G75*
G02*
X181025000Y-66262500I0J-62500D01*
G01*
G37*
%TD.AperFunction*%
%TO.P,U1,9*%
%TO.N,D-*%
%TA.AperFunction,SMDPad,CuDef*%
G36*
G01*
X181525000Y-66262500D02*
X181525000Y-67137500D01*
G75*
G02*
X181462500Y-67200000I-62500J0D01*
G01*
X181337500Y-67200000D01*
G75*
G02*
X181275000Y-67137500I0J62500D01*
G01*
X181275000Y-66262500D01*
G75*
G02*
X181337500Y-66200000I62500J0D01*
G01*
X181462500Y-66200000D01*
G75*
G02*
X181525000Y-66262500I0J-62500D01*
G01*
G37*
%TD.AperFunction*%
%TO.P,U1,8*%
%TO.N,D+*%
%TA.AperFunction,SMDPad,CuDef*%
G36*
G01*
X182025000Y-66262500D02*
X182025000Y-67137500D01*
G75*
G02*
X181962500Y-67200000I-62500J0D01*
G01*
X181837500Y-67200000D01*
G75*
G02*
X181775000Y-67137500I0J62500D01*
G01*
X181775000Y-66262500D01*
G75*
G02*
X181837500Y-66200000I62500J0D01*
G01*
X181962500Y-66200000D01*
G75*
G02*
X182025000Y-66262500I0J-62500D01*
G01*
G37*
%TD.AperFunction*%
%TO.P,U1,7*%
%TO.N,Net-(U1-Pad7)*%
%TA.AperFunction,SMDPad,CuDef*%
G36*
G01*
X182525000Y-66262500D02*
X182525000Y-67137500D01*
G75*
G02*
X182462500Y-67200000I-62500J0D01*
G01*
X182337500Y-67200000D01*
G75*
G02*
X182275000Y-67137500I0J62500D01*
G01*
X182275000Y-66262500D01*
G75*
G02*
X182337500Y-66200000I62500J0D01*
G01*
X182462500Y-66200000D01*
G75*
G02*
X182525000Y-66262500I0J-62500D01*
G01*
G37*
%TD.AperFunction*%
%TO.P,U1,6*%
%TO.N,GND*%
%TA.AperFunction,SMDPad,CuDef*%
G36*
G01*
X183025000Y-66262500D02*
X183025000Y-67137500D01*
G75*
G02*
X182962500Y-67200000I-62500J0D01*
G01*
X182837500Y-67200000D01*
G75*
G02*
X182775000Y-67137500I0J62500D01*
G01*
X182775000Y-66262500D01*
G75*
G02*
X182837500Y-66200000I62500J0D01*
G01*
X182962500Y-66200000D01*
G75*
G02*
X183025000Y-66262500I0J-62500D01*
G01*
G37*
%TD.AperFunction*%
%TO.P,U1,5*%
%TA.AperFunction,SMDPad,CuDef*%
G36*
G01*
X184400000Y-67637500D02*
X184400000Y-67762500D01*
G75*
G02*
X184337500Y-67825000I-62500J0D01*
G01*
X183462500Y-67825000D01*
G75*
G02*
X183400000Y-67762500I0J62500D01*
G01*
X183400000Y-67637500D01*
G75*
G02*
X183462500Y-67575000I62500J0D01*
G01*
X184337500Y-67575000D01*
G75*
G02*
X184400000Y-67637500I0J-62500D01*
G01*
G37*
%TD.AperFunction*%
%TO.P,U1,4*%
%TA.AperFunction,SMDPad,CuDef*%
G36*
G01*
X184400000Y-68137500D02*
X184400000Y-68262500D01*
G75*
G02*
X184337500Y-68325000I-62500J0D01*
G01*
X183462500Y-68325000D01*
G75*
G02*
X183400000Y-68262500I0J62500D01*
G01*
X183400000Y-68137500D01*
G75*
G02*
X183462500Y-68075000I62500J0D01*
G01*
X184337500Y-68075000D01*
G75*
G02*
X184400000Y-68137500I0J-62500D01*
G01*
G37*
%TD.AperFunction*%
%TO.P,U1,3*%
%TA.AperFunction,SMDPad,CuDef*%
G36*
G01*
X184400000Y-68637500D02*
X184400000Y-68762500D01*
G75*
G02*
X184337500Y-68825000I-62500J0D01*
G01*
X183462500Y-68825000D01*
G75*
G02*
X183400000Y-68762500I0J62500D01*
G01*
X183400000Y-68637500D01*
G75*
G02*
X183462500Y-68575000I62500J0D01*
G01*
X184337500Y-68575000D01*
G75*
G02*
X184400000Y-68637500I0J-62500D01*
G01*
G37*
%TD.AperFunction*%
%TO.P,U1,2*%
%TA.AperFunction,SMDPad,CuDef*%
G36*
G01*
X184400000Y-69137500D02*
X184400000Y-69262500D01*
G75*
G02*
X184337500Y-69325000I-62500J0D01*
G01*
X183462500Y-69325000D01*
G75*
G02*
X183400000Y-69262500I0J62500D01*
G01*
X183400000Y-69137500D01*
G75*
G02*
X183462500Y-69075000I62500J0D01*
G01*
X184337500Y-69075000D01*
G75*
G02*
X184400000Y-69137500I0J-62500D01*
G01*
G37*
%TD.AperFunction*%
%TO.P,U1,1*%
%TO.N,TXD*%
%TA.AperFunction,SMDPad,CuDef*%
G36*
G01*
X184400000Y-69637500D02*
X184400000Y-69762500D01*
G75*
G02*
X184337500Y-69825000I-62500J0D01*
G01*
X183462500Y-69825000D01*
G75*
G02*
X183400000Y-69762500I0J62500D01*
G01*
X183400000Y-69637500D01*
G75*
G02*
X183462500Y-69575000I62500J0D01*
G01*
X184337500Y-69575000D01*
G75*
G02*
X184400000Y-69637500I0J-62500D01*
G01*
G37*
%TD.AperFunction*%
%TD*%
D21*
%TO.P,J2,6*%
%TO.N,TXD*%
X174150000Y-60630000D03*
%TO.P,J2,5*%
%TO.N,RXD*%
X175420000Y-60630000D03*
%TO.P,J2,4*%
%TO.N,+3V3*%
X176690000Y-60630000D03*
%TO.P,J2,3*%
%TO.N,RST*%
X177960000Y-60630000D03*
%TO.P,J2,2*%
%TO.N,GPIO0*%
X179230000Y-60630000D03*
D22*
%TO.P,J2,1*%
%TO.N,GND*%
X180500000Y-60630000D03*
%TD*%
D36*
%TO.P,J1,5*%
%TO.N,TXD*%
X183000000Y-76840000D03*
%TO.P,J1,4*%
%TO.N,RXD*%
X183000000Y-79380000D03*
%TO.P,J1,3*%
%TO.N,Net-(J1-Pad3)*%
X183000000Y-81920000D03*
%TO.P,J1,2*%
%TO.N,GPIO0*%
X183000000Y-84460000D03*
D37*
%TO.P,J1,1*%
%TO.N,GND*%
X183000000Y-87000000D03*
%TD*%
D38*
%TO.N,D-*%
X184350000Y-72400000D03*
%TO.N,GND*%
X173830985Y-79330022D03*
X173500000Y-76200000D03*
X179774968Y-76560551D03*
X181900000Y-75600000D03*
X180722861Y-78731149D03*
%TO.N,VBUS*%
X176603860Y-66075425D03*
X172453519Y-80971800D03*
X171876964Y-76347793D03*
%TO.N,RXD*%
X178500000Y-70000000D03*
X178700000Y-75979997D03*
X181509882Y-78114204D03*
%TO.N,GPIO0*%
X179525010Y-73300000D03*
%TO.N,RST*%
X174600000Y-76600000D03*
X180129980Y-74651342D03*
%TO.N,D-*%
X182125010Y-65108796D03*
%TO.N,D+*%
X184312161Y-75387839D03*
X183023173Y-65548486D03*
%TO.N,Net-(C1-Pad1)*%
X180374990Y-64715738D03*
X181099156Y-73500835D03*
%TO.N,Net-(J4-PadA7)*%
X175350012Y-79121600D03*
X176829062Y-79275233D03*
%TO.N,Net-(D1-Pad1)*%
X178597241Y-68528961D03*
X175100000Y-64000000D03*
%TD*%
D39*
%TO.N,GND*%
X182900000Y-67575000D02*
X181775000Y-68700000D01*
X182900000Y-66700000D02*
X182900000Y-67575000D01*
X182775000Y-67700000D02*
X181775000Y-68700000D01*
X183900000Y-67700000D02*
X182775000Y-67700000D01*
X182400000Y-68200000D02*
X181900000Y-68700000D01*
X183900000Y-68200000D02*
X182400000Y-68200000D01*
X183900000Y-68700000D02*
X181775000Y-68700000D01*
X182400000Y-69200000D02*
X181900000Y-68700000D01*
X183900000Y-69200000D02*
X182400000Y-69200000D01*
X181775000Y-68700000D02*
X181900000Y-68575000D01*
X179900000Y-68700000D02*
X181775000Y-68700000D01*
X170800000Y-81855000D02*
X171675000Y-82730000D01*
X170800000Y-81325000D02*
X170800000Y-81855000D01*
%TO.N,VBUS*%
X173600000Y-82795002D02*
X173600000Y-82140000D01*
X173839999Y-83035001D02*
X173600000Y-82795002D01*
X178160001Y-83035001D02*
X173839999Y-83035001D01*
X178400000Y-82795002D02*
X178160001Y-83035001D01*
X178400000Y-82140000D02*
X178400000Y-82795002D01*
%TO.N,+3V3*%
X176955000Y-77430000D02*
X178800000Y-77430000D01*
%TO.N,Net-(C1-Pad1)*%
X184100000Y-64775000D02*
X183775000Y-64775000D01*
X183775000Y-64775000D02*
X183300000Y-64300000D01*
X183300000Y-64300000D02*
X181200000Y-64300000D01*
X181200000Y-64300000D02*
X180900000Y-64600000D01*
X180900000Y-66700000D02*
X179900000Y-67700000D01*
%TO.N,Net-(J4-PadA6)*%
X177600000Y-80470000D02*
X176750000Y-81320000D01*
X177600000Y-79363611D02*
X177600000Y-80470000D01*
X176750000Y-81320000D02*
X176750000Y-82140000D01*
%TO.N,GND*%
X180600000Y-79475000D02*
X180600000Y-79800000D01*
D40*
X180325000Y-86910000D02*
X181815000Y-88400000D01*
X181815000Y-88400000D02*
X184299285Y-88400000D01*
X184299285Y-88400000D02*
X184300001Y-88399284D01*
X184300001Y-78200001D02*
X183600001Y-78200001D01*
X184300001Y-78200001D02*
X184300001Y-76600001D01*
X184300001Y-80599999D02*
X183800001Y-80599999D01*
X184300001Y-80599999D02*
X184300001Y-78200001D01*
X184300001Y-83200001D02*
X183700001Y-83200001D01*
X184300001Y-88399284D02*
X184300001Y-83200001D01*
X184300001Y-83200001D02*
X184300001Y-80599999D01*
D39*
X172523201Y-80246799D02*
X172800000Y-79970000D01*
X172105518Y-80246799D02*
X172523201Y-80246799D01*
X171027317Y-81325000D02*
X172105518Y-80246799D01*
X170800000Y-81325000D02*
X171027317Y-81325000D01*
X172800000Y-79970000D02*
X172930000Y-79970000D01*
X172930000Y-79970000D02*
X173499999Y-79400001D01*
X173499999Y-79400001D02*
X173600000Y-79400000D01*
X173669978Y-79330022D02*
X173830985Y-79330022D01*
X173600000Y-79400000D02*
X173669978Y-79330022D01*
X171600000Y-75045510D02*
X171600000Y-74962500D01*
X172754490Y-76200000D02*
X171600000Y-75045510D01*
X173500000Y-76200000D02*
X172754490Y-76200000D01*
X177375000Y-75948004D02*
X178131995Y-76704999D01*
X178131995Y-76704999D02*
X179630520Y-76704999D01*
X179630520Y-76704999D02*
X179774968Y-76560551D01*
X177375000Y-75100000D02*
X177375000Y-75948004D01*
X181800000Y-77312234D02*
X181800000Y-75700000D01*
X183600001Y-78200001D02*
X182687767Y-78200001D01*
X181800000Y-75700000D02*
X181900000Y-75600000D01*
X180600000Y-78854010D02*
X180722861Y-78731149D01*
X180600000Y-79475000D02*
X180600000Y-78854010D01*
X182687767Y-78200001D02*
X181800000Y-77312234D01*
X179570000Y-59700000D02*
X180500000Y-60630000D01*
X170700000Y-70100000D02*
X170500000Y-69900000D01*
X170500000Y-59700000D02*
X179570000Y-59700000D01*
X172100000Y-70100000D02*
X170700000Y-70100000D01*
X170500000Y-66700000D02*
X171400000Y-66700000D01*
X170500000Y-69900000D02*
X170500000Y-66700000D01*
X170500000Y-66700000D02*
X170500000Y-59700000D01*
%TO.N,VBUS*%
X171600000Y-71450000D02*
X172100000Y-71950000D01*
X171150000Y-71450000D02*
X171600000Y-71450000D01*
X179294120Y-68200000D02*
X177169545Y-66075425D01*
X177169545Y-66075425D02*
X176603860Y-66075425D01*
X179900000Y-68200000D02*
X179294120Y-68200000D01*
X173600000Y-81320000D02*
X173251800Y-80971800D01*
X173251800Y-80971800D02*
X172453519Y-80971800D01*
X173600000Y-82140000D02*
X173600000Y-81320000D01*
X171750000Y-72750000D02*
X170500000Y-74000000D01*
X170500000Y-74000000D02*
X170500000Y-75337260D01*
X170500000Y-75337260D02*
X171510533Y-76347793D01*
X171510533Y-76347793D02*
X171876964Y-76347793D01*
%TO.N,RXD*%
X179706008Y-71525010D02*
X178500000Y-70319002D01*
X178500000Y-70319002D02*
X178500000Y-70000000D01*
X181400000Y-71448292D02*
X181323282Y-71525010D01*
X181400000Y-70700000D02*
X181400000Y-71448292D01*
X181323282Y-71525010D02*
X179706008Y-71525010D01*
X178700000Y-75414312D02*
X178700000Y-75979997D01*
X178700000Y-72531018D02*
X178700000Y-75414312D01*
X179706008Y-71525010D02*
X178700000Y-72531018D01*
X183000000Y-79380000D02*
X181734204Y-78114204D01*
X181734204Y-78114204D02*
X181509882Y-78114204D01*
%TO.N,+3V3*%
X171500000Y-65425000D02*
X175025000Y-65425000D01*
X175325000Y-75800000D02*
X176955000Y-77430000D01*
X175325000Y-75100000D02*
X175325000Y-75800000D01*
X176690000Y-63760000D02*
X175025000Y-65425000D01*
X176690000Y-62500000D02*
X176690000Y-63760000D01*
X175025000Y-65425000D02*
X175025000Y-65523322D01*
X175025000Y-65523322D02*
X177350000Y-67848322D01*
X177350000Y-67848322D02*
X177350000Y-69850000D01*
%TO.N,GPIO0*%
X181900000Y-70700000D02*
X181900000Y-71584702D01*
X180849989Y-71975021D02*
X179525010Y-73300000D01*
X181900000Y-71584702D02*
X181509681Y-71975021D01*
X181509681Y-71975021D02*
X180849989Y-71975021D01*
%TO.N,TXD*%
X183900000Y-69700000D02*
X184600000Y-69700000D01*
X184600000Y-69700000D02*
X184600000Y-71300000D01*
X184600000Y-71300000D02*
X183922747Y-71300000D01*
X183922747Y-71300000D02*
X183520436Y-71702311D01*
X183520436Y-76319564D02*
X183000000Y-76840000D01*
X183520436Y-71702311D02*
X183520436Y-76319564D01*
%TO.N,RST*%
X174600000Y-77165685D02*
X174600000Y-76600000D01*
X170800000Y-78625000D02*
X171269999Y-78155001D01*
X171269999Y-78155001D02*
X173610684Y-78155001D01*
X173610684Y-78155001D02*
X174600000Y-77165685D01*
X182400000Y-70700000D02*
X182400000Y-71721112D01*
X182400000Y-71721112D02*
X181696080Y-72425032D01*
X180250011Y-73211409D02*
X180250011Y-74531311D01*
X181036388Y-72425032D02*
X180250011Y-73211409D01*
X181696080Y-72425032D02*
X181036388Y-72425032D01*
%TO.N,D-*%
X181400000Y-65833806D02*
X182125010Y-65108796D01*
X181400000Y-66700000D02*
X181400000Y-65833806D01*
X184350000Y-73275000D02*
X184325000Y-73300000D01*
X184350000Y-72400000D02*
X184350000Y-73275000D01*
%TO.N,D+*%
X184312161Y-74512839D02*
X184325000Y-74500000D01*
X184312161Y-75387839D02*
X184312161Y-74512839D01*
X182737862Y-65833797D02*
X183023173Y-65548486D01*
X181900000Y-66151978D02*
X182218181Y-65833797D01*
X182218181Y-65833797D02*
X182737862Y-65833797D01*
X181900000Y-66700000D02*
X181900000Y-66151978D01*
%TO.N,Net-(C1-Pad1)*%
X180900000Y-66000000D02*
X180900000Y-66700000D01*
X180900000Y-65200000D02*
X180900000Y-66000000D01*
X180900000Y-64600000D02*
X180900000Y-65200000D01*
X180415738Y-64715738D02*
X180374990Y-64715738D01*
X180900000Y-65200000D02*
X180415738Y-64715738D01*
X181256687Y-73500835D02*
X181099156Y-73500835D01*
X182900000Y-71857522D02*
X181256687Y-73500835D01*
X182900000Y-70700000D02*
X182900000Y-71857522D01*
%TO.N,Net-(J4-PadA7)*%
X176250000Y-80419980D02*
X176829062Y-79840918D01*
X176250000Y-82140000D02*
X176250000Y-80419980D01*
X175250000Y-82140000D02*
X175250000Y-79221612D01*
X175250000Y-79221612D02*
X175350012Y-79121600D01*
X176829062Y-79840918D02*
X176829062Y-79275233D01*
X177418245Y-78155001D02*
X177363464Y-78100220D01*
X177363464Y-78100220D02*
X175805707Y-78100220D01*
X180724987Y-75065598D02*
X180724987Y-77019608D01*
X182490585Y-73300000D02*
X180724987Y-75065598D01*
X175805707Y-78100220D02*
X175350012Y-78555915D01*
X179589594Y-78155001D02*
X177418245Y-78155001D01*
X182675000Y-73300000D02*
X182490585Y-73300000D01*
X175350012Y-78555915D02*
X175350012Y-79121600D01*
X180724987Y-77019608D02*
X179589594Y-78155001D01*
%TO.N,Net-(J4-PadA6)*%
X177177064Y-78550231D02*
X177600000Y-78973167D01*
X175750000Y-82140000D02*
X175750000Y-79794616D01*
X176481060Y-78550231D02*
X177177064Y-78550231D01*
X176104060Y-78927231D02*
X176481060Y-78550231D01*
X175750000Y-79794616D02*
X176104060Y-79440556D01*
X176104060Y-79440556D02*
X176104060Y-78927231D01*
X177600000Y-78973167D02*
X177600000Y-79363611D01*
X182675000Y-74500000D02*
X181926996Y-74500000D01*
X179781373Y-78605012D02*
X178358599Y-78605012D01*
X178358599Y-78605012D02*
X177600000Y-79363611D01*
X181174998Y-77211387D02*
X179781373Y-78605012D01*
X181174998Y-75251998D02*
X181174998Y-77211387D01*
X181926996Y-74500000D02*
X181174998Y-75251998D01*
%TO.N,Net-(J4-PadA5)*%
X174578016Y-79814408D02*
X174578016Y-78605012D01*
X174578016Y-78605012D02*
X172344988Y-78605012D01*
X174750000Y-82140000D02*
X174750000Y-79986392D01*
X174750000Y-79986392D02*
X174578016Y-79814408D01*
X171275000Y-79675000D02*
X170800000Y-79675000D01*
X172344988Y-78605012D02*
X171275000Y-79675000D01*
%TO.N,Net-(J4-PadB5)*%
X180375000Y-80900000D02*
X180600000Y-81125000D01*
X178170000Y-80900000D02*
X180375000Y-80900000D01*
X177750000Y-81320000D02*
X178170000Y-80900000D01*
X177750000Y-82140000D02*
X177750000Y-81320000D01*
%TO.N,Net-(D1-Pad2)*%
X171500000Y-62375000D02*
X171500000Y-63775000D01*
%TO.N,Net-(D1-Pad1)*%
X179074990Y-69423012D02*
X179074990Y-69006710D01*
X179351978Y-69700000D02*
X179074990Y-69423012D01*
X179900000Y-69700000D02*
X179351978Y-69700000D01*
X179074990Y-69006710D02*
X178597241Y-68528961D01*
X175100000Y-64000000D02*
X173100000Y-64000000D01*
X173100000Y-64000000D02*
X172500000Y-63400000D01*
X172500000Y-61625000D02*
X171500000Y-60625000D01*
X172500000Y-63400000D02*
X172500000Y-61625000D01*
%TO.N,Net-(J1-Pad3)*%
X181479990Y-80399990D02*
X183000000Y-81920000D01*
X179229990Y-80399990D02*
X181479990Y-80399990D01*
X178800000Y-79970000D02*
X179229990Y-80399990D01*
%TO.N,Net-(R6-Pad1)*%
X170800000Y-76975000D02*
X171255000Y-77430000D01*
X171255000Y-77430000D02*
X172800000Y-77430000D01*
%TD*%
D41*
%TO.N,GND*%
X183127000Y-86873000D02*
X183147000Y-86873000D01*
X183147000Y-87127000D01*
X183127000Y-87127000D01*
X183127000Y-87147000D01*
X182873000Y-87147000D01*
X182873000Y-87127000D01*
X182853000Y-87127000D01*
X182853000Y-86873000D01*
X182873000Y-86873000D01*
X182873000Y-86853000D01*
X183127000Y-86853000D01*
X183127000Y-86873000D01*
%TA.AperFunction,Conductor*%
D42*
G36*
X183127000Y-86873000D02*
G01*
X183147000Y-86873000D01*
X183147000Y-87127000D01*
X183127000Y-87127000D01*
X183127000Y-87147000D01*
X182873000Y-87147000D01*
X182873000Y-87127000D01*
X182853000Y-87127000D01*
X182853000Y-86873000D01*
X182873000Y-86873000D01*
X182873000Y-86853000D01*
X183127000Y-86853000D01*
X183127000Y-86873000D01*
G37*
%TD.AperFunction*%
D41*
X180518748Y-82715858D02*
X180504605Y-82730000D01*
X181460413Y-83685808D01*
X181724814Y-83590044D01*
X181865704Y-83300429D01*
X181947384Y-82988892D01*
X181948598Y-82968705D01*
X182053368Y-83073475D01*
X182227760Y-83190000D01*
X182053368Y-83306525D01*
X181846525Y-83513368D01*
X181684010Y-83756589D01*
X181572068Y-84026842D01*
X181515000Y-84313740D01*
X181515000Y-84606260D01*
X181572068Y-84893158D01*
X181684010Y-85163411D01*
X181846525Y-85406632D01*
X181978380Y-85538487D01*
X181905820Y-85560498D01*
X181795506Y-85619463D01*
X181698815Y-85698815D01*
X181619463Y-85795506D01*
X181560498Y-85905820D01*
X181524188Y-86025518D01*
X181515691Y-86111794D01*
X181353397Y-86061208D01*
X180805086Y-86609519D01*
X180805000Y-86540750D01*
X180659823Y-86395573D01*
X181173792Y-85881603D01*
X181096157Y-85632528D01*
X180832117Y-85506629D01*
X180805586Y-85499895D01*
X180807094Y-84293269D01*
X181011088Y-84222795D01*
X181185044Y-84129814D01*
X181280808Y-83865413D01*
X180793591Y-83378196D01*
X180759502Y-83265820D01*
X180752259Y-83252269D01*
X180751410Y-83238035D01*
X180721336Y-83116620D01*
X180668153Y-83003405D01*
X180593905Y-82902741D01*
X180501445Y-82818497D01*
X180394326Y-82753909D01*
X180310495Y-82723665D01*
X180314707Y-82633082D01*
X180301497Y-82545613D01*
X180310858Y-82536253D01*
X180325000Y-82550395D01*
X180339143Y-82536253D01*
X180518748Y-82715858D01*
%TA.AperFunction,Conductor*%
D42*
G36*
X180518748Y-82715858D02*
G01*
X180504605Y-82730000D01*
X181460413Y-83685808D01*
X181724814Y-83590044D01*
X181865704Y-83300429D01*
X181947384Y-82988892D01*
X181948598Y-82968705D01*
X182053368Y-83073475D01*
X182227760Y-83190000D01*
X182053368Y-83306525D01*
X181846525Y-83513368D01*
X181684010Y-83756589D01*
X181572068Y-84026842D01*
X181515000Y-84313740D01*
X181515000Y-84606260D01*
X181572068Y-84893158D01*
X181684010Y-85163411D01*
X181846525Y-85406632D01*
X181978380Y-85538487D01*
X181905820Y-85560498D01*
X181795506Y-85619463D01*
X181698815Y-85698815D01*
X181619463Y-85795506D01*
X181560498Y-85905820D01*
X181524188Y-86025518D01*
X181515691Y-86111794D01*
X181353397Y-86061208D01*
X180805086Y-86609519D01*
X180805000Y-86540750D01*
X180659823Y-86395573D01*
X181173792Y-85881603D01*
X181096157Y-85632528D01*
X180832117Y-85506629D01*
X180805586Y-85499895D01*
X180807094Y-84293269D01*
X181011088Y-84222795D01*
X181185044Y-84129814D01*
X181280808Y-83865413D01*
X180793591Y-83378196D01*
X180759502Y-83265820D01*
X180752259Y-83252269D01*
X180751410Y-83238035D01*
X180721336Y-83116620D01*
X180668153Y-83003405D01*
X180593905Y-82902741D01*
X180501445Y-82818497D01*
X180394326Y-82753909D01*
X180310495Y-82723665D01*
X180314707Y-82633082D01*
X180301497Y-82545613D01*
X180310858Y-82536253D01*
X180325000Y-82550395D01*
X180339143Y-82536253D01*
X180518748Y-82715858D01*
G37*
%TD.AperFunction*%
D41*
X176127000Y-86128000D02*
X179082315Y-86128000D01*
X179047528Y-86138843D01*
X178951943Y-86339308D01*
X178942741Y-86346095D01*
X178910027Y-86382000D01*
X176127000Y-86382000D01*
X176127000Y-86402000D01*
X175873000Y-86402000D01*
X175873000Y-86382000D01*
X173099973Y-86382000D01*
X173067259Y-86346095D01*
X173044790Y-86329523D01*
X173025919Y-86276253D01*
X172952472Y-86138843D01*
X172917685Y-86128000D01*
X175873000Y-86128000D01*
X175873000Y-86108000D01*
X176127000Y-86108000D01*
X176127000Y-86128000D01*
%TA.AperFunction,Conductor*%
D42*
G36*
X176127000Y-86128000D02*
G01*
X179082315Y-86128000D01*
X179047528Y-86138843D01*
X178951943Y-86339308D01*
X178942741Y-86346095D01*
X178910027Y-86382000D01*
X176127000Y-86382000D01*
X176127000Y-86402000D01*
X175873000Y-86402000D01*
X175873000Y-86382000D01*
X173099973Y-86382000D01*
X173067259Y-86346095D01*
X173044790Y-86329523D01*
X173025919Y-86276253D01*
X172952472Y-86138843D01*
X172917685Y-86128000D01*
X175873000Y-86128000D01*
X175873000Y-86108000D01*
X176127000Y-86108000D01*
X176127000Y-86128000D01*
G37*
%TD.AperFunction*%
D41*
X184315001Y-83755109D02*
X184153475Y-83513368D01*
X183946632Y-83306525D01*
X183772240Y-83190000D01*
X183946632Y-83073475D01*
X184153475Y-82866632D01*
X184315001Y-82624891D01*
X184315001Y-83755109D01*
%TA.AperFunction,Conductor*%
D42*
G36*
X184315001Y-83755109D02*
G01*
X184153475Y-83513368D01*
X183946632Y-83306525D01*
X183772240Y-83190000D01*
X183946632Y-83073475D01*
X184153475Y-82866632D01*
X184315001Y-82624891D01*
X184315001Y-83755109D01*
G37*
%TD.AperFunction*%
D41*
X171694131Y-82541241D02*
X171683972Y-82569401D01*
X171665293Y-82693082D01*
X171666469Y-82718368D01*
X171595674Y-82743909D01*
X171524147Y-82787037D01*
X171481253Y-82744143D01*
X171495395Y-82730000D01*
X171481253Y-82715858D01*
X171660858Y-82536253D01*
X171675000Y-82550395D01*
X171689143Y-82536253D01*
X171694131Y-82541241D01*
%TA.AperFunction,Conductor*%
D42*
G36*
X171694131Y-82541241D02*
G01*
X171683972Y-82569401D01*
X171665293Y-82693082D01*
X171666469Y-82718368D01*
X171595674Y-82743909D01*
X171524147Y-82787037D01*
X171481253Y-82744143D01*
X171495395Y-82730000D01*
X171481253Y-82715858D01*
X171660858Y-82536253D01*
X171675000Y-82550395D01*
X171689143Y-82536253D01*
X171694131Y-82541241D01*
G37*
%TD.AperFunction*%
D41*
X170927000Y-81198000D02*
X170947000Y-81198000D01*
X170947000Y-81259607D01*
X170814956Y-81330186D01*
X170763592Y-81472000D01*
X170685000Y-81472000D01*
X170685000Y-81178000D01*
X170927000Y-81178000D01*
X170927000Y-81198000D01*
%TA.AperFunction,Conductor*%
D42*
G36*
X170927000Y-81198000D02*
G01*
X170947000Y-81198000D01*
X170947000Y-81259607D01*
X170814956Y-81330186D01*
X170763592Y-81472000D01*
X170685000Y-81472000D01*
X170685000Y-81178000D01*
X170927000Y-81178000D01*
X170927000Y-81198000D01*
G37*
%TD.AperFunction*%
D41*
X184315001Y-81215108D02*
X184153475Y-80973368D01*
X183946632Y-80766525D01*
X183772240Y-80650000D01*
X183946632Y-80533475D01*
X184153475Y-80326632D01*
X184315001Y-80084892D01*
X184315001Y-81215108D01*
%TA.AperFunction,Conductor*%
D42*
G36*
X184315001Y-81215108D02*
G01*
X184153475Y-80973368D01*
X183946632Y-80766525D01*
X183772240Y-80650000D01*
X183946632Y-80533475D01*
X184153475Y-80326632D01*
X184315001Y-80084892D01*
X184315001Y-81215108D01*
G37*
%TD.AperFunction*%
D41*
X172927000Y-79843000D02*
X172947000Y-79843000D01*
X172947000Y-80056750D01*
X172943775Y-80054595D01*
X172755417Y-79976574D01*
X172653000Y-79956202D01*
X172653000Y-79843000D01*
X172673000Y-79843000D01*
X172673000Y-79823000D01*
X172927000Y-79823000D01*
X172927000Y-79843000D01*
%TA.AperFunction,Conductor*%
D42*
G36*
X172927000Y-79843000D02*
G01*
X172947000Y-79843000D01*
X172947000Y-80056750D01*
X172943775Y-80054595D01*
X172755417Y-79976574D01*
X172653000Y-79956202D01*
X172653000Y-79843000D01*
X172673000Y-79843000D01*
X172673000Y-79823000D01*
X172927000Y-79823000D01*
X172927000Y-79843000D01*
G37*
%TD.AperFunction*%
D41*
X180727000Y-79348000D02*
X180747000Y-79348000D01*
X180747000Y-79602000D01*
X180727000Y-79602000D01*
X180727000Y-79622000D01*
X180473000Y-79622000D01*
X180473000Y-79602000D01*
X180453000Y-79602000D01*
X180453000Y-79348000D01*
X180473000Y-79348000D01*
X180473000Y-79328000D01*
X180727000Y-79328000D01*
X180727000Y-79348000D01*
%TA.AperFunction,Conductor*%
D42*
G36*
X180727000Y-79348000D02*
G01*
X180747000Y-79348000D01*
X180747000Y-79602000D01*
X180727000Y-79602000D01*
X180727000Y-79622000D01*
X180473000Y-79622000D01*
X180473000Y-79602000D01*
X180453000Y-79602000D01*
X180453000Y-79348000D01*
X180473000Y-79348000D01*
X180473000Y-79328000D01*
X180727000Y-79328000D01*
X180727000Y-79348000D01*
G37*
%TD.AperFunction*%
D41*
X184315001Y-78675108D02*
X184153475Y-78433368D01*
X183946632Y-78226525D01*
X183772240Y-78110000D01*
X183946632Y-77993475D01*
X184153475Y-77786632D01*
X184315001Y-77544892D01*
X184315001Y-78675108D01*
%TA.AperFunction,Conductor*%
D42*
G36*
X184315001Y-78675108D02*
G01*
X184153475Y-78433368D01*
X183946632Y-78226525D01*
X183772240Y-78110000D01*
X183946632Y-77993475D01*
X184153475Y-77786632D01*
X184315001Y-77544892D01*
X184315001Y-78675108D01*
G37*
%TD.AperFunction*%
D41*
X179828082Y-75646568D02*
X179964987Y-75673800D01*
X179964988Y-76704805D01*
X179952743Y-76717050D01*
X179930537Y-76675506D01*
X179851185Y-76578815D01*
X179754494Y-76499463D01*
X179644180Y-76440498D01*
X179631165Y-76436550D01*
X179695226Y-76281895D01*
X179735000Y-76081936D01*
X179735000Y-75878058D01*
X179695226Y-75678099D01*
X179651944Y-75573609D01*
X179828082Y-75646568D01*
%TA.AperFunction,Conductor*%
D42*
G36*
X179828082Y-75646568D02*
G01*
X179964987Y-75673800D01*
X179964988Y-76704805D01*
X179952743Y-76717050D01*
X179930537Y-76675506D01*
X179851185Y-76578815D01*
X179754494Y-76499463D01*
X179644180Y-76440498D01*
X179631165Y-76436550D01*
X179695226Y-76281895D01*
X179735000Y-76081936D01*
X179735000Y-75878058D01*
X179695226Y-75678099D01*
X179651944Y-75573609D01*
X179828082Y-75646568D01*
G37*
%TD.AperFunction*%
D41*
X174111928Y-75550450D02*
X174124366Y-75676738D01*
X174109744Y-75682795D01*
X173940226Y-75796063D01*
X173796063Y-75940226D01*
X173682795Y-76109744D01*
X173604774Y-76298102D01*
X173580304Y-76421121D01*
X173524482Y-76404188D01*
X173400000Y-76391928D01*
X172911964Y-76391928D01*
X172911964Y-76245854D01*
X172890525Y-76138072D01*
X173087500Y-76138072D01*
X173258316Y-76121248D01*
X173422567Y-76071423D01*
X173573942Y-75990512D01*
X173706623Y-75881623D01*
X173815512Y-75748942D01*
X173896423Y-75597567D01*
X173946248Y-75433316D01*
X173963072Y-75262500D01*
X173963072Y-74860000D01*
X174111928Y-74860000D01*
X174111928Y-75550450D01*
%TA.AperFunction,Conductor*%
D42*
G36*
X174111928Y-75550450D02*
G01*
X174124366Y-75676738D01*
X174109744Y-75682795D01*
X173940226Y-75796063D01*
X173796063Y-75940226D01*
X173682795Y-76109744D01*
X173604774Y-76298102D01*
X173580304Y-76421121D01*
X173524482Y-76404188D01*
X173400000Y-76391928D01*
X172911964Y-76391928D01*
X172911964Y-76245854D01*
X172890525Y-76138072D01*
X173087500Y-76138072D01*
X173258316Y-76121248D01*
X173422567Y-76071423D01*
X173573942Y-75990512D01*
X173706623Y-75881623D01*
X173815512Y-75748942D01*
X173896423Y-75597567D01*
X173946248Y-75433316D01*
X173963072Y-75262500D01*
X173963072Y-74860000D01*
X174111928Y-74860000D01*
X174111928Y-75550450D01*
G37*
%TD.AperFunction*%
D41*
X182154284Y-75549278D02*
X182226147Y-75571078D01*
X182053368Y-75686525D01*
X181934998Y-75804895D01*
X181934998Y-75566799D01*
X182022800Y-75478998D01*
X182154284Y-75549278D01*
%TA.AperFunction,Conductor*%
D42*
G36*
X182154284Y-75549278D02*
G01*
X182226147Y-75571078D01*
X182053368Y-75686525D01*
X181934998Y-75804895D01*
X181934998Y-75566799D01*
X182022800Y-75478998D01*
X182154284Y-75549278D01*
G37*
%TD.AperFunction*%
D41*
X184060547Y-59694222D02*
X184118786Y-59711805D01*
X184172501Y-59740366D01*
X184219646Y-59778816D01*
X184258424Y-59825691D01*
X184287358Y-59879204D01*
X184305349Y-59937323D01*
X184315000Y-60029145D01*
X184315000Y-62210750D01*
X184227000Y-62298750D01*
X184227000Y-63098000D01*
X184247000Y-63098000D01*
X184247000Y-63352000D01*
X184227000Y-63352000D01*
X184227000Y-63372000D01*
X183973000Y-63372000D01*
X183973000Y-63352000D01*
X183148750Y-63352000D01*
X182990000Y-63510750D01*
X182989453Y-63540000D01*
X181336790Y-63540000D01*
X181354494Y-63530537D01*
X181451185Y-63451185D01*
X181530537Y-63354494D01*
X181589502Y-63244180D01*
X181625812Y-63124482D01*
X181638072Y-63000000D01*
X181635000Y-62785750D01*
X181624250Y-62775000D01*
X182986928Y-62775000D01*
X182990000Y-62939250D01*
X183148750Y-63098000D01*
X183973000Y-63098000D01*
X183973000Y-62298750D01*
X183814250Y-62140000D01*
X183625000Y-62136928D01*
X183500518Y-62149188D01*
X183380820Y-62185498D01*
X183270506Y-62244463D01*
X183173815Y-62323815D01*
X183094463Y-62420506D01*
X183035498Y-62530820D01*
X182999188Y-62650518D01*
X182986928Y-62775000D01*
X181624250Y-62775000D01*
X181476250Y-62627000D01*
X180627000Y-62627000D01*
X180627000Y-63476250D01*
X180785750Y-63635000D01*
X180830692Y-63635644D01*
X180775724Y-63665026D01*
X180697640Y-63729108D01*
X180676888Y-63720512D01*
X180476929Y-63680738D01*
X180273051Y-63680738D01*
X180073092Y-63720512D01*
X179884734Y-63798533D01*
X179715216Y-63911801D01*
X179571053Y-64055964D01*
X179457785Y-64225482D01*
X179379764Y-64413840D01*
X179339990Y-64613799D01*
X179339990Y-64817677D01*
X179379764Y-65017636D01*
X179457785Y-65205994D01*
X179571053Y-65375512D01*
X179715216Y-65519675D01*
X179884734Y-65632943D01*
X180073092Y-65710964D01*
X180140000Y-65724273D01*
X180140000Y-65973000D01*
X180112420Y-65973000D01*
X180000000Y-65961928D01*
X179800000Y-65961928D01*
X179687580Y-65973000D01*
X179300000Y-65973000D01*
X179275224Y-65975440D01*
X179251399Y-65982667D01*
X179229443Y-65994403D01*
X179210197Y-66010197D01*
X179194403Y-66029443D01*
X179182667Y-66051399D01*
X179175440Y-66075224D01*
X179173000Y-66100000D01*
X179173000Y-66487580D01*
X179161928Y-66600000D01*
X179161928Y-66800000D01*
X179173000Y-66912420D01*
X179173000Y-67001696D01*
X179171448Y-67002526D01*
X177733349Y-65564428D01*
X177709546Y-65535424D01*
X177593821Y-65440451D01*
X177461792Y-65369879D01*
X177318584Y-65326438D01*
X177263634Y-65271488D01*
X177094116Y-65158220D01*
X176905758Y-65080199D01*
X176705799Y-65040425D01*
X176501921Y-65040425D01*
X176480020Y-65044781D01*
X177201003Y-64323799D01*
X177230001Y-64300001D01*
X177324974Y-64184276D01*
X177395546Y-64052247D01*
X177439003Y-63908986D01*
X177450000Y-63797333D01*
X177453677Y-63760000D01*
X177450000Y-63722667D01*
X177450000Y-63517266D01*
X177628933Y-63591383D01*
X177848212Y-63635000D01*
X178071788Y-63635000D01*
X178291067Y-63591383D01*
X178497624Y-63505824D01*
X178595000Y-63440759D01*
X178692376Y-63505824D01*
X178898933Y-63591383D01*
X179118212Y-63635000D01*
X179341788Y-63635000D01*
X179561067Y-63591383D01*
X179672774Y-63545112D01*
X179755820Y-63589502D01*
X179875518Y-63625812D01*
X180000000Y-63638072D01*
X180214250Y-63635000D01*
X180373000Y-63476250D01*
X180373000Y-62627000D01*
X180361974Y-62627000D01*
X180365000Y-62611788D01*
X180365000Y-62388212D01*
X180361974Y-62373000D01*
X180373000Y-62373000D01*
X180373000Y-60757000D01*
X180627000Y-60757000D01*
X180627000Y-62373000D01*
X181476250Y-62373000D01*
X181635000Y-62214250D01*
X181638072Y-62000000D01*
X181625812Y-61875518D01*
X181589502Y-61755820D01*
X181530537Y-61645506D01*
X181464468Y-61565000D01*
X181530537Y-61484494D01*
X181589502Y-61374180D01*
X181625812Y-61254482D01*
X181638072Y-61130000D01*
X181635000Y-60915750D01*
X181476250Y-60757000D01*
X180627000Y-60757000D01*
X180373000Y-60757000D01*
X180361974Y-60757000D01*
X180365000Y-60741788D01*
X180365000Y-60518212D01*
X180361974Y-60503000D01*
X180373000Y-60503000D01*
X180373000Y-60483000D01*
X180627000Y-60483000D01*
X180627000Y-60503000D01*
X181476250Y-60503000D01*
X181635000Y-60344250D01*
X181638072Y-60130000D01*
X181625812Y-60005518D01*
X181589502Y-59885820D01*
X181530537Y-59775506D01*
X181456261Y-59685000D01*
X183966495Y-59685000D01*
X184060547Y-59694222D01*
%TA.AperFunction,Conductor*%
D42*
G36*
X184060547Y-59694222D02*
G01*
X184118786Y-59711805D01*
X184172501Y-59740366D01*
X184219646Y-59778816D01*
X184258424Y-59825691D01*
X184287358Y-59879204D01*
X184305349Y-59937323D01*
X184315000Y-60029145D01*
X184315000Y-62210750D01*
X184227000Y-62298750D01*
X184227000Y-63098000D01*
X184247000Y-63098000D01*
X184247000Y-63352000D01*
X184227000Y-63352000D01*
X184227000Y-63372000D01*
X183973000Y-63372000D01*
X183973000Y-63352000D01*
X183148750Y-63352000D01*
X182990000Y-63510750D01*
X182989453Y-63540000D01*
X181336790Y-63540000D01*
X181354494Y-63530537D01*
X181451185Y-63451185D01*
X181530537Y-63354494D01*
X181589502Y-63244180D01*
X181625812Y-63124482D01*
X181638072Y-63000000D01*
X181635000Y-62785750D01*
X181624250Y-62775000D01*
X182986928Y-62775000D01*
X182990000Y-62939250D01*
X183148750Y-63098000D01*
X183973000Y-63098000D01*
X183973000Y-62298750D01*
X183814250Y-62140000D01*
X183625000Y-62136928D01*
X183500518Y-62149188D01*
X183380820Y-62185498D01*
X183270506Y-62244463D01*
X183173815Y-62323815D01*
X183094463Y-62420506D01*
X183035498Y-62530820D01*
X182999188Y-62650518D01*
X182986928Y-62775000D01*
X181624250Y-62775000D01*
X181476250Y-62627000D01*
X180627000Y-62627000D01*
X180627000Y-63476250D01*
X180785750Y-63635000D01*
X180830692Y-63635644D01*
X180775724Y-63665026D01*
X180697640Y-63729108D01*
X180676888Y-63720512D01*
X180476929Y-63680738D01*
X180273051Y-63680738D01*
X180073092Y-63720512D01*
X179884734Y-63798533D01*
X179715216Y-63911801D01*
X179571053Y-64055964D01*
X179457785Y-64225482D01*
X179379764Y-64413840D01*
X179339990Y-64613799D01*
X179339990Y-64817677D01*
X179379764Y-65017636D01*
X179457785Y-65205994D01*
X179571053Y-65375512D01*
X179715216Y-65519675D01*
X179884734Y-65632943D01*
X180073092Y-65710964D01*
X180140000Y-65724273D01*
X180140000Y-65973000D01*
X180112420Y-65973000D01*
X180000000Y-65961928D01*
X179800000Y-65961928D01*
X179687580Y-65973000D01*
X179300000Y-65973000D01*
X179275224Y-65975440D01*
X179251399Y-65982667D01*
X179229443Y-65994403D01*
X179210197Y-66010197D01*
X179194403Y-66029443D01*
X179182667Y-66051399D01*
X179175440Y-66075224D01*
X179173000Y-66100000D01*
X179173000Y-66487580D01*
X179161928Y-66600000D01*
X179161928Y-66800000D01*
X179173000Y-66912420D01*
X179173000Y-67001696D01*
X179171448Y-67002526D01*
X177733349Y-65564428D01*
X177709546Y-65535424D01*
X177593821Y-65440451D01*
X177461792Y-65369879D01*
X177318584Y-65326438D01*
X177263634Y-65271488D01*
X177094116Y-65158220D01*
X176905758Y-65080199D01*
X176705799Y-65040425D01*
X176501921Y-65040425D01*
X176480020Y-65044781D01*
X177201003Y-64323799D01*
X177230001Y-64300001D01*
X177324974Y-64184276D01*
X177395546Y-64052247D01*
X177439003Y-63908986D01*
X177450000Y-63797333D01*
X177453677Y-63760000D01*
X177450000Y-63722667D01*
X177450000Y-63517266D01*
X177628933Y-63591383D01*
X177848212Y-63635000D01*
X178071788Y-63635000D01*
X178291067Y-63591383D01*
X178497624Y-63505824D01*
X178595000Y-63440759D01*
X178692376Y-63505824D01*
X178898933Y-63591383D01*
X179118212Y-63635000D01*
X179341788Y-63635000D01*
X179561067Y-63591383D01*
X179672774Y-63545112D01*
X179755820Y-63589502D01*
X179875518Y-63625812D01*
X180000000Y-63638072D01*
X180214250Y-63635000D01*
X180373000Y-63476250D01*
X180373000Y-62627000D01*
X180361974Y-62627000D01*
X180365000Y-62611788D01*
X180365000Y-62388212D01*
X180361974Y-62373000D01*
X180373000Y-62373000D01*
X180373000Y-60757000D01*
X180627000Y-60757000D01*
X180627000Y-62373000D01*
X181476250Y-62373000D01*
X181635000Y-62214250D01*
X181638072Y-62000000D01*
X181625812Y-61875518D01*
X181589502Y-61755820D01*
X181530537Y-61645506D01*
X181464468Y-61565000D01*
X181530537Y-61484494D01*
X181589502Y-61374180D01*
X181625812Y-61254482D01*
X181638072Y-61130000D01*
X181635000Y-60915750D01*
X181476250Y-60757000D01*
X180627000Y-60757000D01*
X180373000Y-60757000D01*
X180361974Y-60757000D01*
X180365000Y-60741788D01*
X180365000Y-60518212D01*
X180361974Y-60503000D01*
X180373000Y-60503000D01*
X180373000Y-60483000D01*
X180627000Y-60483000D01*
X180627000Y-60503000D01*
X181476250Y-60503000D01*
X181635000Y-60344250D01*
X181638072Y-60130000D01*
X181625812Y-60005518D01*
X181589502Y-59885820D01*
X181530537Y-59775506D01*
X181456261Y-59685000D01*
X183966495Y-59685000D01*
X184060547Y-59694222D01*
G37*
%TD.AperFunction*%
D41*
X174766877Y-66340000D02*
X172637333Y-66340000D01*
X172600000Y-66336323D01*
X172562667Y-66340000D01*
X172451014Y-66350997D01*
X172307753Y-66394454D01*
X172175724Y-66465026D01*
X172059999Y-66559999D01*
X171965026Y-66675724D01*
X171894454Y-66807753D01*
X171884672Y-66840000D01*
X171187333Y-66840000D01*
X171150000Y-66836323D01*
X171112667Y-66840000D01*
X171001014Y-66850997D01*
X170857753Y-66894454D01*
X170725724Y-66965026D01*
X170685000Y-66998447D01*
X170685000Y-66260779D01*
X170759392Y-66321831D01*
X170904284Y-66399278D01*
X171061500Y-66446969D01*
X171225000Y-66463072D01*
X171775000Y-66463072D01*
X171938500Y-66446969D01*
X172095716Y-66399278D01*
X172240608Y-66321831D01*
X172367606Y-66217606D01*
X172394365Y-66185000D01*
X174611877Y-66185000D01*
X174766877Y-66340000D01*
%TA.AperFunction,Conductor*%
D42*
G36*
X174766877Y-66340000D02*
G01*
X172637333Y-66340000D01*
X172600000Y-66336323D01*
X172562667Y-66340000D01*
X172451014Y-66350997D01*
X172307753Y-66394454D01*
X172175724Y-66465026D01*
X172059999Y-66559999D01*
X171965026Y-66675724D01*
X171894454Y-66807753D01*
X171884672Y-66840000D01*
X171187333Y-66840000D01*
X171150000Y-66836323D01*
X171112667Y-66840000D01*
X171001014Y-66850997D01*
X170857753Y-66894454D01*
X170725724Y-66965026D01*
X170685000Y-66998447D01*
X170685000Y-66260779D01*
X170759392Y-66321831D01*
X170904284Y-66399278D01*
X171061500Y-66446969D01*
X171225000Y-66463072D01*
X171775000Y-66463072D01*
X171938500Y-66446969D01*
X172095716Y-66399278D01*
X172240608Y-66321831D01*
X172367606Y-66217606D01*
X172394365Y-66185000D01*
X174611877Y-66185000D01*
X174766877Y-66340000D01*
G37*
%TD.AperFunction*%
%TD*%
M02*
