%TF.GenerationSoftware,KiCad,Pcbnew,(6.0.2-0)*%
%TF.CreationDate,2022-02-15T08:15:06+00:00*%
%TF.ProjectId,Shelly,5368656c-6c79-42e6-9b69-6361645f7063,4*%
%TF.SameCoordinates,Original*%
%TF.FileFunction,Legend,Bot*%
%TF.FilePolarity,Positive*%
%FSLAX46Y46*%
G04 Gerber Fmt 4.6, Leading zero omitted, Abs format (unit mm)*
G04 Created by KiCad (PCBNEW (6.0.2-0)) date 2022-02-15 08:15:06*
%MOMM*%
%LPD*%
G01*
G04 APERTURE LIST*
%ADD10C,0.150000*%
%ADD11C,0.120000*%
G04 APERTURE END LIST*
D10*
X182600000Y-59300000D02*
X182600000Y-60400000D01*
X182200000Y-57100000D02*
X182600000Y-58000000D01*
X179057142Y-65635714D02*
X178866666Y-66302380D01*
X178676190Y-65826190D01*
X178485714Y-66302380D01*
X178295238Y-65635714D01*
X178009523Y-65635714D02*
X177819047Y-66302380D01*
X177628571Y-65826190D01*
X177438095Y-66302380D01*
X177247619Y-65635714D01*
X176961904Y-65635714D02*
X176771428Y-66302380D01*
X176580952Y-65826190D01*
X176390476Y-66302380D01*
X176200000Y-65635714D01*
X175819047Y-66207142D02*
X175771428Y-66254761D01*
X175819047Y-66302380D01*
X175866666Y-66254761D01*
X175819047Y-66207142D01*
X175819047Y-66302380D01*
X175342857Y-66302380D02*
X175342857Y-65635714D01*
X175342857Y-65730952D02*
X175295238Y-65683333D01*
X175200000Y-65635714D01*
X175057142Y-65635714D01*
X174961904Y-65683333D01*
X174914285Y-65778571D01*
X174914285Y-66302380D01*
X174914285Y-65778571D02*
X174866666Y-65683333D01*
X174771428Y-65635714D01*
X174628571Y-65635714D01*
X174533333Y-65683333D01*
X174485714Y-65778571D01*
X174485714Y-66302380D01*
X173628571Y-66254761D02*
X173723809Y-66302380D01*
X173914285Y-66302380D01*
X174009523Y-66254761D01*
X174057142Y-66159523D01*
X174057142Y-65778571D01*
X174009523Y-65683333D01*
X173914285Y-65635714D01*
X173723809Y-65635714D01*
X173628571Y-65683333D01*
X173580952Y-65778571D01*
X173580952Y-65873809D01*
X174057142Y-65969047D01*
X173152380Y-66207142D02*
X173104761Y-66254761D01*
X173152380Y-66302380D01*
X173200000Y-66254761D01*
X173152380Y-66207142D01*
X173152380Y-66302380D01*
X172247619Y-65635714D02*
X172247619Y-66302380D01*
X172676190Y-65635714D02*
X172676190Y-66159523D01*
X172628571Y-66254761D01*
X172533333Y-66302380D01*
X172390476Y-66302380D01*
X172295238Y-66254761D01*
X172247619Y-66207142D01*
X171771428Y-66302380D02*
X171771428Y-65302380D01*
X171676190Y-65921428D02*
X171390476Y-66302380D01*
X171390476Y-65635714D02*
X171771428Y-66016666D01*
X182200000Y-61216785D02*
X182152380Y-61121547D01*
X182152380Y-60978690D01*
X182200000Y-60835833D01*
X182295238Y-60740595D01*
X182390476Y-60692976D01*
X182580952Y-60645357D01*
X182723809Y-60645357D01*
X182914285Y-60692976D01*
X183009523Y-60740595D01*
X183104761Y-60835833D01*
X183152380Y-60978690D01*
X183152380Y-61073928D01*
X183104761Y-61216785D01*
X183057142Y-61264404D01*
X182723809Y-61264404D01*
X182723809Y-61073928D01*
X183152380Y-61692976D02*
X182152380Y-61692976D01*
X183152380Y-62264404D01*
X182152380Y-62264404D01*
X183152380Y-62740595D02*
X182152380Y-62740595D01*
X182152380Y-62978690D01*
X182200000Y-63121547D01*
X182295238Y-63216785D01*
X182390476Y-63264404D01*
X182580952Y-63312023D01*
X182723809Y-63312023D01*
X182914285Y-63264404D01*
X183009523Y-63216785D01*
X183104761Y-63121547D01*
X183152380Y-62978690D01*
X183152380Y-62740595D01*
X178371428Y-61699761D02*
X178228571Y-61747380D01*
X177990476Y-61747380D01*
X177895238Y-61699761D01*
X177847619Y-61652142D01*
X177800000Y-61556904D01*
X177800000Y-61461666D01*
X177847619Y-61366428D01*
X177895238Y-61318809D01*
X177990476Y-61271190D01*
X178180952Y-61223571D01*
X178276190Y-61175952D01*
X178323809Y-61128333D01*
X178371428Y-61033095D01*
X178371428Y-60937857D01*
X178323809Y-60842619D01*
X178276190Y-60795000D01*
X178180952Y-60747380D01*
X177942857Y-60747380D01*
X177800000Y-60795000D01*
X177371428Y-61747380D02*
X177371428Y-60747380D01*
X176942857Y-61747380D02*
X176942857Y-61223571D01*
X176990476Y-61128333D01*
X177085714Y-61080714D01*
X177228571Y-61080714D01*
X177323809Y-61128333D01*
X177371428Y-61175952D01*
X176085714Y-61699761D02*
X176180952Y-61747380D01*
X176371428Y-61747380D01*
X176466666Y-61699761D01*
X176514285Y-61604523D01*
X176514285Y-61223571D01*
X176466666Y-61128333D01*
X176371428Y-61080714D01*
X176180952Y-61080714D01*
X176085714Y-61128333D01*
X176038095Y-61223571D01*
X176038095Y-61318809D01*
X176514285Y-61414047D01*
X175466666Y-61747380D02*
X175561904Y-61699761D01*
X175609523Y-61604523D01*
X175609523Y-60747380D01*
X174942857Y-61747380D02*
X175038095Y-61699761D01*
X175085714Y-61604523D01*
X175085714Y-60747380D01*
X174657142Y-61080714D02*
X174419047Y-61747380D01*
X174180952Y-61080714D02*
X174419047Y-61747380D01*
X174514285Y-61985476D01*
X174561904Y-62033095D01*
X174657142Y-62080714D01*
X180228571Y-62357380D02*
X179657142Y-62357380D01*
X179942857Y-63357380D02*
X179942857Y-62357380D01*
X178895238Y-63357380D02*
X178895238Y-62833571D01*
X178942857Y-62738333D01*
X179038095Y-62690714D01*
X179228571Y-62690714D01*
X179323809Y-62738333D01*
X178895238Y-63309761D02*
X178990476Y-63357380D01*
X179228571Y-63357380D01*
X179323809Y-63309761D01*
X179371428Y-63214523D01*
X179371428Y-63119285D01*
X179323809Y-63024047D01*
X179228571Y-62976428D01*
X178990476Y-62976428D01*
X178895238Y-62928809D01*
X178466666Y-63309761D02*
X178371428Y-63357380D01*
X178180952Y-63357380D01*
X178085714Y-63309761D01*
X178038095Y-63214523D01*
X178038095Y-63166904D01*
X178085714Y-63071666D01*
X178180952Y-63024047D01*
X178323809Y-63024047D01*
X178419047Y-62976428D01*
X178466666Y-62881190D01*
X178466666Y-62833571D01*
X178419047Y-62738333D01*
X178323809Y-62690714D01*
X178180952Y-62690714D01*
X178085714Y-62738333D01*
X177609523Y-63357380D02*
X177609523Y-62690714D01*
X177609523Y-62785952D02*
X177561904Y-62738333D01*
X177466666Y-62690714D01*
X177323809Y-62690714D01*
X177228571Y-62738333D01*
X177180952Y-62833571D01*
X177180952Y-63357380D01*
X177180952Y-62833571D02*
X177133333Y-62738333D01*
X177038095Y-62690714D01*
X176895238Y-62690714D01*
X176800000Y-62738333D01*
X176752380Y-62833571D01*
X176752380Y-63357380D01*
X176133333Y-63357380D02*
X176228571Y-63309761D01*
X176276190Y-63262142D01*
X176323809Y-63166904D01*
X176323809Y-62881190D01*
X176276190Y-62785952D01*
X176228571Y-62738333D01*
X176133333Y-62690714D01*
X175990476Y-62690714D01*
X175895238Y-62738333D01*
X175847619Y-62785952D01*
X175800000Y-62881190D01*
X175800000Y-63166904D01*
X175847619Y-63262142D01*
X175895238Y-63309761D01*
X175990476Y-63357380D01*
X176133333Y-63357380D01*
X175514285Y-62690714D02*
X175133333Y-62690714D01*
X175371428Y-62357380D02*
X175371428Y-63214523D01*
X175323809Y-63309761D01*
X175228571Y-63357380D01*
X175133333Y-63357380D01*
X174800000Y-63357380D02*
X174800000Y-62690714D01*
X174800000Y-62357380D02*
X174847619Y-62405000D01*
X174800000Y-62452619D01*
X174752380Y-62405000D01*
X174800000Y-62357380D01*
X174800000Y-62452619D01*
X174419047Y-62690714D02*
X173895238Y-62690714D01*
X174419047Y-63357380D01*
X173895238Y-63357380D01*
X173133333Y-63309761D02*
X173228571Y-63357380D01*
X173419047Y-63357380D01*
X173514285Y-63309761D01*
X173561904Y-63214523D01*
X173561904Y-62833571D01*
X173514285Y-62738333D01*
X173419047Y-62690714D01*
X173228571Y-62690714D01*
X173133333Y-62738333D01*
X173085714Y-62833571D01*
X173085714Y-62928809D01*
X173561904Y-63024047D01*
X172657142Y-63357380D02*
X172657142Y-62690714D01*
X172657142Y-62881190D02*
X172609523Y-62785952D01*
X172561904Y-62738333D01*
X172466666Y-62690714D01*
X172371428Y-62690714D01*
D11*
%TO.C,J2*%
X183360000Y-59710000D02*
X183360000Y-58600000D01*
X181840000Y-59710000D02*
X175555000Y-59710000D01*
X181840000Y-57490000D02*
X175555000Y-57490000D01*
X181840000Y-59710000D02*
X181840000Y-59163471D01*
X175555000Y-58292470D02*
X175555000Y-57490000D01*
X182600000Y-59710000D02*
X183360000Y-59710000D01*
X175555000Y-59710000D02*
X175555000Y-58907530D01*
X181840000Y-58036529D02*
X181840000Y-57490000D01*
%TD*%
M02*
