%TF.GenerationSoftware,KiCad,Pcbnew,(6.0.0-0)*%
%TF.CreationDate,2021-12-31T08:36:05+00:00*%
%TF.ProjectId,Shelly,5368656c-6c79-42e6-9b69-6361645f7063,4*%
%TF.SameCoordinates,Original*%
%TF.FileFunction,Paste,Top*%
%TF.FilePolarity,Positive*%
%FSLAX46Y46*%
G04 Gerber Fmt 4.6, Leading zero omitted, Abs format (unit mm)*
G04 Created by KiCad (PCBNEW (6.0.0-0)) date 2021-12-31 08:36:05*
%MOMM*%
%LPD*%
G01*
G04 APERTURE LIST*
G04 Aperture macros list*
%AMRoundRect*
0 Rectangle with rounded corners*
0 $1 Rounding radius*
0 $2 $3 $4 $5 $6 $7 $8 $9 X,Y pos of 4 corners*
0 Add a 4 corners polygon primitive as box body*
4,1,4,$2,$3,$4,$5,$6,$7,$8,$9,$2,$3,0*
0 Add four circle primitives for the rounded corners*
1,1,$1+$1,$2,$3*
1,1,$1+$1,$4,$5*
1,1,$1+$1,$6,$7*
1,1,$1+$1,$8,$9*
0 Add four rect primitives between the rounded corners*
20,1,$1+$1,$2,$3,$4,$5,0*
20,1,$1+$1,$4,$5,$6,$7,0*
20,1,$1+$1,$6,$7,$8,$9,0*
20,1,$1+$1,$8,$9,$2,$3,0*%
G04 Aperture macros list end*
%ADD10R,0.624000X0.384000*%
%ADD11RoundRect,0.216500X0.239500X-0.287500X0.239500X0.287500X-0.239500X0.287500X-0.239500X-0.287500X0*%
%ADD12RoundRect,0.184000X0.272000X-0.200000X0.272000X0.200000X-0.272000X0.200000X-0.272000X-0.200000X0*%
%ADD13RoundRect,0.186000X0.189000X0.189000X-0.189000X0.189000X-0.189000X-0.189000X0.189000X-0.189000X0*%
%ADD14RoundRect,0.048500X0.287500X0.071500X-0.287500X0.071500X-0.287500X-0.071500X0.287500X-0.071500X0*%
%ADD15RoundRect,0.057500X0.062500X0.278500X-0.062500X0.278500X-0.062500X-0.278500X0.062500X-0.278500X0*%
%ADD16R,0.420000X0.798000*%
%ADD17RoundRect,0.069000X-0.075000X-0.478200X0.075000X-0.478200X0.075000X0.478200X-0.075000X0.478200X0*%
%ADD18RoundRect,0.232500X-0.232500X-0.232500X0.232500X-0.232500X0.232500X0.232500X-0.232500X0.232500X0*%
%ADD19RoundRect,0.184000X-0.272000X0.200000X-0.272000X-0.200000X0.272000X-0.200000X0.272000X0.200000X0*%
%ADD20RoundRect,0.184000X-0.200000X-0.272000X0.200000X-0.272000X0.200000X0.272000X-0.200000X0.272000X0*%
%ADD21RoundRect,0.207000X0.225000X0.249000X-0.225000X0.249000X-0.225000X-0.249000X0.225000X-0.249000X0*%
%ADD22RoundRect,0.120500X-0.587500X-0.167500X0.587500X-0.167500X0.587500X0.167500X-0.587500X0.167500X0*%
%ADD23RoundRect,0.250000X-0.350000X-0.250000X0.350000X-0.250000X0.350000X0.250000X-0.350000X0.250000X0*%
%ADD24R,0.576000X1.056000*%
%ADD25R,1.368000X3.552000*%
%ADD26RoundRect,0.220875X-0.463125X-0.619125X0.463125X-0.619125X0.463125X0.619125X-0.463125X0.619125X0*%
%ADD27RoundRect,0.207000X0.249000X-0.225000X0.249000X0.225000X-0.249000X0.225000X-0.249000X-0.225000X0*%
%ADD28RoundRect,0.230000X-0.466000X0.250000X-0.466000X-0.250000X0.466000X-0.250000X0.466000X0.250000X0*%
G04 APERTURE END LIST*
D10*
%TO.C,D2*%
X180350000Y-66750000D03*
X180350000Y-67400000D03*
X180350000Y-68050000D03*
X182250000Y-68050000D03*
X182250000Y-67400000D03*
X182250000Y-66750000D03*
%TD*%
%TO.C,D1*%
X180400000Y-69750000D03*
X180400000Y-70400000D03*
X180400000Y-71050000D03*
X182300000Y-71050000D03*
X182300000Y-70400000D03*
X182300000Y-69750000D03*
%TD*%
D11*
%TO.C,D3*%
X171000000Y-81875000D03*
X171000000Y-80125000D03*
%TD*%
D12*
%TO.C,R3*%
X183300000Y-78925000D03*
X183300000Y-77275000D03*
%TD*%
D13*
%TO.C,U1*%
X180200000Y-61700000D03*
X181200000Y-61700000D03*
X181200000Y-62700000D03*
X180200000Y-62700000D03*
D14*
X182600000Y-63200000D03*
X182600000Y-62700000D03*
X182600000Y-62200000D03*
X182600000Y-61700000D03*
X182600000Y-61200000D03*
D15*
X181700000Y-60300000D03*
X181200000Y-60300000D03*
X180700000Y-60300000D03*
X180200000Y-60300000D03*
X179700000Y-60300000D03*
D14*
X178800000Y-61200000D03*
X178800000Y-61700000D03*
X178800000Y-62200000D03*
X178800000Y-62700000D03*
X178800000Y-63200000D03*
D15*
X179700000Y-64100000D03*
X180200000Y-64100000D03*
X180700000Y-64100000D03*
X181200000Y-64100000D03*
X181700000Y-64100000D03*
%TD*%
D16*
%TO.C,J3*%
X173800000Y-76040000D03*
X180200000Y-76040000D03*
D17*
X175250000Y-76040000D03*
X178750000Y-76040000D03*
X175750000Y-76040000D03*
X178250000Y-76040000D03*
X176250000Y-76040000D03*
X177750000Y-76040000D03*
X176750000Y-76040000D03*
X177250000Y-76040000D03*
D16*
X179400000Y-76040000D03*
X174600000Y-76040000D03*
D18*
X176415000Y-78465000D03*
X175265000Y-80765000D03*
X175265000Y-79615000D03*
X175265000Y-78465000D03*
X178715000Y-80765000D03*
X178715000Y-79615000D03*
X178715000Y-78465000D03*
X177565000Y-80765000D03*
X177565000Y-79615000D03*
X177565000Y-78465000D03*
X176415000Y-80765000D03*
X176415000Y-79615000D03*
%TD*%
D19*
%TO.C,R6*%
X171000000Y-77175000D03*
X171000000Y-78825000D03*
%TD*%
%TO.C,R2*%
X183300000Y-80175000D03*
X183300000Y-81825000D03*
%TD*%
D20*
%TO.C,R4*%
X180575000Y-73000000D03*
X182225000Y-73000000D03*
%TD*%
%TO.C,R5*%
X180575000Y-74320000D03*
X182225000Y-74320000D03*
%TD*%
D12*
%TO.C,R1*%
X174500000Y-62025000D03*
X174500000Y-60375000D03*
%TD*%
D21*
%TO.C,C1*%
X177375000Y-60400000D03*
X175825000Y-60400000D03*
%TD*%
D22*
%TO.C,Q1*%
X171062500Y-59250000D03*
X171062500Y-61150000D03*
X172937500Y-60200000D03*
%TD*%
D23*
%TO.C,U2*%
X178180000Y-69950000D03*
D24*
X173730000Y-67400000D03*
D23*
X178180000Y-68800000D03*
X178180000Y-67650000D03*
X175180000Y-68800000D03*
X175180000Y-67650000D03*
D25*
X175180000Y-68800000D03*
D23*
X175180000Y-69950000D03*
D24*
X173730000Y-70100000D03*
D26*
X173577500Y-71920000D03*
D27*
X170680000Y-69525000D03*
X170680000Y-67975000D03*
D24*
X171830000Y-70100000D03*
X172780000Y-70100000D03*
D28*
X171930000Y-71350000D03*
X171930000Y-73250000D03*
D24*
X172780000Y-67400000D03*
D26*
X176542500Y-71920000D03*
D28*
X178180000Y-73250000D03*
D24*
X171830000Y-67400000D03*
D28*
X178180000Y-71350000D03*
%TD*%
M02*
