%TF.GenerationSoftware,KiCad,Pcbnew,(5.1.9-0-10_14)*%
%TF.CreationDate,2021-07-20T14:10:13+01:00*%
%TF.ProjectId,Shelly,5368656c-6c79-42e6-9b69-6361645f7063,4*%
%TF.SameCoordinates,Original*%
%TF.FileFunction,Paste,Top*%
%TF.FilePolarity,Positive*%
%FSLAX46Y46*%
G04 Gerber Fmt 4.6, Leading zero omitted, Abs format (unit mm)*
G04 Created by KiCad (PCBNEW (5.1.9-0-10_14)) date 2021-07-20 14:10:13*
%MOMM*%
%LPD*%
G01*
G04 APERTURE LIST*
%ADD10R,0.540000X0.990000*%
%ADD11R,0.720000X1.080000*%
%ADD12R,0.340000X0.826000*%
%ADD13R,0.170000X0.926000*%
G04 APERTURE END LIST*
%TO.C,U1*%
G36*
G01*
X180475000Y-62811000D02*
X180475000Y-63189000D01*
G75*
G02*
X180289000Y-63375000I-186000J0D01*
G01*
X179911000Y-63375000D01*
G75*
G02*
X179725000Y-63189000I0J186000D01*
G01*
X179725000Y-62811000D01*
G75*
G02*
X179911000Y-62625000I186000J0D01*
G01*
X180289000Y-62625000D01*
G75*
G02*
X180475000Y-62811000I0J-186000D01*
G01*
G37*
G36*
G01*
X180475000Y-63811000D02*
X180475000Y-64189000D01*
G75*
G02*
X180289000Y-64375000I-186000J0D01*
G01*
X179911000Y-64375000D01*
G75*
G02*
X179725000Y-64189000I0J186000D01*
G01*
X179725000Y-63811000D01*
G75*
G02*
X179911000Y-63625000I186000J0D01*
G01*
X180289000Y-63625000D01*
G75*
G02*
X180475000Y-63811000I0J-186000D01*
G01*
G37*
G36*
G01*
X181475000Y-62811000D02*
X181475000Y-63189000D01*
G75*
G02*
X181289000Y-63375000I-186000J0D01*
G01*
X180911000Y-63375000D01*
G75*
G02*
X180725000Y-63189000I0J186000D01*
G01*
X180725000Y-62811000D01*
G75*
G02*
X180911000Y-62625000I186000J0D01*
G01*
X181289000Y-62625000D01*
G75*
G02*
X181475000Y-62811000I0J-186000D01*
G01*
G37*
G36*
G01*
X181475000Y-63811000D02*
X181475000Y-64189000D01*
G75*
G02*
X181289000Y-64375000I-186000J0D01*
G01*
X180911000Y-64375000D01*
G75*
G02*
X180725000Y-64189000I0J186000D01*
G01*
X180725000Y-63811000D01*
G75*
G02*
X180911000Y-63625000I186000J0D01*
G01*
X181289000Y-63625000D01*
G75*
G02*
X181475000Y-63811000I0J-186000D01*
G01*
G37*
G36*
G01*
X181712500Y-65141250D02*
X181712500Y-65658750D01*
G75*
G02*
X181656250Y-65715000I-56250J0D01*
G01*
X181543750Y-65715000D01*
G75*
G02*
X181487500Y-65658750I0J56250D01*
G01*
X181487500Y-65141250D01*
G75*
G02*
X181543750Y-65085000I56250J0D01*
G01*
X181656250Y-65085000D01*
G75*
G02*
X181712500Y-65141250I0J-56250D01*
G01*
G37*
G36*
G01*
X181212500Y-65141250D02*
X181212500Y-65658750D01*
G75*
G02*
X181156250Y-65715000I-56250J0D01*
G01*
X181043750Y-65715000D01*
G75*
G02*
X180987500Y-65658750I0J56250D01*
G01*
X180987500Y-65141250D01*
G75*
G02*
X181043750Y-65085000I56250J0D01*
G01*
X181156250Y-65085000D01*
G75*
G02*
X181212500Y-65141250I0J-56250D01*
G01*
G37*
G36*
G01*
X180712500Y-65141250D02*
X180712500Y-65658750D01*
G75*
G02*
X180656250Y-65715000I-56250J0D01*
G01*
X180543750Y-65715000D01*
G75*
G02*
X180487500Y-65658750I0J56250D01*
G01*
X180487500Y-65141250D01*
G75*
G02*
X180543750Y-65085000I56250J0D01*
G01*
X180656250Y-65085000D01*
G75*
G02*
X180712500Y-65141250I0J-56250D01*
G01*
G37*
G36*
G01*
X180212500Y-65141250D02*
X180212500Y-65658750D01*
G75*
G02*
X180156250Y-65715000I-56250J0D01*
G01*
X180043750Y-65715000D01*
G75*
G02*
X179987500Y-65658750I0J56250D01*
G01*
X179987500Y-65141250D01*
G75*
G02*
X180043750Y-65085000I56250J0D01*
G01*
X180156250Y-65085000D01*
G75*
G02*
X180212500Y-65141250I0J-56250D01*
G01*
G37*
G36*
G01*
X179712500Y-65141250D02*
X179712500Y-65658750D01*
G75*
G02*
X179656250Y-65715000I-56250J0D01*
G01*
X179543750Y-65715000D01*
G75*
G02*
X179487500Y-65658750I0J56250D01*
G01*
X179487500Y-65141250D01*
G75*
G02*
X179543750Y-65085000I56250J0D01*
G01*
X179656250Y-65085000D01*
G75*
G02*
X179712500Y-65141250I0J-56250D01*
G01*
G37*
G36*
G01*
X179015000Y-64443750D02*
X179015000Y-64556250D01*
G75*
G02*
X178958750Y-64612500I-56250J0D01*
G01*
X178441250Y-64612500D01*
G75*
G02*
X178385000Y-64556250I0J56250D01*
G01*
X178385000Y-64443750D01*
G75*
G02*
X178441250Y-64387500I56250J0D01*
G01*
X178958750Y-64387500D01*
G75*
G02*
X179015000Y-64443750I0J-56250D01*
G01*
G37*
G36*
G01*
X179015000Y-63943750D02*
X179015000Y-64056250D01*
G75*
G02*
X178958750Y-64112500I-56250J0D01*
G01*
X178441250Y-64112500D01*
G75*
G02*
X178385000Y-64056250I0J56250D01*
G01*
X178385000Y-63943750D01*
G75*
G02*
X178441250Y-63887500I56250J0D01*
G01*
X178958750Y-63887500D01*
G75*
G02*
X179015000Y-63943750I0J-56250D01*
G01*
G37*
G36*
G01*
X179015000Y-63443750D02*
X179015000Y-63556250D01*
G75*
G02*
X178958750Y-63612500I-56250J0D01*
G01*
X178441250Y-63612500D01*
G75*
G02*
X178385000Y-63556250I0J56250D01*
G01*
X178385000Y-63443750D01*
G75*
G02*
X178441250Y-63387500I56250J0D01*
G01*
X178958750Y-63387500D01*
G75*
G02*
X179015000Y-63443750I0J-56250D01*
G01*
G37*
G36*
G01*
X179015000Y-62943750D02*
X179015000Y-63056250D01*
G75*
G02*
X178958750Y-63112500I-56250J0D01*
G01*
X178441250Y-63112500D01*
G75*
G02*
X178385000Y-63056250I0J56250D01*
G01*
X178385000Y-62943750D01*
G75*
G02*
X178441250Y-62887500I56250J0D01*
G01*
X178958750Y-62887500D01*
G75*
G02*
X179015000Y-62943750I0J-56250D01*
G01*
G37*
G36*
G01*
X179015000Y-62443750D02*
X179015000Y-62556250D01*
G75*
G02*
X178958750Y-62612500I-56250J0D01*
G01*
X178441250Y-62612500D01*
G75*
G02*
X178385000Y-62556250I0J56250D01*
G01*
X178385000Y-62443750D01*
G75*
G02*
X178441250Y-62387500I56250J0D01*
G01*
X178958750Y-62387500D01*
G75*
G02*
X179015000Y-62443750I0J-56250D01*
G01*
G37*
G36*
G01*
X179712500Y-61341250D02*
X179712500Y-61858750D01*
G75*
G02*
X179656250Y-61915000I-56250J0D01*
G01*
X179543750Y-61915000D01*
G75*
G02*
X179487500Y-61858750I0J56250D01*
G01*
X179487500Y-61341250D01*
G75*
G02*
X179543750Y-61285000I56250J0D01*
G01*
X179656250Y-61285000D01*
G75*
G02*
X179712500Y-61341250I0J-56250D01*
G01*
G37*
G36*
G01*
X180212500Y-61341250D02*
X180212500Y-61858750D01*
G75*
G02*
X180156250Y-61915000I-56250J0D01*
G01*
X180043750Y-61915000D01*
G75*
G02*
X179987500Y-61858750I0J56250D01*
G01*
X179987500Y-61341250D01*
G75*
G02*
X180043750Y-61285000I56250J0D01*
G01*
X180156250Y-61285000D01*
G75*
G02*
X180212500Y-61341250I0J-56250D01*
G01*
G37*
G36*
G01*
X180712500Y-61341250D02*
X180712500Y-61858750D01*
G75*
G02*
X180656250Y-61915000I-56250J0D01*
G01*
X180543750Y-61915000D01*
G75*
G02*
X180487500Y-61858750I0J56250D01*
G01*
X180487500Y-61341250D01*
G75*
G02*
X180543750Y-61285000I56250J0D01*
G01*
X180656250Y-61285000D01*
G75*
G02*
X180712500Y-61341250I0J-56250D01*
G01*
G37*
G36*
G01*
X181212500Y-61341250D02*
X181212500Y-61858750D01*
G75*
G02*
X181156250Y-61915000I-56250J0D01*
G01*
X181043750Y-61915000D01*
G75*
G02*
X180987500Y-61858750I0J56250D01*
G01*
X180987500Y-61341250D01*
G75*
G02*
X181043750Y-61285000I56250J0D01*
G01*
X181156250Y-61285000D01*
G75*
G02*
X181212500Y-61341250I0J-56250D01*
G01*
G37*
G36*
G01*
X181712500Y-61341250D02*
X181712500Y-61858750D01*
G75*
G02*
X181656250Y-61915000I-56250J0D01*
G01*
X181543750Y-61915000D01*
G75*
G02*
X181487500Y-61858750I0J56250D01*
G01*
X181487500Y-61341250D01*
G75*
G02*
X181543750Y-61285000I56250J0D01*
G01*
X181656250Y-61285000D01*
G75*
G02*
X181712500Y-61341250I0J-56250D01*
G01*
G37*
G36*
G01*
X182815000Y-62443750D02*
X182815000Y-62556250D01*
G75*
G02*
X182758750Y-62612500I-56250J0D01*
G01*
X182241250Y-62612500D01*
G75*
G02*
X182185000Y-62556250I0J56250D01*
G01*
X182185000Y-62443750D01*
G75*
G02*
X182241250Y-62387500I56250J0D01*
G01*
X182758750Y-62387500D01*
G75*
G02*
X182815000Y-62443750I0J-56250D01*
G01*
G37*
G36*
G01*
X182815000Y-62943750D02*
X182815000Y-63056250D01*
G75*
G02*
X182758750Y-63112500I-56250J0D01*
G01*
X182241250Y-63112500D01*
G75*
G02*
X182185000Y-63056250I0J56250D01*
G01*
X182185000Y-62943750D01*
G75*
G02*
X182241250Y-62887500I56250J0D01*
G01*
X182758750Y-62887500D01*
G75*
G02*
X182815000Y-62943750I0J-56250D01*
G01*
G37*
G36*
G01*
X182815000Y-63443750D02*
X182815000Y-63556250D01*
G75*
G02*
X182758750Y-63612500I-56250J0D01*
G01*
X182241250Y-63612500D01*
G75*
G02*
X182185000Y-63556250I0J56250D01*
G01*
X182185000Y-63443750D01*
G75*
G02*
X182241250Y-63387500I56250J0D01*
G01*
X182758750Y-63387500D01*
G75*
G02*
X182815000Y-63443750I0J-56250D01*
G01*
G37*
G36*
G01*
X182815000Y-63943750D02*
X182815000Y-64056250D01*
G75*
G02*
X182758750Y-64112500I-56250J0D01*
G01*
X182241250Y-64112500D01*
G75*
G02*
X182185000Y-64056250I0J56250D01*
G01*
X182185000Y-63943750D01*
G75*
G02*
X182241250Y-63887500I56250J0D01*
G01*
X182758750Y-63887500D01*
G75*
G02*
X182815000Y-63943750I0J-56250D01*
G01*
G37*
G36*
G01*
X182815000Y-64443750D02*
X182815000Y-64556250D01*
G75*
G02*
X182758750Y-64612500I-56250J0D01*
G01*
X182241250Y-64612500D01*
G75*
G02*
X182185000Y-64556250I0J56250D01*
G01*
X182185000Y-64443750D01*
G75*
G02*
X182241250Y-64387500I56250J0D01*
G01*
X182758750Y-64387500D01*
G75*
G02*
X182815000Y-64443750I0J-56250D01*
G01*
G37*
%TD*%
%TO.C,Reg1*%
G36*
G01*
X177610000Y-70240000D02*
X177610000Y-69740000D01*
G75*
G02*
X177860000Y-69490000I250000J0D01*
G01*
X178560000Y-69490000D01*
G75*
G02*
X178810000Y-69740000I0J-250000D01*
G01*
X178810000Y-70240000D01*
G75*
G02*
X178560000Y-70490000I-250000J0D01*
G01*
X177860000Y-70490000D01*
G75*
G02*
X177610000Y-70240000I0J250000D01*
G01*
G37*
G36*
G01*
X177610000Y-69090000D02*
X177610000Y-68590000D01*
G75*
G02*
X177860000Y-68340000I250000J0D01*
G01*
X178560000Y-68340000D01*
G75*
G02*
X178810000Y-68590000I0J-250000D01*
G01*
X178810000Y-69090000D01*
G75*
G02*
X178560000Y-69340000I-250000J0D01*
G01*
X177860000Y-69340000D01*
G75*
G02*
X177610000Y-69090000I0J250000D01*
G01*
G37*
G36*
G01*
X177610000Y-67940000D02*
X177610000Y-67440000D01*
G75*
G02*
X177860000Y-67190000I250000J0D01*
G01*
X178560000Y-67190000D01*
G75*
G02*
X178810000Y-67440000I0J-250000D01*
G01*
X178810000Y-67940000D01*
G75*
G02*
X178560000Y-68190000I-250000J0D01*
G01*
X177860000Y-68190000D01*
G75*
G02*
X177610000Y-67940000I0J250000D01*
G01*
G37*
G36*
G01*
X174610000Y-69090000D02*
X174610000Y-68590000D01*
G75*
G02*
X174860000Y-68340000I250000J0D01*
G01*
X175560000Y-68340000D01*
G75*
G02*
X175810000Y-68590000I0J-250000D01*
G01*
X175810000Y-69090000D01*
G75*
G02*
X175560000Y-69340000I-250000J0D01*
G01*
X174860000Y-69340000D01*
G75*
G02*
X174610000Y-69090000I0J250000D01*
G01*
G37*
G36*
G01*
X174610000Y-70240000D02*
X174610000Y-69740000D01*
G75*
G02*
X174860000Y-69490000I250000J0D01*
G01*
X175560000Y-69490000D01*
G75*
G02*
X175810000Y-69740000I0J-250000D01*
G01*
X175810000Y-70240000D01*
G75*
G02*
X175560000Y-70490000I-250000J0D01*
G01*
X174860000Y-70490000D01*
G75*
G02*
X174610000Y-70240000I0J250000D01*
G01*
G37*
G36*
G01*
X174610000Y-67940000D02*
X174610000Y-67440000D01*
G75*
G02*
X174860000Y-67190000I250000J0D01*
G01*
X175560000Y-67190000D01*
G75*
G02*
X175810000Y-67440000I0J-250000D01*
G01*
X175810000Y-67940000D01*
G75*
G02*
X175560000Y-68190000I-250000J0D01*
G01*
X174860000Y-68190000D01*
G75*
G02*
X174610000Y-67940000I0J250000D01*
G01*
G37*
D10*
X173760000Y-67440000D03*
X171860000Y-67440000D03*
X172810000Y-67440000D03*
X171860000Y-70140000D03*
X172810000Y-70140000D03*
X173760000Y-70140000D03*
G36*
G01*
X177782500Y-70940000D02*
X178637500Y-70940000D01*
G75*
G02*
X178862500Y-71165000I0J-225000D01*
G01*
X178862500Y-71615000D01*
G75*
G02*
X178637500Y-71840000I-225000J0D01*
G01*
X177782500Y-71840000D01*
G75*
G02*
X177557500Y-71615000I0J225000D01*
G01*
X177557500Y-71165000D01*
G75*
G02*
X177782500Y-70940000I225000J0D01*
G01*
G37*
G36*
G01*
X177782500Y-72840000D02*
X178637500Y-72840000D01*
G75*
G02*
X178862500Y-73065000I0J-225000D01*
G01*
X178862500Y-73515000D01*
G75*
G02*
X178637500Y-73740000I-225000J0D01*
G01*
X177782500Y-73740000D01*
G75*
G02*
X177557500Y-73515000I0J225000D01*
G01*
X177557500Y-73065000D01*
G75*
G02*
X177782500Y-72840000I225000J0D01*
G01*
G37*
G36*
G01*
X171532500Y-72840000D02*
X172387500Y-72840000D01*
G75*
G02*
X172612500Y-73065000I0J-225000D01*
G01*
X172612500Y-73515000D01*
G75*
G02*
X172387500Y-73740000I-225000J0D01*
G01*
X171532500Y-73740000D01*
G75*
G02*
X171307500Y-73515000I0J225000D01*
G01*
X171307500Y-73065000D01*
G75*
G02*
X171532500Y-72840000I225000J0D01*
G01*
G37*
G36*
G01*
X171532500Y-70940000D02*
X172387500Y-70940000D01*
G75*
G02*
X172612500Y-71165000I0J-225000D01*
G01*
X172612500Y-71615000D01*
G75*
G02*
X172387500Y-71840000I-225000J0D01*
G01*
X171532500Y-71840000D01*
G75*
G02*
X171307500Y-71615000I0J225000D01*
G01*
X171307500Y-71165000D01*
G75*
G02*
X171532500Y-70940000I225000J0D01*
G01*
G37*
G36*
G01*
X170935000Y-68420000D02*
X170485000Y-68420000D01*
G75*
G02*
X170282500Y-68217500I0J202500D01*
G01*
X170282500Y-67812500D01*
G75*
G02*
X170485000Y-67610000I202500J0D01*
G01*
X170935000Y-67610000D01*
G75*
G02*
X171137500Y-67812500I0J-202500D01*
G01*
X171137500Y-68217500D01*
G75*
G02*
X170935000Y-68420000I-202500J0D01*
G01*
G37*
G36*
G01*
X170935000Y-69970000D02*
X170485000Y-69970000D01*
G75*
G02*
X170282500Y-69767500I0J202500D01*
G01*
X170282500Y-69362500D01*
G75*
G02*
X170485000Y-69160000I202500J0D01*
G01*
X170935000Y-69160000D01*
G75*
G02*
X171137500Y-69362500I0J-202500D01*
G01*
X171137500Y-69767500D01*
G75*
G02*
X170935000Y-69970000I-202500J0D01*
G01*
G37*
G36*
G01*
X172956250Y-72523064D02*
X172956250Y-71396936D01*
G75*
G02*
X173180686Y-71172500I224436J0D01*
G01*
X174014314Y-71172500D01*
G75*
G02*
X174238750Y-71396936I0J-224436D01*
G01*
X174238750Y-72523064D01*
G75*
G02*
X174014314Y-72747500I-224436J0D01*
G01*
X173180686Y-72747500D01*
G75*
G02*
X172956250Y-72523064I0J224436D01*
G01*
G37*
G36*
G01*
X175931250Y-72523064D02*
X175931250Y-71396936D01*
G75*
G02*
X176155686Y-71172500I224436J0D01*
G01*
X176989314Y-71172500D01*
G75*
G02*
X177213750Y-71396936I0J-224436D01*
G01*
X177213750Y-72523064D01*
G75*
G02*
X176989314Y-72747500I-224436J0D01*
G01*
X176155686Y-72747500D01*
G75*
G02*
X175931250Y-72523064I0J224436D01*
G01*
G37*
%TD*%
%TO.C,R6*%
G36*
G01*
X175752500Y-64465000D02*
X176247500Y-64465000D01*
G75*
G02*
X176427500Y-64645000I0J-180000D01*
G01*
X176427500Y-65005000D01*
G75*
G02*
X176247500Y-65185000I-180000J0D01*
G01*
X175752500Y-65185000D01*
G75*
G02*
X175572500Y-65005000I0J180000D01*
G01*
X175572500Y-64645000D01*
G75*
G02*
X175752500Y-64465000I180000J0D01*
G01*
G37*
G36*
G01*
X175752500Y-62815000D02*
X176247500Y-62815000D01*
G75*
G02*
X176427500Y-62995000I0J-180000D01*
G01*
X176427500Y-63355000D01*
G75*
G02*
X176247500Y-63535000I-180000J0D01*
G01*
X175752500Y-63535000D01*
G75*
G02*
X175572500Y-63355000I0J180000D01*
G01*
X175572500Y-62995000D01*
G75*
G02*
X175752500Y-62815000I180000J0D01*
G01*
G37*
%TD*%
%TO.C,R5*%
G36*
G01*
X181865000Y-74647500D02*
X181865000Y-74152500D01*
G75*
G02*
X182045000Y-73972500I180000J0D01*
G01*
X182405000Y-73972500D01*
G75*
G02*
X182585000Y-74152500I0J-180000D01*
G01*
X182585000Y-74647500D01*
G75*
G02*
X182405000Y-74827500I-180000J0D01*
G01*
X182045000Y-74827500D01*
G75*
G02*
X181865000Y-74647500I0J180000D01*
G01*
G37*
G36*
G01*
X180215000Y-74647500D02*
X180215000Y-74152500D01*
G75*
G02*
X180395000Y-73972500I180000J0D01*
G01*
X180755000Y-73972500D01*
G75*
G02*
X180935000Y-74152500I0J-180000D01*
G01*
X180935000Y-74647500D01*
G75*
G02*
X180755000Y-74827500I-180000J0D01*
G01*
X180395000Y-74827500D01*
G75*
G02*
X180215000Y-74647500I0J180000D01*
G01*
G37*
%TD*%
%TO.C,R4*%
G36*
G01*
X181865000Y-73247500D02*
X181865000Y-72752500D01*
G75*
G02*
X182045000Y-72572500I180000J0D01*
G01*
X182405000Y-72572500D01*
G75*
G02*
X182585000Y-72752500I0J-180000D01*
G01*
X182585000Y-73247500D01*
G75*
G02*
X182405000Y-73427500I-180000J0D01*
G01*
X182045000Y-73427500D01*
G75*
G02*
X181865000Y-73247500I0J180000D01*
G01*
G37*
G36*
G01*
X180215000Y-73247500D02*
X180215000Y-72752500D01*
G75*
G02*
X180395000Y-72572500I180000J0D01*
G01*
X180755000Y-72572500D01*
G75*
G02*
X180935000Y-72752500I0J-180000D01*
G01*
X180935000Y-73247500D01*
G75*
G02*
X180755000Y-73427500I-180000J0D01*
G01*
X180395000Y-73427500D01*
G75*
G02*
X180215000Y-73247500I0J180000D01*
G01*
G37*
%TD*%
%TO.C,R3*%
G36*
G01*
X170752500Y-78465000D02*
X171247500Y-78465000D01*
G75*
G02*
X171427500Y-78645000I0J-180000D01*
G01*
X171427500Y-79005000D01*
G75*
G02*
X171247500Y-79185000I-180000J0D01*
G01*
X170752500Y-79185000D01*
G75*
G02*
X170572500Y-79005000I0J180000D01*
G01*
X170572500Y-78645000D01*
G75*
G02*
X170752500Y-78465000I180000J0D01*
G01*
G37*
G36*
G01*
X170752500Y-76815000D02*
X171247500Y-76815000D01*
G75*
G02*
X171427500Y-76995000I0J-180000D01*
G01*
X171427500Y-77355000D01*
G75*
G02*
X171247500Y-77535000I-180000J0D01*
G01*
X170752500Y-77535000D01*
G75*
G02*
X170572500Y-77355000I0J180000D01*
G01*
X170572500Y-76995000D01*
G75*
G02*
X170752500Y-76815000I180000J0D01*
G01*
G37*
%TD*%
%TO.C,R2*%
G36*
G01*
X183547500Y-77635000D02*
X183052500Y-77635000D01*
G75*
G02*
X182872500Y-77455000I0J180000D01*
G01*
X182872500Y-77095000D01*
G75*
G02*
X183052500Y-76915000I180000J0D01*
G01*
X183547500Y-76915000D01*
G75*
G02*
X183727500Y-77095000I0J-180000D01*
G01*
X183727500Y-77455000D01*
G75*
G02*
X183547500Y-77635000I-180000J0D01*
G01*
G37*
G36*
G01*
X183547500Y-79285000D02*
X183052500Y-79285000D01*
G75*
G02*
X182872500Y-79105000I0J180000D01*
G01*
X182872500Y-78745000D01*
G75*
G02*
X183052500Y-78565000I180000J0D01*
G01*
X183547500Y-78565000D01*
G75*
G02*
X183727500Y-78745000I0J-180000D01*
G01*
X183727500Y-79105000D01*
G75*
G02*
X183547500Y-79285000I-180000J0D01*
G01*
G37*
%TD*%
%TO.C,R1*%
G36*
G01*
X183052500Y-81465000D02*
X183547500Y-81465000D01*
G75*
G02*
X183727500Y-81645000I0J-180000D01*
G01*
X183727500Y-82005000D01*
G75*
G02*
X183547500Y-82185000I-180000J0D01*
G01*
X183052500Y-82185000D01*
G75*
G02*
X182872500Y-82005000I0J180000D01*
G01*
X182872500Y-81645000D01*
G75*
G02*
X183052500Y-81465000I180000J0D01*
G01*
G37*
G36*
G01*
X183052500Y-79815000D02*
X183547500Y-79815000D01*
G75*
G02*
X183727500Y-79995000I0J-180000D01*
G01*
X183727500Y-80355000D01*
G75*
G02*
X183547500Y-80535000I-180000J0D01*
G01*
X183052500Y-80535000D01*
G75*
G02*
X182872500Y-80355000I0J180000D01*
G01*
X182872500Y-79995000D01*
G75*
G02*
X183052500Y-79815000I180000J0D01*
G01*
G37*
%TD*%
%TO.C,C1*%
G36*
G01*
X176130000Y-60675000D02*
X176130000Y-61125000D01*
G75*
G02*
X175927500Y-61327500I-202500J0D01*
G01*
X175522500Y-61327500D01*
G75*
G02*
X175320000Y-61125000I0J202500D01*
G01*
X175320000Y-60675000D01*
G75*
G02*
X175522500Y-60472500I202500J0D01*
G01*
X175927500Y-60472500D01*
G75*
G02*
X176130000Y-60675000I0J-202500D01*
G01*
G37*
G36*
G01*
X177680000Y-60675000D02*
X177680000Y-61125000D01*
G75*
G02*
X177477500Y-61327500I-202500J0D01*
G01*
X177072500Y-61327500D01*
G75*
G02*
X176870000Y-61125000I0J202500D01*
G01*
X176870000Y-60675000D01*
G75*
G02*
X177072500Y-60472500I202500J0D01*
G01*
X177477500Y-60472500D01*
G75*
G02*
X177680000Y-60675000I0J-202500D01*
G01*
G37*
%TD*%
%TO.C,D1*%
G36*
G01*
X171213750Y-80597500D02*
X170786250Y-80597500D01*
G75*
G02*
X170572500Y-80383750I0J213750D01*
G01*
X170572500Y-79866250D01*
G75*
G02*
X170786250Y-79652500I213750J0D01*
G01*
X171213750Y-79652500D01*
G75*
G02*
X171427500Y-79866250I0J-213750D01*
G01*
X171427500Y-80383750D01*
G75*
G02*
X171213750Y-80597500I-213750J0D01*
G01*
G37*
G36*
G01*
X171213750Y-82347500D02*
X170786250Y-82347500D01*
G75*
G02*
X170572500Y-82133750I0J213750D01*
G01*
X170572500Y-81616250D01*
G75*
G02*
X170786250Y-81402500I213750J0D01*
G01*
X171213750Y-81402500D01*
G75*
G02*
X171427500Y-81616250I0J-213750D01*
G01*
X171427500Y-82133750D01*
G75*
G02*
X171213750Y-82347500I-213750J0D01*
G01*
G37*
%TD*%
D11*
%TO.C,U2*%
X171230000Y-64900000D03*
X173770000Y-64900000D03*
X173770000Y-58900000D03*
X171230000Y-58900000D03*
%TD*%
%TO.C,J4*%
G36*
G01*
X175950000Y-79947500D02*
X175950000Y-79482500D01*
G75*
G02*
X176182500Y-79250000I232500J0D01*
G01*
X176647500Y-79250000D01*
G75*
G02*
X176880000Y-79482500I0J-232500D01*
G01*
X176880000Y-79947500D01*
G75*
G02*
X176647500Y-80180000I-232500J0D01*
G01*
X176182500Y-80180000D01*
G75*
G02*
X175950000Y-79947500I0J232500D01*
G01*
G37*
G36*
G01*
X175950000Y-81097500D02*
X175950000Y-80632500D01*
G75*
G02*
X176182500Y-80400000I232500J0D01*
G01*
X176647500Y-80400000D01*
G75*
G02*
X176880000Y-80632500I0J-232500D01*
G01*
X176880000Y-81097500D01*
G75*
G02*
X176647500Y-81330000I-232500J0D01*
G01*
X176182500Y-81330000D01*
G75*
G02*
X175950000Y-81097500I0J232500D01*
G01*
G37*
G36*
G01*
X175950000Y-82247500D02*
X175950000Y-81782500D01*
G75*
G02*
X176182500Y-81550000I232500J0D01*
G01*
X176647500Y-81550000D01*
G75*
G02*
X176880000Y-81782500I0J-232500D01*
G01*
X176880000Y-82247500D01*
G75*
G02*
X176647500Y-82480000I-232500J0D01*
G01*
X176182500Y-82480000D01*
G75*
G02*
X175950000Y-82247500I0J232500D01*
G01*
G37*
G36*
G01*
X177100000Y-78797500D02*
X177100000Y-78332500D01*
G75*
G02*
X177332500Y-78100000I232500J0D01*
G01*
X177797500Y-78100000D01*
G75*
G02*
X178030000Y-78332500I0J-232500D01*
G01*
X178030000Y-78797500D01*
G75*
G02*
X177797500Y-79030000I-232500J0D01*
G01*
X177332500Y-79030000D01*
G75*
G02*
X177100000Y-78797500I0J232500D01*
G01*
G37*
G36*
G01*
X177100000Y-79947500D02*
X177100000Y-79482500D01*
G75*
G02*
X177332500Y-79250000I232500J0D01*
G01*
X177797500Y-79250000D01*
G75*
G02*
X178030000Y-79482500I0J-232500D01*
G01*
X178030000Y-79947500D01*
G75*
G02*
X177797500Y-80180000I-232500J0D01*
G01*
X177332500Y-80180000D01*
G75*
G02*
X177100000Y-79947500I0J232500D01*
G01*
G37*
G36*
G01*
X177100000Y-81097500D02*
X177100000Y-80632500D01*
G75*
G02*
X177332500Y-80400000I232500J0D01*
G01*
X177797500Y-80400000D01*
G75*
G02*
X178030000Y-80632500I0J-232500D01*
G01*
X178030000Y-81097500D01*
G75*
G02*
X177797500Y-81330000I-232500J0D01*
G01*
X177332500Y-81330000D01*
G75*
G02*
X177100000Y-81097500I0J232500D01*
G01*
G37*
G36*
G01*
X177100000Y-82247500D02*
X177100000Y-81782500D01*
G75*
G02*
X177332500Y-81550000I232500J0D01*
G01*
X177797500Y-81550000D01*
G75*
G02*
X178030000Y-81782500I0J-232500D01*
G01*
X178030000Y-82247500D01*
G75*
G02*
X177797500Y-82480000I-232500J0D01*
G01*
X177332500Y-82480000D01*
G75*
G02*
X177100000Y-82247500I0J232500D01*
G01*
G37*
G36*
G01*
X178250000Y-78797500D02*
X178250000Y-78332500D01*
G75*
G02*
X178482500Y-78100000I232500J0D01*
G01*
X178947500Y-78100000D01*
G75*
G02*
X179180000Y-78332500I0J-232500D01*
G01*
X179180000Y-78797500D01*
G75*
G02*
X178947500Y-79030000I-232500J0D01*
G01*
X178482500Y-79030000D01*
G75*
G02*
X178250000Y-78797500I0J232500D01*
G01*
G37*
G36*
G01*
X178250000Y-79947500D02*
X178250000Y-79482500D01*
G75*
G02*
X178482500Y-79250000I232500J0D01*
G01*
X178947500Y-79250000D01*
G75*
G02*
X179180000Y-79482500I0J-232500D01*
G01*
X179180000Y-79947500D01*
G75*
G02*
X178947500Y-80180000I-232500J0D01*
G01*
X178482500Y-80180000D01*
G75*
G02*
X178250000Y-79947500I0J232500D01*
G01*
G37*
G36*
G01*
X178250000Y-81097500D02*
X178250000Y-80632500D01*
G75*
G02*
X178482500Y-80400000I232500J0D01*
G01*
X178947500Y-80400000D01*
G75*
G02*
X179180000Y-80632500I0J-232500D01*
G01*
X179180000Y-81097500D01*
G75*
G02*
X178947500Y-81330000I-232500J0D01*
G01*
X178482500Y-81330000D01*
G75*
G02*
X178250000Y-81097500I0J232500D01*
G01*
G37*
G36*
G01*
X178250000Y-82247500D02*
X178250000Y-81782500D01*
G75*
G02*
X178482500Y-81550000I232500J0D01*
G01*
X178947500Y-81550000D01*
G75*
G02*
X179180000Y-81782500I0J-232500D01*
G01*
X179180000Y-82247500D01*
G75*
G02*
X178947500Y-82480000I-232500J0D01*
G01*
X178482500Y-82480000D01*
G75*
G02*
X178250000Y-82247500I0J232500D01*
G01*
G37*
G36*
G01*
X174800000Y-78797500D02*
X174800000Y-78332500D01*
G75*
G02*
X175032500Y-78100000I232500J0D01*
G01*
X175497500Y-78100000D01*
G75*
G02*
X175730000Y-78332500I0J-232500D01*
G01*
X175730000Y-78797500D01*
G75*
G02*
X175497500Y-79030000I-232500J0D01*
G01*
X175032500Y-79030000D01*
G75*
G02*
X174800000Y-78797500I0J232500D01*
G01*
G37*
G36*
G01*
X174800000Y-79947500D02*
X174800000Y-79482500D01*
G75*
G02*
X175032500Y-79250000I232500J0D01*
G01*
X175497500Y-79250000D01*
G75*
G02*
X175730000Y-79482500I0J-232500D01*
G01*
X175730000Y-79947500D01*
G75*
G02*
X175497500Y-80180000I-232500J0D01*
G01*
X175032500Y-80180000D01*
G75*
G02*
X174800000Y-79947500I0J232500D01*
G01*
G37*
G36*
G01*
X174800000Y-81097500D02*
X174800000Y-80632500D01*
G75*
G02*
X175032500Y-80400000I232500J0D01*
G01*
X175497500Y-80400000D01*
G75*
G02*
X175730000Y-80632500I0J-232500D01*
G01*
X175730000Y-81097500D01*
G75*
G02*
X175497500Y-81330000I-232500J0D01*
G01*
X175032500Y-81330000D01*
G75*
G02*
X174800000Y-81097500I0J232500D01*
G01*
G37*
G36*
G01*
X174800000Y-82247500D02*
X174800000Y-81782500D01*
G75*
G02*
X175032500Y-81550000I232500J0D01*
G01*
X175497500Y-81550000D01*
G75*
G02*
X175730000Y-81782500I0J-232500D01*
G01*
X175730000Y-82247500D01*
G75*
G02*
X175497500Y-82480000I-232500J0D01*
G01*
X175032500Y-82480000D01*
G75*
G02*
X174800000Y-82247500I0J232500D01*
G01*
G37*
G36*
G01*
X175950000Y-78797500D02*
X175950000Y-78332500D01*
G75*
G02*
X176182500Y-78100000I232500J0D01*
G01*
X176647500Y-78100000D01*
G75*
G02*
X176880000Y-78332500I0J-232500D01*
G01*
X176880000Y-78797500D01*
G75*
G02*
X176647500Y-79030000I-232500J0D01*
G01*
X176182500Y-79030000D01*
G75*
G02*
X175950000Y-78797500I0J232500D01*
G01*
G37*
D12*
X174600000Y-76140000D03*
X179400000Y-76140000D03*
D13*
X177250000Y-76140000D03*
X176750000Y-76140000D03*
X177750000Y-76140000D03*
X176250000Y-76140000D03*
X178250000Y-76140000D03*
X175750000Y-76140000D03*
X178750000Y-76140000D03*
X175250000Y-76140000D03*
D12*
X180200000Y-76140000D03*
X173800000Y-76140000D03*
%TD*%
M02*
