%TF.GenerationSoftware,KiCad,Pcbnew,(5.1.10-1-10_14)*%
%TF.CreationDate,2021-05-12T08:07:51+01:00*%
%TF.ProjectId,Shelly,5368656c-6c79-42e6-9b69-6361645f7063,4*%
%TF.SameCoordinates,Original*%
%TF.FileFunction,Soldermask,Top*%
%TF.FilePolarity,Negative*%
%FSLAX46Y46*%
G04 Gerber Fmt 4.6, Leading zero omitted, Abs format (unit mm)*
G04 Created by KiCad (PCBNEW (5.1.10-1-10_14)) date 2021-05-12 08:07:51*
%MOMM*%
%LPD*%
G01*
G04 APERTURE LIST*
%ADD10O,1.700000X1.700000*%
%ADD11R,1.700000X1.700000*%
%ADD12R,3.700000X1.100000*%
%ADD13R,1.560000X0.650000*%
%ADD14R,0.800000X1.200000*%
%ADD15R,8.340000X5.490000*%
%ADD16R,0.600000X1.140000*%
%ADD17C,1.700000*%
%ADD18C,2.000000*%
%ADD19R,0.300000X1.140000*%
%ADD20C,0.100000*%
%ADD21R,2.000000X1.750000*%
%ADD22C,0.350000*%
%ADD23C,0.500000*%
%ADD24R,1.750000X2.000000*%
%ADD25O,1.000000X1.000000*%
%ADD26R,1.000000X1.000000*%
G04 APERTURE END LIST*
D10*
%TO.C,J1*%
X172040000Y-56100000D03*
X174580000Y-56100000D03*
X177120000Y-56100000D03*
X179660000Y-56100000D03*
D11*
X182200000Y-56100000D03*
%TD*%
%TO.C,R6*%
G36*
G01*
X175725000Y-64425000D02*
X176275000Y-64425000D01*
G75*
G02*
X176475000Y-64625000I0J-200000D01*
G01*
X176475000Y-65025000D01*
G75*
G02*
X176275000Y-65225000I-200000J0D01*
G01*
X175725000Y-65225000D01*
G75*
G02*
X175525000Y-65025000I0J200000D01*
G01*
X175525000Y-64625000D01*
G75*
G02*
X175725000Y-64425000I200000J0D01*
G01*
G37*
G36*
G01*
X175725000Y-62775000D02*
X176275000Y-62775000D01*
G75*
G02*
X176475000Y-62975000I0J-200000D01*
G01*
X176475000Y-63375000D01*
G75*
G02*
X176275000Y-63575000I-200000J0D01*
G01*
X175725000Y-63575000D01*
G75*
G02*
X175525000Y-63375000I0J200000D01*
G01*
X175525000Y-62975000D01*
G75*
G02*
X175725000Y-62775000I200000J0D01*
G01*
G37*
%TD*%
%TO.C,R5*%
G36*
G01*
X181825000Y-74675000D02*
X181825000Y-74125000D01*
G75*
G02*
X182025000Y-73925000I200000J0D01*
G01*
X182425000Y-73925000D01*
G75*
G02*
X182625000Y-74125000I0J-200000D01*
G01*
X182625000Y-74675000D01*
G75*
G02*
X182425000Y-74875000I-200000J0D01*
G01*
X182025000Y-74875000D01*
G75*
G02*
X181825000Y-74675000I0J200000D01*
G01*
G37*
G36*
G01*
X180175000Y-74675000D02*
X180175000Y-74125000D01*
G75*
G02*
X180375000Y-73925000I200000J0D01*
G01*
X180775000Y-73925000D01*
G75*
G02*
X180975000Y-74125000I0J-200000D01*
G01*
X180975000Y-74675000D01*
G75*
G02*
X180775000Y-74875000I-200000J0D01*
G01*
X180375000Y-74875000D01*
G75*
G02*
X180175000Y-74675000I0J200000D01*
G01*
G37*
%TD*%
%TO.C,R4*%
G36*
G01*
X181825000Y-73275000D02*
X181825000Y-72725000D01*
G75*
G02*
X182025000Y-72525000I200000J0D01*
G01*
X182425000Y-72525000D01*
G75*
G02*
X182625000Y-72725000I0J-200000D01*
G01*
X182625000Y-73275000D01*
G75*
G02*
X182425000Y-73475000I-200000J0D01*
G01*
X182025000Y-73475000D01*
G75*
G02*
X181825000Y-73275000I0J200000D01*
G01*
G37*
G36*
G01*
X180175000Y-73275000D02*
X180175000Y-72725000D01*
G75*
G02*
X180375000Y-72525000I200000J0D01*
G01*
X180775000Y-72525000D01*
G75*
G02*
X180975000Y-72725000I0J-200000D01*
G01*
X180975000Y-73275000D01*
G75*
G02*
X180775000Y-73475000I-200000J0D01*
G01*
X180375000Y-73475000D01*
G75*
G02*
X180175000Y-73275000I0J200000D01*
G01*
G37*
%TD*%
%TO.C,R3*%
G36*
G01*
X170725000Y-78425000D02*
X171275000Y-78425000D01*
G75*
G02*
X171475000Y-78625000I0J-200000D01*
G01*
X171475000Y-79025000D01*
G75*
G02*
X171275000Y-79225000I-200000J0D01*
G01*
X170725000Y-79225000D01*
G75*
G02*
X170525000Y-79025000I0J200000D01*
G01*
X170525000Y-78625000D01*
G75*
G02*
X170725000Y-78425000I200000J0D01*
G01*
G37*
G36*
G01*
X170725000Y-76775000D02*
X171275000Y-76775000D01*
G75*
G02*
X171475000Y-76975000I0J-200000D01*
G01*
X171475000Y-77375000D01*
G75*
G02*
X171275000Y-77575000I-200000J0D01*
G01*
X170725000Y-77575000D01*
G75*
G02*
X170525000Y-77375000I0J200000D01*
G01*
X170525000Y-76975000D01*
G75*
G02*
X170725000Y-76775000I200000J0D01*
G01*
G37*
%TD*%
%TO.C,R2*%
G36*
G01*
X183575000Y-77675000D02*
X183025000Y-77675000D01*
G75*
G02*
X182825000Y-77475000I0J200000D01*
G01*
X182825000Y-77075000D01*
G75*
G02*
X183025000Y-76875000I200000J0D01*
G01*
X183575000Y-76875000D01*
G75*
G02*
X183775000Y-77075000I0J-200000D01*
G01*
X183775000Y-77475000D01*
G75*
G02*
X183575000Y-77675000I-200000J0D01*
G01*
G37*
G36*
G01*
X183575000Y-79325000D02*
X183025000Y-79325000D01*
G75*
G02*
X182825000Y-79125000I0J200000D01*
G01*
X182825000Y-78725000D01*
G75*
G02*
X183025000Y-78525000I200000J0D01*
G01*
X183575000Y-78525000D01*
G75*
G02*
X183775000Y-78725000I0J-200000D01*
G01*
X183775000Y-79125000D01*
G75*
G02*
X183575000Y-79325000I-200000J0D01*
G01*
G37*
%TD*%
%TO.C,R1*%
G36*
G01*
X183025000Y-81425000D02*
X183575000Y-81425000D01*
G75*
G02*
X183775000Y-81625000I0J-200000D01*
G01*
X183775000Y-82025000D01*
G75*
G02*
X183575000Y-82225000I-200000J0D01*
G01*
X183025000Y-82225000D01*
G75*
G02*
X182825000Y-82025000I0J200000D01*
G01*
X182825000Y-81625000D01*
G75*
G02*
X183025000Y-81425000I200000J0D01*
G01*
G37*
G36*
G01*
X183025000Y-79775000D02*
X183575000Y-79775000D01*
G75*
G02*
X183775000Y-79975000I0J-200000D01*
G01*
X183775000Y-80375000D01*
G75*
G02*
X183575000Y-80575000I-200000J0D01*
G01*
X183025000Y-80575000D01*
G75*
G02*
X182825000Y-80375000I0J200000D01*
G01*
X182825000Y-79975000D01*
G75*
G02*
X183025000Y-79775000I200000J0D01*
G01*
G37*
%TD*%
%TO.C,C1*%
G36*
G01*
X176175000Y-60650000D02*
X176175000Y-61150000D01*
G75*
G02*
X175950000Y-61375000I-225000J0D01*
G01*
X175500000Y-61375000D01*
G75*
G02*
X175275000Y-61150000I0J225000D01*
G01*
X175275000Y-60650000D01*
G75*
G02*
X175500000Y-60425000I225000J0D01*
G01*
X175950000Y-60425000D01*
G75*
G02*
X176175000Y-60650000I0J-225000D01*
G01*
G37*
G36*
G01*
X177725000Y-60650000D02*
X177725000Y-61150000D01*
G75*
G02*
X177500000Y-61375000I-225000J0D01*
G01*
X177050000Y-61375000D01*
G75*
G02*
X176825000Y-61150000I0J225000D01*
G01*
X176825000Y-60650000D01*
G75*
G02*
X177050000Y-60425000I225000J0D01*
G01*
X177500000Y-60425000D01*
G75*
G02*
X177725000Y-60650000I0J-225000D01*
G01*
G37*
%TD*%
%TO.C,D1*%
G36*
G01*
X171237500Y-80650000D02*
X170762500Y-80650000D01*
G75*
G02*
X170525000Y-80412500I0J237500D01*
G01*
X170525000Y-79837500D01*
G75*
G02*
X170762500Y-79600000I237500J0D01*
G01*
X171237500Y-79600000D01*
G75*
G02*
X171475000Y-79837500I0J-237500D01*
G01*
X171475000Y-80412500D01*
G75*
G02*
X171237500Y-80650000I-237500J0D01*
G01*
G37*
G36*
G01*
X171237500Y-82400000D02*
X170762500Y-82400000D01*
G75*
G02*
X170525000Y-82162500I0J237500D01*
G01*
X170525000Y-81587500D01*
G75*
G02*
X170762500Y-81350000I237500J0D01*
G01*
X171237500Y-81350000D01*
G75*
G02*
X171475000Y-81587500I0J-237500D01*
G01*
X171475000Y-82162500D01*
G75*
G02*
X171237500Y-82400000I-237500J0D01*
G01*
G37*
%TD*%
%TO.C,Reg1*%
G36*
G01*
X176675627Y-70850000D02*
X175424373Y-70850000D01*
G75*
G02*
X175175000Y-70600627I0J249373D01*
G01*
X175175000Y-69674373D01*
G75*
G02*
X175424373Y-69425000I249373J0D01*
G01*
X176675627Y-69425000D01*
G75*
G02*
X176925000Y-69674373I0J-249373D01*
G01*
X176925000Y-70600627D01*
G75*
G02*
X176675627Y-70850000I-249373J0D01*
G01*
G37*
G36*
G01*
X176675627Y-67875000D02*
X175424373Y-67875000D01*
G75*
G02*
X175175000Y-67625627I0J249373D01*
G01*
X175175000Y-66699373D01*
G75*
G02*
X175424373Y-66450000I249373J0D01*
G01*
X176675627Y-66450000D01*
G75*
G02*
X176925000Y-66699373I0J-249373D01*
G01*
X176925000Y-67625627D01*
G75*
G02*
X176675627Y-67875000I-249373J0D01*
G01*
G37*
D12*
X173050000Y-67150000D03*
X173050000Y-70150000D03*
G36*
G01*
X178750450Y-67700000D02*
X177849550Y-67700000D01*
G75*
G02*
X177600000Y-67450450I0J249550D01*
G01*
X177600000Y-66799550D01*
G75*
G02*
X177849550Y-66550000I249550J0D01*
G01*
X178750450Y-66550000D01*
G75*
G02*
X179000000Y-66799550I0J-249550D01*
G01*
X179000000Y-67450450D01*
G75*
G02*
X178750450Y-67700000I-249550J0D01*
G01*
G37*
G36*
G01*
X178750450Y-69750000D02*
X177849550Y-69750000D01*
G75*
G02*
X177600000Y-69500450I0J249550D01*
G01*
X177600000Y-68849550D01*
G75*
G02*
X177849550Y-68600000I249550J0D01*
G01*
X178750450Y-68600000D01*
G75*
G02*
X179000000Y-68849550I0J-249550D01*
G01*
X179000000Y-69500450D01*
G75*
G02*
X178750450Y-69750000I-249550J0D01*
G01*
G37*
G36*
G01*
X178700000Y-72662500D02*
X178700000Y-73137500D01*
G75*
G02*
X178462500Y-73375000I-237500J0D01*
G01*
X177862500Y-73375000D01*
G75*
G02*
X177625000Y-73137500I0J237500D01*
G01*
X177625000Y-72662500D01*
G75*
G02*
X177862500Y-72425000I237500J0D01*
G01*
X178462500Y-72425000D01*
G75*
G02*
X178700000Y-72662500I0J-237500D01*
G01*
G37*
G36*
G01*
X176975000Y-72662500D02*
X176975000Y-73137500D01*
G75*
G02*
X176737500Y-73375000I-237500J0D01*
G01*
X176137500Y-73375000D01*
G75*
G02*
X175900000Y-73137500I0J237500D01*
G01*
X175900000Y-72662500D01*
G75*
G02*
X176137500Y-72425000I237500J0D01*
G01*
X176737500Y-72425000D01*
G75*
G02*
X176975000Y-72662500I0J-237500D01*
G01*
G37*
G36*
G01*
X178700000Y-71412500D02*
X178700000Y-71887500D01*
G75*
G02*
X178462500Y-72125000I-237500J0D01*
G01*
X177862500Y-72125000D01*
G75*
G02*
X177625000Y-71887500I0J237500D01*
G01*
X177625000Y-71412500D01*
G75*
G02*
X177862500Y-71175000I237500J0D01*
G01*
X178462500Y-71175000D01*
G75*
G02*
X178700000Y-71412500I0J-237500D01*
G01*
G37*
G36*
G01*
X176975000Y-71412500D02*
X176975000Y-71887500D01*
G75*
G02*
X176737500Y-72125000I-237500J0D01*
G01*
X176137500Y-72125000D01*
G75*
G02*
X175900000Y-71887500I0J237500D01*
G01*
X175900000Y-71412500D01*
G75*
G02*
X176137500Y-71175000I237500J0D01*
G01*
X176737500Y-71175000D01*
G75*
G02*
X176975000Y-71412500I0J-237500D01*
G01*
G37*
D13*
X174650000Y-73350000D03*
X174650000Y-72400000D03*
X174650000Y-71450000D03*
X171950000Y-71450000D03*
X171950000Y-73350000D03*
X171950000Y-72400000D03*
%TD*%
D14*
%TO.C,U2*%
X171230000Y-64900000D03*
X173770000Y-64900000D03*
X173770000Y-58900000D03*
X171230000Y-58900000D03*
%TD*%
D15*
%TO.C,J4*%
X177000000Y-80255000D03*
D16*
X174600000Y-76140000D03*
X179400000Y-76140000D03*
D17*
X181325000Y-80910000D03*
X172675000Y-80910000D03*
D18*
X181325000Y-76730000D03*
X172675000Y-76730000D03*
D19*
X177250000Y-76140000D03*
X176750000Y-76140000D03*
X177750000Y-76140000D03*
X176250000Y-76140000D03*
X178250000Y-76140000D03*
X175750000Y-76140000D03*
X178750000Y-76140000D03*
X175250000Y-76140000D03*
D16*
X180200000Y-76140000D03*
X173800000Y-76140000D03*
%TD*%
D20*
%TO.C,U1*%
G36*
X181349887Y-64500203D02*
G01*
X179599797Y-62750113D01*
X179850113Y-62499797D01*
X181600203Y-64249887D01*
X181349887Y-64500203D01*
G37*
D21*
X180600000Y-63375000D03*
D22*
X180600000Y-63500000D03*
D23*
X182600000Y-65500000D03*
D24*
X180475000Y-63500000D03*
G36*
G01*
X181725000Y-65062500D02*
X181725000Y-65937500D01*
G75*
G02*
X181662500Y-66000000I-62500J0D01*
G01*
X181537500Y-66000000D01*
G75*
G02*
X181475000Y-65937500I0J62500D01*
G01*
X181475000Y-65062500D01*
G75*
G02*
X181537500Y-65000000I62500J0D01*
G01*
X181662500Y-65000000D01*
G75*
G02*
X181725000Y-65062500I0J-62500D01*
G01*
G37*
G36*
G01*
X181225000Y-65062500D02*
X181225000Y-65937500D01*
G75*
G02*
X181162500Y-66000000I-62500J0D01*
G01*
X181037500Y-66000000D01*
G75*
G02*
X180975000Y-65937500I0J62500D01*
G01*
X180975000Y-65062500D01*
G75*
G02*
X181037500Y-65000000I62500J0D01*
G01*
X181162500Y-65000000D01*
G75*
G02*
X181225000Y-65062500I0J-62500D01*
G01*
G37*
G36*
G01*
X180725000Y-65062500D02*
X180725000Y-65937500D01*
G75*
G02*
X180662500Y-66000000I-62500J0D01*
G01*
X180537500Y-66000000D01*
G75*
G02*
X180475000Y-65937500I0J62500D01*
G01*
X180475000Y-65062500D01*
G75*
G02*
X180537500Y-65000000I62500J0D01*
G01*
X180662500Y-65000000D01*
G75*
G02*
X180725000Y-65062500I0J-62500D01*
G01*
G37*
G36*
G01*
X180225000Y-65062500D02*
X180225000Y-65937500D01*
G75*
G02*
X180162500Y-66000000I-62500J0D01*
G01*
X180037500Y-66000000D01*
G75*
G02*
X179975000Y-65937500I0J62500D01*
G01*
X179975000Y-65062500D01*
G75*
G02*
X180037500Y-65000000I62500J0D01*
G01*
X180162500Y-65000000D01*
G75*
G02*
X180225000Y-65062500I0J-62500D01*
G01*
G37*
G36*
G01*
X179725000Y-65062500D02*
X179725000Y-65937500D01*
G75*
G02*
X179662500Y-66000000I-62500J0D01*
G01*
X179537500Y-66000000D01*
G75*
G02*
X179475000Y-65937500I0J62500D01*
G01*
X179475000Y-65062500D01*
G75*
G02*
X179537500Y-65000000I62500J0D01*
G01*
X179662500Y-65000000D01*
G75*
G02*
X179725000Y-65062500I0J-62500D01*
G01*
G37*
G36*
G01*
X179100000Y-64437500D02*
X179100000Y-64562500D01*
G75*
G02*
X179037500Y-64625000I-62500J0D01*
G01*
X178162500Y-64625000D01*
G75*
G02*
X178100000Y-64562500I0J62500D01*
G01*
X178100000Y-64437500D01*
G75*
G02*
X178162500Y-64375000I62500J0D01*
G01*
X179037500Y-64375000D01*
G75*
G02*
X179100000Y-64437500I0J-62500D01*
G01*
G37*
G36*
G01*
X179100000Y-63937500D02*
X179100000Y-64062500D01*
G75*
G02*
X179037500Y-64125000I-62500J0D01*
G01*
X178162500Y-64125000D01*
G75*
G02*
X178100000Y-64062500I0J62500D01*
G01*
X178100000Y-63937500D01*
G75*
G02*
X178162500Y-63875000I62500J0D01*
G01*
X179037500Y-63875000D01*
G75*
G02*
X179100000Y-63937500I0J-62500D01*
G01*
G37*
G36*
G01*
X179100000Y-63437500D02*
X179100000Y-63562500D01*
G75*
G02*
X179037500Y-63625000I-62500J0D01*
G01*
X178162500Y-63625000D01*
G75*
G02*
X178100000Y-63562500I0J62500D01*
G01*
X178100000Y-63437500D01*
G75*
G02*
X178162500Y-63375000I62500J0D01*
G01*
X179037500Y-63375000D01*
G75*
G02*
X179100000Y-63437500I0J-62500D01*
G01*
G37*
G36*
G01*
X179100000Y-62937500D02*
X179100000Y-63062500D01*
G75*
G02*
X179037500Y-63125000I-62500J0D01*
G01*
X178162500Y-63125000D01*
G75*
G02*
X178100000Y-63062500I0J62500D01*
G01*
X178100000Y-62937500D01*
G75*
G02*
X178162500Y-62875000I62500J0D01*
G01*
X179037500Y-62875000D01*
G75*
G02*
X179100000Y-62937500I0J-62500D01*
G01*
G37*
G36*
G01*
X179100000Y-62437500D02*
X179100000Y-62562500D01*
G75*
G02*
X179037500Y-62625000I-62500J0D01*
G01*
X178162500Y-62625000D01*
G75*
G02*
X178100000Y-62562500I0J62500D01*
G01*
X178100000Y-62437500D01*
G75*
G02*
X178162500Y-62375000I62500J0D01*
G01*
X179037500Y-62375000D01*
G75*
G02*
X179100000Y-62437500I0J-62500D01*
G01*
G37*
G36*
G01*
X179725000Y-61062500D02*
X179725000Y-61937500D01*
G75*
G02*
X179662500Y-62000000I-62500J0D01*
G01*
X179537500Y-62000000D01*
G75*
G02*
X179475000Y-61937500I0J62500D01*
G01*
X179475000Y-61062500D01*
G75*
G02*
X179537500Y-61000000I62500J0D01*
G01*
X179662500Y-61000000D01*
G75*
G02*
X179725000Y-61062500I0J-62500D01*
G01*
G37*
G36*
G01*
X180225000Y-61062500D02*
X180225000Y-61937500D01*
G75*
G02*
X180162500Y-62000000I-62500J0D01*
G01*
X180037500Y-62000000D01*
G75*
G02*
X179975000Y-61937500I0J62500D01*
G01*
X179975000Y-61062500D01*
G75*
G02*
X180037500Y-61000000I62500J0D01*
G01*
X180162500Y-61000000D01*
G75*
G02*
X180225000Y-61062500I0J-62500D01*
G01*
G37*
G36*
G01*
X180725000Y-61062500D02*
X180725000Y-61937500D01*
G75*
G02*
X180662500Y-62000000I-62500J0D01*
G01*
X180537500Y-62000000D01*
G75*
G02*
X180475000Y-61937500I0J62500D01*
G01*
X180475000Y-61062500D01*
G75*
G02*
X180537500Y-61000000I62500J0D01*
G01*
X180662500Y-61000000D01*
G75*
G02*
X180725000Y-61062500I0J-62500D01*
G01*
G37*
G36*
G01*
X181225000Y-61062500D02*
X181225000Y-61937500D01*
G75*
G02*
X181162500Y-62000000I-62500J0D01*
G01*
X181037500Y-62000000D01*
G75*
G02*
X180975000Y-61937500I0J62500D01*
G01*
X180975000Y-61062500D01*
G75*
G02*
X181037500Y-61000000I62500J0D01*
G01*
X181162500Y-61000000D01*
G75*
G02*
X181225000Y-61062500I0J-62500D01*
G01*
G37*
G36*
G01*
X181725000Y-61062500D02*
X181725000Y-61937500D01*
G75*
G02*
X181662500Y-62000000I-62500J0D01*
G01*
X181537500Y-62000000D01*
G75*
G02*
X181475000Y-61937500I0J62500D01*
G01*
X181475000Y-61062500D01*
G75*
G02*
X181537500Y-61000000I62500J0D01*
G01*
X181662500Y-61000000D01*
G75*
G02*
X181725000Y-61062500I0J-62500D01*
G01*
G37*
G36*
G01*
X183100000Y-62437500D02*
X183100000Y-62562500D01*
G75*
G02*
X183037500Y-62625000I-62500J0D01*
G01*
X182162500Y-62625000D01*
G75*
G02*
X182100000Y-62562500I0J62500D01*
G01*
X182100000Y-62437500D01*
G75*
G02*
X182162500Y-62375000I62500J0D01*
G01*
X183037500Y-62375000D01*
G75*
G02*
X183100000Y-62437500I0J-62500D01*
G01*
G37*
G36*
G01*
X183100000Y-62937500D02*
X183100000Y-63062500D01*
G75*
G02*
X183037500Y-63125000I-62500J0D01*
G01*
X182162500Y-63125000D01*
G75*
G02*
X182100000Y-63062500I0J62500D01*
G01*
X182100000Y-62937500D01*
G75*
G02*
X182162500Y-62875000I62500J0D01*
G01*
X183037500Y-62875000D01*
G75*
G02*
X183100000Y-62937500I0J-62500D01*
G01*
G37*
G36*
G01*
X183100000Y-63437500D02*
X183100000Y-63562500D01*
G75*
G02*
X183037500Y-63625000I-62500J0D01*
G01*
X182162500Y-63625000D01*
G75*
G02*
X182100000Y-63562500I0J62500D01*
G01*
X182100000Y-63437500D01*
G75*
G02*
X182162500Y-63375000I62500J0D01*
G01*
X183037500Y-63375000D01*
G75*
G02*
X183100000Y-63437500I0J-62500D01*
G01*
G37*
G36*
G01*
X183100000Y-63937500D02*
X183100000Y-64062500D01*
G75*
G02*
X183037500Y-64125000I-62500J0D01*
G01*
X182162500Y-64125000D01*
G75*
G02*
X182100000Y-64062500I0J62500D01*
G01*
X182100000Y-63937500D01*
G75*
G02*
X182162500Y-63875000I62500J0D01*
G01*
X183037500Y-63875000D01*
G75*
G02*
X183100000Y-63937500I0J-62500D01*
G01*
G37*
G36*
G01*
X183100000Y-64437500D02*
X183100000Y-64562500D01*
G75*
G02*
X183037500Y-64625000I-62500J0D01*
G01*
X182162500Y-64625000D01*
G75*
G02*
X182100000Y-64562500I0J62500D01*
G01*
X182100000Y-64437500D01*
G75*
G02*
X182162500Y-64375000I62500J0D01*
G01*
X183037500Y-64375000D01*
G75*
G02*
X183100000Y-64437500I0J-62500D01*
G01*
G37*
%TD*%
D25*
%TO.C,J2*%
X176250000Y-58600000D03*
X177520000Y-58600000D03*
X178790000Y-58600000D03*
X180060000Y-58600000D03*
X181330000Y-58600000D03*
D26*
X182600000Y-58600000D03*
%TD*%
M02*
