%TF.GenerationSoftware,KiCad,Pcbnew,(5.1.9-0-10_14)*%
%TF.CreationDate,2021-06-18T08:37:58+01:00*%
%TF.ProjectId,Shelly,5368656c-6c79-42e6-9b69-6361645f7063,4*%
%TF.SameCoordinates,Original*%
%TF.FileFunction,Copper,L2,Bot*%
%TF.FilePolarity,Positive*%
%FSLAX46Y46*%
G04 Gerber Fmt 4.6, Leading zero omitted, Abs format (unit mm)*
G04 Created by KiCad (PCBNEW (5.1.9-0-10_14)) date 2021-06-18 08:37:58*
%MOMM*%
%LPD*%
G01*
G04 APERTURE LIST*
%TA.AperFunction,ComponentPad*%
%ADD10C,0.350000*%
%TD*%
%TA.AperFunction,ComponentPad*%
%ADD11O,1.700000X1.700000*%
%TD*%
%TA.AperFunction,ComponentPad*%
%ADD12R,1.700000X1.700000*%
%TD*%
%TA.AperFunction,ComponentPad*%
%ADD13C,1.500000*%
%TD*%
%TA.AperFunction,ComponentPad*%
%ADD14C,1.750000*%
%TD*%
%TA.AperFunction,ComponentPad*%
%ADD15C,0.600000*%
%TD*%
%TA.AperFunction,ComponentPad*%
%ADD16O,1.000000X1.000000*%
%TD*%
%TA.AperFunction,ComponentPad*%
%ADD17R,1.000000X1.000000*%
%TD*%
%TA.AperFunction,ViaPad*%
%ADD18C,0.800000*%
%TD*%
%TA.AperFunction,Conductor*%
%ADD19C,0.250000*%
%TD*%
%TA.AperFunction,Conductor*%
%ADD20C,0.500000*%
%TD*%
%TA.AperFunction,Conductor*%
%ADD21C,0.254000*%
%TD*%
%TA.AperFunction,Conductor*%
%ADD22C,0.100000*%
%TD*%
G04 APERTURE END LIST*
D10*
%TO.P,U1,21*%
%TO.N,GND*%
X180600000Y-63500000D03*
%TD*%
D11*
%TO.P,J1,5*%
%TO.N,TXD*%
X172040000Y-56100000D03*
%TO.P,J1,4*%
%TO.N,RXD*%
X174580000Y-56100000D03*
%TO.P,J1,3*%
%TO.N,Net-(J1-Pad3)*%
X177120000Y-56100000D03*
%TO.P,J1,2*%
%TO.N,GPIO0*%
X179660000Y-56100000D03*
D12*
%TO.P,J1,1*%
%TO.N,GND*%
X182200000Y-56100000D03*
%TD*%
D13*
%TO.P,J4,S1*%
%TO.N,GND*%
X181320000Y-80890000D03*
X172680000Y-80890000D03*
D14*
X181320000Y-76720000D03*
X172680000Y-76720000D03*
D15*
X179890000Y-77210000D03*
X174110000Y-77210000D03*
%TD*%
D16*
%TO.P,J2,6*%
%TO.N,TXD*%
X176250000Y-58600000D03*
%TO.P,J2,5*%
%TO.N,RXD*%
X177520000Y-58600000D03*
%TO.P,J2,4*%
%TO.N,+3V3*%
X178790000Y-58600000D03*
%TO.P,J2,3*%
%TO.N,RST*%
X180060000Y-58600000D03*
%TO.P,J2,2*%
%TO.N,GPIO0*%
X181330000Y-58600000D03*
D17*
%TO.P,J2,1*%
%TO.N,GND*%
X182600000Y-58600000D03*
%TD*%
D18*
%TO.N,GND*%
X181950000Y-70540000D03*
X174024042Y-63752132D03*
X175235941Y-61593758D03*
X175120000Y-71940000D03*
%TO.N,VBUS*%
X171384973Y-63440293D03*
X172070000Y-74640000D03*
%TO.N,RXD*%
X177349113Y-65015125D03*
%TO.N,+3V3*%
X171200000Y-60500000D03*
X170650001Y-74832376D03*
X179900000Y-70510000D03*
%TO.N,GPIO0*%
X182310858Y-60047895D03*
X182986734Y-66486682D03*
%TO.N,TXD*%
X183350000Y-60000000D03*
X173700000Y-60550011D03*
%TO.N,RST*%
X175986945Y-64718804D03*
X181227583Y-66825854D03*
%TO.N,D-*%
X179700000Y-67200000D03*
X178788304Y-60006376D03*
%TO.N,D+*%
X183112660Y-68887340D03*
X181325010Y-60215606D03*
%TO.N,Net-(C1-Pad1)*%
X177133335Y-62065537D03*
X181950104Y-67548375D03*
%TO.N,Net-(J4-PadA6)*%
X176675022Y-74648155D03*
X178237009Y-74843354D03*
%TO.N,Net-(J4-PadA5)*%
X182000000Y-79200000D03*
X175225010Y-74878226D03*
%TO.N,Net-(D1-Pad1)*%
X172000000Y-82350000D03*
X172713009Y-64526991D03*
%TD*%
D19*
%TO.N,GND*%
X182600000Y-58600000D02*
X182600000Y-58700000D01*
X181874999Y-59425001D02*
X180774999Y-59425001D01*
X182600000Y-58700000D02*
X181874999Y-59425001D01*
X180774999Y-59425001D02*
X180600000Y-59600000D01*
X180600000Y-59600000D02*
X180600000Y-63500000D01*
X180600000Y-63500000D02*
X180900000Y-63500000D01*
X181024999Y-57275001D02*
X175624999Y-57275001D01*
X182200000Y-56100000D02*
X181024999Y-57275001D01*
X175624999Y-57275001D02*
X174500000Y-58400000D01*
D20*
X181325000Y-75315787D02*
X181325000Y-76730000D01*
X175519999Y-72339999D02*
X178349212Y-72339999D01*
X178349212Y-72339999D02*
X181325000Y-75315787D01*
D19*
X179076400Y-69469989D02*
X174024042Y-64417631D01*
X179932993Y-69469989D02*
X179076400Y-69469989D01*
X180625002Y-71598002D02*
X180625002Y-70161998D01*
X180625002Y-70161998D02*
X179932993Y-69469989D01*
X174024042Y-64417631D02*
X174024042Y-63752132D01*
X175235941Y-62540233D02*
X175235941Y-61593758D01*
X175519999Y-72339999D02*
X179883005Y-72339999D01*
X179883005Y-72339999D02*
X180625002Y-71598002D01*
X174024042Y-63752132D02*
X175235941Y-62540233D01*
X175120000Y-71940000D02*
X175519999Y-72339999D01*
%TO.N,VBUS*%
X171670000Y-63725320D02*
X171384973Y-63440293D01*
X171670000Y-74240000D02*
X172070000Y-74640000D01*
X171670000Y-72220000D02*
X171670000Y-70730000D01*
X171670000Y-70730000D02*
X171670000Y-74240000D01*
X171670000Y-70730000D02*
X171670000Y-63725320D01*
%TO.N,RXD*%
X177520000Y-58600000D02*
X178019999Y-59099999D01*
X178019999Y-59099999D02*
X178019999Y-64344239D01*
X178019999Y-64344239D02*
X177349113Y-65015125D01*
%TO.N,+3V3*%
X171200000Y-71190000D02*
X171200000Y-64328322D01*
X170659972Y-61040028D02*
X171200000Y-60500000D01*
X170650001Y-74832376D02*
X170650001Y-71739999D01*
X170650001Y-71739999D02*
X171200000Y-71190000D01*
X171200000Y-64328322D02*
X170659972Y-63788294D01*
X170659972Y-63788294D02*
X170659972Y-61040028D01*
X173438010Y-64613695D02*
X179334315Y-70510000D01*
X179334315Y-70510000D02*
X179900000Y-70510000D01*
X171200000Y-60500000D02*
X171200000Y-61940980D01*
X173438010Y-64178990D02*
X173438010Y-64613695D01*
X171200000Y-61940980D02*
X173438010Y-64178990D01*
%TO.N,GPIO0*%
X182986734Y-60723771D02*
X182986734Y-66486682D01*
X182310858Y-60047895D02*
X182986734Y-60723771D01*
%TO.N,TXD*%
X183600000Y-59750000D02*
X183350000Y-60000000D01*
X183600000Y-58014998D02*
X183600000Y-59750000D01*
X177075001Y-57774999D02*
X183360001Y-57774999D01*
X183360001Y-57774999D02*
X183600000Y-58014998D01*
X176250000Y-58600000D02*
X177075001Y-57774999D01*
X175650011Y-58600000D02*
X176250000Y-58600000D01*
X173700000Y-60550011D02*
X175650011Y-58600000D01*
%TO.N,RST*%
X180103449Y-67949988D02*
X181227583Y-66825854D01*
X180060000Y-65658271D02*
X181227583Y-66825854D01*
X175986945Y-64718804D02*
X179218129Y-67949988D01*
X179218129Y-67949988D02*
X180103449Y-67949988D01*
X180060000Y-58600000D02*
X180060000Y-65658271D01*
%TO.N,D-*%
X179700000Y-67200000D02*
X178500001Y-66000001D01*
X178500001Y-66000001D02*
X178500001Y-60294679D01*
X178500001Y-60294679D02*
X178788304Y-60006376D01*
%TO.N,D+*%
X181725009Y-60615605D02*
X181325010Y-60215606D01*
X183112660Y-67637927D02*
X181725009Y-66250276D01*
X183112660Y-68887340D02*
X183112660Y-67637927D01*
X181725009Y-66250276D02*
X181725009Y-60615605D01*
%TO.N,Net-(C1-Pad1)*%
X175030022Y-64168850D02*
X175030022Y-64787200D01*
X181098480Y-68399999D02*
X181950104Y-67548375D01*
X177133335Y-62065537D02*
X175030022Y-64168850D01*
X175030022Y-64787200D02*
X178642821Y-68399999D01*
X178642821Y-68399999D02*
X181098480Y-68399999D01*
%TO.N,Net-(J4-PadA6)*%
X176675022Y-74648155D02*
X178041810Y-74648155D01*
X178041810Y-74648155D02*
X178237009Y-74843354D01*
%TO.N,Net-(J4-PadA5)*%
X179546784Y-79200000D02*
X175225010Y-74878226D01*
X182000000Y-79200000D02*
X179546784Y-79200000D01*
%TO.N,Net-(D1-Pad1)*%
X172180000Y-65060000D02*
X172180000Y-73410000D01*
X174735001Y-81564999D02*
X173950000Y-82350000D01*
X174735001Y-75965001D02*
X174735001Y-81564999D01*
X173950000Y-82350000D02*
X172000000Y-82350000D01*
X172180000Y-73410000D02*
X174735001Y-75965001D01*
X172713009Y-64526991D02*
X172180000Y-65060000D01*
%TD*%
D21*
%TO.N,GND*%
X171579744Y-75557205D02*
X171768102Y-75635226D01*
X171822264Y-75645999D01*
X171813365Y-75673760D01*
X172680000Y-76540395D01*
X172694143Y-76526253D01*
X172873748Y-76705858D01*
X172859605Y-76720000D01*
X173726240Y-77586635D01*
X173975001Y-77506894D01*
X173975002Y-80398372D01*
X173936277Y-80291168D01*
X173875860Y-80178137D01*
X173636993Y-80112612D01*
X172859605Y-80890000D01*
X172873748Y-80904143D01*
X172694143Y-81083748D01*
X172680000Y-81069605D01*
X172665858Y-81083748D01*
X172486253Y-80904143D01*
X172500395Y-80890000D01*
X171723007Y-80112612D01*
X171484140Y-80178137D01*
X171368240Y-80425116D01*
X171302750Y-80689960D01*
X171290188Y-80962492D01*
X171331035Y-81232238D01*
X171423723Y-81488832D01*
X171424290Y-81489893D01*
X171340226Y-81546063D01*
X171196063Y-81690226D01*
X171082795Y-81859744D01*
X171004774Y-82048102D01*
X170965000Y-82248061D01*
X170965000Y-82315000D01*
X170685000Y-82315000D01*
X170685000Y-79933007D01*
X171902612Y-79933007D01*
X172680000Y-80710395D01*
X173457388Y-79933007D01*
X173391863Y-79694140D01*
X173144884Y-79578240D01*
X172880040Y-79512750D01*
X172607508Y-79500188D01*
X172337762Y-79541035D01*
X172081168Y-79633723D01*
X171968137Y-79694140D01*
X171902612Y-79933007D01*
X170685000Y-79933007D01*
X170685000Y-77766240D01*
X171813365Y-77766240D01*
X171894025Y-78017868D01*
X172162329Y-78146267D01*
X172450526Y-78219855D01*
X172747543Y-78235804D01*
X173041963Y-78193501D01*
X173322474Y-78094572D01*
X173465975Y-78017868D01*
X173546635Y-77766240D01*
X172680000Y-76899605D01*
X171813365Y-77766240D01*
X170685000Y-77766240D01*
X170685000Y-76787543D01*
X171164196Y-76787543D01*
X171206499Y-77081963D01*
X171305428Y-77362474D01*
X171382132Y-77505975D01*
X171633760Y-77586635D01*
X172500395Y-76720000D01*
X171633760Y-75853365D01*
X171382132Y-75934025D01*
X171253733Y-76202329D01*
X171180145Y-76490526D01*
X171164196Y-76787543D01*
X170685000Y-76787543D01*
X170685000Y-75867376D01*
X170751940Y-75867376D01*
X170951899Y-75827602D01*
X171140257Y-75749581D01*
X171309775Y-75636313D01*
X171453938Y-75492150D01*
X171462717Y-75479011D01*
X171579744Y-75557205D01*
%TA.AperFunction,Conductor*%
D22*
G36*
X171579744Y-75557205D02*
G01*
X171768102Y-75635226D01*
X171822264Y-75645999D01*
X171813365Y-75673760D01*
X172680000Y-76540395D01*
X172694143Y-76526253D01*
X172873748Y-76705858D01*
X172859605Y-76720000D01*
X173726240Y-77586635D01*
X173975001Y-77506894D01*
X173975002Y-80398372D01*
X173936277Y-80291168D01*
X173875860Y-80178137D01*
X173636993Y-80112612D01*
X172859605Y-80890000D01*
X172873748Y-80904143D01*
X172694143Y-81083748D01*
X172680000Y-81069605D01*
X172665858Y-81083748D01*
X172486253Y-80904143D01*
X172500395Y-80890000D01*
X171723007Y-80112612D01*
X171484140Y-80178137D01*
X171368240Y-80425116D01*
X171302750Y-80689960D01*
X171290188Y-80962492D01*
X171331035Y-81232238D01*
X171423723Y-81488832D01*
X171424290Y-81489893D01*
X171340226Y-81546063D01*
X171196063Y-81690226D01*
X171082795Y-81859744D01*
X171004774Y-82048102D01*
X170965000Y-82248061D01*
X170965000Y-82315000D01*
X170685000Y-82315000D01*
X170685000Y-79933007D01*
X171902612Y-79933007D01*
X172680000Y-80710395D01*
X173457388Y-79933007D01*
X173391863Y-79694140D01*
X173144884Y-79578240D01*
X172880040Y-79512750D01*
X172607508Y-79500188D01*
X172337762Y-79541035D01*
X172081168Y-79633723D01*
X171968137Y-79694140D01*
X171902612Y-79933007D01*
X170685000Y-79933007D01*
X170685000Y-77766240D01*
X171813365Y-77766240D01*
X171894025Y-78017868D01*
X172162329Y-78146267D01*
X172450526Y-78219855D01*
X172747543Y-78235804D01*
X173041963Y-78193501D01*
X173322474Y-78094572D01*
X173465975Y-78017868D01*
X173546635Y-77766240D01*
X172680000Y-76899605D01*
X171813365Y-77766240D01*
X170685000Y-77766240D01*
X170685000Y-76787543D01*
X171164196Y-76787543D01*
X171206499Y-77081963D01*
X171305428Y-77362474D01*
X171382132Y-77505975D01*
X171633760Y-77586635D01*
X172500395Y-76720000D01*
X171633760Y-75853365D01*
X171382132Y-75934025D01*
X171253733Y-76202329D01*
X171180145Y-76490526D01*
X171164196Y-76787543D01*
X170685000Y-76787543D01*
X170685000Y-75867376D01*
X170751940Y-75867376D01*
X170951899Y-75827602D01*
X171140257Y-75749581D01*
X171309775Y-75636313D01*
X171453938Y-75492150D01*
X171462717Y-75479011D01*
X171579744Y-75557205D01*
G37*
%TD.AperFunction*%
D21*
X178770520Y-71021008D02*
X178794314Y-71050001D01*
X178823307Y-71073795D01*
X178823311Y-71073799D01*
X178861361Y-71105025D01*
X178910039Y-71144974D01*
X179042068Y-71215546D01*
X179185276Y-71258987D01*
X179240226Y-71313937D01*
X179409744Y-71427205D01*
X179598102Y-71505226D01*
X179798061Y-71545000D01*
X180001939Y-71545000D01*
X180201898Y-71505226D01*
X180390256Y-71427205D01*
X180559774Y-71313937D01*
X180703937Y-71169774D01*
X180817205Y-71000256D01*
X180895226Y-70811898D01*
X180935000Y-70611939D01*
X180935000Y-70408061D01*
X180895226Y-70208102D01*
X180817205Y-70019744D01*
X180703937Y-69850226D01*
X180559774Y-69706063D01*
X180390256Y-69592795D01*
X180201898Y-69514774D01*
X180001939Y-69475000D01*
X179798061Y-69475000D01*
X179598102Y-69514774D01*
X179467846Y-69568728D01*
X179059117Y-69159999D01*
X181061158Y-69159999D01*
X181098480Y-69163675D01*
X181135802Y-69159999D01*
X181135813Y-69159999D01*
X181247466Y-69149002D01*
X181390727Y-69105545D01*
X181522756Y-69034973D01*
X181638481Y-68940000D01*
X181662283Y-68910997D01*
X181989905Y-68583375D01*
X182052043Y-68583375D01*
X182124239Y-68569015D01*
X182117434Y-68585442D01*
X182077660Y-68785401D01*
X182077660Y-68989279D01*
X182117434Y-69189238D01*
X182195455Y-69377596D01*
X182308723Y-69547114D01*
X182452886Y-69691277D01*
X182622404Y-69804545D01*
X182810762Y-69882566D01*
X183010721Y-69922340D01*
X183214599Y-69922340D01*
X183315000Y-69902369D01*
X183315000Y-82315000D01*
X175059802Y-82315000D01*
X175246003Y-82128798D01*
X175275002Y-82105000D01*
X175321697Y-82048102D01*
X175369975Y-81989276D01*
X175440547Y-81857246D01*
X175443657Y-81846993D01*
X180542612Y-81846993D01*
X180608137Y-82085860D01*
X180855116Y-82201760D01*
X181119960Y-82267250D01*
X181392492Y-82279812D01*
X181662238Y-82238965D01*
X181918832Y-82146277D01*
X182031863Y-82085860D01*
X182097388Y-81846993D01*
X181320000Y-81069605D01*
X180542612Y-81846993D01*
X175443657Y-81846993D01*
X175483688Y-81715026D01*
X175484004Y-81713985D01*
X175495001Y-81602332D01*
X175495001Y-81602323D01*
X175498677Y-81565000D01*
X175495001Y-81527677D01*
X175495001Y-76223018D01*
X178982989Y-79711008D01*
X179006783Y-79740001D01*
X179035776Y-79763795D01*
X179035780Y-79763799D01*
X179106469Y-79821811D01*
X179122508Y-79834974D01*
X179254537Y-79905546D01*
X179397798Y-79949003D01*
X179509451Y-79960000D01*
X179509460Y-79960000D01*
X179546783Y-79963676D01*
X179584106Y-79960000D01*
X180282706Y-79960000D01*
X180246549Y-79996157D01*
X180363005Y-80112613D01*
X180124140Y-80178137D01*
X180008240Y-80425116D01*
X179942750Y-80689960D01*
X179930188Y-80962492D01*
X179971035Y-81232238D01*
X180063723Y-81488832D01*
X180124140Y-81601863D01*
X180363007Y-81667388D01*
X181140395Y-80890000D01*
X181126253Y-80875858D01*
X181305858Y-80696253D01*
X181320000Y-80710395D01*
X181334143Y-80696253D01*
X181513748Y-80875858D01*
X181499605Y-80890000D01*
X182276993Y-81667388D01*
X182515860Y-81601863D01*
X182631760Y-81354884D01*
X182697250Y-81090040D01*
X182709812Y-80817508D01*
X182668965Y-80547762D01*
X182576277Y-80291168D01*
X182515860Y-80178137D01*
X182411961Y-80149636D01*
X182490256Y-80117205D01*
X182659774Y-80003937D01*
X182803937Y-79859774D01*
X182917205Y-79690256D01*
X182995226Y-79501898D01*
X183035000Y-79301939D01*
X183035000Y-79098061D01*
X182995226Y-78898102D01*
X182917205Y-78709744D01*
X182803937Y-78540226D01*
X182659774Y-78396063D01*
X182490256Y-78282795D01*
X182301898Y-78204774D01*
X182101939Y-78165000D01*
X181898061Y-78165000D01*
X181698102Y-78204774D01*
X181509744Y-78282795D01*
X181340226Y-78396063D01*
X181296289Y-78440000D01*
X179861587Y-78440000D01*
X179187827Y-77766240D01*
X180453365Y-77766240D01*
X180534025Y-78017868D01*
X180802329Y-78146267D01*
X181090526Y-78219855D01*
X181387543Y-78235804D01*
X181681963Y-78193501D01*
X181962474Y-78094572D01*
X182105975Y-78017868D01*
X182186635Y-77766240D01*
X181320000Y-76899605D01*
X180453365Y-77766240D01*
X179187827Y-77766240D01*
X178209129Y-76787543D01*
X179804196Y-76787543D01*
X179846499Y-77081963D01*
X179945428Y-77362474D01*
X180022132Y-77505975D01*
X180273760Y-77586635D01*
X181140395Y-76720000D01*
X181499605Y-76720000D01*
X182366240Y-77586635D01*
X182617868Y-77505975D01*
X182746267Y-77237671D01*
X182819855Y-76949474D01*
X182835804Y-76652457D01*
X182793501Y-76358037D01*
X182694572Y-76077526D01*
X182617868Y-75934025D01*
X182366240Y-75853365D01*
X181499605Y-76720000D01*
X181140395Y-76720000D01*
X180273760Y-75853365D01*
X180022132Y-75934025D01*
X179893733Y-76202329D01*
X179820145Y-76490526D01*
X179804196Y-76787543D01*
X178209129Y-76787543D01*
X177039178Y-75617593D01*
X177165278Y-75565360D01*
X177334796Y-75452092D01*
X177373266Y-75413622D01*
X177433072Y-75503128D01*
X177577235Y-75647291D01*
X177746753Y-75760559D01*
X177935111Y-75838580D01*
X178135070Y-75878354D01*
X178338948Y-75878354D01*
X178538907Y-75838580D01*
X178727265Y-75760559D01*
X178857169Y-75673760D01*
X180453365Y-75673760D01*
X181320000Y-76540395D01*
X182186635Y-75673760D01*
X182105975Y-75422132D01*
X181837671Y-75293733D01*
X181549474Y-75220145D01*
X181252457Y-75204196D01*
X180958037Y-75246499D01*
X180677526Y-75345428D01*
X180534025Y-75422132D01*
X180453365Y-75673760D01*
X178857169Y-75673760D01*
X178896783Y-75647291D01*
X179040946Y-75503128D01*
X179154214Y-75333610D01*
X179232235Y-75145252D01*
X179272009Y-74945293D01*
X179272009Y-74741415D01*
X179232235Y-74541456D01*
X179154214Y-74353098D01*
X179040946Y-74183580D01*
X178896783Y-74039417D01*
X178727265Y-73926149D01*
X178538907Y-73848128D01*
X178338948Y-73808354D01*
X178135070Y-73808354D01*
X177935111Y-73848128D01*
X177838478Y-73888155D01*
X177378733Y-73888155D01*
X177334796Y-73844218D01*
X177165278Y-73730950D01*
X176976920Y-73652929D01*
X176776961Y-73613155D01*
X176573083Y-73613155D01*
X176373124Y-73652929D01*
X176184766Y-73730950D01*
X176015248Y-73844218D01*
X175871085Y-73988381D01*
X175835629Y-74041445D01*
X175715266Y-73961021D01*
X175526908Y-73883000D01*
X175326949Y-73843226D01*
X175123071Y-73843226D01*
X174923112Y-73883000D01*
X174734754Y-73961021D01*
X174565236Y-74074289D01*
X174421073Y-74218452D01*
X174307805Y-74387970D01*
X174285828Y-74441027D01*
X172940000Y-73095199D01*
X172940000Y-65537117D01*
X173014907Y-65522217D01*
X173196509Y-65446995D01*
X178770520Y-71021008D01*
%TA.AperFunction,Conductor*%
D22*
G36*
X178770520Y-71021008D02*
G01*
X178794314Y-71050001D01*
X178823307Y-71073795D01*
X178823311Y-71073799D01*
X178861361Y-71105025D01*
X178910039Y-71144974D01*
X179042068Y-71215546D01*
X179185276Y-71258987D01*
X179240226Y-71313937D01*
X179409744Y-71427205D01*
X179598102Y-71505226D01*
X179798061Y-71545000D01*
X180001939Y-71545000D01*
X180201898Y-71505226D01*
X180390256Y-71427205D01*
X180559774Y-71313937D01*
X180703937Y-71169774D01*
X180817205Y-71000256D01*
X180895226Y-70811898D01*
X180935000Y-70611939D01*
X180935000Y-70408061D01*
X180895226Y-70208102D01*
X180817205Y-70019744D01*
X180703937Y-69850226D01*
X180559774Y-69706063D01*
X180390256Y-69592795D01*
X180201898Y-69514774D01*
X180001939Y-69475000D01*
X179798061Y-69475000D01*
X179598102Y-69514774D01*
X179467846Y-69568728D01*
X179059117Y-69159999D01*
X181061158Y-69159999D01*
X181098480Y-69163675D01*
X181135802Y-69159999D01*
X181135813Y-69159999D01*
X181247466Y-69149002D01*
X181390727Y-69105545D01*
X181522756Y-69034973D01*
X181638481Y-68940000D01*
X181662283Y-68910997D01*
X181989905Y-68583375D01*
X182052043Y-68583375D01*
X182124239Y-68569015D01*
X182117434Y-68585442D01*
X182077660Y-68785401D01*
X182077660Y-68989279D01*
X182117434Y-69189238D01*
X182195455Y-69377596D01*
X182308723Y-69547114D01*
X182452886Y-69691277D01*
X182622404Y-69804545D01*
X182810762Y-69882566D01*
X183010721Y-69922340D01*
X183214599Y-69922340D01*
X183315000Y-69902369D01*
X183315000Y-82315000D01*
X175059802Y-82315000D01*
X175246003Y-82128798D01*
X175275002Y-82105000D01*
X175321697Y-82048102D01*
X175369975Y-81989276D01*
X175440547Y-81857246D01*
X175443657Y-81846993D01*
X180542612Y-81846993D01*
X180608137Y-82085860D01*
X180855116Y-82201760D01*
X181119960Y-82267250D01*
X181392492Y-82279812D01*
X181662238Y-82238965D01*
X181918832Y-82146277D01*
X182031863Y-82085860D01*
X182097388Y-81846993D01*
X181320000Y-81069605D01*
X180542612Y-81846993D01*
X175443657Y-81846993D01*
X175483688Y-81715026D01*
X175484004Y-81713985D01*
X175495001Y-81602332D01*
X175495001Y-81602323D01*
X175498677Y-81565000D01*
X175495001Y-81527677D01*
X175495001Y-76223018D01*
X178982989Y-79711008D01*
X179006783Y-79740001D01*
X179035776Y-79763795D01*
X179035780Y-79763799D01*
X179106469Y-79821811D01*
X179122508Y-79834974D01*
X179254537Y-79905546D01*
X179397798Y-79949003D01*
X179509451Y-79960000D01*
X179509460Y-79960000D01*
X179546783Y-79963676D01*
X179584106Y-79960000D01*
X180282706Y-79960000D01*
X180246549Y-79996157D01*
X180363005Y-80112613D01*
X180124140Y-80178137D01*
X180008240Y-80425116D01*
X179942750Y-80689960D01*
X179930188Y-80962492D01*
X179971035Y-81232238D01*
X180063723Y-81488832D01*
X180124140Y-81601863D01*
X180363007Y-81667388D01*
X181140395Y-80890000D01*
X181126253Y-80875858D01*
X181305858Y-80696253D01*
X181320000Y-80710395D01*
X181334143Y-80696253D01*
X181513748Y-80875858D01*
X181499605Y-80890000D01*
X182276993Y-81667388D01*
X182515860Y-81601863D01*
X182631760Y-81354884D01*
X182697250Y-81090040D01*
X182709812Y-80817508D01*
X182668965Y-80547762D01*
X182576277Y-80291168D01*
X182515860Y-80178137D01*
X182411961Y-80149636D01*
X182490256Y-80117205D01*
X182659774Y-80003937D01*
X182803937Y-79859774D01*
X182917205Y-79690256D01*
X182995226Y-79501898D01*
X183035000Y-79301939D01*
X183035000Y-79098061D01*
X182995226Y-78898102D01*
X182917205Y-78709744D01*
X182803937Y-78540226D01*
X182659774Y-78396063D01*
X182490256Y-78282795D01*
X182301898Y-78204774D01*
X182101939Y-78165000D01*
X181898061Y-78165000D01*
X181698102Y-78204774D01*
X181509744Y-78282795D01*
X181340226Y-78396063D01*
X181296289Y-78440000D01*
X179861587Y-78440000D01*
X179187827Y-77766240D01*
X180453365Y-77766240D01*
X180534025Y-78017868D01*
X180802329Y-78146267D01*
X181090526Y-78219855D01*
X181387543Y-78235804D01*
X181681963Y-78193501D01*
X181962474Y-78094572D01*
X182105975Y-78017868D01*
X182186635Y-77766240D01*
X181320000Y-76899605D01*
X180453365Y-77766240D01*
X179187827Y-77766240D01*
X178209129Y-76787543D01*
X179804196Y-76787543D01*
X179846499Y-77081963D01*
X179945428Y-77362474D01*
X180022132Y-77505975D01*
X180273760Y-77586635D01*
X181140395Y-76720000D01*
X181499605Y-76720000D01*
X182366240Y-77586635D01*
X182617868Y-77505975D01*
X182746267Y-77237671D01*
X182819855Y-76949474D01*
X182835804Y-76652457D01*
X182793501Y-76358037D01*
X182694572Y-76077526D01*
X182617868Y-75934025D01*
X182366240Y-75853365D01*
X181499605Y-76720000D01*
X181140395Y-76720000D01*
X180273760Y-75853365D01*
X180022132Y-75934025D01*
X179893733Y-76202329D01*
X179820145Y-76490526D01*
X179804196Y-76787543D01*
X178209129Y-76787543D01*
X177039178Y-75617593D01*
X177165278Y-75565360D01*
X177334796Y-75452092D01*
X177373266Y-75413622D01*
X177433072Y-75503128D01*
X177577235Y-75647291D01*
X177746753Y-75760559D01*
X177935111Y-75838580D01*
X178135070Y-75878354D01*
X178338948Y-75878354D01*
X178538907Y-75838580D01*
X178727265Y-75760559D01*
X178857169Y-75673760D01*
X180453365Y-75673760D01*
X181320000Y-76540395D01*
X182186635Y-75673760D01*
X182105975Y-75422132D01*
X181837671Y-75293733D01*
X181549474Y-75220145D01*
X181252457Y-75204196D01*
X180958037Y-75246499D01*
X180677526Y-75345428D01*
X180534025Y-75422132D01*
X180453365Y-75673760D01*
X178857169Y-75673760D01*
X178896783Y-75647291D01*
X179040946Y-75503128D01*
X179154214Y-75333610D01*
X179232235Y-75145252D01*
X179272009Y-74945293D01*
X179272009Y-74741415D01*
X179232235Y-74541456D01*
X179154214Y-74353098D01*
X179040946Y-74183580D01*
X178896783Y-74039417D01*
X178727265Y-73926149D01*
X178538907Y-73848128D01*
X178338948Y-73808354D01*
X178135070Y-73808354D01*
X177935111Y-73848128D01*
X177838478Y-73888155D01*
X177378733Y-73888155D01*
X177334796Y-73844218D01*
X177165278Y-73730950D01*
X176976920Y-73652929D01*
X176776961Y-73613155D01*
X176573083Y-73613155D01*
X176373124Y-73652929D01*
X176184766Y-73730950D01*
X176015248Y-73844218D01*
X175871085Y-73988381D01*
X175835629Y-74041445D01*
X175715266Y-73961021D01*
X175526908Y-73883000D01*
X175326949Y-73843226D01*
X175123071Y-73843226D01*
X174923112Y-73883000D01*
X174734754Y-73961021D01*
X174565236Y-74074289D01*
X174421073Y-74218452D01*
X174307805Y-74387970D01*
X174285828Y-74441027D01*
X172940000Y-73095199D01*
X172940000Y-65537117D01*
X173014907Y-65522217D01*
X173196509Y-65446995D01*
X178770520Y-71021008D01*
G37*
%TD.AperFunction*%
D21*
X180834754Y-61132811D02*
X180965010Y-61186765D01*
X180965009Y-65488479D01*
X180820000Y-65343470D01*
X180820000Y-61122953D01*
X180834754Y-61132811D01*
%TA.AperFunction,Conductor*%
D22*
G36*
X180834754Y-61132811D02*
G01*
X180965010Y-61186765D01*
X180965009Y-65488479D01*
X180820000Y-65343470D01*
X180820000Y-61122953D01*
X180834754Y-61132811D01*
G37*
%TD.AperFunction*%
D21*
X170724010Y-56803411D02*
X170886525Y-57046632D01*
X171093368Y-57253475D01*
X171336589Y-57415990D01*
X171606842Y-57527932D01*
X171893740Y-57585000D01*
X172186260Y-57585000D01*
X172473158Y-57527932D01*
X172743411Y-57415990D01*
X172986632Y-57253475D01*
X173193475Y-57046632D01*
X173310000Y-56872240D01*
X173426525Y-57046632D01*
X173633368Y-57253475D01*
X173876589Y-57415990D01*
X174146842Y-57527932D01*
X174433740Y-57585000D01*
X174726260Y-57585000D01*
X175013158Y-57527932D01*
X175283411Y-57415990D01*
X175526632Y-57253475D01*
X175733475Y-57046632D01*
X175850000Y-56872240D01*
X175966525Y-57046632D01*
X176173368Y-57253475D01*
X176382192Y-57393006D01*
X176310198Y-57465000D01*
X176138212Y-57465000D01*
X175918933Y-57508617D01*
X175712376Y-57594176D01*
X175526480Y-57718388D01*
X175368388Y-57876480D01*
X175355608Y-57895606D01*
X175225734Y-57965026D01*
X175164844Y-58014998D01*
X175110010Y-58059999D01*
X175086212Y-58088997D01*
X173660199Y-59515011D01*
X173598061Y-59515011D01*
X173398102Y-59554785D01*
X173209744Y-59632806D01*
X173040226Y-59746074D01*
X172896063Y-59890237D01*
X172782795Y-60059755D01*
X172704774Y-60248113D01*
X172665000Y-60448072D01*
X172665000Y-60651950D01*
X172704774Y-60851909D01*
X172782795Y-61040267D01*
X172896063Y-61209785D01*
X173040226Y-61353948D01*
X173209744Y-61467216D01*
X173398102Y-61545237D01*
X173598061Y-61585011D01*
X173801939Y-61585011D01*
X174001898Y-61545237D01*
X174190256Y-61467216D01*
X174359774Y-61353948D01*
X174503937Y-61209785D01*
X174617205Y-61040267D01*
X174695226Y-60851909D01*
X174735000Y-60651950D01*
X174735000Y-60589812D01*
X175717052Y-59607761D01*
X175918933Y-59691383D01*
X176138212Y-59735000D01*
X176361788Y-59735000D01*
X176581067Y-59691383D01*
X176787624Y-59605824D01*
X176885000Y-59540759D01*
X176982376Y-59605824D01*
X177188933Y-59691383D01*
X177259999Y-59705519D01*
X177259999Y-61035455D01*
X177235274Y-61030537D01*
X177031396Y-61030537D01*
X176831437Y-61070311D01*
X176643079Y-61148332D01*
X176473561Y-61261600D01*
X176329398Y-61405763D01*
X176216130Y-61575281D01*
X176138109Y-61763639D01*
X176098335Y-61963598D01*
X176098335Y-62025735D01*
X174519025Y-63605046D01*
X174490021Y-63628849D01*
X174457902Y-63667987D01*
X174395048Y-63744574D01*
X174325705Y-63874305D01*
X174324476Y-63876604D01*
X174281019Y-64019865D01*
X174270022Y-64131518D01*
X174270022Y-64131528D01*
X174266346Y-64168850D01*
X174270022Y-64206172D01*
X174270022Y-64370906D01*
X174198010Y-64298894D01*
X174198010Y-64216312D01*
X174201686Y-64178989D01*
X174198010Y-64141666D01*
X174198010Y-64141657D01*
X174187013Y-64030004D01*
X174143556Y-63886743D01*
X174123926Y-63850019D01*
X174072984Y-63754713D01*
X174001809Y-63667987D01*
X173978011Y-63638989D01*
X173949014Y-63615192D01*
X171960000Y-61626179D01*
X171960000Y-61203711D01*
X172003937Y-61159774D01*
X172117205Y-60990256D01*
X172195226Y-60801898D01*
X172235000Y-60601939D01*
X172235000Y-60398061D01*
X172195226Y-60198102D01*
X172117205Y-60009744D01*
X172003937Y-59840226D01*
X171859774Y-59696063D01*
X171690256Y-59582795D01*
X171501898Y-59504774D01*
X171301939Y-59465000D01*
X171098061Y-59465000D01*
X170898102Y-59504774D01*
X170709744Y-59582795D01*
X170685000Y-59599328D01*
X170685000Y-56709232D01*
X170724010Y-56803411D01*
%TA.AperFunction,Conductor*%
D22*
G36*
X170724010Y-56803411D02*
G01*
X170886525Y-57046632D01*
X171093368Y-57253475D01*
X171336589Y-57415990D01*
X171606842Y-57527932D01*
X171893740Y-57585000D01*
X172186260Y-57585000D01*
X172473158Y-57527932D01*
X172743411Y-57415990D01*
X172986632Y-57253475D01*
X173193475Y-57046632D01*
X173310000Y-56872240D01*
X173426525Y-57046632D01*
X173633368Y-57253475D01*
X173876589Y-57415990D01*
X174146842Y-57527932D01*
X174433740Y-57585000D01*
X174726260Y-57585000D01*
X175013158Y-57527932D01*
X175283411Y-57415990D01*
X175526632Y-57253475D01*
X175733475Y-57046632D01*
X175850000Y-56872240D01*
X175966525Y-57046632D01*
X176173368Y-57253475D01*
X176382192Y-57393006D01*
X176310198Y-57465000D01*
X176138212Y-57465000D01*
X175918933Y-57508617D01*
X175712376Y-57594176D01*
X175526480Y-57718388D01*
X175368388Y-57876480D01*
X175355608Y-57895606D01*
X175225734Y-57965026D01*
X175164844Y-58014998D01*
X175110010Y-58059999D01*
X175086212Y-58088997D01*
X173660199Y-59515011D01*
X173598061Y-59515011D01*
X173398102Y-59554785D01*
X173209744Y-59632806D01*
X173040226Y-59746074D01*
X172896063Y-59890237D01*
X172782795Y-60059755D01*
X172704774Y-60248113D01*
X172665000Y-60448072D01*
X172665000Y-60651950D01*
X172704774Y-60851909D01*
X172782795Y-61040267D01*
X172896063Y-61209785D01*
X173040226Y-61353948D01*
X173209744Y-61467216D01*
X173398102Y-61545237D01*
X173598061Y-61585011D01*
X173801939Y-61585011D01*
X174001898Y-61545237D01*
X174190256Y-61467216D01*
X174359774Y-61353948D01*
X174503937Y-61209785D01*
X174617205Y-61040267D01*
X174695226Y-60851909D01*
X174735000Y-60651950D01*
X174735000Y-60589812D01*
X175717052Y-59607761D01*
X175918933Y-59691383D01*
X176138212Y-59735000D01*
X176361788Y-59735000D01*
X176581067Y-59691383D01*
X176787624Y-59605824D01*
X176885000Y-59540759D01*
X176982376Y-59605824D01*
X177188933Y-59691383D01*
X177259999Y-59705519D01*
X177259999Y-61035455D01*
X177235274Y-61030537D01*
X177031396Y-61030537D01*
X176831437Y-61070311D01*
X176643079Y-61148332D01*
X176473561Y-61261600D01*
X176329398Y-61405763D01*
X176216130Y-61575281D01*
X176138109Y-61763639D01*
X176098335Y-61963598D01*
X176098335Y-62025735D01*
X174519025Y-63605046D01*
X174490021Y-63628849D01*
X174457902Y-63667987D01*
X174395048Y-63744574D01*
X174325705Y-63874305D01*
X174324476Y-63876604D01*
X174281019Y-64019865D01*
X174270022Y-64131518D01*
X174270022Y-64131528D01*
X174266346Y-64168850D01*
X174270022Y-64206172D01*
X174270022Y-64370906D01*
X174198010Y-64298894D01*
X174198010Y-64216312D01*
X174201686Y-64178989D01*
X174198010Y-64141666D01*
X174198010Y-64141657D01*
X174187013Y-64030004D01*
X174143556Y-63886743D01*
X174123926Y-63850019D01*
X174072984Y-63754713D01*
X174001809Y-63667987D01*
X173978011Y-63638989D01*
X173949014Y-63615192D01*
X171960000Y-61626179D01*
X171960000Y-61203711D01*
X172003937Y-61159774D01*
X172117205Y-60990256D01*
X172195226Y-60801898D01*
X172235000Y-60601939D01*
X172235000Y-60398061D01*
X172195226Y-60198102D01*
X172117205Y-60009744D01*
X172003937Y-59840226D01*
X171859774Y-59696063D01*
X171690256Y-59582795D01*
X171501898Y-59504774D01*
X171301939Y-59465000D01*
X171098061Y-59465000D01*
X170898102Y-59504774D01*
X170709744Y-59582795D01*
X170685000Y-59599328D01*
X170685000Y-56709232D01*
X170724010Y-56803411D01*
G37*
%TD.AperFunction*%
D21*
X182747000Y-58727000D02*
X182727000Y-58727000D01*
X182727000Y-58747000D01*
X182473000Y-58747000D01*
X182473000Y-58727000D01*
X182461974Y-58727000D01*
X182465000Y-58711788D01*
X182465000Y-58534999D01*
X182747000Y-58534999D01*
X182747000Y-58727000D01*
%TA.AperFunction,Conductor*%
D22*
G36*
X182747000Y-58727000D02*
G01*
X182727000Y-58727000D01*
X182727000Y-58747000D01*
X182473000Y-58747000D01*
X182473000Y-58727000D01*
X182461974Y-58727000D01*
X182465000Y-58711788D01*
X182465000Y-58534999D01*
X182747000Y-58534999D01*
X182747000Y-58727000D01*
G37*
%TD.AperFunction*%
D21*
X182327000Y-55973000D02*
X182347000Y-55973000D01*
X182347000Y-56227000D01*
X182327000Y-56227000D01*
X182327000Y-56247000D01*
X182073000Y-56247000D01*
X182073000Y-56227000D01*
X182053000Y-56227000D01*
X182053000Y-55973000D01*
X182073000Y-55973000D01*
X182073000Y-55953000D01*
X182327000Y-55953000D01*
X182327000Y-55973000D01*
%TA.AperFunction,Conductor*%
D22*
G36*
X182327000Y-55973000D02*
G01*
X182347000Y-55973000D01*
X182347000Y-56227000D01*
X182327000Y-56227000D01*
X182327000Y-56247000D01*
X182073000Y-56247000D01*
X182073000Y-56227000D01*
X182053000Y-56227000D01*
X182053000Y-55973000D01*
X182073000Y-55973000D01*
X182073000Y-55953000D01*
X182327000Y-55953000D01*
X182327000Y-55973000D01*
G37*
%TD.AperFunction*%
%TD*%
M02*
