%TF.GenerationSoftware,KiCad,Pcbnew,(6.0.1-0)*%
%TF.CreationDate,2022-02-11T11:51:59+00:00*%
%TF.ProjectId,Shelly,5368656c-6c79-42e6-9b69-6361645f7063,4*%
%TF.SameCoordinates,Original*%
%TF.FileFunction,Copper,L2,Bot*%
%TF.FilePolarity,Positive*%
%FSLAX46Y46*%
G04 Gerber Fmt 4.6, Leading zero omitted, Abs format (unit mm)*
G04 Created by KiCad (PCBNEW (6.0.1-0)) date 2022-02-11 11:51:59*
%MOMM*%
%LPD*%
G01*
G04 APERTURE LIST*
%ADD10C,0.080000*%
%TA.AperFunction,NonConductor*%
%ADD11C,0.080000*%
%TD*%
%TA.AperFunction,EtchedComponent*%
%ADD12C,0.080000*%
%TD*%
%TA.AperFunction,EtchedComponent*%
%ADD13C,0.250000*%
%TD*%
%TA.AperFunction,ComponentPad*%
%ADD14R,1.700000X1.700000*%
%TD*%
%TA.AperFunction,ComponentPad*%
%ADD15O,1.700000X1.700000*%
%TD*%
%TA.AperFunction,ComponentPad*%
%ADD16C,0.350000*%
%TD*%
%TA.AperFunction,ComponentPad*%
%ADD17C,1.500000*%
%TD*%
%TA.AperFunction,ComponentPad*%
%ADD18C,1.250000*%
%TD*%
%TA.AperFunction,ComponentPad*%
%ADD19C,0.600000*%
%TD*%
%TA.AperFunction,ComponentPad*%
%ADD20R,1.000000X1.000000*%
%TD*%
%TA.AperFunction,ComponentPad*%
%ADD21O,1.000000X1.000000*%
%TD*%
%TA.AperFunction,SMDPad,CuDef*%
%ADD22R,0.200000X0.200000*%
%TD*%
%TA.AperFunction,SMDPad,CuDef*%
%ADD23R,0.600000X0.200000*%
%TD*%
%TA.AperFunction,SMDPad,CuDef*%
%ADD24R,0.400000X0.400000*%
%TD*%
%TA.AperFunction,SMDPad,CuDef*%
%ADD25R,0.200000X1.400000*%
%TD*%
%TA.AperFunction,SMDPad,CuDef*%
%ADD26R,0.200000X0.600000*%
%TD*%
%TA.AperFunction,SMDPad,CuDef*%
%ADD27R,0.400000X0.200000*%
%TD*%
%TA.AperFunction,SMDPad,CuDef*%
%ADD28R,0.800000X0.200000*%
%TD*%
%TA.AperFunction,SMDPad,CuDef*%
%ADD29R,0.200000X0.800000*%
%TD*%
%TA.AperFunction,SMDPad,CuDef*%
%ADD30R,0.200000X1.000000*%
%TD*%
%TA.AperFunction,SMDPad,CuDef*%
%ADD31R,1.200000X0.200000*%
%TD*%
%TA.AperFunction,SMDPad,CuDef*%
%ADD32R,0.600000X0.600000*%
%TD*%
%TA.AperFunction,SMDPad,CuDef*%
%ADD33R,0.200000X0.400000*%
%TD*%
%TA.AperFunction,SMDPad,CuDef*%
%ADD34R,0.600000X0.400000*%
%TD*%
%TA.AperFunction,SMDPad,CuDef*%
%ADD35R,1.000000X0.200000*%
%TD*%
%TA.AperFunction,ViaPad*%
%ADD36C,0.800000*%
%TD*%
%TA.AperFunction,Conductor*%
%ADD37C,0.250000*%
%TD*%
G04 APERTURE END LIST*
D10*
D11*
X177973809Y-67386000D02*
X177950000Y-67409666D01*
X177926190Y-67457000D01*
X177926190Y-67575333D01*
X177950000Y-67622666D01*
X177973809Y-67646333D01*
X178021428Y-67670000D01*
X178069047Y-67670000D01*
X178140476Y-67646333D01*
X178426190Y-67362333D01*
X178426190Y-67670000D01*
X177926190Y-67977666D02*
X177926190Y-68025000D01*
X177950000Y-68072333D01*
X177973809Y-68096000D01*
X178021428Y-68119666D01*
X178116666Y-68143333D01*
X178235714Y-68143333D01*
X178330952Y-68119666D01*
X178378571Y-68096000D01*
X178402380Y-68072333D01*
X178426190Y-68025000D01*
X178426190Y-67977666D01*
X178402380Y-67930333D01*
X178378571Y-67906666D01*
X178330952Y-67883000D01*
X178235714Y-67859333D01*
X178116666Y-67859333D01*
X178021428Y-67883000D01*
X177973809Y-67906666D01*
X177950000Y-67930333D01*
X177926190Y-67977666D01*
X177973809Y-68332666D02*
X177950000Y-68356333D01*
X177926190Y-68403666D01*
X177926190Y-68522000D01*
X177950000Y-68569333D01*
X177973809Y-68593000D01*
X178021428Y-68616666D01*
X178069047Y-68616666D01*
X178140476Y-68593000D01*
X178426190Y-68309000D01*
X178426190Y-68616666D01*
X177973809Y-68806000D02*
X177950000Y-68829666D01*
X177926190Y-68877000D01*
X177926190Y-68995333D01*
X177950000Y-69042666D01*
X177973809Y-69066333D01*
X178021428Y-69090000D01*
X178069047Y-69090000D01*
X178140476Y-69066333D01*
X178426190Y-68782333D01*
X178426190Y-69090000D01*
X178235714Y-69303000D02*
X178235714Y-69681666D01*
X177926190Y-70013000D02*
X177926190Y-70060333D01*
X177950000Y-70107666D01*
X177973809Y-70131333D01*
X178021428Y-70155000D01*
X178116666Y-70178666D01*
X178235714Y-70178666D01*
X178330952Y-70155000D01*
X178378571Y-70131333D01*
X178402380Y-70107666D01*
X178426190Y-70060333D01*
X178426190Y-70013000D01*
X178402380Y-69965666D01*
X178378571Y-69942000D01*
X178330952Y-69918333D01*
X178235714Y-69894666D01*
X178116666Y-69894666D01*
X178021428Y-69918333D01*
X177973809Y-69942000D01*
X177950000Y-69965666D01*
X177926190Y-70013000D01*
X177973809Y-70368000D02*
X177950000Y-70391666D01*
X177926190Y-70439000D01*
X177926190Y-70557333D01*
X177950000Y-70604666D01*
X177973809Y-70628333D01*
X178021428Y-70652000D01*
X178069047Y-70652000D01*
X178140476Y-70628333D01*
X178426190Y-70344333D01*
X178426190Y-70652000D01*
X178235714Y-70865000D02*
X178235714Y-71243666D01*
X177926190Y-71575000D02*
X177926190Y-71622333D01*
X177950000Y-71669666D01*
X177973809Y-71693333D01*
X178021428Y-71717000D01*
X178116666Y-71740666D01*
X178235714Y-71740666D01*
X178330952Y-71717000D01*
X178378571Y-71693333D01*
X178402380Y-71669666D01*
X178426190Y-71622333D01*
X178426190Y-71575000D01*
X178402380Y-71527666D01*
X178378571Y-71504000D01*
X178330952Y-71480333D01*
X178235714Y-71456666D01*
X178116666Y-71456666D01*
X178021428Y-71480333D01*
X177973809Y-71504000D01*
X177950000Y-71527666D01*
X177926190Y-71575000D01*
X177926190Y-71906333D02*
X177926190Y-72237666D01*
X178426190Y-72024666D01*
D12*
%TO.C,Art1*%
X178000000Y-77500000D02*
X177900000Y-77500000D01*
D13*
X176400000Y-77500000D02*
X179400000Y-81700000D01*
D12*
X178000000Y-77500000D02*
X178000000Y-77800000D01*
X178000000Y-77660000D02*
X177900000Y-77660000D01*
D13*
X176400000Y-79600000D02*
X177900000Y-79600000D01*
X174600000Y-77600000D02*
X176400000Y-79600000D01*
X176400000Y-79600000D02*
X174600000Y-81700000D01*
X176400000Y-77500000D02*
X176400000Y-81700000D01*
D12*
X177900000Y-77660000D02*
X177800000Y-77800000D01*
D13*
X176400000Y-81700000D02*
G75*
G03*
X177900000Y-81700000I750000J0D01*
G01*
D12*
X177900000Y-77500000D02*
G75*
G03*
X177900000Y-77660000I0J-80000D01*
G01*
X178220000Y-77660000D02*
G75*
G03*
X178220000Y-77660000I-300000J0D01*
G01*
%TD*%
D14*
%TO.P,J1,1,Pin_1*%
%TO.N,GND*%
X182200000Y-56100000D03*
D15*
%TO.P,J1,2,Pin_2*%
%TO.N,GPIO0*%
X179660000Y-56100000D03*
%TO.P,J1,3,Pin_3*%
%TO.N,Net-(J1-Pad3)*%
X177120000Y-56100000D03*
%TO.P,J1,4,Pin_4*%
%TO.N,RXD*%
X174580000Y-56100000D03*
%TO.P,J1,5,Pin_5*%
%TO.N,TXD*%
X172040000Y-56100000D03*
%TD*%
D16*
%TO.P,U1,21,GND*%
%TO.N,GND*%
X180700000Y-62200000D03*
%TD*%
D17*
%TO.P,J3,S1,SHIELD*%
%TO.N,GND*%
X181320000Y-76620000D03*
D18*
X181320000Y-80790000D03*
X172680000Y-80790000D03*
D17*
X172680000Y-76620000D03*
D19*
X179890000Y-77110000D03*
X174110000Y-77110000D03*
%TD*%
D20*
%TO.P,J2,1,Pin_1*%
%TO.N,GND*%
X182600000Y-58600000D03*
D21*
%TO.P,J2,2,Pin_2*%
%TO.N,GPIO0*%
X181330000Y-58600000D03*
%TO.P,J2,3,Pin_3*%
%TO.N,Net-(J1-Pad3)*%
X180060000Y-58600000D03*
%TO.P,J2,4,Pin_4*%
%TO.N,+3V3*%
X178790000Y-58600000D03*
%TO.P,J2,5,Pin_5*%
%TO.N,RXD*%
X177520000Y-58600000D03*
%TO.P,J2,6,Pin_6*%
%TO.N,TXD*%
X176250000Y-58600000D03*
%TD*%
D22*
%TO.P,Art2,*%
%TO.N,*%
X174900000Y-71800000D03*
D23*
X175500000Y-69600000D03*
D24*
X176400000Y-69500000D03*
D25*
X172500000Y-71200000D03*
D26*
X172500000Y-70000000D03*
D27*
X173000000Y-69400000D03*
D22*
X174500000Y-70600000D03*
D28*
X175600000Y-68400000D03*
D22*
X173700000Y-70200000D03*
D27*
X176400000Y-68400000D03*
D29*
X172700000Y-69700000D03*
D22*
X175900000Y-68000000D03*
D23*
X175900000Y-69000000D03*
D22*
X174900000Y-69000000D03*
D28*
X174800000Y-70200000D03*
D22*
X173500000Y-69600000D03*
D29*
X174100000Y-71500000D03*
D22*
X173100000Y-69600000D03*
X175100000Y-69800000D03*
D30*
X173700000Y-68400000D03*
D31*
X173200000Y-70600000D03*
D25*
X175300000Y-71200000D03*
D27*
X175000000Y-68600000D03*
D32*
X175900000Y-71200000D03*
D26*
X174500000Y-69000000D03*
D23*
X175300000Y-68000000D03*
D25*
X172500000Y-68400000D03*
D32*
X173100000Y-68400000D03*
D22*
X175300000Y-69000000D03*
D26*
X174300000Y-71600000D03*
D31*
X176000000Y-70600000D03*
D28*
X175800000Y-69800000D03*
D33*
X175500000Y-69300000D03*
X176500000Y-68100000D03*
D22*
X174500000Y-71400000D03*
D31*
X173200000Y-71800000D03*
D22*
X173300000Y-69800000D03*
D23*
X173100000Y-70200000D03*
D27*
X173200000Y-70000000D03*
D31*
X174200000Y-69800000D03*
D26*
X174100000Y-69400000D03*
D22*
X173900000Y-70000000D03*
D27*
X174800000Y-71200000D03*
D24*
X174800000Y-69500000D03*
D30*
X176500000Y-71200000D03*
D23*
X176300000Y-70200000D03*
D31*
X173200000Y-67800000D03*
X173200000Y-69000000D03*
D22*
X176500000Y-70000000D03*
X174100000Y-70200000D03*
D33*
X174500000Y-68300000D03*
D27*
X175800000Y-69400000D03*
D34*
X174500000Y-70900000D03*
D33*
X175900000Y-70100000D03*
D22*
X175500000Y-68200000D03*
X175100000Y-69200000D03*
X173700000Y-69400000D03*
D26*
X174100000Y-68400000D03*
D27*
X174200000Y-67800000D03*
D35*
X175500000Y-68800000D03*
D22*
X172900000Y-69800000D03*
D26*
X174900000Y-70600000D03*
D22*
X175300000Y-70000000D03*
D30*
X173700000Y-71200000D03*
D22*
X174100000Y-70600000D03*
D27*
X175400000Y-67800000D03*
D22*
X176500000Y-69000000D03*
X176100000Y-69200000D03*
D26*
X174700000Y-68600000D03*
D31*
X176000000Y-71800000D03*
D27*
X176400000Y-68800000D03*
X174800000Y-71600000D03*
D32*
X173100000Y-71200000D03*
D33*
X174300000Y-69500000D03*
D27*
X176000000Y-68600000D03*
%TD*%
D36*
%TO.N,GND*%
X173100000Y-62000000D03*
X171100000Y-60200000D03*
X179635478Y-72275500D03*
X177394473Y-66354963D03*
X174500000Y-64000000D03*
X173600000Y-73700000D03*
X179600000Y-69600000D03*
X174600000Y-57700000D03*
X181323526Y-66675500D03*
%TO.N,VBUS*%
X171300000Y-63400000D03*
X171784990Y-74436103D03*
%TO.N,RXD*%
X177853918Y-64117827D03*
%TO.N,+3V3*%
X170609922Y-75013509D03*
X171100000Y-62200000D03*
%TO.N,GPIO0*%
X179754439Y-65499329D03*
%TO.N,TXD*%
X173510538Y-57597948D03*
X183350000Y-57500000D03*
%TO.N,RST*%
X171000000Y-57600000D03*
X181962641Y-65100000D03*
%TO.N,D-*%
X182850002Y-72000000D03*
X178974010Y-60190693D03*
%TO.N,D+*%
X182884188Y-60184188D03*
X183250000Y-74000000D03*
%TO.N,Net-(C1-Pad1)*%
X176094056Y-62480310D03*
X182602434Y-64077448D03*
%TO.N,Net-(D3-Pad1)*%
X172000000Y-82350000D03*
X172900000Y-64500000D03*
%TO.N,Net-(J3-PadA6)*%
X176757146Y-74724500D03*
X181213616Y-74465690D03*
%TO.N,Net-(J3-PadA5)*%
X182000000Y-79200000D03*
X175000000Y-74200000D03*
%TD*%
D37*
%TO.N,GND*%
X174600000Y-57700000D02*
X175017158Y-57700000D01*
X182600000Y-58624977D02*
X182600000Y-58600000D01*
X181024999Y-57275001D02*
X176043195Y-57275001D01*
X182021529Y-60021529D02*
X181305950Y-60737108D01*
X182599999Y-58624977D02*
G75*
G02*
X182021528Y-60021528I-1975022J0D01*
G01*
X175500000Y-57500000D02*
G75*
G02*
X176043195Y-57275001I543194J-543191D01*
G01*
X175500000Y-57500000D02*
G75*
G02*
X175017158Y-57700000I-482841J482839D01*
G01*
X180700000Y-62200000D02*
G75*
G02*
X181305950Y-60737108I2068836J2D01*
G01*
X181024999Y-57275001D02*
G75*
G03*
X182200000Y-56100000I-1J1175002D01*
G01*
%TO.N,VBUS*%
X170899991Y-73551104D02*
X170899991Y-64939273D01*
X170899991Y-64939273D02*
X170899991Y-63800009D01*
X171300000Y-63400000D02*
G75*
G03*
X170899991Y-63800009I0J-400009D01*
G01*
X170899991Y-73551104D02*
G75*
G03*
X171784990Y-74436103I884998J-1D01*
G01*
%TO.N,RXD*%
X177520000Y-63311678D02*
X177520000Y-59420000D01*
X172968038Y-57058958D02*
X173465253Y-56561744D01*
X173074107Y-58247111D02*
X173538498Y-58711502D01*
X175261036Y-59425001D02*
X176694999Y-59425001D01*
X176707072Y-59420000D02*
X177520000Y-59420000D01*
X177520000Y-58600000D02*
X177520000Y-59420000D01*
X173074107Y-58247111D02*
G75*
G02*
X172774998Y-57524998I722113J722113D01*
G01*
X172968038Y-57058958D02*
G75*
G03*
X172774998Y-57524998I466035J-466038D01*
G01*
X177520000Y-63311678D02*
G75*
G03*
X177853918Y-64117827I1140071J2D01*
G01*
X176707072Y-59420001D02*
G75*
G03*
X176695000Y-59425002I-1J-17070D01*
G01*
X173465253Y-56561744D02*
G75*
G02*
X174580000Y-56100000I1114745J-1114740D01*
G01*
X175261036Y-59425000D02*
G75*
G02*
X173538499Y-58711501I0J2436035D01*
G01*
%TO.N,+3V3*%
X170449980Y-74853567D02*
X170449980Y-62850020D01*
X171100000Y-62200000D02*
G75*
G03*
X170449980Y-62850020I-2J-650018D01*
G01*
X170609922Y-75013509D02*
G75*
G02*
X170449980Y-74853567I0J159942D01*
G01*
%TO.N,GPIO0*%
X178975687Y-59424511D02*
X180505489Y-59424511D01*
X179086300Y-63886300D02*
X178800000Y-63600000D01*
X178200099Y-62151711D02*
X178200099Y-60200099D01*
X181330000Y-58600000D02*
G75*
G02*
X180505489Y-59424511I-824512J1D01*
G01*
X178200099Y-62151711D02*
G75*
G03*
X178800000Y-63600000I2048189J0D01*
G01*
X178975687Y-59424511D02*
G75*
G03*
X178200099Y-60200099I-2J-775586D01*
G01*
X179086300Y-63886300D02*
G75*
G02*
X179754439Y-65499329I-1613031J-1613031D01*
G01*
%TO.N,TXD*%
X173913499Y-58086501D02*
X173551620Y-57724622D01*
X173527249Y-57699554D02*
X173510538Y-57682843D01*
X176250000Y-58600000D02*
X175153195Y-58600000D01*
X173510538Y-57682843D02*
X173510538Y-57597948D01*
X183075001Y-57774999D02*
X177075001Y-57774999D01*
X173913499Y-58086501D02*
G75*
G03*
X175153195Y-58600000I1239697J1239698D01*
G01*
X176250000Y-58600000D02*
G75*
G02*
X177075001Y-57774999I825000J1D01*
G01*
X183075001Y-57774999D02*
G75*
G03*
X183350000Y-57500000I1J274998D01*
G01*
X173527249Y-57699554D02*
G75*
G02*
X173551620Y-57724622I-168677J-188368D01*
G01*
%TO.N,RST*%
X180251823Y-66027201D02*
X180639512Y-65639512D01*
X181942009Y-65100000D02*
X181962641Y-65100000D01*
X171000000Y-57600000D02*
X172000000Y-57600000D01*
X177584980Y-64970573D02*
X178470573Y-64970573D01*
X176979595Y-60479595D02*
X176979595Y-64365188D01*
X172512132Y-58412132D02*
X173100000Y-59000000D01*
X175212465Y-59875012D02*
X176375012Y-59875012D01*
X179000000Y-65500000D02*
X179000000Y-65553901D01*
X179668471Y-66222372D02*
X179775499Y-66224501D01*
X177584980Y-64970573D02*
G75*
G02*
X176979595Y-64365188I-1J605384D01*
G01*
X175212465Y-59875012D02*
G75*
G02*
X173100000Y-59000000I-3J2987468D01*
G01*
X176979595Y-60479595D02*
G75*
G03*
X176375012Y-59875012I-604582J1D01*
G01*
X179000000Y-65500000D02*
G75*
G03*
X178470573Y-64970573I-529428J-1D01*
G01*
X181942009Y-65100000D02*
G75*
G03*
X180639512Y-65639512I-2J-1842003D01*
G01*
X172512132Y-58412132D02*
G75*
G02*
X172300000Y-57900000I512128J512130D01*
G01*
X180251823Y-66027201D02*
G75*
G02*
X179775499Y-66224501I-476325J476327D01*
G01*
X179668471Y-66222372D02*
G75*
G02*
X179000000Y-65553901I1J668472D01*
G01*
X172300000Y-57900000D02*
G75*
G03*
X172000000Y-57600000I-300000J0D01*
G01*
%TO.N,D-*%
X178974010Y-60190693D02*
X178974010Y-62274010D01*
X183326935Y-71523067D02*
X183326935Y-64026935D01*
X180000000Y-63300000D02*
X182600000Y-63300000D01*
X183326935Y-64026935D02*
G75*
G03*
X182600000Y-63300000I-726934J1D01*
G01*
X180000000Y-63300000D02*
G75*
G02*
X178974010Y-62274010I2J1025992D01*
G01*
X183326935Y-71523067D02*
G75*
G02*
X182850002Y-72000000I-476931J-2D01*
G01*
%TO.N,D+*%
X183776445Y-73473555D02*
X183776445Y-61076445D01*
X183776445Y-73473555D02*
G75*
G02*
X183250000Y-74000000I-526444J-1D01*
G01*
X182884188Y-60184188D02*
G75*
G02*
X183776445Y-61076445I0J-892257D01*
G01*
%TO.N,Net-(C1-Pad1)*%
X179674011Y-66674011D02*
X179825989Y-66674011D01*
X180554551Y-66416400D02*
X180635885Y-66338541D01*
X182388499Y-65916345D02*
X182499268Y-65852392D01*
X181251418Y-65950999D02*
X182200999Y-65950999D01*
X182688317Y-64145582D02*
X182675242Y-64114016D01*
X176094056Y-62480310D02*
X176094056Y-63844056D01*
X180159363Y-66627632D02*
X180367359Y-66541477D01*
X182653663Y-65651181D02*
X182686767Y-65527634D01*
X182200999Y-65950999D02*
X182264952Y-65949449D01*
X179938556Y-66671553D02*
X180159363Y-66627632D01*
X182264952Y-65949449D02*
X182388499Y-65916345D01*
X182589710Y-65761950D02*
X182653663Y-65651181D01*
X176465849Y-64741642D02*
X176987103Y-65262897D01*
X178308134Y-65810086D02*
X178817125Y-66319077D01*
X180635885Y-66338541D02*
X180862213Y-66112213D01*
X181039567Y-65989964D02*
X181179159Y-65952560D01*
X182688317Y-65463681D02*
X182688317Y-64145582D01*
X182686767Y-65527634D02*
X182688317Y-65463681D01*
X182499268Y-65852392D02*
X182589710Y-65761950D01*
X179825989Y-66674011D02*
X179938556Y-66671553D01*
X182675242Y-64114016D02*
X182651083Y-64089857D01*
X182619517Y-64076782D02*
X182602434Y-64077448D01*
X182651083Y-64089857D02*
X182619517Y-64076782D01*
X180914411Y-66062223D02*
X181039567Y-65989964D01*
X180367359Y-66541477D02*
X180554551Y-66416400D01*
X180862213Y-66112213D02*
X180914411Y-66062223D01*
X181179159Y-65952560D02*
X181251418Y-65950999D01*
X177461170Y-65459261D02*
G75*
G02*
X176987103Y-65262897I0J670432D01*
G01*
X179674011Y-66674010D02*
G75*
G02*
X178817126Y-66319076I-3J1211812D01*
G01*
X178308134Y-65810086D02*
G75*
G03*
X177461170Y-65459262I-846962J-846960D01*
G01*
X176465849Y-64741642D02*
G75*
G02*
X176094056Y-63844056I897586J897587D01*
G01*
%TO.N,Net-(D3-Pad1)*%
X172900000Y-64500000D02*
X172300000Y-64500000D01*
X170650000Y-76600000D02*
X170650000Y-81750000D01*
X172510000Y-73760000D02*
X172510000Y-74910000D01*
X171400000Y-65400000D02*
X171400000Y-72650000D01*
X171995000Y-75425000D02*
X171825000Y-75425000D01*
X172000000Y-82350000D02*
X171250000Y-82350000D01*
X171400000Y-65400000D02*
G75*
G02*
X172300000Y-64500000I900000J0D01*
G01*
X172000000Y-73250000D02*
G75*
G02*
X171400000Y-72650000I0J600000D01*
G01*
X170650000Y-76600000D02*
G75*
G02*
X171825000Y-75425000I1175002J-2D01*
G01*
X171995000Y-75425000D02*
G75*
G03*
X172510000Y-74910000I0J515000D01*
G01*
X170650000Y-81750000D02*
G75*
G03*
X171250000Y-82350000I600000J0D01*
G01*
X172510000Y-73760000D02*
G75*
G03*
X172000000Y-73250000I-510002J-2D01*
G01*
%TO.N,Net-(J3-PadA6)*%
X176831646Y-74650000D02*
X176757146Y-74724500D01*
X181029306Y-74650000D02*
X176831646Y-74650000D01*
X181079306Y-74600000D02*
G75*
G03*
X181213616Y-74465690I2J134308D01*
G01*
X181029306Y-74650000D02*
G75*
G03*
X181213616Y-74465690I1J184309D01*
G01*
%TO.N,Net-(J3-PadA5)*%
X175000000Y-74200000D02*
X175000000Y-74700000D01*
X176600000Y-76300000D02*
X177700000Y-76300000D01*
X180600000Y-79200000D02*
X182000000Y-79200000D01*
X179000000Y-77600000D02*
G75*
G03*
X177700000Y-76300000I-1299999J1D01*
G01*
X180600000Y-79200000D02*
G75*
G02*
X179000000Y-77600000I-1J1599999D01*
G01*
X176600000Y-76300000D02*
G75*
G02*
X175000000Y-74700000I-1J1599999D01*
G01*
%TD*%
%TA.AperFunction,Conductor*%
%TO.N,GND*%
G36*
X182865467Y-66127053D02*
G01*
X182922303Y-66169600D01*
X182947114Y-66236120D01*
X182947435Y-66245109D01*
X182947435Y-71219308D01*
X182927433Y-71287429D01*
X182873777Y-71333922D01*
X182820775Y-71345306D01*
X182774223Y-71345062D01*
X182766843Y-71346834D01*
X182766841Y-71346834D01*
X182627565Y-71380271D01*
X182627562Y-71380272D01*
X182620186Y-71382043D01*
X182479416Y-71454700D01*
X182360041Y-71558838D01*
X182268952Y-71688444D01*
X182211408Y-71836037D01*
X182190731Y-71993096D01*
X182208115Y-72150553D01*
X182262555Y-72299319D01*
X182350910Y-72430805D01*
X182468078Y-72537419D01*
X182607295Y-72613008D01*
X182760524Y-72653207D01*
X182844479Y-72654526D01*
X182911321Y-72655576D01*
X182911324Y-72655576D01*
X182918918Y-72655695D01*
X183073334Y-72620329D01*
X183080120Y-72616916D01*
X183080123Y-72616915D01*
X183214332Y-72549416D01*
X183284176Y-72536678D01*
X183349820Y-72563722D01*
X183390421Y-72621963D01*
X183396945Y-72661981D01*
X183396945Y-73219567D01*
X183376943Y-73287688D01*
X183323287Y-73334181D01*
X183270285Y-73345565D01*
X183216501Y-73345284D01*
X183174221Y-73345062D01*
X183166841Y-73346834D01*
X183166839Y-73346834D01*
X183027563Y-73380271D01*
X183027560Y-73380272D01*
X183020184Y-73382043D01*
X182879414Y-73454700D01*
X182760039Y-73558838D01*
X182668950Y-73688444D01*
X182645489Y-73748618D01*
X182617024Y-73821628D01*
X182611406Y-73836037D01*
X182610414Y-73843570D01*
X182610414Y-73843571D01*
X182599121Y-73929354D01*
X182590729Y-73993096D01*
X182595470Y-74036037D01*
X182603524Y-74108984D01*
X182608113Y-74150553D01*
X182610723Y-74157684D01*
X182610723Y-74157686D01*
X182658979Y-74289552D01*
X182662553Y-74299319D01*
X182666789Y-74305622D01*
X182666789Y-74305623D01*
X182728683Y-74397730D01*
X182750908Y-74430805D01*
X182756527Y-74435918D01*
X182756528Y-74435919D01*
X182862460Y-74532309D01*
X182868076Y-74537419D01*
X183007293Y-74613008D01*
X183160522Y-74653207D01*
X183244477Y-74654526D01*
X183311319Y-74655576D01*
X183311322Y-74655576D01*
X183318916Y-74655695D01*
X183473332Y-74620329D01*
X183563386Y-74575037D01*
X183633231Y-74562299D01*
X183698875Y-74589343D01*
X183739476Y-74647584D01*
X183746000Y-74687602D01*
X183746000Y-81962575D01*
X183743579Y-81987153D01*
X183741024Y-82000000D01*
X183743445Y-82012172D01*
X183743445Y-82019754D01*
X183742838Y-82032104D01*
X183732882Y-82133188D01*
X183728065Y-82157408D01*
X183692813Y-82273617D01*
X183683369Y-82296418D01*
X183626124Y-82403517D01*
X183612406Y-82424047D01*
X183535374Y-82517909D01*
X183517909Y-82535374D01*
X183424047Y-82612406D01*
X183403517Y-82626124D01*
X183296418Y-82683369D01*
X183273617Y-82692813D01*
X183157408Y-82728065D01*
X183133188Y-82732882D01*
X183032104Y-82742838D01*
X183019754Y-82743445D01*
X183012172Y-82743445D01*
X183000000Y-82741024D01*
X182987153Y-82743579D01*
X182962575Y-82746000D01*
X178004838Y-82746000D01*
X177936717Y-82725998D01*
X177890224Y-82672342D01*
X177880120Y-82602068D01*
X177909614Y-82537488D01*
X177915743Y-82530905D01*
X178018168Y-82428480D01*
X178131478Y-82266657D01*
X178133801Y-82261675D01*
X178133804Y-82261670D01*
X178212643Y-82092598D01*
X178212643Y-82092597D01*
X178214966Y-82087616D01*
X178220194Y-82068107D01*
X178238581Y-81999483D01*
X178266095Y-81896798D01*
X178282806Y-81705797D01*
X178283724Y-81700000D01*
X178264943Y-81581423D01*
X178210439Y-81474453D01*
X178125547Y-81389561D01*
X178018577Y-81335057D01*
X178008787Y-81333506D01*
X178008786Y-81333506D01*
X177909792Y-81317827D01*
X177900000Y-81316276D01*
X177890208Y-81317827D01*
X177791214Y-81333506D01*
X177791213Y-81333506D01*
X177781423Y-81335057D01*
X177674453Y-81389561D01*
X177589561Y-81474453D01*
X177535057Y-81581423D01*
X177516276Y-81700000D01*
X177517827Y-81709793D01*
X177517827Y-81713053D01*
X177516545Y-81730984D01*
X177508550Y-81786591D01*
X177498446Y-81821002D01*
X177469631Y-81884099D01*
X177450242Y-81914269D01*
X177404815Y-81966694D01*
X177377713Y-81990177D01*
X177319358Y-82027679D01*
X177286737Y-82042577D01*
X177220181Y-82062120D01*
X177184682Y-82067224D01*
X177115318Y-82067224D01*
X177079819Y-82062120D01*
X177013263Y-82042577D01*
X176980642Y-82027679D01*
X176922287Y-81990177D01*
X176895185Y-81966694D01*
X176849758Y-81914269D01*
X176830369Y-81884099D01*
X176801554Y-81821002D01*
X176791450Y-81786591D01*
X176783455Y-81730984D01*
X176782173Y-81713053D01*
X176782173Y-81709793D01*
X176783724Y-81700000D01*
X176780551Y-81679966D01*
X176779000Y-81660256D01*
X176779000Y-80105000D01*
X176799002Y-80036879D01*
X176852658Y-79990386D01*
X176905000Y-79979000D01*
X177640119Y-79979000D01*
X177708240Y-79999002D01*
X177742648Y-80031763D01*
X178258874Y-80754479D01*
X179103850Y-81937446D01*
X179109897Y-81945912D01*
X179113570Y-81949587D01*
X179113573Y-81949590D01*
X179126553Y-81962575D01*
X179176530Y-82012573D01*
X179289826Y-82068107D01*
X179343402Y-82074887D01*
X179404670Y-82082640D01*
X179404673Y-82082640D01*
X179415002Y-82083947D01*
X179425197Y-82081838D01*
X179425199Y-82081838D01*
X179528368Y-82060497D01*
X179528371Y-82060496D01*
X179538561Y-82058388D01*
X179647179Y-81994184D01*
X179669437Y-81968135D01*
X179688425Y-81945912D01*
X179729144Y-81898256D01*
X179775617Y-81780953D01*
X179776603Y-81760152D01*
X179777116Y-81749319D01*
X180725041Y-81749319D01*
X180734923Y-81761809D01*
X180772259Y-81786756D01*
X180782371Y-81792247D01*
X180963081Y-81869885D01*
X180974014Y-81873437D01*
X181165844Y-81916845D01*
X181177253Y-81918347D01*
X181373783Y-81926068D01*
X181385265Y-81925466D01*
X181579905Y-81897245D01*
X181591101Y-81894557D01*
X181777343Y-81831336D01*
X181787840Y-81826662D01*
X181906401Y-81760266D01*
X181916264Y-81750189D01*
X181913309Y-81742519D01*
X181332812Y-81162022D01*
X181318868Y-81154408D01*
X181317035Y-81154539D01*
X181310420Y-81158790D01*
X180731237Y-81737973D01*
X180725041Y-81749319D01*
X179777116Y-81749319D01*
X179781095Y-81665325D01*
X179781588Y-81654920D01*
X179757688Y-81572590D01*
X179748621Y-81541359D01*
X179748620Y-81541358D01*
X179746411Y-81533747D01*
X179743575Y-81528949D01*
X179198597Y-80765980D01*
X180182914Y-80765980D01*
X180195777Y-80962233D01*
X180197577Y-80973601D01*
X180245991Y-81164228D01*
X180249829Y-81175066D01*
X180332173Y-81353685D01*
X180337922Y-81363642D01*
X180347850Y-81377690D01*
X180358439Y-81386078D01*
X180371740Y-81379050D01*
X180947978Y-80802812D01*
X180954356Y-80791132D01*
X181684408Y-80791132D01*
X181684539Y-80792965D01*
X181688790Y-80799580D01*
X182268603Y-81379393D01*
X182280983Y-81386153D01*
X182287563Y-81381227D01*
X182356662Y-81257840D01*
X182361336Y-81247343D01*
X182424557Y-81061101D01*
X182427245Y-81049905D01*
X182455762Y-80853224D01*
X182456392Y-80845843D01*
X182457757Y-80793704D01*
X182457514Y-80786305D01*
X182439330Y-80588397D01*
X182437233Y-80577083D01*
X182383846Y-80387789D01*
X182379724Y-80377050D01*
X182292736Y-80200656D01*
X182291577Y-80198765D01*
X182282732Y-80192126D01*
X182270312Y-80198898D01*
X181692022Y-80777188D01*
X181684408Y-80791132D01*
X180954356Y-80791132D01*
X180955592Y-80788868D01*
X180955461Y-80787035D01*
X180951210Y-80780420D01*
X180370031Y-80199241D01*
X180357651Y-80192481D01*
X180351685Y-80196947D01*
X180271452Y-80349445D01*
X180267047Y-80360079D01*
X180208724Y-80547910D01*
X180206332Y-80559164D01*
X180183215Y-80754479D01*
X180182914Y-80765980D01*
X179198597Y-80765980D01*
X178794794Y-80200656D01*
X178215628Y-79389823D01*
X178212306Y-79384935D01*
X178184197Y-79341401D01*
X178178172Y-79336651D01*
X178173630Y-79331026D01*
X177967707Y-79042733D01*
X177493015Y-78378165D01*
X177469697Y-78311107D01*
X177486335Y-78242087D01*
X177537646Y-78193020D01*
X177607340Y-78179482D01*
X177643763Y-78188520D01*
X177764935Y-78238711D01*
X177920000Y-78259126D01*
X178075065Y-78238711D01*
X178219563Y-78178858D01*
X178343646Y-78083646D01*
X178438858Y-77959563D01*
X178441341Y-77961469D01*
X178481987Y-77922715D01*
X178551701Y-77909281D01*
X178617611Y-77935670D01*
X178658791Y-77993503D01*
X178663299Y-78010129D01*
X178678922Y-78088669D01*
X178683847Y-78113431D01*
X178685172Y-78117335D01*
X178685173Y-78117338D01*
X178741744Y-78283991D01*
X178767256Y-78359147D01*
X178791697Y-78408709D01*
X178880133Y-78588039D01*
X178882024Y-78591874D01*
X178884318Y-78595307D01*
X179001510Y-78770697D01*
X179026187Y-78807629D01*
X179028901Y-78810723D01*
X179028905Y-78810729D01*
X179152022Y-78951116D01*
X179197279Y-79002721D01*
X179200368Y-79005430D01*
X179389271Y-79171095D01*
X179389277Y-79171099D01*
X179392371Y-79173813D01*
X179395797Y-79176102D01*
X179395802Y-79176106D01*
X179452226Y-79213807D01*
X179608126Y-79317976D01*
X179611825Y-79319800D01*
X179611830Y-79319803D01*
X179699659Y-79363115D01*
X179840853Y-79432744D01*
X179844758Y-79434069D01*
X179844759Y-79434070D01*
X180082662Y-79514827D01*
X180082665Y-79514828D01*
X180086569Y-79516153D01*
X180090608Y-79516956D01*
X180090614Y-79516958D01*
X180337026Y-79565972D01*
X180337029Y-79565972D01*
X180341069Y-79566776D01*
X180345179Y-79567045D01*
X180345184Y-79567046D01*
X180585823Y-79582818D01*
X180585825Y-79582818D01*
X180594787Y-79583405D01*
X180600000Y-79584231D01*
X180620078Y-79581051D01*
X180639788Y-79579500D01*
X180680340Y-79579500D01*
X180748461Y-79599502D01*
X180794954Y-79653158D01*
X180805058Y-79723432D01*
X180775564Y-79788012D01*
X180744762Y-79813786D01*
X180734145Y-79820103D01*
X180724547Y-79830436D01*
X180728033Y-79838823D01*
X181307188Y-80417978D01*
X181321132Y-80425592D01*
X181322965Y-80425461D01*
X181329580Y-80421210D01*
X181860056Y-79890734D01*
X181922368Y-79856708D01*
X181951130Y-79853845D01*
X182061318Y-79855576D01*
X182061321Y-79855576D01*
X182068916Y-79855695D01*
X182223332Y-79820329D01*
X182341312Y-79760992D01*
X182358072Y-79752563D01*
X182358075Y-79752561D01*
X182364855Y-79749151D01*
X182370626Y-79744222D01*
X182370629Y-79744220D01*
X182479536Y-79651204D01*
X182479536Y-79651203D01*
X182485314Y-79646269D01*
X182577755Y-79517624D01*
X182636842Y-79370641D01*
X182644664Y-79315682D01*
X182658581Y-79217891D01*
X182658581Y-79217888D01*
X182659162Y-79213807D01*
X182659307Y-79200000D01*
X182640276Y-79042733D01*
X182584280Y-78894546D01*
X182531204Y-78817320D01*
X182498855Y-78770251D01*
X182498854Y-78770249D01*
X182494553Y-78763992D01*
X182376275Y-78658611D01*
X182368889Y-78654700D01*
X182250231Y-78591874D01*
X182236274Y-78584484D01*
X182082633Y-78545892D01*
X182075034Y-78545852D01*
X182075033Y-78545852D01*
X182009181Y-78545507D01*
X181924221Y-78545062D01*
X181916841Y-78546834D01*
X181916839Y-78546834D01*
X181777563Y-78580271D01*
X181777560Y-78580272D01*
X181770184Y-78582043D01*
X181629414Y-78654700D01*
X181510039Y-78758838D01*
X181505672Y-78765051D01*
X181505667Y-78765057D01*
X181504336Y-78766951D01*
X181503013Y-78768005D01*
X181500589Y-78770697D01*
X181500140Y-78770293D01*
X181448802Y-78811183D01*
X181401250Y-78820500D01*
X180639788Y-78820500D01*
X180620077Y-78818949D01*
X180619958Y-78818930D01*
X180612571Y-78817760D01*
X180609794Y-78817320D01*
X180609793Y-78817320D01*
X180600000Y-78815769D01*
X180590205Y-78817321D01*
X180580290Y-78817321D01*
X180580290Y-78817166D01*
X180565180Y-78817760D01*
X180418956Y-78806252D01*
X180399428Y-78803159D01*
X180232481Y-78763078D01*
X180213687Y-78756972D01*
X180055061Y-78691267D01*
X180037450Y-78682293D01*
X179891063Y-78592586D01*
X179875068Y-78580965D01*
X179744517Y-78469464D01*
X179730536Y-78455483D01*
X179619035Y-78324932D01*
X179607414Y-78308937D01*
X179517707Y-78162550D01*
X179508733Y-78144939D01*
X179443028Y-77986313D01*
X179436920Y-77967514D01*
X179435012Y-77959563D01*
X179396841Y-77800571D01*
X179393748Y-77781044D01*
X179385021Y-77670161D01*
X180634393Y-77670161D01*
X180643687Y-77682175D01*
X180684088Y-77710464D01*
X180693584Y-77715947D01*
X180883113Y-77804326D01*
X180893405Y-77808072D01*
X181095401Y-77862196D01*
X181106196Y-77864099D01*
X181314525Y-77882326D01*
X181325475Y-77882326D01*
X181533804Y-77864099D01*
X181544599Y-77862196D01*
X181746595Y-77808072D01*
X181756887Y-77804326D01*
X181946416Y-77715947D01*
X181955912Y-77710464D01*
X181997148Y-77681590D01*
X182005523Y-77671112D01*
X181998457Y-77657668D01*
X181332811Y-76992021D01*
X181318868Y-76984408D01*
X181317034Y-76984539D01*
X181310420Y-76988790D01*
X180640820Y-77658391D01*
X180634393Y-77670161D01*
X179385021Y-77670161D01*
X179384866Y-77668189D01*
X179382240Y-77634822D01*
X179382834Y-77619709D01*
X179382681Y-77619709D01*
X179382681Y-77609790D01*
X179382939Y-77608160D01*
X179384231Y-77600000D01*
X179383427Y-77594923D01*
X179375956Y-77490454D01*
X179366973Y-77364863D01*
X179366652Y-77360372D01*
X179353357Y-77299254D01*
X179316544Y-77130029D01*
X179316543Y-77130025D01*
X179315585Y-77125622D01*
X179313285Y-77119454D01*
X179233201Y-76904740D01*
X179231630Y-76900528D01*
X179201091Y-76844599D01*
X179118654Y-76693628D01*
X179116495Y-76689674D01*
X179068436Y-76625475D01*
X180057674Y-76625475D01*
X180075901Y-76833804D01*
X180077804Y-76844599D01*
X180131928Y-77046595D01*
X180135674Y-77056887D01*
X180224054Y-77246417D01*
X180229534Y-77255907D01*
X180258411Y-77297149D01*
X180268887Y-77305523D01*
X180282334Y-77298455D01*
X180947979Y-76632811D01*
X180954356Y-76621132D01*
X181684408Y-76621132D01*
X181684539Y-76622966D01*
X181688790Y-76629580D01*
X182358391Y-77299180D01*
X182370161Y-77305607D01*
X182382176Y-77296311D01*
X182410466Y-77255907D01*
X182415946Y-77246417D01*
X182504326Y-77056887D01*
X182508072Y-77046595D01*
X182562196Y-76844599D01*
X182564099Y-76833804D01*
X182582326Y-76625475D01*
X182582326Y-76614525D01*
X182564099Y-76406196D01*
X182562196Y-76395401D01*
X182508072Y-76193405D01*
X182504326Y-76183113D01*
X182415946Y-75993583D01*
X182410466Y-75984093D01*
X182381589Y-75942851D01*
X182371113Y-75934477D01*
X182357666Y-75941545D01*
X181692021Y-76607189D01*
X181684408Y-76621132D01*
X180954356Y-76621132D01*
X180955592Y-76618868D01*
X180955461Y-76617034D01*
X180951210Y-76610420D01*
X180281609Y-75940820D01*
X180269839Y-75934393D01*
X180257824Y-75943689D01*
X180229534Y-75984093D01*
X180224054Y-75993583D01*
X180135674Y-76183113D01*
X180131928Y-76193405D01*
X180077804Y-76395401D01*
X180075901Y-76406196D01*
X180057674Y-76614525D01*
X180057674Y-76625475D01*
X179068436Y-76625475D01*
X178972524Y-76497352D01*
X178802648Y-76327476D01*
X178610326Y-76183505D01*
X178399472Y-76068370D01*
X178316698Y-76037497D01*
X178178599Y-75985989D01*
X178178595Y-75985988D01*
X178174378Y-75984415D01*
X178169975Y-75983457D01*
X178169971Y-75983456D01*
X178027182Y-75952394D01*
X177939628Y-75933348D01*
X177893682Y-75930062D01*
X177764350Y-75920812D01*
X177762493Y-75920665D01*
X177760613Y-75920503D01*
X177760676Y-75919774D01*
X177760052Y-75919562D01*
X177759985Y-75920500D01*
X177705077Y-75916573D01*
X177700000Y-75915769D01*
X177679923Y-75918949D01*
X177660212Y-75920500D01*
X176639788Y-75920500D01*
X176620077Y-75918949D01*
X176619958Y-75918930D01*
X176612571Y-75917760D01*
X176609794Y-75917320D01*
X176609793Y-75917320D01*
X176600000Y-75915769D01*
X176590205Y-75917321D01*
X176580290Y-75917321D01*
X176580290Y-75917166D01*
X176565180Y-75917760D01*
X176418956Y-75906252D01*
X176399428Y-75903159D01*
X176232481Y-75863078D01*
X176213687Y-75856972D01*
X176055061Y-75791267D01*
X176037450Y-75782293D01*
X175891063Y-75692586D01*
X175875068Y-75680965D01*
X175744517Y-75569464D01*
X175743940Y-75568887D01*
X180634477Y-75568887D01*
X180641545Y-75582334D01*
X181307189Y-76247979D01*
X181321132Y-76255592D01*
X181322966Y-76255461D01*
X181329580Y-76251210D01*
X181999180Y-75581609D01*
X182005607Y-75569839D01*
X181996313Y-75557825D01*
X181955912Y-75529536D01*
X181946416Y-75524053D01*
X181756887Y-75435674D01*
X181746595Y-75431928D01*
X181544599Y-75377804D01*
X181533804Y-75375901D01*
X181344887Y-75359372D01*
X181278769Y-75333508D01*
X181258112Y-75304982D01*
X181246514Y-75329357D01*
X181186193Y-75366798D01*
X181163579Y-75370879D01*
X181106208Y-75375899D01*
X181095401Y-75377804D01*
X180893405Y-75431928D01*
X180883113Y-75435674D01*
X180693583Y-75524054D01*
X180684093Y-75529534D01*
X180642851Y-75558411D01*
X180634477Y-75568887D01*
X175743940Y-75568887D01*
X175730536Y-75555483D01*
X175619035Y-75424932D01*
X175607414Y-75408937D01*
X175517707Y-75262550D01*
X175508733Y-75244939D01*
X175443028Y-75086313D01*
X175436920Y-75067514D01*
X175431460Y-75044769D01*
X175396841Y-74900571D01*
X175393748Y-74881044D01*
X175387239Y-74798337D01*
X175401835Y-74728857D01*
X175410910Y-74717596D01*
X176097875Y-74717596D01*
X176099723Y-74734335D01*
X176114360Y-74866908D01*
X176115259Y-74875053D01*
X176117869Y-74882184D01*
X176117869Y-74882186D01*
X176166414Y-75014841D01*
X176169699Y-75023819D01*
X176173935Y-75030122D01*
X176173935Y-75030123D01*
X176250023Y-75143353D01*
X176258054Y-75155305D01*
X176263673Y-75160418D01*
X176263674Y-75160419D01*
X176369606Y-75256809D01*
X176375222Y-75261919D01*
X176514439Y-75337508D01*
X176667668Y-75377707D01*
X176751623Y-75379026D01*
X176818465Y-75380076D01*
X176818468Y-75380076D01*
X176826062Y-75380195D01*
X176980478Y-75344829D01*
X177059706Y-75304982D01*
X177115218Y-75277063D01*
X177115221Y-75277061D01*
X177122001Y-75273651D01*
X177127772Y-75268722D01*
X177127775Y-75268720D01*
X177236682Y-75175704D01*
X177236682Y-75175703D01*
X177242460Y-75170769D01*
X177299580Y-75091278D01*
X177306266Y-75081974D01*
X177362260Y-75038326D01*
X177408588Y-75029500D01*
X180848298Y-75029500D01*
X180908420Y-75044769D01*
X180970909Y-75078698D01*
X181124138Y-75118897D01*
X181154575Y-75119375D01*
X181222374Y-75140444D01*
X181250711Y-75174204D01*
X181268199Y-75143353D01*
X181327740Y-75111031D01*
X181429543Y-75087715D01*
X181436948Y-75086019D01*
X181518965Y-75044769D01*
X181571688Y-75018253D01*
X181571691Y-75018251D01*
X181578471Y-75014841D01*
X181584242Y-75009912D01*
X181584245Y-75009910D01*
X181693152Y-74916894D01*
X181693152Y-74916893D01*
X181698930Y-74911959D01*
X181791371Y-74783314D01*
X181850458Y-74636331D01*
X181859181Y-74575037D01*
X181872197Y-74483581D01*
X181872197Y-74483578D01*
X181872778Y-74479497D01*
X181872923Y-74465690D01*
X181853892Y-74308423D01*
X181797896Y-74160236D01*
X181708169Y-74029682D01*
X181589891Y-73924301D01*
X181582505Y-73920390D01*
X181526715Y-73890851D01*
X181449890Y-73850174D01*
X181296249Y-73811582D01*
X181288650Y-73811542D01*
X181288649Y-73811542D01*
X181222797Y-73811197D01*
X181137837Y-73810752D01*
X181130457Y-73812524D01*
X181130455Y-73812524D01*
X180991179Y-73845961D01*
X180991176Y-73845962D01*
X180983800Y-73847733D01*
X180843030Y-73920390D01*
X180723655Y-74024528D01*
X180691976Y-74069602D01*
X180661800Y-74112539D01*
X180632566Y-74154134D01*
X180618477Y-74190271D01*
X180575099Y-74246471D01*
X180501085Y-74270500D01*
X177279494Y-74270500D01*
X177211373Y-74250498D01*
X177195675Y-74238577D01*
X177133421Y-74183111D01*
X177126035Y-74179200D01*
X177000134Y-74112539D01*
X177000135Y-74112539D01*
X176993420Y-74108984D01*
X176839779Y-74070392D01*
X176832180Y-74070352D01*
X176832179Y-74070352D01*
X176766327Y-74070007D01*
X176681367Y-74069562D01*
X176673987Y-74071334D01*
X176673985Y-74071334D01*
X176534709Y-74104771D01*
X176534706Y-74104772D01*
X176527330Y-74106543D01*
X176386560Y-74179200D01*
X176267185Y-74283338D01*
X176176096Y-74412944D01*
X176151756Y-74475372D01*
X176126153Y-74541042D01*
X176118552Y-74560537D01*
X176117560Y-74568070D01*
X176117560Y-74568071D01*
X176099690Y-74703810D01*
X176097875Y-74717596D01*
X175410910Y-74717596D01*
X175431019Y-74692642D01*
X175485314Y-74646269D01*
X175577755Y-74517624D01*
X175636842Y-74370641D01*
X175653940Y-74250498D01*
X175658581Y-74217891D01*
X175658581Y-74217888D01*
X175659162Y-74213807D01*
X175659307Y-74200000D01*
X175640276Y-74042733D01*
X175584280Y-73894546D01*
X175552513Y-73848324D01*
X175498855Y-73770251D01*
X175498854Y-73770249D01*
X175494553Y-73763992D01*
X175477298Y-73748618D01*
X175434022Y-73710061D01*
X175376275Y-73658611D01*
X175368889Y-73654700D01*
X175242988Y-73588039D01*
X175242989Y-73588039D01*
X175236274Y-73584484D01*
X175082633Y-73545892D01*
X175075034Y-73545852D01*
X175075033Y-73545852D01*
X175009181Y-73545507D01*
X174924221Y-73545062D01*
X174916841Y-73546834D01*
X174916839Y-73546834D01*
X174777563Y-73580271D01*
X174777560Y-73580272D01*
X174770184Y-73582043D01*
X174629414Y-73654700D01*
X174510039Y-73758838D01*
X174418950Y-73888444D01*
X174361406Y-74036037D01*
X174360414Y-74043570D01*
X174360414Y-74043571D01*
X174341902Y-74184189D01*
X174340729Y-74193096D01*
X174349275Y-74270500D01*
X174353462Y-74308423D01*
X174358113Y-74350553D01*
X174360723Y-74357684D01*
X174360723Y-74357686D01*
X174406794Y-74483581D01*
X174412553Y-74499319D01*
X174416789Y-74505622D01*
X174416789Y-74505623D01*
X174473047Y-74589343D01*
X174500908Y-74630805D01*
X174506527Y-74635918D01*
X174506528Y-74635919D01*
X174581140Y-74703810D01*
X174618063Y-74764450D01*
X174622071Y-74788762D01*
X174633224Y-74958931D01*
X174634028Y-74962971D01*
X174634028Y-74962974D01*
X174676343Y-75175704D01*
X174683847Y-75213431D01*
X174685172Y-75217335D01*
X174685173Y-75217338D01*
X174741261Y-75382568D01*
X174767256Y-75459147D01*
X174821374Y-75568887D01*
X174879821Y-75687406D01*
X174882024Y-75691874D01*
X174884318Y-75695307D01*
X174992338Y-75856970D01*
X175026187Y-75907629D01*
X175028901Y-75910723D01*
X175028905Y-75910729D01*
X175194570Y-76099632D01*
X175197279Y-76102721D01*
X175200368Y-76105430D01*
X175389271Y-76271095D01*
X175389277Y-76271099D01*
X175392371Y-76273813D01*
X175395797Y-76276102D01*
X175395802Y-76276106D01*
X175442709Y-76307448D01*
X175608126Y-76417976D01*
X175611825Y-76419800D01*
X175611830Y-76419803D01*
X175662532Y-76444806D01*
X175840853Y-76532744D01*
X175844758Y-76534069D01*
X175844759Y-76534070D01*
X176082662Y-76614827D01*
X176082665Y-76614828D01*
X176086569Y-76616153D01*
X176090608Y-76616956D01*
X176090614Y-76616958D01*
X176337026Y-76665972D01*
X176337029Y-76665972D01*
X176341069Y-76666776D01*
X176345179Y-76667045D01*
X176345184Y-76667046D01*
X176585823Y-76682818D01*
X176585825Y-76682818D01*
X176594787Y-76683405D01*
X176600000Y-76684231D01*
X176620078Y-76681051D01*
X176639788Y-76679500D01*
X177660212Y-76679500D01*
X177679923Y-76681051D01*
X177690206Y-76682680D01*
X177690207Y-76682680D01*
X177700000Y-76684231D01*
X177709796Y-76682679D01*
X177719710Y-76682679D01*
X177719710Y-76683054D01*
X177734650Y-76682531D01*
X177848865Y-76692524D01*
X177870493Y-76696338D01*
X178004183Y-76732161D01*
X178024821Y-76739672D01*
X178150260Y-76798165D01*
X178169281Y-76809147D01*
X178282660Y-76888536D01*
X178299484Y-76902654D01*
X178315209Y-76918379D01*
X178349235Y-76980691D01*
X178344170Y-77051506D01*
X178301623Y-77108342D01*
X178235103Y-77133153D01*
X178177896Y-77123883D01*
X178171904Y-77121401D01*
X178075065Y-77081289D01*
X177920000Y-77060874D01*
X177764935Y-77081289D01*
X177620437Y-77141142D01*
X177573026Y-77177522D01*
X177512478Y-77223982D01*
X177496354Y-77236354D01*
X177401142Y-77360437D01*
X177341289Y-77504935D01*
X177320874Y-77660000D01*
X177321952Y-77668188D01*
X177321952Y-77668189D01*
X177332019Y-77744656D01*
X177321080Y-77814805D01*
X177273952Y-77867903D01*
X177205598Y-77887093D01*
X177137720Y-77866282D01*
X177104567Y-77834338D01*
X177020002Y-77715947D01*
X176726966Y-77305697D01*
X176718609Y-77292294D01*
X176708556Y-77273663D01*
X176703610Y-77264496D01*
X176694640Y-77256204D01*
X176664606Y-77228441D01*
X176661021Y-77224992D01*
X176630834Y-77194792D01*
X176630830Y-77194789D01*
X176623470Y-77187426D01*
X176616585Y-77184051D01*
X176610957Y-77178849D01*
X176562355Y-77157362D01*
X176557921Y-77155297D01*
X176510174Y-77131893D01*
X176502568Y-77130930D01*
X176495557Y-77127831D01*
X176449974Y-77123883D01*
X176442643Y-77123248D01*
X176437695Y-77122721D01*
X176427264Y-77121401D01*
X176384998Y-77116052D01*
X176377492Y-77117605D01*
X176369853Y-77116943D01*
X176359745Y-77119454D01*
X176359743Y-77119454D01*
X176318298Y-77129749D01*
X176313448Y-77130853D01*
X176261439Y-77141612D01*
X176254840Y-77145513D01*
X176247399Y-77147361D01*
X176231875Y-77157385D01*
X176202772Y-77176177D01*
X176198537Y-77178794D01*
X176161785Y-77200517D01*
X176161783Y-77200519D01*
X176152821Y-77205816D01*
X176147840Y-77211645D01*
X176141401Y-77215803D01*
X176134954Y-77223981D01*
X176134953Y-77223982D01*
X176108521Y-77257512D01*
X176105368Y-77261353D01*
X176070856Y-77301743D01*
X176068032Y-77308871D01*
X176063287Y-77314890D01*
X176059836Y-77324717D01*
X176045693Y-77364991D01*
X176043955Y-77369646D01*
X176024383Y-77419047D01*
X176024020Y-77426708D01*
X176021481Y-77433938D01*
X176021000Y-77439491D01*
X176021000Y-77487467D01*
X176020859Y-77493430D01*
X176018412Y-77545080D01*
X176020570Y-77552512D01*
X176021000Y-77559827D01*
X176021000Y-78283991D01*
X176000998Y-78352112D01*
X175947342Y-78398605D01*
X175877068Y-78408709D01*
X175812488Y-78379215D01*
X175801345Y-78368281D01*
X174864119Y-77326919D01*
X174864118Y-77326918D01*
X174860644Y-77323058D01*
X174842849Y-77308871D01*
X174795090Y-77270796D01*
X174795088Y-77270795D01*
X174786945Y-77264303D01*
X174668128Y-77221847D01*
X174657716Y-77221708D01*
X174657714Y-77221708D01*
X174605046Y-77221007D01*
X174541964Y-77220168D01*
X174422059Y-77259445D01*
X174413746Y-77265717D01*
X174413747Y-77265717D01*
X174329653Y-77329170D01*
X174329652Y-77329171D01*
X174321340Y-77335443D01*
X174301363Y-77364991D01*
X174262821Y-77421998D01*
X174250670Y-77439970D01*
X174247946Y-77450022D01*
X174247945Y-77450024D01*
X174236989Y-77490454D01*
X174217667Y-77561752D01*
X174225891Y-77687658D01*
X174274456Y-77804112D01*
X174277813Y-77808562D01*
X175821564Y-79523841D01*
X175852266Y-79587854D01*
X175843486Y-79658305D01*
X175823574Y-79690129D01*
X174300164Y-81467442D01*
X174291750Y-81477258D01*
X174242992Y-81557920D01*
X174240783Y-81568091D01*
X174240783Y-81568092D01*
X174237888Y-81581423D01*
X174216218Y-81681221D01*
X174217423Y-81691559D01*
X174217423Y-81691560D01*
X174228501Y-81786591D01*
X174230827Y-81806547D01*
X174257253Y-81861829D01*
X174280752Y-81910990D01*
X174280754Y-81910992D01*
X174285243Y-81920384D01*
X174292534Y-81927817D01*
X174292535Y-81927818D01*
X174306132Y-81941679D01*
X174373599Y-82010458D01*
X174486369Y-82067055D01*
X174611390Y-82084072D01*
X174621610Y-82082058D01*
X174621611Y-82082058D01*
X174724964Y-82061690D01*
X174735184Y-82059676D01*
X174794374Y-82025435D01*
X174837545Y-82000461D01*
X174837547Y-82000459D01*
X174844400Y-81996495D01*
X174848380Y-81992592D01*
X175799335Y-80883145D01*
X175858853Y-80844441D01*
X175929848Y-80844060D01*
X175989780Y-80882122D01*
X176019619Y-80946544D01*
X176021000Y-80965145D01*
X176021000Y-81660256D01*
X176019449Y-81679966D01*
X176016276Y-81700000D01*
X176017194Y-81705797D01*
X176033905Y-81896798D01*
X176061419Y-81999483D01*
X176079807Y-82068107D01*
X176085034Y-82087616D01*
X176087357Y-82092597D01*
X176087357Y-82092598D01*
X176166196Y-82261670D01*
X176166199Y-82261675D01*
X176168522Y-82266657D01*
X176281832Y-82428480D01*
X176384257Y-82530905D01*
X176418283Y-82593217D01*
X176413218Y-82664032D01*
X176370671Y-82720868D01*
X176304151Y-82745679D01*
X176295162Y-82746000D01*
X172732700Y-82746000D01*
X172664579Y-82725998D01*
X172618086Y-82672342D01*
X172607982Y-82602068D01*
X172615792Y-82573004D01*
X172616572Y-82571065D01*
X172636842Y-82520641D01*
X172653512Y-82403508D01*
X172658581Y-82367891D01*
X172658581Y-82367888D01*
X172659162Y-82363807D01*
X172659307Y-82350000D01*
X172640276Y-82192733D01*
X172603809Y-82096227D01*
X172598441Y-82025435D01*
X172632198Y-81962978D01*
X172694364Y-81928686D01*
X172726622Y-81925787D01*
X172733783Y-81926068D01*
X172745265Y-81925466D01*
X172939905Y-81897245D01*
X172951101Y-81894557D01*
X173137343Y-81831336D01*
X173147840Y-81826662D01*
X173266401Y-81760266D01*
X173276264Y-81750189D01*
X173273309Y-81742519D01*
X172692812Y-81162022D01*
X172678868Y-81154408D01*
X172677035Y-81154539D01*
X172670420Y-81158790D01*
X172170232Y-81658978D01*
X172107920Y-81693004D01*
X172080480Y-81695881D01*
X171924221Y-81695062D01*
X171916841Y-81696834D01*
X171916839Y-81696834D01*
X171777563Y-81730271D01*
X171777560Y-81730272D01*
X171770184Y-81732043D01*
X171629414Y-81804700D01*
X171510039Y-81908838D01*
X171505672Y-81915051D01*
X171505667Y-81915057D01*
X171504336Y-81916951D01*
X171503013Y-81918005D01*
X171500589Y-81920697D01*
X171500140Y-81920293D01*
X171448802Y-81961183D01*
X171401250Y-81970500D01*
X171289788Y-81970500D01*
X171270077Y-81968949D01*
X171259794Y-81967320D01*
X171259793Y-81967320D01*
X171250000Y-81965769D01*
X171240203Y-81967321D01*
X171239848Y-81967321D01*
X171220132Y-81965769D01*
X171201571Y-81962829D01*
X171164079Y-81950647D01*
X171138171Y-81937446D01*
X171106280Y-81914275D01*
X171085725Y-81893720D01*
X171062554Y-81861829D01*
X171049353Y-81835921D01*
X171037171Y-81798429D01*
X171034231Y-81779868D01*
X171032679Y-81760152D01*
X171032679Y-81759797D01*
X171034231Y-81750000D01*
X171031774Y-81734484D01*
X171031051Y-81729923D01*
X171029500Y-81710212D01*
X171029500Y-80765980D01*
X171542914Y-80765980D01*
X171555777Y-80962233D01*
X171557577Y-80973601D01*
X171605991Y-81164228D01*
X171609829Y-81175066D01*
X171692173Y-81353685D01*
X171697922Y-81363642D01*
X171707850Y-81377690D01*
X171718439Y-81386078D01*
X171731740Y-81379050D01*
X172307978Y-80802812D01*
X172314356Y-80791132D01*
X173044408Y-80791132D01*
X173044539Y-80792965D01*
X173048790Y-80799580D01*
X173628603Y-81379393D01*
X173640983Y-81386153D01*
X173647563Y-81381227D01*
X173716662Y-81257840D01*
X173721336Y-81247343D01*
X173784557Y-81061101D01*
X173787245Y-81049905D01*
X173815762Y-80853224D01*
X173816392Y-80845843D01*
X173817757Y-80793704D01*
X173817514Y-80786305D01*
X173799330Y-80588397D01*
X173797233Y-80577083D01*
X173743846Y-80387789D01*
X173739724Y-80377050D01*
X173652736Y-80200656D01*
X173651577Y-80198765D01*
X173642732Y-80192126D01*
X173630312Y-80198898D01*
X173052022Y-80777188D01*
X173044408Y-80791132D01*
X172314356Y-80791132D01*
X172315592Y-80788868D01*
X172315461Y-80787035D01*
X172311210Y-80780420D01*
X171730031Y-80199241D01*
X171717651Y-80192481D01*
X171711685Y-80196947D01*
X171631452Y-80349445D01*
X171627047Y-80360079D01*
X171568724Y-80547910D01*
X171566332Y-80559164D01*
X171543215Y-80754479D01*
X171542914Y-80765980D01*
X171029500Y-80765980D01*
X171029500Y-79830436D01*
X172084547Y-79830436D01*
X172088033Y-79838823D01*
X172667188Y-80417978D01*
X172681132Y-80425592D01*
X172682965Y-80425461D01*
X172689580Y-80421210D01*
X173268407Y-79842383D01*
X173275167Y-79830003D01*
X173269137Y-79821948D01*
X173201459Y-79779246D01*
X173191211Y-79774025D01*
X173008531Y-79701143D01*
X172997504Y-79697876D01*
X172804605Y-79659506D01*
X172793159Y-79658303D01*
X172596507Y-79655730D01*
X172585027Y-79656633D01*
X172391199Y-79689938D01*
X172380079Y-79692918D01*
X172195557Y-79760992D01*
X172185179Y-79765942D01*
X172094146Y-79820101D01*
X172084547Y-79830436D01*
X171029500Y-79830436D01*
X171029500Y-77670161D01*
X171994393Y-77670161D01*
X172003687Y-77682175D01*
X172044088Y-77710464D01*
X172053584Y-77715947D01*
X172243113Y-77804326D01*
X172253405Y-77808072D01*
X172455401Y-77862196D01*
X172466196Y-77864099D01*
X172674525Y-77882326D01*
X172685475Y-77882326D01*
X172893804Y-77864099D01*
X172904599Y-77862196D01*
X173106595Y-77808072D01*
X173116887Y-77804326D01*
X173306416Y-77715947D01*
X173315912Y-77710464D01*
X173357148Y-77681590D01*
X173365523Y-77671112D01*
X173358457Y-77657668D01*
X172692811Y-76992021D01*
X172678868Y-76984408D01*
X172677034Y-76984539D01*
X172670420Y-76988790D01*
X172000820Y-77658391D01*
X171994393Y-77670161D01*
X171029500Y-77670161D01*
X171029500Y-76639789D01*
X171031051Y-76620078D01*
X171032680Y-76609793D01*
X171034231Y-76600001D01*
X171032680Y-76590208D01*
X171032680Y-76580290D01*
X171033335Y-76580290D01*
X171032899Y-76565490D01*
X171043570Y-76457156D01*
X171048388Y-76432934D01*
X171086454Y-76307448D01*
X171095906Y-76284628D01*
X171157716Y-76168989D01*
X171171439Y-76148451D01*
X171254625Y-76047090D01*
X171272089Y-76029626D01*
X171321950Y-75988705D01*
X171387297Y-75960950D01*
X171457275Y-75972931D01*
X171509668Y-76020843D01*
X171527840Y-76089475D01*
X171516080Y-76139353D01*
X171495674Y-76183113D01*
X171491928Y-76193405D01*
X171437804Y-76395401D01*
X171435901Y-76406196D01*
X171417674Y-76614525D01*
X171417674Y-76625475D01*
X171435901Y-76833804D01*
X171437804Y-76844599D01*
X171491928Y-77046595D01*
X171495674Y-77056887D01*
X171584054Y-77246417D01*
X171589534Y-77255907D01*
X171618411Y-77297149D01*
X171628886Y-77305523D01*
X171642335Y-77298454D01*
X172319658Y-76621132D01*
X173044408Y-76621132D01*
X173044539Y-76622966D01*
X173048790Y-76629580D01*
X173718391Y-77299180D01*
X173730161Y-77305607D01*
X173742176Y-77296311D01*
X173770466Y-77255907D01*
X173775946Y-77246417D01*
X173864326Y-77056887D01*
X173868072Y-77046595D01*
X173922196Y-76844599D01*
X173924099Y-76833804D01*
X173942326Y-76625475D01*
X173942326Y-76614525D01*
X173924099Y-76406196D01*
X173922196Y-76395401D01*
X173868072Y-76193405D01*
X173864326Y-76183113D01*
X173775946Y-75993583D01*
X173770466Y-75984093D01*
X173741589Y-75942851D01*
X173731113Y-75934477D01*
X173717666Y-75941545D01*
X173052021Y-76607189D01*
X173044408Y-76621132D01*
X172319658Y-76621132D01*
X172680000Y-76260790D01*
X173359178Y-75581611D01*
X173365606Y-75569839D01*
X173356310Y-75557824D01*
X173315912Y-75529536D01*
X173306416Y-75524053D01*
X173116887Y-75435674D01*
X173106595Y-75431928D01*
X172922377Y-75382568D01*
X172861754Y-75345617D01*
X172830733Y-75281756D01*
X172834413Y-75224286D01*
X172874760Y-75091278D01*
X172874761Y-75091275D01*
X172876557Y-75085353D01*
X172886028Y-74989192D01*
X172887304Y-74981029D01*
X172889018Y-74976149D01*
X172889500Y-74970584D01*
X172889500Y-74960127D01*
X172890107Y-74947775D01*
X172892679Y-74921662D01*
X172893165Y-74916728D01*
X172894231Y-74910000D01*
X172891051Y-74889922D01*
X172889500Y-74870212D01*
X172889500Y-73799786D01*
X172891051Y-73780075D01*
X172892680Y-73769790D01*
X172894231Y-73759998D01*
X172893102Y-73752869D01*
X172876629Y-73585627D01*
X172825766Y-73417956D01*
X172787073Y-73345565D01*
X172746088Y-73268888D01*
X172746087Y-73268887D01*
X172743170Y-73263429D01*
X172632014Y-73127986D01*
X172496571Y-73016830D01*
X172440991Y-72987122D01*
X172390343Y-72937370D01*
X172374633Y-72868134D01*
X172398849Y-72801394D01*
X172455302Y-72758342D01*
X172500387Y-72750000D01*
X177261244Y-72750000D01*
X177273500Y-72751317D01*
X177273500Y-72752666D01*
X179126500Y-72752666D01*
X179126500Y-67129310D01*
X179146502Y-67061189D01*
X179200158Y-67014696D01*
X179277080Y-67005731D01*
X179367027Y-67023623D01*
X179461814Y-67042477D01*
X179461817Y-67042477D01*
X179465857Y-67043281D01*
X179469968Y-67043550D01*
X179469972Y-67043551D01*
X179602473Y-67052236D01*
X179607667Y-67052961D01*
X179607862Y-67053029D01*
X179613427Y-67053511D01*
X179617812Y-67053511D01*
X179626051Y-67053781D01*
X179636223Y-67054448D01*
X179654059Y-67055617D01*
X179663674Y-67056691D01*
X179664218Y-67056691D01*
X179674012Y-67058242D01*
X179694090Y-67055062D01*
X179713800Y-67053511D01*
X179756841Y-67053511D01*
X179768117Y-67054587D01*
X179768130Y-67054383D01*
X179773704Y-67054743D01*
X179776410Y-67054684D01*
X179776415Y-67054684D01*
X179828748Y-67053541D01*
X179831499Y-67053511D01*
X179857513Y-67053511D01*
X179861001Y-67052931D01*
X179864087Y-67052770D01*
X179905350Y-67051868D01*
X179925853Y-67053095D01*
X179933662Y-67054206D01*
X179939778Y-67055077D01*
X179939779Y-67055077D01*
X179947620Y-67056193D01*
X179953172Y-67055580D01*
X180007685Y-67044737D01*
X180008721Y-67044536D01*
X180025586Y-67041350D01*
X180066529Y-67033614D01*
X180066534Y-67033612D01*
X180071099Y-67032750D01*
X180072564Y-67031918D01*
X180073608Y-67031624D01*
X180158713Y-67014696D01*
X180198116Y-67006859D01*
X180215769Y-67004628D01*
X180235380Y-67003549D01*
X180235383Y-67003548D01*
X180243294Y-67003113D01*
X180248619Y-67001429D01*
X180296497Y-66981597D01*
X180300180Y-66980139D01*
X180306546Y-66977733D01*
X180352608Y-66960329D01*
X180356663Y-66956974D01*
X180360368Y-66955141D01*
X180479354Y-66905855D01*
X180496240Y-66900222D01*
X180515249Y-66895342D01*
X180515253Y-66895341D01*
X180522928Y-66893370D01*
X180527823Y-66890679D01*
X180570952Y-66861861D01*
X180574190Y-66859770D01*
X180621797Y-66830080D01*
X180625117Y-66826001D01*
X180628393Y-66823481D01*
X180730883Y-66755000D01*
X180748832Y-66745019D01*
X180753529Y-66742888D01*
X180768860Y-66735934D01*
X180773214Y-66732434D01*
X180813297Y-66694063D01*
X180814168Y-66693237D01*
X180821283Y-66686556D01*
X180851421Y-66658255D01*
X180857362Y-66653613D01*
X180857117Y-66653322D01*
X180859320Y-66651470D01*
X180859322Y-66651468D01*
X180861393Y-66649727D01*
X180900279Y-66610841D01*
X180902244Y-66608917D01*
X180921084Y-66590882D01*
X180923199Y-66588055D01*
X180925345Y-66585775D01*
X181126682Y-66384438D01*
X181128635Y-66382526D01*
X181132849Y-66378491D01*
X181156987Y-66360381D01*
X181160308Y-66358463D01*
X181171681Y-66351897D01*
X181202069Y-66339310D01*
X181218456Y-66334919D01*
X181248350Y-66330654D01*
X181251501Y-66330586D01*
X181254196Y-66330528D01*
X181256912Y-66330499D01*
X182132186Y-66330499D01*
X182144046Y-66331617D01*
X182144053Y-66331508D01*
X182146904Y-66331686D01*
X182146905Y-66331686D01*
X182149628Y-66331856D01*
X182152352Y-66331790D01*
X182152354Y-66331790D01*
X182204087Y-66330536D01*
X182207140Y-66330499D01*
X182232523Y-66330499D01*
X182236363Y-66329860D01*
X182239996Y-66329666D01*
X182248567Y-66329458D01*
X182261175Y-66329784D01*
X182270957Y-66330528D01*
X182291249Y-66332072D01*
X182291251Y-66332072D01*
X182299153Y-66332673D01*
X182304653Y-66331698D01*
X182345094Y-66320862D01*
X182353979Y-66318824D01*
X182398361Y-66310327D01*
X182407406Y-66305160D01*
X182411721Y-66303565D01*
X182422794Y-66300043D01*
X182467863Y-66287967D01*
X182477159Y-66285850D01*
X182520722Y-66277658D01*
X182525783Y-66275293D01*
X182556800Y-66257385D01*
X182567637Y-66251810D01*
X182593606Y-66240003D01*
X182593608Y-66240001D01*
X182603089Y-66235691D01*
X182610662Y-66228542D01*
X182619306Y-66222734D01*
X182619433Y-66222922D01*
X182629578Y-66215367D01*
X182672092Y-66190820D01*
X182680532Y-66186364D01*
X182720500Y-66167173D01*
X182724776Y-66163578D01*
X182732340Y-66156014D01*
X182794652Y-66121988D01*
X182865467Y-66127053D01*
G37*
%TD.AperFunction*%
%TA.AperFunction,Conductor*%
G36*
X170462512Y-57981561D02*
G01*
X170484582Y-58006510D01*
X170496669Y-58024497D01*
X170500908Y-58030805D01*
X170506527Y-58035918D01*
X170506528Y-58035919D01*
X170593649Y-58115192D01*
X170618076Y-58137419D01*
X170757293Y-58213008D01*
X170910522Y-58253207D01*
X170994477Y-58254526D01*
X171061319Y-58255576D01*
X171061322Y-58255576D01*
X171068916Y-58255695D01*
X171223332Y-58220329D01*
X171312859Y-58175302D01*
X171358072Y-58152563D01*
X171358075Y-58152561D01*
X171364855Y-58149151D01*
X171370626Y-58144222D01*
X171370629Y-58144220D01*
X171479542Y-58051199D01*
X171479543Y-58051198D01*
X171485314Y-58046269D01*
X171495586Y-58031974D01*
X171551581Y-57988326D01*
X171597909Y-57979500D01*
X171808892Y-57979500D01*
X171877013Y-57999502D01*
X171923506Y-58053158D01*
X171931411Y-58076085D01*
X171971276Y-58242136D01*
X171973169Y-58246707D01*
X171973170Y-58246709D01*
X171983617Y-58271929D01*
X172037762Y-58402648D01*
X172128539Y-58550783D01*
X172131746Y-58554538D01*
X172131749Y-58554542D01*
X172191405Y-58624389D01*
X172196012Y-58630575D01*
X172197351Y-58633364D01*
X172200946Y-58637640D01*
X172209610Y-58646304D01*
X172216329Y-58653572D01*
X172227386Y-58666519D01*
X172233504Y-58674280D01*
X172234610Y-58675802D01*
X172234613Y-58675805D01*
X172240440Y-58683825D01*
X172248459Y-58689651D01*
X172256888Y-58695775D01*
X172271923Y-58708617D01*
X172803515Y-59240209D01*
X172816357Y-59255244D01*
X172828307Y-59271692D01*
X172833332Y-59275343D01*
X173073901Y-59493382D01*
X173076387Y-59495226D01*
X173076391Y-59495229D01*
X173215980Y-59598756D01*
X173339616Y-59690451D01*
X173342257Y-59692034D01*
X173342266Y-59692040D01*
X173534385Y-59807191D01*
X173623368Y-59860525D01*
X173626147Y-59861839D01*
X173626150Y-59861841D01*
X173908653Y-59995455D01*
X173922424Y-60001968D01*
X174233904Y-60113418D01*
X174554808Y-60193800D01*
X174882046Y-60242341D01*
X174885130Y-60242493D01*
X174885135Y-60242493D01*
X175199022Y-60257913D01*
X175199023Y-60257913D01*
X175206333Y-60258272D01*
X175212465Y-60259243D01*
X175232543Y-60256063D01*
X175252253Y-60254512D01*
X176335225Y-60254512D01*
X176354936Y-60256063D01*
X176365219Y-60257692D01*
X176365220Y-60257692D01*
X176375013Y-60259243D01*
X176384810Y-60257691D01*
X176385166Y-60257691D01*
X176404882Y-60259243D01*
X176424857Y-60262407D01*
X176462348Y-60274588D01*
X176489534Y-60288440D01*
X176521426Y-60311612D01*
X176542995Y-60333181D01*
X176566167Y-60365073D01*
X176580019Y-60392259D01*
X176592200Y-60429750D01*
X176595364Y-60449725D01*
X176596916Y-60469441D01*
X176596916Y-60469797D01*
X176595364Y-60479594D01*
X176596915Y-60489387D01*
X176596915Y-60489388D01*
X176598544Y-60499671D01*
X176600095Y-60519382D01*
X176600095Y-61798343D01*
X176580093Y-61866464D01*
X176526437Y-61912957D01*
X176456163Y-61923061D01*
X176415139Y-61909698D01*
X176330330Y-61864794D01*
X176176689Y-61826202D01*
X176169090Y-61826162D01*
X176169089Y-61826162D01*
X176103237Y-61825817D01*
X176018277Y-61825372D01*
X176010897Y-61827144D01*
X176010895Y-61827144D01*
X175871619Y-61860581D01*
X175871616Y-61860582D01*
X175864240Y-61862353D01*
X175723470Y-61935010D01*
X175604095Y-62039148D01*
X175513006Y-62168754D01*
X175500824Y-62200000D01*
X175458553Y-62308420D01*
X175455462Y-62316347D01*
X175454470Y-62323880D01*
X175454470Y-62323881D01*
X175442097Y-62417867D01*
X175434785Y-62473406D01*
X175452169Y-62630863D01*
X175454779Y-62637994D01*
X175454779Y-62637996D01*
X175502872Y-62769416D01*
X175506609Y-62779629D01*
X175510845Y-62785932D01*
X175510845Y-62785933D01*
X175561400Y-62861166D01*
X175594964Y-62911115D01*
X175600583Y-62916228D01*
X175600584Y-62916229D01*
X175673355Y-62982445D01*
X175710278Y-63043085D01*
X175714556Y-63075639D01*
X175714556Y-63804268D01*
X175713005Y-63823978D01*
X175709825Y-63844056D01*
X175711376Y-63853850D01*
X175711376Y-63854952D01*
X175712238Y-63862666D01*
X175713668Y-63884484D01*
X175724798Y-64054290D01*
X175725155Y-64059740D01*
X175725959Y-64063780D01*
X175725959Y-64063783D01*
X175764794Y-64259018D01*
X175767323Y-64271733D01*
X175768648Y-64275637D01*
X175768649Y-64275640D01*
X175817833Y-64420532D01*
X175836801Y-64476409D01*
X175838624Y-64480105D01*
X175838627Y-64480113D01*
X175893165Y-64590703D01*
X175932400Y-64670264D01*
X176052485Y-64849984D01*
X176081771Y-64883378D01*
X176148280Y-64959218D01*
X176151051Y-64962888D01*
X176151068Y-64962873D01*
X176154662Y-64967149D01*
X176156597Y-64969084D01*
X176157217Y-64969760D01*
X176162035Y-64974903D01*
X176182711Y-64998479D01*
X176187545Y-65004529D01*
X176188330Y-65005314D01*
X176194157Y-65013334D01*
X176202176Y-65019160D01*
X176210598Y-65025279D01*
X176225633Y-65038120D01*
X176690623Y-65503111D01*
X176703463Y-65518145D01*
X176715411Y-65534590D01*
X176726674Y-65542773D01*
X176734435Y-65548892D01*
X176838358Y-65637650D01*
X176838365Y-65637655D01*
X176842128Y-65640869D01*
X176983037Y-65727219D01*
X176987607Y-65729112D01*
X176987609Y-65729113D01*
X177131147Y-65788568D01*
X177135720Y-65790462D01*
X177296417Y-65829042D01*
X177437607Y-65840154D01*
X177447413Y-65841314D01*
X177453765Y-65842320D01*
X177461170Y-65843493D01*
X177461171Y-65843493D01*
X177466060Y-65842718D01*
X177466064Y-65842718D01*
X177466274Y-65842684D01*
X177466390Y-65842666D01*
X177467046Y-65842640D01*
X177470997Y-65842329D01*
X177471009Y-65842484D01*
X177495989Y-65841502D01*
X177541963Y-65845120D01*
X177579300Y-65848059D01*
X177598823Y-65851151D01*
X177704395Y-65876497D01*
X177723185Y-65882602D01*
X177821876Y-65923481D01*
X177823503Y-65924155D01*
X177841118Y-65933131D01*
X177933693Y-65989860D01*
X177949690Y-66001483D01*
X178013226Y-66055749D01*
X178023490Y-66066852D01*
X178023599Y-66066743D01*
X178030615Y-66073759D01*
X178036441Y-66081778D01*
X178044460Y-66087604D01*
X178044461Y-66087605D01*
X178052890Y-66093729D01*
X178067924Y-66106570D01*
X178520640Y-66559286D01*
X178533481Y-66574320D01*
X178545432Y-66590769D01*
X178553451Y-66596595D01*
X178553835Y-66596979D01*
X178561396Y-66603020D01*
X178588288Y-66626603D01*
X178626314Y-66686556D01*
X178625890Y-66757552D01*
X178587151Y-66817048D01*
X178522396Y-66846155D01*
X178505208Y-66847333D01*
X177273500Y-66847333D01*
X177273500Y-66848694D01*
X177264417Y-66850000D01*
X171905500Y-66850000D01*
X171837379Y-66829998D01*
X171790886Y-66776342D01*
X171779500Y-66724000D01*
X171779500Y-65439788D01*
X171781051Y-65420077D01*
X171782680Y-65409792D01*
X171784231Y-65400000D01*
X171782680Y-65390206D01*
X171782680Y-65380292D01*
X171783703Y-65380292D01*
X171783378Y-65365589D01*
X171790961Y-65298285D01*
X171797240Y-65270777D01*
X171826358Y-65187563D01*
X171838600Y-65162142D01*
X171885505Y-65087493D01*
X171903097Y-65065434D01*
X171965434Y-65003097D01*
X171987493Y-64985505D01*
X172062142Y-64938600D01*
X172087563Y-64926358D01*
X172170777Y-64897240D01*
X172198285Y-64890961D01*
X172265589Y-64883378D01*
X172280292Y-64883703D01*
X172280292Y-64882680D01*
X172290206Y-64882680D01*
X172300000Y-64884231D01*
X172305306Y-64883391D01*
X172371007Y-64902682D01*
X172397419Y-64925613D01*
X172400908Y-64930805D01*
X172406525Y-64935916D01*
X172480048Y-65002816D01*
X172518076Y-65037419D01*
X172657293Y-65113008D01*
X172810522Y-65153207D01*
X172894477Y-65154526D01*
X172961319Y-65155576D01*
X172961322Y-65155576D01*
X172968916Y-65155695D01*
X173123332Y-65120329D01*
X173212517Y-65075474D01*
X173258072Y-65052563D01*
X173258075Y-65052561D01*
X173264855Y-65049151D01*
X173270626Y-65044222D01*
X173270629Y-65044220D01*
X173379536Y-64951204D01*
X173379536Y-64951203D01*
X173385314Y-64946269D01*
X173477755Y-64817624D01*
X173536842Y-64670641D01*
X173548166Y-64591073D01*
X173558581Y-64517891D01*
X173558581Y-64517888D01*
X173559162Y-64513807D01*
X173559307Y-64500000D01*
X173556901Y-64480113D01*
X173550820Y-64429865D01*
X173540276Y-64342733D01*
X173484280Y-64194546D01*
X173442343Y-64133527D01*
X173398855Y-64070251D01*
X173398854Y-64070249D01*
X173394553Y-64063992D01*
X173276275Y-63958611D01*
X173268889Y-63954700D01*
X173142988Y-63888039D01*
X173142989Y-63888039D01*
X173136274Y-63884484D01*
X172982633Y-63845892D01*
X172975034Y-63845852D01*
X172975033Y-63845852D01*
X172909181Y-63845507D01*
X172824221Y-63845062D01*
X172816841Y-63846834D01*
X172816839Y-63846834D01*
X172677563Y-63880271D01*
X172677560Y-63880272D01*
X172670184Y-63882043D01*
X172529414Y-63954700D01*
X172410039Y-64058838D01*
X172405671Y-64065053D01*
X172400589Y-64070697D01*
X172399316Y-64069550D01*
X172351037Y-64108003D01*
X172306305Y-64116768D01*
X172300000Y-64115769D01*
X172290275Y-64117309D01*
X172290135Y-64117320D01*
X172288532Y-64117320D01*
X172285360Y-64117696D01*
X172099223Y-64132345D01*
X171996962Y-64156896D01*
X171908195Y-64178207D01*
X171908190Y-64178209D01*
X171903390Y-64179361D01*
X171898827Y-64181251D01*
X171898821Y-64181253D01*
X171721897Y-64254537D01*
X171721893Y-64254539D01*
X171717323Y-64256432D01*
X171545603Y-64361662D01*
X171541848Y-64364869D01*
X171541844Y-64364872D01*
X171487322Y-64411439D01*
X171422532Y-64440470D01*
X171352332Y-64429865D01*
X171299010Y-64382991D01*
X171279491Y-64315628D01*
X171279491Y-64176581D01*
X171299493Y-64108460D01*
X171353149Y-64061967D01*
X171377361Y-64053761D01*
X171515929Y-64022025D01*
X171515933Y-64022024D01*
X171523332Y-64020329D01*
X171597030Y-63983263D01*
X171658072Y-63952563D01*
X171658075Y-63952561D01*
X171664855Y-63949151D01*
X171670626Y-63944222D01*
X171670629Y-63944220D01*
X171779536Y-63851204D01*
X171779536Y-63851203D01*
X171785314Y-63846269D01*
X171877755Y-63717624D01*
X171936842Y-63570641D01*
X171942965Y-63527615D01*
X171958581Y-63417891D01*
X171958581Y-63417888D01*
X171959162Y-63413807D01*
X171959307Y-63400000D01*
X171940276Y-63242733D01*
X171884280Y-63094546D01*
X171807792Y-62983255D01*
X171798855Y-62970251D01*
X171798854Y-62970249D01*
X171794553Y-62963992D01*
X171676275Y-62858611D01*
X171627276Y-62832667D01*
X171576436Y-62783117D01*
X171560454Y-62713942D01*
X171584408Y-62647109D01*
X171584589Y-62646888D01*
X171585314Y-62646269D01*
X171677755Y-62517624D01*
X171736842Y-62370641D01*
X171759162Y-62213807D01*
X171759307Y-62200000D01*
X171740276Y-62042733D01*
X171684280Y-61894546D01*
X171594553Y-61763992D01*
X171476275Y-61658611D01*
X171468889Y-61654700D01*
X171342988Y-61588039D01*
X171342989Y-61588039D01*
X171336274Y-61584484D01*
X171182633Y-61545892D01*
X171175034Y-61545852D01*
X171175033Y-61545852D01*
X171109181Y-61545507D01*
X171024221Y-61545062D01*
X171016841Y-61546834D01*
X171016839Y-61546834D01*
X170877563Y-61580271D01*
X170877560Y-61580272D01*
X170870184Y-61582043D01*
X170729414Y-61654700D01*
X170610039Y-61758838D01*
X170518950Y-61888444D01*
X170502152Y-61931529D01*
X170497393Y-61943735D01*
X170454013Y-61999936D01*
X170387133Y-62023763D01*
X170317990Y-62007650D01*
X170268534Y-61956712D01*
X170254000Y-61897965D01*
X170254000Y-58076785D01*
X170274002Y-58008664D01*
X170327658Y-57962171D01*
X170397932Y-57952067D01*
X170462512Y-57981561D01*
G37*
%TD.AperFunction*%
%TA.AperFunction,Conductor*%
G36*
X181661523Y-59363104D02*
G01*
X181669519Y-59372736D01*
X181731715Y-59455724D01*
X181744276Y-59468285D01*
X181846351Y-59544786D01*
X181861946Y-59553324D01*
X181982394Y-59598478D01*
X181997649Y-59602105D01*
X182048514Y-59607631D01*
X182055328Y-59608000D01*
X182246564Y-59608000D01*
X182314685Y-59628002D01*
X182361178Y-59681658D01*
X182371282Y-59751932D01*
X182349651Y-59806451D01*
X182303138Y-59872632D01*
X182279921Y-59932181D01*
X182252452Y-60002636D01*
X182245594Y-60020225D01*
X182244602Y-60027758D01*
X182244602Y-60027759D01*
X182229822Y-60140030D01*
X182224917Y-60177284D01*
X182232100Y-60242341D01*
X182234660Y-60265528D01*
X182242301Y-60334741D01*
X182244911Y-60341872D01*
X182244911Y-60341874D01*
X182291594Y-60469441D01*
X182296741Y-60483507D01*
X182385096Y-60614993D01*
X182390715Y-60620106D01*
X182390716Y-60620107D01*
X182409240Y-60636962D01*
X182502264Y-60721607D01*
X182641481Y-60797196D01*
X182794710Y-60837395D01*
X182878665Y-60838714D01*
X182945507Y-60839764D01*
X182945510Y-60839764D01*
X182953104Y-60839883D01*
X183107520Y-60804517D01*
X183114306Y-60801104D01*
X183114309Y-60801103D01*
X183162900Y-60776665D01*
X183232745Y-60763927D01*
X183298388Y-60790972D01*
X183326201Y-60822195D01*
X183338615Y-60841952D01*
X183350856Y-60867372D01*
X183379399Y-60948943D01*
X183385678Y-60976451D01*
X183393067Y-61042034D01*
X183392742Y-61056737D01*
X183393765Y-61056737D01*
X183393765Y-61066651D01*
X183392214Y-61076445D01*
X183393765Y-61086237D01*
X183395394Y-61096522D01*
X183396945Y-61116233D01*
X183396945Y-62992210D01*
X183376943Y-63060331D01*
X183323287Y-63106824D01*
X183253013Y-63116928D01*
X183198675Y-63095423D01*
X183159845Y-63068234D01*
X183159839Y-63068230D01*
X183155331Y-63065074D01*
X183056621Y-63019045D01*
X182984851Y-62985578D01*
X182984845Y-62985576D01*
X182979868Y-62983255D01*
X182974560Y-62981833D01*
X182974558Y-62981832D01*
X182907978Y-62963992D01*
X182792864Y-62933147D01*
X182674478Y-62922790D01*
X182668901Y-62921948D01*
X182666149Y-62920982D01*
X182660584Y-62920500D01*
X182653811Y-62920500D01*
X182642831Y-62920021D01*
X182634692Y-62919309D01*
X182607122Y-62916897D01*
X182599999Y-62915769D01*
X182582548Y-62918533D01*
X182579922Y-62918949D01*
X182560211Y-62920500D01*
X180039789Y-62920500D01*
X180020078Y-62918949D01*
X180017452Y-62918533D01*
X180000001Y-62915769D01*
X179990207Y-62917320D01*
X179980293Y-62917320D01*
X179980293Y-62916297D01*
X179965590Y-62916622D01*
X179870249Y-62905880D01*
X179842741Y-62899601D01*
X179732900Y-62861166D01*
X179707479Y-62848924D01*
X179608940Y-62787008D01*
X179586881Y-62769416D01*
X179504594Y-62687129D01*
X179487002Y-62665070D01*
X179425086Y-62566531D01*
X179412844Y-62541110D01*
X179374409Y-62431269D01*
X179368130Y-62403761D01*
X179357388Y-62308420D01*
X179357713Y-62293717D01*
X179356690Y-62293717D01*
X179356690Y-62283803D01*
X179358241Y-62274009D01*
X179355061Y-62253931D01*
X179353510Y-62234221D01*
X179353510Y-60785423D01*
X179373512Y-60717302D01*
X179397679Y-60689612D01*
X179453546Y-60641897D01*
X179459324Y-60636962D01*
X179551765Y-60508317D01*
X179610852Y-60361334D01*
X179625519Y-60258272D01*
X179632591Y-60208584D01*
X179632591Y-60208581D01*
X179633172Y-60204500D01*
X179633317Y-60190693D01*
X179614286Y-60033426D01*
X179592038Y-59974549D01*
X179586670Y-59903756D01*
X179620427Y-59841298D01*
X179682593Y-59807006D01*
X179709904Y-59804011D01*
X180465701Y-59804011D01*
X180485412Y-59805562D01*
X180495695Y-59807191D01*
X180495696Y-59807191D01*
X180505489Y-59808742D01*
X180515285Y-59807190D01*
X180515976Y-59807190D01*
X180523073Y-59806350D01*
X180645068Y-59796749D01*
X180694421Y-59792865D01*
X180699234Y-59791709D01*
X180699237Y-59791709D01*
X180873884Y-59749779D01*
X180878699Y-59748623D01*
X181015302Y-59692040D01*
X181049215Y-59677993D01*
X181049219Y-59677991D01*
X181053789Y-59676098D01*
X181215377Y-59577077D01*
X181359486Y-59453997D01*
X181420192Y-59382920D01*
X181479641Y-59344111D01*
X181480068Y-59344003D01*
X181482673Y-59343766D01*
X181529758Y-59328467D01*
X181600726Y-59326441D01*
X181661523Y-59363104D01*
G37*
%TD.AperFunction*%
%TA.AperFunction,Conductor*%
G36*
X176188740Y-55274002D02*
G01*
X176235233Y-55327658D01*
X176245337Y-55397932D01*
X176219569Y-55458005D01*
X176189720Y-55495869D01*
X176187031Y-55500980D01*
X176187029Y-55500983D01*
X176174073Y-55525609D01*
X176095203Y-55675515D01*
X176055548Y-55803225D01*
X176039639Y-55854462D01*
X176035007Y-55869378D01*
X176011148Y-56070964D01*
X176024424Y-56273522D01*
X176025845Y-56279118D01*
X176025846Y-56279123D01*
X176046119Y-56358945D01*
X176074392Y-56470269D01*
X176076809Y-56475512D01*
X176114010Y-56556208D01*
X176159377Y-56654616D01*
X176162710Y-56659332D01*
X176272110Y-56814130D01*
X176276533Y-56820389D01*
X176421938Y-56962035D01*
X176590720Y-57074812D01*
X176596023Y-57077090D01*
X176596026Y-57077092D01*
X176706921Y-57124736D01*
X176777228Y-57154942D01*
X176808155Y-57161940D01*
X176845891Y-57170479D01*
X176907918Y-57205022D01*
X176941422Y-57267616D01*
X176935768Y-57338387D01*
X176892749Y-57394866D01*
X176847497Y-57415891D01*
X176701639Y-57450908D01*
X176697068Y-57452801D01*
X176697066Y-57452802D01*
X176531052Y-57521567D01*
X176531048Y-57521569D01*
X176526478Y-57523462D01*
X176364823Y-57622524D01*
X176220656Y-57745655D01*
X176162150Y-57814157D01*
X176159584Y-57817161D01*
X176100133Y-57855970D01*
X176093148Y-57857787D01*
X176086957Y-57858438D01*
X176080289Y-57860708D01*
X175933387Y-57910717D01*
X175933384Y-57910718D01*
X175926717Y-57912988D01*
X175920719Y-57916678D01*
X175920717Y-57916679D01*
X175788543Y-57997993D01*
X175788541Y-57997995D01*
X175782544Y-58001684D01*
X175661605Y-58120117D01*
X175657793Y-58126032D01*
X175657789Y-58126037D01*
X175634126Y-58162755D01*
X175580412Y-58209180D01*
X175528215Y-58220500D01*
X175192983Y-58220500D01*
X175173272Y-58218949D01*
X175153195Y-58215769D01*
X175143402Y-58217320D01*
X175137101Y-58217320D01*
X175118019Y-58218194D01*
X174982136Y-58209288D01*
X174965795Y-58207137D01*
X174805753Y-58175302D01*
X174789834Y-58171036D01*
X174640455Y-58120329D01*
X174635324Y-58118587D01*
X174620099Y-58112281D01*
X174473756Y-58040113D01*
X174459482Y-58031872D01*
X174323808Y-57941217D01*
X174310733Y-57931184D01*
X174287395Y-57910717D01*
X174208347Y-57841395D01*
X174195479Y-57827290D01*
X174191017Y-57822828D01*
X174190215Y-57821723D01*
X174189937Y-57821215D01*
X174189487Y-57820722D01*
X174185189Y-57814806D01*
X174186083Y-57814157D01*
X174156552Y-57760077D01*
X174154930Y-57715542D01*
X174169119Y-57615842D01*
X174169120Y-57615832D01*
X174169700Y-57611755D01*
X174169845Y-57597948D01*
X174150814Y-57440681D01*
X174107469Y-57325973D01*
X174102101Y-57255181D01*
X174135858Y-57192724D01*
X174198024Y-57158432D01*
X174253142Y-57158543D01*
X174281921Y-57165055D01*
X174429579Y-57198467D01*
X174429584Y-57198468D01*
X174435216Y-57199742D01*
X174440987Y-57199969D01*
X174440989Y-57199969D01*
X174500756Y-57202317D01*
X174638053Y-57207712D01*
X174741423Y-57192724D01*
X174833231Y-57179413D01*
X174833236Y-57179412D01*
X174838945Y-57178584D01*
X174844409Y-57176729D01*
X174844414Y-57176728D01*
X175025693Y-57115192D01*
X175025698Y-57115190D01*
X175031165Y-57113334D01*
X175208276Y-57014147D01*
X175223495Y-57001490D01*
X175359913Y-56888031D01*
X175364345Y-56884345D01*
X175494147Y-56728276D01*
X175593334Y-56551165D01*
X175595190Y-56545698D01*
X175595192Y-56545693D01*
X175656728Y-56364414D01*
X175656729Y-56364409D01*
X175658584Y-56358945D01*
X175659412Y-56353236D01*
X175659413Y-56353231D01*
X175687179Y-56161727D01*
X175687712Y-56158053D01*
X175689232Y-56100000D01*
X175670658Y-55897859D01*
X175669090Y-55892299D01*
X175617125Y-55708046D01*
X175617124Y-55708044D01*
X175615557Y-55702487D01*
X175604978Y-55681033D01*
X175528331Y-55525609D01*
X175525776Y-55520428D01*
X175477209Y-55455389D01*
X175452477Y-55388839D01*
X175467651Y-55319483D01*
X175517913Y-55269341D01*
X175578167Y-55254000D01*
X176120619Y-55254000D01*
X176188740Y-55274002D01*
G37*
%TD.AperFunction*%
%TA.AperFunction,Conductor*%
G36*
X180792586Y-56632791D02*
G01*
X180834522Y-56690080D01*
X180842001Y-56732845D01*
X180842001Y-56994669D01*
X180842371Y-57001490D01*
X180847895Y-57052352D01*
X180851521Y-57067604D01*
X180896678Y-57188060D01*
X180908137Y-57208989D01*
X180923307Y-57278346D01*
X180898571Y-57344894D01*
X180841784Y-57387505D01*
X180797618Y-57395499D01*
X180043104Y-57395499D01*
X179974983Y-57375497D01*
X179928490Y-57321841D01*
X179918386Y-57251567D01*
X179947880Y-57186987D01*
X180002601Y-57150186D01*
X180111165Y-57113334D01*
X180288276Y-57014147D01*
X180303495Y-57001490D01*
X180439913Y-56888031D01*
X180444345Y-56884345D01*
X180574147Y-56728276D01*
X180576969Y-56723236D01*
X180576973Y-56723231D01*
X180606067Y-56671279D01*
X180656804Y-56621617D01*
X180726335Y-56607270D01*
X180792586Y-56632791D01*
G37*
%TD.AperFunction*%
%TD*%
M02*
