%TF.GenerationSoftware,KiCad,Pcbnew,(6.0.1-0)*%
%TF.CreationDate,2022-02-11T11:51:59+00:00*%
%TF.ProjectId,Shelly,5368656c-6c79-42e6-9b69-6361645f7063,4*%
%TF.SameCoordinates,Original*%
%TF.FileFunction,Legend,Bot*%
%TF.FilePolarity,Positive*%
%FSLAX46Y46*%
G04 Gerber Fmt 4.6, Leading zero omitted, Abs format (unit mm)*
G04 Created by KiCad (PCBNEW (6.0.1-0)) date 2022-02-11 11:51:59*
%MOMM*%
%LPD*%
G01*
G04 APERTURE LIST*
%ADD10C,0.150000*%
%ADD11C,0.120000*%
G04 APERTURE END LIST*
D10*
X182600000Y-59300000D02*
X182600000Y-60400000D01*
X182200000Y-57100000D02*
X182600000Y-58000000D01*
X180185714Y-66042857D02*
X180852380Y-66233333D01*
X180376190Y-66423809D01*
X180852380Y-66614285D01*
X180185714Y-66804761D01*
X180185714Y-67090476D02*
X180852380Y-67280952D01*
X180376190Y-67471428D01*
X180852380Y-67661904D01*
X180185714Y-67852380D01*
X180185714Y-68138095D02*
X180852380Y-68328571D01*
X180376190Y-68519047D01*
X180852380Y-68709523D01*
X180185714Y-68900000D01*
X180757142Y-69280952D02*
X180804761Y-69328571D01*
X180852380Y-69280952D01*
X180804761Y-69233333D01*
X180757142Y-69280952D01*
X180852380Y-69280952D01*
X180852380Y-69757142D02*
X180185714Y-69757142D01*
X180280952Y-69757142D02*
X180233333Y-69804761D01*
X180185714Y-69900000D01*
X180185714Y-70042857D01*
X180233333Y-70138095D01*
X180328571Y-70185714D01*
X180852380Y-70185714D01*
X180328571Y-70185714D02*
X180233333Y-70233333D01*
X180185714Y-70328571D01*
X180185714Y-70471428D01*
X180233333Y-70566666D01*
X180328571Y-70614285D01*
X180852380Y-70614285D01*
X180804761Y-71471428D02*
X180852380Y-71376190D01*
X180852380Y-71185714D01*
X180804761Y-71090476D01*
X180709523Y-71042857D01*
X180328571Y-71042857D01*
X180233333Y-71090476D01*
X180185714Y-71185714D01*
X180185714Y-71376190D01*
X180233333Y-71471428D01*
X180328571Y-71519047D01*
X180423809Y-71519047D01*
X180519047Y-71042857D01*
X180757142Y-71947619D02*
X180804761Y-71995238D01*
X180852380Y-71947619D01*
X180804761Y-71900000D01*
X180757142Y-71947619D01*
X180852380Y-71947619D01*
X180185714Y-72852380D02*
X180852380Y-72852380D01*
X180185714Y-72423809D02*
X180709523Y-72423809D01*
X180804761Y-72471428D01*
X180852380Y-72566666D01*
X180852380Y-72709523D01*
X180804761Y-72804761D01*
X180757142Y-72852380D01*
X180852380Y-73328571D02*
X179852380Y-73328571D01*
X180471428Y-73423809D02*
X180852380Y-73709523D01*
X180185714Y-73709523D02*
X180566666Y-73328571D01*
X182200000Y-61216785D02*
X182152380Y-61121547D01*
X182152380Y-60978690D01*
X182200000Y-60835833D01*
X182295238Y-60740595D01*
X182390476Y-60692976D01*
X182580952Y-60645357D01*
X182723809Y-60645357D01*
X182914285Y-60692976D01*
X183009523Y-60740595D01*
X183104761Y-60835833D01*
X183152380Y-60978690D01*
X183152380Y-61073928D01*
X183104761Y-61216785D01*
X183057142Y-61264404D01*
X182723809Y-61264404D01*
X182723809Y-61073928D01*
X183152380Y-61692976D02*
X182152380Y-61692976D01*
X183152380Y-62264404D01*
X182152380Y-62264404D01*
X183152380Y-62740595D02*
X182152380Y-62740595D01*
X182152380Y-62978690D01*
X182200000Y-63121547D01*
X182295238Y-63216785D01*
X182390476Y-63264404D01*
X182580952Y-63312023D01*
X182723809Y-63312023D01*
X182914285Y-63264404D01*
X183009523Y-63216785D01*
X183104761Y-63121547D01*
X183152380Y-62978690D01*
X183152380Y-62740595D01*
X178371428Y-61899761D02*
X178228571Y-61947380D01*
X177990476Y-61947380D01*
X177895238Y-61899761D01*
X177847619Y-61852142D01*
X177800000Y-61756904D01*
X177800000Y-61661666D01*
X177847619Y-61566428D01*
X177895238Y-61518809D01*
X177990476Y-61471190D01*
X178180952Y-61423571D01*
X178276190Y-61375952D01*
X178323809Y-61328333D01*
X178371428Y-61233095D01*
X178371428Y-61137857D01*
X178323809Y-61042619D01*
X178276190Y-60995000D01*
X178180952Y-60947380D01*
X177942857Y-60947380D01*
X177800000Y-60995000D01*
X177371428Y-61947380D02*
X177371428Y-60947380D01*
X176942857Y-61947380D02*
X176942857Y-61423571D01*
X176990476Y-61328333D01*
X177085714Y-61280714D01*
X177228571Y-61280714D01*
X177323809Y-61328333D01*
X177371428Y-61375952D01*
X176085714Y-61899761D02*
X176180952Y-61947380D01*
X176371428Y-61947380D01*
X176466666Y-61899761D01*
X176514285Y-61804523D01*
X176514285Y-61423571D01*
X176466666Y-61328333D01*
X176371428Y-61280714D01*
X176180952Y-61280714D01*
X176085714Y-61328333D01*
X176038095Y-61423571D01*
X176038095Y-61518809D01*
X176514285Y-61614047D01*
X175466666Y-61947380D02*
X175561904Y-61899761D01*
X175609523Y-61804523D01*
X175609523Y-60947380D01*
X174942857Y-61947380D02*
X175038095Y-61899761D01*
X175085714Y-61804523D01*
X175085714Y-60947380D01*
X174657142Y-61280714D02*
X174419047Y-61947380D01*
X174180952Y-61280714D02*
X174419047Y-61947380D01*
X174514285Y-62185476D01*
X174561904Y-62233095D01*
X174657142Y-62280714D01*
X180228571Y-62557380D02*
X179657142Y-62557380D01*
X179942857Y-63557380D02*
X179942857Y-62557380D01*
X178895238Y-63557380D02*
X178895238Y-63033571D01*
X178942857Y-62938333D01*
X179038095Y-62890714D01*
X179228571Y-62890714D01*
X179323809Y-62938333D01*
X178895238Y-63509761D02*
X178990476Y-63557380D01*
X179228571Y-63557380D01*
X179323809Y-63509761D01*
X179371428Y-63414523D01*
X179371428Y-63319285D01*
X179323809Y-63224047D01*
X179228571Y-63176428D01*
X178990476Y-63176428D01*
X178895238Y-63128809D01*
X178466666Y-63509761D02*
X178371428Y-63557380D01*
X178180952Y-63557380D01*
X178085714Y-63509761D01*
X178038095Y-63414523D01*
X178038095Y-63366904D01*
X178085714Y-63271666D01*
X178180952Y-63224047D01*
X178323809Y-63224047D01*
X178419047Y-63176428D01*
X178466666Y-63081190D01*
X178466666Y-63033571D01*
X178419047Y-62938333D01*
X178323809Y-62890714D01*
X178180952Y-62890714D01*
X178085714Y-62938333D01*
X177609523Y-63557380D02*
X177609523Y-62890714D01*
X177609523Y-62985952D02*
X177561904Y-62938333D01*
X177466666Y-62890714D01*
X177323809Y-62890714D01*
X177228571Y-62938333D01*
X177180952Y-63033571D01*
X177180952Y-63557380D01*
X177180952Y-63033571D02*
X177133333Y-62938333D01*
X177038095Y-62890714D01*
X176895238Y-62890714D01*
X176800000Y-62938333D01*
X176752380Y-63033571D01*
X176752380Y-63557380D01*
X176133333Y-63557380D02*
X176228571Y-63509761D01*
X176276190Y-63462142D01*
X176323809Y-63366904D01*
X176323809Y-63081190D01*
X176276190Y-62985952D01*
X176228571Y-62938333D01*
X176133333Y-62890714D01*
X175990476Y-62890714D01*
X175895238Y-62938333D01*
X175847619Y-62985952D01*
X175800000Y-63081190D01*
X175800000Y-63366904D01*
X175847619Y-63462142D01*
X175895238Y-63509761D01*
X175990476Y-63557380D01*
X176133333Y-63557380D01*
X175514285Y-62890714D02*
X175133333Y-62890714D01*
X175371428Y-62557380D02*
X175371428Y-63414523D01*
X175323809Y-63509761D01*
X175228571Y-63557380D01*
X175133333Y-63557380D01*
X174800000Y-63557380D02*
X174800000Y-62890714D01*
X174800000Y-62557380D02*
X174847619Y-62605000D01*
X174800000Y-62652619D01*
X174752380Y-62605000D01*
X174800000Y-62557380D01*
X174800000Y-62652619D01*
X174419047Y-62890714D02*
X173895238Y-62890714D01*
X174419047Y-63557380D01*
X173895238Y-63557380D01*
X173133333Y-63509761D02*
X173228571Y-63557380D01*
X173419047Y-63557380D01*
X173514285Y-63509761D01*
X173561904Y-63414523D01*
X173561904Y-63033571D01*
X173514285Y-62938333D01*
X173419047Y-62890714D01*
X173228571Y-62890714D01*
X173133333Y-62938333D01*
X173085714Y-63033571D01*
X173085714Y-63128809D01*
X173561904Y-63224047D01*
X172657142Y-63557380D02*
X172657142Y-62890714D01*
X172657142Y-63081190D02*
X172609523Y-62985952D01*
X172561904Y-62938333D01*
X172466666Y-62890714D01*
X172371428Y-62890714D01*
D11*
%TO.C,J2*%
X183360000Y-59710000D02*
X183360000Y-58600000D01*
X181840000Y-59710000D02*
X175555000Y-59710000D01*
X181840000Y-57490000D02*
X175555000Y-57490000D01*
X181840000Y-59710000D02*
X181840000Y-59163471D01*
X175555000Y-58292470D02*
X175555000Y-57490000D01*
X182600000Y-59710000D02*
X183360000Y-59710000D01*
X175555000Y-59710000D02*
X175555000Y-58907530D01*
X181840000Y-58036529D02*
X181840000Y-57490000D01*
%TD*%
M02*
