%TF.GenerationSoftware,KiCad,Pcbnew,(5.1.9-0-10_14)*%
%TF.CreationDate,2021-08-26T07:56:30+01:00*%
%TF.ProjectId,Shelly,5368656c-6c79-42e6-9b69-6361645f7063,4*%
%TF.SameCoordinates,Original*%
%TF.FileFunction,Paste,Top*%
%TF.FilePolarity,Positive*%
%FSLAX46Y46*%
G04 Gerber Fmt 4.6, Leading zero omitted, Abs format (unit mm)*
G04 Created by KiCad (PCBNEW (5.1.9-0-10_14)) date 2021-08-26 07:56:30*
%MOMM*%
%LPD*%
G01*
G04 APERTURE LIST*
%ADD10R,0.576000X1.056000*%
%ADD11R,0.864000X0.768000*%
%ADD12R,0.624000X0.384000*%
%ADD13R,0.420000X0.798000*%
G04 APERTURE END LIST*
%TO.C,U2*%
G36*
G01*
X177580000Y-70200000D02*
X177580000Y-69700000D01*
G75*
G02*
X177830000Y-69450000I250000J0D01*
G01*
X178530000Y-69450000D01*
G75*
G02*
X178780000Y-69700000I0J-250000D01*
G01*
X178780000Y-70200000D01*
G75*
G02*
X178530000Y-70450000I-250000J0D01*
G01*
X177830000Y-70450000D01*
G75*
G02*
X177580000Y-70200000I0J250000D01*
G01*
G37*
G36*
G01*
X177580000Y-69050000D02*
X177580000Y-68550000D01*
G75*
G02*
X177830000Y-68300000I250000J0D01*
G01*
X178530000Y-68300000D01*
G75*
G02*
X178780000Y-68550000I0J-250000D01*
G01*
X178780000Y-69050000D01*
G75*
G02*
X178530000Y-69300000I-250000J0D01*
G01*
X177830000Y-69300000D01*
G75*
G02*
X177580000Y-69050000I0J250000D01*
G01*
G37*
G36*
G01*
X177580000Y-67900000D02*
X177580000Y-67400000D01*
G75*
G02*
X177830000Y-67150000I250000J0D01*
G01*
X178530000Y-67150000D01*
G75*
G02*
X178780000Y-67400000I0J-250000D01*
G01*
X178780000Y-67900000D01*
G75*
G02*
X178530000Y-68150000I-250000J0D01*
G01*
X177830000Y-68150000D01*
G75*
G02*
X177580000Y-67900000I0J250000D01*
G01*
G37*
G36*
G01*
X174580000Y-69050000D02*
X174580000Y-68550000D01*
G75*
G02*
X174830000Y-68300000I250000J0D01*
G01*
X175530000Y-68300000D01*
G75*
G02*
X175780000Y-68550000I0J-250000D01*
G01*
X175780000Y-69050000D01*
G75*
G02*
X175530000Y-69300000I-250000J0D01*
G01*
X174830000Y-69300000D01*
G75*
G02*
X174580000Y-69050000I0J250000D01*
G01*
G37*
G36*
G01*
X174580000Y-70200000D02*
X174580000Y-69700000D01*
G75*
G02*
X174830000Y-69450000I250000J0D01*
G01*
X175530000Y-69450000D01*
G75*
G02*
X175780000Y-69700000I0J-250000D01*
G01*
X175780000Y-70200000D01*
G75*
G02*
X175530000Y-70450000I-250000J0D01*
G01*
X174830000Y-70450000D01*
G75*
G02*
X174580000Y-70200000I0J250000D01*
G01*
G37*
G36*
G01*
X174580000Y-67900000D02*
X174580000Y-67400000D01*
G75*
G02*
X174830000Y-67150000I250000J0D01*
G01*
X175530000Y-67150000D01*
G75*
G02*
X175780000Y-67400000I0J-250000D01*
G01*
X175780000Y-67900000D01*
G75*
G02*
X175530000Y-68150000I-250000J0D01*
G01*
X174830000Y-68150000D01*
G75*
G02*
X174580000Y-67900000I0J250000D01*
G01*
G37*
D10*
X173730000Y-67400000D03*
X171830000Y-67400000D03*
X172780000Y-67400000D03*
X171830000Y-70100000D03*
X172780000Y-70100000D03*
X173730000Y-70100000D03*
G36*
G01*
X177724000Y-70870000D02*
X178636000Y-70870000D01*
G75*
G02*
X178876000Y-71110000I0J-240000D01*
G01*
X178876000Y-71590000D01*
G75*
G02*
X178636000Y-71830000I-240000J0D01*
G01*
X177724000Y-71830000D01*
G75*
G02*
X177484000Y-71590000I0J240000D01*
G01*
X177484000Y-71110000D01*
G75*
G02*
X177724000Y-70870000I240000J0D01*
G01*
G37*
G36*
G01*
X177724000Y-72770000D02*
X178636000Y-72770000D01*
G75*
G02*
X178876000Y-73010000I0J-240000D01*
G01*
X178876000Y-73490000D01*
G75*
G02*
X178636000Y-73730000I-240000J0D01*
G01*
X177724000Y-73730000D01*
G75*
G02*
X177484000Y-73490000I0J240000D01*
G01*
X177484000Y-73010000D01*
G75*
G02*
X177724000Y-72770000I240000J0D01*
G01*
G37*
G36*
G01*
X171474000Y-72770000D02*
X172386000Y-72770000D01*
G75*
G02*
X172626000Y-73010000I0J-240000D01*
G01*
X172626000Y-73490000D01*
G75*
G02*
X172386000Y-73730000I-240000J0D01*
G01*
X171474000Y-73730000D01*
G75*
G02*
X171234000Y-73490000I0J240000D01*
G01*
X171234000Y-73010000D01*
G75*
G02*
X171474000Y-72770000I240000J0D01*
G01*
G37*
G36*
G01*
X171474000Y-70870000D02*
X172386000Y-70870000D01*
G75*
G02*
X172626000Y-71110000I0J-240000D01*
G01*
X172626000Y-71590000D01*
G75*
G02*
X172386000Y-71830000I-240000J0D01*
G01*
X171474000Y-71830000D01*
G75*
G02*
X171234000Y-71590000I0J240000D01*
G01*
X171234000Y-71110000D01*
G75*
G02*
X171474000Y-70870000I240000J0D01*
G01*
G37*
G36*
G01*
X170920000Y-68407000D02*
X170440000Y-68407000D01*
G75*
G02*
X170224000Y-68191000I0J216000D01*
G01*
X170224000Y-67759000D01*
G75*
G02*
X170440000Y-67543000I216000J0D01*
G01*
X170920000Y-67543000D01*
G75*
G02*
X171136000Y-67759000I0J-216000D01*
G01*
X171136000Y-68191000D01*
G75*
G02*
X170920000Y-68407000I-216000J0D01*
G01*
G37*
G36*
G01*
X170920000Y-69957000D02*
X170440000Y-69957000D01*
G75*
G02*
X170224000Y-69741000I0J216000D01*
G01*
X170224000Y-69309000D01*
G75*
G02*
X170440000Y-69093000I216000J0D01*
G01*
X170920000Y-69093000D01*
G75*
G02*
X171136000Y-69309000I0J-216000D01*
G01*
X171136000Y-69741000D01*
G75*
G02*
X170920000Y-69957000I-216000J0D01*
G01*
G37*
G36*
G01*
X172893500Y-72520601D02*
X172893500Y-71319399D01*
G75*
G02*
X173132899Y-71080000I239399J0D01*
G01*
X174022101Y-71080000D01*
G75*
G02*
X174261500Y-71319399I0J-239399D01*
G01*
X174261500Y-72520601D01*
G75*
G02*
X174022101Y-72760000I-239399J0D01*
G01*
X173132899Y-72760000D01*
G75*
G02*
X172893500Y-72520601I0J239399D01*
G01*
G37*
G36*
G01*
X175858500Y-72520601D02*
X175858500Y-71319399D01*
G75*
G02*
X176097899Y-71080000I239399J0D01*
G01*
X176987101Y-71080000D01*
G75*
G02*
X177226500Y-71319399I0J-239399D01*
G01*
X177226500Y-72520601D01*
G75*
G02*
X176987101Y-72760000I-239399J0D01*
G01*
X176097899Y-72760000D01*
G75*
G02*
X175858500Y-72520601I0J239399D01*
G01*
G37*
%TD*%
%TO.C,R1*%
G36*
G01*
X174764000Y-60759000D02*
X174236000Y-60759000D01*
G75*
G02*
X174044000Y-60567000I0J192000D01*
G01*
X174044000Y-60183000D01*
G75*
G02*
X174236000Y-59991000I192000J0D01*
G01*
X174764000Y-59991000D01*
G75*
G02*
X174956000Y-60183000I0J-192000D01*
G01*
X174956000Y-60567000D01*
G75*
G02*
X174764000Y-60759000I-192000J0D01*
G01*
G37*
G36*
G01*
X174764000Y-62409000D02*
X174236000Y-62409000D01*
G75*
G02*
X174044000Y-62217000I0J192000D01*
G01*
X174044000Y-61833000D01*
G75*
G02*
X174236000Y-61641000I192000J0D01*
G01*
X174764000Y-61641000D01*
G75*
G02*
X174956000Y-61833000I0J-192000D01*
G01*
X174956000Y-62217000D01*
G75*
G02*
X174764000Y-62409000I-192000J0D01*
G01*
G37*
%TD*%
D11*
%TO.C,Q1*%
X173000000Y-60200000D03*
X171000000Y-61150000D03*
X171000000Y-59250000D03*
%TD*%
D12*
%TO.C,D2*%
X182250000Y-66750000D03*
X182250000Y-68050000D03*
X180350000Y-67400000D03*
X182250000Y-67400000D03*
X180350000Y-68050000D03*
X180350000Y-66750000D03*
%TD*%
%TO.C,D1*%
X182300000Y-69750000D03*
X182300000Y-71050000D03*
X180400000Y-70400000D03*
X182300000Y-70400000D03*
X180400000Y-71050000D03*
X180400000Y-69750000D03*
%TD*%
%TO.C,U1*%
G36*
G01*
X180575000Y-61511000D02*
X180575000Y-61889000D01*
G75*
G02*
X180389000Y-62075000I-186000J0D01*
G01*
X180011000Y-62075000D01*
G75*
G02*
X179825000Y-61889000I0J186000D01*
G01*
X179825000Y-61511000D01*
G75*
G02*
X180011000Y-61325000I186000J0D01*
G01*
X180389000Y-61325000D01*
G75*
G02*
X180575000Y-61511000I0J-186000D01*
G01*
G37*
G36*
G01*
X180575000Y-62511000D02*
X180575000Y-62889000D01*
G75*
G02*
X180389000Y-63075000I-186000J0D01*
G01*
X180011000Y-63075000D01*
G75*
G02*
X179825000Y-62889000I0J186000D01*
G01*
X179825000Y-62511000D01*
G75*
G02*
X180011000Y-62325000I186000J0D01*
G01*
X180389000Y-62325000D01*
G75*
G02*
X180575000Y-62511000I0J-186000D01*
G01*
G37*
G36*
G01*
X181575000Y-61511000D02*
X181575000Y-61889000D01*
G75*
G02*
X181389000Y-62075000I-186000J0D01*
G01*
X181011000Y-62075000D01*
G75*
G02*
X180825000Y-61889000I0J186000D01*
G01*
X180825000Y-61511000D01*
G75*
G02*
X181011000Y-61325000I186000J0D01*
G01*
X181389000Y-61325000D01*
G75*
G02*
X181575000Y-61511000I0J-186000D01*
G01*
G37*
G36*
G01*
X181575000Y-62511000D02*
X181575000Y-62889000D01*
G75*
G02*
X181389000Y-63075000I-186000J0D01*
G01*
X181011000Y-63075000D01*
G75*
G02*
X180825000Y-62889000I0J186000D01*
G01*
X180825000Y-62511000D01*
G75*
G02*
X181011000Y-62325000I186000J0D01*
G01*
X181389000Y-62325000D01*
G75*
G02*
X181575000Y-62511000I0J-186000D01*
G01*
G37*
G36*
G01*
X181820000Y-63824000D02*
X181820000Y-64376000D01*
G75*
G02*
X181760000Y-64436000I-60000J0D01*
G01*
X181640000Y-64436000D01*
G75*
G02*
X181580000Y-64376000I0J60000D01*
G01*
X181580000Y-63824000D01*
G75*
G02*
X181640000Y-63764000I60000J0D01*
G01*
X181760000Y-63764000D01*
G75*
G02*
X181820000Y-63824000I0J-60000D01*
G01*
G37*
G36*
G01*
X181320000Y-63824000D02*
X181320000Y-64376000D01*
G75*
G02*
X181260000Y-64436000I-60000J0D01*
G01*
X181140000Y-64436000D01*
G75*
G02*
X181080000Y-64376000I0J60000D01*
G01*
X181080000Y-63824000D01*
G75*
G02*
X181140000Y-63764000I60000J0D01*
G01*
X181260000Y-63764000D01*
G75*
G02*
X181320000Y-63824000I0J-60000D01*
G01*
G37*
G36*
G01*
X180820000Y-63824000D02*
X180820000Y-64376000D01*
G75*
G02*
X180760000Y-64436000I-60000J0D01*
G01*
X180640000Y-64436000D01*
G75*
G02*
X180580000Y-64376000I0J60000D01*
G01*
X180580000Y-63824000D01*
G75*
G02*
X180640000Y-63764000I60000J0D01*
G01*
X180760000Y-63764000D01*
G75*
G02*
X180820000Y-63824000I0J-60000D01*
G01*
G37*
G36*
G01*
X180320000Y-63824000D02*
X180320000Y-64376000D01*
G75*
G02*
X180260000Y-64436000I-60000J0D01*
G01*
X180140000Y-64436000D01*
G75*
G02*
X180080000Y-64376000I0J60000D01*
G01*
X180080000Y-63824000D01*
G75*
G02*
X180140000Y-63764000I60000J0D01*
G01*
X180260000Y-63764000D01*
G75*
G02*
X180320000Y-63824000I0J-60000D01*
G01*
G37*
G36*
G01*
X179820000Y-63824000D02*
X179820000Y-64376000D01*
G75*
G02*
X179760000Y-64436000I-60000J0D01*
G01*
X179640000Y-64436000D01*
G75*
G02*
X179580000Y-64376000I0J60000D01*
G01*
X179580000Y-63824000D01*
G75*
G02*
X179640000Y-63764000I60000J0D01*
G01*
X179760000Y-63764000D01*
G75*
G02*
X179820000Y-63824000I0J-60000D01*
G01*
G37*
G36*
G01*
X179136000Y-63140000D02*
X179136000Y-63260000D01*
G75*
G02*
X179076000Y-63320000I-60000J0D01*
G01*
X178524000Y-63320000D01*
G75*
G02*
X178464000Y-63260000I0J60000D01*
G01*
X178464000Y-63140000D01*
G75*
G02*
X178524000Y-63080000I60000J0D01*
G01*
X179076000Y-63080000D01*
G75*
G02*
X179136000Y-63140000I0J-60000D01*
G01*
G37*
G36*
G01*
X179136000Y-62640000D02*
X179136000Y-62760000D01*
G75*
G02*
X179076000Y-62820000I-60000J0D01*
G01*
X178524000Y-62820000D01*
G75*
G02*
X178464000Y-62760000I0J60000D01*
G01*
X178464000Y-62640000D01*
G75*
G02*
X178524000Y-62580000I60000J0D01*
G01*
X179076000Y-62580000D01*
G75*
G02*
X179136000Y-62640000I0J-60000D01*
G01*
G37*
G36*
G01*
X179136000Y-62140000D02*
X179136000Y-62260000D01*
G75*
G02*
X179076000Y-62320000I-60000J0D01*
G01*
X178524000Y-62320000D01*
G75*
G02*
X178464000Y-62260000I0J60000D01*
G01*
X178464000Y-62140000D01*
G75*
G02*
X178524000Y-62080000I60000J0D01*
G01*
X179076000Y-62080000D01*
G75*
G02*
X179136000Y-62140000I0J-60000D01*
G01*
G37*
G36*
G01*
X179136000Y-61640000D02*
X179136000Y-61760000D01*
G75*
G02*
X179076000Y-61820000I-60000J0D01*
G01*
X178524000Y-61820000D01*
G75*
G02*
X178464000Y-61760000I0J60000D01*
G01*
X178464000Y-61640000D01*
G75*
G02*
X178524000Y-61580000I60000J0D01*
G01*
X179076000Y-61580000D01*
G75*
G02*
X179136000Y-61640000I0J-60000D01*
G01*
G37*
G36*
G01*
X179136000Y-61140000D02*
X179136000Y-61260000D01*
G75*
G02*
X179076000Y-61320000I-60000J0D01*
G01*
X178524000Y-61320000D01*
G75*
G02*
X178464000Y-61260000I0J60000D01*
G01*
X178464000Y-61140000D01*
G75*
G02*
X178524000Y-61080000I60000J0D01*
G01*
X179076000Y-61080000D01*
G75*
G02*
X179136000Y-61140000I0J-60000D01*
G01*
G37*
G36*
G01*
X179820000Y-60024000D02*
X179820000Y-60576000D01*
G75*
G02*
X179760000Y-60636000I-60000J0D01*
G01*
X179640000Y-60636000D01*
G75*
G02*
X179580000Y-60576000I0J60000D01*
G01*
X179580000Y-60024000D01*
G75*
G02*
X179640000Y-59964000I60000J0D01*
G01*
X179760000Y-59964000D01*
G75*
G02*
X179820000Y-60024000I0J-60000D01*
G01*
G37*
G36*
G01*
X180320000Y-60024000D02*
X180320000Y-60576000D01*
G75*
G02*
X180260000Y-60636000I-60000J0D01*
G01*
X180140000Y-60636000D01*
G75*
G02*
X180080000Y-60576000I0J60000D01*
G01*
X180080000Y-60024000D01*
G75*
G02*
X180140000Y-59964000I60000J0D01*
G01*
X180260000Y-59964000D01*
G75*
G02*
X180320000Y-60024000I0J-60000D01*
G01*
G37*
G36*
G01*
X180820000Y-60024000D02*
X180820000Y-60576000D01*
G75*
G02*
X180760000Y-60636000I-60000J0D01*
G01*
X180640000Y-60636000D01*
G75*
G02*
X180580000Y-60576000I0J60000D01*
G01*
X180580000Y-60024000D01*
G75*
G02*
X180640000Y-59964000I60000J0D01*
G01*
X180760000Y-59964000D01*
G75*
G02*
X180820000Y-60024000I0J-60000D01*
G01*
G37*
G36*
G01*
X181320000Y-60024000D02*
X181320000Y-60576000D01*
G75*
G02*
X181260000Y-60636000I-60000J0D01*
G01*
X181140000Y-60636000D01*
G75*
G02*
X181080000Y-60576000I0J60000D01*
G01*
X181080000Y-60024000D01*
G75*
G02*
X181140000Y-59964000I60000J0D01*
G01*
X181260000Y-59964000D01*
G75*
G02*
X181320000Y-60024000I0J-60000D01*
G01*
G37*
G36*
G01*
X181820000Y-60024000D02*
X181820000Y-60576000D01*
G75*
G02*
X181760000Y-60636000I-60000J0D01*
G01*
X181640000Y-60636000D01*
G75*
G02*
X181580000Y-60576000I0J60000D01*
G01*
X181580000Y-60024000D01*
G75*
G02*
X181640000Y-59964000I60000J0D01*
G01*
X181760000Y-59964000D01*
G75*
G02*
X181820000Y-60024000I0J-60000D01*
G01*
G37*
G36*
G01*
X182936000Y-61140000D02*
X182936000Y-61260000D01*
G75*
G02*
X182876000Y-61320000I-60000J0D01*
G01*
X182324000Y-61320000D01*
G75*
G02*
X182264000Y-61260000I0J60000D01*
G01*
X182264000Y-61140000D01*
G75*
G02*
X182324000Y-61080000I60000J0D01*
G01*
X182876000Y-61080000D01*
G75*
G02*
X182936000Y-61140000I0J-60000D01*
G01*
G37*
G36*
G01*
X182936000Y-61640000D02*
X182936000Y-61760000D01*
G75*
G02*
X182876000Y-61820000I-60000J0D01*
G01*
X182324000Y-61820000D01*
G75*
G02*
X182264000Y-61760000I0J60000D01*
G01*
X182264000Y-61640000D01*
G75*
G02*
X182324000Y-61580000I60000J0D01*
G01*
X182876000Y-61580000D01*
G75*
G02*
X182936000Y-61640000I0J-60000D01*
G01*
G37*
G36*
G01*
X182936000Y-62140000D02*
X182936000Y-62260000D01*
G75*
G02*
X182876000Y-62320000I-60000J0D01*
G01*
X182324000Y-62320000D01*
G75*
G02*
X182264000Y-62260000I0J60000D01*
G01*
X182264000Y-62140000D01*
G75*
G02*
X182324000Y-62080000I60000J0D01*
G01*
X182876000Y-62080000D01*
G75*
G02*
X182936000Y-62140000I0J-60000D01*
G01*
G37*
G36*
G01*
X182936000Y-62640000D02*
X182936000Y-62760000D01*
G75*
G02*
X182876000Y-62820000I-60000J0D01*
G01*
X182324000Y-62820000D01*
G75*
G02*
X182264000Y-62760000I0J60000D01*
G01*
X182264000Y-62640000D01*
G75*
G02*
X182324000Y-62580000I60000J0D01*
G01*
X182876000Y-62580000D01*
G75*
G02*
X182936000Y-62640000I0J-60000D01*
G01*
G37*
G36*
G01*
X182936000Y-63140000D02*
X182936000Y-63260000D01*
G75*
G02*
X182876000Y-63320000I-60000J0D01*
G01*
X182324000Y-63320000D01*
G75*
G02*
X182264000Y-63260000I0J60000D01*
G01*
X182264000Y-63140000D01*
G75*
G02*
X182324000Y-63080000I60000J0D01*
G01*
X182876000Y-63080000D01*
G75*
G02*
X182936000Y-63140000I0J-60000D01*
G01*
G37*
%TD*%
%TO.C,R5*%
G36*
G01*
X181841000Y-74664000D02*
X181841000Y-74136000D01*
G75*
G02*
X182033000Y-73944000I192000J0D01*
G01*
X182417000Y-73944000D01*
G75*
G02*
X182609000Y-74136000I0J-192000D01*
G01*
X182609000Y-74664000D01*
G75*
G02*
X182417000Y-74856000I-192000J0D01*
G01*
X182033000Y-74856000D01*
G75*
G02*
X181841000Y-74664000I0J192000D01*
G01*
G37*
G36*
G01*
X180191000Y-74664000D02*
X180191000Y-74136000D01*
G75*
G02*
X180383000Y-73944000I192000J0D01*
G01*
X180767000Y-73944000D01*
G75*
G02*
X180959000Y-74136000I0J-192000D01*
G01*
X180959000Y-74664000D01*
G75*
G02*
X180767000Y-74856000I-192000J0D01*
G01*
X180383000Y-74856000D01*
G75*
G02*
X180191000Y-74664000I0J192000D01*
G01*
G37*
%TD*%
%TO.C,R4*%
G36*
G01*
X181841000Y-73264000D02*
X181841000Y-72736000D01*
G75*
G02*
X182033000Y-72544000I192000J0D01*
G01*
X182417000Y-72544000D01*
G75*
G02*
X182609000Y-72736000I0J-192000D01*
G01*
X182609000Y-73264000D01*
G75*
G02*
X182417000Y-73456000I-192000J0D01*
G01*
X182033000Y-73456000D01*
G75*
G02*
X181841000Y-73264000I0J192000D01*
G01*
G37*
G36*
G01*
X180191000Y-73264000D02*
X180191000Y-72736000D01*
G75*
G02*
X180383000Y-72544000I192000J0D01*
G01*
X180767000Y-72544000D01*
G75*
G02*
X180959000Y-72736000I0J-192000D01*
G01*
X180959000Y-73264000D01*
G75*
G02*
X180767000Y-73456000I-192000J0D01*
G01*
X180383000Y-73456000D01*
G75*
G02*
X180191000Y-73264000I0J192000D01*
G01*
G37*
%TD*%
%TO.C,R6*%
G36*
G01*
X170736000Y-78441000D02*
X171264000Y-78441000D01*
G75*
G02*
X171456000Y-78633000I0J-192000D01*
G01*
X171456000Y-79017000D01*
G75*
G02*
X171264000Y-79209000I-192000J0D01*
G01*
X170736000Y-79209000D01*
G75*
G02*
X170544000Y-79017000I0J192000D01*
G01*
X170544000Y-78633000D01*
G75*
G02*
X170736000Y-78441000I192000J0D01*
G01*
G37*
G36*
G01*
X170736000Y-76791000D02*
X171264000Y-76791000D01*
G75*
G02*
X171456000Y-76983000I0J-192000D01*
G01*
X171456000Y-77367000D01*
G75*
G02*
X171264000Y-77559000I-192000J0D01*
G01*
X170736000Y-77559000D01*
G75*
G02*
X170544000Y-77367000I0J192000D01*
G01*
X170544000Y-76983000D01*
G75*
G02*
X170736000Y-76791000I192000J0D01*
G01*
G37*
%TD*%
%TO.C,R3*%
G36*
G01*
X183564000Y-77659000D02*
X183036000Y-77659000D01*
G75*
G02*
X182844000Y-77467000I0J192000D01*
G01*
X182844000Y-77083000D01*
G75*
G02*
X183036000Y-76891000I192000J0D01*
G01*
X183564000Y-76891000D01*
G75*
G02*
X183756000Y-77083000I0J-192000D01*
G01*
X183756000Y-77467000D01*
G75*
G02*
X183564000Y-77659000I-192000J0D01*
G01*
G37*
G36*
G01*
X183564000Y-79309000D02*
X183036000Y-79309000D01*
G75*
G02*
X182844000Y-79117000I0J192000D01*
G01*
X182844000Y-78733000D01*
G75*
G02*
X183036000Y-78541000I192000J0D01*
G01*
X183564000Y-78541000D01*
G75*
G02*
X183756000Y-78733000I0J-192000D01*
G01*
X183756000Y-79117000D01*
G75*
G02*
X183564000Y-79309000I-192000J0D01*
G01*
G37*
%TD*%
%TO.C,R2*%
G36*
G01*
X183036000Y-81441000D02*
X183564000Y-81441000D01*
G75*
G02*
X183756000Y-81633000I0J-192000D01*
G01*
X183756000Y-82017000D01*
G75*
G02*
X183564000Y-82209000I-192000J0D01*
G01*
X183036000Y-82209000D01*
G75*
G02*
X182844000Y-82017000I0J192000D01*
G01*
X182844000Y-81633000D01*
G75*
G02*
X183036000Y-81441000I192000J0D01*
G01*
G37*
G36*
G01*
X183036000Y-79791000D02*
X183564000Y-79791000D01*
G75*
G02*
X183756000Y-79983000I0J-192000D01*
G01*
X183756000Y-80367000D01*
G75*
G02*
X183564000Y-80559000I-192000J0D01*
G01*
X183036000Y-80559000D01*
G75*
G02*
X182844000Y-80367000I0J192000D01*
G01*
X182844000Y-79983000D01*
G75*
G02*
X183036000Y-79791000I192000J0D01*
G01*
G37*
%TD*%
%TO.C,C1*%
G36*
G01*
X176257000Y-60160000D02*
X176257000Y-60640000D01*
G75*
G02*
X176041000Y-60856000I-216000J0D01*
G01*
X175609000Y-60856000D01*
G75*
G02*
X175393000Y-60640000I0J216000D01*
G01*
X175393000Y-60160000D01*
G75*
G02*
X175609000Y-59944000I216000J0D01*
G01*
X176041000Y-59944000D01*
G75*
G02*
X176257000Y-60160000I0J-216000D01*
G01*
G37*
G36*
G01*
X177807000Y-60160000D02*
X177807000Y-60640000D01*
G75*
G02*
X177591000Y-60856000I-216000J0D01*
G01*
X177159000Y-60856000D01*
G75*
G02*
X176943000Y-60640000I0J216000D01*
G01*
X176943000Y-60160000D01*
G75*
G02*
X177159000Y-59944000I216000J0D01*
G01*
X177591000Y-59944000D01*
G75*
G02*
X177807000Y-60160000I0J-216000D01*
G01*
G37*
%TD*%
%TO.C,D3*%
G36*
G01*
X171228000Y-80629000D02*
X170772000Y-80629000D01*
G75*
G02*
X170544000Y-80401000I0J228000D01*
G01*
X170544000Y-79849000D01*
G75*
G02*
X170772000Y-79621000I228000J0D01*
G01*
X171228000Y-79621000D01*
G75*
G02*
X171456000Y-79849000I0J-228000D01*
G01*
X171456000Y-80401000D01*
G75*
G02*
X171228000Y-80629000I-228000J0D01*
G01*
G37*
G36*
G01*
X171228000Y-82379000D02*
X170772000Y-82379000D01*
G75*
G02*
X170544000Y-82151000I0J228000D01*
G01*
X170544000Y-81599000D01*
G75*
G02*
X170772000Y-81371000I228000J0D01*
G01*
X171228000Y-81371000D01*
G75*
G02*
X171456000Y-81599000I0J-228000D01*
G01*
X171456000Y-82151000D01*
G75*
G02*
X171228000Y-82379000I-228000J0D01*
G01*
G37*
%TD*%
%TO.C,J3*%
G36*
G01*
X175950000Y-79947500D02*
X175950000Y-79482500D01*
G75*
G02*
X176182500Y-79250000I232500J0D01*
G01*
X176647500Y-79250000D01*
G75*
G02*
X176880000Y-79482500I0J-232500D01*
G01*
X176880000Y-79947500D01*
G75*
G02*
X176647500Y-80180000I-232500J0D01*
G01*
X176182500Y-80180000D01*
G75*
G02*
X175950000Y-79947500I0J232500D01*
G01*
G37*
G36*
G01*
X175950000Y-81097500D02*
X175950000Y-80632500D01*
G75*
G02*
X176182500Y-80400000I232500J0D01*
G01*
X176647500Y-80400000D01*
G75*
G02*
X176880000Y-80632500I0J-232500D01*
G01*
X176880000Y-81097500D01*
G75*
G02*
X176647500Y-81330000I-232500J0D01*
G01*
X176182500Y-81330000D01*
G75*
G02*
X175950000Y-81097500I0J232500D01*
G01*
G37*
G36*
G01*
X177100000Y-78797500D02*
X177100000Y-78332500D01*
G75*
G02*
X177332500Y-78100000I232500J0D01*
G01*
X177797500Y-78100000D01*
G75*
G02*
X178030000Y-78332500I0J-232500D01*
G01*
X178030000Y-78797500D01*
G75*
G02*
X177797500Y-79030000I-232500J0D01*
G01*
X177332500Y-79030000D01*
G75*
G02*
X177100000Y-78797500I0J232500D01*
G01*
G37*
G36*
G01*
X177100000Y-79947500D02*
X177100000Y-79482500D01*
G75*
G02*
X177332500Y-79250000I232500J0D01*
G01*
X177797500Y-79250000D01*
G75*
G02*
X178030000Y-79482500I0J-232500D01*
G01*
X178030000Y-79947500D01*
G75*
G02*
X177797500Y-80180000I-232500J0D01*
G01*
X177332500Y-80180000D01*
G75*
G02*
X177100000Y-79947500I0J232500D01*
G01*
G37*
G36*
G01*
X177100000Y-81097500D02*
X177100000Y-80632500D01*
G75*
G02*
X177332500Y-80400000I232500J0D01*
G01*
X177797500Y-80400000D01*
G75*
G02*
X178030000Y-80632500I0J-232500D01*
G01*
X178030000Y-81097500D01*
G75*
G02*
X177797500Y-81330000I-232500J0D01*
G01*
X177332500Y-81330000D01*
G75*
G02*
X177100000Y-81097500I0J232500D01*
G01*
G37*
G36*
G01*
X178250000Y-78797500D02*
X178250000Y-78332500D01*
G75*
G02*
X178482500Y-78100000I232500J0D01*
G01*
X178947500Y-78100000D01*
G75*
G02*
X179180000Y-78332500I0J-232500D01*
G01*
X179180000Y-78797500D01*
G75*
G02*
X178947500Y-79030000I-232500J0D01*
G01*
X178482500Y-79030000D01*
G75*
G02*
X178250000Y-78797500I0J232500D01*
G01*
G37*
G36*
G01*
X178250000Y-79947500D02*
X178250000Y-79482500D01*
G75*
G02*
X178482500Y-79250000I232500J0D01*
G01*
X178947500Y-79250000D01*
G75*
G02*
X179180000Y-79482500I0J-232500D01*
G01*
X179180000Y-79947500D01*
G75*
G02*
X178947500Y-80180000I-232500J0D01*
G01*
X178482500Y-80180000D01*
G75*
G02*
X178250000Y-79947500I0J232500D01*
G01*
G37*
G36*
G01*
X178250000Y-81097500D02*
X178250000Y-80632500D01*
G75*
G02*
X178482500Y-80400000I232500J0D01*
G01*
X178947500Y-80400000D01*
G75*
G02*
X179180000Y-80632500I0J-232500D01*
G01*
X179180000Y-81097500D01*
G75*
G02*
X178947500Y-81330000I-232500J0D01*
G01*
X178482500Y-81330000D01*
G75*
G02*
X178250000Y-81097500I0J232500D01*
G01*
G37*
G36*
G01*
X174800000Y-78797500D02*
X174800000Y-78332500D01*
G75*
G02*
X175032500Y-78100000I232500J0D01*
G01*
X175497500Y-78100000D01*
G75*
G02*
X175730000Y-78332500I0J-232500D01*
G01*
X175730000Y-78797500D01*
G75*
G02*
X175497500Y-79030000I-232500J0D01*
G01*
X175032500Y-79030000D01*
G75*
G02*
X174800000Y-78797500I0J232500D01*
G01*
G37*
G36*
G01*
X174800000Y-79947500D02*
X174800000Y-79482500D01*
G75*
G02*
X175032500Y-79250000I232500J0D01*
G01*
X175497500Y-79250000D01*
G75*
G02*
X175730000Y-79482500I0J-232500D01*
G01*
X175730000Y-79947500D01*
G75*
G02*
X175497500Y-80180000I-232500J0D01*
G01*
X175032500Y-80180000D01*
G75*
G02*
X174800000Y-79947500I0J232500D01*
G01*
G37*
G36*
G01*
X174800000Y-81097500D02*
X174800000Y-80632500D01*
G75*
G02*
X175032500Y-80400000I232500J0D01*
G01*
X175497500Y-80400000D01*
G75*
G02*
X175730000Y-80632500I0J-232500D01*
G01*
X175730000Y-81097500D01*
G75*
G02*
X175497500Y-81330000I-232500J0D01*
G01*
X175032500Y-81330000D01*
G75*
G02*
X174800000Y-81097500I0J232500D01*
G01*
G37*
G36*
G01*
X175950000Y-78797500D02*
X175950000Y-78332500D01*
G75*
G02*
X176182500Y-78100000I232500J0D01*
G01*
X176647500Y-78100000D01*
G75*
G02*
X176880000Y-78332500I0J-232500D01*
G01*
X176880000Y-78797500D01*
G75*
G02*
X176647500Y-79030000I-232500J0D01*
G01*
X176182500Y-79030000D01*
G75*
G02*
X175950000Y-78797500I0J232500D01*
G01*
G37*
D13*
X174600000Y-76140000D03*
X179400000Y-76140000D03*
G36*
G01*
X177106000Y-76615200D02*
X177106000Y-75664800D01*
G75*
G02*
X177178000Y-75592800I72000J0D01*
G01*
X177322000Y-75592800D01*
G75*
G02*
X177394000Y-75664800I0J-72000D01*
G01*
X177394000Y-76615200D01*
G75*
G02*
X177322000Y-76687200I-72000J0D01*
G01*
X177178000Y-76687200D01*
G75*
G02*
X177106000Y-76615200I0J72000D01*
G01*
G37*
G36*
G01*
X176606000Y-76615200D02*
X176606000Y-75664800D01*
G75*
G02*
X176678000Y-75592800I72000J0D01*
G01*
X176822000Y-75592800D01*
G75*
G02*
X176894000Y-75664800I0J-72000D01*
G01*
X176894000Y-76615200D01*
G75*
G02*
X176822000Y-76687200I-72000J0D01*
G01*
X176678000Y-76687200D01*
G75*
G02*
X176606000Y-76615200I0J72000D01*
G01*
G37*
G36*
G01*
X177606000Y-76615200D02*
X177606000Y-75664800D01*
G75*
G02*
X177678000Y-75592800I72000J0D01*
G01*
X177822000Y-75592800D01*
G75*
G02*
X177894000Y-75664800I0J-72000D01*
G01*
X177894000Y-76615200D01*
G75*
G02*
X177822000Y-76687200I-72000J0D01*
G01*
X177678000Y-76687200D01*
G75*
G02*
X177606000Y-76615200I0J72000D01*
G01*
G37*
G36*
G01*
X176106000Y-76615200D02*
X176106000Y-75664800D01*
G75*
G02*
X176178000Y-75592800I72000J0D01*
G01*
X176322000Y-75592800D01*
G75*
G02*
X176394000Y-75664800I0J-72000D01*
G01*
X176394000Y-76615200D01*
G75*
G02*
X176322000Y-76687200I-72000J0D01*
G01*
X176178000Y-76687200D01*
G75*
G02*
X176106000Y-76615200I0J72000D01*
G01*
G37*
G36*
G01*
X178106000Y-76615200D02*
X178106000Y-75664800D01*
G75*
G02*
X178178000Y-75592800I72000J0D01*
G01*
X178322000Y-75592800D01*
G75*
G02*
X178394000Y-75664800I0J-72000D01*
G01*
X178394000Y-76615200D01*
G75*
G02*
X178322000Y-76687200I-72000J0D01*
G01*
X178178000Y-76687200D01*
G75*
G02*
X178106000Y-76615200I0J72000D01*
G01*
G37*
G36*
G01*
X175606000Y-76615200D02*
X175606000Y-75664800D01*
G75*
G02*
X175678000Y-75592800I72000J0D01*
G01*
X175822000Y-75592800D01*
G75*
G02*
X175894000Y-75664800I0J-72000D01*
G01*
X175894000Y-76615200D01*
G75*
G02*
X175822000Y-76687200I-72000J0D01*
G01*
X175678000Y-76687200D01*
G75*
G02*
X175606000Y-76615200I0J72000D01*
G01*
G37*
G36*
G01*
X178606000Y-76615200D02*
X178606000Y-75664800D01*
G75*
G02*
X178678000Y-75592800I72000J0D01*
G01*
X178822000Y-75592800D01*
G75*
G02*
X178894000Y-75664800I0J-72000D01*
G01*
X178894000Y-76615200D01*
G75*
G02*
X178822000Y-76687200I-72000J0D01*
G01*
X178678000Y-76687200D01*
G75*
G02*
X178606000Y-76615200I0J72000D01*
G01*
G37*
G36*
G01*
X175106000Y-76615200D02*
X175106000Y-75664800D01*
G75*
G02*
X175178000Y-75592800I72000J0D01*
G01*
X175322000Y-75592800D01*
G75*
G02*
X175394000Y-75664800I0J-72000D01*
G01*
X175394000Y-76615200D01*
G75*
G02*
X175322000Y-76687200I-72000J0D01*
G01*
X175178000Y-76687200D01*
G75*
G02*
X175106000Y-76615200I0J72000D01*
G01*
G37*
X180200000Y-76140000D03*
X173800000Y-76140000D03*
%TD*%
M02*
