M48
; DRILL file {KiCad (5.1.9-0-10_14)} date Saturday, August 07, 2021 at 11:32:04 AM
; FORMAT={-:-/ absolute / inch / decimal}
; #@! TF.CreationDate,2021-08-07T11:32:04+01:00
; #@! TF.GenerationSoftware,Kicad,Pcbnew,(5.1.9-0-10_14)
; #@! TF.FileFunction,Plated,1,2,PTH
FMAT,2
INCH
T1C0.0098
T2C0.0157
T3C0.0236
T4C0.0256
T5C0.0394
T6C0.0492
%
G90
G05
T1
X7.1142Y-2.4488
T2
X6.7185Y-2.9498
X6.7402Y-2.3819
X6.7474Y-2.4976
X6.7632Y-2.9306
X6.7717Y-3.2421
X6.7987Y-2.5428
X6.8382Y-2.3839
X6.8474Y-2.5122
X6.8898Y-2.8524
X6.9016Y-2.9311
X6.9019Y-2.4339
X6.9411Y-2.431
X6.9587Y-2.9382
X6.9712Y-2.5427
X6.9929Y-2.5098
X7.0172Y-2.9466
X7.0423Y-2.369
X7.0572Y-2.5776
X7.0678Y-2.7388
X7.0728Y-2.8484
X7.1378Y-2.6299
X7.1639Y-2.563
X7.1654Y-3.1181
X7.1816Y-2.5208
X7.1988Y-2.8346
X7.2002Y-2.3695
X7.2146Y-2.9134
X7.2185Y-2.2638
T3
X6.8547Y-3.0398
X7.0823Y-3.0398
T4
X6.939Y-2.3071
X6.989Y-2.3071
X7.039Y-2.3071
X7.089Y-2.3071
X7.139Y-2.3071
X7.189Y-2.3071
T5
X6.7732Y-2.2087
X6.7984Y-3.1846
X6.8732Y-2.2087
X6.9732Y-2.2087
X7.0732Y-2.2087
X7.1386Y-3.1846
X7.1732Y-2.2087
T6
X6.7984Y-3.0205
X7.1386Y-3.0205
T0
M30
