solid OpenSCAD_Model
  facet normal 0 0 1
    outer loop
      vertex 1.875 31.7917 4
      vertex 0 32 4
      vertex 1.875 4.20833 4
    endloop
  endfacet
  facet normal -0 0 1
    outer loop
      vertex 0 32 4
      vertex 1.875 31.7917 4
      vertex 2.08333 32 4
    endloop
  endfacet
  facet normal 0 0 1
    outer loop
      vertex 0 2 4
      vertex 2 2 4
      vertex 2 4.08333 4
    endloop
  endfacet
  facet normal 0 0 1
    outer loop
      vertex 0 2 4
      vertex 2 4.08333 4
      vertex 1.875 4.20833 4
    endloop
  endfacet
  facet normal 0 0 1
    outer loop
      vertex 0 2 4
      vertex 1.875 4.20833 4
      vertex 0 32 4
    endloop
  endfacet
  facet normal 0 0 1
    outer loop
      vertex 2 2 4
      vertex 0 2 4
      vertex 2 0 4
    endloop
  endfacet
  facet normal 0 0 1
    outer loop
      vertex 20.125 4.20833 4
      vertex 22 32 4
      vertex 20.125 31.7917 4
    endloop
  endfacet
  facet normal 0 -0 1
    outer loop
      vertex 20.125 31.7917 4
      vertex 22 32 4
      vertex 19.9167 32 4
    endloop
  endfacet
  facet normal 0 0 1
    outer loop
      vertex 22 32 4
      vertex 20.125 4.20833 4
      vertex 22 2 4
    endloop
  endfacet
  facet normal -0 0 1
    outer loop
      vertex 19.125 3.20833 4
      vertex 22 2 4
      vertex 20.125 4.20833 4
    endloop
  endfacet
  facet normal 0 0 1
    outer loop
      vertex 22 2 4
      vertex 19.125 3.20833 4
      vertex 20 0 4
    endloop
  endfacet
  facet normal -0 0 1
    outer loop
      vertex 17.7917 1.875 4
      vertex 20 0 4
      vertex 19.125 3.20833 4
    endloop
  endfacet
  facet normal -0 0 1
    outer loop
      vertex 4.20833 1.875 4
      vertex 20 0 4
      vertex 17.7917 1.875 4
    endloop
  endfacet
  facet normal 0 0 1
    outer loop
      vertex 2 0 4
      vertex 4.08333 2 4
      vertex 2 2 4
    endloop
  endfacet
  facet normal 0 0 1
    outer loop
      vertex 4.08333 2 4
      vertex 2 0 4
      vertex 4.20833 1.875 4
    endloop
  endfacet
  facet normal 0 0 1
    outer loop
      vertex 4.20833 1.875 4
      vertex 2 0 4
      vertex 20 0 4
    endloop
  endfacet
  facet normal -1 0 0
    outer loop
      vertex 20.125 4.20833 2
      vertex 20.125 31.7917 4
      vertex 20.125 31.7917 2
    endloop
  endfacet
  facet normal -1 -0 0
    outer loop
      vertex 20.125 31.7917 4
      vertex 20.125 4.20833 2
      vertex 20.125 4.20833 4
    endloop
  endfacet
  facet normal -0.707107 -0.707107 0
    outer loop
      vertex 20.125 31.7917 2
      vertex 19.9167 32 4
      vertex 19.9167 32 2
    endloop
  endfacet
  facet normal -0.707107 -0.707107 0
    outer loop
      vertex 19.9167 32 4
      vertex 20.125 31.7917 2
      vertex 20.125 31.7917 4
    endloop
  endfacet
  facet normal 1 -0 0
    outer loop
      vertex 1.875 4.20833 4
      vertex 1.875 31.7917 2
      vertex 1.875 31.7917 4
    endloop
  endfacet
  facet normal 1 0 0
    outer loop
      vertex 1.875 31.7917 2
      vertex 1.875 4.20833 4
      vertex 1.875 4.20833 2
    endloop
  endfacet
  facet normal 0 1 -0
    outer loop
      vertex 17.7917 1.875 2
      vertex 4.20833 1.875 4
      vertex 17.7917 1.875 4
    endloop
  endfacet
  facet normal 0 1 0
    outer loop
      vertex 4.20833 1.875 4
      vertex 17.7917 1.875 2
      vertex 4.20833 1.875 2
    endloop
  endfacet
  facet normal -0.707107 0.707107 0
    outer loop
      vertex 19.125 3.20833 2
      vertex 20.125 4.20833 4
      vertex 20.125 4.20833 2
    endloop
  endfacet
  facet normal -0.707107 0.707107 0
    outer loop
      vertex 20.125 4.20833 4
      vertex 19.125 3.20833 2
      vertex 19.125 3.20833 4
    endloop
  endfacet
  facet normal 0.707107 0.707107 0
    outer loop
      vertex 2 4.08333 4
      vertex 1.875 4.20833 2
      vertex 1.875 4.20833 4
    endloop
  endfacet
  facet normal 0.707104 0.70711 3.99308e-07
    outer loop
      vertex 3.04167 3.04167 2.95833
      vertex 1.875 4.20833 2
      vertex 2 4.08333 4
    endloop
  endfacet
  facet normal 0.707107 0.707107 -0
    outer loop
      vertex 4.20833 1.875 2
      vertex 4.08333 2 4
      vertex 4.20833 1.875 4
    endloop
  endfacet
  facet normal 0.707107 0.707107 -7.37853e-06
    outer loop
      vertex 3.04167 3.04167 2.95833
      vertex 4.20833 1.875 2
      vertex 1.875 4.20833 2
    endloop
  endfacet
  facet normal 0.70711 0.707104 3.99308e-07
    outer loop
      vertex 4.08333 2 4
      vertex 4.20833 1.875 2
      vertex 3.04167 3.04167 2.95833
    endloop
  endfacet
  facet normal -0.707115 0.707099 0
    outer loop
      vertex 19.125 3.20833 2
      vertex 17.7917 1.875 4
      vertex 19.125 3.20833 4
    endloop
  endfacet
  facet normal -0.707115 0.707099 0
    outer loop
      vertex 17.7917 1.875 4
      vertex 19.125 3.20833 2
      vertex 17.7917 1.875 2
    endloop
  endfacet
  facet normal -0 0 1
    outer loop
      vertex 1.875 31.7917 2
      vertex 3.75 31 2
      vertex 2.08333 32 2
    endloop
  endfacet
  facet normal 0 0 1
    outer loop
      vertex 3.82322 31.1768 2
      vertex 2.08333 32 2
      vertex 3.75 31 2
    endloop
  endfacet
  facet normal -0 0 1
    outer loop
      vertex 2.08333 32 2
      vertex 3.82322 31.1768 2
      vertex 4.64645 32 2
    endloop
  endfacet
  facet normal 0 0 1
    outer loop
      vertex 18.25 31 2
      vertex 20.125 31.7917 2
      vertex 19.9167 32 2
    endloop
  endfacet
  facet normal 0 0 1
    outer loop
      vertex 20.125 31.7917 2
      vertex 18.25 31 2
      vertex 20.125 4.20833 2
    endloop
  endfacet
  facet normal 0 0 1
    outer loop
      vertex 20.125 4.20833 2
      vertex 18.25 31 2
      vertex 18.25 5 2
    endloop
  endfacet
  facet normal 0 0 1
    outer loop
      vertex 19.9167 32 2
      vertex 18.1768 31.1768 2
      vertex 18.25 31 2
    endloop
  endfacet
  facet normal 0 -0 1
    outer loop
      vertex 18.1768 31.1768 2
      vertex 19.9167 32 2
      vertex 17.3536 32 2
    endloop
  endfacet
  facet normal -0 0 1
    outer loop
      vertex 18.1768 4.82322 2
      vertex 20.125 4.20833 2
      vertex 18.25 5 2
    endloop
  endfacet
  facet normal 0 0 1
    outer loop
      vertex 20.125 4.20833 2
      vertex 18.1768 4.82322 2
      vertex 19.125 3.20833 2
    endloop
  endfacet
  facet normal -0 0 1
    outer loop
      vertex 17.1768 3.82322 2
      vertex 19.125 3.20833 2
      vertex 18.1768 4.82322 2
    endloop
  endfacet
  facet normal 0 0 1
    outer loop
      vertex 19.125 3.20833 2
      vertex 17.1768 3.82322 2
      vertex 17.7917 1.875 2
    endloop
  endfacet
  facet normal -0 0 1
    outer loop
      vertex 17 3.75 2
      vertex 17.7917 1.875 2
      vertex 17.1768 3.82322 2
    endloop
  endfacet
  facet normal -0 0 1
    outer loop
      vertex 5 3.75 2
      vertex 17.7917 1.875 2
      vertex 17 3.75 2
    endloop
  endfacet
  facet normal 0 0 1
    outer loop
      vertex 5 3.75 2
      vertex 4.20833 1.875 2
      vertex 17.7917 1.875 2
    endloop
  endfacet
  facet normal 0 0 1
    outer loop
      vertex 4.82322 3.82322 2
      vertex 4.20833 1.875 2
      vertex 5 3.75 2
    endloop
  endfacet
  facet normal 0 0 1
    outer loop
      vertex 3.82322 4.82322 2
      vertex 4.20833 1.875 2
      vertex 4.82322 3.82322 2
    endloop
  endfacet
  facet normal 0 0 1
    outer loop
      vertex 1.875 4.20833 2
      vertex 3.82322 4.82322 2
      vertex 3.75 5 2
    endloop
  endfacet
  facet normal 0 0 1
    outer loop
      vertex 3.75 31 2
      vertex 1.875 31.7917 2
      vertex 3.75 5 2
    endloop
  endfacet
  facet normal 0 0 1
    outer loop
      vertex 3.82322 4.82322 2
      vertex 1.875 4.20833 2
      vertex 4.20833 1.875 2
    endloop
  endfacet
  facet normal 0 0 1
    outer loop
      vertex 1.875 4.20833 2
      vertex 3.75 5 2
      vertex 1.875 31.7917 2
    endloop
  endfacet
  facet normal 0.707056 -0.707158 0
    outer loop
      vertex 1.875 31.7917 4
      vertex 2.08333 32 2
      vertex 2.08333 32 4
    endloop
  endfacet
  facet normal 0.707056 -0.707158 0
    outer loop
      vertex 2.08333 32 2
      vertex 1.875 31.7917 4
      vertex 1.875 31.7917 2
    endloop
  endfacet
  facet normal 0.923888 0.382663 0
    outer loop
      vertex 3.82322 4.82322 2
      vertex 3.75 5 1.75
      vertex 3.75 5 2
    endloop
  endfacet
  facet normal 0.923888 0.382663 0
    outer loop
      vertex 3.75 5 1.75
      vertex 3.82322 4.82322 2
      vertex 3.82322 4.82322 1.75
    endloop
  endfacet
  facet normal 0.382663 0.923888 -0
    outer loop
      vertex 5 3.75 1.75
      vertex 4.82322 3.82322 2
      vertex 5 3.75 2
    endloop
  endfacet
  facet normal 0.382663 0.923888 0
    outer loop
      vertex 4.82322 3.82322 2
      vertex 5 3.75 1.75
      vertex 4.82322 3.82322 1.75
    endloop
  endfacet
  facet normal 0.707107 0.707107 0
    outer loop
      vertex 4.82322 3.82322 2
      vertex 3.82322 4.82322 1.75
      vertex 3.82322 4.82322 2
    endloop
  endfacet
  facet normal 0.707107 0.707107 0
    outer loop
      vertex 3.82322 4.82322 1.75
      vertex 4.82322 3.82322 2
      vertex 4.82322 3.82322 1.75
    endloop
  endfacet
  facet normal -0.92394 -0.382536 0
    outer loop
      vertex 18.25 31 1.75
      vertex 18.1768 31.1768 2
      vertex 18.1768 31.1768 1.75
    endloop
  endfacet
  facet normal -0.92394 -0.382536 0
    outer loop
      vertex 18.1768 31.1768 2
      vertex 18.25 31 1.75
      vertex 18.25 31 2
    endloop
  endfacet
  facet normal -1 0 0
    outer loop
      vertex 18.25 5 1.75
      vertex 18.25 31 2
      vertex 18.25 31 1.75
    endloop
  endfacet
  facet normal -1 -0 0
    outer loop
      vertex 18.25 31 2
      vertex 18.25 5 1.75
      vertex 18.25 5 2
    endloop
  endfacet
  facet normal -0.382626 0.923903 0
    outer loop
      vertex 17.1768 3.82322 1.75
      vertex 17 3.75 2
      vertex 17.1768 3.82322 2
    endloop
  endfacet
  facet normal -0.382626 0.923903 0
    outer loop
      vertex 17 3.75 2
      vertex 17.1768 3.82322 1.75
      vertex 17 3.75 1.75
    endloop
  endfacet
  facet normal 0 1 -0
    outer loop
      vertex 17 3.75 1.75
      vertex 5 3.75 2
      vertex 17 3.75 2
    endloop
  endfacet
  facet normal 0 1 0
    outer loop
      vertex 5 3.75 2
      vertex 17 3.75 1.75
      vertex 5 3.75 1.75
    endloop
  endfacet
  facet normal -0.923925 0.382573 0
    outer loop
      vertex 18.1768 4.82322 1.75
      vertex 18.25 5 2
      vertex 18.25 5 1.75
    endloop
  endfacet
  facet normal -0.923925 0.382573 0
    outer loop
      vertex 18.25 5 2
      vertex 18.1768 4.82322 1.75
      vertex 18.1768 4.82322 2
    endloop
  endfacet
  facet normal 0.707094 -0.70712 0
    outer loop
      vertex 3.82322 31.1768 1.75
      vertex 4.64645 32 2
      vertex 3.82322 31.1768 2
    endloop
  endfacet
  facet normal 0.707094 -0.70712 0
    outer loop
      vertex 4.64645 32 2
      vertex 3.82322 31.1768 1.75
      vertex 4.64645 32 1.75
    endloop
  endfacet
  facet normal 1 -0 0
    outer loop
      vertex 3.75 5 2
      vertex 3.75 31 1.75
      vertex 3.75 31 2
    endloop
  endfacet
  facet normal 1 0 0
    outer loop
      vertex 3.75 31 1.75
      vertex 3.75 5 2
      vertex 3.75 5 1.75
    endloop
  endfacet
  facet normal 0.923903 -0.382626 0
    outer loop
      vertex 3.75 31 2
      vertex 3.82322 31.1768 1.75
      vertex 3.82322 31.1768 2
    endloop
  endfacet
  facet normal 0.923903 -0.382626 0
    outer loop
      vertex 3.82322 31.1768 1.75
      vertex 3.75 31 2
      vertex 3.75 31 1.75
    endloop
  endfacet
  facet normal -0.707107 0.707107 0
    outer loop
      vertex 17.1768 3.82322 1.75
      vertex 18.1768 4.82322 2
      vertex 18.1768 4.82322 1.75
    endloop
  endfacet
  facet normal -0.707107 0.707107 0
    outer loop
      vertex 18.1768 4.82322 2
      vertex 17.1768 3.82322 1.75
      vertex 17.1768 3.82322 2
    endloop
  endfacet
  facet normal -0.707107 -0.707107 0
    outer loop
      vertex 17.3536 32 1.75
      vertex 18.1768 31.1768 2
      vertex 17.3536 32 2
    endloop
  endfacet
  facet normal -0.707107 -0.707107 -0
    outer loop
      vertex 18.1768 31.1768 2
      vertex 17.3536 32 1.75
      vertex 18.1768 31.1768 1.75
    endloop
  endfacet
  facet normal 0 0 1
    outer loop
      vertex 17.3536 32 1.75
      vertex 18.25 31 1.75
      vertex 18.1768 31.1768 1.75
    endloop
  endfacet
  facet normal 0 0 1
    outer loop
      vertex 18.25 31 1.75
      vertex 3.75 31 1.75
      vertex 18.25 5 1.75
    endloop
  endfacet
  facet normal 0 0 1
    outer loop
      vertex 18.25 31 1.75
      vertex 17.3536 32 1.75
      vertex 3.75 31 1.75
    endloop
  endfacet
  facet normal 0 0 1
    outer loop
      vertex 3.75 5 1.75
      vertex 18.25 5 1.75
      vertex 3.75 31 1.75
    endloop
  endfacet
  facet normal 0 0 1
    outer loop
      vertex 18.25 5 1.75
      vertex 17 3.75 1.75
      vertex 18.1768 4.82322 1.75
    endloop
  endfacet
  facet normal 0 0 1
    outer loop
      vertex 18.1768 4.82322 1.75
      vertex 17 3.75 1.75
      vertex 17.1768 3.82322 1.75
    endloop
  endfacet
  facet normal 0 0 1
    outer loop
      vertex 17 3.75 1.75
      vertex 3.75 5 1.75
      vertex 5 3.75 1.75
    endloop
  endfacet
  facet normal 0 0 1
    outer loop
      vertex 3.75 31 1.75
      vertex 17.3536 32 1.75
      vertex 4.64645 32 1.75
    endloop
  endfacet
  facet normal 0 0 1
    outer loop
      vertex 3.75 31 1.75
      vertex 4.64645 32 1.75
      vertex 3.82322 31.1768 1.75
    endloop
  endfacet
  facet normal 0 -0 1
    outer loop
      vertex 17 3.75 1.75
      vertex 18.25 5 1.75
      vertex 3.75 5 1.75
    endloop
  endfacet
  facet normal 0 0 1
    outer loop
      vertex 5 3.75 1.75
      vertex 3.75 5 1.75
      vertex 4.82322 3.82322 1.75
    endloop
  endfacet
  facet normal 0 0 1
    outer loop
      vertex 4.82322 3.82322 1.75
      vertex 3.75 5 1.75
      vertex 3.82322 4.82322 1.75
    endloop
  endfacet
  facet normal 0.707107 0 0.707107
    outer loop
      vertex 3.04167 3.04167 2.95833
      vertex 2 4.08333 4
      vertex 2 2 4
    endloop
  endfacet
  facet normal 0 0.707107 0.707107
    outer loop
      vertex 4.08333 2 4
      vertex 3.04167 3.04167 2.95833
      vertex 2 2 4
    endloop
  endfacet
  facet normal -0.707107 -0.707107 0
    outer loop
      vertex 2 0 1
      vertex 0 2 4
      vertex 0 2 1
    endloop
  endfacet
  facet normal -0.707107 -0.707107 0
    outer loop
      vertex 0 2 4
      vertex 2 0 1
      vertex 2 0 4
    endloop
  endfacet
  facet normal 0 0 -1
    outer loop
      vertex 1 2 0
      vertex 21 2 0
      vertex 20 1 0
    endloop
  endfacet
  facet normal 0 0 -1
    outer loop
      vertex 1 2 0
      vertex 20 1 0
      vertex 2 1 0
    endloop
  endfacet
  facet normal 0 0 -1
    outer loop
      vertex 21 2 0
      vertex 1 2 0
      vertex 21 32 0
    endloop
  endfacet
  facet normal -0 0 -1
    outer loop
      vertex 21 32 0
      vertex 1 2 0
      vertex 1 32 0
    endloop
  endfacet
  facet normal -0.707107 0 -0.707107
    outer loop
      vertex 1 2 0
      vertex 0 32 1
      vertex 1 32 0
    endloop
  endfacet
  facet normal -0.707107 -0 -0.707107
    outer loop
      vertex 0 32 1
      vertex 1 2 0
      vertex 0 2 1
    endloop
  endfacet
  facet normal 0 -0.707107 -0.707107
    outer loop
      vertex 2 1 0
      vertex 20 0 1
      vertex 2 0 1
    endloop
  endfacet
  facet normal 0 -0.707107 -0.707107
    outer loop
      vertex 20 0 1
      vertex 2 1 0
      vertex 20 1 0
    endloop
  endfacet
  facet normal 0.57735 -0.57735 -0.57735
    outer loop
      vertex 22 2 1
      vertex 20 1 0
      vertex 21 2 0
    endloop
  endfacet
  facet normal 0.57735 -0.57735 -0.57735
    outer loop
      vertex 20 1 0
      vertex 22 2 1
      vertex 20 0 1
    endloop
  endfacet
  facet normal 0.707107 0 -0.707107
    outer loop
      vertex 22 2 1
      vertex 21 32 0
      vertex 22 32 1
    endloop
  endfacet
  facet normal 0.707107 0 -0.707107
    outer loop
      vertex 21 32 0
      vertex 22 2 1
      vertex 21 2 0
    endloop
  endfacet
  facet normal -0.57735 -0.57735 -0.57735
    outer loop
      vertex 2 1 0
      vertex 0 2 1
      vertex 1 2 0
    endloop
  endfacet
  facet normal -0.57735 -0.57735 -0.57735
    outer loop
      vertex 0 2 1
      vertex 2 1 0
      vertex 2 0 1
    endloop
  endfacet
  facet normal 0.707107 -0.707107 0
    outer loop
      vertex 20 0 4
      vertex 22 2 1
      vertex 22 2 4
    endloop
  endfacet
  facet normal 0.707107 -0.707107 0
    outer loop
      vertex 22 2 1
      vertex 20 0 4
      vertex 20 0 1
    endloop
  endfacet
  facet normal -1 0 0
    outer loop
      vertex 0 2 1
      vertex 0 32 4
      vertex 0 32 1
    endloop
  endfacet
  facet normal -1 -0 0
    outer loop
      vertex 0 32 4
      vertex 0 2 1
      vertex 0 2 4
    endloop
  endfacet
  facet normal 0 -1 0
    outer loop
      vertex 2 0 1
      vertex 20 0 4
      vertex 2 0 4
    endloop
  endfacet
  facet normal 0 -1 -0
    outer loop
      vertex 20 0 4
      vertex 2 0 1
      vertex 20 0 1
    endloop
  endfacet
  facet normal 1 -0 0
    outer loop
      vertex 22 2 4
      vertex 22 32 1
      vertex 22 32 4
    endloop
  endfacet
  facet normal 1 0 0
    outer loop
      vertex 22 32 1
      vertex 22 2 4
      vertex 22 2 1
    endloop
  endfacet
  facet normal 0 1 0
    outer loop
      vertex 22 32 4
      vertex 19.9167 32 2
      vertex 19.9167 32 4
    endloop
  endfacet
  facet normal 0 1 0
    outer loop
      vertex 19.9167 32 2
      vertex 17.3536 32 1.75
      vertex 17.3536 32 2
    endloop
  endfacet
  facet normal 0 1 0
    outer loop
      vertex 19.9167 32 2
      vertex 21 32 0
      vertex 17.3536 32 1.75
    endloop
  endfacet
  facet normal 0 1 -0
    outer loop
      vertex 21 32 0
      vertex 19.9167 32 2
      vertex 22 32 1
    endloop
  endfacet
  facet normal 0 1 -0
    outer loop
      vertex 22 32 1
      vertex 19.9167 32 2
      vertex 22 32 4
    endloop
  endfacet
  facet normal 0 1 0
    outer loop
      vertex 4.64645 32 2
      vertex 4.64645 32 1.75
      vertex 2.08333 32 2
    endloop
  endfacet
  facet normal 0 1 -0
    outer loop
      vertex 2.08333 32 2
      vertex 0 32 4
      vertex 2.08333 32 4
    endloop
  endfacet
  facet normal 0 1 0
    outer loop
      vertex 2.08333 32 2
      vertex 0 32 1
      vertex 0 32 4
    endloop
  endfacet
  facet normal 0 1 0
    outer loop
      vertex 1 32 0
      vertex 2.08333 32 2
      vertex 4.64645 32 1.75
    endloop
  endfacet
  facet normal 0 1 0
    outer loop
      vertex 17.3536 32 1.75
      vertex 21 32 0
      vertex 4.64645 32 1.75
    endloop
  endfacet
  facet normal 0 1 0
    outer loop
      vertex 1 32 0
      vertex 4.64645 32 1.75
      vertex 21 32 0
    endloop
  endfacet
  facet normal 0 1 0
    outer loop
      vertex 2.08333 32 2
      vertex 1 32 0
      vertex 0 32 1
    endloop
  endfacet
  facet normal 0.92394 -0.382536 0
    outer loop
      vertex 26.75 31 5.6
      vertex 26.8232 31.1768 3.75
      vertex 26.8232 31.1768 5.6
    endloop
  endfacet
  facet normal 0.92394 -0.382536 0
    outer loop
      vertex 26.8232 31.1768 3.75
      vertex 26.75 31 5.6
      vertex 26.75 31 3.75
    endloop
  endfacet
  facet normal 0.382536 -0.92394 0
    outer loop
      vertex 27.8232 32.1768 3.75
      vertex 28 32.25 5.6
      vertex 27.8232 32.1768 5.6
    endloop
  endfacet
  facet normal 0.382536 -0.92394 0
    outer loop
      vertex 28 32.25 5.6
      vertex 27.8232 32.1768 3.75
      vertex 28 32.25 3.75
    endloop
  endfacet
  facet normal 0.707107 -0.707107 0
    outer loop
      vertex 26.8232 31.1768 5.6
      vertex 27.8232 32.1768 3.75
      vertex 27.8232 32.1768 5.6
    endloop
  endfacet
  facet normal 0.707107 -0.707107 0
    outer loop
      vertex 27.8232 32.1768 3.75
      vertex 26.8232 31.1768 5.6
      vertex 26.8232 31.1768 3.75
    endloop
  endfacet
  facet normal -0.923925 0.382573 0
    outer loop
      vertex 41.1768 4.82322 3.75
      vertex 41.25 5 5.6
      vertex 41.25 5 3.75
    endloop
  endfacet
  facet normal -0.923925 0.382573 0
    outer loop
      vertex 41.25 5 5.6
      vertex 41.1768 4.82322 3.75
      vertex 41.1768 4.82322 5.6
    endloop
  endfacet
  facet normal -1 0 0
    outer loop
      vertex 41.25 5 3.75
      vertex 41.25 31 5.6
      vertex 41.25 31 3.75
    endloop
  endfacet
  facet normal -1 -0 0
    outer loop
      vertex 41.25 31 5.6
      vertex 41.25 5 3.75
      vertex 41.25 5 5.6
    endloop
  endfacet
  facet normal -0.382536 -0.92394 0
    outer loop
      vertex 40 32.25 3.75
      vertex 40.1768 32.1768 5.6
      vertex 40 32.25 5.6
    endloop
  endfacet
  facet normal -0.382536 -0.92394 -0
    outer loop
      vertex 40.1768 32.1768 5.6
      vertex 40 32.25 3.75
      vertex 40.1768 32.1768 3.75
    endloop
  endfacet
  facet normal 0 -1 0
    outer loop
      vertex 28 32.25 3.75
      vertex 40 32.25 5.6
      vertex 28 32.25 5.6
    endloop
  endfacet
  facet normal 0 -1 -0
    outer loop
      vertex 40 32.25 5.6
      vertex 28 32.25 3.75
      vertex 40 32.25 3.75
    endloop
  endfacet
  facet normal -0.92394 -0.382536 0
    outer loop
      vertex 41.25 31 3.75
      vertex 41.1768 31.1768 5.6
      vertex 41.1768 31.1768 3.75
    endloop
  endfacet
  facet normal -0.92394 -0.382536 0
    outer loop
      vertex 41.1768 31.1768 5.6
      vertex 41.25 31 3.75
      vertex 41.25 31 5.6
    endloop
  endfacet
  facet normal 0.707115 0.707098 -0
    outer loop
      vertex 27.6464 4 3.75
      vertex 26.8232 4.82322 5.6
      vertex 27.6464 4 5.6
    endloop
  endfacet
  facet normal 0.707115 0.707098 0
    outer loop
      vertex 26.8232 4.82322 5.6
      vertex 27.6464 4 3.75
      vertex 26.8232 4.82322 3.75
    endloop
  endfacet
  facet normal 0 0 1
    outer loop
      vertex 40 32.25 3.75
      vertex 41.25 31 3.75
      vertex 41.1768 31.1768 3.75
    endloop
  endfacet
  facet normal 0 0 1
    outer loop
      vertex 41.25 31 3.75
      vertex 26.75 5 3.75
      vertex 41.25 5 3.75
    endloop
  endfacet
  facet normal 0 -0 1
    outer loop
      vertex 40.3536 4 3.75
      vertex 41.25 5 3.75
      vertex 26.75 5 3.75
    endloop
  endfacet
  facet normal 0 0 1
    outer loop
      vertex 40 32.25 3.75
      vertex 41.1768 31.1768 3.75
      vertex 40.1768 32.1768 3.75
    endloop
  endfacet
  facet normal 0 0 1
    outer loop
      vertex 41.25 31 3.75
      vertex 40 32.25 3.75
      vertex 26.75 31 3.75
    endloop
  endfacet
  facet normal 0 0 1
    outer loop
      vertex 26.75 31 3.75
      vertex 40 32.25 3.75
      vertex 28 32.25 3.75
    endloop
  endfacet
  facet normal 0 0 1
    outer loop
      vertex 26.75 31 3.75
      vertex 28 32.25 3.75
      vertex 27.8232 32.1768 3.75
    endloop
  endfacet
  facet normal 0 0 1
    outer loop
      vertex 41.25 31 3.75
      vertex 26.75 31 3.75
      vertex 26.75 5 3.75
    endloop
  endfacet
  facet normal 0 0 1
    outer loop
      vertex 26.75 31 3.75
      vertex 27.8232 32.1768 3.75
      vertex 26.8232 31.1768 3.75
    endloop
  endfacet
  facet normal 0 0 1
    outer loop
      vertex 41.25 5 3.75
      vertex 40.3536 4 3.75
      vertex 41.1768 4.82322 3.75
    endloop
  endfacet
  facet normal 0 0 1
    outer loop
      vertex 40.3536 4 3.75
      vertex 26.75 5 3.75
      vertex 27.6464 4 3.75
    endloop
  endfacet
  facet normal 0 0 1
    outer loop
      vertex 27.6464 4 3.75
      vertex 26.75 5 3.75
      vertex 26.8232 4.82322 3.75
    endloop
  endfacet
  facet normal 1 -0 0
    outer loop
      vertex 26.75 5 5.6
      vertex 26.75 31 3.75
      vertex 26.75 31 5.6
    endloop
  endfacet
  facet normal 1 0 0
    outer loop
      vertex 26.75 31 3.75
      vertex 26.75 5 5.6
      vertex 26.75 5 3.75
    endloop
  endfacet
  facet normal 0.923925 0.382573 0
    outer loop
      vertex 26.8232 4.82322 5.6
      vertex 26.75 5 3.75
      vertex 26.75 5 5.6
    endloop
  endfacet
  facet normal 0.923925 0.382573 0
    outer loop
      vertex 26.75 5 3.75
      vertex 26.8232 4.82322 5.6
      vertex 26.8232 4.82322 3.75
    endloop
  endfacet
  facet normal -0.707107 -0.707107 0
    outer loop
      vertex 41.1768 31.1768 3.75
      vertex 40.1768 32.1768 5.6
      vertex 40.1768 32.1768 3.75
    endloop
  endfacet
  facet normal -0.707107 -0.707107 0
    outer loop
      vertex 40.1768 32.1768 5.6
      vertex 41.1768 31.1768 3.75
      vertex 41.1768 31.1768 5.6
    endloop
  endfacet
  facet normal -0.707115 0.707098 0
    outer loop
      vertex 40.3536 4 3.75
      vertex 41.1768 4.82322 5.6
      vertex 41.1768 4.82322 3.75
    endloop
  endfacet
  facet normal -0.707115 0.707098 0
    outer loop
      vertex 41.1768 4.82322 5.6
      vertex 40.3536 4 3.75
      vertex 40.3536 4 5.6
    endloop
  endfacet
  facet normal -0.707087 0 0.707126
    outer loop
      vertex 25.5 33.5 4.1
      vertex 25.5 32.4167 4.1
      vertex 26.0417 32.9583 4.64167
    endloop
  endfacet
  facet normal 0 0.707087 0.707126
    outer loop
      vertex 26.5833 33.5 4.1
      vertex 25.5 33.5 4.1
      vertex 26.0417 32.9583 4.64167
    endloop
  endfacet
  facet normal 0 0 1
    outer loop
      vertex 45 34 4.1
      vertex 43.125 31.7917 4.1
      vertex 45 4 4.1
    endloop
  endfacet
  facet normal 0 0 1
    outer loop
      vertex 42.125 32.7917 4.1
      vertex 45 34 4.1
      vertex 43 36 4.1
    endloop
  endfacet
  facet normal 0 0 1
    outer loop
      vertex 45 34 4.1
      vertex 42.125 32.7917 4.1
      vertex 43.125 31.7917 4.1
    endloop
  endfacet
  facet normal 0 0 1
    outer loop
      vertex 43 36 4.1
      vertex 40.7917 34.125 4.1
      vertex 42.125 32.7917 4.1
    endloop
  endfacet
  facet normal 0 0 1
    outer loop
      vertex 43 36 4.1
      vertex 27.2083 34.125 4.1
      vertex 40.7917 34.125 4.1
    endloop
  endfacet
  facet normal 0 0 1
    outer loop
      vertex 27.2083 34.125 4.1
      vertex 25.5 33.5 4.1
      vertex 26.5833 33.5 4.1
    endloop
  endfacet
  facet normal -0 0 1
    outer loop
      vertex 25 36 4.1
      vertex 27.2083 34.125 4.1
      vertex 43 36 4.1
    endloop
  endfacet
  facet normal 0 0 1
    outer loop
      vertex 25 36 4.1
      vertex 25.5 33.5 4.1
      vertex 27.2083 34.125 4.1
    endloop
  endfacet
  facet normal -0 0 1
    outer loop
      vertex 23 34 4.1
      vertex 25.5 33.5 4.1
      vertex 25 36 4.1
    endloop
  endfacet
  facet normal 0 -0 1
    outer loop
      vertex 24.875 31.7917 4.1
      vertex 25.5 33.5 4.1
      vertex 23 34 4.1
    endloop
  endfacet
  facet normal 0 0 1
    outer loop
      vertex 23 4 4.1
      vertex 24.875 31.7917 4.1
      vertex 23 34 4.1
    endloop
  endfacet
  facet normal 0 0 1
    outer loop
      vertex 25.5 33.5 4.1
      vertex 24.875 31.7917 4.1
      vertex 25.5 32.4167 4.1
    endloop
  endfacet
  facet normal -0 0 1
    outer loop
      vertex 43.125 4.20833 4.1
      vertex 45 4 4.1
      vertex 43.125 31.7917 4.1
    endloop
  endfacet
  facet normal 0 0 1
    outer loop
      vertex 45 4 4.1
      vertex 43.125 4.20833 4.1
      vertex 42.9167 4 4.1
    endloop
  endfacet
  facet normal 0 0 1
    outer loop
      vertex 24.875 4.20833 4.1
      vertex 23 4 4.1
      vertex 25.0833 4 4.1
    endloop
  endfacet
  facet normal 0 0 1
    outer loop
      vertex 24.875 31.7917 4.1
      vertex 23 4 4.1
      vertex 24.875 4.20833 4.1
    endloop
  endfacet
  facet normal 1 -0 0
    outer loop
      vertex 43.125 4.20833 5.6
      vertex 43.125 31.7917 4.1
      vertex 43.125 31.7917 5.6
    endloop
  endfacet
  facet normal 1 0 0
    outer loop
      vertex 43.125 31.7917 4.1
      vertex 43.125 4.20833 5.6
      vertex 43.125 4.20833 4.1
    endloop
  endfacet
  facet normal 0.707158 -0.707056 0
    outer loop
      vertex 42.9167 4 4.1
      vertex 43.125 4.20833 5.6
      vertex 42.9167 4 5.6
    endloop
  endfacet
  facet normal 0.707158 -0.707056 0
    outer loop
      vertex 43.125 4.20833 5.6
      vertex 42.9167 4 4.1
      vertex 43.125 4.20833 4.1
    endloop
  endfacet
  facet normal 0.707107 0.707107 0
    outer loop
      vertex 43.125 31.7917 5.6
      vertex 42.125 32.7917 4.1
      vertex 42.125 32.7917 5.6
    endloop
  endfacet
  facet normal 0.707107 0.707107 0
    outer loop
      vertex 42.125 32.7917 4.1
      vertex 43.125 31.7917 5.6
      vertex 43.125 31.7917 4.1
    endloop
  endfacet
  facet normal -0.707158 -0.707056 0
    outer loop
      vertex 25.0833 4 4.1
      vertex 24.875 4.20833 5.6
      vertex 24.875 4.20833 4.1
    endloop
  endfacet
  facet normal -0.707158 -0.707056 0
    outer loop
      vertex 24.875 4.20833 5.6
      vertex 25.0833 4 4.1
      vertex 25.0833 4 5.6
    endloop
  endfacet
  facet normal -1 0 0
    outer loop
      vertex 24.875 4.20833 4.1
      vertex 24.875 31.7917 5.6
      vertex 24.875 31.7917 4.1
    endloop
  endfacet
  facet normal -1 -0 0
    outer loop
      vertex 24.875 31.7917 5.6
      vertex 24.875 4.20833 4.1
      vertex 24.875 4.20833 5.6
    endloop
  endfacet
  facet normal 0 0 1
    outer loop
      vertex 43.125 31.7917 5.6
      vertex 41.1768 31.1768 5.6
      vertex 41.25 31 5.6
    endloop
  endfacet
  facet normal 0 0 1
    outer loop
      vertex 40.1768 32.1768 5.6
      vertex 42.125 32.7917 5.6
      vertex 40.7917 34.125 5.6
    endloop
  endfacet
  facet normal 0 0 1
    outer loop
      vertex 42.125 32.7917 5.6
      vertex 40.1768 32.1768 5.6
      vertex 41.1768 31.1768 5.6
    endloop
  endfacet
  facet normal 0 0 1
    outer loop
      vertex 40.7917 34.125 5.6
      vertex 40 32.25 5.6
      vertex 40.1768 32.1768 5.6
    endloop
  endfacet
  facet normal 0 0 1
    outer loop
      vertex 40.7917 34.125 5.6
      vertex 28 32.25 5.6
      vertex 40 32.25 5.6
    endloop
  endfacet
  facet normal -0 0 1
    outer loop
      vertex 27.2083 34.125 5.6
      vertex 28 32.25 5.6
      vertex 40.7917 34.125 5.6
    endloop
  endfacet
  facet normal 0 0 1
    outer loop
      vertex 27.2083 34.125 5.6
      vertex 27.8232 32.1768 5.6
      vertex 28 32.25 5.6
    endloop
  endfacet
  facet normal 0 0 1
    outer loop
      vertex 27.2083 34.125 5.6
      vertex 26.8232 31.1768 5.6
      vertex 27.8232 32.1768 5.6
    endloop
  endfacet
  facet normal -0 0 1
    outer loop
      vertex 24.875 31.7917 5.6
      vertex 26.8232 31.1768 5.6
      vertex 27.2083 34.125 5.6
    endloop
  endfacet
  facet normal 0 0 1
    outer loop
      vertex 24.875 4.20833 5.6
      vertex 26.75 5 5.6
      vertex 26.75 31 5.6
    endloop
  endfacet
  facet normal 0 0 1
    outer loop
      vertex 26.8232 31.1768 5.6
      vertex 24.875 31.7917 5.6
      vertex 26.75 31 5.6
    endloop
  endfacet
  facet normal 0 0 1
    outer loop
      vertex 24.875 4.20833 5.6
      vertex 26.75 31 5.6
      vertex 24.875 31.7917 5.6
    endloop
  endfacet
  facet normal 0 0 1
    outer loop
      vertex 26.75 5 5.6
      vertex 24.875 4.20833 5.6
      vertex 25.0833 4 5.6
    endloop
  endfacet
  facet normal -0 0 1
    outer loop
      vertex 41.25 5 5.6
      vertex 43.125 4.20833 5.6
      vertex 43.125 31.7917 5.6
    endloop
  endfacet
  facet normal 0 0 1
    outer loop
      vertex 41.1768 31.1768 5.6
      vertex 43.125 31.7917 5.6
      vertex 42.125 32.7917 5.6
    endloop
  endfacet
  facet normal 0 0 1
    outer loop
      vertex 41.25 5 5.6
      vertex 43.125 31.7917 5.6
      vertex 41.25 31 5.6
    endloop
  endfacet
  facet normal 0 0 1
    outer loop
      vertex 43.125 4.20833 5.6
      vertex 41.25 5 5.6
      vertex 42.9167 4 5.6
    endloop
  endfacet
  facet normal -0 0 1
    outer loop
      vertex 41.1768 4.82322 5.6
      vertex 42.9167 4 5.6
      vertex 41.25 5 5.6
    endloop
  endfacet
  facet normal 0 0 1
    outer loop
      vertex 42.9167 4 5.6
      vertex 41.1768 4.82322 5.6
      vertex 40.3536 4 5.6
    endloop
  endfacet
  facet normal 0 0 1
    outer loop
      vertex 26.8232 4.82322 5.6
      vertex 25.0833 4 5.6
      vertex 27.6464 4 5.6
    endloop
  endfacet
  facet normal 0 0 1
    outer loop
      vertex 25.0833 4 5.6
      vertex 26.8232 4.82322 5.6
      vertex 26.75 5 5.6
    endloop
  endfacet
  facet normal -0.707107 0.707107 0
    outer loop
      vertex 26.5833 33.5 4.1
      vertex 27.2083 34.125 5.6
      vertex 27.2083 34.125 4.1
    endloop
  endfacet
  facet normal -0.707153 0.707061 3.83957e-05
    outer loop
      vertex 26.0417 32.9583 4.64167
      vertex 27.2083 34.125 5.6
      vertex 26.5833 33.5 4.1
    endloop
  endfacet
  facet normal -0.707107 0.707107 0
    outer loop
      vertex 24.875 31.7917 5.6
      vertex 25.5 32.4167 4.1
      vertex 24.875 31.7917 4.1
    endloop
  endfacet
  facet normal -0.707061 0.707153 3.83957e-05
    outer loop
      vertex 25.5 32.4167 4.1
      vertex 24.875 31.7917 5.6
      vertex 26.0417 32.9583 4.64167
    endloop
  endfacet
  facet normal -0.707107 0.707107 -7.37853e-05
    outer loop
      vertex 26.0417 32.9583 4.64167
      vertex 24.875 31.7917 5.6
      vertex 27.2083 34.125 5.6
    endloop
  endfacet
  facet normal 0 1 -0
    outer loop
      vertex 40.7917 34.125 4.1
      vertex 27.2083 34.125 5.6
      vertex 40.7917 34.125 5.6
    endloop
  endfacet
  facet normal 0 1 0
    outer loop
      vertex 27.2083 34.125 5.6
      vertex 40.7917 34.125 4.1
      vertex 27.2083 34.125 4.1
    endloop
  endfacet
  facet normal 0.707107 0.707107 -0
    outer loop
      vertex 42.125 32.7917 4.1
      vertex 40.7917 34.125 5.6
      vertex 42.125 32.7917 5.6
    endloop
  endfacet
  facet normal 0.707107 0.707107 0
    outer loop
      vertex 40.7917 34.125 5.6
      vertex 42.125 32.7917 4.1
      vertex 40.7917 34.125 4.1
    endloop
  endfacet
  facet normal -0.57735 0.57735 -0.57735
    outer loop
      vertex 23 34 1
      vertex 25 35 5.72205e-07
      vertex 24 34 5.72205e-07
    endloop
  endfacet
  facet normal -0.57735 0.57735 -0.57735
    outer loop
      vertex 25 35 5.72205e-07
      vertex 23 34 1
      vertex 25 36 1
    endloop
  endfacet
  facet normal 0.57735 0.57735 -0.57735
    outer loop
      vertex 45 34 1
      vertex 43 35 5.72205e-07
      vertex 43 36 1
    endloop
  endfacet
  facet normal 0.57735 0.57735 -0.57735
    outer loop
      vertex 43 35 5.72205e-07
      vertex 45 34 1
      vertex 44 34 5.72205e-07
    endloop
  endfacet
  facet normal 0 1 -0
    outer loop
      vertex 43 36 1
      vertex 25 36 4.1
      vertex 43 36 4.1
    endloop
  endfacet
  facet normal 0 1 0
    outer loop
      vertex 25 36 4.1
      vertex 43 36 1
      vertex 25 36 1
    endloop
  endfacet
  facet normal 1 -0 0
    outer loop
      vertex 45 4 4.1
      vertex 45 34 1
      vertex 45 34 4.1
    endloop
  endfacet
  facet normal 1 0 0
    outer loop
      vertex 45 34 1
      vertex 45 4 4.1
      vertex 45 4 1
    endloop
  endfacet
  facet normal -0.707107 0 -0.707107
    outer loop
      vertex 24 4 5.72205e-07
      vertex 23 34 1
      vertex 24 34 5.72205e-07
    endloop
  endfacet
  facet normal -0.707107 -0 -0.707107
    outer loop
      vertex 23 34 1
      vertex 24 4 5.72205e-07
      vertex 23 4 1
    endloop
  endfacet
  facet normal 0.707107 0.707107 0
    outer loop
      vertex 45 34 4.1
      vertex 43 36 1
      vertex 43 36 4.1
    endloop
  endfacet
  facet normal 0.707107 0.707107 0
    outer loop
      vertex 43 36 1
      vertex 45 34 4.1
      vertex 45 34 1
    endloop
  endfacet
  facet normal -0.707107 0.707107 0
    outer loop
      vertex 23 34 1
      vertex 25 36 4.1
      vertex 25 36 1
    endloop
  endfacet
  facet normal -0.707107 0.707107 0
    outer loop
      vertex 25 36 4.1
      vertex 23 34 1
      vertex 23 34 4.1
    endloop
  endfacet
  facet normal 0 0 -1
    outer loop
      vertex 24 34 5.72205e-07
      vertex 44 34 5.72205e-07
      vertex 44 4 5.72205e-07
    endloop
  endfacet
  facet normal 0 0 -1
    outer loop
      vertex 44 34 5.72205e-07
      vertex 24 34 5.72205e-07
      vertex 43 35 5.72205e-07
    endloop
  endfacet
  facet normal 0 0 -1
    outer loop
      vertex 24 34 5.72205e-07
      vertex 44 4 5.72205e-07
      vertex 24 4 5.72205e-07
    endloop
  endfacet
  facet normal -0 0 -1
    outer loop
      vertex 43 35 5.72205e-07
      vertex 24 34 5.72205e-07
      vertex 25 35 5.72205e-07
    endloop
  endfacet
  facet normal 0.707107 0 -0.707107
    outer loop
      vertex 45 4 1
      vertex 44 34 5.72205e-07
      vertex 45 34 1
    endloop
  endfacet
  facet normal 0.707107 0 -0.707107
    outer loop
      vertex 44 34 5.72205e-07
      vertex 45 4 1
      vertex 44 4 5.72205e-07
    endloop
  endfacet
  facet normal 0 0.707107 -0.707107
    outer loop
      vertex 43 35 5.72205e-07
      vertex 25 36 1
      vertex 43 36 1
    endloop
  endfacet
  facet normal 0 0.707107 -0.707107
    outer loop
      vertex 25 36 1
      vertex 43 35 5.72205e-07
      vertex 25 35 5.72205e-07
    endloop
  endfacet
  facet normal -1 0 0
    outer loop
      vertex 23 4 1
      vertex 23 34 4.1
      vertex 23 34 1
    endloop
  endfacet
  facet normal -1 -0 0
    outer loop
      vertex 23 34 4.1
      vertex 23 4 1
      vertex 23 4 4.1
    endloop
  endfacet
  facet normal 0 -1 0
    outer loop
      vertex 23 4 1
      vertex 25.0833 4 4.1
      vertex 23 4 4.1
    endloop
  endfacet
  facet normal 0 -1 -0
    outer loop
      vertex 25.0833 4 4.1
      vertex 24 4 5.72205e-07
      vertex 27.6464 4 3.75
    endloop
  endfacet
  facet normal 0 -1 0
    outer loop
      vertex 24 4 5.72205e-07
      vertex 25.0833 4 4.1
      vertex 23 4 1
    endloop
  endfacet
  facet normal 0 -1 0
    outer loop
      vertex 25.0833 4 4.1
      vertex 27.6464 4 5.6
      vertex 25.0833 4 5.6
    endloop
  endfacet
  facet normal 0 -1 -0
    outer loop
      vertex 27.6464 4 5.6
      vertex 25.0833 4 4.1
      vertex 27.6464 4 3.75
    endloop
  endfacet
  facet normal 0 -1 0
    outer loop
      vertex 40.3536 4 5.6
      vertex 42.9167 4 4.1
      vertex 42.9167 4 5.6
    endloop
  endfacet
  facet normal 0 -1 0
    outer loop
      vertex 40.3536 4 3.75
      vertex 42.9167 4 4.1
      vertex 40.3536 4 5.6
    endloop
  endfacet
  facet normal 0 -1 0
    outer loop
      vertex 44 4 5.72205e-07
      vertex 42.9167 4 4.1
      vertex 40.3536 4 3.75
    endloop
  endfacet
  facet normal 0 -1 -0
    outer loop
      vertex 27.6464 4 3.75
      vertex 24 4 5.72205e-07
      vertex 40.3536 4 3.75
    endloop
  endfacet
  facet normal 0 -1 0
    outer loop
      vertex 44 4 5.72205e-07
      vertex 40.3536 4 3.75
      vertex 24 4 5.72205e-07
    endloop
  endfacet
  facet normal 0 -1 0
    outer loop
      vertex 42.9167 4 4.1
      vertex 44 4 5.72205e-07
      vertex 45 4 1
    endloop
  endfacet
  facet normal 0 -1 0
    outer loop
      vertex 42.9167 4 4.1
      vertex 45 4 1
      vertex 45 4 4.1
    endloop
  endfacet
endsolid OpenSCAD_Model
