M48
; DRILL file {KiCad (5.1.10-1-10_14)} date Tuesday, May 11, 2021 at 04:29:49 PM
; FORMAT={-:-/ absolute / inch / decimal}
; #@! TF.CreationDate,2021-05-11T16:29:49+01:00
; #@! TF.GenerationSoftware,Kicad,Pcbnew,(5.1.10-1-10_14)
; #@! TF.FileFunction,Plated,1,2,PTH
FMAT,2
INCH
T1C0.0098
T2C0.0157
T3C0.0236
T4C0.0256
T5C0.0394
T6C0.0472
T7C0.0591
%
G90
G05
T1
X7.1614Y-2.7047
T2
X6.7668Y-3.0058
X6.7895Y-3.1879
X6.8307Y-3.0
X6.8437Y-3.1232
X6.874Y-3.0157
X6.8937Y-2.5197
X6.9035Y-3.115
X6.9529Y-2.6014
X6.9618Y-3.1211
X7.0276Y-2.7559
X7.0314Y-2.698
X7.0354Y-2.9913
X7.0679Y-2.8858
X7.0778Y-3.0142
X7.0917Y-2.939
X7.1014Y-2.5479
X7.1151Y-3.0997
X7.1299Y-2.8937
X7.1461Y-3.0754
X7.1614Y-2.9764
X7.1703Y-2.5633
X7.2056Y-2.5806
X7.2564Y-2.968
X7.2579Y-2.8504
T3
X6.8154Y-3.276
X7.0429Y-3.276
T4
X6.8563Y-2.387
X6.8563Y-2.4606
X6.9063Y-2.387
X6.9063Y-2.4606
X6.9563Y-2.387
X6.9563Y-2.4606
X7.0063Y-2.387
X7.0063Y-2.4606
X7.0563Y-2.387
X7.0563Y-2.4606
X7.1063Y-2.387
X7.1063Y-2.4606
T5
X7.2047Y-3.0252
X7.2047Y-3.1252
X7.2047Y-3.2252
X7.2047Y-3.3252
X7.2047Y-3.4252
T6
X6.7589Y-3.4217
X7.0994Y-3.4217
T7
X6.7589Y-3.2571
X7.0994Y-3.2571
T0
M30
