%TF.GenerationSoftware,KiCad,Pcbnew,(5.1.10-1-10_14)*%
%TF.CreationDate,2021-05-12T08:07:51+01:00*%
%TF.ProjectId,Shelly,5368656c-6c79-42e6-9b69-6361645f7063,4*%
%TF.SameCoordinates,Original*%
%TF.FileFunction,Legend,Top*%
%TF.FilePolarity,Positive*%
%FSLAX46Y46*%
G04 Gerber Fmt 4.6, Leading zero omitted, Abs format (unit mm)*
G04 Created by KiCad (PCBNEW (5.1.10-1-10_14)) date 2021-05-12 08:07:51*
%MOMM*%
%LPD*%
G01*
G04 APERTURE LIST*
%ADD10C,0.120000*%
%ADD11C,0.150000*%
%ADD12C,0.080000*%
G04 APERTURE END LIST*
D10*
%TO.C,J1*%
X183530000Y-54770000D02*
X183530000Y-56100000D01*
X182200000Y-54770000D02*
X183530000Y-54770000D01*
X180930000Y-54770000D02*
X180930000Y-57430000D01*
X180930000Y-57430000D02*
X170710000Y-57430000D01*
X180930000Y-54770000D02*
X170710000Y-54770000D01*
X170710000Y-54770000D02*
X170710000Y-57430000D01*
%TO.C,R6*%
X175490000Y-63859420D02*
X175490000Y-64140580D01*
X176510000Y-63859420D02*
X176510000Y-64140580D01*
%TO.C,R5*%
X181259420Y-74910000D02*
X181540580Y-74910000D01*
X181259420Y-73890000D02*
X181540580Y-73890000D01*
%TO.C,R4*%
X181259420Y-73510000D02*
X181540580Y-73510000D01*
X181259420Y-72490000D02*
X181540580Y-72490000D01*
%TO.C,R3*%
X170490000Y-77859420D02*
X170490000Y-78140580D01*
X171510000Y-77859420D02*
X171510000Y-78140580D01*
%TO.C,R2*%
X183810000Y-78240580D02*
X183810000Y-77959420D01*
X182790000Y-78240580D02*
X182790000Y-77959420D01*
%TO.C,R1*%
X182790000Y-80859420D02*
X182790000Y-81140580D01*
X183810000Y-80859420D02*
X183810000Y-81140580D01*
%TO.C,C1*%
X176640580Y-60390000D02*
X176359420Y-60390000D01*
X176640580Y-61410000D02*
X176359420Y-61410000D01*
%TO.C,D1*%
X171735000Y-82660000D02*
X171735000Y-80200000D01*
X170265000Y-82660000D02*
X171735000Y-82660000D01*
X170265000Y-80200000D02*
X170265000Y-82660000D01*
%TO.C,Reg1*%
X170050000Y-74150000D02*
X170050000Y-66150000D01*
X170050000Y-66150000D02*
X179050000Y-66150000D01*
X179050000Y-66150000D02*
X179050000Y-74150000D01*
X179050000Y-74150000D02*
X170050000Y-74150000D01*
%TO.C,J4*%
X172530000Y-83490000D02*
X181470000Y-83490000D01*
X181470000Y-76140000D02*
X181470000Y-83490000D01*
X172530000Y-76140000D02*
X181470000Y-76140000D01*
X172530000Y-83490000D02*
X172530000Y-76140000D01*
%TO.C,U1*%
X179215000Y-65610000D02*
X178490000Y-65610000D01*
X178490000Y-65610000D02*
X178490000Y-64885000D01*
X181985000Y-61390000D02*
X182710000Y-61390000D01*
X182710000Y-61390000D02*
X182710000Y-62115000D01*
X179215000Y-61390000D02*
X178490000Y-61390000D01*
X178490000Y-61390000D02*
X178490000Y-62115000D01*
X181985000Y-65610000D02*
X182710000Y-65610000D01*
%TO.C,J1*%
D11*
X183982380Y-56433333D02*
X184696666Y-56433333D01*
X184839523Y-56480952D01*
X184934761Y-56576190D01*
X184982380Y-56719047D01*
X184982380Y-56814285D01*
X184982380Y-55433333D02*
X184982380Y-56004761D01*
X184982380Y-55719047D02*
X183982380Y-55719047D01*
X184125238Y-55814285D01*
X184220476Y-55909523D01*
X184268095Y-56004761D01*
%TO.C,R6*%
D12*
X175916666Y-62626190D02*
X175750000Y-62388095D01*
X175630952Y-62626190D02*
X175630952Y-62126190D01*
X175821428Y-62126190D01*
X175869047Y-62150000D01*
X175892857Y-62173809D01*
X175916666Y-62221428D01*
X175916666Y-62292857D01*
X175892857Y-62340476D01*
X175869047Y-62364285D01*
X175821428Y-62388095D01*
X175630952Y-62388095D01*
X176345238Y-62126190D02*
X176250000Y-62126190D01*
X176202380Y-62150000D01*
X176178571Y-62173809D01*
X176130952Y-62245238D01*
X176107142Y-62340476D01*
X176107142Y-62530952D01*
X176130952Y-62578571D01*
X176154761Y-62602380D01*
X176202380Y-62626190D01*
X176297619Y-62626190D01*
X176345238Y-62602380D01*
X176369047Y-62578571D01*
X176392857Y-62530952D01*
X176392857Y-62411904D01*
X176369047Y-62364285D01*
X176345238Y-62340476D01*
X176297619Y-62316666D01*
X176202380Y-62316666D01*
X176154761Y-62340476D01*
X176130952Y-62364285D01*
X176107142Y-62411904D01*
%TO.C,R5*%
X180026190Y-74483333D02*
X179788095Y-74650000D01*
X180026190Y-74769047D02*
X179526190Y-74769047D01*
X179526190Y-74578571D01*
X179550000Y-74530952D01*
X179573809Y-74507142D01*
X179621428Y-74483333D01*
X179692857Y-74483333D01*
X179740476Y-74507142D01*
X179764285Y-74530952D01*
X179788095Y-74578571D01*
X179788095Y-74769047D01*
X179526190Y-74030952D02*
X179526190Y-74269047D01*
X179764285Y-74292857D01*
X179740476Y-74269047D01*
X179716666Y-74221428D01*
X179716666Y-74102380D01*
X179740476Y-74054761D01*
X179764285Y-74030952D01*
X179811904Y-74007142D01*
X179930952Y-74007142D01*
X179978571Y-74030952D01*
X180002380Y-74054761D01*
X180026190Y-74102380D01*
X180026190Y-74221428D01*
X180002380Y-74269047D01*
X179978571Y-74292857D01*
%TO.C,R4*%
X180026190Y-73083333D02*
X179788095Y-73250000D01*
X180026190Y-73369047D02*
X179526190Y-73369047D01*
X179526190Y-73178571D01*
X179550000Y-73130952D01*
X179573809Y-73107142D01*
X179621428Y-73083333D01*
X179692857Y-73083333D01*
X179740476Y-73107142D01*
X179764285Y-73130952D01*
X179788095Y-73178571D01*
X179788095Y-73369047D01*
X179692857Y-72654761D02*
X180026190Y-72654761D01*
X179502380Y-72773809D02*
X179859523Y-72892857D01*
X179859523Y-72583333D01*
%TO.C,R3*%
X170916666Y-76626190D02*
X170750000Y-76388095D01*
X170630952Y-76626190D02*
X170630952Y-76126190D01*
X170821428Y-76126190D01*
X170869047Y-76150000D01*
X170892857Y-76173809D01*
X170916666Y-76221428D01*
X170916666Y-76292857D01*
X170892857Y-76340476D01*
X170869047Y-76364285D01*
X170821428Y-76388095D01*
X170630952Y-76388095D01*
X171083333Y-76126190D02*
X171392857Y-76126190D01*
X171226190Y-76316666D01*
X171297619Y-76316666D01*
X171345238Y-76340476D01*
X171369047Y-76364285D01*
X171392857Y-76411904D01*
X171392857Y-76530952D01*
X171369047Y-76578571D01*
X171345238Y-76602380D01*
X171297619Y-76626190D01*
X171154761Y-76626190D01*
X171107142Y-76602380D01*
X171083333Y-76578571D01*
%TO.C,R2*%
X183216666Y-76426190D02*
X183050000Y-76188095D01*
X182930952Y-76426190D02*
X182930952Y-75926190D01*
X183121428Y-75926190D01*
X183169047Y-75950000D01*
X183192857Y-75973809D01*
X183216666Y-76021428D01*
X183216666Y-76092857D01*
X183192857Y-76140476D01*
X183169047Y-76164285D01*
X183121428Y-76188095D01*
X182930952Y-76188095D01*
X183407142Y-75973809D02*
X183430952Y-75950000D01*
X183478571Y-75926190D01*
X183597619Y-75926190D01*
X183645238Y-75950000D01*
X183669047Y-75973809D01*
X183692857Y-76021428D01*
X183692857Y-76069047D01*
X183669047Y-76140476D01*
X183383333Y-76426190D01*
X183692857Y-76426190D01*
%TO.C,R1*%
X183216666Y-82926190D02*
X183050000Y-82688095D01*
X182930952Y-82926190D02*
X182930952Y-82426190D01*
X183121428Y-82426190D01*
X183169047Y-82450000D01*
X183192857Y-82473809D01*
X183216666Y-82521428D01*
X183216666Y-82592857D01*
X183192857Y-82640476D01*
X183169047Y-82664285D01*
X183121428Y-82688095D01*
X182930952Y-82688095D01*
X183692857Y-82926190D02*
X183407142Y-82926190D01*
X183550000Y-82926190D02*
X183550000Y-82426190D01*
X183502380Y-82497619D01*
X183454761Y-82545238D01*
X183407142Y-82569047D01*
%TO.C,C1*%
X178278571Y-60983333D02*
X178302380Y-61007142D01*
X178326190Y-61078571D01*
X178326190Y-61126190D01*
X178302380Y-61197619D01*
X178254761Y-61245238D01*
X178207142Y-61269047D01*
X178111904Y-61292857D01*
X178040476Y-61292857D01*
X177945238Y-61269047D01*
X177897619Y-61245238D01*
X177850000Y-61197619D01*
X177826190Y-61126190D01*
X177826190Y-61078571D01*
X177850000Y-61007142D01*
X177873809Y-60983333D01*
X178326190Y-60507142D02*
X178326190Y-60792857D01*
X178326190Y-60650000D02*
X177826190Y-60650000D01*
X177897619Y-60697619D01*
X177945238Y-60745238D01*
X177969047Y-60792857D01*
%TO.C,D1*%
X172326190Y-79569047D02*
X171826190Y-79569047D01*
X171826190Y-79450000D01*
X171850000Y-79378571D01*
X171897619Y-79330952D01*
X171945238Y-79307142D01*
X172040476Y-79283333D01*
X172111904Y-79283333D01*
X172207142Y-79307142D01*
X172254761Y-79330952D01*
X172302380Y-79378571D01*
X172326190Y-79450000D01*
X172326190Y-79569047D01*
X172326190Y-78807142D02*
X172326190Y-79092857D01*
X172326190Y-78950000D02*
X171826190Y-78950000D01*
X171897619Y-78997619D01*
X171945238Y-79045238D01*
X171969047Y-79092857D01*
%TO.C,Reg1*%
D11*
X180252380Y-71347619D02*
X179776190Y-71680952D01*
X180252380Y-71919047D02*
X179252380Y-71919047D01*
X179252380Y-71538095D01*
X179300000Y-71442857D01*
X179347619Y-71395238D01*
X179442857Y-71347619D01*
X179585714Y-71347619D01*
X179680952Y-71395238D01*
X179728571Y-71442857D01*
X179776190Y-71538095D01*
X179776190Y-71919047D01*
X180204761Y-70538095D02*
X180252380Y-70633333D01*
X180252380Y-70823809D01*
X180204761Y-70919047D01*
X180109523Y-70966666D01*
X179728571Y-70966666D01*
X179633333Y-70919047D01*
X179585714Y-70823809D01*
X179585714Y-70633333D01*
X179633333Y-70538095D01*
X179728571Y-70490476D01*
X179823809Y-70490476D01*
X179919047Y-70966666D01*
X179585714Y-69633333D02*
X180395238Y-69633333D01*
X180490476Y-69680952D01*
X180538095Y-69728571D01*
X180585714Y-69823809D01*
X180585714Y-69966666D01*
X180538095Y-70061904D01*
X180204761Y-69633333D02*
X180252380Y-69728571D01*
X180252380Y-69919047D01*
X180204761Y-70014285D01*
X180157142Y-70061904D01*
X180061904Y-70109523D01*
X179776190Y-70109523D01*
X179680952Y-70061904D01*
X179633333Y-70014285D01*
X179585714Y-69919047D01*
X179585714Y-69728571D01*
X179633333Y-69633333D01*
X180252380Y-68633333D02*
X180252380Y-69204761D01*
X180252380Y-68919047D02*
X179252380Y-68919047D01*
X179395238Y-69014285D01*
X179490476Y-69109523D01*
X179538095Y-69204761D01*
%TO.C,U2*%
X172052380Y-59361904D02*
X172861904Y-59361904D01*
X172957142Y-59314285D01*
X173004761Y-59266666D01*
X173052380Y-59171428D01*
X173052380Y-58980952D01*
X173004761Y-58885714D01*
X172957142Y-58838095D01*
X172861904Y-58790476D01*
X172052380Y-58790476D01*
X172147619Y-58361904D02*
X172100000Y-58314285D01*
X172052380Y-58219047D01*
X172052380Y-57980952D01*
X172100000Y-57885714D01*
X172147619Y-57838095D01*
X172242857Y-57790476D01*
X172338095Y-57790476D01*
X172480952Y-57838095D01*
X173052380Y-58409523D01*
X173052380Y-57790476D01*
%TO.C,J4*%
X171966666Y-74452380D02*
X171966666Y-75166666D01*
X171919047Y-75309523D01*
X171823809Y-75404761D01*
X171680952Y-75452380D01*
X171585714Y-75452380D01*
X172871428Y-74785714D02*
X172871428Y-75452380D01*
X172633333Y-74404761D02*
X172395238Y-75119047D01*
X173014285Y-75119047D01*
%TO.C,U1*%
X179838095Y-66252380D02*
X179838095Y-67061904D01*
X179885714Y-67157142D01*
X179933333Y-67204761D01*
X180028571Y-67252380D01*
X180219047Y-67252380D01*
X180314285Y-67204761D01*
X180361904Y-67157142D01*
X180409523Y-67061904D01*
X180409523Y-66252380D01*
X181409523Y-67252380D02*
X180838095Y-67252380D01*
X181123809Y-67252380D02*
X181123809Y-66252380D01*
X181028571Y-66395238D01*
X180933333Y-66490476D01*
X180838095Y-66538095D01*
%TD*%
M02*
