%TF.GenerationSoftware,KiCad,Pcbnew,(6.0.2-0)*%
%TF.CreationDate,2022-02-18T14:11:45+00:00*%
%TF.ProjectId,Shelly,5368656c-6c79-42e6-9b69-6361645f7063,4*%
%TF.SameCoordinates,Original*%
%TF.FileFunction,Copper,L2,Bot*%
%TF.FilePolarity,Positive*%
%FSLAX46Y46*%
G04 Gerber Fmt 4.6, Leading zero omitted, Abs format (unit mm)*
G04 Created by KiCad (PCBNEW (6.0.2-0)) date 2022-02-18 14:11:45*
%MOMM*%
%LPD*%
G01*
G04 APERTURE LIST*
%ADD10C,0.100000*%
%TA.AperFunction,NonConductor*%
%ADD11C,0.100000*%
%TD*%
%TA.AperFunction,EtchedComponent*%
%ADD12C,0.080000*%
%TD*%
%TA.AperFunction,EtchedComponent*%
%ADD13C,0.250000*%
%TD*%
%TA.AperFunction,ComponentPad*%
%ADD14R,1.700000X1.700000*%
%TD*%
%TA.AperFunction,ComponentPad*%
%ADD15O,1.700000X1.700000*%
%TD*%
%TA.AperFunction,ComponentPad*%
%ADD16C,0.350000*%
%TD*%
%TA.AperFunction,ComponentPad*%
%ADD17C,0.600000*%
%TD*%
%TA.AperFunction,ComponentPad*%
%ADD18C,1.500000*%
%TD*%
%TA.AperFunction,ComponentPad*%
%ADD19C,1.250000*%
%TD*%
%TA.AperFunction,ComponentPad*%
%ADD20R,1.000000X1.000000*%
%TD*%
%TA.AperFunction,ComponentPad*%
%ADD21O,1.000000X1.000000*%
%TD*%
%TA.AperFunction,SMDPad,CuDef*%
%ADD22R,1.400000X0.200000*%
%TD*%
%TA.AperFunction,SMDPad,CuDef*%
%ADD23R,0.600000X0.200000*%
%TD*%
%TA.AperFunction,SMDPad,CuDef*%
%ADD24R,0.200000X1.200000*%
%TD*%
%TA.AperFunction,SMDPad,CuDef*%
%ADD25R,0.800000X0.200000*%
%TD*%
%TA.AperFunction,SMDPad,CuDef*%
%ADD26R,0.600000X0.600000*%
%TD*%
%TA.AperFunction,SMDPad,CuDef*%
%ADD27R,0.200000X0.600000*%
%TD*%
%TA.AperFunction,SMDPad,CuDef*%
%ADD28R,0.200000X0.200000*%
%TD*%
%TA.AperFunction,SMDPad,CuDef*%
%ADD29R,0.200000X0.400000*%
%TD*%
%TA.AperFunction,SMDPad,CuDef*%
%ADD30R,1.000000X0.200000*%
%TD*%
%TA.AperFunction,SMDPad,CuDef*%
%ADD31R,0.400000X0.600000*%
%TD*%
%TA.AperFunction,SMDPad,CuDef*%
%ADD32R,0.400000X0.200000*%
%TD*%
%TA.AperFunction,SMDPad,CuDef*%
%ADD33R,0.200000X0.800000*%
%TD*%
%TA.AperFunction,SMDPad,CuDef*%
%ADD34R,0.400000X0.400000*%
%TD*%
%TA.AperFunction,SMDPad,CuDef*%
%ADD35R,0.200000X1.000000*%
%TD*%
%TA.AperFunction,ViaPad*%
%ADD36C,0.800000*%
%TD*%
%TA.AperFunction,Conductor*%
%ADD37C,0.250000*%
%TD*%
G04 APERTURE END LIST*
D10*
%TO.C,Art2*%
D11*
X177828571Y-72773809D02*
X177804761Y-72750000D01*
X177757142Y-72726190D01*
X177638095Y-72726190D01*
X177590476Y-72750000D01*
X177566666Y-72773809D01*
X177542857Y-72821428D01*
X177542857Y-72869047D01*
X177566666Y-72940476D01*
X177852380Y-73226190D01*
X177542857Y-73226190D01*
X177233333Y-72726190D02*
X177185714Y-72726190D01*
X177138095Y-72750000D01*
X177114285Y-72773809D01*
X177090476Y-72821428D01*
X177066666Y-72916666D01*
X177066666Y-73035714D01*
X177090476Y-73130952D01*
X177114285Y-73178571D01*
X177138095Y-73202380D01*
X177185714Y-73226190D01*
X177233333Y-73226190D01*
X177280952Y-73202380D01*
X177304761Y-73178571D01*
X177328571Y-73130952D01*
X177352380Y-73035714D01*
X177352380Y-72916666D01*
X177328571Y-72821428D01*
X177304761Y-72773809D01*
X177280952Y-72750000D01*
X177233333Y-72726190D01*
X176876190Y-72773809D02*
X176852380Y-72750000D01*
X176804761Y-72726190D01*
X176685714Y-72726190D01*
X176638095Y-72750000D01*
X176614285Y-72773809D01*
X176590476Y-72821428D01*
X176590476Y-72869047D01*
X176614285Y-72940476D01*
X176900000Y-73226190D01*
X176590476Y-73226190D01*
X176400000Y-72773809D02*
X176376190Y-72750000D01*
X176328571Y-72726190D01*
X176209523Y-72726190D01*
X176161904Y-72750000D01*
X176138095Y-72773809D01*
X176114285Y-72821428D01*
X176114285Y-72869047D01*
X176138095Y-72940476D01*
X176423809Y-73226190D01*
X176114285Y-73226190D01*
X175900000Y-73035714D02*
X175519047Y-73035714D01*
X175185714Y-72726190D02*
X175138095Y-72726190D01*
X175090476Y-72750000D01*
X175066666Y-72773809D01*
X175042857Y-72821428D01*
X175019047Y-72916666D01*
X175019047Y-73035714D01*
X175042857Y-73130952D01*
X175066666Y-73178571D01*
X175090476Y-73202380D01*
X175138095Y-73226190D01*
X175185714Y-73226190D01*
X175233333Y-73202380D01*
X175257142Y-73178571D01*
X175280952Y-73130952D01*
X175304761Y-73035714D01*
X175304761Y-72916666D01*
X175280952Y-72821428D01*
X175257142Y-72773809D01*
X175233333Y-72750000D01*
X175185714Y-72726190D01*
X174828571Y-72773809D02*
X174804761Y-72750000D01*
X174757142Y-72726190D01*
X174638095Y-72726190D01*
X174590476Y-72750000D01*
X174566666Y-72773809D01*
X174542857Y-72821428D01*
X174542857Y-72869047D01*
X174566666Y-72940476D01*
X174852380Y-73226190D01*
X174542857Y-73226190D01*
X174328571Y-73035714D02*
X173947619Y-73035714D01*
X173447619Y-73226190D02*
X173733333Y-73226190D01*
X173590476Y-73226190D02*
X173590476Y-72726190D01*
X173638095Y-72797619D01*
X173685714Y-72845238D01*
X173733333Y-72869047D01*
X173161904Y-72940476D02*
X173209523Y-72916666D01*
X173233333Y-72892857D01*
X173257142Y-72845238D01*
X173257142Y-72821428D01*
X173233333Y-72773809D01*
X173209523Y-72750000D01*
X173161904Y-72726190D01*
X173066666Y-72726190D01*
X173019047Y-72750000D01*
X172995238Y-72773809D01*
X172971428Y-72821428D01*
X172971428Y-72845238D01*
X172995238Y-72892857D01*
X173019047Y-72916666D01*
X173066666Y-72940476D01*
X173161904Y-72940476D01*
X173209523Y-72964285D01*
X173233333Y-72988095D01*
X173257142Y-73035714D01*
X173257142Y-73130952D01*
X173233333Y-73178571D01*
X173209523Y-73202380D01*
X173161904Y-73226190D01*
X173066666Y-73226190D01*
X173019047Y-73202380D01*
X172995238Y-73178571D01*
X172971428Y-73130952D01*
X172971428Y-73035714D01*
X172995238Y-72988095D01*
X173019047Y-72964285D01*
X173066666Y-72940476D01*
D12*
%TO.C,Art1*%
X177450000Y-81235000D02*
X177350000Y-81235000D01*
D13*
X176600000Y-77025000D02*
X176600000Y-81225000D01*
D12*
X177450000Y-81075000D02*
X177450000Y-81375000D01*
D13*
X174800000Y-77125000D02*
X176600000Y-79125000D01*
X176600000Y-79125000D02*
X174800000Y-81225000D01*
D12*
X177350000Y-81235000D02*
X177250000Y-81375000D01*
D13*
X176600000Y-79125000D02*
X178100000Y-79125000D01*
X176600000Y-77025000D02*
X179600000Y-81225000D01*
D12*
X177450000Y-81075000D02*
X177350000Y-81075000D01*
X177350000Y-81075000D02*
G75*
G03*
X177350000Y-81235000I0J-80000D01*
G01*
D13*
X176600000Y-81225000D02*
G75*
G03*
X178100000Y-81225000I750000J0D01*
G01*
D12*
X177670000Y-81235000D02*
G75*
G03*
X177670000Y-81235000I-300000J0D01*
G01*
%TD*%
D14*
%TO.P,J1,1,Pin_1*%
%TO.N,GND*%
X182200000Y-56100000D03*
D15*
%TO.P,J1,2,Pin_2*%
%TO.N,GPIO0*%
X179660000Y-56100000D03*
%TO.P,J1,3,Pin_3*%
%TO.N,Net-(J1-Pad3)*%
X177120000Y-56100000D03*
%TO.P,J1,4,Pin_4*%
%TO.N,RXD*%
X174580000Y-56100000D03*
%TO.P,J1,5,Pin_5*%
%TO.N,TXD*%
X172040000Y-56100000D03*
%TD*%
D16*
%TO.P,U1,21,GND*%
%TO.N,GND*%
X180700000Y-62500000D03*
%TD*%
D17*
%TO.P,J3,S1,SHIELD*%
%TO.N,GND*%
X174110000Y-77110000D03*
X179890000Y-77110000D03*
D18*
X172680000Y-76620000D03*
X181320000Y-76620000D03*
D19*
X172680000Y-80790000D03*
X181320000Y-80790000D03*
%TD*%
D20*
%TO.P,J2,1,Pin_1*%
%TO.N,GND*%
X182600000Y-58600000D03*
D21*
%TO.P,J2,2,Pin_2*%
%TO.N,GPIO0*%
X181330000Y-58600000D03*
%TO.P,J2,3,Pin_3*%
%TO.N,Net-(J2-Pad3)*%
X180060000Y-58600000D03*
%TO.P,J2,4,Pin_4*%
%TO.N,+3V3*%
X178790000Y-58600000D03*
%TO.P,J2,5,Pin_5*%
%TO.N,RXD*%
X177520000Y-58600000D03*
%TO.P,J2,6,Pin_6*%
%TO.N,TXD*%
X176250000Y-58600000D03*
%TD*%
D22*
%TO.P,Art2,*%
%TO.N,*%
X176800000Y-71400000D03*
D23*
X175600000Y-71400000D03*
D22*
X174000000Y-71400000D03*
D24*
X177400000Y-70700000D03*
X176200000Y-70700000D03*
D25*
X175300000Y-71200000D03*
D24*
X174600000Y-70700000D03*
X173400000Y-70700000D03*
D26*
X176800000Y-70800000D03*
D27*
X175800000Y-70800000D03*
D28*
X175400000Y-71000000D03*
D29*
X175000000Y-70900000D03*
D26*
X174000000Y-70800000D03*
D29*
X175600000Y-70700000D03*
D28*
X175200000Y-70800000D03*
X175400000Y-70600000D03*
X175200000Y-70400000D03*
D30*
X176800000Y-70200000D03*
D28*
X175800000Y-70200000D03*
D24*
X175400000Y-69700000D03*
D28*
X175000000Y-70200000D03*
D30*
X174000000Y-70200000D03*
D28*
X175600000Y-70000000D03*
D25*
X177100000Y-69800000D03*
D28*
X176200000Y-69800000D03*
X175800000Y-69800000D03*
D23*
X175000000Y-69800000D03*
X174000000Y-69800000D03*
D29*
X173400000Y-69700000D03*
D23*
X177200000Y-69600000D03*
D31*
X176500000Y-69400000D03*
D32*
X175100000Y-69600000D03*
D28*
X177000000Y-69400000D03*
X176200000Y-69400000D03*
D33*
X175800000Y-69100000D03*
D23*
X174600000Y-69400000D03*
D32*
X173900000Y-69400000D03*
D29*
X177200000Y-69100000D03*
X176800000Y-69100000D03*
D34*
X175100000Y-69100000D03*
D23*
X174200000Y-69200000D03*
D28*
X177400000Y-69000000D03*
D23*
X176200000Y-69000000D03*
D28*
X174600000Y-69000000D03*
D29*
X174200000Y-68900000D03*
D28*
X175400000Y-68800000D03*
X174800000Y-68800000D03*
D35*
X174400000Y-68400000D03*
D27*
X173600000Y-68600000D03*
D22*
X176800000Y-68600000D03*
D28*
X175600000Y-68600000D03*
D27*
X175200000Y-68400000D03*
D28*
X174600000Y-68600000D03*
D33*
X174000000Y-68300000D03*
D29*
X173400000Y-68500000D03*
D24*
X177400000Y-67900000D03*
X176200000Y-67900000D03*
D33*
X175400000Y-68100000D03*
D32*
X174900000Y-68400000D03*
D28*
X173800000Y-68400000D03*
D26*
X176800000Y-68000000D03*
D29*
X175000000Y-68100000D03*
D27*
X174600000Y-68000000D03*
D32*
X175700000Y-68000000D03*
D29*
X174200000Y-67900000D03*
D28*
X173600000Y-68000000D03*
D27*
X175800000Y-67600000D03*
D28*
X174800000Y-67800000D03*
D34*
X175100000Y-67500000D03*
D29*
X174400000Y-67500000D03*
X174000000Y-67500000D03*
D30*
X176800000Y-67400000D03*
D28*
X175600000Y-67400000D03*
X174600000Y-67400000D03*
D32*
X173700000Y-67400000D03*
%TD*%
D36*
%TO.N,GND*%
X173710000Y-74310000D03*
X181325498Y-66950000D03*
X172990000Y-59440000D03*
X179633200Y-72289455D03*
X170650000Y-57200000D03*
X178400000Y-56900000D03*
X183300000Y-75600000D03*
X174051697Y-64577929D03*
X175192248Y-58230015D03*
X174950000Y-63100000D03*
X179600000Y-69524500D03*
%TO.N,VBUS*%
X172384900Y-74565696D03*
X172800000Y-64100001D03*
%TO.N,RXD*%
X177264422Y-63826967D03*
%TO.N,+3V3*%
X170603326Y-59330529D03*
X170449980Y-63340020D03*
X170400000Y-75850000D03*
%TO.N,GPIO0*%
X180687701Y-65337701D03*
%TO.N,RST*%
X181375498Y-69800000D03*
X174100000Y-62200000D03*
%TO.N,D-*%
X182850002Y-72000000D03*
X178950592Y-60474008D03*
%TO.N,D+*%
X182775500Y-60184188D03*
X183250000Y-74000000D03*
%TO.N,Net-(C1-Pad1)*%
X176067108Y-62308294D03*
X182602434Y-64224500D03*
%TO.N,Net-(D3-Pad1)*%
X178787724Y-64200000D03*
X172650500Y-82014335D03*
%TO.N,Net-(J3-PadA6)*%
X176757146Y-74724500D03*
X181222137Y-74420989D03*
%TO.N,Net-(J3-PadA5)*%
X182000000Y-79200000D03*
X175000000Y-74200000D03*
%TD*%
D37*
%TO.N,Net-(J3-PadA5)*%
X182000000Y-79200000D02*
X181700000Y-79200000D01*
X179000000Y-76500000D02*
G75*
G03*
X181700000Y-79200000I2700001J1D01*
G01*
X175000000Y-74200000D02*
X175000000Y-74300000D01*
X176200000Y-75500000D02*
G75*
G02*
X175000000Y-74300000I0J1200000D01*
G01*
X176200000Y-75500000D02*
X178000000Y-75500000D01*
X179000000Y-76500000D02*
G75*
G03*
X178000000Y-75500000I-999999J1D01*
G01*
%TO.N,Net-(C1-Pad1)*%
X180930000Y-66120000D02*
X182602434Y-64447566D01*
X182602434Y-64447566D02*
X182602434Y-64224500D01*
%TO.N,GND*%
X175573768Y-66100000D02*
X178075736Y-66100000D01*
X174051697Y-64577929D02*
X175573768Y-66100000D01*
X179597746Y-67977261D02*
G75*
G03*
X178947200Y-66547202I-2243130J-157419D01*
G01*
X179597747Y-67977261D02*
X179597747Y-69522247D01*
X179597747Y-69522247D02*
X179600000Y-69524500D01*
X178800000Y-66400000D02*
G75*
G03*
X178075736Y-66100000I-724268J-724274D01*
G01*
X178800000Y-66400000D02*
X178947201Y-66547201D01*
%TO.N,Net-(C1-Pad1)*%
X176644919Y-65000978D02*
X178203833Y-65000978D01*
X175959836Y-64315895D02*
X175961403Y-64392909D01*
X179633599Y-65536541D02*
X179735355Y-65635355D01*
X175959352Y-62394132D02*
X175959836Y-62415566D01*
X175995678Y-64543074D02*
X176062507Y-64681848D01*
X176006069Y-62324215D02*
X175975757Y-62354527D01*
X175975757Y-62354527D02*
X175959352Y-62394132D01*
X175959836Y-62415566D02*
X175959836Y-64315895D01*
X175961403Y-64392909D02*
X175995678Y-64543074D01*
X176158542Y-64802272D02*
X176278966Y-64898307D01*
X176062507Y-64681848D02*
X176158542Y-64802272D01*
X176045674Y-62307810D02*
X176006069Y-62324215D01*
X176278966Y-64898307D02*
X176417740Y-64965136D01*
X176067108Y-62308294D02*
X176045674Y-62307810D01*
X176417740Y-64965136D02*
X176567905Y-64999411D01*
X176567905Y-64999411D02*
X176644919Y-65000978D01*
X180220000Y-66120000D02*
X180930000Y-66120000D01*
X178203833Y-65000978D02*
X178345657Y-65003058D01*
X179162919Y-65222042D02*
X179408566Y-65363867D01*
X178626879Y-65040082D02*
X178900862Y-65113495D01*
X178900862Y-65113495D02*
X179162919Y-65222042D01*
X179408566Y-65363867D02*
X179633599Y-65536541D01*
X178345657Y-65003058D02*
X178626879Y-65040082D01*
X179735355Y-65635355D02*
X180220000Y-66120000D01*
%TO.N,RST*%
X180199999Y-68052081D02*
G75*
G03*
X179350000Y-66000000I-2902083J-1D01*
G01*
X180200000Y-68052081D02*
X180200000Y-68750000D01*
X181375498Y-69800000D02*
G75*
G02*
X181161259Y-69711259I1J302980D01*
G01*
X180200000Y-68750000D02*
X181161259Y-69711259D01*
X174676204Y-64173796D02*
G75*
G02*
X174100000Y-62782717I1391086J1391082D01*
G01*
X176600000Y-65499999D02*
G75*
G02*
X175579847Y-65077437I4J1442724D01*
G01*
X179350000Y-66000000D02*
G75*
G03*
X178142894Y-65500000I-1207107J-1207108D01*
G01*
X174100000Y-62200000D02*
X174100000Y-62782717D01*
X176600000Y-65500000D02*
X178142894Y-65500000D01*
X174676204Y-64173796D02*
X175579846Y-65077438D01*
%TO.N,GPIO0*%
X180505489Y-59424511D02*
G75*
G03*
X181330000Y-58600000I-1J824512D01*
G01*
X178730330Y-62980330D02*
G75*
G02*
X178200000Y-61700000I1280325J1280328D01*
G01*
X180700000Y-64600000D02*
G75*
G03*
X180100000Y-64000000I-600000J0D01*
G01*
X178200000Y-60200000D02*
G75*
G02*
X178975489Y-59424511I775487J2D01*
G01*
X180100000Y-63999999D02*
G75*
G02*
X179502513Y-63752511I0J844974D01*
G01*
X180505489Y-59424511D02*
X178975489Y-59424511D01*
X178200000Y-60200000D02*
X178200000Y-61700000D01*
X178730330Y-62980330D02*
X179502512Y-63752512D01*
X180700000Y-64600000D02*
X180700000Y-65500000D01*
%TO.N,Net-(D3-Pad1)*%
X178787724Y-64200000D02*
X178341421Y-64200000D01*
X178100000Y-64300000D02*
G75*
G02*
X178341421Y-64200000I241421J-241419D01*
G01*
X177048533Y-64551467D02*
X177551467Y-64551467D01*
X178100000Y-64300000D02*
X178058590Y-64341410D01*
X177551467Y-64551467D02*
G75*
G03*
X178058590Y-64341410I0J717180D01*
G01*
%TO.N,GND*%
X172510000Y-59440000D02*
X172990000Y-59440000D01*
X170900000Y-74346447D02*
X170900000Y-64565685D01*
X170750000Y-78850000D02*
X170750000Y-76850000D01*
X171150000Y-76100000D02*
X171150000Y-74950000D01*
X170750000Y-76850000D02*
X170902513Y-76697488D01*
X175192248Y-58407752D02*
X175192248Y-58230015D01*
X172672929Y-80772929D02*
X171500000Y-79600000D01*
X173530000Y-58900000D02*
X174700000Y-58900000D01*
X182114214Y-59085787D02*
X182600000Y-58600000D01*
X171400000Y-63358579D02*
X171400000Y-60550000D01*
X182600000Y-58600000D02*
X182600000Y-57065685D01*
X172990000Y-59440000D02*
X173530000Y-58900000D01*
X174700000Y-58900000D02*
X175192248Y-58407752D01*
X171400000Y-63358579D02*
G75*
G02*
X171300000Y-63600000I-341419J0D01*
G01*
X172672929Y-80772929D02*
G75*
G02*
X172680000Y-80790000I-17078J-17074D01*
G01*
X182200000Y-56100000D02*
G75*
G02*
X182600000Y-57065685I-965689J-965687D01*
G01*
X170900000Y-74346447D02*
G75*
G02*
X171150000Y-74950000I-603552J-603553D01*
G01*
X172510000Y-59440000D02*
G75*
G03*
X171400000Y-60550000I-2J-1109998D01*
G01*
X171300000Y-63600000D02*
G75*
G03*
X170900000Y-64565685I965689J-965687D01*
G01*
X170750000Y-78850000D02*
G75*
G03*
X171500000Y-79600000I750000J0D01*
G01*
X171149999Y-76100000D02*
G75*
G02*
X170902512Y-76697487I-844979J1D01*
G01*
X182114214Y-59085787D02*
G75*
G03*
X180700000Y-62500000I3414207J-3414212D01*
G01*
%TO.N,VBUS*%
X172384900Y-74565696D02*
X172265696Y-74565696D01*
X172663111Y-64236891D02*
X172800000Y-64100001D01*
X172055000Y-65705000D02*
X172055000Y-74235796D01*
X172384900Y-74565696D02*
G75*
G02*
X172055000Y-74235796I-2J329898D01*
G01*
X172100000Y-74400000D02*
G75*
G03*
X172265696Y-74565696I165695J-1D01*
G01*
X172663111Y-64236891D02*
G75*
G03*
X172055000Y-65705000I1468109J-1468109D01*
G01*
%TO.N,RXD*%
X175331127Y-56411127D02*
X177520000Y-58600000D01*
X177520000Y-63571389D02*
X177264422Y-63826967D01*
X177520000Y-58600000D02*
X177520000Y-63571389D01*
X175331127Y-56411127D02*
G75*
G03*
X174580000Y-56100000I-751126J-751124D01*
G01*
%TO.N,+3V3*%
X170449980Y-63340020D02*
X170250490Y-63539510D01*
X170250490Y-63539510D02*
X170250490Y-75700490D01*
X170449980Y-63340020D02*
X170449980Y-59483875D01*
X170449980Y-59483875D02*
X170603326Y-59330529D01*
X170400000Y-75850000D02*
G75*
G02*
X170250490Y-75700490I-2J149508D01*
G01*
%TO.N,GPIO0*%
X181330000Y-58600000D02*
X181330000Y-58547817D01*
X179660000Y-56100000D02*
X180780000Y-57220000D01*
X180780000Y-57220000D02*
G75*
G02*
X181330000Y-58547817I-1327814J-1327816D01*
G01*
%TO.N,TXD*%
X172040000Y-56100000D02*
X172559900Y-56619900D01*
X175812300Y-57787700D02*
X175985118Y-57960518D01*
X174625499Y-57475499D02*
X175058581Y-57475499D01*
X176249999Y-58600000D02*
G75*
G03*
X175985117Y-57960519I-904369J-2D01*
G01*
X174625499Y-57475499D02*
G75*
G02*
X172559900Y-56619900I1J2921200D01*
G01*
X175812300Y-57787700D02*
G75*
G03*
X175058581Y-57475499I-753723J-753728D01*
G01*
%TO.N,D-*%
X178950592Y-61900592D02*
X178950592Y-60474008D01*
X183326935Y-71523067D02*
X183326935Y-63976935D01*
X182850000Y-63500000D02*
X180550000Y-63500000D01*
X183326935Y-71523067D02*
G75*
G02*
X182850002Y-72000000I-476931J-2D01*
G01*
X178950592Y-61900592D02*
G75*
G03*
X180550000Y-63500000I1599409J1D01*
G01*
X182850000Y-63500000D02*
G75*
G02*
X183326935Y-63976935I0J-476935D01*
G01*
%TO.N,D+*%
X183800000Y-61208688D02*
X183800000Y-73650000D01*
X183250000Y-74000000D02*
X183450000Y-74000000D01*
X183800000Y-73650000D02*
G75*
G02*
X183450000Y-74000000I-350001J1D01*
G01*
X183800000Y-61208688D02*
G75*
G03*
X182775500Y-60184188I-1024500J0D01*
G01*
%TO.N,Net-(D3-Pad1)*%
X172075499Y-63905598D02*
X172075499Y-61514501D01*
X176900000Y-61400000D02*
X176900000Y-62200000D01*
X176687868Y-62712132D02*
X176625000Y-62775000D01*
X173629511Y-81570489D02*
X173629511Y-80079511D01*
X171605489Y-78055489D02*
X171605489Y-65040301D01*
X176471651Y-63145217D02*
X176471651Y-63974585D01*
X172930000Y-60660000D02*
X176160000Y-60660000D01*
X172650500Y-82014335D02*
X173185665Y-82014335D01*
X172930000Y-60660000D02*
G75*
G03*
X172075499Y-61514501I2J-854503D01*
G01*
X176687868Y-62712132D02*
G75*
G03*
X176900000Y-62200000I-512128J512130D01*
G01*
X176900000Y-61400000D02*
G75*
G03*
X176160000Y-60660000I-740000J0D01*
G01*
X173629511Y-81570489D02*
G75*
G02*
X173185665Y-82014335I-443844J-2D01*
G01*
X172075498Y-63905598D02*
G75*
G02*
X171849999Y-64449999I-769897J-1D01*
G01*
X176471651Y-63145217D02*
G75*
G02*
X176625000Y-62775000I523565J0D01*
G01*
X171850000Y-64450000D02*
G75*
G03*
X171605489Y-65040301I590299J-590301D01*
G01*
X171605489Y-78055489D02*
G75*
G03*
X172450000Y-78900000I844513J2D01*
G01*
X177048533Y-64551467D02*
G75*
G02*
X176471651Y-63974585I1J576883D01*
G01*
X172450000Y-78900000D02*
G75*
G02*
X173629511Y-80079511I-1J-1179512D01*
G01*
%TO.N,Net-(J3-PadA6)*%
X176831646Y-74650000D02*
X181029306Y-74650000D01*
X181185427Y-74457699D02*
X181222137Y-74420989D01*
X181185427Y-74570007D02*
X181185427Y-74457699D01*
X176757146Y-74724500D02*
X176831646Y-74650000D01*
X181193390Y-74541918D02*
X181193390Y-74449736D01*
X181193390Y-74541918D02*
G75*
G02*
X181079306Y-74599999I-117421J89555D01*
G01*
X181185427Y-74570007D02*
G75*
G02*
X181029306Y-74649999I-160059J120039D01*
G01*
%TD*%
%TA.AperFunction,Conductor*%
%TO.N,GND*%
G36*
X171163146Y-76092341D02*
G01*
X171212065Y-76143794D01*
X171225989Y-76201370D01*
X171225989Y-78015702D01*
X171224438Y-78035411D01*
X171221258Y-78055490D01*
X171222809Y-78065284D01*
X171222809Y-78066240D01*
X171223524Y-78072284D01*
X171236931Y-78242612D01*
X171236932Y-78242620D01*
X171237321Y-78247559D01*
X171282297Y-78434899D01*
X171284190Y-78439470D01*
X171284191Y-78439472D01*
X171345730Y-78588039D01*
X171356026Y-78612897D01*
X171456693Y-78777169D01*
X171581818Y-78923671D01*
X171728320Y-79048796D01*
X171892592Y-79149463D01*
X171897162Y-79151356D01*
X171897164Y-79151357D01*
X172051124Y-79215129D01*
X172070590Y-79223192D01*
X172257930Y-79268168D01*
X172262869Y-79268557D01*
X172262877Y-79268558D01*
X172433205Y-79281965D01*
X172443019Y-79283126D01*
X172444789Y-79283406D01*
X172449999Y-79284231D01*
X172450000Y-79284231D01*
X172454891Y-79283456D01*
X172459827Y-79283068D01*
X172459871Y-79283625D01*
X172484510Y-79282899D01*
X172593722Y-79293655D01*
X172617946Y-79298474D01*
X172744278Y-79336797D01*
X172767098Y-79346249D01*
X172883517Y-79408476D01*
X172904052Y-79422197D01*
X172928695Y-79442420D01*
X172968666Y-79501096D01*
X172970568Y-79572067D01*
X172933798Y-79632800D01*
X172870031Y-79664013D01*
X172824185Y-79663400D01*
X172804611Y-79659507D01*
X172793159Y-79658303D01*
X172596507Y-79655730D01*
X172585027Y-79656633D01*
X172391199Y-79689938D01*
X172380079Y-79692918D01*
X172195557Y-79760992D01*
X172185179Y-79765942D01*
X172094146Y-79820101D01*
X172084547Y-79830436D01*
X172088033Y-79838823D01*
X172950115Y-80700905D01*
X172984141Y-80763217D01*
X172979076Y-80834032D01*
X172950115Y-80879095D01*
X172457902Y-81371308D01*
X172420228Y-81395495D01*
X172420684Y-81396378D01*
X172279914Y-81469035D01*
X172160539Y-81573173D01*
X172069450Y-81702779D01*
X172011906Y-81850372D01*
X172010914Y-81857905D01*
X172010914Y-81857906D01*
X171995501Y-81974983D01*
X171991229Y-82007431D01*
X171999921Y-82086159D01*
X172007577Y-82155500D01*
X172008613Y-82164888D01*
X172011223Y-82172019D01*
X172011223Y-82172021D01*
X172054385Y-82289966D01*
X172063053Y-82313654D01*
X172067289Y-82319957D01*
X172067289Y-82319958D01*
X172120112Y-82398566D01*
X172151408Y-82445140D01*
X172157027Y-82450253D01*
X172157028Y-82450254D01*
X172241158Y-82526806D01*
X172278081Y-82587447D01*
X172276358Y-82658422D01*
X172236536Y-82717199D01*
X172171258Y-82745116D01*
X172156359Y-82746000D01*
X171037425Y-82746000D01*
X171012847Y-82743579D01*
X171000000Y-82741024D01*
X170987828Y-82743445D01*
X170980246Y-82743445D01*
X170967896Y-82742838D01*
X170866812Y-82732882D01*
X170842592Y-82728065D01*
X170726383Y-82692813D01*
X170703582Y-82683369D01*
X170596483Y-82626124D01*
X170575953Y-82612406D01*
X170482091Y-82535374D01*
X170464626Y-82517909D01*
X170387594Y-82424047D01*
X170373876Y-82403517D01*
X170316631Y-82296418D01*
X170307187Y-82273617D01*
X170271935Y-82157408D01*
X170267118Y-82133188D01*
X170257162Y-82032104D01*
X170256555Y-82019754D01*
X170256555Y-82012172D01*
X170258976Y-82000000D01*
X170256421Y-81987153D01*
X170254000Y-81962575D01*
X170254000Y-80765980D01*
X171542914Y-80765980D01*
X171555777Y-80962233D01*
X171557577Y-80973601D01*
X171605991Y-81164228D01*
X171609829Y-81175066D01*
X171692173Y-81353685D01*
X171697922Y-81363642D01*
X171707850Y-81377690D01*
X171718439Y-81386078D01*
X171731740Y-81379050D01*
X172307978Y-80802812D01*
X172315592Y-80788868D01*
X172315461Y-80787035D01*
X172311210Y-80780420D01*
X171730031Y-80199241D01*
X171717651Y-80192481D01*
X171711685Y-80196947D01*
X171631452Y-80349445D01*
X171627047Y-80360079D01*
X171568724Y-80547910D01*
X171566332Y-80559164D01*
X171543215Y-80754479D01*
X171542914Y-80765980D01*
X170254000Y-80765980D01*
X170254000Y-76630313D01*
X170274002Y-76562192D01*
X170327658Y-76515699D01*
X170381978Y-76504329D01*
X170427178Y-76505039D01*
X170461319Y-76505576D01*
X170461322Y-76505576D01*
X170468916Y-76505695D01*
X170623332Y-76470329D01*
X170693742Y-76434917D01*
X170758072Y-76402563D01*
X170758075Y-76402561D01*
X170764855Y-76399151D01*
X170770626Y-76394222D01*
X170770629Y-76394220D01*
X170879536Y-76301204D01*
X170879536Y-76301203D01*
X170885314Y-76296269D01*
X170977755Y-76167624D01*
X170983082Y-76154373D01*
X171027049Y-76098629D01*
X171094174Y-76075504D01*
X171163146Y-76092341D01*
G37*
%TD.AperFunction*%
%TA.AperFunction,Conductor*%
G36*
X176139923Y-61041051D02*
G01*
X176150206Y-61042680D01*
X176150207Y-61042680D01*
X176160000Y-61044231D01*
X176169795Y-61042679D01*
X176175887Y-61042679D01*
X176192334Y-61043757D01*
X176232922Y-61049101D01*
X176236860Y-61049619D01*
X176268630Y-61058132D01*
X176324924Y-61081450D01*
X176353409Y-61097896D01*
X176401751Y-61134990D01*
X176425010Y-61158249D01*
X176462104Y-61206591D01*
X176478550Y-61235076D01*
X176501868Y-61291370D01*
X176510381Y-61323140D01*
X176516243Y-61367660D01*
X176517321Y-61384113D01*
X176517321Y-61390205D01*
X176515769Y-61400000D01*
X176517320Y-61409793D01*
X176517320Y-61409794D01*
X176518949Y-61420077D01*
X176520500Y-61439788D01*
X176520500Y-61598451D01*
X176500498Y-61666572D01*
X176446842Y-61713065D01*
X176376568Y-61723169D01*
X176335542Y-61709806D01*
X176310094Y-61696332D01*
X176310095Y-61696332D01*
X176303382Y-61692778D01*
X176149741Y-61654186D01*
X176142142Y-61654146D01*
X176142141Y-61654146D01*
X176076289Y-61653801D01*
X175991329Y-61653356D01*
X175983949Y-61655128D01*
X175983947Y-61655128D01*
X175844671Y-61688565D01*
X175844668Y-61688566D01*
X175837292Y-61690337D01*
X175696522Y-61762994D01*
X175577147Y-61867132D01*
X175486058Y-61996738D01*
X175428514Y-62144331D01*
X175427522Y-62151864D01*
X175427522Y-62151865D01*
X175410974Y-62277564D01*
X175407837Y-62301390D01*
X175425221Y-62458847D01*
X175479661Y-62607613D01*
X175483897Y-62613916D01*
X175483897Y-62613917D01*
X175558918Y-62725560D01*
X175580336Y-62795836D01*
X175580336Y-64237044D01*
X175560334Y-64305165D01*
X175506678Y-64351658D01*
X175436404Y-64361762D01*
X175371824Y-64332268D01*
X175365241Y-64326139D01*
X174972689Y-63933587D01*
X174959847Y-63918552D01*
X174953723Y-63910123D01*
X174947897Y-63902104D01*
X174939878Y-63896278D01*
X174935419Y-63891819D01*
X174921309Y-63878946D01*
X174813057Y-63755508D01*
X174803024Y-63742433D01*
X174696813Y-63583477D01*
X174688572Y-63569204D01*
X174604014Y-63397738D01*
X174597707Y-63382510D01*
X174536259Y-63201488D01*
X174531993Y-63185569D01*
X174494695Y-62998061D01*
X174492544Y-62981720D01*
X174481806Y-62817892D01*
X174482680Y-62798810D01*
X174482680Y-62792509D01*
X174482850Y-62791435D01*
X174483049Y-62790758D01*
X174483086Y-62789946D01*
X174484230Y-62782721D01*
X174485356Y-62782899D01*
X174502682Y-62723893D01*
X174526849Y-62696203D01*
X174579536Y-62651204D01*
X174585314Y-62646269D01*
X174677755Y-62517624D01*
X174736842Y-62370641D01*
X174750088Y-62277564D01*
X174758581Y-62217891D01*
X174758581Y-62217888D01*
X174759162Y-62213807D01*
X174759307Y-62200000D01*
X174740276Y-62042733D01*
X174684280Y-61894546D01*
X174594553Y-61763992D01*
X174476275Y-61658611D01*
X174468889Y-61654700D01*
X174342988Y-61588039D01*
X174342989Y-61588039D01*
X174336274Y-61584484D01*
X174182633Y-61545892D01*
X174175034Y-61545852D01*
X174175033Y-61545852D01*
X174109181Y-61545507D01*
X174024221Y-61545062D01*
X174016841Y-61546834D01*
X174016839Y-61546834D01*
X173877563Y-61580271D01*
X173877560Y-61580272D01*
X173870184Y-61582043D01*
X173729414Y-61654700D01*
X173610039Y-61758838D01*
X173518950Y-61888444D01*
X173516190Y-61895524D01*
X173473968Y-62003818D01*
X173461406Y-62036037D01*
X173440729Y-62193096D01*
X173448990Y-62267923D01*
X173453519Y-62308940D01*
X173458113Y-62350553D01*
X173460723Y-62357684D01*
X173460723Y-62357686D01*
X173500353Y-62465980D01*
X173512553Y-62499319D01*
X173516789Y-62505622D01*
X173516789Y-62505623D01*
X173585324Y-62607613D01*
X173600908Y-62630805D01*
X173623951Y-62651772D01*
X173676120Y-62699242D01*
X173713043Y-62759882D01*
X173715919Y-62781769D01*
X173715769Y-62782718D01*
X173717321Y-62792514D01*
X173717321Y-62795390D01*
X173717727Y-62799184D01*
X173717989Y-62803843D01*
X173731582Y-63045888D01*
X173775734Y-63305748D01*
X173822720Y-63468839D01*
X173847559Y-63555056D01*
X173848704Y-63559032D01*
X173850058Y-63562300D01*
X173850058Y-63562301D01*
X173944881Y-63791224D01*
X173949573Y-63802552D01*
X173951283Y-63805647D01*
X173951284Y-63805648D01*
X173984534Y-63865810D01*
X174077074Y-64033248D01*
X174079114Y-64036123D01*
X174188480Y-64190259D01*
X174229603Y-64248217D01*
X174231962Y-64250857D01*
X174231963Y-64250858D01*
X174394253Y-64432462D01*
X174396653Y-64435437D01*
X174398683Y-64437467D01*
X174404511Y-64445488D01*
X174412530Y-64451314D01*
X174412533Y-64451317D01*
X174420960Y-64457439D01*
X174435994Y-64470280D01*
X175283362Y-65317648D01*
X175296203Y-65332682D01*
X175302325Y-65341109D01*
X175302328Y-65341112D01*
X175308154Y-65349131D01*
X175315403Y-65354398D01*
X175317118Y-65355902D01*
X175318140Y-65356924D01*
X175319747Y-65358208D01*
X175446721Y-65469560D01*
X175488326Y-65506046D01*
X175686938Y-65638754D01*
X175690637Y-65640578D01*
X175690642Y-65640581D01*
X175881842Y-65734870D01*
X175901173Y-65744403D01*
X175905071Y-65745726D01*
X175905073Y-65745727D01*
X176123454Y-65819858D01*
X176123458Y-65819859D01*
X176127364Y-65821185D01*
X176131408Y-65821989D01*
X176131414Y-65821991D01*
X176357599Y-65866982D01*
X176357602Y-65866982D01*
X176361642Y-65867786D01*
X176365753Y-65868055D01*
X176365757Y-65868056D01*
X176434622Y-65872570D01*
X176535223Y-65879164D01*
X176536383Y-65879252D01*
X176536714Y-65879266D01*
X176537705Y-65879352D01*
X176537708Y-65879353D01*
X176537761Y-65879357D01*
X176539416Y-65879500D01*
X176539423Y-65879500D01*
X176539446Y-65879502D01*
X176539409Y-65879933D01*
X176540309Y-65880240D01*
X176540357Y-65879500D01*
X176546537Y-65879905D01*
X176585387Y-65882452D01*
X176587429Y-65882680D01*
X176588872Y-65882680D01*
X176591145Y-65882829D01*
X176599999Y-65884231D01*
X176620077Y-65881051D01*
X176639787Y-65879500D01*
X178103106Y-65879500D01*
X178122816Y-65881051D01*
X178142894Y-65884231D01*
X178152687Y-65882680D01*
X178158988Y-65882680D01*
X178178070Y-65881806D01*
X178307939Y-65890318D01*
X178324279Y-65892469D01*
X178401343Y-65907798D01*
X178478409Y-65923127D01*
X178494319Y-65927390D01*
X178643123Y-65977902D01*
X178658350Y-65984209D01*
X178799293Y-66053715D01*
X178813566Y-66061956D01*
X178944224Y-66149259D01*
X178957299Y-66159292D01*
X179055151Y-66245105D01*
X179068020Y-66259211D01*
X179072482Y-66263673D01*
X179078308Y-66271692D01*
X179086328Y-66277519D01*
X179087925Y-66279116D01*
X179105348Y-66294864D01*
X179265434Y-66474001D01*
X179274243Y-66485047D01*
X179429755Y-66704219D01*
X179437273Y-66716184D01*
X179567262Y-66951382D01*
X179573391Y-66964108D01*
X179676234Y-67212393D01*
X179680900Y-67225728D01*
X179733444Y-67408110D01*
X179755293Y-67483950D01*
X179758438Y-67497727D01*
X179803452Y-67762666D01*
X179805034Y-67776706D01*
X179818505Y-68016573D01*
X179817320Y-68040009D01*
X179817320Y-68042289D01*
X179815769Y-68052081D01*
X179817320Y-68061873D01*
X179818949Y-68072158D01*
X179820500Y-68091869D01*
X179820500Y-68696080D01*
X179817951Y-68720028D01*
X179817872Y-68721693D01*
X179815680Y-68731876D01*
X179816904Y-68742217D01*
X179819627Y-68765223D01*
X179819977Y-68771154D01*
X179820072Y-68771146D01*
X179820500Y-68776324D01*
X179820500Y-68781524D01*
X179821354Y-68786653D01*
X179821354Y-68786656D01*
X179823669Y-68800565D01*
X179824506Y-68806443D01*
X179830530Y-68857341D01*
X179834493Y-68865593D01*
X179835996Y-68874626D01*
X179840943Y-68883795D01*
X179840944Y-68883797D01*
X179860334Y-68919732D01*
X179863031Y-68925025D01*
X179881785Y-68964082D01*
X179881788Y-68964086D01*
X179885219Y-68971232D01*
X179888814Y-68975508D01*
X179890737Y-68977431D01*
X179892509Y-68979363D01*
X179892552Y-68979442D01*
X179892428Y-68979555D01*
X179892904Y-68980095D01*
X179895990Y-68985814D01*
X179903635Y-68992881D01*
X179935586Y-69022416D01*
X179939152Y-69025846D01*
X180686158Y-69772852D01*
X180720184Y-69835164D01*
X180722301Y-69848114D01*
X180733611Y-69950553D01*
X180788051Y-70099319D01*
X180876406Y-70230805D01*
X180882025Y-70235918D01*
X180882026Y-70235919D01*
X180893401Y-70246269D01*
X180993574Y-70337419D01*
X181132791Y-70413008D01*
X181286020Y-70453207D01*
X181369975Y-70454526D01*
X181436817Y-70455576D01*
X181436820Y-70455576D01*
X181444414Y-70455695D01*
X181598830Y-70420329D01*
X181669240Y-70384917D01*
X181733570Y-70352563D01*
X181733573Y-70352561D01*
X181740353Y-70349151D01*
X181746124Y-70344222D01*
X181746127Y-70344220D01*
X181855034Y-70251204D01*
X181855034Y-70251203D01*
X181860812Y-70246269D01*
X181953253Y-70117624D01*
X182012340Y-69970641D01*
X182034660Y-69813807D01*
X182034805Y-69800000D01*
X182015774Y-69642733D01*
X181959778Y-69494546D01*
X181870051Y-69363992D01*
X181751773Y-69258611D01*
X181611772Y-69184484D01*
X181458131Y-69145892D01*
X181450532Y-69145852D01*
X181450531Y-69145852D01*
X181384679Y-69145507D01*
X181299719Y-69145062D01*
X181292340Y-69146834D01*
X181292336Y-69146834D01*
X181232886Y-69161107D01*
X181161978Y-69157560D01*
X181114377Y-69127683D01*
X180616405Y-68629711D01*
X180582379Y-68567399D01*
X180579500Y-68540616D01*
X180579500Y-68091869D01*
X180581051Y-68072158D01*
X180582680Y-68061873D01*
X180584231Y-68052081D01*
X180583109Y-68044997D01*
X180582788Y-68038461D01*
X180582799Y-68038423D01*
X180582775Y-68038191D01*
X180567788Y-67733132D01*
X180567788Y-67733128D01*
X180567636Y-67730042D01*
X180520326Y-67411104D01*
X180470552Y-67212393D01*
X180442735Y-67101340D01*
X180442732Y-67101330D01*
X180441983Y-67098340D01*
X180440946Y-67095441D01*
X180440943Y-67095432D01*
X180387671Y-66946550D01*
X180333360Y-66794760D01*
X180293266Y-66709987D01*
X180278786Y-66679372D01*
X180267743Y-66609239D01*
X180296369Y-66544269D01*
X180355576Y-66505090D01*
X180392689Y-66499500D01*
X180876080Y-66499500D01*
X180900028Y-66502049D01*
X180901693Y-66502128D01*
X180911876Y-66504320D01*
X180922217Y-66503096D01*
X180945223Y-66500373D01*
X180951154Y-66500023D01*
X180951146Y-66499928D01*
X180956324Y-66499500D01*
X180961524Y-66499500D01*
X180966653Y-66498646D01*
X180966656Y-66498646D01*
X180980565Y-66496331D01*
X180986443Y-66495494D01*
X181027001Y-66490694D01*
X181027002Y-66490694D01*
X181037341Y-66489470D01*
X181045593Y-66485507D01*
X181054626Y-66484004D01*
X181063795Y-66479057D01*
X181063797Y-66479056D01*
X181099732Y-66459666D01*
X181105025Y-66456969D01*
X181144082Y-66438215D01*
X181144086Y-66438212D01*
X181151232Y-66434781D01*
X181155508Y-66431186D01*
X181157431Y-66429263D01*
X181159363Y-66427491D01*
X181159442Y-66427448D01*
X181159555Y-66427572D01*
X181160095Y-66427096D01*
X181165814Y-66424010D01*
X181202417Y-66384413D01*
X181205846Y-66380848D01*
X182691308Y-64895386D01*
X182752271Y-64861661D01*
X182793306Y-64852263D01*
X182864171Y-64856552D01*
X182921470Y-64898473D01*
X182947008Y-64964718D01*
X182947435Y-64975083D01*
X182947435Y-71219308D01*
X182927433Y-71287429D01*
X182873777Y-71333922D01*
X182820775Y-71345306D01*
X182774223Y-71345062D01*
X182766843Y-71346834D01*
X182766841Y-71346834D01*
X182627565Y-71380271D01*
X182627562Y-71380272D01*
X182620186Y-71382043D01*
X182479416Y-71454700D01*
X182360041Y-71558838D01*
X182268952Y-71688444D01*
X182211408Y-71836037D01*
X182190731Y-71993096D01*
X182208115Y-72150553D01*
X182262555Y-72299319D01*
X182350910Y-72430805D01*
X182468078Y-72537419D01*
X182607295Y-72613008D01*
X182760524Y-72653207D01*
X182844479Y-72654526D01*
X182911321Y-72655576D01*
X182911324Y-72655576D01*
X182918918Y-72655695D01*
X183073334Y-72620329D01*
X183214857Y-72549151D01*
X183220632Y-72544219D01*
X183224774Y-72541467D01*
X183292582Y-72520431D01*
X183361000Y-72539394D01*
X183408304Y-72592336D01*
X183420500Y-72646416D01*
X183420500Y-73219691D01*
X183400498Y-73287812D01*
X183346842Y-73334305D01*
X183293841Y-73345689D01*
X183174221Y-73345062D01*
X183166841Y-73346834D01*
X183166839Y-73346834D01*
X183027563Y-73380271D01*
X183027560Y-73380272D01*
X183020184Y-73382043D01*
X182879414Y-73454700D01*
X182760039Y-73558838D01*
X182668950Y-73688444D01*
X182647237Y-73744135D01*
X182624044Y-73803623D01*
X182611406Y-73836037D01*
X182610414Y-73843570D01*
X182610414Y-73843571D01*
X182592476Y-73979827D01*
X182590729Y-73993096D01*
X182594175Y-74024307D01*
X182605252Y-74124637D01*
X182608113Y-74150553D01*
X182610723Y-74157684D01*
X182610723Y-74157686D01*
X182658979Y-74289552D01*
X182662553Y-74299319D01*
X182666789Y-74305622D01*
X182666789Y-74305623D01*
X182740939Y-74415969D01*
X182750908Y-74430805D01*
X182756527Y-74435918D01*
X182756528Y-74435919D01*
X182862460Y-74532309D01*
X182868076Y-74537419D01*
X183007293Y-74613008D01*
X183160522Y-74653207D01*
X183244477Y-74654526D01*
X183311319Y-74655576D01*
X183311322Y-74655576D01*
X183318916Y-74655695D01*
X183473332Y-74620329D01*
X183563386Y-74575037D01*
X183633231Y-74562299D01*
X183698875Y-74589343D01*
X183739476Y-74647584D01*
X183746000Y-74687602D01*
X183746000Y-81962575D01*
X183743579Y-81987153D01*
X183741024Y-82000000D01*
X183743445Y-82012172D01*
X183743445Y-82019754D01*
X183742838Y-82032104D01*
X183732882Y-82133188D01*
X183728065Y-82157408D01*
X183692813Y-82273617D01*
X183683369Y-82296418D01*
X183626124Y-82403517D01*
X183612406Y-82424047D01*
X183535374Y-82517909D01*
X183517909Y-82535374D01*
X183424047Y-82612406D01*
X183403517Y-82626124D01*
X183296418Y-82683369D01*
X183273617Y-82692813D01*
X183157408Y-82728065D01*
X183133188Y-82732882D01*
X183032104Y-82742838D01*
X183019754Y-82743445D01*
X183012172Y-82743445D01*
X183000000Y-82741024D01*
X182987153Y-82743579D01*
X182962575Y-82746000D01*
X173143197Y-82746000D01*
X173075076Y-82725998D01*
X173028583Y-82672342D01*
X173018479Y-82602068D01*
X173047973Y-82537488D01*
X173061366Y-82524189D01*
X173130042Y-82465534D01*
X173130043Y-82465533D01*
X173135814Y-82460604D01*
X173147311Y-82444604D01*
X173203304Y-82400955D01*
X173237285Y-82392735D01*
X173347068Y-82381923D01*
X173502270Y-82334843D01*
X173645305Y-82258390D01*
X173770676Y-82155500D01*
X173873566Y-82030129D01*
X173879112Y-82019754D01*
X173929187Y-81926068D01*
X173950019Y-81887094D01*
X173997099Y-81731892D01*
X174004906Y-81652624D01*
X174006504Y-81642404D01*
X174008529Y-81636638D01*
X174009011Y-81631073D01*
X174009011Y-81617129D01*
X174009616Y-81604796D01*
X174011407Y-81586618D01*
X174012191Y-81580513D01*
X174012191Y-81580282D01*
X174013742Y-81570487D01*
X174010561Y-81550405D01*
X174009011Y-81530705D01*
X174009011Y-81206221D01*
X174416218Y-81206221D01*
X174417423Y-81216559D01*
X174417423Y-81216560D01*
X174427844Y-81305953D01*
X174430827Y-81331547D01*
X174452884Y-81377690D01*
X174480752Y-81435990D01*
X174480754Y-81435992D01*
X174485243Y-81445384D01*
X174573599Y-81535458D01*
X174686369Y-81592055D01*
X174811390Y-81609072D01*
X174821610Y-81607058D01*
X174821611Y-81607058D01*
X174924964Y-81586690D01*
X174935184Y-81584676D01*
X174946567Y-81578091D01*
X175037545Y-81525461D01*
X175037547Y-81525459D01*
X175044400Y-81521495D01*
X175048380Y-81517592D01*
X175999335Y-80408145D01*
X176058853Y-80369441D01*
X176129848Y-80369060D01*
X176189780Y-80407122D01*
X176219619Y-80471544D01*
X176221000Y-80490145D01*
X176221000Y-81185256D01*
X176219449Y-81204966D01*
X176216276Y-81225000D01*
X176217194Y-81230797D01*
X176233905Y-81421798D01*
X176261419Y-81524483D01*
X176279807Y-81593107D01*
X176285034Y-81612616D01*
X176287357Y-81617597D01*
X176287357Y-81617598D01*
X176366196Y-81786670D01*
X176366199Y-81786675D01*
X176368522Y-81791657D01*
X176409635Y-81850372D01*
X176457232Y-81918347D01*
X176481832Y-81953480D01*
X176621520Y-82093168D01*
X176783344Y-82206478D01*
X176788322Y-82208799D01*
X176788325Y-82208801D01*
X176927304Y-82273608D01*
X176962384Y-82289966D01*
X176967692Y-82291388D01*
X176967694Y-82291389D01*
X177147887Y-82339671D01*
X177147888Y-82339671D01*
X177153202Y-82341095D01*
X177350000Y-82358313D01*
X177546798Y-82341095D01*
X177552112Y-82339671D01*
X177552113Y-82339671D01*
X177732306Y-82291389D01*
X177732308Y-82291388D01*
X177737616Y-82289966D01*
X177772696Y-82273608D01*
X177911670Y-82208804D01*
X177911675Y-82208801D01*
X177916657Y-82206478D01*
X178021326Y-82133188D01*
X178073969Y-82096327D01*
X178073972Y-82096325D01*
X178078480Y-82093168D01*
X178218168Y-81953480D01*
X178242769Y-81918347D01*
X178290365Y-81850372D01*
X178331478Y-81791657D01*
X178333801Y-81786675D01*
X178333804Y-81786670D01*
X178351221Y-81749319D01*
X180725041Y-81749319D01*
X180734923Y-81761809D01*
X180772259Y-81786756D01*
X180782371Y-81792247D01*
X180963081Y-81869885D01*
X180974014Y-81873437D01*
X181165844Y-81916845D01*
X181177253Y-81918347D01*
X181373783Y-81926068D01*
X181385265Y-81925466D01*
X181579905Y-81897245D01*
X181591101Y-81894557D01*
X181777343Y-81831336D01*
X181787840Y-81826662D01*
X181906401Y-81760266D01*
X181916264Y-81750189D01*
X181913309Y-81742519D01*
X181332812Y-81162022D01*
X181318868Y-81154408D01*
X181317035Y-81154539D01*
X181310420Y-81158790D01*
X180731237Y-81737973D01*
X180725041Y-81749319D01*
X178351221Y-81749319D01*
X178412643Y-81617598D01*
X178412643Y-81617597D01*
X178414966Y-81612616D01*
X178420194Y-81593107D01*
X178438581Y-81524483D01*
X178466095Y-81421798D01*
X178482806Y-81230797D01*
X178483724Y-81225000D01*
X178464943Y-81106423D01*
X178410439Y-80999453D01*
X178325547Y-80914561D01*
X178218577Y-80860057D01*
X178208787Y-80858506D01*
X178208786Y-80858506D01*
X178134520Y-80846744D01*
X178100000Y-80841276D01*
X178065480Y-80846744D01*
X177991214Y-80858506D01*
X177991213Y-80858506D01*
X177981423Y-80860057D01*
X177966666Y-80867576D01*
X177896891Y-80880681D01*
X177831106Y-80853983D01*
X177809500Y-80832014D01*
X177798673Y-80817904D01*
X177798669Y-80817900D01*
X177793646Y-80811354D01*
X177669563Y-80716142D01*
X177525065Y-80656289D01*
X177370000Y-80635874D01*
X177214935Y-80656289D01*
X177207303Y-80659450D01*
X177207304Y-80659450D01*
X177153218Y-80681853D01*
X177082628Y-80689442D01*
X177019141Y-80657663D01*
X176982914Y-80596605D01*
X176979000Y-80565444D01*
X176979000Y-79630000D01*
X176999002Y-79561879D01*
X177052658Y-79515386D01*
X177105000Y-79504000D01*
X177840119Y-79504000D01*
X177908240Y-79524002D01*
X177942648Y-79556763D01*
X178508849Y-80349445D01*
X179306070Y-81465554D01*
X179309897Y-81470912D01*
X179376530Y-81537573D01*
X179489826Y-81593107D01*
X179543402Y-81599887D01*
X179604670Y-81607640D01*
X179604673Y-81607640D01*
X179615002Y-81608947D01*
X179625197Y-81606838D01*
X179625199Y-81606838D01*
X179728368Y-81585497D01*
X179728371Y-81585496D01*
X179738561Y-81583388D01*
X179847179Y-81519184D01*
X179929144Y-81423256D01*
X179975617Y-81305953D01*
X179977897Y-81257840D01*
X179981095Y-81190325D01*
X179981588Y-81179920D01*
X179976393Y-81162022D01*
X179948621Y-81066359D01*
X179948620Y-81066358D01*
X179946411Y-81058747D01*
X179943575Y-81053949D01*
X179737883Y-80765980D01*
X180182914Y-80765980D01*
X180195777Y-80962233D01*
X180197577Y-80973601D01*
X180245991Y-81164228D01*
X180249829Y-81175066D01*
X180332173Y-81353685D01*
X180337922Y-81363642D01*
X180347850Y-81377690D01*
X180358439Y-81386078D01*
X180371740Y-81379050D01*
X180947978Y-80802812D01*
X180954356Y-80791132D01*
X181684408Y-80791132D01*
X181684539Y-80792965D01*
X181688790Y-80799580D01*
X182268603Y-81379393D01*
X182280983Y-81386153D01*
X182287563Y-81381227D01*
X182356662Y-81257840D01*
X182361336Y-81247343D01*
X182424557Y-81061101D01*
X182427245Y-81049905D01*
X182455762Y-80853224D01*
X182456392Y-80845843D01*
X182457757Y-80793704D01*
X182457514Y-80786305D01*
X182439330Y-80588397D01*
X182437233Y-80577083D01*
X182383846Y-80387789D01*
X182379724Y-80377050D01*
X182292736Y-80200656D01*
X182291577Y-80198765D01*
X182282732Y-80192126D01*
X182270312Y-80198898D01*
X181692022Y-80777188D01*
X181684408Y-80791132D01*
X180954356Y-80791132D01*
X180955592Y-80788868D01*
X180955461Y-80787035D01*
X180951210Y-80780420D01*
X180370031Y-80199241D01*
X180357651Y-80192481D01*
X180351685Y-80196947D01*
X180271452Y-80349445D01*
X180267047Y-80360079D01*
X180208724Y-80547910D01*
X180206332Y-80559164D01*
X180183215Y-80754479D01*
X180182914Y-80765980D01*
X179737883Y-80765980D01*
X179069637Y-79830436D01*
X178415628Y-78914823D01*
X178412306Y-78909935D01*
X178406837Y-78901465D01*
X178384197Y-78866401D01*
X178378172Y-78861651D01*
X178373630Y-78856026D01*
X178308353Y-78764638D01*
X176926966Y-76830697D01*
X176918609Y-76817294D01*
X176908556Y-76798663D01*
X176903610Y-76789496D01*
X176864606Y-76753441D01*
X176861021Y-76749992D01*
X176830834Y-76719792D01*
X176830830Y-76719789D01*
X176823470Y-76712426D01*
X176816585Y-76709051D01*
X176810957Y-76703849D01*
X176762355Y-76682362D01*
X176757921Y-76680297D01*
X176710174Y-76656893D01*
X176702568Y-76655930D01*
X176695557Y-76652831D01*
X176650519Y-76648930D01*
X176642643Y-76648248D01*
X176637695Y-76647721D01*
X176630283Y-76646783D01*
X176584998Y-76641052D01*
X176577492Y-76642605D01*
X176569853Y-76641943D01*
X176559745Y-76644454D01*
X176559743Y-76644454D01*
X176518298Y-76654749D01*
X176513448Y-76655853D01*
X176461439Y-76666612D01*
X176454840Y-76670513D01*
X176447399Y-76672361D01*
X176431875Y-76682385D01*
X176402772Y-76701177D01*
X176398537Y-76703794D01*
X176361785Y-76725517D01*
X176361783Y-76725519D01*
X176352821Y-76730816D01*
X176347840Y-76736645D01*
X176341401Y-76740803D01*
X176334954Y-76748981D01*
X176334953Y-76748982D01*
X176308521Y-76782512D01*
X176305368Y-76786353D01*
X176270856Y-76826743D01*
X176268032Y-76833871D01*
X176263287Y-76839890D01*
X176259836Y-76849717D01*
X176245693Y-76889991D01*
X176243955Y-76894646D01*
X176224383Y-76944047D01*
X176224020Y-76951708D01*
X176221481Y-76958938D01*
X176221000Y-76964491D01*
X176221000Y-77012467D01*
X176220859Y-77018430D01*
X176218412Y-77070080D01*
X176220570Y-77077512D01*
X176221000Y-77084827D01*
X176221000Y-77808991D01*
X176200998Y-77877112D01*
X176147342Y-77923605D01*
X176077068Y-77933709D01*
X176012488Y-77904215D01*
X176001345Y-77893281D01*
X175991486Y-77882326D01*
X175253738Y-77062607D01*
X175064119Y-76851919D01*
X175064118Y-76851918D01*
X175060644Y-76848058D01*
X175056579Y-76844817D01*
X174995090Y-76795796D01*
X174995088Y-76795795D01*
X174986945Y-76789303D01*
X174868128Y-76746847D01*
X174857716Y-76746708D01*
X174857714Y-76746708D01*
X174805046Y-76746007D01*
X174741964Y-76745168D01*
X174622059Y-76784445D01*
X174613746Y-76790717D01*
X174613747Y-76790717D01*
X174529653Y-76854170D01*
X174529652Y-76854171D01*
X174521340Y-76860443D01*
X174515507Y-76869071D01*
X174462821Y-76946998D01*
X174450670Y-76964970D01*
X174447946Y-76975022D01*
X174447945Y-76975024D01*
X174426182Y-77055332D01*
X174417667Y-77086752D01*
X174425891Y-77212658D01*
X174474456Y-77329112D01*
X174477813Y-77333562D01*
X176021564Y-79048841D01*
X176052266Y-79112854D01*
X176043486Y-79183305D01*
X176023574Y-79215129D01*
X174500164Y-80992442D01*
X174491750Y-81002258D01*
X174442992Y-81082920D01*
X174440783Y-81093091D01*
X174440783Y-81093092D01*
X174437888Y-81106423D01*
X174416218Y-81206221D01*
X174009011Y-81206221D01*
X174009011Y-80119299D01*
X174010562Y-80099588D01*
X174012191Y-80089305D01*
X174012191Y-80089304D01*
X174013742Y-80079511D01*
X174012376Y-80070889D01*
X174012190Y-80068289D01*
X174012190Y-80067240D01*
X174011990Y-80065496D01*
X173997405Y-79861563D01*
X173997084Y-79857074D01*
X173960726Y-79689938D01*
X173950636Y-79643554D01*
X173950635Y-79643551D01*
X173949681Y-79639165D01*
X173948114Y-79634963D01*
X173948112Y-79634957D01*
X173873319Y-79434432D01*
X173871748Y-79430220D01*
X173839216Y-79370641D01*
X173767032Y-79238447D01*
X173764873Y-79234493D01*
X173631231Y-79055969D01*
X173473542Y-78898280D01*
X173295018Y-78764638D01*
X173145220Y-78682842D01*
X173103238Y-78659918D01*
X173103235Y-78659917D01*
X173099291Y-78657763D01*
X173081746Y-78651219D01*
X172894554Y-78581399D01*
X172894548Y-78581397D01*
X172890346Y-78579830D01*
X172885960Y-78578876D01*
X172885957Y-78578875D01*
X172730519Y-78545062D01*
X172672437Y-78532427D01*
X172667949Y-78532106D01*
X172464016Y-78517520D01*
X172456808Y-78516694D01*
X172454891Y-78516543D01*
X172450001Y-78515769D01*
X172450000Y-78515769D01*
X172445104Y-78516545D01*
X172442569Y-78516744D01*
X172416235Y-78516055D01*
X172361334Y-78508827D01*
X172346092Y-78506820D01*
X172314322Y-78498307D01*
X172260748Y-78476116D01*
X172232820Y-78464548D01*
X172204335Y-78448102D01*
X172134348Y-78394398D01*
X172111091Y-78371141D01*
X172057387Y-78301154D01*
X172040940Y-78272667D01*
X172007182Y-78191167D01*
X171998669Y-78159396D01*
X171989246Y-78087826D01*
X171988168Y-78071375D01*
X171988168Y-78065283D01*
X171989720Y-78055488D01*
X171987928Y-78044170D01*
X171986540Y-78035411D01*
X171984989Y-78015700D01*
X171984989Y-77881741D01*
X172004991Y-77813620D01*
X172058647Y-77767127D01*
X172128921Y-77757023D01*
X172164239Y-77767546D01*
X172243113Y-77804326D01*
X172253405Y-77808072D01*
X172455401Y-77862196D01*
X172466196Y-77864099D01*
X172674525Y-77882326D01*
X172685475Y-77882326D01*
X172893804Y-77864099D01*
X172904599Y-77862196D01*
X173106595Y-77808072D01*
X173116887Y-77804326D01*
X173306416Y-77715947D01*
X173315912Y-77710464D01*
X173357148Y-77681590D01*
X173365523Y-77671113D01*
X173358455Y-77657667D01*
X172409884Y-76709095D01*
X172375859Y-76646783D01*
X172377694Y-76621132D01*
X173044408Y-76621132D01*
X173044539Y-76622966D01*
X173048790Y-76629580D01*
X173718391Y-77299180D01*
X173730161Y-77305607D01*
X173742176Y-77296311D01*
X173770466Y-77255907D01*
X173775946Y-77246417D01*
X173864326Y-77056887D01*
X173868072Y-77046595D01*
X173922196Y-76844599D01*
X173924099Y-76833804D01*
X173942326Y-76625475D01*
X173942326Y-76614525D01*
X173924099Y-76406196D01*
X173922196Y-76395401D01*
X173868072Y-76193405D01*
X173864326Y-76183113D01*
X173775946Y-75993583D01*
X173770466Y-75984093D01*
X173741589Y-75942851D01*
X173731113Y-75934477D01*
X173717666Y-75941545D01*
X173052021Y-76607189D01*
X173044408Y-76621132D01*
X172377694Y-76621132D01*
X172380924Y-76575967D01*
X172409885Y-76530905D01*
X172680000Y-76260790D01*
X173359176Y-75581613D01*
X173365606Y-75569838D01*
X173356310Y-75557824D01*
X173315912Y-75529536D01*
X173306416Y-75524053D01*
X173116887Y-75435674D01*
X173106595Y-75431928D01*
X172904599Y-75377804D01*
X172893803Y-75375900D01*
X172771072Y-75365163D01*
X172704953Y-75339300D01*
X172663314Y-75281796D01*
X172659373Y-75210909D01*
X172694382Y-75149144D01*
X172725438Y-75127078D01*
X172742968Y-75118261D01*
X172742971Y-75118259D01*
X172749755Y-75114847D01*
X172755526Y-75109918D01*
X172755529Y-75109916D01*
X172864436Y-75016900D01*
X172864436Y-75016899D01*
X172870214Y-75011965D01*
X172962655Y-74883320D01*
X173021742Y-74736337D01*
X173044062Y-74579503D01*
X173044207Y-74565696D01*
X173025176Y-74408429D01*
X172969180Y-74260242D01*
X172917856Y-74185565D01*
X172883755Y-74135947D01*
X172883754Y-74135945D01*
X172879453Y-74129688D01*
X172857383Y-74110024D01*
X172843160Y-74097352D01*
X172761175Y-74024307D01*
X172691383Y-73987354D01*
X172640540Y-73937802D01*
X172624558Y-73868627D01*
X172648512Y-73801794D01*
X172704796Y-73758520D01*
X172750342Y-73750000D01*
X174288564Y-73750000D01*
X174356685Y-73770002D01*
X174403178Y-73823658D01*
X174413282Y-73893932D01*
X174405957Y-73921770D01*
X174367366Y-74020751D01*
X174361406Y-74036037D01*
X174360414Y-74043570D01*
X174360414Y-74043571D01*
X174341902Y-74184189D01*
X174340729Y-74193096D01*
X174347451Y-74253984D01*
X174353153Y-74305623D01*
X174358113Y-74350553D01*
X174360723Y-74357684D01*
X174360723Y-74357686D01*
X174393140Y-74446269D01*
X174412553Y-74499319D01*
X174416789Y-74505622D01*
X174416789Y-74505623D01*
X174479324Y-74598684D01*
X174500908Y-74630805D01*
X174506527Y-74635918D01*
X174506528Y-74635919D01*
X174525658Y-74653326D01*
X174618076Y-74737419D01*
X174624751Y-74741043D01*
X174624752Y-74741044D01*
X174650963Y-74755276D01*
X174701284Y-74805359D01*
X174708895Y-74821971D01*
X174759566Y-74957824D01*
X174761720Y-74961768D01*
X174761721Y-74961771D01*
X174846315Y-75116693D01*
X174867846Y-75156124D01*
X175003244Y-75336995D01*
X175163005Y-75496756D01*
X175343876Y-75632154D01*
X175542176Y-75740434D01*
X175546388Y-75742005D01*
X175749659Y-75817822D01*
X175749665Y-75817824D01*
X175753867Y-75819391D01*
X175758253Y-75820345D01*
X175758256Y-75820346D01*
X175818833Y-75833524D01*
X175974639Y-75867417D01*
X175979123Y-75867738D01*
X175979125Y-75867738D01*
X176130577Y-75878570D01*
X176133849Y-75879037D01*
X176133851Y-75879018D01*
X176136712Y-75879266D01*
X176136717Y-75879266D01*
X176139416Y-75879500D01*
X176142123Y-75879500D01*
X176144019Y-75879582D01*
X176147558Y-75879785D01*
X176175340Y-75881771D01*
X176186602Y-75882577D01*
X176187501Y-75882680D01*
X176188045Y-75882680D01*
X176191988Y-75882962D01*
X176200000Y-75884231D01*
X176220078Y-75881051D01*
X176239788Y-75879500D01*
X177960212Y-75879500D01*
X177979922Y-75881051D01*
X178000000Y-75884231D01*
X178009794Y-75882680D01*
X178019708Y-75882680D01*
X178019708Y-75883703D01*
X178034411Y-75883378D01*
X178123968Y-75893468D01*
X178151476Y-75899747D01*
X178255824Y-75936260D01*
X178281244Y-75948501D01*
X178374857Y-76007321D01*
X178396917Y-76024914D01*
X178475086Y-76103083D01*
X178492679Y-76125143D01*
X178551499Y-76218756D01*
X178563740Y-76244176D01*
X178600253Y-76348524D01*
X178606532Y-76376032D01*
X178616622Y-76465589D01*
X178616297Y-76480288D01*
X178617320Y-76480288D01*
X178617320Y-76490204D01*
X178615769Y-76500000D01*
X178616524Y-76504765D01*
X178616936Y-76512631D01*
X178616936Y-76512632D01*
X178623450Y-76636917D01*
X178633167Y-76822337D01*
X178633680Y-76825577D01*
X178633681Y-76825585D01*
X178655682Y-76964491D01*
X178683661Y-77141143D01*
X178767203Y-77452924D01*
X178882876Y-77754264D01*
X179029415Y-78041863D01*
X179205214Y-78312568D01*
X179314967Y-78448102D01*
X179383252Y-78532427D01*
X179408345Y-78563415D01*
X179636585Y-78791655D01*
X179887432Y-78994786D01*
X180158137Y-79170585D01*
X180445736Y-79317124D01*
X180506365Y-79340397D01*
X180740363Y-79430220D01*
X180747076Y-79432797D01*
X180858007Y-79462521D01*
X180930568Y-79481964D01*
X180991190Y-79518916D01*
X181022212Y-79582777D01*
X181013783Y-79653271D01*
X180968580Y-79708018D01*
X180941567Y-79721883D01*
X180835557Y-79760992D01*
X180825179Y-79765942D01*
X180734146Y-79820101D01*
X180724547Y-79830436D01*
X180728033Y-79838823D01*
X181307188Y-80417978D01*
X181321132Y-80425592D01*
X181322965Y-80425461D01*
X181329580Y-80421210D01*
X181860056Y-79890734D01*
X181922368Y-79856708D01*
X181951130Y-79853845D01*
X182061318Y-79855576D01*
X182061321Y-79855576D01*
X182068916Y-79855695D01*
X182223332Y-79820329D01*
X182293742Y-79784917D01*
X182358072Y-79752563D01*
X182358075Y-79752561D01*
X182364855Y-79749151D01*
X182370626Y-79744222D01*
X182370629Y-79744220D01*
X182479536Y-79651204D01*
X182479536Y-79651203D01*
X182485314Y-79646269D01*
X182577755Y-79517624D01*
X182636842Y-79370641D01*
X182651590Y-79267012D01*
X182658581Y-79217891D01*
X182658581Y-79217888D01*
X182659162Y-79213807D01*
X182659307Y-79200000D01*
X182640276Y-79042733D01*
X182584280Y-78894546D01*
X182564937Y-78866401D01*
X182498855Y-78770251D01*
X182498854Y-78770249D01*
X182494553Y-78763992D01*
X182483837Y-78754444D01*
X182391271Y-78671972D01*
X182376275Y-78658611D01*
X182368889Y-78654700D01*
X182242988Y-78588039D01*
X182242989Y-78588039D01*
X182236274Y-78584484D01*
X182082633Y-78545892D01*
X182075034Y-78545852D01*
X182075033Y-78545852D01*
X182009181Y-78545507D01*
X181924221Y-78545062D01*
X181916841Y-78546834D01*
X181916839Y-78546834D01*
X181777563Y-78580271D01*
X181777560Y-78580272D01*
X181770184Y-78582043D01*
X181629414Y-78654700D01*
X181623695Y-78659689D01*
X181619138Y-78663664D01*
X181510039Y-78758838D01*
X181508881Y-78760485D01*
X181450464Y-78796477D01*
X181394558Y-78798864D01*
X181152166Y-78754444D01*
X181137393Y-78750803D01*
X181057791Y-78725998D01*
X180884409Y-78671970D01*
X180870191Y-78666578D01*
X180628561Y-78557828D01*
X180615091Y-78550759D01*
X180388328Y-78413676D01*
X180375806Y-78405033D01*
X180167218Y-78241615D01*
X180155830Y-78231525D01*
X179968475Y-78044170D01*
X179958385Y-78032782D01*
X179794967Y-77824194D01*
X179786324Y-77811672D01*
X179700778Y-77670161D01*
X180634393Y-77670161D01*
X180643687Y-77682175D01*
X180684088Y-77710464D01*
X180693584Y-77715947D01*
X180883113Y-77804326D01*
X180893405Y-77808072D01*
X181095401Y-77862196D01*
X181106196Y-77864099D01*
X181314525Y-77882326D01*
X181325475Y-77882326D01*
X181533804Y-77864099D01*
X181544599Y-77862196D01*
X181746595Y-77808072D01*
X181756887Y-77804326D01*
X181946416Y-77715947D01*
X181955912Y-77710464D01*
X181997148Y-77681590D01*
X182005523Y-77671112D01*
X181998457Y-77657668D01*
X181332811Y-76992021D01*
X181318868Y-76984408D01*
X181317034Y-76984539D01*
X181310420Y-76988790D01*
X180640820Y-77658391D01*
X180634393Y-77670161D01*
X179700778Y-77670161D01*
X179649241Y-77584909D01*
X179642170Y-77571436D01*
X179587395Y-77449731D01*
X179533422Y-77329809D01*
X179528028Y-77315586D01*
X179524919Y-77305607D01*
X179449197Y-77062607D01*
X179445556Y-77047834D01*
X179397793Y-76787202D01*
X179395959Y-76772098D01*
X179387090Y-76625475D01*
X180057674Y-76625475D01*
X180075901Y-76833804D01*
X180077804Y-76844599D01*
X180131928Y-77046595D01*
X180135674Y-77056887D01*
X180224054Y-77246417D01*
X180229534Y-77255907D01*
X180258411Y-77297149D01*
X180268887Y-77305523D01*
X180282334Y-77298455D01*
X180947979Y-76632811D01*
X180954356Y-76621132D01*
X181684408Y-76621132D01*
X181684539Y-76622966D01*
X181688790Y-76629580D01*
X182358391Y-77299180D01*
X182370161Y-77305607D01*
X182382176Y-77296311D01*
X182410466Y-77255907D01*
X182415946Y-77246417D01*
X182504326Y-77056887D01*
X182508072Y-77046595D01*
X182562196Y-76844599D01*
X182564099Y-76833804D01*
X182582326Y-76625475D01*
X182582326Y-76614525D01*
X182564099Y-76406196D01*
X182562196Y-76395401D01*
X182508072Y-76193405D01*
X182504326Y-76183113D01*
X182415946Y-75993583D01*
X182410466Y-75984093D01*
X182381589Y-75942851D01*
X182371113Y-75934477D01*
X182357666Y-75941545D01*
X181692021Y-76607189D01*
X181684408Y-76621132D01*
X180954356Y-76621132D01*
X180955592Y-76618868D01*
X180955461Y-76617034D01*
X180951210Y-76610420D01*
X180281609Y-75940820D01*
X180269839Y-75934393D01*
X180257824Y-75943689D01*
X180229534Y-75984093D01*
X180224054Y-75993583D01*
X180135674Y-76183113D01*
X180131928Y-76193405D01*
X180077804Y-76395401D01*
X180075901Y-76406196D01*
X180057674Y-76614525D01*
X180057674Y-76625475D01*
X179387090Y-76625475D01*
X179381638Y-76535348D01*
X179382679Y-76513818D01*
X179382679Y-76509797D01*
X179384231Y-76500000D01*
X179383307Y-76494165D01*
X179366730Y-76283532D01*
X179361271Y-76260790D01*
X179317195Y-76077205D01*
X179316040Y-76072393D01*
X179292215Y-76014873D01*
X179234840Y-75876357D01*
X179234838Y-75876353D01*
X179232945Y-75871783D01*
X179119491Y-75686643D01*
X179018918Y-75568887D01*
X180634477Y-75568887D01*
X180641545Y-75582334D01*
X181307189Y-76247979D01*
X181321132Y-76255592D01*
X181322966Y-76255461D01*
X181329580Y-76251210D01*
X181999180Y-75581609D01*
X182005607Y-75569839D01*
X181996313Y-75557825D01*
X181955912Y-75529536D01*
X181946416Y-75524053D01*
X181756887Y-75435674D01*
X181746595Y-75431928D01*
X181544599Y-75377804D01*
X181533804Y-75375901D01*
X181325475Y-75357674D01*
X181314525Y-75357674D01*
X181106196Y-75375901D01*
X181095401Y-75377804D01*
X180893405Y-75431928D01*
X180883113Y-75435674D01*
X180693583Y-75524054D01*
X180684093Y-75529534D01*
X180642851Y-75558411D01*
X180634477Y-75568887D01*
X179018918Y-75568887D01*
X178978471Y-75521529D01*
X178813357Y-75380509D01*
X178628217Y-75267055D01*
X178627841Y-75266899D01*
X178577144Y-75219019D01*
X178560078Y-75150105D01*
X178582978Y-75082903D01*
X178638576Y-75038750D01*
X178685962Y-75029500D01*
X180946514Y-75029500D01*
X180978985Y-75035695D01*
X180979430Y-75033997D01*
X181132659Y-75074196D01*
X181216614Y-75075515D01*
X181283456Y-75076565D01*
X181283459Y-75076565D01*
X181291053Y-75076684D01*
X181445469Y-75041318D01*
X181551340Y-74988071D01*
X181580209Y-74973552D01*
X181580212Y-74973550D01*
X181586992Y-74970140D01*
X181592763Y-74965211D01*
X181592766Y-74965209D01*
X181701673Y-74872193D01*
X181701673Y-74872192D01*
X181707451Y-74867258D01*
X181799892Y-74738613D01*
X181858979Y-74591630D01*
X181865102Y-74548604D01*
X181880718Y-74438880D01*
X181880718Y-74438877D01*
X181881299Y-74434796D01*
X181881444Y-74420989D01*
X181880471Y-74412944D01*
X181867483Y-74305623D01*
X181862413Y-74263722D01*
X181806417Y-74115535D01*
X181741274Y-74020751D01*
X181720992Y-73991240D01*
X181720991Y-73991238D01*
X181716690Y-73984981D01*
X181598412Y-73879600D01*
X181591026Y-73875689D01*
X181465125Y-73809028D01*
X181465126Y-73809028D01*
X181458411Y-73805473D01*
X181304770Y-73766881D01*
X181297171Y-73766841D01*
X181297170Y-73766841D01*
X181231318Y-73766496D01*
X181146358Y-73766051D01*
X181138978Y-73767823D01*
X181138976Y-73767823D01*
X180999700Y-73801260D01*
X180999697Y-73801261D01*
X180992321Y-73803032D01*
X180851551Y-73875689D01*
X180732176Y-73979827D01*
X180641087Y-74109433D01*
X180633190Y-74129688D01*
X180609570Y-74190270D01*
X180566189Y-74246471D01*
X180492177Y-74270500D01*
X177279494Y-74270500D01*
X177211373Y-74250498D01*
X177195675Y-74238577D01*
X177133421Y-74183111D01*
X177126035Y-74179200D01*
X177007640Y-74116513D01*
X176993420Y-74108984D01*
X176839779Y-74070392D01*
X176832180Y-74070352D01*
X176832179Y-74070352D01*
X176766327Y-74070007D01*
X176681367Y-74069562D01*
X176673987Y-74071334D01*
X176673985Y-74071334D01*
X176534709Y-74104771D01*
X176534706Y-74104772D01*
X176527330Y-74106543D01*
X176386560Y-74179200D01*
X176267185Y-74283338D01*
X176176096Y-74412944D01*
X176165984Y-74438880D01*
X176126153Y-74541042D01*
X176118552Y-74560537D01*
X176117560Y-74568070D01*
X176117560Y-74568071D01*
X176101824Y-74687602D01*
X176097875Y-74717596D01*
X176100464Y-74741044D01*
X176113717Y-74861084D01*
X176115259Y-74875053D01*
X176117869Y-74882184D01*
X176117869Y-74882186D01*
X176132411Y-74921923D01*
X176137037Y-74992769D01*
X176102627Y-75054869D01*
X176040106Y-75088508D01*
X175977510Y-75085799D01*
X175897882Y-75061645D01*
X175875063Y-75052193D01*
X175799802Y-75011965D01*
X175755100Y-74988071D01*
X175734562Y-74974348D01*
X175629412Y-74888053D01*
X175611947Y-74870588D01*
X175525652Y-74765438D01*
X175511930Y-74744903D01*
X175511122Y-74743391D01*
X175507334Y-74736303D01*
X175492861Y-74666799D01*
X175516133Y-74603380D01*
X175541505Y-74568071D01*
X175577755Y-74517624D01*
X175636842Y-74370641D01*
X175653940Y-74250498D01*
X175658581Y-74217891D01*
X175658581Y-74217888D01*
X175659162Y-74213807D01*
X175659307Y-74200000D01*
X175640276Y-74042733D01*
X175605303Y-73950180D01*
X175594102Y-73920538D01*
X175588734Y-73849745D01*
X175622491Y-73787287D01*
X175684657Y-73752995D01*
X175711968Y-73750000D01*
X178350000Y-73750000D01*
X178350000Y-66450000D01*
X172560500Y-66450000D01*
X172492379Y-66429998D01*
X172445886Y-66376342D01*
X172434500Y-66324000D01*
X172434500Y-65744788D01*
X172436051Y-65725077D01*
X172437680Y-65714792D01*
X172439231Y-65705000D01*
X172437680Y-65695207D01*
X172437680Y-65688906D01*
X172436806Y-65669824D01*
X172448476Y-65491776D01*
X172450627Y-65475436D01*
X172472585Y-65365041D01*
X172490704Y-65273952D01*
X172494967Y-65258042D01*
X172561001Y-65063512D01*
X172567307Y-65048288D01*
X172658164Y-64864048D01*
X172666405Y-64849775D01*
X172692590Y-64810586D01*
X172747066Y-64765058D01*
X172799334Y-64754603D01*
X172861319Y-64755577D01*
X172861322Y-64755577D01*
X172868916Y-64755696D01*
X173023332Y-64720330D01*
X173135538Y-64663897D01*
X173158072Y-64652564D01*
X173158075Y-64652562D01*
X173164855Y-64649152D01*
X173170626Y-64644223D01*
X173170629Y-64644221D01*
X173279536Y-64551205D01*
X173279536Y-64551204D01*
X173285314Y-64546270D01*
X173377755Y-64417625D01*
X173436842Y-64270642D01*
X173445463Y-64210065D01*
X173458581Y-64117892D01*
X173458581Y-64117889D01*
X173459162Y-64113808D01*
X173459307Y-64100001D01*
X173440276Y-63942734D01*
X173384280Y-63794547D01*
X173294553Y-63663993D01*
X173176275Y-63558612D01*
X173036274Y-63484485D01*
X172882633Y-63445893D01*
X172875034Y-63445853D01*
X172875033Y-63445853D01*
X172809181Y-63445508D01*
X172724221Y-63445063D01*
X172716841Y-63446835D01*
X172716839Y-63446835D01*
X172644951Y-63464094D01*
X172610413Y-63472386D01*
X172539505Y-63468839D01*
X172481771Y-63427519D01*
X172455541Y-63361546D01*
X172454999Y-63349867D01*
X172454999Y-61554290D01*
X172456550Y-61534579D01*
X172458179Y-61524294D01*
X172459730Y-61514502D01*
X172458179Y-61504708D01*
X172458179Y-61498610D01*
X172459257Y-61482163D01*
X172469020Y-61408009D01*
X172477533Y-61376239D01*
X172512289Y-61292329D01*
X172528736Y-61263842D01*
X172584027Y-61191786D01*
X172607285Y-61168528D01*
X172679341Y-61113237D01*
X172707828Y-61096790D01*
X172791738Y-61062034D01*
X172823508Y-61053521D01*
X172874838Y-61046763D01*
X172897664Y-61043758D01*
X172914109Y-61042680D01*
X172920207Y-61042680D01*
X172930001Y-61044231D01*
X172950079Y-61041051D01*
X172969789Y-61039500D01*
X176120212Y-61039500D01*
X176139923Y-61041051D01*
G37*
%TD.AperFunction*%
%TA.AperFunction,Conductor*%
G36*
X171108740Y-55274002D02*
G01*
X171155233Y-55327658D01*
X171165337Y-55397932D01*
X171139569Y-55458005D01*
X171109720Y-55495869D01*
X171107031Y-55500980D01*
X171107029Y-55500983D01*
X171094073Y-55525609D01*
X171015203Y-55675515D01*
X170975548Y-55803225D01*
X170959639Y-55854462D01*
X170955007Y-55869378D01*
X170931148Y-56070964D01*
X170944424Y-56273522D01*
X170945845Y-56279118D01*
X170945846Y-56279123D01*
X170967508Y-56364414D01*
X170994392Y-56470269D01*
X170996809Y-56475512D01*
X171034010Y-56556208D01*
X171079377Y-56654616D01*
X171082710Y-56659332D01*
X171158754Y-56766932D01*
X171196533Y-56820389D01*
X171341938Y-56962035D01*
X171510720Y-57074812D01*
X171516023Y-57077090D01*
X171516026Y-57077092D01*
X171650283Y-57134773D01*
X171697228Y-57154942D01*
X171770244Y-57171464D01*
X171889579Y-57198467D01*
X171889584Y-57198468D01*
X171895216Y-57199742D01*
X171900987Y-57199969D01*
X171900989Y-57199969D01*
X171960756Y-57202317D01*
X172098053Y-57207712D01*
X172198499Y-57193148D01*
X172293231Y-57179413D01*
X172293236Y-57179412D01*
X172298945Y-57178584D01*
X172304409Y-57176729D01*
X172304414Y-57176728D01*
X172458764Y-57124333D01*
X172529699Y-57121377D01*
X172574323Y-57142442D01*
X172787033Y-57300198D01*
X172789518Y-57302041D01*
X172792159Y-57303624D01*
X172792168Y-57303630D01*
X172944257Y-57394788D01*
X173067684Y-57468767D01*
X173070463Y-57470081D01*
X173070466Y-57470083D01*
X173358061Y-57606106D01*
X173358070Y-57606110D01*
X173360853Y-57607426D01*
X173470550Y-57646676D01*
X173663296Y-57715642D01*
X173663304Y-57715644D01*
X173666201Y-57716681D01*
X173822065Y-57755723D01*
X173977785Y-57794729D01*
X173977789Y-57794730D01*
X173980788Y-57795481D01*
X173983850Y-57795935D01*
X173983854Y-57795936D01*
X174052125Y-57806063D01*
X174301584Y-57843067D01*
X174304670Y-57843219D01*
X174304674Y-57843219D01*
X174451975Y-57850455D01*
X174618635Y-57858643D01*
X174625499Y-57859730D01*
X174645577Y-57856550D01*
X174665287Y-57854999D01*
X175018792Y-57854999D01*
X175038502Y-57856550D01*
X175058580Y-57859730D01*
X175068373Y-57858179D01*
X175078291Y-57858179D01*
X175078291Y-57858834D01*
X175093089Y-57858398D01*
X175180144Y-57866973D01*
X175204365Y-57871790D01*
X175309388Y-57903648D01*
X175332206Y-57913100D01*
X175360393Y-57928166D01*
X175428990Y-57964832D01*
X175449527Y-57978554D01*
X175517151Y-58034051D01*
X175527305Y-58044822D01*
X175527768Y-58044359D01*
X175534782Y-58051373D01*
X175540609Y-58059393D01*
X175553276Y-58068596D01*
X175596630Y-58124818D01*
X175602706Y-58195554D01*
X175585127Y-58238786D01*
X175569909Y-58262400D01*
X175567498Y-58269023D01*
X175567497Y-58269026D01*
X175514425Y-58414840D01*
X175514424Y-58414845D01*
X175512015Y-58421463D01*
X175490800Y-58589399D01*
X175507318Y-58757862D01*
X175560748Y-58918479D01*
X175564397Y-58924504D01*
X175637379Y-59045011D01*
X175648435Y-59063267D01*
X175653326Y-59068332D01*
X175653327Y-59068333D01*
X175677831Y-59093708D01*
X175766021Y-59185031D01*
X175907660Y-59277717D01*
X176066315Y-59336720D01*
X176073296Y-59337651D01*
X176073298Y-59337652D01*
X176227118Y-59358176D01*
X176227122Y-59358176D01*
X176234099Y-59359107D01*
X176241110Y-59358469D01*
X176241114Y-59358469D01*
X176395652Y-59344405D01*
X176402673Y-59343766D01*
X176563659Y-59291458D01*
X176709056Y-59204784D01*
X176798712Y-59119406D01*
X176861836Y-59086915D01*
X176932507Y-59093708D01*
X176976240Y-59123126D01*
X177036021Y-59185031D01*
X177041917Y-59188889D01*
X177041918Y-59188890D01*
X177083493Y-59216096D01*
X177129542Y-59270133D01*
X177140500Y-59321528D01*
X177140500Y-60493099D01*
X177120498Y-60561220D01*
X177066842Y-60607713D01*
X176996568Y-60617817D01*
X176931988Y-60588323D01*
X176925405Y-60582194D01*
X176882349Y-60539138D01*
X176841455Y-60510503D01*
X176792712Y-60476373D01*
X176721888Y-60426781D01*
X176716906Y-60424458D01*
X176716901Y-60424455D01*
X176549336Y-60346319D01*
X176549335Y-60346319D01*
X176544354Y-60343996D01*
X176539046Y-60342574D01*
X176539044Y-60342573D01*
X176360450Y-60294719D01*
X176360447Y-60294718D01*
X176355142Y-60293297D01*
X176234088Y-60282705D01*
X176228776Y-60281904D01*
X176226149Y-60280982D01*
X176220584Y-60280500D01*
X176214375Y-60280500D01*
X176203394Y-60280020D01*
X176197838Y-60279534D01*
X176172525Y-60277319D01*
X176172521Y-60277319D01*
X176166418Y-60276785D01*
X176160000Y-60275769D01*
X176139923Y-60278949D01*
X176120212Y-60280500D01*
X172969787Y-60280500D01*
X172950076Y-60278949D01*
X172939793Y-60277320D01*
X172939792Y-60277320D01*
X172929999Y-60275769D01*
X172920202Y-60277321D01*
X172919119Y-60277321D01*
X172913589Y-60277976D01*
X172736362Y-60291924D01*
X172731555Y-60293078D01*
X172731549Y-60293079D01*
X172632993Y-60316741D01*
X172547493Y-60337268D01*
X172542922Y-60339161D01*
X172542920Y-60339162D01*
X172372617Y-60409704D01*
X172372613Y-60409706D01*
X172368043Y-60411599D01*
X172202430Y-60513087D01*
X172198670Y-60516299D01*
X172198665Y-60516302D01*
X172083113Y-60614993D01*
X172054732Y-60639233D01*
X172051519Y-60642995D01*
X171931801Y-60783166D01*
X171931798Y-60783171D01*
X171928586Y-60786931D01*
X171827098Y-60952544D01*
X171825205Y-60957114D01*
X171825203Y-60957118D01*
X171767349Y-61096790D01*
X171752767Y-61131994D01*
X171746464Y-61158249D01*
X171708578Y-61316050D01*
X171708577Y-61316056D01*
X171707423Y-61320863D01*
X171707035Y-61325797D01*
X171697988Y-61440747D01*
X171697157Y-61446429D01*
X171696481Y-61448352D01*
X171695999Y-61453917D01*
X171695999Y-61461061D01*
X171695611Y-61470947D01*
X171693475Y-61498088D01*
X171692820Y-61503620D01*
X171692820Y-61504703D01*
X171691268Y-61514500D01*
X171692819Y-61524293D01*
X171692819Y-61524294D01*
X171694448Y-61534577D01*
X171695999Y-61554288D01*
X171695999Y-63865810D01*
X171694448Y-63885520D01*
X171691268Y-63905598D01*
X171692819Y-63915390D01*
X171692819Y-63921489D01*
X171691741Y-63937933D01*
X171689737Y-63953158D01*
X171684861Y-63990194D01*
X171676348Y-64021967D01*
X171650043Y-64085472D01*
X171633597Y-64113957D01*
X171601506Y-64155779D01*
X171590638Y-64168170D01*
X171586327Y-64172481D01*
X171578308Y-64178307D01*
X171572482Y-64186326D01*
X171571900Y-64186908D01*
X171567803Y-64192106D01*
X171454865Y-64324339D01*
X171354996Y-64487310D01*
X171353103Y-64491880D01*
X171353101Y-64491884D01*
X171347606Y-64505151D01*
X171281851Y-64663897D01*
X171280695Y-64668712D01*
X171242667Y-64827108D01*
X171237230Y-64849753D01*
X171233143Y-64901693D01*
X171228074Y-64966102D01*
X171227199Y-64972080D01*
X171226471Y-64974152D01*
X171225989Y-64979717D01*
X171225989Y-64987633D01*
X171225600Y-64997521D01*
X171223585Y-65023119D01*
X171222809Y-65029680D01*
X171222809Y-65030509D01*
X171221258Y-65040301D01*
X171222809Y-65050093D01*
X171224438Y-65060378D01*
X171225989Y-65080089D01*
X171225989Y-75495882D01*
X171205987Y-75564003D01*
X171152331Y-75610496D01*
X171082057Y-75620600D01*
X171017477Y-75591106D01*
X170988328Y-75554258D01*
X170986964Y-75551649D01*
X170984280Y-75544546D01*
X170934733Y-75472454D01*
X170898855Y-75420251D01*
X170898854Y-75420249D01*
X170894553Y-75413992D01*
X170776275Y-75308611D01*
X170697029Y-75266652D01*
X170646187Y-75217100D01*
X170629990Y-75155299D01*
X170629990Y-64059805D01*
X170649992Y-63991684D01*
X170699375Y-63947241D01*
X170756417Y-63918552D01*
X170808052Y-63892583D01*
X170808055Y-63892581D01*
X170814835Y-63889171D01*
X170820606Y-63884242D01*
X170820609Y-63884240D01*
X170929516Y-63791224D01*
X170929516Y-63791223D01*
X170935294Y-63786289D01*
X171027735Y-63657644D01*
X171086822Y-63510661D01*
X171095776Y-63447744D01*
X171108561Y-63357911D01*
X171108561Y-63357908D01*
X171109142Y-63353827D01*
X171109287Y-63340020D01*
X171090256Y-63182753D01*
X171034260Y-63034566D01*
X170944533Y-62904012D01*
X170926021Y-62887518D01*
X170871661Y-62839086D01*
X170834106Y-62778836D01*
X170829480Y-62745009D01*
X170829480Y-60027107D01*
X170849482Y-59958986D01*
X170898866Y-59914542D01*
X170961397Y-59883092D01*
X170968181Y-59879680D01*
X170973952Y-59874751D01*
X170973955Y-59874749D01*
X171082862Y-59781733D01*
X171082862Y-59781732D01*
X171088640Y-59776798D01*
X171181081Y-59648153D01*
X171240168Y-59501170D01*
X171260477Y-59358469D01*
X171261907Y-59348420D01*
X171261907Y-59348417D01*
X171262488Y-59344336D01*
X171262633Y-59330529D01*
X171243602Y-59173262D01*
X171187606Y-59025075D01*
X171097879Y-58894521D01*
X170979601Y-58789140D01*
X170839600Y-58715013D01*
X170685959Y-58676421D01*
X170678360Y-58676381D01*
X170678359Y-58676381D01*
X170612507Y-58676036D01*
X170527547Y-58675591D01*
X170520167Y-58677363D01*
X170520165Y-58677363D01*
X170409414Y-58703952D01*
X170338506Y-58700405D01*
X170280772Y-58659085D01*
X170254542Y-58593111D01*
X170254000Y-58581433D01*
X170254000Y-56037425D01*
X170256421Y-56012844D01*
X170256555Y-56012170D01*
X170258976Y-56000000D01*
X170256555Y-55987828D01*
X170256555Y-55980246D01*
X170257162Y-55967896D01*
X170267118Y-55866812D01*
X170271935Y-55842592D01*
X170307187Y-55726383D01*
X170316631Y-55703582D01*
X170373876Y-55596483D01*
X170387594Y-55575953D01*
X170464626Y-55482091D01*
X170482091Y-55464626D01*
X170575953Y-55387594D01*
X170596483Y-55373876D01*
X170703582Y-55316631D01*
X170726383Y-55307187D01*
X170842592Y-55271935D01*
X170866812Y-55267118D01*
X170967896Y-55257162D01*
X170980246Y-55256555D01*
X170987828Y-55256555D01*
X171000000Y-55258976D01*
X171012847Y-55256421D01*
X171037425Y-55254000D01*
X171040619Y-55254000D01*
X171108740Y-55274002D01*
G37*
%TD.AperFunction*%
%TA.AperFunction,Conductor*%
G36*
X181661523Y-59363104D02*
G01*
X181669519Y-59372736D01*
X181731715Y-59455724D01*
X181744276Y-59468285D01*
X181846351Y-59544786D01*
X181861946Y-59553324D01*
X181982394Y-59598478D01*
X181997649Y-59602105D01*
X182048514Y-59607631D01*
X182055328Y-59608000D01*
X182137876Y-59608000D01*
X182205997Y-59628002D01*
X182252490Y-59681658D01*
X182262594Y-59751932D01*
X182240963Y-59806451D01*
X182194450Y-59872632D01*
X182136906Y-60020225D01*
X182135914Y-60027758D01*
X182135914Y-60027759D01*
X182132132Y-60056490D01*
X182116229Y-60177284D01*
X182117063Y-60184834D01*
X182131626Y-60316741D01*
X182133613Y-60334741D01*
X182136223Y-60341872D01*
X182136223Y-60341874D01*
X182183074Y-60469900D01*
X182188053Y-60483507D01*
X182192289Y-60489810D01*
X182192289Y-60489811D01*
X182225436Y-60539138D01*
X182276408Y-60614993D01*
X182282027Y-60620106D01*
X182282028Y-60620107D01*
X182373313Y-60703169D01*
X182393576Y-60721607D01*
X182532793Y-60797196D01*
X182686022Y-60837395D01*
X182769977Y-60838714D01*
X182836819Y-60839764D01*
X182836822Y-60839764D01*
X182844416Y-60839883D01*
X182998832Y-60804517D01*
X183103089Y-60752082D01*
X183172931Y-60739344D01*
X183238575Y-60766388D01*
X183248796Y-60775552D01*
X183269741Y-60796497D01*
X183287333Y-60818556D01*
X183349072Y-60916813D01*
X183361314Y-60942232D01*
X183398891Y-61049619D01*
X183399639Y-61051758D01*
X183405918Y-61079268D01*
X183416622Y-61174277D01*
X183416299Y-61188980D01*
X183417320Y-61188980D01*
X183417320Y-61198894D01*
X183415769Y-61208688D01*
X183417320Y-61218480D01*
X183418949Y-61228765D01*
X183420500Y-61248476D01*
X183420500Y-63100554D01*
X183400498Y-63168675D01*
X183346842Y-63215168D01*
X183276568Y-63225272D01*
X183235105Y-63211676D01*
X183184792Y-63184783D01*
X183184783Y-63184779D01*
X183179329Y-63181864D01*
X183017891Y-63132892D01*
X182930763Y-63124310D01*
X182921504Y-63122862D01*
X182916149Y-63120982D01*
X182910584Y-63120500D01*
X182898264Y-63120500D01*
X182885913Y-63119893D01*
X182863496Y-63117685D01*
X182860651Y-63117320D01*
X182859794Y-63117320D01*
X182850000Y-63115769D01*
X182829923Y-63118949D01*
X182810212Y-63120500D01*
X180589788Y-63120500D01*
X180570077Y-63118949D01*
X180569958Y-63118930D01*
X180562571Y-63117760D01*
X180559794Y-63117320D01*
X180559793Y-63117320D01*
X180550000Y-63115769D01*
X180540205Y-63117321D01*
X180530290Y-63117321D01*
X180530290Y-63117166D01*
X180515180Y-63117760D01*
X180369051Y-63106259D01*
X180349523Y-63103166D01*
X180305091Y-63092499D01*
X180182665Y-63063107D01*
X180163870Y-63057000D01*
X180079916Y-63022225D01*
X180005337Y-62991333D01*
X179987721Y-62982357D01*
X179841411Y-62892699D01*
X179825418Y-62881080D01*
X179694933Y-62769635D01*
X179680955Y-62755657D01*
X179678554Y-62752846D01*
X179569512Y-62625174D01*
X179557893Y-62609181D01*
X179468235Y-62462871D01*
X179459259Y-62445255D01*
X179420032Y-62350553D01*
X179393592Y-62286722D01*
X179387484Y-62267923D01*
X179375473Y-62217891D01*
X179357812Y-62144331D01*
X179347426Y-62101069D01*
X179344333Y-62081541D01*
X179332832Y-61935412D01*
X179333426Y-61920302D01*
X179333271Y-61920302D01*
X179333271Y-61910387D01*
X179334823Y-61900592D01*
X179331643Y-61880514D01*
X179330092Y-61860804D01*
X179330092Y-61068738D01*
X179350094Y-61000617D01*
X179374261Y-60972927D01*
X179430128Y-60925212D01*
X179435906Y-60920277D01*
X179528347Y-60791632D01*
X179587434Y-60644649D01*
X179602450Y-60539138D01*
X179609173Y-60491899D01*
X179609173Y-60491896D01*
X179609754Y-60487815D01*
X179609899Y-60474008D01*
X179590868Y-60316741D01*
X179534872Y-60168554D01*
X179445145Y-60038000D01*
X179439475Y-60032948D01*
X179439473Y-60032946D01*
X179429532Y-60024089D01*
X179391975Y-59963839D01*
X179392954Y-59892849D01*
X179432157Y-59833658D01*
X179497139Y-59805058D01*
X179513349Y-59804011D01*
X180465701Y-59804011D01*
X180485412Y-59805562D01*
X180495695Y-59807191D01*
X180495696Y-59807191D01*
X180505489Y-59808742D01*
X180515285Y-59807190D01*
X180515976Y-59807190D01*
X180523073Y-59806350D01*
X180645068Y-59796749D01*
X180694421Y-59792865D01*
X180699234Y-59791709D01*
X180699237Y-59791709D01*
X180873884Y-59749779D01*
X180878699Y-59748623D01*
X180941893Y-59722447D01*
X181049215Y-59677993D01*
X181049219Y-59677991D01*
X181053789Y-59676098D01*
X181215377Y-59577077D01*
X181359486Y-59453997D01*
X181420192Y-59382920D01*
X181479641Y-59344111D01*
X181480068Y-59344003D01*
X181482673Y-59343766D01*
X181529758Y-59328467D01*
X181600726Y-59326441D01*
X181661523Y-59363104D01*
G37*
%TD.AperFunction*%
%TA.AperFunction,Conductor*%
G36*
X178728740Y-55274002D02*
G01*
X178775233Y-55327658D01*
X178785337Y-55397932D01*
X178759569Y-55458005D01*
X178729720Y-55495869D01*
X178727031Y-55500980D01*
X178727029Y-55500983D01*
X178714073Y-55525609D01*
X178635203Y-55675515D01*
X178595548Y-55803225D01*
X178579639Y-55854462D01*
X178575007Y-55869378D01*
X178551148Y-56070964D01*
X178564424Y-56273522D01*
X178565845Y-56279118D01*
X178565846Y-56279123D01*
X178587508Y-56364414D01*
X178614392Y-56470269D01*
X178616809Y-56475512D01*
X178654010Y-56556208D01*
X178699377Y-56654616D01*
X178702710Y-56659332D01*
X178778754Y-56766932D01*
X178816533Y-56820389D01*
X178961938Y-56962035D01*
X179130720Y-57074812D01*
X179136023Y-57077090D01*
X179136026Y-57077092D01*
X179270283Y-57134773D01*
X179317228Y-57154942D01*
X179390244Y-57171464D01*
X179509579Y-57198467D01*
X179509584Y-57198468D01*
X179515216Y-57199742D01*
X179520987Y-57199969D01*
X179520989Y-57199969D01*
X179580756Y-57202317D01*
X179718053Y-57207712D01*
X179818499Y-57193148D01*
X179913231Y-57179413D01*
X179913236Y-57179412D01*
X179918945Y-57178584D01*
X180055991Y-57132063D01*
X180126926Y-57129107D01*
X180185587Y-57162281D01*
X180483516Y-57460210D01*
X180496357Y-57475244D01*
X180508308Y-57491693D01*
X180516327Y-57497519D01*
X180520786Y-57501978D01*
X180534897Y-57514851D01*
X180616995Y-57608466D01*
X180635432Y-57629490D01*
X180645465Y-57642565D01*
X180745174Y-57791790D01*
X180753415Y-57806063D01*
X180813630Y-57928166D01*
X180825820Y-57998109D01*
X180798261Y-58063538D01*
X180788778Y-58073922D01*
X180785787Y-58076850D01*
X180782945Y-58079633D01*
X180720276Y-58112997D01*
X180649518Y-58107183D01*
X180605391Y-58078384D01*
X180586532Y-58059393D01*
X180535764Y-58008269D01*
X180519755Y-57998109D01*
X180409542Y-57928166D01*
X180392844Y-57917569D01*
X180344810Y-57900465D01*
X180240016Y-57863149D01*
X180240011Y-57863148D01*
X180233381Y-57860787D01*
X180226395Y-57859954D01*
X180226391Y-57859953D01*
X180107287Y-57845751D01*
X180065301Y-57840745D01*
X180058298Y-57841481D01*
X180058297Y-57841481D01*
X179903965Y-57857701D01*
X179903961Y-57857702D01*
X179896957Y-57858438D01*
X179890286Y-57860709D01*
X179743387Y-57910717D01*
X179743384Y-57910718D01*
X179736717Y-57912988D01*
X179730719Y-57916678D01*
X179730717Y-57916679D01*
X179598543Y-57997993D01*
X179598541Y-57997995D01*
X179592544Y-58001684D01*
X179587511Y-58006613D01*
X179512954Y-58079624D01*
X179450289Y-58112994D01*
X179379530Y-58107188D01*
X179335391Y-58078384D01*
X179316532Y-58059393D01*
X179265764Y-58008269D01*
X179249755Y-57998109D01*
X179139542Y-57928166D01*
X179122844Y-57917569D01*
X179074810Y-57900465D01*
X178970016Y-57863149D01*
X178970011Y-57863148D01*
X178963381Y-57860787D01*
X178956395Y-57859954D01*
X178956391Y-57859953D01*
X178837287Y-57845751D01*
X178795301Y-57840745D01*
X178788298Y-57841481D01*
X178788297Y-57841481D01*
X178633965Y-57857701D01*
X178633961Y-57857702D01*
X178626957Y-57858438D01*
X178620286Y-57860709D01*
X178473387Y-57910717D01*
X178473384Y-57910718D01*
X178466717Y-57912988D01*
X178460719Y-57916678D01*
X178460717Y-57916679D01*
X178328543Y-57997993D01*
X178328541Y-57997995D01*
X178322544Y-58001684D01*
X178317511Y-58006613D01*
X178242954Y-58079624D01*
X178180289Y-58112994D01*
X178109530Y-58107188D01*
X178065391Y-58078384D01*
X178046532Y-58059393D01*
X177995764Y-58008269D01*
X177979755Y-57998109D01*
X177869542Y-57928166D01*
X177852844Y-57917569D01*
X177804810Y-57900465D01*
X177700016Y-57863149D01*
X177700011Y-57863148D01*
X177693381Y-57860787D01*
X177686395Y-57859954D01*
X177686391Y-57859953D01*
X177567287Y-57845751D01*
X177525301Y-57840745D01*
X177518298Y-57841481D01*
X177518297Y-57841481D01*
X177378878Y-57856134D01*
X177309040Y-57843362D01*
X177276613Y-57819919D01*
X176869957Y-57413263D01*
X176835931Y-57350951D01*
X176840996Y-57280136D01*
X176883543Y-57223300D01*
X176950063Y-57198489D01*
X176972649Y-57199161D01*
X176975216Y-57199742D01*
X176980990Y-57199969D01*
X176980991Y-57199969D01*
X177017537Y-57201405D01*
X177178053Y-57207712D01*
X177278499Y-57193148D01*
X177373231Y-57179413D01*
X177373236Y-57179412D01*
X177378945Y-57178584D01*
X177384409Y-57176729D01*
X177384414Y-57176728D01*
X177565693Y-57115192D01*
X177565698Y-57115190D01*
X177571165Y-57113334D01*
X177576987Y-57110074D01*
X177645683Y-57071602D01*
X177748276Y-57014147D01*
X177810934Y-56962035D01*
X177899913Y-56888031D01*
X177904345Y-56884345D01*
X177957537Y-56820389D01*
X178030453Y-56732718D01*
X178030455Y-56732715D01*
X178034147Y-56728276D01*
X178133334Y-56551165D01*
X178135190Y-56545698D01*
X178135192Y-56545693D01*
X178196728Y-56364414D01*
X178196729Y-56364409D01*
X178198584Y-56358945D01*
X178199412Y-56353236D01*
X178199413Y-56353231D01*
X178227179Y-56161727D01*
X178227712Y-56158053D01*
X178229232Y-56100000D01*
X178210658Y-55897859D01*
X178209090Y-55892299D01*
X178157125Y-55708046D01*
X178157124Y-55708044D01*
X178155557Y-55702487D01*
X178144978Y-55681033D01*
X178068331Y-55525609D01*
X178065776Y-55520428D01*
X178017209Y-55455389D01*
X177992477Y-55388839D01*
X178007651Y-55319483D01*
X178057913Y-55269341D01*
X178118167Y-55254000D01*
X178660619Y-55254000D01*
X178728740Y-55274002D01*
G37*
%TD.AperFunction*%
%TD*%
M02*
