%TF.GenerationSoftware,KiCad,Pcbnew,(6.0.0-0)*%
%TF.CreationDate,2021-12-31T08:36:06+00:00*%
%TF.ProjectId,Shelly,5368656c-6c79-42e6-9b69-6361645f7063,4*%
%TF.SameCoordinates,Original*%
%TF.FileFunction,Legend,Top*%
%TF.FilePolarity,Positive*%
%FSLAX46Y46*%
G04 Gerber Fmt 4.6, Leading zero omitted, Abs format (unit mm)*
G04 Created by KiCad (PCBNEW (6.0.0-0)) date 2021-12-31 08:36:06*
%MOMM*%
%LPD*%
G01*
G04 APERTURE LIST*
%ADD10C,0.080000*%
%ADD11C,0.100000*%
%ADD12C,0.120000*%
G04 APERTURE END LIST*
D10*
%TO.C,D2*%
X179676190Y-67769047D02*
X179176190Y-67769047D01*
X179176190Y-67650000D01*
X179200000Y-67578571D01*
X179247619Y-67530952D01*
X179295238Y-67507142D01*
X179390476Y-67483333D01*
X179461904Y-67483333D01*
X179557142Y-67507142D01*
X179604761Y-67530952D01*
X179652380Y-67578571D01*
X179676190Y-67650000D01*
X179676190Y-67769047D01*
X179223809Y-67292857D02*
X179200000Y-67269047D01*
X179176190Y-67221428D01*
X179176190Y-67102380D01*
X179200000Y-67054761D01*
X179223809Y-67030952D01*
X179271428Y-67007142D01*
X179319047Y-67007142D01*
X179390476Y-67030952D01*
X179676190Y-67316666D01*
X179676190Y-67007142D01*
%TO.C,D1*%
X179726190Y-70769047D02*
X179226190Y-70769047D01*
X179226190Y-70650000D01*
X179250000Y-70578571D01*
X179297619Y-70530952D01*
X179345238Y-70507142D01*
X179440476Y-70483333D01*
X179511904Y-70483333D01*
X179607142Y-70507142D01*
X179654761Y-70530952D01*
X179702380Y-70578571D01*
X179726190Y-70650000D01*
X179726190Y-70769047D01*
X179726190Y-70007142D02*
X179726190Y-70292857D01*
X179726190Y-70150000D02*
X179226190Y-70150000D01*
X179297619Y-70197619D01*
X179345238Y-70245238D01*
X179369047Y-70292857D01*
%TO.C,D3*%
X172226190Y-79669047D02*
X171726190Y-79669047D01*
X171726190Y-79550000D01*
X171750000Y-79478571D01*
X171797619Y-79430952D01*
X171845238Y-79407142D01*
X171940476Y-79383333D01*
X172011904Y-79383333D01*
X172107142Y-79407142D01*
X172154761Y-79430952D01*
X172202380Y-79478571D01*
X172226190Y-79550000D01*
X172226190Y-79669047D01*
X171726190Y-79216666D02*
X171726190Y-78907142D01*
X171916666Y-79073809D01*
X171916666Y-79002380D01*
X171940476Y-78954761D01*
X171964285Y-78930952D01*
X172011904Y-78907142D01*
X172130952Y-78907142D01*
X172178571Y-78930952D01*
X172202380Y-78954761D01*
X172226190Y-79002380D01*
X172226190Y-79145238D01*
X172202380Y-79192857D01*
X172178571Y-79216666D01*
%TO.C,R3*%
X183216666Y-76426190D02*
X183050000Y-76188095D01*
X182930952Y-76426190D02*
X182930952Y-75926190D01*
X183121428Y-75926190D01*
X183169047Y-75950000D01*
X183192857Y-75973809D01*
X183216666Y-76021428D01*
X183216666Y-76092857D01*
X183192857Y-76140476D01*
X183169047Y-76164285D01*
X183121428Y-76188095D01*
X182930952Y-76188095D01*
X183383333Y-75926190D02*
X183692857Y-75926190D01*
X183526190Y-76116666D01*
X183597619Y-76116666D01*
X183645238Y-76140476D01*
X183669047Y-76164285D01*
X183692857Y-76211904D01*
X183692857Y-76330952D01*
X183669047Y-76378571D01*
X183645238Y-76402380D01*
X183597619Y-76426190D01*
X183454761Y-76426190D01*
X183407142Y-76402380D01*
X183383333Y-76378571D01*
%TO.C,R6*%
X170916666Y-76626190D02*
X170750000Y-76388095D01*
X170630952Y-76626190D02*
X170630952Y-76126190D01*
X170821428Y-76126190D01*
X170869047Y-76150000D01*
X170892857Y-76173809D01*
X170916666Y-76221428D01*
X170916666Y-76292857D01*
X170892857Y-76340476D01*
X170869047Y-76364285D01*
X170821428Y-76388095D01*
X170630952Y-76388095D01*
X171345238Y-76126190D02*
X171250000Y-76126190D01*
X171202380Y-76150000D01*
X171178571Y-76173809D01*
X171130952Y-76245238D01*
X171107142Y-76340476D01*
X171107142Y-76530952D01*
X171130952Y-76578571D01*
X171154761Y-76602380D01*
X171202380Y-76626190D01*
X171297619Y-76626190D01*
X171345238Y-76602380D01*
X171369047Y-76578571D01*
X171392857Y-76530952D01*
X171392857Y-76411904D01*
X171369047Y-76364285D01*
X171345238Y-76340476D01*
X171297619Y-76316666D01*
X171202380Y-76316666D01*
X171154761Y-76340476D01*
X171130952Y-76364285D01*
X171107142Y-76411904D01*
%TO.C,R2*%
X182576190Y-80033333D02*
X182338095Y-80200000D01*
X182576190Y-80319047D02*
X182076190Y-80319047D01*
X182076190Y-80128571D01*
X182100000Y-80080952D01*
X182123809Y-80057142D01*
X182171428Y-80033333D01*
X182242857Y-80033333D01*
X182290476Y-80057142D01*
X182314285Y-80080952D01*
X182338095Y-80128571D01*
X182338095Y-80319047D01*
X182123809Y-79842857D02*
X182100000Y-79819047D01*
X182076190Y-79771428D01*
X182076190Y-79652380D01*
X182100000Y-79604761D01*
X182123809Y-79580952D01*
X182171428Y-79557142D01*
X182219047Y-79557142D01*
X182290476Y-79580952D01*
X182576190Y-79866666D01*
X182576190Y-79557142D01*
%TO.C,R4*%
X180026190Y-73083333D02*
X179788095Y-73250000D01*
X180026190Y-73369047D02*
X179526190Y-73369047D01*
X179526190Y-73178571D01*
X179550000Y-73130952D01*
X179573809Y-73107142D01*
X179621428Y-73083333D01*
X179692857Y-73083333D01*
X179740476Y-73107142D01*
X179764285Y-73130952D01*
X179788095Y-73178571D01*
X179788095Y-73369047D01*
X179692857Y-72654761D02*
X180026190Y-72654761D01*
X179502380Y-72773809D02*
X179859523Y-72892857D01*
X179859523Y-72583333D01*
%TO.C,R5*%
X180026190Y-74403333D02*
X179788095Y-74570000D01*
X180026190Y-74689047D02*
X179526190Y-74689047D01*
X179526190Y-74498571D01*
X179550000Y-74450952D01*
X179573809Y-74427142D01*
X179621428Y-74403333D01*
X179692857Y-74403333D01*
X179740476Y-74427142D01*
X179764285Y-74450952D01*
X179788095Y-74498571D01*
X179788095Y-74689047D01*
X179526190Y-73950952D02*
X179526190Y-74189047D01*
X179764285Y-74212857D01*
X179740476Y-74189047D01*
X179716666Y-74141428D01*
X179716666Y-74022380D01*
X179740476Y-73974761D01*
X179764285Y-73950952D01*
X179811904Y-73927142D01*
X179930952Y-73927142D01*
X179978571Y-73950952D01*
X180002380Y-73974761D01*
X180026190Y-74022380D01*
X180026190Y-74141428D01*
X180002380Y-74189047D01*
X179978571Y-74212857D01*
%TO.C,R1*%
X174416666Y-63026190D02*
X174250000Y-62788095D01*
X174130952Y-63026190D02*
X174130952Y-62526190D01*
X174321428Y-62526190D01*
X174369047Y-62550000D01*
X174392857Y-62573809D01*
X174416666Y-62621428D01*
X174416666Y-62692857D01*
X174392857Y-62740476D01*
X174369047Y-62764285D01*
X174321428Y-62788095D01*
X174130952Y-62788095D01*
X174892857Y-63026190D02*
X174607142Y-63026190D01*
X174750000Y-63026190D02*
X174750000Y-62526190D01*
X174702380Y-62597619D01*
X174654761Y-62645238D01*
X174607142Y-62669047D01*
%TO.C,C1*%
X176516666Y-59578571D02*
X176492857Y-59602380D01*
X176421428Y-59626190D01*
X176373809Y-59626190D01*
X176302380Y-59602380D01*
X176254761Y-59554761D01*
X176230952Y-59507142D01*
X176207142Y-59411904D01*
X176207142Y-59340476D01*
X176230952Y-59245238D01*
X176254761Y-59197619D01*
X176302380Y-59150000D01*
X176373809Y-59126190D01*
X176421428Y-59126190D01*
X176492857Y-59150000D01*
X176516666Y-59173809D01*
X176992857Y-59626190D02*
X176707142Y-59626190D01*
X176850000Y-59626190D02*
X176850000Y-59126190D01*
X176802380Y-59197619D01*
X176754761Y-59245238D01*
X176707142Y-59269047D01*
%TO.C,Q1*%
X171952380Y-58373809D02*
X171904761Y-58350000D01*
X171857142Y-58302380D01*
X171785714Y-58230952D01*
X171738095Y-58207142D01*
X171690476Y-58207142D01*
X171714285Y-58326190D02*
X171666666Y-58302380D01*
X171619047Y-58254761D01*
X171595238Y-58159523D01*
X171595238Y-57992857D01*
X171619047Y-57897619D01*
X171666666Y-57850000D01*
X171714285Y-57826190D01*
X171809523Y-57826190D01*
X171857142Y-57850000D01*
X171904761Y-57897619D01*
X171928571Y-57992857D01*
X171928571Y-58159523D01*
X171904761Y-58254761D01*
X171857142Y-58302380D01*
X171809523Y-58326190D01*
X171714285Y-58326190D01*
X172404761Y-58326190D02*
X172119047Y-58326190D01*
X172261904Y-58326190D02*
X172261904Y-57826190D01*
X172214285Y-57897619D01*
X172166666Y-57945238D01*
X172119047Y-57969047D01*
%TO.C,C2*%
X170858571Y-70683333D02*
X170882380Y-70707142D01*
X170906190Y-70778571D01*
X170906190Y-70826190D01*
X170882380Y-70897619D01*
X170834761Y-70945238D01*
X170787142Y-70969047D01*
X170691904Y-70992857D01*
X170620476Y-70992857D01*
X170525238Y-70969047D01*
X170477619Y-70945238D01*
X170430000Y-70897619D01*
X170406190Y-70826190D01*
X170406190Y-70778571D01*
X170430000Y-70707142D01*
X170453809Y-70683333D01*
X170453809Y-70492857D02*
X170430000Y-70469047D01*
X170406190Y-70421428D01*
X170406190Y-70302380D01*
X170430000Y-70254761D01*
X170453809Y-70230952D01*
X170501428Y-70207142D01*
X170549047Y-70207142D01*
X170620476Y-70230952D01*
X170906190Y-70516666D01*
X170906190Y-70207142D01*
%TO.C,C3*%
X173396666Y-73478571D02*
X173372857Y-73502380D01*
X173301428Y-73526190D01*
X173253809Y-73526190D01*
X173182380Y-73502380D01*
X173134761Y-73454761D01*
X173110952Y-73407142D01*
X173087142Y-73311904D01*
X173087142Y-73240476D01*
X173110952Y-73145238D01*
X173134761Y-73097619D01*
X173182380Y-73050000D01*
X173253809Y-73026190D01*
X173301428Y-73026190D01*
X173372857Y-73050000D01*
X173396666Y-73073809D01*
X173563333Y-73026190D02*
X173872857Y-73026190D01*
X173706190Y-73216666D01*
X173777619Y-73216666D01*
X173825238Y-73240476D01*
X173849047Y-73264285D01*
X173872857Y-73311904D01*
X173872857Y-73430952D01*
X173849047Y-73478571D01*
X173825238Y-73502380D01*
X173777619Y-73526190D01*
X173634761Y-73526190D01*
X173587142Y-73502380D01*
X173563333Y-73478571D01*
%TO.C,C4*%
X176546666Y-73478571D02*
X176522857Y-73502380D01*
X176451428Y-73526190D01*
X176403809Y-73526190D01*
X176332380Y-73502380D01*
X176284761Y-73454761D01*
X176260952Y-73407142D01*
X176237142Y-73311904D01*
X176237142Y-73240476D01*
X176260952Y-73145238D01*
X176284761Y-73097619D01*
X176332380Y-73050000D01*
X176403809Y-73026190D01*
X176451428Y-73026190D01*
X176522857Y-73050000D01*
X176546666Y-73073809D01*
X176975238Y-73192857D02*
X176975238Y-73526190D01*
X176856190Y-73002380D02*
X176737142Y-73359523D01*
X177046666Y-73359523D01*
%TO.C,D4*%
X174630952Y-73526190D02*
X174630952Y-73026190D01*
X174750000Y-73026190D01*
X174821428Y-73050000D01*
X174869047Y-73097619D01*
X174892857Y-73145238D01*
X174916666Y-73240476D01*
X174916666Y-73311904D01*
X174892857Y-73407142D01*
X174869047Y-73454761D01*
X174821428Y-73502380D01*
X174750000Y-73526190D01*
X174630952Y-73526190D01*
X175345238Y-73192857D02*
X175345238Y-73526190D01*
X175226190Y-73002380D02*
X175107142Y-73359523D01*
X175416666Y-73359523D01*
%TO.C,L1*%
X178266666Y-66476190D02*
X178028571Y-66476190D01*
X178028571Y-65976190D01*
X178695238Y-66476190D02*
X178409523Y-66476190D01*
X178552380Y-66476190D02*
X178552380Y-65976190D01*
X178504761Y-66047619D01*
X178457142Y-66095238D01*
X178409523Y-66119047D01*
D11*
%TO.C,U2*%
X174299047Y-65976190D02*
X174299047Y-66380952D01*
X174322857Y-66428571D01*
X174346666Y-66452380D01*
X174394285Y-66476190D01*
X174489523Y-66476190D01*
X174537142Y-66452380D01*
X174560952Y-66428571D01*
X174584761Y-66380952D01*
X174584761Y-65976190D01*
X174799047Y-66023809D02*
X174822857Y-66000000D01*
X174870476Y-65976190D01*
X174989523Y-65976190D01*
X175037142Y-66000000D01*
X175060952Y-66023809D01*
X175084761Y-66071428D01*
X175084761Y-66119047D01*
X175060952Y-66190476D01*
X174775238Y-66476190D01*
X175084761Y-66476190D01*
D12*
%TO.C,D2*%
X182000000Y-66240000D02*
X180100000Y-66240000D01*
X180600000Y-68560000D02*
X182000000Y-68560000D01*
%TO.C,D1*%
X182050000Y-69240000D02*
X180150000Y-69240000D01*
X180650000Y-71560000D02*
X182050000Y-71560000D01*
%TO.C,D3*%
X170265000Y-80200000D02*
X170265000Y-82660000D01*
X170265000Y-82660000D02*
X171735000Y-82660000D01*
X171735000Y-82660000D02*
X171735000Y-80200000D01*
%TO.C,R3*%
X182790000Y-78240580D02*
X182790000Y-77959420D01*
X183810000Y-78240580D02*
X183810000Y-77959420D01*
%TO.C,J1*%
X170710000Y-54770000D02*
X170710000Y-57430000D01*
X180930000Y-54770000D02*
X170710000Y-54770000D01*
X180930000Y-57430000D02*
X170710000Y-57430000D01*
X180930000Y-54770000D02*
X180930000Y-57430000D01*
X182200000Y-54770000D02*
X183530000Y-54770000D01*
X183530000Y-54770000D02*
X183530000Y-56100000D01*
%TO.C,U1*%
X179315000Y-64310000D02*
X178590000Y-64310000D01*
X182085000Y-60090000D02*
X182810000Y-60090000D01*
X179315000Y-60090000D02*
X178590000Y-60090000D01*
X182810000Y-60090000D02*
X182810000Y-60815000D01*
X178590000Y-64310000D02*
X178590000Y-63585000D01*
X178590000Y-60090000D02*
X178590000Y-60815000D01*
X182782843Y-64000000D02*
G75*
G03*
X182782843Y-64000000I-282843J0D01*
G01*
%TO.C,R6*%
X171510000Y-77859420D02*
X171510000Y-78140580D01*
X170490000Y-77859420D02*
X170490000Y-78140580D01*
%TO.C,R2*%
X183810000Y-80859420D02*
X183810000Y-81140580D01*
X182790000Y-80859420D02*
X182790000Y-81140580D01*
%TO.C,R4*%
X181259420Y-72490000D02*
X181540580Y-72490000D01*
X181259420Y-73510000D02*
X181540580Y-73510000D01*
%TO.C,R5*%
X181259420Y-73810000D02*
X181540580Y-73810000D01*
X181259420Y-74830000D02*
X181540580Y-74830000D01*
%TO.C,R1*%
X173990000Y-61340580D02*
X173990000Y-61059420D01*
X175010000Y-61340580D02*
X175010000Y-61059420D01*
%TO.C,C1*%
X176740580Y-59890000D02*
X176459420Y-59890000D01*
X176740580Y-60910000D02*
X176459420Y-60910000D01*
%TO.C,Q1*%
X172000000Y-61760000D02*
X172650000Y-61760000D01*
X172000000Y-61760000D02*
X171350000Y-61760000D01*
X172000000Y-58640000D02*
X172650000Y-58640000D01*
X172000000Y-58640000D02*
X170325000Y-58640000D01*
%TD*%
M02*
