%TF.GenerationSoftware,KiCad,Pcbnew,(6.0.2-0)*%
%TF.CreationDate,2022-02-18T14:11:45+00:00*%
%TF.ProjectId,Shelly,5368656c-6c79-42e6-9b69-6361645f7063,4*%
%TF.SameCoordinates,Original*%
%TF.FileFunction,Legend,Top*%
%TF.FilePolarity,Positive*%
%FSLAX46Y46*%
G04 Gerber Fmt 4.6, Leading zero omitted, Abs format (unit mm)*
G04 Created by KiCad (PCBNEW (6.0.2-0)) date 2022-02-18 14:11:45*
%MOMM*%
%LPD*%
G01*
G04 APERTURE LIST*
%ADD10C,0.120000*%
G04 APERTURE END LIST*
D10*
%TO.C,D3*%
X170265000Y-80200000D02*
X170265000Y-82660000D01*
X171735000Y-82660000D02*
X171735000Y-80200000D01*
X170265000Y-82660000D02*
X171735000Y-82660000D01*
%TO.C,R3*%
X182800000Y-78400000D02*
X182800000Y-77800000D01*
X183800000Y-78400000D02*
X183800000Y-77800000D01*
%TO.C,J1*%
X180930000Y-57430000D02*
X170710000Y-57430000D01*
X183530000Y-54770000D02*
X183530000Y-56100000D01*
X180930000Y-54770000D02*
X170710000Y-54770000D01*
X170710000Y-54770000D02*
X170710000Y-57430000D01*
X180930000Y-54770000D02*
X180930000Y-57430000D01*
X182200000Y-54770000D02*
X183530000Y-54770000D01*
%TO.C,U1*%
X179315000Y-64610000D02*
X178590000Y-64610000D01*
X182085000Y-60390000D02*
X182810000Y-60390000D01*
X179315000Y-60390000D02*
X178590000Y-60390000D01*
X182810000Y-60390000D02*
X182810000Y-61115000D01*
X178590000Y-64610000D02*
X178590000Y-63885000D01*
X178590000Y-60390000D02*
X178590000Y-61115000D01*
X182782843Y-64300000D02*
G75*
G03*
X182782843Y-64300000I-282843J0D01*
G01*
%TO.C,R6*%
X171500000Y-77700000D02*
X171500000Y-78300000D01*
X170500000Y-77700000D02*
X170500000Y-78300000D01*
%TO.C,R2*%
X183800000Y-80700000D02*
X183800000Y-81300000D01*
X182800000Y-80700000D02*
X182800000Y-81300000D01*
%TO.C,R4*%
X181100000Y-72500000D02*
X181700000Y-72500000D01*
X181100000Y-73500000D02*
X181700000Y-73500000D01*
%TO.C,R5*%
X181100000Y-73820000D02*
X181700000Y-73820000D01*
X181100000Y-74820000D02*
X181700000Y-74820000D01*
%TO.C,D1*%
X180100000Y-69375000D02*
X180700000Y-69375000D01*
%TO.C,D2*%
X180050000Y-66475000D02*
X180650000Y-66475000D01*
%TO.C,C1*%
X177090000Y-60700000D02*
X176490000Y-60700000D01*
X177090000Y-61700000D02*
X176490000Y-61700000D01*
%TO.C,Q2*%
X170240000Y-59070000D02*
X170900000Y-59070000D01*
X172560000Y-60480000D02*
X172560000Y-59070000D01*
X171900000Y-59070000D02*
X172560000Y-59070000D01*
X170240000Y-59070000D02*
X170240000Y-61100000D01*
%TO.C,R7*%
X176650000Y-65950000D02*
X176050000Y-65950000D01*
X176650000Y-64950000D02*
X176050000Y-64950000D01*
%TO.C,R8*%
X172200000Y-65000000D02*
X172200000Y-65600000D01*
X171200000Y-65000000D02*
X171200000Y-65600000D01*
%TO.C,Q1*%
X172740000Y-59070000D02*
X173400000Y-59070000D01*
X175060000Y-60480000D02*
X175060000Y-59070000D01*
X174400000Y-59070000D02*
X175060000Y-59070000D01*
X172740000Y-59070000D02*
X172740000Y-61100000D01*
%TO.C,U2*%
X171230000Y-68075000D02*
X174330000Y-68075000D01*
X174505000Y-71125000D02*
X174505000Y-72725000D01*
%TD*%
M02*
