M48
; DRILL file {KiCad (5.1.10-1-10_14)} date Wednesday, May 12, 2021 at 08:07:53 AM
; FORMAT={-:-/ absolute / inch / decimal}
; #@! TF.CreationDate,2021-05-12T08:07:53+01:00
; #@! TF.GenerationSoftware,Kicad,Pcbnew,(5.1.10-1-10_14)
; #@! TF.FileFunction,Plated,1,2,PTH
FMAT,2
INCH
T1C0.0098
T2C0.0157
T3C0.0236
T4C0.0256
T5C0.0394
T6C0.0472
T7C0.0591
%
G90
G05
T1
X7.1102Y-2.5
T2
X6.7185Y-2.9409
X6.7402Y-2.3819
X6.7717Y-3.2421
X6.7756Y-2.5984
X6.7997Y-2.5672
X6.8274Y-2.941
X6.8348Y-2.6024
X6.8386Y-2.3839
X6.8976Y-2.4291
X6.8986Y-2.948
X6.9527Y-2.5857
X6.9557Y-2.9389
X6.9738Y-2.4435
X6.9822Y-2.5597
X7.0179Y-2.9432
X7.0389Y-2.3625
X7.0748Y-2.6457
X7.1181Y-2.7913
X7.1319Y-2.634
X7.1388Y-2.3707
X7.1564Y-2.6663
X7.1654Y-3.1181
X7.1776Y-2.3641
X7.1973Y-2.6248
X7.2092Y-2.7121
X7.2185Y-2.3622
T3
X6.8547Y-3.0398
X7.0823Y-3.0398
T4
X6.939Y-2.3071
X6.989Y-2.3071
X7.039Y-2.3071
X7.089Y-2.3071
X7.139Y-2.3071
X7.189Y-2.3071
T5
X6.7732Y-2.2087
X6.8732Y-2.2087
X6.9732Y-2.2087
X7.0732Y-2.2087
X7.1732Y-2.2087
T6
X6.7982Y-3.1854
X7.1388Y-3.1854
T7
X6.7982Y-3.0209
X7.1388Y-3.0209
T0
M30
