%TF.GenerationSoftware,KiCad,Pcbnew,(5.1.9-0-10_14)*%
%TF.CreationDate,2021-08-07T12:39:11+01:00*%
%TF.ProjectId,Shelly,5368656c-6c79-42e6-9b69-6361645f7063,4*%
%TF.SameCoordinates,Original*%
%TF.FileFunction,Soldermask,Top*%
%TF.FilePolarity,Negative*%
%FSLAX46Y46*%
G04 Gerber Fmt 4.6, Leading zero omitted, Abs format (unit mm)*
G04 Created by KiCad (PCBNEW (5.1.9-0-10_14)) date 2021-08-07 12:39:11*
%MOMM*%
%LPD*%
G01*
G04 APERTURE LIST*
%ADD10R,0.900000X0.800000*%
%ADD11R,0.650000X0.400000*%
%ADD12C,0.350000*%
%ADD13C,0.100000*%
%ADD14R,0.600000X1.100000*%
%ADD15R,1.425000X3.700000*%
%ADD16O,1.700000X1.700000*%
%ADD17R,1.700000X1.700000*%
%ADD18R,5.000000X5.490000*%
%ADD19R,0.600000X1.140000*%
%ADD20C,1.250000*%
%ADD21C,1.500000*%
%ADD22R,0.300000X1.140000*%
%ADD23C,0.800000*%
%ADD24O,1.000000X1.000000*%
%ADD25R,1.000000X1.000000*%
G04 APERTURE END LIST*
%TO.C,R6*%
G36*
G01*
X174775000Y-60775000D02*
X174225000Y-60775000D01*
G75*
G02*
X174025000Y-60575000I0J200000D01*
G01*
X174025000Y-60175000D01*
G75*
G02*
X174225000Y-59975000I200000J0D01*
G01*
X174775000Y-59975000D01*
G75*
G02*
X174975000Y-60175000I0J-200000D01*
G01*
X174975000Y-60575000D01*
G75*
G02*
X174775000Y-60775000I-200000J0D01*
G01*
G37*
G36*
G01*
X174775000Y-62425000D02*
X174225000Y-62425000D01*
G75*
G02*
X174025000Y-62225000I0J200000D01*
G01*
X174025000Y-61825000D01*
G75*
G02*
X174225000Y-61625000I200000J0D01*
G01*
X174775000Y-61625000D01*
G75*
G02*
X174975000Y-61825000I0J-200000D01*
G01*
X174975000Y-62225000D01*
G75*
G02*
X174775000Y-62425000I-200000J0D01*
G01*
G37*
%TD*%
D10*
%TO.C,Q1*%
X173000000Y-60200000D03*
X171000000Y-61150000D03*
X171000000Y-59250000D03*
%TD*%
D11*
%TO.C,D3*%
X182250000Y-66750000D03*
X182250000Y-68050000D03*
X180350000Y-67400000D03*
X182250000Y-67400000D03*
X180350000Y-68050000D03*
X180350000Y-66750000D03*
%TD*%
%TO.C,D2*%
X182300000Y-69750000D03*
X182300000Y-71050000D03*
X180400000Y-70400000D03*
X182300000Y-70400000D03*
X180400000Y-71050000D03*
X180400000Y-69750000D03*
%TD*%
D12*
%TO.C,U1*%
X180700000Y-62200000D03*
D13*
G36*
X179700000Y-61200000D02*
G01*
X181700000Y-61200000D01*
X181700000Y-62950000D01*
X181450000Y-63200000D01*
X179700000Y-63200000D01*
X179700000Y-61200000D01*
G37*
G36*
G01*
X181825000Y-63812500D02*
X181825000Y-64387500D01*
G75*
G02*
X181762500Y-64450000I-62500J0D01*
G01*
X181637500Y-64450000D01*
G75*
G02*
X181575000Y-64387500I0J62500D01*
G01*
X181575000Y-63812500D01*
G75*
G02*
X181637500Y-63750000I62500J0D01*
G01*
X181762500Y-63750000D01*
G75*
G02*
X181825000Y-63812500I0J-62500D01*
G01*
G37*
G36*
G01*
X181325000Y-63812500D02*
X181325000Y-64387500D01*
G75*
G02*
X181262500Y-64450000I-62500J0D01*
G01*
X181137500Y-64450000D01*
G75*
G02*
X181075000Y-64387500I0J62500D01*
G01*
X181075000Y-63812500D01*
G75*
G02*
X181137500Y-63750000I62500J0D01*
G01*
X181262500Y-63750000D01*
G75*
G02*
X181325000Y-63812500I0J-62500D01*
G01*
G37*
G36*
G01*
X180825000Y-63812500D02*
X180825000Y-64387500D01*
G75*
G02*
X180762500Y-64450000I-62500J0D01*
G01*
X180637500Y-64450000D01*
G75*
G02*
X180575000Y-64387500I0J62500D01*
G01*
X180575000Y-63812500D01*
G75*
G02*
X180637500Y-63750000I62500J0D01*
G01*
X180762500Y-63750000D01*
G75*
G02*
X180825000Y-63812500I0J-62500D01*
G01*
G37*
G36*
G01*
X180325000Y-63812500D02*
X180325000Y-64387500D01*
G75*
G02*
X180262500Y-64450000I-62500J0D01*
G01*
X180137500Y-64450000D01*
G75*
G02*
X180075000Y-64387500I0J62500D01*
G01*
X180075000Y-63812500D01*
G75*
G02*
X180137500Y-63750000I62500J0D01*
G01*
X180262500Y-63750000D01*
G75*
G02*
X180325000Y-63812500I0J-62500D01*
G01*
G37*
G36*
G01*
X179825000Y-63812500D02*
X179825000Y-64387500D01*
G75*
G02*
X179762500Y-64450000I-62500J0D01*
G01*
X179637500Y-64450000D01*
G75*
G02*
X179575000Y-64387500I0J62500D01*
G01*
X179575000Y-63812500D01*
G75*
G02*
X179637500Y-63750000I62500J0D01*
G01*
X179762500Y-63750000D01*
G75*
G02*
X179825000Y-63812500I0J-62500D01*
G01*
G37*
G36*
G01*
X179150000Y-63137500D02*
X179150000Y-63262500D01*
G75*
G02*
X179087500Y-63325000I-62500J0D01*
G01*
X178512500Y-63325000D01*
G75*
G02*
X178450000Y-63262500I0J62500D01*
G01*
X178450000Y-63137500D01*
G75*
G02*
X178512500Y-63075000I62500J0D01*
G01*
X179087500Y-63075000D01*
G75*
G02*
X179150000Y-63137500I0J-62500D01*
G01*
G37*
G36*
G01*
X179150000Y-62637500D02*
X179150000Y-62762500D01*
G75*
G02*
X179087500Y-62825000I-62500J0D01*
G01*
X178512500Y-62825000D01*
G75*
G02*
X178450000Y-62762500I0J62500D01*
G01*
X178450000Y-62637500D01*
G75*
G02*
X178512500Y-62575000I62500J0D01*
G01*
X179087500Y-62575000D01*
G75*
G02*
X179150000Y-62637500I0J-62500D01*
G01*
G37*
G36*
G01*
X179150000Y-62137500D02*
X179150000Y-62262500D01*
G75*
G02*
X179087500Y-62325000I-62500J0D01*
G01*
X178512500Y-62325000D01*
G75*
G02*
X178450000Y-62262500I0J62500D01*
G01*
X178450000Y-62137500D01*
G75*
G02*
X178512500Y-62075000I62500J0D01*
G01*
X179087500Y-62075000D01*
G75*
G02*
X179150000Y-62137500I0J-62500D01*
G01*
G37*
G36*
G01*
X179150000Y-61637500D02*
X179150000Y-61762500D01*
G75*
G02*
X179087500Y-61825000I-62500J0D01*
G01*
X178512500Y-61825000D01*
G75*
G02*
X178450000Y-61762500I0J62500D01*
G01*
X178450000Y-61637500D01*
G75*
G02*
X178512500Y-61575000I62500J0D01*
G01*
X179087500Y-61575000D01*
G75*
G02*
X179150000Y-61637500I0J-62500D01*
G01*
G37*
G36*
G01*
X179150000Y-61137500D02*
X179150000Y-61262500D01*
G75*
G02*
X179087500Y-61325000I-62500J0D01*
G01*
X178512500Y-61325000D01*
G75*
G02*
X178450000Y-61262500I0J62500D01*
G01*
X178450000Y-61137500D01*
G75*
G02*
X178512500Y-61075000I62500J0D01*
G01*
X179087500Y-61075000D01*
G75*
G02*
X179150000Y-61137500I0J-62500D01*
G01*
G37*
G36*
G01*
X179825000Y-60012500D02*
X179825000Y-60587500D01*
G75*
G02*
X179762500Y-60650000I-62500J0D01*
G01*
X179637500Y-60650000D01*
G75*
G02*
X179575000Y-60587500I0J62500D01*
G01*
X179575000Y-60012500D01*
G75*
G02*
X179637500Y-59950000I62500J0D01*
G01*
X179762500Y-59950000D01*
G75*
G02*
X179825000Y-60012500I0J-62500D01*
G01*
G37*
G36*
G01*
X180325000Y-60012500D02*
X180325000Y-60587500D01*
G75*
G02*
X180262500Y-60650000I-62500J0D01*
G01*
X180137500Y-60650000D01*
G75*
G02*
X180075000Y-60587500I0J62500D01*
G01*
X180075000Y-60012500D01*
G75*
G02*
X180137500Y-59950000I62500J0D01*
G01*
X180262500Y-59950000D01*
G75*
G02*
X180325000Y-60012500I0J-62500D01*
G01*
G37*
G36*
G01*
X180825000Y-60012500D02*
X180825000Y-60587500D01*
G75*
G02*
X180762500Y-60650000I-62500J0D01*
G01*
X180637500Y-60650000D01*
G75*
G02*
X180575000Y-60587500I0J62500D01*
G01*
X180575000Y-60012500D01*
G75*
G02*
X180637500Y-59950000I62500J0D01*
G01*
X180762500Y-59950000D01*
G75*
G02*
X180825000Y-60012500I0J-62500D01*
G01*
G37*
G36*
G01*
X181325000Y-60012500D02*
X181325000Y-60587500D01*
G75*
G02*
X181262500Y-60650000I-62500J0D01*
G01*
X181137500Y-60650000D01*
G75*
G02*
X181075000Y-60587500I0J62500D01*
G01*
X181075000Y-60012500D01*
G75*
G02*
X181137500Y-59950000I62500J0D01*
G01*
X181262500Y-59950000D01*
G75*
G02*
X181325000Y-60012500I0J-62500D01*
G01*
G37*
G36*
G01*
X181825000Y-60012500D02*
X181825000Y-60587500D01*
G75*
G02*
X181762500Y-60650000I-62500J0D01*
G01*
X181637500Y-60650000D01*
G75*
G02*
X181575000Y-60587500I0J62500D01*
G01*
X181575000Y-60012500D01*
G75*
G02*
X181637500Y-59950000I62500J0D01*
G01*
X181762500Y-59950000D01*
G75*
G02*
X181825000Y-60012500I0J-62500D01*
G01*
G37*
G36*
G01*
X182950000Y-61137500D02*
X182950000Y-61262500D01*
G75*
G02*
X182887500Y-61325000I-62500J0D01*
G01*
X182312500Y-61325000D01*
G75*
G02*
X182250000Y-61262500I0J62500D01*
G01*
X182250000Y-61137500D01*
G75*
G02*
X182312500Y-61075000I62500J0D01*
G01*
X182887500Y-61075000D01*
G75*
G02*
X182950000Y-61137500I0J-62500D01*
G01*
G37*
G36*
G01*
X182950000Y-61637500D02*
X182950000Y-61762500D01*
G75*
G02*
X182887500Y-61825000I-62500J0D01*
G01*
X182312500Y-61825000D01*
G75*
G02*
X182250000Y-61762500I0J62500D01*
G01*
X182250000Y-61637500D01*
G75*
G02*
X182312500Y-61575000I62500J0D01*
G01*
X182887500Y-61575000D01*
G75*
G02*
X182950000Y-61637500I0J-62500D01*
G01*
G37*
G36*
G01*
X182950000Y-62137500D02*
X182950000Y-62262500D01*
G75*
G02*
X182887500Y-62325000I-62500J0D01*
G01*
X182312500Y-62325000D01*
G75*
G02*
X182250000Y-62262500I0J62500D01*
G01*
X182250000Y-62137500D01*
G75*
G02*
X182312500Y-62075000I62500J0D01*
G01*
X182887500Y-62075000D01*
G75*
G02*
X182950000Y-62137500I0J-62500D01*
G01*
G37*
G36*
G01*
X182950000Y-62637500D02*
X182950000Y-62762500D01*
G75*
G02*
X182887500Y-62825000I-62500J0D01*
G01*
X182312500Y-62825000D01*
G75*
G02*
X182250000Y-62762500I0J62500D01*
G01*
X182250000Y-62637500D01*
G75*
G02*
X182312500Y-62575000I62500J0D01*
G01*
X182887500Y-62575000D01*
G75*
G02*
X182950000Y-62637500I0J-62500D01*
G01*
G37*
G36*
G01*
X182950000Y-63137500D02*
X182950000Y-63262500D01*
G75*
G02*
X182887500Y-63325000I-62500J0D01*
G01*
X182312500Y-63325000D01*
G75*
G02*
X182250000Y-63262500I0J62500D01*
G01*
X182250000Y-63137500D01*
G75*
G02*
X182312500Y-63075000I62500J0D01*
G01*
X182887500Y-63075000D01*
G75*
G02*
X182950000Y-63137500I0J-62500D01*
G01*
G37*
%TD*%
D14*
%TO.C,Reg1*%
X173760000Y-67440000D03*
X171860000Y-67440000D03*
X172810000Y-67440000D03*
X171860000Y-70140000D03*
X172810000Y-70140000D03*
X173760000Y-70140000D03*
G36*
G01*
X177735000Y-70890000D02*
X178685000Y-70890000D01*
G75*
G02*
X178935000Y-71140000I0J-250000D01*
G01*
X178935000Y-71640000D01*
G75*
G02*
X178685000Y-71890000I-250000J0D01*
G01*
X177735000Y-71890000D01*
G75*
G02*
X177485000Y-71640000I0J250000D01*
G01*
X177485000Y-71140000D01*
G75*
G02*
X177735000Y-70890000I250000J0D01*
G01*
G37*
G36*
G01*
X177735000Y-72790000D02*
X178685000Y-72790000D01*
G75*
G02*
X178935000Y-73040000I0J-250000D01*
G01*
X178935000Y-73540000D01*
G75*
G02*
X178685000Y-73790000I-250000J0D01*
G01*
X177735000Y-73790000D01*
G75*
G02*
X177485000Y-73540000I0J250000D01*
G01*
X177485000Y-73040000D01*
G75*
G02*
X177735000Y-72790000I250000J0D01*
G01*
G37*
G36*
G01*
X171485000Y-72790000D02*
X172435000Y-72790000D01*
G75*
G02*
X172685000Y-73040000I0J-250000D01*
G01*
X172685000Y-73540000D01*
G75*
G02*
X172435000Y-73790000I-250000J0D01*
G01*
X171485000Y-73790000D01*
G75*
G02*
X171235000Y-73540000I0J250000D01*
G01*
X171235000Y-73040000D01*
G75*
G02*
X171485000Y-72790000I250000J0D01*
G01*
G37*
G36*
G01*
X171485000Y-70890000D02*
X172435000Y-70890000D01*
G75*
G02*
X172685000Y-71140000I0J-250000D01*
G01*
X172685000Y-71640000D01*
G75*
G02*
X172435000Y-71890000I-250000J0D01*
G01*
X171485000Y-71890000D01*
G75*
G02*
X171235000Y-71640000I0J250000D01*
G01*
X171235000Y-71140000D01*
G75*
G02*
X171485000Y-70890000I250000J0D01*
G01*
G37*
G36*
G01*
X170960000Y-68465000D02*
X170460000Y-68465000D01*
G75*
G02*
X170235000Y-68240000I0J225000D01*
G01*
X170235000Y-67790000D01*
G75*
G02*
X170460000Y-67565000I225000J0D01*
G01*
X170960000Y-67565000D01*
G75*
G02*
X171185000Y-67790000I0J-225000D01*
G01*
X171185000Y-68240000D01*
G75*
G02*
X170960000Y-68465000I-225000J0D01*
G01*
G37*
G36*
G01*
X170960000Y-70015000D02*
X170460000Y-70015000D01*
G75*
G02*
X170235000Y-69790000I0J225000D01*
G01*
X170235000Y-69340000D01*
G75*
G02*
X170460000Y-69115000I225000J0D01*
G01*
X170960000Y-69115000D01*
G75*
G02*
X171185000Y-69340000I0J-225000D01*
G01*
X171185000Y-69790000D01*
G75*
G02*
X170960000Y-70015000I-225000J0D01*
G01*
G37*
G36*
G01*
X172885000Y-72585626D02*
X172885000Y-71334374D01*
G75*
G02*
X173134374Y-71085000I249374J0D01*
G01*
X174060626Y-71085000D01*
G75*
G02*
X174310000Y-71334374I0J-249374D01*
G01*
X174310000Y-72585626D01*
G75*
G02*
X174060626Y-72835000I-249374J0D01*
G01*
X173134374Y-72835000D01*
G75*
G02*
X172885000Y-72585626I0J249374D01*
G01*
G37*
G36*
G01*
X175860000Y-72585626D02*
X175860000Y-71334374D01*
G75*
G02*
X176109374Y-71085000I249374J0D01*
G01*
X177035626Y-71085000D01*
G75*
G02*
X177285000Y-71334374I0J-249374D01*
G01*
X177285000Y-72585626D01*
G75*
G02*
X177035626Y-72835000I-249374J0D01*
G01*
X176109374Y-72835000D01*
G75*
G02*
X175860000Y-72585626I0J249374D01*
G01*
G37*
D15*
X178210000Y-68840000D03*
X175210000Y-68840000D03*
%TD*%
D16*
%TO.C,J1*%
X172040000Y-56100000D03*
X174580000Y-56100000D03*
X177120000Y-56100000D03*
X179660000Y-56100000D03*
D17*
X182200000Y-56100000D03*
%TD*%
%TO.C,R5*%
G36*
G01*
X181825000Y-74675000D02*
X181825000Y-74125000D01*
G75*
G02*
X182025000Y-73925000I200000J0D01*
G01*
X182425000Y-73925000D01*
G75*
G02*
X182625000Y-74125000I0J-200000D01*
G01*
X182625000Y-74675000D01*
G75*
G02*
X182425000Y-74875000I-200000J0D01*
G01*
X182025000Y-74875000D01*
G75*
G02*
X181825000Y-74675000I0J200000D01*
G01*
G37*
G36*
G01*
X180175000Y-74675000D02*
X180175000Y-74125000D01*
G75*
G02*
X180375000Y-73925000I200000J0D01*
G01*
X180775000Y-73925000D01*
G75*
G02*
X180975000Y-74125000I0J-200000D01*
G01*
X180975000Y-74675000D01*
G75*
G02*
X180775000Y-74875000I-200000J0D01*
G01*
X180375000Y-74875000D01*
G75*
G02*
X180175000Y-74675000I0J200000D01*
G01*
G37*
%TD*%
%TO.C,R4*%
G36*
G01*
X181825000Y-73275000D02*
X181825000Y-72725000D01*
G75*
G02*
X182025000Y-72525000I200000J0D01*
G01*
X182425000Y-72525000D01*
G75*
G02*
X182625000Y-72725000I0J-200000D01*
G01*
X182625000Y-73275000D01*
G75*
G02*
X182425000Y-73475000I-200000J0D01*
G01*
X182025000Y-73475000D01*
G75*
G02*
X181825000Y-73275000I0J200000D01*
G01*
G37*
G36*
G01*
X180175000Y-73275000D02*
X180175000Y-72725000D01*
G75*
G02*
X180375000Y-72525000I200000J0D01*
G01*
X180775000Y-72525000D01*
G75*
G02*
X180975000Y-72725000I0J-200000D01*
G01*
X180975000Y-73275000D01*
G75*
G02*
X180775000Y-73475000I-200000J0D01*
G01*
X180375000Y-73475000D01*
G75*
G02*
X180175000Y-73275000I0J200000D01*
G01*
G37*
%TD*%
%TO.C,R3*%
G36*
G01*
X170725000Y-78425000D02*
X171275000Y-78425000D01*
G75*
G02*
X171475000Y-78625000I0J-200000D01*
G01*
X171475000Y-79025000D01*
G75*
G02*
X171275000Y-79225000I-200000J0D01*
G01*
X170725000Y-79225000D01*
G75*
G02*
X170525000Y-79025000I0J200000D01*
G01*
X170525000Y-78625000D01*
G75*
G02*
X170725000Y-78425000I200000J0D01*
G01*
G37*
G36*
G01*
X170725000Y-76775000D02*
X171275000Y-76775000D01*
G75*
G02*
X171475000Y-76975000I0J-200000D01*
G01*
X171475000Y-77375000D01*
G75*
G02*
X171275000Y-77575000I-200000J0D01*
G01*
X170725000Y-77575000D01*
G75*
G02*
X170525000Y-77375000I0J200000D01*
G01*
X170525000Y-76975000D01*
G75*
G02*
X170725000Y-76775000I200000J0D01*
G01*
G37*
%TD*%
%TO.C,R2*%
G36*
G01*
X183575000Y-77675000D02*
X183025000Y-77675000D01*
G75*
G02*
X182825000Y-77475000I0J200000D01*
G01*
X182825000Y-77075000D01*
G75*
G02*
X183025000Y-76875000I200000J0D01*
G01*
X183575000Y-76875000D01*
G75*
G02*
X183775000Y-77075000I0J-200000D01*
G01*
X183775000Y-77475000D01*
G75*
G02*
X183575000Y-77675000I-200000J0D01*
G01*
G37*
G36*
G01*
X183575000Y-79325000D02*
X183025000Y-79325000D01*
G75*
G02*
X182825000Y-79125000I0J200000D01*
G01*
X182825000Y-78725000D01*
G75*
G02*
X183025000Y-78525000I200000J0D01*
G01*
X183575000Y-78525000D01*
G75*
G02*
X183775000Y-78725000I0J-200000D01*
G01*
X183775000Y-79125000D01*
G75*
G02*
X183575000Y-79325000I-200000J0D01*
G01*
G37*
%TD*%
%TO.C,R1*%
G36*
G01*
X183025000Y-81425000D02*
X183575000Y-81425000D01*
G75*
G02*
X183775000Y-81625000I0J-200000D01*
G01*
X183775000Y-82025000D01*
G75*
G02*
X183575000Y-82225000I-200000J0D01*
G01*
X183025000Y-82225000D01*
G75*
G02*
X182825000Y-82025000I0J200000D01*
G01*
X182825000Y-81625000D01*
G75*
G02*
X183025000Y-81425000I200000J0D01*
G01*
G37*
G36*
G01*
X183025000Y-79775000D02*
X183575000Y-79775000D01*
G75*
G02*
X183775000Y-79975000I0J-200000D01*
G01*
X183775000Y-80375000D01*
G75*
G02*
X183575000Y-80575000I-200000J0D01*
G01*
X183025000Y-80575000D01*
G75*
G02*
X182825000Y-80375000I0J200000D01*
G01*
X182825000Y-79975000D01*
G75*
G02*
X183025000Y-79775000I200000J0D01*
G01*
G37*
%TD*%
%TO.C,C1*%
G36*
G01*
X176275000Y-60150000D02*
X176275000Y-60650000D01*
G75*
G02*
X176050000Y-60875000I-225000J0D01*
G01*
X175600000Y-60875000D01*
G75*
G02*
X175375000Y-60650000I0J225000D01*
G01*
X175375000Y-60150000D01*
G75*
G02*
X175600000Y-59925000I225000J0D01*
G01*
X176050000Y-59925000D01*
G75*
G02*
X176275000Y-60150000I0J-225000D01*
G01*
G37*
G36*
G01*
X177825000Y-60150000D02*
X177825000Y-60650000D01*
G75*
G02*
X177600000Y-60875000I-225000J0D01*
G01*
X177150000Y-60875000D01*
G75*
G02*
X176925000Y-60650000I0J225000D01*
G01*
X176925000Y-60150000D01*
G75*
G02*
X177150000Y-59925000I225000J0D01*
G01*
X177600000Y-59925000D01*
G75*
G02*
X177825000Y-60150000I0J-225000D01*
G01*
G37*
%TD*%
%TO.C,D1*%
G36*
G01*
X171237500Y-80650000D02*
X170762500Y-80650000D01*
G75*
G02*
X170525000Y-80412500I0J237500D01*
G01*
X170525000Y-79837500D01*
G75*
G02*
X170762500Y-79600000I237500J0D01*
G01*
X171237500Y-79600000D01*
G75*
G02*
X171475000Y-79837500I0J-237500D01*
G01*
X171475000Y-80412500D01*
G75*
G02*
X171237500Y-80650000I-237500J0D01*
G01*
G37*
G36*
G01*
X171237500Y-82400000D02*
X170762500Y-82400000D01*
G75*
G02*
X170525000Y-82162500I0J237500D01*
G01*
X170525000Y-81587500D01*
G75*
G02*
X170762500Y-81350000I237500J0D01*
G01*
X171237500Y-81350000D01*
G75*
G02*
X171475000Y-81587500I0J-237500D01*
G01*
X171475000Y-82162500D01*
G75*
G02*
X171237500Y-82400000I-237500J0D01*
G01*
G37*
%TD*%
D18*
%TO.C,J4*%
X177000000Y-80255000D03*
D19*
X174600000Y-76140000D03*
X179400000Y-76140000D03*
D20*
X181320000Y-80890000D03*
X172680000Y-80890000D03*
D21*
X181320000Y-76720000D03*
X172680000Y-76720000D03*
D22*
X177250000Y-76140000D03*
X176750000Y-76140000D03*
X177750000Y-76140000D03*
X176250000Y-76140000D03*
X178250000Y-76140000D03*
X175750000Y-76140000D03*
X178750000Y-76140000D03*
X175250000Y-76140000D03*
D19*
X180200000Y-76140000D03*
D23*
X179890000Y-77210000D03*
X174110000Y-77210000D03*
D19*
X173800000Y-76140000D03*
%TD*%
D24*
%TO.C,J2*%
X176250000Y-58600000D03*
X177520000Y-58600000D03*
X178790000Y-58600000D03*
X180060000Y-58600000D03*
X181330000Y-58600000D03*
D25*
X182600000Y-58600000D03*
%TD*%
M02*
