%TF.GenerationSoftware,KiCad,Pcbnew,(6.0.1-0)*%
%TF.CreationDate,2022-01-19T10:47:39+00:00*%
%TF.ProjectId,Shelly,5368656c-6c79-42e6-9b69-6361645f7063,4*%
%TF.SameCoordinates,Original*%
%TF.FileFunction,Legend,Top*%
%TF.FilePolarity,Positive*%
%FSLAX46Y46*%
G04 Gerber Fmt 4.6, Leading zero omitted, Abs format (unit mm)*
G04 Created by KiCad (PCBNEW (6.0.1-0)) date 2022-01-19 10:47:39*
%MOMM*%
%LPD*%
G01*
G04 APERTURE LIST*
%ADD10C,0.120000*%
G04 APERTURE END LIST*
D10*
%TO.C,R8*%
X172200000Y-65000000D02*
X172200000Y-65600000D01*
X171200000Y-65000000D02*
X171200000Y-65600000D01*
%TO.C,R7*%
X177600000Y-65900000D02*
X177000000Y-65900000D01*
X177600000Y-64900000D02*
X177000000Y-64900000D01*
%TO.C,D3*%
X170265000Y-80200000D02*
X170265000Y-82660000D01*
X171735000Y-82660000D02*
X171735000Y-80200000D01*
X170265000Y-82660000D02*
X171735000Y-82660000D01*
%TO.C,R3*%
X182800000Y-78400000D02*
X182800000Y-77800000D01*
X183800000Y-78400000D02*
X183800000Y-77800000D01*
%TO.C,J1*%
X180930000Y-57430000D02*
X170710000Y-57430000D01*
X183530000Y-54770000D02*
X183530000Y-56100000D01*
X180930000Y-54770000D02*
X170710000Y-54770000D01*
X170710000Y-54770000D02*
X170710000Y-57430000D01*
X180930000Y-54770000D02*
X180930000Y-57430000D01*
X182200000Y-54770000D02*
X183530000Y-54770000D01*
%TO.C,U1*%
X179315000Y-64310000D02*
X178590000Y-64310000D01*
X182085000Y-60090000D02*
X182810000Y-60090000D01*
X179315000Y-60090000D02*
X178590000Y-60090000D01*
X182810000Y-60090000D02*
X182810000Y-60815000D01*
X178590000Y-64310000D02*
X178590000Y-63585000D01*
X178590000Y-60090000D02*
X178590000Y-60815000D01*
X182782843Y-64000000D02*
G75*
G03*
X182782843Y-64000000I-282843J0D01*
G01*
%TO.C,R6*%
X171500000Y-77700000D02*
X171500000Y-78300000D01*
X170500000Y-77700000D02*
X170500000Y-78300000D01*
%TO.C,R2*%
X183800000Y-80700000D02*
X183800000Y-81300000D01*
X182800000Y-80700000D02*
X182800000Y-81300000D01*
%TO.C,R4*%
X181100000Y-72500000D02*
X181700000Y-72500000D01*
X181100000Y-73500000D02*
X181700000Y-73500000D01*
%TO.C,R5*%
X181100000Y-73820000D02*
X181700000Y-73820000D01*
X181100000Y-74820000D02*
X181700000Y-74820000D01*
%TO.C,D1*%
X182050000Y-69240000D02*
X180150000Y-69240000D01*
X180650000Y-71560000D02*
X182050000Y-71560000D01*
%TO.C,D2*%
X182000000Y-66240000D02*
X180100000Y-66240000D01*
X180600000Y-68560000D02*
X182000000Y-68560000D01*
%TO.C,R1*%
X174000000Y-61500000D02*
X174000000Y-60900000D01*
X175000000Y-61500000D02*
X175000000Y-60900000D01*
%TO.C,C1*%
X176900000Y-59900000D02*
X176300000Y-59900000D01*
X176900000Y-60900000D02*
X176300000Y-60900000D01*
%TO.C,Q1*%
X172000000Y-58640000D02*
X172650000Y-58640000D01*
X172000000Y-61760000D02*
X172650000Y-61760000D01*
X172000000Y-58640000D02*
X170325000Y-58640000D01*
X172000000Y-61760000D02*
X171350000Y-61760000D01*
%TD*%
M02*
