%TF.GenerationSoftware,KiCad,Pcbnew,(5.1.9-0-10_14)*%
%TF.CreationDate,2021-05-23T10:51:11+01:00*%
%TF.ProjectId,Shelly,5368656c-6c79-42e6-9b69-6361645f7063,4*%
%TF.SameCoordinates,Original*%
%TF.FileFunction,Copper,L1,Top*%
%TF.FilePolarity,Positive*%
%FSLAX46Y46*%
G04 Gerber Fmt 4.6, Leading zero omitted, Abs format (unit mm)*
G04 Created by KiCad (PCBNEW (5.1.9-0-10_14)) date 2021-05-23 10:51:11*
%MOMM*%
%LPD*%
G01*
G04 APERTURE LIST*
%TA.AperFunction,EtchedComponent*%
%ADD10C,0.250000*%
%TD*%
%TA.AperFunction,EtchedComponent*%
%ADD11C,0.500000*%
%TD*%
%TA.AperFunction,SMDPad,CuDef*%
%ADD12C,0.100000*%
%TD*%
%TA.AperFunction,SMDPad,CuDef*%
%ADD13R,0.500000X4.000000*%
%TD*%
%TA.AperFunction,SMDPad,CuDef*%
%ADD14R,0.650000X1.060000*%
%TD*%
%TA.AperFunction,SMDPad,CuDef*%
%ADD15R,1.425000X3.700000*%
%TD*%
%TA.AperFunction,ComponentPad*%
%ADD16O,1.700000X1.700000*%
%TD*%
%TA.AperFunction,ComponentPad*%
%ADD17R,1.700000X1.700000*%
%TD*%
%TA.AperFunction,SMDPad,CuDef*%
%ADD18R,0.800000X1.200000*%
%TD*%
%TA.AperFunction,SMDPad,CuDef*%
%ADD19R,0.200000X0.500000*%
%TD*%
%TA.AperFunction,SMDPad,CuDef*%
%ADD20R,0.500000X0.200000*%
%TD*%
%TA.AperFunction,SMDPad,CuDef*%
%ADD21R,8.340000X5.490000*%
%TD*%
%TA.AperFunction,SMDPad,CuDef*%
%ADD22R,0.600000X1.140000*%
%TD*%
%TA.AperFunction,ComponentPad*%
%ADD23C,1.700000*%
%TD*%
%TA.AperFunction,ComponentPad*%
%ADD24C,2.000000*%
%TD*%
%TA.AperFunction,SMDPad,CuDef*%
%ADD25R,0.300000X1.140000*%
%TD*%
%TA.AperFunction,ComponentPad*%
%ADD26C,0.600000*%
%TD*%
%TA.AperFunction,SMDPad,CuDef*%
%ADD27R,2.000000X1.750000*%
%TD*%
%TA.AperFunction,ComponentPad*%
%ADD28C,0.350000*%
%TD*%
%TA.AperFunction,SMDPad,CuDef*%
%ADD29R,0.200000X0.200000*%
%TD*%
%TA.AperFunction,SMDPad,CuDef*%
%ADD30C,0.500000*%
%TD*%
%TA.AperFunction,SMDPad,CuDef*%
%ADD31R,1.750000X2.000000*%
%TD*%
%TA.AperFunction,ComponentPad*%
%ADD32O,1.000000X1.000000*%
%TD*%
%TA.AperFunction,ComponentPad*%
%ADD33R,1.000000X1.000000*%
%TD*%
%TA.AperFunction,ViaPad*%
%ADD34C,0.800000*%
%TD*%
%TA.AperFunction,Conductor*%
%ADD35C,0.250000*%
%TD*%
%TA.AperFunction,Conductor*%
%ADD36C,0.500000*%
%TD*%
%TA.AperFunction,Conductor*%
%ADD37C,0.254000*%
%TD*%
%TA.AperFunction,Conductor*%
%ADD38C,0.100000*%
%TD*%
G04 APERTURE END LIST*
D10*
%TO.C,Reg1*%
X171110000Y-68440000D02*
G75*
G02*
X170760000Y-68090000I0J350000D01*
G01*
X170760000Y-69190000D02*
G75*
G02*
X171110000Y-68840000I350000J0D01*
G01*
X173410000Y-68840000D02*
G75*
G02*
X173760000Y-69190000I0J-350000D01*
G01*
X173760000Y-68090000D02*
G75*
G02*
X173410000Y-68440000I-350000J0D01*
G01*
D11*
X175960000Y-66440000D02*
G75*
G02*
X176760000Y-67346226I0J-806226D01*
G01*
X172810679Y-67040000D02*
G75*
G02*
X173410000Y-66440000I600000J0D01*
G01*
D10*
X171960000Y-67040000D02*
G75*
G02*
X173160000Y-65840000I1200000J0D01*
G01*
X176410000Y-65840000D02*
G75*
G02*
X177610000Y-67040000I0J-1200000D01*
G01*
D11*
X173760000Y-71340000D02*
X173760000Y-69940000D01*
X173760000Y-69740000D02*
X175260000Y-69740000D01*
D10*
X171160000Y-68840000D02*
X173360000Y-68840000D01*
X171160000Y-68440000D02*
X173360000Y-68440000D01*
D11*
X176760000Y-71290000D02*
X176760000Y-67346226D01*
X173410000Y-66440000D02*
X175960000Y-66440000D01*
D10*
X173160000Y-65840000D02*
X176410000Y-65840000D01*
%TD*%
%TA.AperFunction,SMDPad,CuDef*%
D12*
%TO.P,Reg1,3*%
%TO.N,GND*%
G36*
X176486132Y-71441370D02*
G01*
X176510269Y-71445106D01*
X176533927Y-71451180D01*
X176556879Y-71459534D01*
X176578906Y-71470088D01*
X176599798Y-71482741D01*
X176619356Y-71497372D01*
X176637393Y-71513841D01*
X176653736Y-71531993D01*
X176668230Y-71551652D01*
X176680737Y-71572632D01*
X176691137Y-71594732D01*
X176699330Y-71617742D01*
X176705239Y-71641441D01*
X176708807Y-71665604D01*
X176710000Y-71690000D01*
X176710000Y-73040000D01*
X178310000Y-73040000D01*
X178313491Y-73040024D01*
X178337867Y-73041558D01*
X178361978Y-73045463D01*
X178385592Y-73051702D01*
X178408485Y-73060216D01*
X178430438Y-73070923D01*
X178451242Y-73083722D01*
X178470697Y-73098489D01*
X178488618Y-73115084D01*
X178504834Y-73133349D01*
X178519191Y-73153109D01*
X178531551Y-73174176D01*
X178541796Y-73196348D01*
X178549828Y-73219415D01*
X178555572Y-73243155D01*
X178558971Y-73267342D01*
X178559994Y-73291745D01*
X178558630Y-73316132D01*
X178554894Y-73340269D01*
X178548820Y-73363927D01*
X178540466Y-73386879D01*
X178529912Y-73408906D01*
X178517259Y-73429798D01*
X178502628Y-73449356D01*
X178486159Y-73467393D01*
X178468007Y-73483736D01*
X178448348Y-73498230D01*
X178427368Y-73510737D01*
X178405268Y-73521137D01*
X178382258Y-73529330D01*
X178358559Y-73535239D01*
X178334396Y-73538807D01*
X178310000Y-73540000D01*
X171710000Y-73540000D01*
X171706509Y-73539976D01*
X171682133Y-73538442D01*
X171658022Y-73534537D01*
X171634408Y-73528298D01*
X171611515Y-73519784D01*
X171589562Y-73509077D01*
X171568758Y-73496278D01*
X171549303Y-73481511D01*
X171531382Y-73464916D01*
X171515166Y-73446651D01*
X171500809Y-73426891D01*
X171488449Y-73405824D01*
X171478204Y-73383652D01*
X171470172Y-73360585D01*
X171464428Y-73336845D01*
X171461029Y-73312658D01*
X171460006Y-73288255D01*
X171461370Y-73263868D01*
X171465106Y-73239731D01*
X171471180Y-73216073D01*
X171479534Y-73193121D01*
X171490088Y-73171094D01*
X171502741Y-73150202D01*
X171517372Y-73130644D01*
X171533841Y-73112607D01*
X171551993Y-73096264D01*
X171571652Y-73081770D01*
X171592632Y-73069263D01*
X171614732Y-73058863D01*
X171637742Y-73050670D01*
X171661441Y-73044761D01*
X171685604Y-73041193D01*
X171710000Y-73040000D01*
X176210000Y-73040000D01*
X176210000Y-71690000D01*
X176210024Y-71686509D01*
X176211558Y-71662133D01*
X176215463Y-71638022D01*
X176221702Y-71614408D01*
X176230216Y-71591515D01*
X176240923Y-71569562D01*
X176253722Y-71548758D01*
X176268489Y-71529303D01*
X176285084Y-71511382D01*
X176303349Y-71495166D01*
X176323109Y-71480809D01*
X176344176Y-71468449D01*
X176366348Y-71458204D01*
X176389415Y-71450172D01*
X176413155Y-71444428D01*
X176437342Y-71441029D01*
X176461745Y-71440006D01*
X176486132Y-71441370D01*
G37*
%TD.AperFunction*%
D13*
%TO.P,Reg1,4*%
%TO.N,+3V3*%
X178210000Y-69590000D03*
%TA.AperFunction,SMDPad,CuDef*%
D12*
%TO.P,Reg1,2*%
%TO.N,VBUS*%
G36*
X172836132Y-69541370D02*
G01*
X172860269Y-69545106D01*
X172883927Y-69551180D01*
X172906879Y-69559534D01*
X172928906Y-69570088D01*
X172949798Y-69582741D01*
X172969356Y-69597372D01*
X172987393Y-69613841D01*
X173003736Y-69631993D01*
X173018230Y-69651652D01*
X173030737Y-69672632D01*
X173041137Y-69694732D01*
X173049330Y-69717742D01*
X173055239Y-69741441D01*
X173058807Y-69765604D01*
X173060000Y-69790000D01*
X173060000Y-70340000D01*
X173059998Y-70340342D01*
X173060000Y-70340392D01*
X173059997Y-70340454D01*
X173059976Y-70343491D01*
X173059308Y-70354107D01*
X173058769Y-70364787D01*
X173058539Y-70366329D01*
X173058442Y-70367867D01*
X173056747Y-70378332D01*
X173055163Y-70388944D01*
X173054784Y-70390455D01*
X173054537Y-70391978D01*
X173051817Y-70402274D01*
X173049216Y-70412634D01*
X173048694Y-70414091D01*
X173048298Y-70415592D01*
X173044581Y-70425586D01*
X173040987Y-70435630D01*
X173040324Y-70437034D01*
X173039784Y-70438485D01*
X173035119Y-70448049D01*
X173030553Y-70457714D01*
X173029755Y-70459048D01*
X173029077Y-70460438D01*
X173023505Y-70469495D01*
X173018013Y-70478675D01*
X172718013Y-70928675D01*
X172717779Y-70929020D01*
X172717747Y-70929074D01*
X172717701Y-70929136D01*
X172716056Y-70931566D01*
X172713308Y-70935175D01*
X172710802Y-70938925D01*
X172706892Y-70943690D01*
X172703184Y-70948682D01*
X172702170Y-70949800D01*
X172701258Y-70950998D01*
X172698134Y-70954361D01*
X172695238Y-70957890D01*
X172690919Y-70962209D01*
X172686777Y-70966777D01*
X172186777Y-71466777D01*
X172186525Y-71467026D01*
X172186499Y-71467054D01*
X172186463Y-71467086D01*
X172184291Y-71469228D01*
X172176305Y-71476269D01*
X172168379Y-71483433D01*
X172167128Y-71484359D01*
X172165970Y-71485380D01*
X172157356Y-71491593D01*
X172148748Y-71497965D01*
X172147414Y-71498764D01*
X172146160Y-71499668D01*
X172136917Y-71505047D01*
X172127791Y-71510511D01*
X172126400Y-71511169D01*
X172125051Y-71511954D01*
X172115321Y-71516408D01*
X172105711Y-71520953D01*
X172104250Y-71521476D01*
X172102842Y-71522121D01*
X172092786Y-71525583D01*
X172082717Y-71529191D01*
X172081208Y-71529570D01*
X172079748Y-71530073D01*
X172069389Y-71532541D01*
X172059029Y-71535145D01*
X171559029Y-71635145D01*
X171555601Y-71635806D01*
X171531398Y-71639083D01*
X171506989Y-71639982D01*
X171482610Y-71638495D01*
X171458492Y-71634636D01*
X171434865Y-71628443D01*
X171411955Y-71619972D01*
X171389982Y-71609307D01*
X171369154Y-71596549D01*
X171349671Y-71581819D01*
X171331718Y-71565258D01*
X171315466Y-71547025D01*
X171301072Y-71527292D01*
X171288672Y-71506248D01*
X171278384Y-71484096D01*
X171270307Y-71461045D01*
X171264518Y-71437317D01*
X171261073Y-71413136D01*
X171260003Y-71388735D01*
X171261319Y-71364345D01*
X171265010Y-71340200D01*
X171271039Y-71316531D01*
X171279349Y-71293564D01*
X171289860Y-71271516D01*
X171302472Y-71250599D01*
X171317067Y-71231014D01*
X171333501Y-71212946D01*
X171351621Y-71196567D01*
X171371252Y-71182035D01*
X171392209Y-71169489D01*
X171414289Y-71159047D01*
X171437283Y-71150809D01*
X171460971Y-71144855D01*
X171886746Y-71059700D01*
X172315719Y-70630727D01*
X172560000Y-70264307D01*
X172560000Y-69790000D01*
X172560024Y-69786509D01*
X172561558Y-69762133D01*
X172565463Y-69738022D01*
X172571702Y-69714408D01*
X172580216Y-69691515D01*
X172590923Y-69669562D01*
X172603722Y-69648758D01*
X172618489Y-69629303D01*
X172635084Y-69611382D01*
X172653349Y-69595166D01*
X172673109Y-69580809D01*
X172694176Y-69568449D01*
X172716348Y-69558204D01*
X172739415Y-69550172D01*
X172763155Y-69544428D01*
X172787342Y-69541029D01*
X172811745Y-69540006D01*
X172836132Y-69541370D01*
G37*
%TD.AperFunction*%
D14*
%TO.P,Reg1,~*%
%TO.N,N/C*%
X173760000Y-67540000D03*
X171860000Y-67540000D03*
X172810000Y-67540000D03*
%TO.P,Reg1,1*%
%TO.N,VBUS*%
X171860000Y-69740000D03*
%TO.P,Reg1,2*%
X172810000Y-69740000D03*
%TO.P,Reg1,~*%
%TO.N,N/C*%
X173760000Y-69740000D03*
%TO.P,Reg1,4*%
%TO.N,+3V3*%
%TA.AperFunction,SMDPad,CuDef*%
G36*
G01*
X177735000Y-70890000D02*
X178685000Y-70890000D01*
G75*
G02*
X178935000Y-71140000I0J-250000D01*
G01*
X178935000Y-71640000D01*
G75*
G02*
X178685000Y-71890000I-250000J0D01*
G01*
X177735000Y-71890000D01*
G75*
G02*
X177485000Y-71640000I0J250000D01*
G01*
X177485000Y-71140000D01*
G75*
G02*
X177735000Y-70890000I250000J0D01*
G01*
G37*
%TD.AperFunction*%
%TO.P,Reg1,3*%
%TO.N,GND*%
%TA.AperFunction,SMDPad,CuDef*%
G36*
G01*
X177735000Y-72790000D02*
X178685000Y-72790000D01*
G75*
G02*
X178935000Y-73040000I0J-250000D01*
G01*
X178935000Y-73540000D01*
G75*
G02*
X178685000Y-73790000I-250000J0D01*
G01*
X177735000Y-73790000D01*
G75*
G02*
X177485000Y-73540000I0J250000D01*
G01*
X177485000Y-73040000D01*
G75*
G02*
X177735000Y-72790000I250000J0D01*
G01*
G37*
%TD.AperFunction*%
%TA.AperFunction,SMDPad,CuDef*%
G36*
G01*
X171235000Y-72790000D02*
X172185000Y-72790000D01*
G75*
G02*
X172435000Y-73040000I0J-250000D01*
G01*
X172435000Y-73540000D01*
G75*
G02*
X172185000Y-73790000I-250000J0D01*
G01*
X171235000Y-73790000D01*
G75*
G02*
X170985000Y-73540000I0J250000D01*
G01*
X170985000Y-73040000D01*
G75*
G02*
X171235000Y-72790000I250000J0D01*
G01*
G37*
%TD.AperFunction*%
%TO.P,Reg1,2*%
%TO.N,VBUS*%
%TA.AperFunction,SMDPad,CuDef*%
G36*
G01*
X171235000Y-70890000D02*
X172185000Y-70890000D01*
G75*
G02*
X172435000Y-71140000I0J-250000D01*
G01*
X172435000Y-71640000D01*
G75*
G02*
X172185000Y-71890000I-250000J0D01*
G01*
X171235000Y-71890000D01*
G75*
G02*
X170985000Y-71640000I0J250000D01*
G01*
X170985000Y-71140000D01*
G75*
G02*
X171235000Y-70890000I250000J0D01*
G01*
G37*
%TD.AperFunction*%
%TO.P,Reg1,~*%
%TO.N,N/C*%
%TA.AperFunction,SMDPad,CuDef*%
G36*
G01*
X170910000Y-68315000D02*
X170410000Y-68315000D01*
G75*
G02*
X170185000Y-68090000I0J225000D01*
G01*
X170185000Y-67640000D01*
G75*
G02*
X170410000Y-67415000I225000J0D01*
G01*
X170910000Y-67415000D01*
G75*
G02*
X171135000Y-67640000I0J-225000D01*
G01*
X171135000Y-68090000D01*
G75*
G02*
X170910000Y-68315000I-225000J0D01*
G01*
G37*
%TD.AperFunction*%
%TA.AperFunction,SMDPad,CuDef*%
G36*
G01*
X170910000Y-69865000D02*
X170410000Y-69865000D01*
G75*
G02*
X170185000Y-69640000I0J225000D01*
G01*
X170185000Y-69190000D01*
G75*
G02*
X170410000Y-68965000I225000J0D01*
G01*
X170910000Y-68965000D01*
G75*
G02*
X171135000Y-69190000I0J-225000D01*
G01*
X171135000Y-69640000D01*
G75*
G02*
X170910000Y-69865000I-225000J0D01*
G01*
G37*
%TD.AperFunction*%
%TA.AperFunction,SMDPad,CuDef*%
G36*
G01*
X172760000Y-72565626D02*
X172760000Y-71314374D01*
G75*
G02*
X173009374Y-71065000I249374J0D01*
G01*
X173935626Y-71065000D01*
G75*
G02*
X174185000Y-71314374I0J-249374D01*
G01*
X174185000Y-72565626D01*
G75*
G02*
X173935626Y-72815000I-249374J0D01*
G01*
X173009374Y-72815000D01*
G75*
G02*
X172760000Y-72565626I0J249374D01*
G01*
G37*
%TD.AperFunction*%
%TO.P,Reg1,3*%
%TO.N,GND*%
%TA.AperFunction,SMDPad,CuDef*%
G36*
G01*
X175735000Y-72565626D02*
X175735000Y-71314374D01*
G75*
G02*
X175984374Y-71065000I249374J0D01*
G01*
X176910626Y-71065000D01*
G75*
G02*
X177160000Y-71314374I0J-249374D01*
G01*
X177160000Y-72565626D01*
G75*
G02*
X176910626Y-72815000I-249374J0D01*
G01*
X175984374Y-72815000D01*
G75*
G02*
X175735000Y-72565626I0J249374D01*
G01*
G37*
%TD.AperFunction*%
D15*
%TO.P,Reg1,4*%
%TO.N,+3V3*%
X178210000Y-68840000D03*
%TO.P,Reg1,~*%
%TO.N,N/C*%
X175210000Y-68840000D03*
%TD*%
D16*
%TO.P,J1,5*%
%TO.N,TXD*%
X172040000Y-56100000D03*
%TO.P,J1,4*%
%TO.N,RXD*%
X174580000Y-56100000D03*
%TO.P,J1,3*%
%TO.N,Net-(J1-Pad3)*%
X177120000Y-56100000D03*
%TO.P,J1,2*%
%TO.N,GPIO0*%
X179660000Y-56100000D03*
D17*
%TO.P,J1,1*%
%TO.N,GND*%
X182200000Y-56100000D03*
%TD*%
%TO.P,R6,2*%
%TO.N,RST*%
%TA.AperFunction,SMDPad,CuDef*%
G36*
G01*
X175725000Y-64425000D02*
X176275000Y-64425000D01*
G75*
G02*
X176475000Y-64625000I0J-200000D01*
G01*
X176475000Y-65025000D01*
G75*
G02*
X176275000Y-65225000I-200000J0D01*
G01*
X175725000Y-65225000D01*
G75*
G02*
X175525000Y-65025000I0J200000D01*
G01*
X175525000Y-64625000D01*
G75*
G02*
X175725000Y-64425000I200000J0D01*
G01*
G37*
%TD.AperFunction*%
%TO.P,R6,1*%
%TO.N,Net-(R6-Pad1)*%
%TA.AperFunction,SMDPad,CuDef*%
G36*
G01*
X175725000Y-62775000D02*
X176275000Y-62775000D01*
G75*
G02*
X176475000Y-62975000I0J-200000D01*
G01*
X176475000Y-63375000D01*
G75*
G02*
X176275000Y-63575000I-200000J0D01*
G01*
X175725000Y-63575000D01*
G75*
G02*
X175525000Y-63375000I0J200000D01*
G01*
X175525000Y-62975000D01*
G75*
G02*
X175725000Y-62775000I200000J0D01*
G01*
G37*
%TD.AperFunction*%
%TD*%
%TO.P,R5,2*%
%TO.N,D+*%
%TA.AperFunction,SMDPad,CuDef*%
G36*
G01*
X181825000Y-74675000D02*
X181825000Y-74125000D01*
G75*
G02*
X182025000Y-73925000I200000J0D01*
G01*
X182425000Y-73925000D01*
G75*
G02*
X182625000Y-74125000I0J-200000D01*
G01*
X182625000Y-74675000D01*
G75*
G02*
X182425000Y-74875000I-200000J0D01*
G01*
X182025000Y-74875000D01*
G75*
G02*
X181825000Y-74675000I0J200000D01*
G01*
G37*
%TD.AperFunction*%
%TO.P,R5,1*%
%TO.N,Net-(J4-PadA6)*%
%TA.AperFunction,SMDPad,CuDef*%
G36*
G01*
X180175000Y-74675000D02*
X180175000Y-74125000D01*
G75*
G02*
X180375000Y-73925000I200000J0D01*
G01*
X180775000Y-73925000D01*
G75*
G02*
X180975000Y-74125000I0J-200000D01*
G01*
X180975000Y-74675000D01*
G75*
G02*
X180775000Y-74875000I-200000J0D01*
G01*
X180375000Y-74875000D01*
G75*
G02*
X180175000Y-74675000I0J200000D01*
G01*
G37*
%TD.AperFunction*%
%TD*%
%TO.P,R4,2*%
%TO.N,D-*%
%TA.AperFunction,SMDPad,CuDef*%
G36*
G01*
X181825000Y-73275000D02*
X181825000Y-72725000D01*
G75*
G02*
X182025000Y-72525000I200000J0D01*
G01*
X182425000Y-72525000D01*
G75*
G02*
X182625000Y-72725000I0J-200000D01*
G01*
X182625000Y-73275000D01*
G75*
G02*
X182425000Y-73475000I-200000J0D01*
G01*
X182025000Y-73475000D01*
G75*
G02*
X181825000Y-73275000I0J200000D01*
G01*
G37*
%TD.AperFunction*%
%TO.P,R4,1*%
%TO.N,Net-(J4-PadA7)*%
%TA.AperFunction,SMDPad,CuDef*%
G36*
G01*
X180175000Y-73275000D02*
X180175000Y-72725000D01*
G75*
G02*
X180375000Y-72525000I200000J0D01*
G01*
X180775000Y-72525000D01*
G75*
G02*
X180975000Y-72725000I0J-200000D01*
G01*
X180975000Y-73275000D01*
G75*
G02*
X180775000Y-73475000I-200000J0D01*
G01*
X180375000Y-73475000D01*
G75*
G02*
X180175000Y-73275000I0J200000D01*
G01*
G37*
%TD.AperFunction*%
%TD*%
%TO.P,R3,2*%
%TO.N,Net-(D1-Pad2)*%
%TA.AperFunction,SMDPad,CuDef*%
G36*
G01*
X170725000Y-78425000D02*
X171275000Y-78425000D01*
G75*
G02*
X171475000Y-78625000I0J-200000D01*
G01*
X171475000Y-79025000D01*
G75*
G02*
X171275000Y-79225000I-200000J0D01*
G01*
X170725000Y-79225000D01*
G75*
G02*
X170525000Y-79025000I0J200000D01*
G01*
X170525000Y-78625000D01*
G75*
G02*
X170725000Y-78425000I200000J0D01*
G01*
G37*
%TD.AperFunction*%
%TO.P,R3,1*%
%TO.N,+3V3*%
%TA.AperFunction,SMDPad,CuDef*%
G36*
G01*
X170725000Y-76775000D02*
X171275000Y-76775000D01*
G75*
G02*
X171475000Y-76975000I0J-200000D01*
G01*
X171475000Y-77375000D01*
G75*
G02*
X171275000Y-77575000I-200000J0D01*
G01*
X170725000Y-77575000D01*
G75*
G02*
X170525000Y-77375000I0J200000D01*
G01*
X170525000Y-76975000D01*
G75*
G02*
X170725000Y-76775000I200000J0D01*
G01*
G37*
%TD.AperFunction*%
%TD*%
%TO.P,R2,2*%
%TO.N,Net-(J4-PadB5)*%
%TA.AperFunction,SMDPad,CuDef*%
G36*
G01*
X183575000Y-77675000D02*
X183025000Y-77675000D01*
G75*
G02*
X182825000Y-77475000I0J200000D01*
G01*
X182825000Y-77075000D01*
G75*
G02*
X183025000Y-76875000I200000J0D01*
G01*
X183575000Y-76875000D01*
G75*
G02*
X183775000Y-77075000I0J-200000D01*
G01*
X183775000Y-77475000D01*
G75*
G02*
X183575000Y-77675000I-200000J0D01*
G01*
G37*
%TD.AperFunction*%
%TO.P,R2,1*%
%TO.N,GND*%
%TA.AperFunction,SMDPad,CuDef*%
G36*
G01*
X183575000Y-79325000D02*
X183025000Y-79325000D01*
G75*
G02*
X182825000Y-79125000I0J200000D01*
G01*
X182825000Y-78725000D01*
G75*
G02*
X183025000Y-78525000I200000J0D01*
G01*
X183575000Y-78525000D01*
G75*
G02*
X183775000Y-78725000I0J-200000D01*
G01*
X183775000Y-79125000D01*
G75*
G02*
X183575000Y-79325000I-200000J0D01*
G01*
G37*
%TD.AperFunction*%
%TD*%
%TO.P,R1,2*%
%TO.N,GND*%
%TA.AperFunction,SMDPad,CuDef*%
G36*
G01*
X183025000Y-81425000D02*
X183575000Y-81425000D01*
G75*
G02*
X183775000Y-81625000I0J-200000D01*
G01*
X183775000Y-82025000D01*
G75*
G02*
X183575000Y-82225000I-200000J0D01*
G01*
X183025000Y-82225000D01*
G75*
G02*
X182825000Y-82025000I0J200000D01*
G01*
X182825000Y-81625000D01*
G75*
G02*
X183025000Y-81425000I200000J0D01*
G01*
G37*
%TD.AperFunction*%
%TO.P,R1,1*%
%TO.N,Net-(J4-PadA5)*%
%TA.AperFunction,SMDPad,CuDef*%
G36*
G01*
X183025000Y-79775000D02*
X183575000Y-79775000D01*
G75*
G02*
X183775000Y-79975000I0J-200000D01*
G01*
X183775000Y-80375000D01*
G75*
G02*
X183575000Y-80575000I-200000J0D01*
G01*
X183025000Y-80575000D01*
G75*
G02*
X182825000Y-80375000I0J200000D01*
G01*
X182825000Y-79975000D01*
G75*
G02*
X183025000Y-79775000I200000J0D01*
G01*
G37*
%TD.AperFunction*%
%TD*%
%TO.P,C1,2*%
%TO.N,GND*%
%TA.AperFunction,SMDPad,CuDef*%
G36*
G01*
X176175000Y-60650000D02*
X176175000Y-61150000D01*
G75*
G02*
X175950000Y-61375000I-225000J0D01*
G01*
X175500000Y-61375000D01*
G75*
G02*
X175275000Y-61150000I0J225000D01*
G01*
X175275000Y-60650000D01*
G75*
G02*
X175500000Y-60425000I225000J0D01*
G01*
X175950000Y-60425000D01*
G75*
G02*
X176175000Y-60650000I0J-225000D01*
G01*
G37*
%TD.AperFunction*%
%TO.P,C1,1*%
%TO.N,Net-(C1-Pad1)*%
%TA.AperFunction,SMDPad,CuDef*%
G36*
G01*
X177725000Y-60650000D02*
X177725000Y-61150000D01*
G75*
G02*
X177500000Y-61375000I-225000J0D01*
G01*
X177050000Y-61375000D01*
G75*
G02*
X176825000Y-61150000I0J225000D01*
G01*
X176825000Y-60650000D01*
G75*
G02*
X177050000Y-60425000I225000J0D01*
G01*
X177500000Y-60425000D01*
G75*
G02*
X177725000Y-60650000I0J-225000D01*
G01*
G37*
%TD.AperFunction*%
%TD*%
%TO.P,D1,2*%
%TO.N,Net-(D1-Pad2)*%
%TA.AperFunction,SMDPad,CuDef*%
G36*
G01*
X171237500Y-80650000D02*
X170762500Y-80650000D01*
G75*
G02*
X170525000Y-80412500I0J237500D01*
G01*
X170525000Y-79837500D01*
G75*
G02*
X170762500Y-79600000I237500J0D01*
G01*
X171237500Y-79600000D01*
G75*
G02*
X171475000Y-79837500I0J-237500D01*
G01*
X171475000Y-80412500D01*
G75*
G02*
X171237500Y-80650000I-237500J0D01*
G01*
G37*
%TD.AperFunction*%
%TO.P,D1,1*%
%TO.N,Net-(D1-Pad1)*%
%TA.AperFunction,SMDPad,CuDef*%
G36*
G01*
X171237500Y-82400000D02*
X170762500Y-82400000D01*
G75*
G02*
X170525000Y-82162500I0J237500D01*
G01*
X170525000Y-81587500D01*
G75*
G02*
X170762500Y-81350000I237500J0D01*
G01*
X171237500Y-81350000D01*
G75*
G02*
X171475000Y-81587500I0J-237500D01*
G01*
X171475000Y-82162500D01*
G75*
G02*
X171237500Y-82400000I-237500J0D01*
G01*
G37*
%TD.AperFunction*%
%TD*%
D18*
%TO.P,U2,1*%
%TO.N,Net-(R6-Pad1)*%
X171230000Y-64900000D03*
%TO.P,U2,2*%
%TO.N,GND*%
X173770000Y-64900000D03*
%TO.P,U2,3*%
%TO.N,Net-(J1-Pad3)*%
X173770000Y-58900000D03*
%TO.P,U2,4*%
%TO.N,+3V3*%
X171230000Y-58900000D03*
%TD*%
D19*
%TO.P,J4,S1*%
%TO.N,GND*%
X181020000Y-77580000D03*
X172970000Y-77570000D03*
X179890000Y-77560000D03*
X179890000Y-77430000D03*
X174100000Y-77560000D03*
X174100000Y-77410000D03*
D20*
X173390000Y-80920000D03*
%TA.AperFunction,SMDPad,CuDef*%
D12*
G36*
X180323934Y-76312513D02*
G01*
X180677487Y-76666066D01*
X180536066Y-76807487D01*
X180182513Y-76453934D01*
X180323934Y-76312513D01*
G37*
%TD.AperFunction*%
%TA.AperFunction,SMDPad,CuDef*%
G36*
X173797487Y-76513934D02*
G01*
X173443934Y-76867487D01*
X173302513Y-76726066D01*
X173656066Y-76372513D01*
X173797487Y-76513934D01*
G37*
%TD.AperFunction*%
D20*
X180620000Y-80920000D03*
D21*
X177000000Y-80255000D03*
D22*
%TO.P,J4,A12*%
X180200000Y-76140000D03*
%TO.P,J4,A4*%
%TO.N,VBUS*%
X174600000Y-76140000D03*
%TO.P,J4,B12*%
%TO.N,GND*%
X173800000Y-76140000D03*
%TO.P,J4,B4*%
%TO.N,VBUS*%
X179400000Y-76140000D03*
D23*
%TO.P,J4,S1*%
%TO.N,GND*%
X181325000Y-80910000D03*
X172675000Y-80910000D03*
D24*
X181325000Y-76730000D03*
X172675000Y-76730000D03*
D25*
%TO.P,J4,A7*%
%TO.N,Net-(J4-PadA7)*%
X177250000Y-76140000D03*
%TO.P,J4,A6*%
%TO.N,Net-(J4-PadA6)*%
X176750000Y-76140000D03*
%TO.P,J4,B6*%
X177750000Y-76140000D03*
%TO.P,J4,B7*%
%TO.N,Net-(J4-PadA7)*%
X176250000Y-76140000D03*
%TO.P,J4,A8*%
%TO.N,Net-(J4-PadA8)*%
X178250000Y-76140000D03*
%TO.P,J4,A5*%
%TO.N,Net-(J4-PadA5)*%
X175750000Y-76140000D03*
%TO.P,J4,B5*%
%TO.N,Net-(J4-PadB5)*%
X178750000Y-76140000D03*
%TO.P,J4,B8*%
%TO.N,Net-(J4-PadB8)*%
X175250000Y-76140000D03*
D22*
%TO.P,J4,A9*%
%TO.N,VBUS*%
X179400000Y-76140000D03*
%TO.P,J4,B9*%
X174600000Y-76140000D03*
%TO.P,J4,B1*%
%TO.N,GND*%
X180200000Y-76140000D03*
D26*
%TO.P,J4,S1*%
X179890000Y-77210000D03*
X174110000Y-77210000D03*
D22*
%TO.P,J4,A1*%
X173800000Y-76140000D03*
%TD*%
%TA.AperFunction,SMDPad,CuDef*%
D12*
%TO.P,U1,21*%
%TO.N,GND*%
G36*
X181349887Y-64500203D02*
G01*
X179599797Y-62750113D01*
X179850113Y-62499797D01*
X181600203Y-64249887D01*
X181349887Y-64500203D01*
G37*
%TD.AperFunction*%
D27*
X180600000Y-63375000D03*
D28*
X180600000Y-63500000D03*
D29*
%TO.P,U1,~*%
%TO.N,N/C*%
X182600000Y-65500000D03*
X178600000Y-61500000D03*
X182600000Y-61500000D03*
X178600000Y-65500000D03*
D30*
X182600000Y-65500000D03*
D31*
%TO.P,U1,21*%
%TO.N,GND*%
X180475000Y-63500000D03*
%TO.P,U1,20*%
%TO.N,Net-(C1-Pad1)*%
%TA.AperFunction,SMDPad,CuDef*%
G36*
G01*
X181725000Y-65062500D02*
X181725000Y-65937500D01*
G75*
G02*
X181662500Y-66000000I-62500J0D01*
G01*
X181537500Y-66000000D01*
G75*
G02*
X181475000Y-65937500I0J62500D01*
G01*
X181475000Y-65062500D01*
G75*
G02*
X181537500Y-65000000I62500J0D01*
G01*
X181662500Y-65000000D01*
G75*
G02*
X181725000Y-65062500I0J-62500D01*
G01*
G37*
%TD.AperFunction*%
%TO.P,U1,19*%
%TO.N,RST*%
%TA.AperFunction,SMDPad,CuDef*%
G36*
G01*
X181225000Y-65062500D02*
X181225000Y-65937500D01*
G75*
G02*
X181162500Y-66000000I-62500J0D01*
G01*
X181037500Y-66000000D01*
G75*
G02*
X180975000Y-65937500I0J62500D01*
G01*
X180975000Y-65062500D01*
G75*
G02*
X181037500Y-65000000I62500J0D01*
G01*
X181162500Y-65000000D01*
G75*
G02*
X181225000Y-65062500I0J-62500D01*
G01*
G37*
%TD.AperFunction*%
%TO.P,U1,18*%
%TO.N,GPIO0*%
%TA.AperFunction,SMDPad,CuDef*%
G36*
G01*
X180725000Y-65062500D02*
X180725000Y-65937500D01*
G75*
G02*
X180662500Y-66000000I-62500J0D01*
G01*
X180537500Y-66000000D01*
G75*
G02*
X180475000Y-65937500I0J62500D01*
G01*
X180475000Y-65062500D01*
G75*
G02*
X180537500Y-65000000I62500J0D01*
G01*
X180662500Y-65000000D01*
G75*
G02*
X180725000Y-65062500I0J-62500D01*
G01*
G37*
%TD.AperFunction*%
%TO.P,U1,17*%
%TO.N,RXD*%
%TA.AperFunction,SMDPad,CuDef*%
G36*
G01*
X180225000Y-65062500D02*
X180225000Y-65937500D01*
G75*
G02*
X180162500Y-66000000I-62500J0D01*
G01*
X180037500Y-66000000D01*
G75*
G02*
X179975000Y-65937500I0J62500D01*
G01*
X179975000Y-65062500D01*
G75*
G02*
X180037500Y-65000000I62500J0D01*
G01*
X180162500Y-65000000D01*
G75*
G02*
X180225000Y-65062500I0J-62500D01*
G01*
G37*
%TD.AperFunction*%
%TO.P,U1,16*%
%TO.N,Net-(U1-Pad16)*%
%TA.AperFunction,SMDPad,CuDef*%
G36*
G01*
X179725000Y-65062500D02*
X179725000Y-65937500D01*
G75*
G02*
X179662500Y-66000000I-62500J0D01*
G01*
X179537500Y-66000000D01*
G75*
G02*
X179475000Y-65937500I0J62500D01*
G01*
X179475000Y-65062500D01*
G75*
G02*
X179537500Y-65000000I62500J0D01*
G01*
X179662500Y-65000000D01*
G75*
G02*
X179725000Y-65062500I0J-62500D01*
G01*
G37*
%TD.AperFunction*%
%TO.P,U1,15*%
%TO.N,Net-(D1-Pad1)*%
%TA.AperFunction,SMDPad,CuDef*%
G36*
G01*
X179100000Y-64437500D02*
X179100000Y-64562500D01*
G75*
G02*
X179037500Y-64625000I-62500J0D01*
G01*
X178162500Y-64625000D01*
G75*
G02*
X178100000Y-64562500I0J62500D01*
G01*
X178100000Y-64437500D01*
G75*
G02*
X178162500Y-64375000I62500J0D01*
G01*
X179037500Y-64375000D01*
G75*
G02*
X179100000Y-64437500I0J-62500D01*
G01*
G37*
%TD.AperFunction*%
%TO.P,U1,14*%
%TO.N,Net-(U1-Pad14)*%
%TA.AperFunction,SMDPad,CuDef*%
G36*
G01*
X179100000Y-63937500D02*
X179100000Y-64062500D01*
G75*
G02*
X179037500Y-64125000I-62500J0D01*
G01*
X178162500Y-64125000D01*
G75*
G02*
X178100000Y-64062500I0J62500D01*
G01*
X178100000Y-63937500D01*
G75*
G02*
X178162500Y-63875000I62500J0D01*
G01*
X179037500Y-63875000D01*
G75*
G02*
X179100000Y-63937500I0J-62500D01*
G01*
G37*
%TD.AperFunction*%
%TO.P,U1,13*%
%TO.N,GND*%
%TA.AperFunction,SMDPad,CuDef*%
G36*
G01*
X179100000Y-63437500D02*
X179100000Y-63562500D01*
G75*
G02*
X179037500Y-63625000I-62500J0D01*
G01*
X178162500Y-63625000D01*
G75*
G02*
X178100000Y-63562500I0J62500D01*
G01*
X178100000Y-63437500D01*
G75*
G02*
X178162500Y-63375000I62500J0D01*
G01*
X179037500Y-63375000D01*
G75*
G02*
X179100000Y-63437500I0J-62500D01*
G01*
G37*
%TD.AperFunction*%
%TO.P,U1,12*%
%TO.N,VBUS*%
%TA.AperFunction,SMDPad,CuDef*%
G36*
G01*
X179100000Y-62937500D02*
X179100000Y-63062500D01*
G75*
G02*
X179037500Y-63125000I-62500J0D01*
G01*
X178162500Y-63125000D01*
G75*
G02*
X178100000Y-63062500I0J62500D01*
G01*
X178100000Y-62937500D01*
G75*
G02*
X178162500Y-62875000I62500J0D01*
G01*
X179037500Y-62875000D01*
G75*
G02*
X179100000Y-62937500I0J-62500D01*
G01*
G37*
%TD.AperFunction*%
%TO.P,U1,11*%
%TO.N,Net-(C1-Pad1)*%
%TA.AperFunction,SMDPad,CuDef*%
G36*
G01*
X179100000Y-62437500D02*
X179100000Y-62562500D01*
G75*
G02*
X179037500Y-62625000I-62500J0D01*
G01*
X178162500Y-62625000D01*
G75*
G02*
X178100000Y-62562500I0J62500D01*
G01*
X178100000Y-62437500D01*
G75*
G02*
X178162500Y-62375000I62500J0D01*
G01*
X179037500Y-62375000D01*
G75*
G02*
X179100000Y-62437500I0J-62500D01*
G01*
G37*
%TD.AperFunction*%
%TO.P,U1,10*%
%TA.AperFunction,SMDPad,CuDef*%
G36*
G01*
X179725000Y-61062500D02*
X179725000Y-61937500D01*
G75*
G02*
X179662500Y-62000000I-62500J0D01*
G01*
X179537500Y-62000000D01*
G75*
G02*
X179475000Y-61937500I0J62500D01*
G01*
X179475000Y-61062500D01*
G75*
G02*
X179537500Y-61000000I62500J0D01*
G01*
X179662500Y-61000000D01*
G75*
G02*
X179725000Y-61062500I0J-62500D01*
G01*
G37*
%TD.AperFunction*%
%TO.P,U1,9*%
%TO.N,D-*%
%TA.AperFunction,SMDPad,CuDef*%
G36*
G01*
X180225000Y-61062500D02*
X180225000Y-61937500D01*
G75*
G02*
X180162500Y-62000000I-62500J0D01*
G01*
X180037500Y-62000000D01*
G75*
G02*
X179975000Y-61937500I0J62500D01*
G01*
X179975000Y-61062500D01*
G75*
G02*
X180037500Y-61000000I62500J0D01*
G01*
X180162500Y-61000000D01*
G75*
G02*
X180225000Y-61062500I0J-62500D01*
G01*
G37*
%TD.AperFunction*%
%TO.P,U1,8*%
%TO.N,D+*%
%TA.AperFunction,SMDPad,CuDef*%
G36*
G01*
X180725000Y-61062500D02*
X180725000Y-61937500D01*
G75*
G02*
X180662500Y-62000000I-62500J0D01*
G01*
X180537500Y-62000000D01*
G75*
G02*
X180475000Y-61937500I0J62500D01*
G01*
X180475000Y-61062500D01*
G75*
G02*
X180537500Y-61000000I62500J0D01*
G01*
X180662500Y-61000000D01*
G75*
G02*
X180725000Y-61062500I0J-62500D01*
G01*
G37*
%TD.AperFunction*%
%TO.P,U1,7*%
%TO.N,Net-(U1-Pad7)*%
%TA.AperFunction,SMDPad,CuDef*%
G36*
G01*
X181225000Y-61062500D02*
X181225000Y-61937500D01*
G75*
G02*
X181162500Y-62000000I-62500J0D01*
G01*
X181037500Y-62000000D01*
G75*
G02*
X180975000Y-61937500I0J62500D01*
G01*
X180975000Y-61062500D01*
G75*
G02*
X181037500Y-61000000I62500J0D01*
G01*
X181162500Y-61000000D01*
G75*
G02*
X181225000Y-61062500I0J-62500D01*
G01*
G37*
%TD.AperFunction*%
%TO.P,U1,6*%
%TO.N,GND*%
%TA.AperFunction,SMDPad,CuDef*%
G36*
G01*
X181725000Y-61062500D02*
X181725000Y-61937500D01*
G75*
G02*
X181662500Y-62000000I-62500J0D01*
G01*
X181537500Y-62000000D01*
G75*
G02*
X181475000Y-61937500I0J62500D01*
G01*
X181475000Y-61062500D01*
G75*
G02*
X181537500Y-61000000I62500J0D01*
G01*
X181662500Y-61000000D01*
G75*
G02*
X181725000Y-61062500I0J-62500D01*
G01*
G37*
%TD.AperFunction*%
%TO.P,U1,5*%
%TA.AperFunction,SMDPad,CuDef*%
G36*
G01*
X183100000Y-62437500D02*
X183100000Y-62562500D01*
G75*
G02*
X183037500Y-62625000I-62500J0D01*
G01*
X182162500Y-62625000D01*
G75*
G02*
X182100000Y-62562500I0J62500D01*
G01*
X182100000Y-62437500D01*
G75*
G02*
X182162500Y-62375000I62500J0D01*
G01*
X183037500Y-62375000D01*
G75*
G02*
X183100000Y-62437500I0J-62500D01*
G01*
G37*
%TD.AperFunction*%
%TO.P,U1,4*%
%TA.AperFunction,SMDPad,CuDef*%
G36*
G01*
X183100000Y-62937500D02*
X183100000Y-63062500D01*
G75*
G02*
X183037500Y-63125000I-62500J0D01*
G01*
X182162500Y-63125000D01*
G75*
G02*
X182100000Y-63062500I0J62500D01*
G01*
X182100000Y-62937500D01*
G75*
G02*
X182162500Y-62875000I62500J0D01*
G01*
X183037500Y-62875000D01*
G75*
G02*
X183100000Y-62937500I0J-62500D01*
G01*
G37*
%TD.AperFunction*%
%TO.P,U1,3*%
%TA.AperFunction,SMDPad,CuDef*%
G36*
G01*
X183100000Y-63437500D02*
X183100000Y-63562500D01*
G75*
G02*
X183037500Y-63625000I-62500J0D01*
G01*
X182162500Y-63625000D01*
G75*
G02*
X182100000Y-63562500I0J62500D01*
G01*
X182100000Y-63437500D01*
G75*
G02*
X182162500Y-63375000I62500J0D01*
G01*
X183037500Y-63375000D01*
G75*
G02*
X183100000Y-63437500I0J-62500D01*
G01*
G37*
%TD.AperFunction*%
%TO.P,U1,2*%
%TA.AperFunction,SMDPad,CuDef*%
G36*
G01*
X183100000Y-63937500D02*
X183100000Y-64062500D01*
G75*
G02*
X183037500Y-64125000I-62500J0D01*
G01*
X182162500Y-64125000D01*
G75*
G02*
X182100000Y-64062500I0J62500D01*
G01*
X182100000Y-63937500D01*
G75*
G02*
X182162500Y-63875000I62500J0D01*
G01*
X183037500Y-63875000D01*
G75*
G02*
X183100000Y-63937500I0J-62500D01*
G01*
G37*
%TD.AperFunction*%
%TO.P,U1,1*%
%TO.N,TXD*%
%TA.AperFunction,SMDPad,CuDef*%
G36*
G01*
X183100000Y-64437500D02*
X183100000Y-64562500D01*
G75*
G02*
X183037500Y-64625000I-62500J0D01*
G01*
X182162500Y-64625000D01*
G75*
G02*
X182100000Y-64562500I0J62500D01*
G01*
X182100000Y-64437500D01*
G75*
G02*
X182162500Y-64375000I62500J0D01*
G01*
X183037500Y-64375000D01*
G75*
G02*
X183100000Y-64437500I0J-62500D01*
G01*
G37*
%TD.AperFunction*%
%TD*%
D32*
%TO.P,J2,6*%
%TO.N,TXD*%
X176250000Y-58600000D03*
%TO.P,J2,5*%
%TO.N,RXD*%
X177520000Y-58600000D03*
%TO.P,J2,4*%
%TO.N,+3V3*%
X178790000Y-58600000D03*
%TO.P,J2,3*%
%TO.N,RST*%
X180060000Y-58600000D03*
%TO.P,J2,2*%
%TO.N,GPIO0*%
X181330000Y-58600000D03*
D33*
%TO.P,J2,1*%
%TO.N,GND*%
X182600000Y-58600000D03*
%TD*%
D34*
%TO.N,GND*%
X175120000Y-71940000D03*
X181950000Y-70540000D03*
X174024042Y-63752132D03*
X175235941Y-61593758D03*
%TO.N,VBUS*%
X171384973Y-63440293D03*
X172070000Y-74640000D03*
%TO.N,RXD*%
X177349113Y-65015125D03*
%TO.N,+3V3*%
X171200000Y-60500000D03*
X170650001Y-74832376D03*
X179900000Y-70510000D03*
%TO.N,GPIO0*%
X182310858Y-60047895D03*
X182986734Y-66486682D03*
%TO.N,TXD*%
X183350000Y-60000000D03*
X173700000Y-60550011D03*
%TO.N,RST*%
X175986945Y-64718804D03*
X181227583Y-66825854D03*
%TO.N,D-*%
X179700000Y-67200000D03*
X178788304Y-60006376D03*
%TO.N,D+*%
X183112660Y-68887340D03*
X181325010Y-60215606D03*
%TO.N,Net-(C1-Pad1)*%
X177133335Y-62065537D03*
X181950104Y-67548375D03*
%TO.N,Net-(J4-PadA6)*%
X176675022Y-74648155D03*
X178237009Y-74843354D03*
%TO.N,Net-(J4-PadA5)*%
X182000000Y-79200000D03*
X175225010Y-74878226D03*
%TO.N,Net-(D1-Pad1)*%
X172000000Y-82350000D03*
X172713009Y-64526991D03*
%TD*%
D35*
%TO.N,GND*%
X181600000Y-62375000D02*
X180475000Y-63500000D01*
X181600000Y-61500000D02*
X181600000Y-62375000D01*
X181475000Y-62500000D02*
X180600000Y-63375000D01*
X182600000Y-62500000D02*
X181475000Y-62500000D01*
X180975000Y-63000000D02*
X180600000Y-63375000D01*
X182600000Y-63000000D02*
X180975000Y-63000000D01*
X180725000Y-63500000D02*
X180600000Y-63375000D01*
X182600000Y-63500000D02*
X180725000Y-63500000D01*
X180975000Y-64000000D02*
X180475000Y-63500000D01*
X182600000Y-64000000D02*
X180975000Y-64000000D01*
X180475000Y-63500000D02*
X180600000Y-63375000D01*
X178600000Y-63500000D02*
X180475000Y-63500000D01*
X182200000Y-58200000D02*
X182600000Y-58600000D01*
X182200000Y-56100000D02*
X182200000Y-58200000D01*
X182240000Y-81825000D02*
X181325000Y-80910000D01*
X183300000Y-81825000D02*
X182240000Y-81825000D01*
X183300000Y-78705000D02*
X181325000Y-76730000D01*
X183300000Y-78925000D02*
X183300000Y-78705000D01*
D36*
X175120000Y-71940000D02*
X176447500Y-71940000D01*
D35*
X173770000Y-64900000D02*
X173770000Y-64006174D01*
X173770000Y-64006174D02*
X174024042Y-63752132D01*
X175725000Y-61104699D02*
X175235941Y-61593758D01*
X175725000Y-60900000D02*
X175725000Y-61104699D01*
%TO.N,VBUS*%
X174600000Y-76795002D02*
X174904998Y-77100000D01*
X174600000Y-76140000D02*
X174600000Y-76795002D01*
X179400000Y-76795002D02*
X179400000Y-76140000D01*
X179095002Y-77100000D02*
X179400000Y-76795002D01*
X174904998Y-77100000D02*
X179095002Y-77100000D01*
X171860000Y-69740000D02*
X172810000Y-69740000D01*
X174975256Y-62357522D02*
X174744843Y-62127109D01*
X174744843Y-62127109D02*
X172698157Y-62127109D01*
X178600000Y-63000000D02*
X177042478Y-63000000D01*
X177042478Y-63000000D02*
X176400000Y-62357522D01*
X172698157Y-62127109D02*
X171384973Y-63440293D01*
X176400000Y-62357522D02*
X174975256Y-62357522D01*
X174600000Y-75484998D02*
X174600000Y-76140000D01*
X173755002Y-74640000D02*
X174600000Y-75484998D01*
X172070000Y-74640000D02*
X173755002Y-74640000D01*
X171521810Y-74640000D02*
X172070000Y-74640000D01*
X170490000Y-73608190D02*
X171521810Y-74640000D01*
X170490000Y-71550000D02*
X170490000Y-73608190D01*
X170650000Y-71390000D02*
X170490000Y-71550000D01*
X171710000Y-71390000D02*
X170650000Y-71390000D01*
%TO.N,RXD*%
X179088460Y-66325010D02*
X178818451Y-66055001D01*
X180100000Y-66048022D02*
X179823012Y-66325010D01*
X178818451Y-66055001D02*
X177823304Y-66055001D01*
X177823304Y-66055001D02*
X177349113Y-65580810D01*
X180100000Y-65500000D02*
X180100000Y-66048022D01*
X177349113Y-65580810D02*
X177349113Y-65015125D01*
X179823012Y-66325010D02*
X179088460Y-66325010D01*
X176694999Y-59425001D02*
X177520000Y-58600000D01*
X173109999Y-59825001D02*
X174430001Y-59825001D01*
X174430001Y-59825001D02*
X174830001Y-59425001D01*
X174830001Y-59425001D02*
X176694999Y-59425001D01*
X173044999Y-59760001D02*
X173109999Y-59825001D01*
X173044999Y-57635001D02*
X173044999Y-59760001D01*
X174580000Y-56100000D02*
X173044999Y-57635001D01*
%TO.N,+3V3*%
X171200000Y-58930000D02*
X171230000Y-58900000D01*
X171200000Y-60500000D02*
X171200000Y-58930000D01*
X175448003Y-59875012D02*
X177514988Y-59875012D01*
X174048002Y-61275013D02*
X175448003Y-59875012D01*
X177514988Y-59875012D02*
X178790000Y-58600000D01*
X171000000Y-77175000D02*
X171000000Y-75182375D01*
X171000000Y-75182375D02*
X170650001Y-74832376D01*
X172150000Y-60500000D02*
X172925013Y-61275013D01*
X171200000Y-60500000D02*
X172150000Y-60500000D01*
X172925013Y-61275013D02*
X174048002Y-61275013D01*
X178300000Y-71300000D02*
X178210000Y-71390000D01*
X178270000Y-71330000D02*
X178210000Y-71390000D01*
X179130000Y-70510000D02*
X178210000Y-69590000D01*
X179900000Y-70510000D02*
X179130000Y-70510000D01*
%TO.N,GPIO0*%
X181330000Y-57770000D02*
X181330000Y-58600000D01*
X179660000Y-56100000D02*
X181330000Y-57770000D01*
X181330000Y-59067037D02*
X182310858Y-60047895D01*
X181330000Y-58600000D02*
X181330000Y-59067037D01*
X180425001Y-66501995D02*
X180425001Y-67048591D01*
X181826399Y-68449989D02*
X182450011Y-68449989D01*
X180600000Y-66326996D02*
X180425001Y-66501995D01*
X182986734Y-67913266D02*
X182986734Y-66486682D01*
X182450011Y-68449989D02*
X182986734Y-67913266D01*
X180600000Y-65500000D02*
X180600000Y-66326996D01*
X180425001Y-67048591D02*
X181826399Y-68449989D01*
%TO.N,TXD*%
X183425010Y-60075010D02*
X183350000Y-60000000D01*
X183425010Y-64223012D02*
X183425010Y-60075010D01*
X183148022Y-64500000D02*
X183425010Y-64223012D01*
X182600000Y-64500000D02*
X183148022Y-64500000D01*
X172040000Y-59391413D02*
X172040000Y-56100000D01*
X173198597Y-60550011D02*
X172040000Y-59391413D01*
X173700000Y-60550011D02*
X173198597Y-60550011D01*
%TO.N,RST*%
X176000000Y-64825000D02*
X175986945Y-64811945D01*
X175986945Y-64811945D02*
X175986945Y-64718804D01*
X181100000Y-66698271D02*
X181227583Y-66825854D01*
X181100000Y-65500000D02*
X181100000Y-66698271D01*
%TO.N,D-*%
X179353989Y-60006376D02*
X178788304Y-60006376D01*
X180100000Y-61500000D02*
X180100000Y-60752387D01*
X180100000Y-60752387D02*
X179353989Y-60006376D01*
X182900000Y-72325000D02*
X182225000Y-73000000D01*
X183000000Y-69800000D02*
X183000000Y-72325000D01*
X182100000Y-68900000D02*
X183000000Y-69800000D01*
X181400000Y-68900000D02*
X182100000Y-68900000D01*
X183000000Y-72325000D02*
X182900000Y-72325000D01*
X179700000Y-67200000D02*
X181400000Y-68900000D01*
%TO.N,D+*%
X183512659Y-73612341D02*
X183512659Y-69287339D01*
X183512659Y-69287339D02*
X183112660Y-68887340D01*
X180600000Y-61500000D02*
X180600000Y-60940616D01*
X180600000Y-60940616D02*
X181325010Y-60215606D01*
X183012659Y-73612341D02*
X182225000Y-74400000D01*
X183512659Y-73612341D02*
X183012659Y-73612341D01*
%TO.N,Net-(C1-Pad1)*%
X177275000Y-61175000D02*
X178600000Y-62500000D01*
X177275000Y-60900000D02*
X177275000Y-61175000D01*
X179600000Y-61500000D02*
X178600000Y-62500000D01*
X177275000Y-60900000D02*
X177275000Y-61923872D01*
X177275000Y-61923872D02*
X177133335Y-62065537D01*
X182080770Y-65980770D02*
X182080770Y-67417709D01*
X182080770Y-67417709D02*
X181950104Y-67548375D01*
X181600000Y-65500000D02*
X182080770Y-65980770D01*
%TO.N,Net-(J4-PadA7)*%
X177425925Y-74225925D02*
X177760763Y-74225925D01*
X177425925Y-74970254D02*
X177250000Y-75146179D01*
X176250000Y-76140000D02*
X176250000Y-75288592D01*
X175950012Y-74988604D02*
X175950012Y-74149988D01*
X177250000Y-75146179D02*
X177250000Y-76140000D01*
X176250000Y-75288592D02*
X175950012Y-74988604D01*
X175950012Y-74149988D02*
X176200000Y-73900000D01*
X177100000Y-73900000D02*
X177425925Y-74225925D01*
X176200000Y-73900000D02*
X177100000Y-73900000D01*
X177425925Y-74225925D02*
X177425925Y-74970254D01*
X179456656Y-74118344D02*
X180197500Y-73377500D01*
X177868344Y-74118344D02*
X179456656Y-74118344D01*
X180197500Y-73377500D02*
X180575000Y-73000000D01*
X177760763Y-74225925D02*
X177868344Y-74118344D01*
%TO.N,Net-(J4-PadA6)*%
X176750000Y-76140000D02*
X176750000Y-74723133D01*
X176750000Y-74723133D02*
X176675022Y-74648155D01*
X178285375Y-74794988D02*
X178237009Y-74843354D01*
X177750000Y-76140000D02*
X177750000Y-75282590D01*
X178189236Y-74843354D02*
X178237009Y-74843354D01*
X180180012Y-74794988D02*
X178285375Y-74794988D01*
X177750000Y-75282590D02*
X178189236Y-74843354D01*
X180575000Y-74400000D02*
X180180012Y-74794988D01*
%TO.N,Net-(J4-PadA5)*%
X182325000Y-79200000D02*
X183300000Y-80175000D01*
X182000000Y-79200000D02*
X182325000Y-79200000D01*
X175750000Y-76140000D02*
X175750000Y-75425002D01*
X175225010Y-74900012D02*
X175225010Y-74878226D01*
X175750000Y-75425002D02*
X175225010Y-74900012D01*
%TO.N,Net-(J4-PadB5)*%
X178905034Y-75244999D02*
X182244999Y-75244999D01*
X178750000Y-75400033D02*
X178905034Y-75244999D01*
X182244999Y-75244999D02*
X183300000Y-76300000D01*
X178750000Y-76140000D02*
X178750000Y-75400033D01*
X183300000Y-76300000D02*
X183300000Y-77275000D01*
%TO.N,Net-(D1-Pad2)*%
X171000000Y-78825000D02*
X171000000Y-80125000D01*
%TO.N,Net-(D1-Pad1)*%
X171475000Y-82350000D02*
X171000000Y-81875000D01*
X172000000Y-82350000D02*
X171475000Y-82350000D01*
X177306992Y-63900000D02*
X175244912Y-63900000D01*
X177906992Y-64500000D02*
X177306992Y-63900000D01*
X178600000Y-64500000D02*
X177906992Y-64500000D01*
X174372043Y-63027131D02*
X173499865Y-63027131D01*
X173499865Y-63027131D02*
X172713009Y-63813987D01*
X175244912Y-63900000D02*
X174372043Y-63027131D01*
X172713009Y-63813987D02*
X172713009Y-64526991D01*
%TO.N,Net-(J1-Pad3)*%
X174320000Y-58900000D02*
X177120000Y-56100000D01*
X173770000Y-58900000D02*
X174320000Y-58900000D01*
%TO.N,Net-(R6-Pad1)*%
X173273465Y-62577120D02*
X174558443Y-62577120D01*
X171230000Y-64620585D02*
X173273465Y-62577120D01*
X171230000Y-64900000D02*
X171230000Y-64620585D01*
X175156323Y-63175000D02*
X176000000Y-63175000D01*
X174558443Y-62577120D02*
X175156323Y-63175000D01*
%TD*%
D37*
%TO.N,GND*%
X183315000Y-81972000D02*
X183173000Y-81972000D01*
X183173000Y-81952000D01*
X182392400Y-81952000D01*
X182469504Y-81874896D01*
X182353399Y-81758791D01*
X182548435Y-81698000D01*
X183173000Y-81698000D01*
X183173000Y-81678000D01*
X183315000Y-81678000D01*
X183315000Y-81972000D01*
%TA.AperFunction,Conductor*%
D38*
G36*
X183315000Y-81972000D02*
G01*
X183173000Y-81972000D01*
X183173000Y-81952000D01*
X182392400Y-81952000D01*
X182469504Y-81874896D01*
X182353399Y-81758791D01*
X182548435Y-81698000D01*
X183173000Y-81698000D01*
X183173000Y-81678000D01*
X183315000Y-81678000D01*
X183315000Y-81972000D01*
G37*
%TD.AperFunction*%
D37*
X177127000Y-80128000D02*
X180082315Y-80128000D01*
X180047528Y-80138843D01*
X179951943Y-80339308D01*
X179942741Y-80346095D01*
X179910027Y-80382000D01*
X177127000Y-80382000D01*
X177127000Y-80402000D01*
X176873000Y-80402000D01*
X176873000Y-80382000D01*
X174099973Y-80382000D01*
X174067259Y-80346095D01*
X174044790Y-80329523D01*
X174025919Y-80276253D01*
X173952472Y-80138843D01*
X173917685Y-80128000D01*
X176873000Y-80128000D01*
X176873000Y-80108000D01*
X177127000Y-80108000D01*
X177127000Y-80128000D01*
%TA.AperFunction,Conductor*%
D38*
G36*
X177127000Y-80128000D02*
G01*
X180082315Y-80128000D01*
X180047528Y-80138843D01*
X179951943Y-80339308D01*
X179942741Y-80346095D01*
X179910027Y-80382000D01*
X177127000Y-80382000D01*
X177127000Y-80402000D01*
X176873000Y-80402000D01*
X176873000Y-80382000D01*
X174099973Y-80382000D01*
X174067259Y-80346095D01*
X174044790Y-80329523D01*
X174025919Y-80276253D01*
X173952472Y-80138843D01*
X173917685Y-80128000D01*
X176873000Y-80128000D01*
X176873000Y-80108000D01*
X177127000Y-80108000D01*
X177127000Y-80128000D01*
G37*
%TD.AperFunction*%
D37*
X183315000Y-79072000D02*
X183271801Y-79072000D01*
X183153000Y-78953199D01*
X183153000Y-78798000D01*
X183173000Y-78798000D01*
X183173000Y-78778000D01*
X183315000Y-78778000D01*
X183315000Y-79072000D01*
%TA.AperFunction,Conductor*%
D38*
G36*
X183315000Y-79072000D02*
G01*
X183271801Y-79072000D01*
X183153000Y-78953199D01*
X183153000Y-78798000D01*
X183173000Y-78798000D01*
X183173000Y-78778000D01*
X183315000Y-78778000D01*
X183315000Y-79072000D01*
G37*
%TD.AperFunction*%
D37*
X181518748Y-76715858D02*
X181504605Y-76730000D01*
X181518748Y-76744143D01*
X181465853Y-76797037D01*
X181394326Y-76753909D01*
X181310495Y-76723665D01*
X181314707Y-76633082D01*
X181301497Y-76545613D01*
X181310858Y-76536253D01*
X181325000Y-76550395D01*
X181339143Y-76536253D01*
X181518748Y-76715858D01*
%TA.AperFunction,Conductor*%
D38*
G36*
X181518748Y-76715858D02*
G01*
X181504605Y-76730000D01*
X181518748Y-76744143D01*
X181465853Y-76797037D01*
X181394326Y-76753909D01*
X181310495Y-76723665D01*
X181314707Y-76633082D01*
X181301497Y-76545613D01*
X181310858Y-76536253D01*
X181325000Y-76550395D01*
X181339143Y-76536253D01*
X181518748Y-76715858D01*
G37*
%TD.AperFunction*%
D37*
X172694131Y-76541241D02*
X172683972Y-76569401D01*
X172665293Y-76693082D01*
X172666469Y-76718368D01*
X172595674Y-76743909D01*
X172524147Y-76787037D01*
X172481253Y-76744143D01*
X172495395Y-76730000D01*
X172481253Y-76715858D01*
X172660858Y-76536253D01*
X172675000Y-76550395D01*
X172689143Y-76536253D01*
X172694131Y-76541241D01*
%TA.AperFunction,Conductor*%
D38*
G36*
X172694131Y-76541241D02*
G01*
X172683972Y-76569401D01*
X172665293Y-76693082D01*
X172666469Y-76718368D01*
X172595674Y-76743909D01*
X172524147Y-76787037D01*
X172481253Y-76744143D01*
X172495395Y-76730000D01*
X172481253Y-76715858D01*
X172660858Y-76536253D01*
X172675000Y-76550395D01*
X172689143Y-76536253D01*
X172694131Y-76541241D01*
G37*
%TD.AperFunction*%
D37*
X179598061Y-68235000D02*
X179660199Y-68235000D01*
X180836200Y-69411002D01*
X180859999Y-69440001D01*
X180888997Y-69463799D01*
X180975723Y-69534974D01*
X181078669Y-69590000D01*
X181107753Y-69605546D01*
X181251014Y-69649003D01*
X181362667Y-69660000D01*
X181362676Y-69660000D01*
X181399999Y-69663676D01*
X181437322Y-69660000D01*
X181785199Y-69660000D01*
X182240000Y-70114802D01*
X182240001Y-71886928D01*
X182025000Y-71886928D01*
X181861500Y-71903031D01*
X181704284Y-71950722D01*
X181559392Y-72028169D01*
X181432394Y-72132394D01*
X181400000Y-72171866D01*
X181367606Y-72132394D01*
X181240608Y-72028169D01*
X181095716Y-71950722D01*
X180938500Y-71903031D01*
X180775000Y-71886928D01*
X180375000Y-71886928D01*
X180211500Y-71903031D01*
X180054284Y-71950722D01*
X179909392Y-72028169D01*
X179782394Y-72132394D01*
X179678169Y-72259392D01*
X179600722Y-72404284D01*
X179553031Y-72561500D01*
X179536928Y-72725000D01*
X179536928Y-72803847D01*
X179505472Y-72700150D01*
X179423405Y-72546614D01*
X179312962Y-72412038D01*
X179225183Y-72340000D01*
X179312962Y-72267962D01*
X179423405Y-72133386D01*
X179505472Y-71979850D01*
X179556008Y-71813254D01*
X179573072Y-71640000D01*
X179573072Y-71494858D01*
X179598102Y-71505226D01*
X179798061Y-71545000D01*
X180001939Y-71545000D01*
X180201898Y-71505226D01*
X180390256Y-71427205D01*
X180559774Y-71313937D01*
X180703937Y-71169774D01*
X180817205Y-71000256D01*
X180895226Y-70811898D01*
X180935000Y-70611939D01*
X180935000Y-70408061D01*
X180895226Y-70208102D01*
X180817205Y-70019744D01*
X180703937Y-69850226D01*
X180559774Y-69706063D01*
X180390256Y-69592795D01*
X180201898Y-69514774D01*
X180001939Y-69475000D01*
X179798061Y-69475000D01*
X179598102Y-69514774D01*
X179560572Y-69530320D01*
X179560572Y-68227543D01*
X179598061Y-68235000D01*
%TA.AperFunction,Conductor*%
D38*
G36*
X179598061Y-68235000D02*
G01*
X179660199Y-68235000D01*
X180836200Y-69411002D01*
X180859999Y-69440001D01*
X180888997Y-69463799D01*
X180975723Y-69534974D01*
X181078669Y-69590000D01*
X181107753Y-69605546D01*
X181251014Y-69649003D01*
X181362667Y-69660000D01*
X181362676Y-69660000D01*
X181399999Y-69663676D01*
X181437322Y-69660000D01*
X181785199Y-69660000D01*
X182240000Y-70114802D01*
X182240001Y-71886928D01*
X182025000Y-71886928D01*
X181861500Y-71903031D01*
X181704284Y-71950722D01*
X181559392Y-72028169D01*
X181432394Y-72132394D01*
X181400000Y-72171866D01*
X181367606Y-72132394D01*
X181240608Y-72028169D01*
X181095716Y-71950722D01*
X180938500Y-71903031D01*
X180775000Y-71886928D01*
X180375000Y-71886928D01*
X180211500Y-71903031D01*
X180054284Y-71950722D01*
X179909392Y-72028169D01*
X179782394Y-72132394D01*
X179678169Y-72259392D01*
X179600722Y-72404284D01*
X179553031Y-72561500D01*
X179536928Y-72725000D01*
X179536928Y-72803847D01*
X179505472Y-72700150D01*
X179423405Y-72546614D01*
X179312962Y-72412038D01*
X179225183Y-72340000D01*
X179312962Y-72267962D01*
X179423405Y-72133386D01*
X179505472Y-71979850D01*
X179556008Y-71813254D01*
X179573072Y-71640000D01*
X179573072Y-71494858D01*
X179598102Y-71505226D01*
X179798061Y-71545000D01*
X180001939Y-71545000D01*
X180201898Y-71505226D01*
X180390256Y-71427205D01*
X180559774Y-71313937D01*
X180703937Y-71169774D01*
X180817205Y-71000256D01*
X180895226Y-70811898D01*
X180935000Y-70611939D01*
X180935000Y-70408061D01*
X180895226Y-70208102D01*
X180817205Y-70019744D01*
X180703937Y-69850226D01*
X180559774Y-69706063D01*
X180390256Y-69592795D01*
X180201898Y-69514774D01*
X180001939Y-69475000D01*
X179798061Y-69475000D01*
X179598102Y-69514774D01*
X179560572Y-69530320D01*
X179560572Y-68227543D01*
X179598061Y-68235000D01*
G37*
%TD.AperFunction*%
D37*
X175096928Y-72401928D02*
X174823072Y-72401928D01*
X174823072Y-71328072D01*
X175096928Y-71328072D01*
X175096928Y-72401928D01*
%TA.AperFunction,Conductor*%
D38*
G36*
X175096928Y-72401928D02*
G01*
X174823072Y-72401928D01*
X174823072Y-71328072D01*
X175096928Y-71328072D01*
X175096928Y-72401928D01*
G37*
%TD.AperFunction*%
D37*
X174820636Y-64534974D02*
X174892036Y-64573139D01*
X174886928Y-64625000D01*
X174886928Y-65025000D01*
X174892345Y-65080000D01*
X174699250Y-65080000D01*
X174646250Y-65027000D01*
X173897000Y-65027000D01*
X173897000Y-65047000D01*
X173643000Y-65047000D01*
X173643000Y-65027000D01*
X173623697Y-65027000D01*
X173630214Y-65017247D01*
X173708235Y-64828889D01*
X173723330Y-64753000D01*
X173897000Y-64753000D01*
X173897000Y-64773000D01*
X174646250Y-64773000D01*
X174805000Y-64614250D01*
X174805893Y-64522875D01*
X174820636Y-64534974D01*
%TA.AperFunction,Conductor*%
D38*
G36*
X174820636Y-64534974D02*
G01*
X174892036Y-64573139D01*
X174886928Y-64625000D01*
X174886928Y-65025000D01*
X174892345Y-65080000D01*
X174699250Y-65080000D01*
X174646250Y-65027000D01*
X173897000Y-65027000D01*
X173897000Y-65047000D01*
X173643000Y-65047000D01*
X173643000Y-65027000D01*
X173623697Y-65027000D01*
X173630214Y-65017247D01*
X173708235Y-64828889D01*
X173723330Y-64753000D01*
X173897000Y-64753000D01*
X173897000Y-64773000D01*
X174646250Y-64773000D01*
X174805000Y-64614250D01*
X174805893Y-64522875D01*
X174820636Y-64534974D01*
G37*
%TD.AperFunction*%
D37*
X173897002Y-63823748D02*
X173897002Y-63787131D01*
X173933619Y-63787131D01*
X173897002Y-63823748D01*
%TA.AperFunction,Conductor*%
D38*
G36*
X173897002Y-63823748D02*
G01*
X173897002Y-63787131D01*
X173933619Y-63787131D01*
X173897002Y-63823748D01*
G37*
%TD.AperFunction*%
D37*
X180602000Y-63373000D02*
X180622000Y-63373000D01*
X180622000Y-63522000D01*
X180473000Y-63522000D01*
X180473000Y-63502000D01*
X180453000Y-63502000D01*
X180453000Y-63467395D01*
X180474842Y-63445553D01*
X180460700Y-63431411D01*
X180531411Y-63360700D01*
X180545553Y-63374842D01*
X180567395Y-63353000D01*
X180602000Y-63353000D01*
X180602000Y-63373000D01*
%TA.AperFunction,Conductor*%
D38*
G36*
X180602000Y-63373000D02*
G01*
X180622000Y-63373000D01*
X180622000Y-63522000D01*
X180473000Y-63522000D01*
X180473000Y-63502000D01*
X180453000Y-63502000D01*
X180453000Y-63467395D01*
X180474842Y-63445553D01*
X180460700Y-63431411D01*
X180531411Y-63360700D01*
X180545553Y-63374842D01*
X180567395Y-63353000D01*
X180602000Y-63353000D01*
X180602000Y-63373000D01*
G37*
%TD.AperFunction*%
D37*
X182665010Y-63125000D02*
X182473000Y-63125000D01*
X182473000Y-62375000D01*
X182665010Y-62375000D01*
X182665010Y-63125000D01*
%TA.AperFunction,Conductor*%
D38*
G36*
X182665010Y-63125000D02*
G01*
X182473000Y-63125000D01*
X182473000Y-62375000D01*
X182665010Y-62375000D01*
X182665010Y-63125000D01*
G37*
%TD.AperFunction*%
D37*
X175852000Y-60773000D02*
X175872000Y-60773000D01*
X175872000Y-61027000D01*
X175852000Y-61027000D01*
X175852000Y-61047000D01*
X175598000Y-61047000D01*
X175598000Y-61027000D01*
X175578000Y-61027000D01*
X175578000Y-60819818D01*
X175644818Y-60753000D01*
X175852000Y-60753000D01*
X175852000Y-60773000D01*
%TA.AperFunction,Conductor*%
D38*
G36*
X175852000Y-60773000D02*
G01*
X175872000Y-60773000D01*
X175872000Y-61027000D01*
X175852000Y-61027000D01*
X175852000Y-61047000D01*
X175598000Y-61047000D01*
X175598000Y-61027000D01*
X175578000Y-61027000D01*
X175578000Y-60819818D01*
X175644818Y-60753000D01*
X175852000Y-60753000D01*
X175852000Y-60773000D01*
G37*
%TD.AperFunction*%
D37*
X182727000Y-58473000D02*
X182747000Y-58473000D01*
X182747000Y-58727000D01*
X182727000Y-58727000D01*
X182727000Y-58747000D01*
X182473000Y-58747000D01*
X182473000Y-58727000D01*
X182461974Y-58727000D01*
X182465000Y-58711788D01*
X182465000Y-58488212D01*
X182461974Y-58473000D01*
X182473000Y-58473000D01*
X182473000Y-58453000D01*
X182727000Y-58453000D01*
X182727000Y-58473000D01*
%TA.AperFunction,Conductor*%
D38*
G36*
X182727000Y-58473000D02*
G01*
X182747000Y-58473000D01*
X182747000Y-58727000D01*
X182727000Y-58727000D01*
X182727000Y-58747000D01*
X182473000Y-58747000D01*
X182473000Y-58727000D01*
X182461974Y-58727000D01*
X182465000Y-58711788D01*
X182465000Y-58488212D01*
X182461974Y-58473000D01*
X182473000Y-58473000D01*
X182473000Y-58453000D01*
X182727000Y-58453000D01*
X182727000Y-58473000D01*
G37*
%TD.AperFunction*%
D37*
X182327000Y-55973000D02*
X182347000Y-55973000D01*
X182347000Y-56227000D01*
X182327000Y-56227000D01*
X182327000Y-56247000D01*
X182073000Y-56247000D01*
X182073000Y-56227000D01*
X182053000Y-56227000D01*
X182053000Y-55973000D01*
X182073000Y-55973000D01*
X182073000Y-55953000D01*
X182327000Y-55953000D01*
X182327000Y-55973000D01*
%TA.AperFunction,Conductor*%
D38*
G36*
X182327000Y-55973000D02*
G01*
X182347000Y-55973000D01*
X182347000Y-56227000D01*
X182327000Y-56227000D01*
X182327000Y-56247000D01*
X182073000Y-56247000D01*
X182073000Y-56227000D01*
X182053000Y-56227000D01*
X182053000Y-55973000D01*
X182073000Y-55973000D01*
X182073000Y-55953000D01*
X182327000Y-55953000D01*
X182327000Y-55973000D01*
G37*
%TD.AperFunction*%
%TD*%
M02*
