%TF.GenerationSoftware,KiCad,Pcbnew,(5.1.10-1-10_14)*%
%TF.CreationDate,2021-05-11T16:29:51+01:00*%
%TF.ProjectId,Shelly,5368656c-6c79-42e6-9b69-6361645f7063,4*%
%TF.SameCoordinates,Original*%
%TF.FileFunction,Legend,Top*%
%TF.FilePolarity,Positive*%
%FSLAX46Y46*%
G04 Gerber Fmt 4.6, Leading zero omitted, Abs format (unit mm)*
G04 Created by KiCad (PCBNEW (5.1.10-1-10_14)) date 2021-05-11 16:29:51*
%MOMM*%
%LPD*%
G01*
G04 APERTURE LIST*
%ADD10C,0.120000*%
%ADD11C,0.080000*%
%ADD12C,0.150000*%
G04 APERTURE END LIST*
D10*
%TO.C,R6*%
X170290000Y-77659420D02*
X170290000Y-77940580D01*
X171310000Y-77659420D02*
X171310000Y-77940580D01*
%TO.C,R5*%
X183359420Y-75010000D02*
X183640580Y-75010000D01*
X183359420Y-73990000D02*
X183640580Y-73990000D01*
%TO.C,R4*%
X183359420Y-73810000D02*
X183640580Y-73810000D01*
X183359420Y-72790000D02*
X183640580Y-72790000D01*
%TO.C,R3*%
X172010000Y-64740580D02*
X172010000Y-64459420D01*
X170990000Y-64740580D02*
X170990000Y-64459420D01*
%TO.C,R2*%
X180090000Y-80159420D02*
X180090000Y-80440580D01*
X181110000Y-80159420D02*
X181110000Y-80440580D01*
%TO.C,R1*%
X170290000Y-80359420D02*
X170290000Y-80640580D01*
X171310000Y-80359420D02*
X171310000Y-80640580D01*
%TO.C,C1*%
X184610000Y-64140580D02*
X184610000Y-63859420D01*
X183590000Y-64140580D02*
X183590000Y-63859420D01*
%TO.C,D1*%
X170765000Y-59840000D02*
X170765000Y-62300000D01*
X172235000Y-59840000D02*
X170765000Y-59840000D01*
X172235000Y-62300000D02*
X172235000Y-59840000D01*
%TO.C,Reg1*%
X170350000Y-66850000D02*
X178350000Y-66850000D01*
X178350000Y-66850000D02*
X178350000Y-75850000D01*
X178350000Y-75850000D02*
X170350000Y-75850000D01*
X170350000Y-75850000D02*
X170350000Y-66850000D01*
%TO.C,J3*%
X181260000Y-61390000D02*
X181260000Y-62500000D01*
X180500000Y-61390000D02*
X181260000Y-61390000D01*
X179740000Y-63063471D02*
X179740000Y-63610000D01*
X179740000Y-61390000D02*
X179740000Y-61936529D01*
X179740000Y-63610000D02*
X173455000Y-63610000D01*
X179740000Y-61390000D02*
X173455000Y-61390000D01*
X173455000Y-62807530D02*
X173455000Y-63610000D01*
X173455000Y-61390000D02*
X173455000Y-62192470D01*
%TO.C,J4*%
X171530000Y-89490000D02*
X180470000Y-89490000D01*
X180470000Y-82140000D02*
X180470000Y-89490000D01*
X171530000Y-82140000D02*
X180470000Y-82140000D01*
X171530000Y-89490000D02*
X171530000Y-82140000D01*
%TO.C,U1*%
X180515000Y-70810000D02*
X179790000Y-70810000D01*
X179790000Y-70810000D02*
X179790000Y-70085000D01*
X183285000Y-66590000D02*
X184010000Y-66590000D01*
X184010000Y-66590000D02*
X184010000Y-67315000D01*
X180515000Y-66590000D02*
X179790000Y-66590000D01*
X179790000Y-66590000D02*
X179790000Y-67315000D01*
X183285000Y-70810000D02*
X184010000Y-70810000D01*
%TO.C,R6*%
D11*
X170716666Y-76426190D02*
X170550000Y-76188095D01*
X170430952Y-76426190D02*
X170430952Y-75926190D01*
X170621428Y-75926190D01*
X170669047Y-75950000D01*
X170692857Y-75973809D01*
X170716666Y-76021428D01*
X170716666Y-76092857D01*
X170692857Y-76140476D01*
X170669047Y-76164285D01*
X170621428Y-76188095D01*
X170430952Y-76188095D01*
X171145238Y-75926190D02*
X171050000Y-75926190D01*
X171002380Y-75950000D01*
X170978571Y-75973809D01*
X170930952Y-76045238D01*
X170907142Y-76140476D01*
X170907142Y-76330952D01*
X170930952Y-76378571D01*
X170954761Y-76402380D01*
X171002380Y-76426190D01*
X171097619Y-76426190D01*
X171145238Y-76402380D01*
X171169047Y-76378571D01*
X171192857Y-76330952D01*
X171192857Y-76211904D01*
X171169047Y-76164285D01*
X171145238Y-76140476D01*
X171097619Y-76116666D01*
X171002380Y-76116666D01*
X170954761Y-76140476D01*
X170930952Y-76164285D01*
X170907142Y-76211904D01*
%TO.C,R5*%
X182126190Y-74583333D02*
X181888095Y-74750000D01*
X182126190Y-74869047D02*
X181626190Y-74869047D01*
X181626190Y-74678571D01*
X181650000Y-74630952D01*
X181673809Y-74607142D01*
X181721428Y-74583333D01*
X181792857Y-74583333D01*
X181840476Y-74607142D01*
X181864285Y-74630952D01*
X181888095Y-74678571D01*
X181888095Y-74869047D01*
X181626190Y-74130952D02*
X181626190Y-74369047D01*
X181864285Y-74392857D01*
X181840476Y-74369047D01*
X181816666Y-74321428D01*
X181816666Y-74202380D01*
X181840476Y-74154761D01*
X181864285Y-74130952D01*
X181911904Y-74107142D01*
X182030952Y-74107142D01*
X182078571Y-74130952D01*
X182102380Y-74154761D01*
X182126190Y-74202380D01*
X182126190Y-74321428D01*
X182102380Y-74369047D01*
X182078571Y-74392857D01*
%TO.C,R4*%
X182126190Y-73383333D02*
X181888095Y-73550000D01*
X182126190Y-73669047D02*
X181626190Y-73669047D01*
X181626190Y-73478571D01*
X181650000Y-73430952D01*
X181673809Y-73407142D01*
X181721428Y-73383333D01*
X181792857Y-73383333D01*
X181840476Y-73407142D01*
X181864285Y-73430952D01*
X181888095Y-73478571D01*
X181888095Y-73669047D01*
X181792857Y-72954761D02*
X182126190Y-72954761D01*
X181602380Y-73073809D02*
X181959523Y-73192857D01*
X181959523Y-72883333D01*
%TO.C,R3*%
X171416666Y-66426190D02*
X171250000Y-66188095D01*
X171130952Y-66426190D02*
X171130952Y-65926190D01*
X171321428Y-65926190D01*
X171369047Y-65950000D01*
X171392857Y-65973809D01*
X171416666Y-66021428D01*
X171416666Y-66092857D01*
X171392857Y-66140476D01*
X171369047Y-66164285D01*
X171321428Y-66188095D01*
X171130952Y-66188095D01*
X171583333Y-65926190D02*
X171892857Y-65926190D01*
X171726190Y-66116666D01*
X171797619Y-66116666D01*
X171845238Y-66140476D01*
X171869047Y-66164285D01*
X171892857Y-66211904D01*
X171892857Y-66330952D01*
X171869047Y-66378571D01*
X171845238Y-66402380D01*
X171797619Y-66426190D01*
X171654761Y-66426190D01*
X171607142Y-66402380D01*
X171583333Y-66378571D01*
%TO.C,R2*%
X180516666Y-78926190D02*
X180350000Y-78688095D01*
X180230952Y-78926190D02*
X180230952Y-78426190D01*
X180421428Y-78426190D01*
X180469047Y-78450000D01*
X180492857Y-78473809D01*
X180516666Y-78521428D01*
X180516666Y-78592857D01*
X180492857Y-78640476D01*
X180469047Y-78664285D01*
X180421428Y-78688095D01*
X180230952Y-78688095D01*
X180707142Y-78473809D02*
X180730952Y-78450000D01*
X180778571Y-78426190D01*
X180897619Y-78426190D01*
X180945238Y-78450000D01*
X180969047Y-78473809D01*
X180992857Y-78521428D01*
X180992857Y-78569047D01*
X180969047Y-78640476D01*
X180683333Y-78926190D01*
X180992857Y-78926190D01*
%TO.C,R1*%
X170716666Y-79126190D02*
X170550000Y-78888095D01*
X170430952Y-79126190D02*
X170430952Y-78626190D01*
X170621428Y-78626190D01*
X170669047Y-78650000D01*
X170692857Y-78673809D01*
X170716666Y-78721428D01*
X170716666Y-78792857D01*
X170692857Y-78840476D01*
X170669047Y-78864285D01*
X170621428Y-78888095D01*
X170430952Y-78888095D01*
X171192857Y-79126190D02*
X170907142Y-79126190D01*
X171050000Y-79126190D02*
X171050000Y-78626190D01*
X171002380Y-78697619D01*
X170954761Y-78745238D01*
X170907142Y-78769047D01*
%TO.C,C1*%
X184016666Y-65778571D02*
X183992857Y-65802380D01*
X183921428Y-65826190D01*
X183873809Y-65826190D01*
X183802380Y-65802380D01*
X183754761Y-65754761D01*
X183730952Y-65707142D01*
X183707142Y-65611904D01*
X183707142Y-65540476D01*
X183730952Y-65445238D01*
X183754761Y-65397619D01*
X183802380Y-65350000D01*
X183873809Y-65326190D01*
X183921428Y-65326190D01*
X183992857Y-65350000D01*
X184016666Y-65373809D01*
X184492857Y-65826190D02*
X184207142Y-65826190D01*
X184350000Y-65826190D02*
X184350000Y-65326190D01*
X184302380Y-65397619D01*
X184254761Y-65445238D01*
X184207142Y-65469047D01*
%TO.C,D1*%
D12*
X173382380Y-62238095D02*
X172382380Y-62238095D01*
X172382380Y-62000000D01*
X172430000Y-61857142D01*
X172525238Y-61761904D01*
X172620476Y-61714285D01*
X172810952Y-61666666D01*
X172953809Y-61666666D01*
X173144285Y-61714285D01*
X173239523Y-61761904D01*
X173334761Y-61857142D01*
X173382380Y-62000000D01*
X173382380Y-62238095D01*
X173382380Y-60714285D02*
X173382380Y-61285714D01*
X173382380Y-61000000D02*
X172382380Y-61000000D01*
X172525238Y-61095238D01*
X172620476Y-61190476D01*
X172668095Y-61285714D01*
%TO.C,Reg1*%
X175552380Y-76052380D02*
X175219047Y-75576190D01*
X174980952Y-76052380D02*
X174980952Y-75052380D01*
X175361904Y-75052380D01*
X175457142Y-75100000D01*
X175504761Y-75147619D01*
X175552380Y-75242857D01*
X175552380Y-75385714D01*
X175504761Y-75480952D01*
X175457142Y-75528571D01*
X175361904Y-75576190D01*
X174980952Y-75576190D01*
X176361904Y-76004761D02*
X176266666Y-76052380D01*
X176076190Y-76052380D01*
X175980952Y-76004761D01*
X175933333Y-75909523D01*
X175933333Y-75528571D01*
X175980952Y-75433333D01*
X176076190Y-75385714D01*
X176266666Y-75385714D01*
X176361904Y-75433333D01*
X176409523Y-75528571D01*
X176409523Y-75623809D01*
X175933333Y-75719047D01*
X177266666Y-75385714D02*
X177266666Y-76195238D01*
X177219047Y-76290476D01*
X177171428Y-76338095D01*
X177076190Y-76385714D01*
X176933333Y-76385714D01*
X176838095Y-76338095D01*
X177266666Y-76004761D02*
X177171428Y-76052380D01*
X176980952Y-76052380D01*
X176885714Y-76004761D01*
X176838095Y-75957142D01*
X176790476Y-75861904D01*
X176790476Y-75576190D01*
X176838095Y-75480952D01*
X176885714Y-75433333D01*
X176980952Y-75385714D01*
X177171428Y-75385714D01*
X177266666Y-75433333D01*
X178266666Y-76052380D02*
X177695238Y-76052380D01*
X177980952Y-76052380D02*
X177980952Y-75052380D01*
X177885714Y-75195238D01*
X177790476Y-75290476D01*
X177695238Y-75338095D01*
%TO.C,U2*%
X170252380Y-79461904D02*
X171061904Y-79461904D01*
X171157142Y-79414285D01*
X171204761Y-79366666D01*
X171252380Y-79271428D01*
X171252380Y-79080952D01*
X171204761Y-78985714D01*
X171157142Y-78938095D01*
X171061904Y-78890476D01*
X170252380Y-78890476D01*
X170347619Y-78461904D02*
X170300000Y-78414285D01*
X170252380Y-78319047D01*
X170252380Y-78080952D01*
X170300000Y-77985714D01*
X170347619Y-77938095D01*
X170442857Y-77890476D01*
X170538095Y-77890476D01*
X170680952Y-77938095D01*
X171252380Y-78509523D01*
X171252380Y-77890476D01*
%TO.C,J4*%
X170252380Y-85333333D02*
X170966666Y-85333333D01*
X171109523Y-85380952D01*
X171204761Y-85476190D01*
X171252380Y-85619047D01*
X171252380Y-85714285D01*
X170585714Y-84428571D02*
X171252380Y-84428571D01*
X170204761Y-84666666D02*
X170919047Y-84904761D01*
X170919047Y-84285714D01*
%TO.C,U1*%
X181138095Y-71452380D02*
X181138095Y-72261904D01*
X181185714Y-72357142D01*
X181233333Y-72404761D01*
X181328571Y-72452380D01*
X181519047Y-72452380D01*
X181614285Y-72404761D01*
X181661904Y-72357142D01*
X181709523Y-72261904D01*
X181709523Y-71452380D01*
X182709523Y-72452380D02*
X182138095Y-72452380D01*
X182423809Y-72452380D02*
X182423809Y-71452380D01*
X182328571Y-71595238D01*
X182233333Y-71690476D01*
X182138095Y-71738095D01*
%TD*%
M02*
