%TF.GenerationSoftware,KiCad,Pcbnew,(6.0.1-0)*%
%TF.CreationDate,2022-01-19T10:47:38+00:00*%
%TF.ProjectId,Shelly,5368656c-6c79-42e6-9b69-6361645f7063,4*%
%TF.SameCoordinates,Original*%
%TF.FileFunction,Copper,L2,Bot*%
%TF.FilePolarity,Positive*%
%FSLAX46Y46*%
G04 Gerber Fmt 4.6, Leading zero omitted, Abs format (unit mm)*
G04 Created by KiCad (PCBNEW (6.0.1-0)) date 2022-01-19 10:47:38*
%MOMM*%
%LPD*%
G01*
G04 APERTURE LIST*
%ADD10C,0.080000*%
%TA.AperFunction,NonConductor*%
%ADD11C,0.080000*%
%TD*%
%TA.AperFunction,EtchedComponent*%
%ADD12C,0.250000*%
%TD*%
%TA.AperFunction,ComponentPad*%
%ADD13R,1.700000X1.700000*%
%TD*%
%TA.AperFunction,ComponentPad*%
%ADD14O,1.700000X1.700000*%
%TD*%
%TA.AperFunction,ComponentPad*%
%ADD15C,0.350000*%
%TD*%
%TA.AperFunction,ComponentPad*%
%ADD16C,0.600000*%
%TD*%
%TA.AperFunction,ComponentPad*%
%ADD17C,1.500000*%
%TD*%
%TA.AperFunction,ComponentPad*%
%ADD18C,1.250000*%
%TD*%
%TA.AperFunction,ComponentPad*%
%ADD19R,1.000000X1.000000*%
%TD*%
%TA.AperFunction,ComponentPad*%
%ADD20O,1.000000X1.000000*%
%TD*%
%TA.AperFunction,SMDPad,CuDef*%
%ADD21R,0.400000X0.400000*%
%TD*%
%TA.AperFunction,SMDPad,CuDef*%
%ADD22R,0.400000X0.200000*%
%TD*%
%TA.AperFunction,SMDPad,CuDef*%
%ADD23R,1.200000X0.200000*%
%TD*%
%TA.AperFunction,SMDPad,CuDef*%
%ADD24R,0.200000X0.200000*%
%TD*%
%TA.AperFunction,SMDPad,CuDef*%
%ADD25R,0.200000X0.400000*%
%TD*%
%TA.AperFunction,SMDPad,CuDef*%
%ADD26R,0.800000X0.200000*%
%TD*%
%TA.AperFunction,SMDPad,CuDef*%
%ADD27R,0.200000X0.800000*%
%TD*%
%TA.AperFunction,SMDPad,CuDef*%
%ADD28R,0.200000X0.600000*%
%TD*%
%TA.AperFunction,SMDPad,CuDef*%
%ADD29R,0.200000X1.000000*%
%TD*%
%TA.AperFunction,SMDPad,CuDef*%
%ADD30R,0.200000X1.400000*%
%TD*%
%TA.AperFunction,SMDPad,CuDef*%
%ADD31R,1.000000X0.200000*%
%TD*%
%TA.AperFunction,SMDPad,CuDef*%
%ADD32R,0.600000X0.600000*%
%TD*%
%TA.AperFunction,SMDPad,CuDef*%
%ADD33R,0.600000X0.200000*%
%TD*%
%TA.AperFunction,SMDPad,CuDef*%
%ADD34R,0.600000X0.400000*%
%TD*%
%TA.AperFunction,ViaPad*%
%ADD35C,0.800000*%
%TD*%
%TA.AperFunction,Conductor*%
%ADD36C,0.250000*%
%TD*%
G04 APERTURE END LIST*
D10*
D11*
X180628571Y-73573809D02*
X180604761Y-73550000D01*
X180557142Y-73526190D01*
X180438095Y-73526190D01*
X180390476Y-73550000D01*
X180366666Y-73573809D01*
X180342857Y-73621428D01*
X180342857Y-73669047D01*
X180366666Y-73740476D01*
X180652380Y-74026190D01*
X180342857Y-74026190D01*
X180033333Y-73526190D02*
X179985714Y-73526190D01*
X179938095Y-73550000D01*
X179914285Y-73573809D01*
X179890476Y-73621428D01*
X179866666Y-73716666D01*
X179866666Y-73835714D01*
X179890476Y-73930952D01*
X179914285Y-73978571D01*
X179938095Y-74002380D01*
X179985714Y-74026190D01*
X180033333Y-74026190D01*
X180080952Y-74002380D01*
X180104761Y-73978571D01*
X180128571Y-73930952D01*
X180152380Y-73835714D01*
X180152380Y-73716666D01*
X180128571Y-73621428D01*
X180104761Y-73573809D01*
X180080952Y-73550000D01*
X180033333Y-73526190D01*
X179676190Y-73573809D02*
X179652380Y-73550000D01*
X179604761Y-73526190D01*
X179485714Y-73526190D01*
X179438095Y-73550000D01*
X179414285Y-73573809D01*
X179390476Y-73621428D01*
X179390476Y-73669047D01*
X179414285Y-73740476D01*
X179700000Y-74026190D01*
X179390476Y-74026190D01*
X179200000Y-73573809D02*
X179176190Y-73550000D01*
X179128571Y-73526190D01*
X179009523Y-73526190D01*
X178961904Y-73550000D01*
X178938095Y-73573809D01*
X178914285Y-73621428D01*
X178914285Y-73669047D01*
X178938095Y-73740476D01*
X179223809Y-74026190D01*
X178914285Y-74026190D01*
X178700000Y-73835714D02*
X178319047Y-73835714D01*
X177985714Y-73526190D02*
X177938095Y-73526190D01*
X177890476Y-73550000D01*
X177866666Y-73573809D01*
X177842857Y-73621428D01*
X177819047Y-73716666D01*
X177819047Y-73835714D01*
X177842857Y-73930952D01*
X177866666Y-73978571D01*
X177890476Y-74002380D01*
X177938095Y-74026190D01*
X177985714Y-74026190D01*
X178033333Y-74002380D01*
X178057142Y-73978571D01*
X178080952Y-73930952D01*
X178104761Y-73835714D01*
X178104761Y-73716666D01*
X178080952Y-73621428D01*
X178057142Y-73573809D01*
X178033333Y-73550000D01*
X177985714Y-73526190D01*
X177342857Y-74026190D02*
X177628571Y-74026190D01*
X177485714Y-74026190D02*
X177485714Y-73526190D01*
X177533333Y-73597619D01*
X177580952Y-73645238D01*
X177628571Y-73669047D01*
X177128571Y-73835714D02*
X176747619Y-73835714D01*
X176247619Y-74026190D02*
X176533333Y-74026190D01*
X176390476Y-74026190D02*
X176390476Y-73526190D01*
X176438095Y-73597619D01*
X176485714Y-73645238D01*
X176533333Y-73669047D01*
X176009523Y-74026190D02*
X175914285Y-74026190D01*
X175866666Y-74002380D01*
X175842857Y-73978571D01*
X175795238Y-73907142D01*
X175771428Y-73811904D01*
X175771428Y-73621428D01*
X175795238Y-73573809D01*
X175819047Y-73550000D01*
X175866666Y-73526190D01*
X175961904Y-73526190D01*
X176009523Y-73550000D01*
X176033333Y-73573809D01*
X176057142Y-73621428D01*
X176057142Y-73740476D01*
X176033333Y-73788095D01*
X176009523Y-73811904D01*
X175961904Y-73835714D01*
X175866666Y-73835714D01*
X175819047Y-73811904D01*
X175795238Y-73788095D01*
X175771428Y-73740476D01*
D10*
%TO.C,Art1*%
D11*
X177680952Y-78004761D02*
X177800000Y-77861904D01*
X177895238Y-78004761D02*
X177895238Y-77671428D01*
X177752380Y-77671428D01*
X177704761Y-77695238D01*
X177680952Y-77742857D01*
X177680952Y-77790476D01*
X177704761Y-77838095D01*
X177752380Y-77861904D01*
X177895238Y-77861904D01*
X177800000Y-77504761D02*
X177919047Y-77528571D01*
X178038095Y-77600000D01*
X178109523Y-77719047D01*
X178133333Y-77838095D01*
X178109523Y-77957142D01*
X178038095Y-78076190D01*
X177919047Y-78147619D01*
X177800000Y-78171428D01*
X177680952Y-78147619D01*
X177561904Y-78076190D01*
X177490476Y-77957142D01*
X177466666Y-77838095D01*
X177490476Y-77719047D01*
X177561904Y-77600000D01*
X177680952Y-77528571D01*
X177800000Y-77504761D01*
D12*
X176600000Y-77650000D02*
X176600000Y-81850000D01*
X174800000Y-77750000D02*
X176600000Y-79750000D01*
X176600000Y-79750000D02*
X174800000Y-81850000D01*
X176600000Y-79750000D02*
X178100000Y-79750000D01*
X176600000Y-77650000D02*
X179600000Y-81850000D01*
X176600000Y-81850000D02*
G75*
G03*
X178100000Y-81850000I750000J0D01*
G01*
%TD*%
D13*
%TO.P,J1,1,Pin_1*%
%TO.N,GND*%
X182200000Y-56100000D03*
D14*
%TO.P,J1,2,Pin_2*%
%TO.N,GPIO0*%
X179660000Y-56100000D03*
%TO.P,J1,3,Pin_3*%
%TO.N,Net-(J1-Pad3)*%
X177120000Y-56100000D03*
%TO.P,J1,4,Pin_4*%
%TO.N,RXD*%
X174580000Y-56100000D03*
%TO.P,J1,5,Pin_5*%
%TO.N,TXD*%
X172040000Y-56100000D03*
%TD*%
D15*
%TO.P,U1,21,GND*%
%TO.N,GND*%
X180700000Y-62200000D03*
%TD*%
D16*
%TO.P,J3,S1,SHIELD*%
%TO.N,GND*%
X174110000Y-77110000D03*
X179890000Y-77110000D03*
D17*
X172680000Y-76620000D03*
X181320000Y-76620000D03*
D18*
X172680000Y-80790000D03*
X181320000Y-80790000D03*
%TD*%
D19*
%TO.P,J2,1,Pin_1*%
%TO.N,GND*%
X182600000Y-58600000D03*
D20*
%TO.P,J2,2,Pin_2*%
%TO.N,GPIO0*%
X181330000Y-58600000D03*
%TO.P,J2,3,Pin_3*%
%TO.N,Net-(J1-Pad3)*%
X180060000Y-58600000D03*
%TO.P,J2,4,Pin_4*%
%TO.N,+3V3*%
X178790000Y-58600000D03*
%TO.P,J2,5,Pin_5*%
%TO.N,RXD*%
X177520000Y-58600000D03*
%TO.P,J2,6,Pin_6*%
%TO.N,TXD*%
X176250000Y-58600000D03*
%TD*%
D21*
%TO.P,Art2,*%
%TO.N,*%
X176400000Y-68700000D03*
D22*
X176400000Y-67600000D03*
D23*
X173200000Y-68200000D03*
D22*
X174800000Y-70400000D03*
D24*
X173900000Y-69200000D03*
D25*
X174300000Y-68700000D03*
D24*
X175900000Y-67200000D03*
D26*
X175600000Y-67600000D03*
D27*
X174100000Y-70700000D03*
D28*
X174100000Y-67600000D03*
D23*
X173200000Y-67000000D03*
X176000000Y-71000000D03*
D29*
X176500000Y-70400000D03*
D28*
X174900000Y-69800000D03*
D24*
X175100000Y-68400000D03*
X176100000Y-68400000D03*
D25*
X176500000Y-67300000D03*
D30*
X172500000Y-67600000D03*
D31*
X175500000Y-68000000D03*
D24*
X173500000Y-68800000D03*
D32*
X173100000Y-70400000D03*
D25*
X175500000Y-68500000D03*
D28*
X174100000Y-68600000D03*
X174500000Y-68200000D03*
D24*
X174900000Y-71000000D03*
X176500000Y-69200000D03*
D28*
X172500000Y-69200000D03*
D22*
X175000000Y-67800000D03*
D25*
X174500000Y-67500000D03*
D22*
X174800000Y-70800000D03*
D24*
X175100000Y-69000000D03*
D22*
X176000000Y-67800000D03*
D23*
X176000000Y-69800000D03*
D24*
X173700000Y-69400000D03*
D23*
X173200000Y-69800000D03*
D29*
X173700000Y-70400000D03*
D28*
X174700000Y-67800000D03*
D22*
X175400000Y-67000000D03*
D24*
X176500000Y-68200000D03*
D30*
X175300000Y-70400000D03*
D32*
X173100000Y-67600000D03*
D33*
X175300000Y-67200000D03*
D26*
X174800000Y-69400000D03*
D33*
X175500000Y-68800000D03*
D21*
X174800000Y-68700000D03*
D23*
X174200000Y-69000000D03*
D24*
X174500000Y-69800000D03*
D22*
X175800000Y-68600000D03*
D24*
X172900000Y-69000000D03*
D25*
X175900000Y-69300000D03*
D22*
X176400000Y-68000000D03*
X173200000Y-69200000D03*
D24*
X174100000Y-69800000D03*
D26*
X175800000Y-69000000D03*
D33*
X175900000Y-68200000D03*
D24*
X173300000Y-69000000D03*
D27*
X172700000Y-68900000D03*
D28*
X174300000Y-70800000D03*
D30*
X172500000Y-70400000D03*
D23*
X173200000Y-71000000D03*
D24*
X174500000Y-70600000D03*
X173100000Y-68800000D03*
D22*
X173000000Y-68600000D03*
D24*
X173700000Y-68600000D03*
D29*
X173700000Y-67600000D03*
D24*
X174900000Y-68200000D03*
X174100000Y-69400000D03*
D22*
X174200000Y-67000000D03*
D32*
X175900000Y-70400000D03*
D24*
X175300000Y-68200000D03*
D33*
X176300000Y-69400000D03*
D24*
X175300000Y-69200000D03*
D33*
X173100000Y-69400000D03*
D34*
X174500000Y-70100000D03*
D24*
X175500000Y-67400000D03*
%TD*%
D35*
%TO.N,Net-(J3-PadA6)*%
X181213616Y-74465690D03*
%TO.N,Net-(D3-Pad1)*%
X172000000Y-82350000D03*
%TO.N,GND*%
X174500000Y-64000000D03*
%TO.N,Net-(D3-Pad1)*%
X172900000Y-64500000D03*
%TO.N,VBUS*%
X171300000Y-63400000D03*
%TO.N,+3V3*%
X171100000Y-62200000D03*
%TO.N,GND*%
X173100000Y-62000000D03*
X171100000Y-60200000D03*
X179635478Y-72275500D03*
X175000000Y-72450000D03*
X179522512Y-69565010D03*
X174600000Y-57700000D03*
X181323526Y-66675500D03*
%TO.N,VBUS*%
X171784990Y-74436103D03*
%TO.N,RXD*%
X177853918Y-64117827D03*
%TO.N,+3V3*%
X170609922Y-75013509D03*
%TO.N,GPIO0*%
X179754439Y-65499329D03*
%TO.N,TXD*%
X173510538Y-57597948D03*
X183350000Y-57500000D03*
%TO.N,RST*%
X171000000Y-57600000D03*
X181962641Y-65100000D03*
%TO.N,D-*%
X182850002Y-72000000D03*
X178974010Y-60190693D03*
%TO.N,D+*%
X182884188Y-60184188D03*
X183250000Y-74000000D03*
%TO.N,Net-(C1-Pad1)*%
X176094056Y-62480310D03*
X182602434Y-64077448D03*
%TO.N,Net-(J3-PadA6)*%
X176757146Y-74724500D03*
%TO.N,Net-(J3-PadA5)*%
X182000000Y-79200000D03*
X175000000Y-74200000D03*
%TD*%
D36*
%TO.N,Net-(J3-PadA6)*%
X176831646Y-74650000D02*
X176757146Y-74724500D01*
X181029306Y-74650000D02*
G75*
G03*
X181213616Y-74465690I1J184309D01*
G01*
X181029306Y-74650000D02*
X176831646Y-74650000D01*
%TO.N,TXD*%
X183075001Y-57774999D02*
G75*
G03*
X183350000Y-57500000I1J274998D01*
G01*
X176250000Y-58600000D02*
G75*
G02*
X177075001Y-57774999I825000J1D01*
G01*
X183075001Y-57774999D02*
X177075001Y-57774999D01*
%TO.N,GPIO0*%
X179086300Y-63886300D02*
G75*
G02*
X179754439Y-65499329I-1613031J-1613031D01*
G01*
X179086300Y-63886300D02*
X178800000Y-63600000D01*
X178200099Y-62151711D02*
G75*
G03*
X178800000Y-63600000I2048189J0D01*
G01*
X181330000Y-58600000D02*
G75*
G02*
X180505489Y-59424511I-824512J1D01*
G01*
X178975687Y-59424511D02*
G75*
G03*
X178200099Y-60200099I-2J-775586D01*
G01*
X178975687Y-59424511D02*
X180505489Y-59424511D01*
X178200099Y-62151711D02*
X178200099Y-60200099D01*
%TO.N,D-*%
X178974010Y-60190693D02*
X178974010Y-62274010D01*
X180000000Y-63300000D02*
X182600000Y-63300000D01*
X180000000Y-63300000D02*
G75*
G02*
X178974010Y-62274010I2J1025992D01*
G01*
X183326935Y-64026935D02*
G75*
G03*
X182600000Y-63300000I-726934J1D01*
G01*
X183326935Y-71523067D02*
G75*
G02*
X182850002Y-72000000I-476931J-2D01*
G01*
X183326935Y-71523067D02*
X183326935Y-64026935D01*
%TO.N,RXD*%
X177520000Y-63311678D02*
G75*
G03*
X177853918Y-64117827I1140071J2D01*
G01*
X177520000Y-63311678D02*
X177520000Y-59420000D01*
%TO.N,RST*%
X176979595Y-60479595D02*
G75*
G03*
X176375012Y-59875012I-604582J1D01*
G01*
X179000000Y-65500000D02*
G75*
G03*
X178470573Y-64970573I-529428J-1D01*
G01*
X173107227Y-59650908D02*
X173322422Y-59760555D01*
X180251823Y-66027201D02*
G75*
G02*
X179775499Y-66224501I-476325J476327D01*
G01*
X177584980Y-64970573D02*
G75*
G02*
X176979595Y-64365188I-1J605384D01*
G01*
X173322422Y-59760555D02*
X173552120Y-59835188D01*
X181942009Y-65100000D02*
G75*
G03*
X180639512Y-65639512I-2J-1842003D01*
G01*
X171000000Y-57600000D02*
X172825000Y-59425000D01*
X172825000Y-59425000D02*
X172911834Y-59508946D01*
X172911834Y-59508946D02*
X173107227Y-59650908D01*
X179668471Y-66222372D02*
G75*
G02*
X179000000Y-65553901I1J668472D01*
G01*
X173552120Y-59835188D02*
X173790665Y-59872970D01*
X173790665Y-59872970D02*
X173911425Y-59875012D01*
X173911425Y-59875012D02*
X176375012Y-59875012D01*
X179668471Y-66222372D02*
X179775499Y-66224501D01*
X181942009Y-65100000D02*
X181962641Y-65100000D01*
X176979595Y-60479595D02*
X176979595Y-64365188D01*
X177584980Y-64970573D02*
X178470573Y-64970573D01*
X179000000Y-65500000D02*
X179000000Y-65553901D01*
X180251823Y-66027201D02*
X180639512Y-65639512D01*
%TO.N,RXD*%
X177520000Y-58600000D02*
X177520000Y-59420000D01*
X176707072Y-59420000D02*
X177520000Y-59420000D01*
X176707072Y-59420001D02*
G75*
G03*
X176695000Y-59425002I-1J-17070D01*
G01*
%TO.N,Net-(J3-PadA5)*%
X175000000Y-74200000D02*
X175000000Y-74700000D01*
X176600000Y-76300000D02*
G75*
G02*
X175000000Y-74700000I-1J1599999D01*
G01*
X180600000Y-79200000D02*
G75*
G02*
X179000000Y-77600000I-1J1599999D01*
G01*
X176600000Y-76300000D02*
X177700000Y-76300000D01*
X179000000Y-77600000D02*
G75*
G03*
X177700000Y-76300000I-1299999J1D01*
G01*
X180600000Y-79200000D02*
X182000000Y-79200000D01*
%TO.N,Net-(D3-Pad1)*%
X172000000Y-82350000D02*
X171250000Y-82350000D01*
X170650000Y-81750000D02*
G75*
G03*
X171250000Y-82350000I600000J0D01*
G01*
X171400000Y-65400000D02*
G75*
G02*
X172300000Y-64500000I900000J0D01*
G01*
X172000000Y-73250000D02*
G75*
G02*
X171400000Y-72650000I0J600000D01*
G01*
X172510000Y-73760000D02*
X172510000Y-74910000D01*
X171995000Y-75425000D02*
X171825000Y-75425000D01*
X171400000Y-65400000D02*
X171400000Y-72650000D01*
X170650000Y-76600000D02*
G75*
G02*
X171825000Y-75425000I1175002J-2D01*
G01*
X170650000Y-76600000D02*
X170650000Y-81750000D01*
X171995000Y-75425000D02*
G75*
G03*
X172510000Y-74910000I0J515000D01*
G01*
X172510000Y-73760000D02*
G75*
G03*
X172000000Y-73250000I-510002J-2D01*
G01*
X172900000Y-64500000D02*
X172300000Y-64500000D01*
%TO.N,VBUS*%
X170899991Y-64939273D02*
X170899991Y-63800009D01*
X171300000Y-63400000D02*
G75*
G03*
X170899991Y-63800009I0J-400009D01*
G01*
%TO.N,+3V3*%
X170449980Y-74853567D02*
X170449980Y-62850020D01*
X171100000Y-62200000D02*
G75*
G03*
X170449980Y-62850020I-2J-650018D01*
G01*
%TO.N,GND*%
X176571461Y-65920901D02*
X177145467Y-65920901D01*
X174600000Y-57700000D02*
X175017158Y-57700000D01*
X182600000Y-58624977D02*
X182600000Y-58600000D01*
X177648498Y-66071694D02*
X177648498Y-66549058D01*
X181024999Y-57275001D02*
X176043195Y-57275001D01*
X177149546Y-65924980D02*
X177501784Y-65924980D01*
X177648498Y-66549058D02*
X179522512Y-68423072D01*
X182021529Y-60021529D02*
X181305950Y-60737108D01*
X179522512Y-68423072D02*
X179522512Y-69565010D01*
X177145467Y-65920901D02*
X177149546Y-65924980D01*
X177648498Y-66071694D02*
G75*
G03*
X177501784Y-65924980I-146716J-2D01*
G01*
X182599999Y-58624977D02*
G75*
G02*
X182021528Y-60021528I-1975022J0D01*
G01*
X175500000Y-57500000D02*
G75*
G02*
X176043195Y-57275001I543194J-543191D01*
G01*
X175500000Y-57500000D02*
G75*
G02*
X175017158Y-57700000I-482841J482839D01*
G01*
X180700000Y-62200000D02*
G75*
G02*
X181305950Y-60737108I2068836J2D01*
G01*
X181024999Y-57275001D02*
G75*
G03*
X182200000Y-56100000I-1J1175002D01*
G01*
%TO.N,VBUS*%
X170899991Y-73551104D02*
X170899991Y-64939273D01*
X170899991Y-73551104D02*
G75*
G03*
X171784990Y-74436103I884998J-1D01*
G01*
%TO.N,RXD*%
X172968038Y-57058958D02*
X173465253Y-56561744D01*
X173074107Y-58247111D02*
X173538498Y-58711502D01*
X175261036Y-59425001D02*
X176694999Y-59425001D01*
X173074107Y-58247111D02*
G75*
G02*
X172774998Y-57524998I722113J722113D01*
G01*
X172968038Y-57058958D02*
G75*
G03*
X172774998Y-57524998I466035J-466038D01*
G01*
X173465253Y-56561744D02*
G75*
G02*
X174580000Y-56100000I1114745J-1114740D01*
G01*
X175261036Y-59425000D02*
G75*
G02*
X173538499Y-58711501I0J2436035D01*
G01*
%TO.N,+3V3*%
X170609922Y-75013509D02*
G75*
G02*
X170449980Y-74853567I0J159942D01*
G01*
%TO.N,TXD*%
X173913499Y-58086501D02*
X173551620Y-57724622D01*
X173527249Y-57699554D02*
X173510538Y-57682843D01*
X176250000Y-58600000D02*
X175153195Y-58600000D01*
X173510538Y-57682843D02*
X173510538Y-57597948D01*
X173913499Y-58086501D02*
G75*
G03*
X175153195Y-58600000I1239697J1239698D01*
G01*
X173527249Y-57699554D02*
G75*
G02*
X173551620Y-57724622I-168677J-188368D01*
G01*
%TO.N,D+*%
X183776445Y-73473555D02*
X183776445Y-61076445D01*
X183776445Y-73473555D02*
G75*
G02*
X183250000Y-74000000I-526444J-1D01*
G01*
X182884188Y-60184188D02*
G75*
G02*
X183776445Y-61076445I0J-892257D01*
G01*
%TO.N,Net-(C1-Pad1)*%
X179674011Y-66674011D02*
X179825989Y-66674011D01*
X180554551Y-66416400D02*
X180635885Y-66338541D01*
X182388499Y-65916345D02*
X182499268Y-65852392D01*
X181251418Y-65950999D02*
X182200999Y-65950999D01*
X182688317Y-64145582D02*
X182675242Y-64114016D01*
X176094056Y-62480310D02*
X176094056Y-63844056D01*
X180159363Y-66627632D02*
X180367359Y-66541477D01*
X182653663Y-65651181D02*
X182686767Y-65527634D01*
X182200999Y-65950999D02*
X182264952Y-65949449D01*
X179938556Y-66671553D02*
X180159363Y-66627632D01*
X182264952Y-65949449D02*
X182388499Y-65916345D01*
X182589710Y-65761950D02*
X182653663Y-65651181D01*
X176465849Y-64741642D02*
X176987103Y-65262897D01*
X178308134Y-65810086D02*
X178817125Y-66319077D01*
X180635885Y-66338541D02*
X180862213Y-66112213D01*
X181039567Y-65989964D02*
X181179159Y-65952560D01*
X182688317Y-65463681D02*
X182688317Y-64145582D01*
X182686767Y-65527634D02*
X182688317Y-65463681D01*
X182499268Y-65852392D02*
X182589710Y-65761950D01*
X179825989Y-66674011D02*
X179938556Y-66671553D01*
X182675242Y-64114016D02*
X182651083Y-64089857D01*
X182619517Y-64076782D02*
X182602434Y-64077448D01*
X182651083Y-64089857D02*
X182619517Y-64076782D01*
X180914411Y-66062223D02*
X181039567Y-65989964D01*
X180367359Y-66541477D02*
X180554551Y-66416400D01*
X180862213Y-66112213D02*
X180914411Y-66062223D01*
X181179159Y-65952560D02*
X181251418Y-65950999D01*
X177461170Y-65459261D02*
G75*
G02*
X176987103Y-65262897I0J670432D01*
G01*
X179674011Y-66674010D02*
G75*
G02*
X178817126Y-66319076I-3J1211812D01*
G01*
X178308134Y-65810086D02*
G75*
G03*
X177461170Y-65459262I-846962J-846960D01*
G01*
X176465849Y-64741642D02*
G75*
G02*
X176094056Y-63844056I897586J897587D01*
G01*
%TO.N,Net-(J3-PadA6)*%
X181079306Y-74600000D02*
G75*
G03*
X181213616Y-74465690I2J134308D01*
G01*
%TD*%
%TA.AperFunction,Conductor*%
%TO.N,GND*%
G36*
X177612575Y-66116138D02*
G01*
X177665243Y-66132115D01*
X177688051Y-66141562D01*
X177763731Y-66182013D01*
X177784260Y-66195730D01*
X177830420Y-66233612D01*
X177841896Y-66245470D01*
X177842250Y-66245123D01*
X177847569Y-66250554D01*
X177852190Y-66256577D01*
X177858114Y-66261323D01*
X177858116Y-66261325D01*
X177879623Y-66278555D01*
X177889938Y-66287794D01*
X178330997Y-66728854D01*
X178342661Y-66742296D01*
X178356531Y-66760769D01*
X178365882Y-66770318D01*
X178373079Y-66775961D01*
X178378398Y-66780373D01*
X178545141Y-66926604D01*
X178545147Y-66926608D01*
X178548241Y-66929322D01*
X178551667Y-66931611D01*
X178551672Y-66931615D01*
X178702019Y-67032074D01*
X178749371Y-67063713D01*
X178753070Y-67065537D01*
X178753075Y-67065540D01*
X178848658Y-67112676D01*
X178966323Y-67170702D01*
X178970228Y-67172027D01*
X178970229Y-67172028D01*
X179191476Y-67247131D01*
X179191479Y-67247132D01*
X179195383Y-67248457D01*
X179199422Y-67249260D01*
X179199428Y-67249262D01*
X179428590Y-67294845D01*
X179428593Y-67294845D01*
X179432633Y-67295649D01*
X179436744Y-67295918D01*
X179436748Y-67295919D01*
X179568266Y-67304539D01*
X179585497Y-67305668D01*
X179587581Y-67305868D01*
X179593981Y-67307511D01*
X179609499Y-67307511D01*
X179617737Y-67307781D01*
X179627825Y-67308442D01*
X179637237Y-67309059D01*
X179646747Y-67310046D01*
X179654986Y-67311218D01*
X179660649Y-67312024D01*
X179667692Y-67312098D01*
X179669893Y-67312121D01*
X179669895Y-67312121D01*
X179674013Y-67312164D01*
X179678103Y-67311669D01*
X179678104Y-67311669D01*
X179691515Y-67310046D01*
X179704920Y-67308424D01*
X179720055Y-67307511D01*
X179747529Y-67307511D01*
X179754533Y-67307875D01*
X179759808Y-67309107D01*
X179767734Y-67308934D01*
X179767735Y-67308934D01*
X179831527Y-67307541D01*
X179834278Y-67307511D01*
X179865845Y-67307511D01*
X179869766Y-67307015D01*
X179873731Y-67306766D01*
X179873740Y-67306907D01*
X179879283Y-67306498D01*
X179923203Y-67305540D01*
X179932873Y-67305700D01*
X179975741Y-67308059D01*
X179975744Y-67308059D01*
X179983653Y-67308494D01*
X180043963Y-67296498D01*
X180050002Y-67295449D01*
X180110817Y-67286413D01*
X180118123Y-67283334D01*
X180125757Y-67281195D01*
X180125843Y-67281501D01*
X180137818Y-67277828D01*
X180262468Y-67253034D01*
X180269296Y-67251870D01*
X180320003Y-67244654D01*
X180320007Y-67244653D01*
X180327855Y-67243536D01*
X180376994Y-67223182D01*
X180385324Y-67220072D01*
X180428246Y-67205753D01*
X180428252Y-67205750D01*
X180435767Y-67203243D01*
X180445216Y-67197142D01*
X180465342Y-67186587D01*
X180590487Y-67134750D01*
X180596956Y-67132277D01*
X180645285Y-67115305D01*
X180645290Y-67115302D01*
X180652769Y-67112676D01*
X180659361Y-67108272D01*
X180659364Y-67108270D01*
X180697002Y-67083122D01*
X180704573Y-67078441D01*
X180750748Y-67052103D01*
X180758821Y-67044280D01*
X180776503Y-67030001D01*
X180882236Y-66959353D01*
X180890479Y-66954291D01*
X180927898Y-66933249D01*
X180927897Y-66933249D01*
X180934809Y-66929363D01*
X180979245Y-66886825D01*
X180983744Y-66882724D01*
X181030191Y-66842420D01*
X181034697Y-66835900D01*
X181039444Y-66830886D01*
X181077939Y-66792391D01*
X181079904Y-66790467D01*
X181099886Y-66771339D01*
X181099887Y-66771338D01*
X181102745Y-66768602D01*
X181105238Y-66765529D01*
X181107920Y-66762618D01*
X181108024Y-66762714D01*
X181111749Y-66758582D01*
X181248927Y-66621404D01*
X181311239Y-66587378D01*
X181338022Y-66584499D01*
X182122534Y-66584499D01*
X182130509Y-66584904D01*
X182136342Y-66586252D01*
X182207141Y-66584536D01*
X182210193Y-66584499D01*
X182240855Y-66584499D01*
X182244779Y-66584003D01*
X182248729Y-66583755D01*
X182248734Y-66583841D01*
X182254883Y-66583379D01*
X182257290Y-66583321D01*
X182275052Y-66582890D01*
X182276787Y-66582860D01*
X182343678Y-66582160D01*
X182351609Y-66582077D01*
X182359268Y-66580025D01*
X182359274Y-66580024D01*
X182387830Y-66572372D01*
X182401621Y-66569492D01*
X182419589Y-66566779D01*
X182430850Y-66565078D01*
X182430852Y-66565078D01*
X182438688Y-66563894D01*
X182445983Y-66560799D01*
X182445987Y-66560798D01*
X182461822Y-66554080D01*
X182481896Y-66548438D01*
X182481782Y-66548030D01*
X182533552Y-66533575D01*
X182604542Y-66534522D01*
X182663751Y-66573698D01*
X182692380Y-66638666D01*
X182693435Y-66654934D01*
X182693435Y-71002450D01*
X182673433Y-71070571D01*
X182619777Y-71117064D01*
X182593633Y-71125697D01*
X182567714Y-71131206D01*
X182561684Y-71133891D01*
X182561683Y-71133891D01*
X182399280Y-71206197D01*
X182399278Y-71206198D01*
X182393250Y-71208882D01*
X182238749Y-71321134D01*
X182110962Y-71463056D01*
X182015475Y-71628444D01*
X181956460Y-71810072D01*
X181936498Y-72000000D01*
X181956460Y-72189928D01*
X182015475Y-72371556D01*
X182110962Y-72536944D01*
X182115380Y-72541851D01*
X182115381Y-72541852D01*
X182195647Y-72630996D01*
X182238749Y-72678866D01*
X182245375Y-72683680D01*
X182362911Y-72769075D01*
X182393250Y-72791118D01*
X182399278Y-72793802D01*
X182399280Y-72793803D01*
X182561683Y-72866109D01*
X182567714Y-72868794D01*
X182641981Y-72884580D01*
X182748058Y-72907128D01*
X182748063Y-72907128D01*
X182754515Y-72908500D01*
X182875133Y-72908500D01*
X182943254Y-72928502D01*
X182989747Y-72982158D01*
X182999851Y-73052432D01*
X182970357Y-73117012D01*
X182926382Y-73149607D01*
X182799278Y-73206197D01*
X182799276Y-73206198D01*
X182793248Y-73208882D01*
X182638747Y-73321134D01*
X182634326Y-73326044D01*
X182634325Y-73326045D01*
X182601568Y-73362426D01*
X182510960Y-73463056D01*
X182415473Y-73628444D01*
X182356458Y-73810072D01*
X182355768Y-73816633D01*
X182355768Y-73816635D01*
X182354527Y-73828444D01*
X182336496Y-74000000D01*
X182356458Y-74189928D01*
X182415473Y-74371556D01*
X182510960Y-74536944D01*
X182638747Y-74678866D01*
X182793248Y-74791118D01*
X182799276Y-74793802D01*
X182799278Y-74793803D01*
X182956850Y-74863958D01*
X182967712Y-74868794D01*
X183061112Y-74888647D01*
X183148056Y-74907128D01*
X183148061Y-74907128D01*
X183154513Y-74908500D01*
X183345487Y-74908500D01*
X183351949Y-74907127D01*
X183352829Y-74907034D01*
X183422668Y-74919806D01*
X183474515Y-74968308D01*
X183492000Y-75032344D01*
X183492000Y-81950673D01*
X183490500Y-81970057D01*
X183488195Y-81984858D01*
X183488195Y-81984862D01*
X183486814Y-81993731D01*
X183487978Y-82002633D01*
X183487978Y-82002637D01*
X183487991Y-82002733D01*
X183488262Y-82033170D01*
X183481254Y-82095375D01*
X183474976Y-82122882D01*
X183454146Y-82182409D01*
X183447966Y-82200071D01*
X183435724Y-82225491D01*
X183392213Y-82294738D01*
X183374621Y-82316797D01*
X183316797Y-82374621D01*
X183294738Y-82392213D01*
X183225491Y-82435724D01*
X183200070Y-82447966D01*
X183122883Y-82474975D01*
X183095376Y-82481254D01*
X183071428Y-82483952D01*
X183039744Y-82487522D01*
X183024103Y-82488305D01*
X183015145Y-82488196D01*
X183006271Y-82486814D01*
X182974750Y-82490936D01*
X182958412Y-82492000D01*
X180162310Y-82492000D01*
X180094189Y-82471998D01*
X180047696Y-82418342D01*
X180037592Y-82348068D01*
X180064518Y-82292683D01*
X180061565Y-82290501D01*
X180151899Y-82168254D01*
X180156612Y-82161876D01*
X180159589Y-82154530D01*
X180159591Y-82154527D01*
X180213707Y-82021001D01*
X180216685Y-82013653D01*
X180238010Y-81855148D01*
X180225507Y-81749319D01*
X180725041Y-81749319D01*
X180734923Y-81761809D01*
X180772259Y-81786756D01*
X180782371Y-81792247D01*
X180963081Y-81869885D01*
X180974014Y-81873437D01*
X181165844Y-81916845D01*
X181177253Y-81918347D01*
X181373783Y-81926068D01*
X181385265Y-81925466D01*
X181579905Y-81897245D01*
X181591101Y-81894557D01*
X181777343Y-81831336D01*
X181787840Y-81826662D01*
X181906401Y-81760266D01*
X181916264Y-81750189D01*
X181913309Y-81742519D01*
X181332812Y-81162022D01*
X181318868Y-81154408D01*
X181317035Y-81154539D01*
X181310420Y-81158790D01*
X180731237Y-81737973D01*
X180725041Y-81749319D01*
X180225507Y-81749319D01*
X180219246Y-81696320D01*
X180214616Y-81684343D01*
X180164433Y-81554547D01*
X180161572Y-81547147D01*
X180156960Y-81540690D01*
X180153201Y-81533720D01*
X180155024Y-81532737D01*
X180148251Y-81513258D01*
X180135383Y-81506624D01*
X180119802Y-81488669D01*
X179603595Y-80765980D01*
X180182914Y-80765980D01*
X180195777Y-80962233D01*
X180197577Y-80973601D01*
X180245991Y-81164228D01*
X180249829Y-81175066D01*
X180334590Y-81358927D01*
X180333184Y-81359575D01*
X180335577Y-81369440D01*
X180339348Y-81370954D01*
X180358439Y-81386078D01*
X180371740Y-81379050D01*
X180947978Y-80802812D01*
X180955592Y-80788868D01*
X180955461Y-80787035D01*
X180951210Y-80780420D01*
X180370031Y-80199241D01*
X180357651Y-80192481D01*
X180351685Y-80196947D01*
X180271452Y-80349445D01*
X180267047Y-80360079D01*
X180208724Y-80547910D01*
X180206332Y-80559164D01*
X180183215Y-80754479D01*
X180182914Y-80765980D01*
X179603595Y-80765980D01*
X178627183Y-79399003D01*
X178623327Y-79393281D01*
X178595856Y-79349993D01*
X178591611Y-79343304D01*
X178585834Y-79337879D01*
X178580782Y-79331772D01*
X178580826Y-79331735D01*
X178571596Y-79321180D01*
X178506279Y-79229736D01*
X178482961Y-79162678D01*
X178499599Y-79093658D01*
X178550910Y-79044591D01*
X178608809Y-79030500D01*
X178822044Y-79030500D01*
X178890165Y-79050502D01*
X178921224Y-79078787D01*
X178922788Y-79080783D01*
X178922793Y-79080789D01*
X178925146Y-79083792D01*
X179116208Y-79274854D01*
X179119208Y-79277204D01*
X179119211Y-79277207D01*
X179271072Y-79396182D01*
X179328908Y-79441494D01*
X179332162Y-79443461D01*
X179556883Y-79579310D01*
X179556887Y-79579312D01*
X179560144Y-79581281D01*
X179683344Y-79636729D01*
X179803067Y-79690612D01*
X179803073Y-79690614D01*
X179806543Y-79692176D01*
X179810179Y-79693309D01*
X180043268Y-79765942D01*
X180064512Y-79772562D01*
X180330290Y-79821268D01*
X180334084Y-79821497D01*
X180334088Y-79821498D01*
X180516105Y-79832508D01*
X180516012Y-79834048D01*
X180519970Y-79833569D01*
X180519970Y-79833500D01*
X180528704Y-79833500D01*
X180536311Y-79833730D01*
X180549031Y-79834499D01*
X180566405Y-79835550D01*
X180576537Y-79836576D01*
X180586636Y-79838013D01*
X180593797Y-79838088D01*
X180595880Y-79838110D01*
X180595882Y-79838110D01*
X180600000Y-79838153D01*
X180604090Y-79837658D01*
X180604091Y-79837658D01*
X180613023Y-79836577D01*
X180630907Y-79834413D01*
X180646042Y-79833500D01*
X180670520Y-79833500D01*
X180738641Y-79853502D01*
X180759615Y-79870405D01*
X182268603Y-81379393D01*
X182280983Y-81386153D01*
X182287563Y-81381227D01*
X182356662Y-81257840D01*
X182361336Y-81247343D01*
X182424557Y-81061101D01*
X182427245Y-81049905D01*
X182455762Y-80853224D01*
X182456392Y-80845843D01*
X182457757Y-80793704D01*
X182457514Y-80786305D01*
X182439330Y-80588397D01*
X182437233Y-80577083D01*
X182383846Y-80387789D01*
X182379724Y-80377050D01*
X182295496Y-80206253D01*
X182283306Y-80136311D01*
X182310865Y-80070881D01*
X182357253Y-80035418D01*
X182450722Y-79993803D01*
X182450724Y-79993802D01*
X182456752Y-79991118D01*
X182611253Y-79878866D01*
X182642450Y-79844218D01*
X182734621Y-79741852D01*
X182734622Y-79741851D01*
X182739040Y-79736944D01*
X182834527Y-79571556D01*
X182893542Y-79389928D01*
X182899655Y-79331772D01*
X182912814Y-79206565D01*
X182913504Y-79200000D01*
X182893542Y-79010072D01*
X182834527Y-78828444D01*
X182739040Y-78663056D01*
X182650557Y-78564785D01*
X182615675Y-78526045D01*
X182615674Y-78526044D01*
X182611253Y-78521134D01*
X182456752Y-78408882D01*
X182450724Y-78406198D01*
X182450722Y-78406197D01*
X182288319Y-78333891D01*
X182288318Y-78333891D01*
X182282288Y-78331206D01*
X182188887Y-78311353D01*
X182101944Y-78292872D01*
X182101939Y-78292872D01*
X182095487Y-78291500D01*
X181904513Y-78291500D01*
X181898061Y-78292872D01*
X181898056Y-78292872D01*
X181811112Y-78311353D01*
X181717712Y-78331206D01*
X181711682Y-78333891D01*
X181711681Y-78333891D01*
X181549278Y-78406197D01*
X181549276Y-78406198D01*
X181543248Y-78408882D01*
X181537907Y-78412762D01*
X181537906Y-78412763D01*
X181412944Y-78503554D01*
X181388747Y-78521134D01*
X181384332Y-78526037D01*
X181379420Y-78530460D01*
X181378295Y-78529211D01*
X181324986Y-78562051D01*
X181291800Y-78566500D01*
X180650018Y-78566500D01*
X180633572Y-78565422D01*
X180614214Y-78562873D01*
X180614210Y-78562873D01*
X180606683Y-78561882D01*
X180599130Y-78562716D01*
X180592788Y-78563416D01*
X180567979Y-78563699D01*
X180443145Y-78552777D01*
X180421526Y-78548965D01*
X180280083Y-78511065D01*
X180259446Y-78503554D01*
X180126740Y-78441672D01*
X180107720Y-78430690D01*
X179987772Y-78346702D01*
X179970947Y-78332584D01*
X179867416Y-78229053D01*
X179853298Y-78212228D01*
X179769310Y-78092280D01*
X179758328Y-78073260D01*
X179696446Y-77940554D01*
X179688934Y-77919915D01*
X179663307Y-77824274D01*
X179651036Y-77778478D01*
X179647222Y-77756849D01*
X179639638Y-77670161D01*
X180634393Y-77670161D01*
X180643687Y-77682175D01*
X180684088Y-77710464D01*
X180693584Y-77715947D01*
X180883113Y-77804326D01*
X180893405Y-77808072D01*
X181095401Y-77862196D01*
X181106196Y-77864099D01*
X181314525Y-77882326D01*
X181325475Y-77882326D01*
X181533804Y-77864099D01*
X181544599Y-77862196D01*
X181746595Y-77808072D01*
X181756887Y-77804326D01*
X181946416Y-77715947D01*
X181955912Y-77710464D01*
X181997148Y-77681590D01*
X182005523Y-77671112D01*
X181998457Y-77657668D01*
X181332811Y-76992021D01*
X181318868Y-76984408D01*
X181317034Y-76984539D01*
X181310420Y-76988790D01*
X180640820Y-77658391D01*
X180634393Y-77670161D01*
X179639638Y-77670161D01*
X179637203Y-77642326D01*
X179637756Y-77621611D01*
X179637119Y-77621563D01*
X179637433Y-77617442D01*
X179638013Y-77613364D01*
X179638080Y-77606972D01*
X179638118Y-77606683D01*
X179638086Y-77606393D01*
X179638153Y-77600000D01*
X179637656Y-77595892D01*
X179637468Y-77594335D01*
X179636826Y-77587443D01*
X179621342Y-77351201D01*
X179621341Y-77351197D01*
X179621072Y-77347086D01*
X179619290Y-77338124D01*
X179585893Y-77170227D01*
X179571626Y-77098500D01*
X179562866Y-77072692D01*
X179491481Y-76862400D01*
X179491480Y-76862399D01*
X179490155Y-76858494D01*
X179403535Y-76682845D01*
X179379881Y-76634879D01*
X179379878Y-76634874D01*
X179378054Y-76631175D01*
X179374245Y-76625475D01*
X180057674Y-76625475D01*
X180075901Y-76833804D01*
X180077804Y-76844599D01*
X180131928Y-77046595D01*
X180135674Y-77056887D01*
X180224054Y-77246417D01*
X180229534Y-77255907D01*
X180258411Y-77297149D01*
X180268887Y-77305523D01*
X180282334Y-77298455D01*
X180947979Y-76632811D01*
X180954356Y-76621132D01*
X181684408Y-76621132D01*
X181684539Y-76622966D01*
X181688790Y-76629580D01*
X182358391Y-77299180D01*
X182370161Y-77305607D01*
X182382176Y-77296311D01*
X182410466Y-77255907D01*
X182415946Y-77246417D01*
X182504326Y-77056887D01*
X182508072Y-77046595D01*
X182562196Y-76844599D01*
X182564099Y-76833804D01*
X182582326Y-76625475D01*
X182582326Y-76614525D01*
X182564099Y-76406196D01*
X182562196Y-76395401D01*
X182508072Y-76193405D01*
X182504326Y-76183113D01*
X182415946Y-75993583D01*
X182410466Y-75984093D01*
X182381589Y-75942851D01*
X182371113Y-75934477D01*
X182357666Y-75941545D01*
X181692021Y-76607189D01*
X181684408Y-76621132D01*
X180954356Y-76621132D01*
X180955592Y-76618868D01*
X180955461Y-76617034D01*
X180951210Y-76610420D01*
X180281609Y-75940820D01*
X180269839Y-75934393D01*
X180257824Y-75943689D01*
X180229534Y-75984093D01*
X180224054Y-75993583D01*
X180135674Y-76183113D01*
X180131928Y-76193405D01*
X180077804Y-76395401D01*
X180075901Y-76406196D01*
X180057674Y-76614525D01*
X180057674Y-76625475D01*
X179374245Y-76625475D01*
X179237241Y-76420434D01*
X179234527Y-76417340D01*
X179234523Y-76417334D01*
X179072834Y-76232964D01*
X179070125Y-76229875D01*
X179020659Y-76186494D01*
X178882666Y-76065477D01*
X178882660Y-76065473D01*
X178879566Y-76062759D01*
X178876140Y-76060470D01*
X178876135Y-76060466D01*
X178672258Y-75924240D01*
X178668825Y-75921946D01*
X178665126Y-75920122D01*
X178665121Y-75920119D01*
X178549117Y-75862912D01*
X178441506Y-75809845D01*
X178437600Y-75808519D01*
X178205407Y-75729700D01*
X178205404Y-75729699D01*
X178201500Y-75728374D01*
X178035776Y-75695410D01*
X177956957Y-75679732D01*
X177956954Y-75679732D01*
X177952914Y-75678928D01*
X177948803Y-75678659D01*
X177948799Y-75678658D01*
X177785763Y-75667972D01*
X177785863Y-75666442D01*
X177781604Y-75666904D01*
X177780030Y-75666500D01*
X177767428Y-75666500D01*
X177759188Y-75666230D01*
X177749377Y-75665587D01*
X177734282Y-75664598D01*
X177724786Y-75663612D01*
X177713364Y-75661987D01*
X177706203Y-75661912D01*
X177704120Y-75661890D01*
X177704118Y-75661890D01*
X177700000Y-75661847D01*
X177695910Y-75662342D01*
X177695909Y-75662342D01*
X177694042Y-75662568D01*
X177669093Y-75665587D01*
X177653958Y-75666500D01*
X177394014Y-75666500D01*
X177325893Y-75646498D01*
X177279400Y-75592842D01*
X177269296Y-75522568D01*
X177298790Y-75457988D01*
X177319953Y-75438564D01*
X177363060Y-75407245D01*
X177368399Y-75403366D01*
X177438790Y-75325189D01*
X177499236Y-75287950D01*
X177532426Y-75283500D01*
X180641104Y-75283500D01*
X180709225Y-75303502D01*
X180755718Y-75357158D01*
X180765822Y-75427432D01*
X180736328Y-75492012D01*
X180698096Y-75520870D01*
X180698347Y-75521304D01*
X180694833Y-75523333D01*
X180694353Y-75523695D01*
X180693587Y-75524052D01*
X180684093Y-75529534D01*
X180642851Y-75558411D01*
X180634477Y-75568887D01*
X180641545Y-75582334D01*
X181307189Y-76247979D01*
X181321132Y-76255592D01*
X181322966Y-76255461D01*
X181329580Y-76251210D01*
X181999180Y-75581609D01*
X182005607Y-75569839D01*
X181996313Y-75557825D01*
X181955912Y-75529536D01*
X181946416Y-75524053D01*
X181751905Y-75433351D01*
X181752503Y-75432069D01*
X181700728Y-75393943D01*
X181675395Y-75327619D01*
X181689940Y-75258129D01*
X181726938Y-75215707D01*
X181819525Y-75148439D01*
X181819527Y-75148437D01*
X181824869Y-75144556D01*
X181952656Y-75002634D01*
X182048143Y-74837246D01*
X182107158Y-74655618D01*
X182127120Y-74465690D01*
X182107158Y-74275762D01*
X182048143Y-74094134D01*
X181952656Y-73928746D01*
X181824869Y-73786824D01*
X181670368Y-73674572D01*
X181664342Y-73671889D01*
X181664335Y-73671885D01*
X181496562Y-73597189D01*
X181442466Y-73551209D01*
X181421810Y-73482082D01*
X181421810Y-72619500D01*
X174978191Y-72619500D01*
X174978191Y-73173806D01*
X174958189Y-73241927D01*
X174904533Y-73288420D01*
X174878387Y-73297053D01*
X174717712Y-73331206D01*
X174711682Y-73333891D01*
X174711681Y-73333891D01*
X174549278Y-73406197D01*
X174549276Y-73406198D01*
X174543248Y-73408882D01*
X174388747Y-73521134D01*
X174260960Y-73663056D01*
X174165473Y-73828444D01*
X174106458Y-74010072D01*
X174086496Y-74200000D01*
X174087186Y-74206565D01*
X174105129Y-74377279D01*
X174106458Y-74389928D01*
X174165473Y-74571556D01*
X174260960Y-74736944D01*
X174342648Y-74827668D01*
X174373363Y-74891672D01*
X174374779Y-74904359D01*
X174378732Y-74969710D01*
X174427438Y-75235488D01*
X174428570Y-75239120D01*
X174428570Y-75239121D01*
X174434493Y-75258129D01*
X174507824Y-75493457D01*
X174509386Y-75496927D01*
X174509388Y-75496933D01*
X174537057Y-75558411D01*
X174618719Y-75739856D01*
X174758506Y-75971092D01*
X174760847Y-75974080D01*
X174760849Y-75974083D01*
X174868999Y-76112126D01*
X174925146Y-76183792D01*
X175116208Y-76374854D01*
X175119208Y-76377204D01*
X175119211Y-76377207D01*
X175178766Y-76423865D01*
X175328908Y-76541494D01*
X175332162Y-76543461D01*
X175556883Y-76679310D01*
X175556887Y-76679312D01*
X175560144Y-76681281D01*
X175683344Y-76736729D01*
X175803067Y-76790612D01*
X175803073Y-76790614D01*
X175806543Y-76792176D01*
X175810179Y-76793309D01*
X176007499Y-76854796D01*
X176064512Y-76872562D01*
X176194089Y-76896308D01*
X176257489Y-76928262D01*
X176293548Y-76989419D01*
X176290819Y-77060363D01*
X176250902Y-77117977D01*
X176235110Y-77130827D01*
X176223101Y-77139478D01*
X176199998Y-77154140D01*
X176199994Y-77154143D01*
X176193304Y-77158389D01*
X176187879Y-77164166D01*
X176173362Y-77179625D01*
X176161042Y-77191101D01*
X176144588Y-77204490D01*
X176144580Y-77204498D01*
X176138435Y-77209499D01*
X176133720Y-77215880D01*
X176117463Y-77237879D01*
X176107980Y-77249249D01*
X176083822Y-77274975D01*
X176080002Y-77281924D01*
X176069787Y-77300505D01*
X176060706Y-77314687D01*
X176048102Y-77331743D01*
X176048098Y-77331750D01*
X176043388Y-77338124D01*
X176040410Y-77345473D01*
X176040409Y-77345474D01*
X176030135Y-77370824D01*
X176023775Y-77384200D01*
X176006774Y-77415125D01*
X176004803Y-77422800D01*
X176004803Y-77422801D01*
X175999526Y-77443353D01*
X175994262Y-77459336D01*
X175983315Y-77486347D01*
X175982258Y-77494201D01*
X175982258Y-77494202D01*
X175978610Y-77521316D01*
X175975777Y-77535849D01*
X175968971Y-77562355D01*
X175968970Y-77562359D01*
X175967000Y-77570034D01*
X175967000Y-77599175D01*
X175965875Y-77615976D01*
X175961990Y-77644852D01*
X175962920Y-77652724D01*
X175966130Y-77679895D01*
X175967000Y-77694678D01*
X175967000Y-77772077D01*
X175946998Y-77840198D01*
X175893342Y-77886691D01*
X175823068Y-77896795D01*
X175758488Y-77867301D01*
X175747345Y-77856367D01*
X175671484Y-77772077D01*
X175243864Y-77296944D01*
X175240867Y-77294356D01*
X175240862Y-77294351D01*
X175159201Y-77223832D01*
X175159200Y-77223832D01*
X175153199Y-77218649D01*
X175009962Y-77147505D01*
X174883289Y-77120551D01*
X174861286Y-77115869D01*
X174861285Y-77115869D01*
X174853531Y-77114219D01*
X174845612Y-77114549D01*
X174845610Y-77114549D01*
X174701652Y-77120551D01*
X174693737Y-77120881D01*
X174540619Y-77167072D01*
X174403800Y-77249891D01*
X174398247Y-77255559D01*
X174310156Y-77345474D01*
X174291875Y-77364133D01*
X174266431Y-77408181D01*
X174221279Y-77486347D01*
X174211878Y-77502621D01*
X174168835Y-77656654D01*
X174168667Y-77664576D01*
X174168667Y-77664578D01*
X174167579Y-77715947D01*
X174165449Y-77816551D01*
X174201935Y-77972266D01*
X174205606Y-77979291D01*
X174205606Y-77979292D01*
X174264643Y-78092280D01*
X174276000Y-78114016D01*
X175683522Y-79677930D01*
X175714224Y-79741943D01*
X175705444Y-79812394D01*
X175685532Y-79844218D01*
X174293473Y-81468286D01*
X174291293Y-81471592D01*
X174291290Y-81471596D01*
X174244562Y-81542461D01*
X174227528Y-81568293D01*
X174175455Y-81719511D01*
X174174819Y-81727408D01*
X174174819Y-81727410D01*
X174172051Y-81761809D01*
X174162625Y-81878928D01*
X174163973Y-81886732D01*
X174163973Y-81886735D01*
X174185893Y-82013653D01*
X174189844Y-82036528D01*
X174193092Y-82043755D01*
X174193093Y-82043759D01*
X174242871Y-82154527D01*
X174255401Y-82182409D01*
X174260348Y-82188606D01*
X174339205Y-82287393D01*
X174366071Y-82353110D01*
X174353142Y-82422920D01*
X174304524Y-82474658D01*
X174240732Y-82492000D01*
X173038517Y-82492000D01*
X172970396Y-82471998D01*
X172923903Y-82418342D01*
X172914893Y-82363171D01*
X172912814Y-82363171D01*
X172912814Y-82356565D01*
X172913504Y-82350000D01*
X172907480Y-82292683D01*
X172894232Y-82166635D01*
X172894232Y-82166633D01*
X172893542Y-82160072D01*
X172859799Y-82056222D01*
X172857771Y-81985257D01*
X172894433Y-81924459D01*
X172945856Y-81897090D01*
X172945627Y-81896415D01*
X172949758Y-81895013D01*
X172950214Y-81894770D01*
X172951099Y-81894558D01*
X173137343Y-81831336D01*
X173147840Y-81826662D01*
X173266401Y-81760266D01*
X173276264Y-81750189D01*
X173273309Y-81742519D01*
X172321922Y-80791132D01*
X173044408Y-80791132D01*
X173044539Y-80792965D01*
X173048790Y-80799580D01*
X173628603Y-81379393D01*
X173640983Y-81386153D01*
X173647563Y-81381227D01*
X173716662Y-81257840D01*
X173721336Y-81247343D01*
X173784557Y-81061101D01*
X173787245Y-81049905D01*
X173815762Y-80853224D01*
X173816392Y-80845843D01*
X173817757Y-80793704D01*
X173817514Y-80786305D01*
X173799330Y-80588397D01*
X173797233Y-80577083D01*
X173743846Y-80387789D01*
X173739724Y-80377050D01*
X173652736Y-80200656D01*
X173651577Y-80198765D01*
X173642732Y-80192126D01*
X173630312Y-80198898D01*
X173052022Y-80777188D01*
X173044408Y-80791132D01*
X172321922Y-80791132D01*
X171730031Y-80199241D01*
X171717651Y-80192481D01*
X171711685Y-80196947D01*
X171631452Y-80349445D01*
X171627047Y-80360079D01*
X171568724Y-80547910D01*
X171566332Y-80559164D01*
X171543215Y-80754479D01*
X171542914Y-80765980D01*
X171555777Y-80962233D01*
X171557577Y-80973601D01*
X171605991Y-81164228D01*
X171609829Y-81175066D01*
X171691853Y-81352989D01*
X171702208Y-81423226D01*
X171672946Y-81487912D01*
X171628676Y-81520847D01*
X171549278Y-81556197D01*
X171549276Y-81556198D01*
X171543248Y-81558882D01*
X171537907Y-81562762D01*
X171537906Y-81562763D01*
X171483561Y-81602247D01*
X171416693Y-81626106D01*
X171347541Y-81610025D01*
X171298061Y-81559111D01*
X171283500Y-81500311D01*
X171283500Y-79830436D01*
X172084547Y-79830436D01*
X172088033Y-79838823D01*
X172667188Y-80417978D01*
X172681132Y-80425592D01*
X172682965Y-80425461D01*
X172689580Y-80421210D01*
X173268407Y-79842383D01*
X173275167Y-79830003D01*
X173269137Y-79821948D01*
X173201459Y-79779246D01*
X173191211Y-79774025D01*
X173008531Y-79701143D01*
X172997504Y-79697876D01*
X172804605Y-79659506D01*
X172793159Y-79658303D01*
X172596507Y-79655730D01*
X172585027Y-79656633D01*
X172391199Y-79689938D01*
X172380079Y-79692918D01*
X172195557Y-79760992D01*
X172185179Y-79765942D01*
X172094146Y-79820101D01*
X172084547Y-79830436D01*
X171283500Y-79830436D01*
X171283500Y-77670161D01*
X171994393Y-77670161D01*
X172003687Y-77682175D01*
X172044088Y-77710464D01*
X172053584Y-77715947D01*
X172243113Y-77804326D01*
X172253405Y-77808072D01*
X172455401Y-77862196D01*
X172466196Y-77864099D01*
X172674525Y-77882326D01*
X172685475Y-77882326D01*
X172893804Y-77864099D01*
X172904599Y-77862196D01*
X173106595Y-77808072D01*
X173116887Y-77804326D01*
X173306416Y-77715947D01*
X173315912Y-77710464D01*
X173357148Y-77681590D01*
X173365523Y-77671112D01*
X173358457Y-77657668D01*
X172692811Y-76992021D01*
X172678868Y-76984408D01*
X172677034Y-76984539D01*
X172670420Y-76988790D01*
X172000820Y-77658391D01*
X171994393Y-77670161D01*
X171283500Y-77670161D01*
X171283500Y-77170227D01*
X171303502Y-77102106D01*
X171357158Y-77055613D01*
X171427432Y-77045509D01*
X171492012Y-77075003D01*
X171523695Y-77116977D01*
X171584054Y-77246417D01*
X171589534Y-77255907D01*
X171618411Y-77297149D01*
X171628886Y-77305523D01*
X171642335Y-77298454D01*
X172319658Y-76621132D01*
X173044408Y-76621132D01*
X173044539Y-76622966D01*
X173048790Y-76629580D01*
X173718391Y-77299180D01*
X173730161Y-77305607D01*
X173742176Y-77296311D01*
X173770466Y-77255907D01*
X173775946Y-77246417D01*
X173864326Y-77056887D01*
X173868072Y-77046595D01*
X173922196Y-76844599D01*
X173924099Y-76833804D01*
X173942326Y-76625475D01*
X173942326Y-76614525D01*
X173924099Y-76406196D01*
X173922196Y-76395401D01*
X173868072Y-76193405D01*
X173864326Y-76183113D01*
X173775946Y-75993583D01*
X173770466Y-75984093D01*
X173741589Y-75942851D01*
X173731113Y-75934477D01*
X173717666Y-75941545D01*
X173052021Y-76607189D01*
X173044408Y-76621132D01*
X172319658Y-76621132D01*
X172680000Y-76260790D01*
X173359178Y-75581611D01*
X173365606Y-75569839D01*
X173356310Y-75557824D01*
X173315912Y-75529536D01*
X173306416Y-75524053D01*
X173147170Y-75449795D01*
X173093885Y-75402877D01*
X173074424Y-75334600D01*
X173078713Y-75302988D01*
X173082743Y-75287950D01*
X173130372Y-75110197D01*
X173138630Y-75015796D01*
X173140976Y-75002077D01*
X173141528Y-74997710D01*
X173143500Y-74990030D01*
X173143500Y-74965647D01*
X173143980Y-74954665D01*
X173144355Y-74950379D01*
X173145132Y-74943606D01*
X173147432Y-74927444D01*
X173148013Y-74923364D01*
X173148153Y-74910000D01*
X173147472Y-74904368D01*
X173144413Y-74879096D01*
X173143500Y-74863958D01*
X173143500Y-73813993D01*
X173144757Y-73796240D01*
X173147432Y-73777445D01*
X173147432Y-73777442D01*
X173148013Y-73773361D01*
X173148153Y-73759997D01*
X173147657Y-73755900D01*
X173147656Y-73755882D01*
X173147376Y-73753568D01*
X173146942Y-73749413D01*
X173130908Y-73566152D01*
X173130429Y-73560673D01*
X173089756Y-73408882D01*
X173080065Y-73372715D01*
X173080064Y-73372713D01*
X173078642Y-73367405D01*
X173041811Y-73288420D01*
X172996408Y-73191053D01*
X172996405Y-73191048D01*
X172994082Y-73186066D01*
X172879317Y-73022165D01*
X172737835Y-72880683D01*
X172733327Y-72877526D01*
X172733324Y-72877524D01*
X172665473Y-72830015D01*
X172573934Y-72765918D01*
X172568952Y-72763595D01*
X172568947Y-72763592D01*
X172453068Y-72709557D01*
X172392595Y-72681358D01*
X172387287Y-72679936D01*
X172387285Y-72679935D01*
X172204645Y-72630996D01*
X172199327Y-72629571D01*
X172148518Y-72625126D01*
X172082401Y-72599263D01*
X172040761Y-72541759D01*
X172033500Y-72499605D01*
X172033500Y-72076000D01*
X172053502Y-72007879D01*
X172107158Y-71961386D01*
X172159500Y-71950000D01*
X177450000Y-71950000D01*
X177450000Y-66236712D01*
X177470002Y-66168591D01*
X177523658Y-66122098D01*
X177593932Y-66111994D01*
X177612575Y-66116138D01*
G37*
%TD.AperFunction*%
%TA.AperFunction,Conductor*%
G36*
X170685247Y-58454341D02*
G01*
X170711673Y-58466106D01*
X170711679Y-58466108D01*
X170717712Y-58468794D01*
X170811112Y-58488647D01*
X170898056Y-58507128D01*
X170898061Y-58507128D01*
X170904513Y-58508500D01*
X170960406Y-58508500D01*
X171028527Y-58528502D01*
X171049501Y-58545405D01*
X172321485Y-59817390D01*
X172324935Y-59821237D01*
X172327147Y-59824837D01*
X172332843Y-59830344D01*
X172332845Y-59830346D01*
X172380063Y-59875993D01*
X172381582Y-59877487D01*
X172405230Y-59901135D01*
X172408355Y-59903559D01*
X172408704Y-59903867D01*
X172412947Y-59907784D01*
X172441140Y-59935039D01*
X172450649Y-59945314D01*
X172474725Y-59974417D01*
X172535124Y-60018299D01*
X172536442Y-60019272D01*
X172596133Y-60063977D01*
X172599495Y-60065365D01*
X172603130Y-60067709D01*
X172705887Y-60142366D01*
X172715138Y-60149777D01*
X172748317Y-60179028D01*
X172771211Y-60190693D01*
X172808994Y-60209944D01*
X172812485Y-60211792D01*
X172872165Y-60244602D01*
X172879598Y-60246511D01*
X172889796Y-60251115D01*
X173002907Y-60308747D01*
X173013207Y-60314622D01*
X173050548Y-60338319D01*
X173115383Y-60359385D01*
X173119008Y-60360626D01*
X173183131Y-60383712D01*
X173190769Y-60384434D01*
X173201565Y-60387388D01*
X173268447Y-60409119D01*
X173322300Y-60426617D01*
X173333377Y-60430801D01*
X173373974Y-60448369D01*
X173439929Y-60458816D01*
X173441251Y-60459025D01*
X173445148Y-60459706D01*
X173482429Y-60466817D01*
X173512027Y-60472463D01*
X173519688Y-60471981D01*
X173530799Y-60473207D01*
X173592917Y-60483046D01*
X173649830Y-60492060D01*
X173663513Y-60495015D01*
X173692287Y-60502924D01*
X173692291Y-60502925D01*
X173699936Y-60505026D01*
X173774463Y-60506286D01*
X173776224Y-60506328D01*
X173829400Y-60508000D01*
X173829326Y-60510363D01*
X173831395Y-60510083D01*
X173831395Y-60508512D01*
X173843712Y-60508512D01*
X173847668Y-60508574D01*
X173850756Y-60508671D01*
X173850757Y-60508671D01*
X173850688Y-60510876D01*
X173851467Y-60511027D01*
X173851467Y-60508512D01*
X173905021Y-60508512D01*
X173907151Y-60508530D01*
X173913952Y-60508645D01*
X173940564Y-60509095D01*
X173944507Y-60508664D01*
X173944930Y-60508645D01*
X173950719Y-60508512D01*
X176220095Y-60508512D01*
X176288216Y-60528514D01*
X176334709Y-60582170D01*
X176346095Y-60634512D01*
X176346095Y-61449489D01*
X176326093Y-61517610D01*
X176272437Y-61564103D01*
X176202163Y-61574207D01*
X176196998Y-61573287D01*
X176195997Y-61573182D01*
X176189543Y-61571810D01*
X175998569Y-61571810D01*
X175992117Y-61573182D01*
X175992112Y-61573182D01*
X175905169Y-61591663D01*
X175811768Y-61611516D01*
X175805738Y-61614201D01*
X175805737Y-61614201D01*
X175643334Y-61686507D01*
X175643332Y-61686508D01*
X175637304Y-61689192D01*
X175482803Y-61801444D01*
X175355016Y-61943366D01*
X175259529Y-62108754D01*
X175200514Y-62290382D01*
X175199824Y-62296943D01*
X175199824Y-62296945D01*
X175183220Y-62454927D01*
X175180552Y-62480310D01*
X175181242Y-62486875D01*
X175199637Y-62661890D01*
X175200514Y-62670238D01*
X175259529Y-62851866D01*
X175262832Y-62857588D01*
X175262833Y-62857589D01*
X175269291Y-62868774D01*
X175355016Y-63017254D01*
X175428193Y-63098525D01*
X175458909Y-63162531D01*
X175460556Y-63182834D01*
X175460556Y-63790061D01*
X175459299Y-63807814D01*
X175456705Y-63826045D01*
X175456043Y-63830693D01*
X175455903Y-63844057D01*
X175456399Y-63848158D01*
X175456400Y-63848168D01*
X175456731Y-63850904D01*
X175457374Y-63857801D01*
X175471771Y-64077448D01*
X175472788Y-64092965D01*
X175473590Y-64096998D01*
X175473591Y-64097004D01*
X175517279Y-64316635D01*
X175521452Y-64337614D01*
X175522778Y-64341519D01*
X175522780Y-64341528D01*
X175593345Y-64549405D01*
X175601632Y-64573819D01*
X175603455Y-64577515D01*
X175603458Y-64577523D01*
X175655654Y-64683365D01*
X175711958Y-64797537D01*
X175714252Y-64800970D01*
X175714253Y-64800972D01*
X175810717Y-64945340D01*
X175850541Y-65004941D01*
X175853255Y-65008035D01*
X175853259Y-65008041D01*
X175957894Y-65127353D01*
X175958147Y-65127659D01*
X175961307Y-65133004D01*
X175970920Y-65142617D01*
X175976555Y-65148633D01*
X175986983Y-65160523D01*
X175991786Y-65166000D01*
X175997811Y-65173420D01*
X176005256Y-65183336D01*
X176014607Y-65192885D01*
X176017858Y-65195434D01*
X176039108Y-65212096D01*
X176050458Y-65222155D01*
X176500970Y-65672668D01*
X176512634Y-65686110D01*
X176526510Y-65704591D01*
X176535861Y-65714140D01*
X176539106Y-65716684D01*
X176545437Y-65721648D01*
X176549521Y-65724991D01*
X176670350Y-65828189D01*
X176709159Y-65887640D01*
X176709665Y-65958634D01*
X176671709Y-66018633D01*
X176607341Y-66048586D01*
X176588519Y-66050000D01*
X172159500Y-66050000D01*
X172091379Y-66029998D01*
X172044886Y-65976342D01*
X172033500Y-65924000D01*
X172033500Y-65453995D01*
X172034757Y-65436241D01*
X172037432Y-65417445D01*
X172038013Y-65413364D01*
X172038153Y-65400000D01*
X172037657Y-65395899D01*
X172037489Y-65392851D01*
X172038850Y-65366225D01*
X172043422Y-65337354D01*
X172055603Y-65299866D01*
X172075338Y-65261134D01*
X172098510Y-65229242D01*
X172129242Y-65198510D01*
X172161134Y-65175338D01*
X172164492Y-65173627D01*
X172234269Y-65160523D01*
X172295755Y-65183958D01*
X172443248Y-65291118D01*
X172449276Y-65293802D01*
X172449278Y-65293803D01*
X172462896Y-65299866D01*
X172617712Y-65368794D01*
X172711113Y-65388647D01*
X172798056Y-65407128D01*
X172798061Y-65407128D01*
X172804513Y-65408500D01*
X172995487Y-65408500D01*
X173001939Y-65407128D01*
X173001944Y-65407128D01*
X173088887Y-65388647D01*
X173182288Y-65368794D01*
X173337104Y-65299866D01*
X173350722Y-65293803D01*
X173350724Y-65293802D01*
X173356752Y-65291118D01*
X173511253Y-65178866D01*
X173515970Y-65173627D01*
X173634621Y-65041852D01*
X173634622Y-65041851D01*
X173639040Y-65036944D01*
X173734527Y-64871556D01*
X173793542Y-64689928D01*
X173813504Y-64500000D01*
X173804807Y-64417251D01*
X173794232Y-64316635D01*
X173794232Y-64316633D01*
X173793542Y-64310072D01*
X173734527Y-64128444D01*
X173639040Y-63963056D01*
X173614266Y-63935541D01*
X173515675Y-63826045D01*
X173515674Y-63826044D01*
X173511253Y-63821134D01*
X173356752Y-63708882D01*
X173350724Y-63706198D01*
X173350722Y-63706197D01*
X173188319Y-63633891D01*
X173188318Y-63633891D01*
X173182288Y-63631206D01*
X173088888Y-63611353D01*
X173001944Y-63592872D01*
X173001939Y-63592872D01*
X172995487Y-63591500D01*
X172804513Y-63591500D01*
X172798061Y-63592872D01*
X172798056Y-63592872D01*
X172711112Y-63611353D01*
X172617712Y-63631206D01*
X172611682Y-63633891D01*
X172611681Y-63633891D01*
X172449278Y-63706197D01*
X172449276Y-63706198D01*
X172443248Y-63708882D01*
X172437907Y-63712762D01*
X172437906Y-63712763D01*
X172379511Y-63755190D01*
X172312644Y-63779048D01*
X172243492Y-63762968D01*
X172194012Y-63712054D01*
X172179912Y-63642472D01*
X172185617Y-63614317D01*
X172191503Y-63596202D01*
X172193542Y-63589928D01*
X172213504Y-63400000D01*
X172193542Y-63210072D01*
X172134527Y-63028444D01*
X172128067Y-63017254D01*
X172042341Y-62868774D01*
X172039040Y-62863056D01*
X172034118Y-62857589D01*
X171934070Y-62746475D01*
X171903353Y-62682468D01*
X171912117Y-62612014D01*
X171918588Y-62599163D01*
X171931227Y-62577272D01*
X171931228Y-62577271D01*
X171934527Y-62571556D01*
X171993542Y-62389928D01*
X172004665Y-62284104D01*
X172012814Y-62206565D01*
X172013504Y-62200000D01*
X171993542Y-62010072D01*
X171934527Y-61828444D01*
X171839040Y-61663056D01*
X171749943Y-61564103D01*
X171715675Y-61526045D01*
X171715674Y-61526044D01*
X171711253Y-61521134D01*
X171556752Y-61408882D01*
X171550724Y-61406198D01*
X171550722Y-61406197D01*
X171388319Y-61333891D01*
X171388318Y-61333891D01*
X171382288Y-61331206D01*
X171279798Y-61309421D01*
X171201944Y-61292872D01*
X171201939Y-61292872D01*
X171195487Y-61291500D01*
X171004513Y-61291500D01*
X170998061Y-61292872D01*
X170998056Y-61292872D01*
X170920202Y-61309421D01*
X170817712Y-61331206D01*
X170811682Y-61333891D01*
X170811681Y-61333891D01*
X170685249Y-61390182D01*
X170614882Y-61399616D01*
X170550585Y-61369509D01*
X170512771Y-61309421D01*
X170508000Y-61275075D01*
X170508000Y-58569448D01*
X170528002Y-58501327D01*
X170581658Y-58454834D01*
X170651932Y-58444730D01*
X170685247Y-58454341D01*
G37*
%TD.AperFunction*%
%TA.AperFunction,Conductor*%
G36*
X181837569Y-59542148D02*
G01*
X181838483Y-59540479D01*
X181861942Y-59553323D01*
X181982401Y-59598481D01*
X181985732Y-59599273D01*
X181988056Y-59600601D01*
X181989793Y-59601252D01*
X181989688Y-59601533D01*
X182047376Y-59634493D01*
X182080194Y-59697449D01*
X182073765Y-59768154D01*
X182065704Y-59784845D01*
X182049661Y-59812632D01*
X181990646Y-59994260D01*
X181989956Y-60000821D01*
X181989956Y-60000823D01*
X181982926Y-60067709D01*
X181970684Y-60184188D01*
X181971374Y-60190753D01*
X181986884Y-60338319D01*
X181990646Y-60374116D01*
X182049661Y-60555744D01*
X182052964Y-60561466D01*
X182052965Y-60561467D01*
X182056721Y-60567972D01*
X182145148Y-60721132D01*
X182149566Y-60726039D01*
X182149567Y-60726040D01*
X182256545Y-60844851D01*
X182272935Y-60863054D01*
X182427436Y-60975306D01*
X182433464Y-60977990D01*
X182433466Y-60977991D01*
X182595869Y-61050297D01*
X182601900Y-61052982D01*
X182695300Y-61072835D01*
X182782244Y-61091316D01*
X182782249Y-61091316D01*
X182788701Y-61092688D01*
X182979675Y-61092688D01*
X182986128Y-61091316D01*
X182986131Y-61091316D01*
X182988982Y-61090710D01*
X182990745Y-61090335D01*
X183061535Y-61095735D01*
X183118169Y-61138550D01*
X183142665Y-61205187D01*
X183142945Y-61213581D01*
X183142945Y-62598362D01*
X183122943Y-62666483D01*
X183069287Y-62712976D01*
X182999013Y-62723080D01*
X182987540Y-62720883D01*
X182905599Y-62701211D01*
X182818289Y-62680249D01*
X182818283Y-62680248D01*
X182813476Y-62679094D01*
X182702650Y-62670372D01*
X182695607Y-62669199D01*
X182695573Y-62669466D01*
X182687712Y-62668473D01*
X182680030Y-62666500D01*
X182658414Y-62666500D01*
X182648530Y-62666112D01*
X182638643Y-62665334D01*
X182630783Y-62664466D01*
X182613363Y-62661987D01*
X182606320Y-62661913D01*
X182604119Y-62661890D01*
X182604117Y-62661890D01*
X182599999Y-62661847D01*
X182595909Y-62662342D01*
X182595908Y-62662342D01*
X182588252Y-62663269D01*
X182569092Y-62665587D01*
X182553957Y-62666500D01*
X180050019Y-62666500D01*
X180033573Y-62665422D01*
X180014215Y-62662873D01*
X180014211Y-62662873D01*
X180006684Y-62661882D01*
X179999139Y-62662715D01*
X179999127Y-62662715D01*
X179999122Y-62662716D01*
X179968852Y-62662399D01*
X179914863Y-62655291D01*
X179883091Y-62646777D01*
X179819082Y-62620263D01*
X179790598Y-62603818D01*
X179735630Y-62561640D01*
X179712370Y-62538380D01*
X179670192Y-62483412D01*
X179653746Y-62454927D01*
X179627232Y-62390917D01*
X179618719Y-62359146D01*
X179612172Y-62309418D01*
X179611101Y-62291653D01*
X179611137Y-62288220D01*
X179612128Y-62280692D01*
X179608271Y-62245756D01*
X179607510Y-62231929D01*
X179607510Y-60893217D01*
X179627512Y-60825096D01*
X179639868Y-60808914D01*
X179713050Y-60727637D01*
X179808537Y-60562249D01*
X179867552Y-60380621D01*
X179868926Y-60367553D01*
X179886824Y-60197258D01*
X179887514Y-60190693D01*
X179886824Y-60184128D01*
X179886824Y-60184011D01*
X179906826Y-60115890D01*
X179960482Y-60069397D01*
X180012824Y-60058011D01*
X180451495Y-60058011D01*
X180469249Y-60059268D01*
X180492126Y-60062524D01*
X180498743Y-60062593D01*
X180501365Y-60062621D01*
X180501368Y-60062621D01*
X180505490Y-60062664D01*
X180508917Y-60062249D01*
X180510773Y-60062103D01*
X180511153Y-60062082D01*
X180511540Y-60062043D01*
X180638627Y-60052041D01*
X180734278Y-60044513D01*
X180739085Y-60043359D01*
X180739091Y-60043358D01*
X180916259Y-60000823D01*
X180957433Y-59990938D01*
X180962006Y-59989044D01*
X181164887Y-59905008D01*
X181164889Y-59905007D01*
X181169459Y-59903114D01*
X181365136Y-59783202D01*
X181539646Y-59634157D01*
X181565820Y-59603511D01*
X181627746Y-59563984D01*
X181690533Y-59546454D01*
X181690536Y-59546453D01*
X181696463Y-59544798D01*
X181716212Y-59534822D01*
X181786034Y-59521962D01*
X181837569Y-59542148D01*
G37*
%TD.AperFunction*%
%TA.AperFunction,Conductor*%
G36*
X175932026Y-56775144D02*
G01*
X175959875Y-56806994D01*
X176019987Y-56905088D01*
X176166250Y-57073938D01*
X176231903Y-57128444D01*
X176288893Y-57175758D01*
X176328528Y-57234660D01*
X176330026Y-57305641D01*
X176292911Y-57366164D01*
X176274242Y-57380135D01*
X176219287Y-57413811D01*
X176219280Y-57413816D01*
X176215065Y-57416399D01*
X176211305Y-57419611D01*
X176211300Y-57419614D01*
X176084658Y-57527777D01*
X176040496Y-57565495D01*
X176037283Y-57569257D01*
X176013649Y-57596929D01*
X175953413Y-57635973D01*
X175870381Y-57660410D01*
X175864928Y-57663261D01*
X175864925Y-57663262D01*
X175824764Y-57684258D01*
X175695110Y-57752040D01*
X175540975Y-57875968D01*
X175502776Y-57921492D01*
X175443667Y-57960818D01*
X175406255Y-57966500D01*
X175203213Y-57966500D01*
X175186767Y-57965422D01*
X175167409Y-57962873D01*
X175167405Y-57962873D01*
X175159878Y-57961882D01*
X175144515Y-57963578D01*
X175120807Y-57963951D01*
X174987922Y-57953493D01*
X174968394Y-57950400D01*
X174847980Y-57921491D01*
X174816830Y-57914012D01*
X174798028Y-57907903D01*
X174732323Y-57880687D01*
X174654021Y-57848253D01*
X174636410Y-57839279D01*
X174503510Y-57757837D01*
X174487515Y-57746216D01*
X174465380Y-57727311D01*
X174426570Y-57667861D01*
X174421900Y-57618331D01*
X174423352Y-57604515D01*
X174423352Y-57604513D01*
X174424042Y-57597948D01*
X174423352Y-57591383D01*
X174423352Y-57584778D01*
X174426355Y-57584778D01*
X174436779Y-57527777D01*
X174485281Y-57475931D01*
X174553934Y-57458530D01*
X174636673Y-57461564D01*
X174636677Y-57461564D01*
X174641837Y-57461753D01*
X174646957Y-57461097D01*
X174646959Y-57461097D01*
X174858288Y-57434025D01*
X174858289Y-57434025D01*
X174863416Y-57433368D01*
X174868366Y-57431883D01*
X175072429Y-57370661D01*
X175072434Y-57370659D01*
X175077384Y-57369174D01*
X175277994Y-57270896D01*
X175459860Y-57141173D01*
X175618096Y-56983489D01*
X175654375Y-56933002D01*
X175748453Y-56802077D01*
X175749776Y-56803028D01*
X175796645Y-56759857D01*
X175866580Y-56747625D01*
X175932026Y-56775144D01*
G37*
%TD.AperFunction*%
%TD*%
M02*
