M48
; DRILL file {KiCad (6.0.10-0)} date Saturday, 07 January 2023 at 14:54:40
; FORMAT={-:-/ absolute / inch / decimal}
; #@! TF.CreationDate,2023-01-07T14:54:40+00:00
; #@! TF.GenerationSoftware,Kicad,Pcbnew,(6.0.10-0)
; #@! TF.FileFunction,Plated,1,2,PTH
FMAT,2
INCH
; #@! TA.AperFunction,Plated,PTH,ViaDrill
T1C0.0157
; #@! TA.AperFunction,Plated,PTH,ComponentDrill
T2C0.0197
; #@! TA.AperFunction,Plated,PTH,ComponentDrill
T3C0.0256
; #@! TA.AperFunction,Plated,PTH,ComponentDrill
T4C0.0394
%
G90
G05
T1
X6.7185Y-2.252
X6.7224Y-2.998
X6.7267Y-2.3488
X6.7274Y-2.5058
X6.7854Y-3.2382
X6.7868Y-2.9357
X6.8031Y-2.5236
X6.839Y-2.9256
X6.8524Y-2.5424
X6.8543Y-2.4488
X6.8878Y-2.4843
X6.8898Y-2.9213
X6.8973Y-2.2925
X6.9318Y-2.4531
X6.9589Y-2.9419
X6.9789Y-2.5129
X7.0236Y-2.2402
X7.0389Y-2.5276
X7.0453Y-2.3809
X7.0709Y-2.7372
X7.0722Y-2.8464
X7.1137Y-2.5724
X7.1142Y-2.4606
X7.1347Y-2.93
X7.1347Y-2.756
X7.1368Y-2.629
X7.1496Y-3.1161
X7.1772Y-2.5354
X7.1959Y-2.3695
X7.1966Y-2.8262
X7.2146Y-2.9134
X7.2165Y-2.9764
T3
X6.939Y-2.3071
X6.989Y-2.3071
X7.039Y-2.3071
X7.089Y-2.3071
X7.139Y-2.3071
X7.189Y-2.3071
T4
X6.7732Y-2.2087
X6.8732Y-2.2087
X6.9732Y-2.2087
X7.0732Y-2.2087
X7.1732Y-2.2087
T2
G00X6.7984Y-3.0008
M15
G01X6.7984Y-3.0323
M16
G05
G00X6.7984Y-3.1717
M15
G01X6.7984Y-3.1913
M16
G05
G00X7.1386Y-3.0008
M15
G01X7.1386Y-3.0323
M16
G05
G00X7.1386Y-3.1717
M15
G01X7.1386Y-3.1913
M16
G05
T0
M30
