M48
; DRILL file {KiCad (6.0.2-0)} date Thursday, 17 March 2022 at 07:22:23
; FORMAT={-:-/ absolute / inch / decimal}
; #@! TF.CreationDate,2022-03-17T07:22:23+00:00
; #@! TF.GenerationSoftware,Kicad,Pcbnew,(6.0.2-0)
; #@! TF.FileFunction,Plated,1,2,PTH
FMAT,2
INCH
; #@! TA.AperFunction,Plated,PTH,ViaDrill
T1C0.0157
; #@! TA.AperFunction,Plated,PTH,ComponentDrill
T2C0.0236
; #@! TA.AperFunction,Plated,PTH,ComponentDrill
T3C0.0256
; #@! TA.AperFunction,Plated,PTH,ComponentDrill
T4C0.0394
; #@! TA.AperFunction,Plated,PTH,ComponentDrill
T5C0.0492
%
G90
G05
T1
X6.7087Y-2.9862
X6.7106Y-2.4937
X6.7167Y-2.3358
X6.7185Y-2.252
X6.7868Y-2.9357
X6.7973Y-3.2289
X6.8031Y-2.5236
X6.839Y-2.9256
X6.8524Y-2.5424
X6.8543Y-2.4488
X6.8878Y-2.4843
X6.8898Y-2.9213
X6.8973Y-2.2925
X6.9318Y-2.4531
X6.9589Y-2.9419
X6.9789Y-2.5129
X7.0236Y-2.2402
X7.0389Y-2.5276
X7.0453Y-2.3809
X7.0709Y-2.7372
X7.0722Y-2.8464
X7.1137Y-2.5724
X7.1142Y-2.4606
X7.1347Y-2.93
X7.1347Y-2.756
X7.1368Y-2.6358
X7.1654Y-3.1181
X7.1891Y-2.5285
X7.1959Y-2.3695
X7.1988Y-2.8346
X7.2146Y-2.9134
X7.2165Y-2.9764
T2
X6.8547Y-3.0358
X7.0823Y-3.0358
T3
X6.939Y-2.3071
X6.989Y-2.3071
X7.039Y-2.3071
X7.089Y-2.3071
X7.139Y-2.3071
X7.189Y-2.3071
T4
X6.7732Y-2.2087
X6.7984Y-3.1807
X6.8732Y-2.2087
X6.9732Y-2.2087
X7.0732Y-2.2087
X7.1386Y-3.1807
X7.1732Y-2.2087
T5
X6.7984Y-3.0165
X7.1386Y-3.0165
T0
M30
