%TF.GenerationSoftware,KiCad,Pcbnew,(6.0.10-0)*%
%TF.CreationDate,2023-01-07T14:07:35+00:00*%
%TF.ProjectId,Shelly,5368656c-6c79-42e6-9b69-6361645f7063,4*%
%TF.SameCoordinates,Original*%
%TF.FileFunction,Copper,L1,Top*%
%TF.FilePolarity,Positive*%
%FSLAX46Y46*%
G04 Gerber Fmt 4.6, Leading zero omitted, Abs format (unit mm)*
G04 Created by KiCad (PCBNEW (6.0.10-0)) date 2023-01-07 14:07:35*
%MOMM*%
%LPD*%
G01*
G04 APERTURE LIST*
G04 Aperture macros list*
%AMRoundRect*
0 Rectangle with rounded corners*
0 $1 Rounding radius*
0 $2 $3 $4 $5 $6 $7 $8 $9 X,Y pos of 4 corners*
0 Add a 4 corners polygon primitive as box body*
4,1,4,$2,$3,$4,$5,$6,$7,$8,$9,$2,$3,0*
0 Add four circle primitives for the rounded corners*
1,1,$1+$1,$2,$3*
1,1,$1+$1,$4,$5*
1,1,$1+$1,$6,$7*
1,1,$1+$1,$8,$9*
0 Add four rect primitives between the rounded corners*
20,1,$1+$1,$2,$3,$4,$5,0*
20,1,$1+$1,$4,$5,$6,$7,0*
20,1,$1+$1,$6,$7,$8,$9,0*
20,1,$1+$1,$8,$9,$2,$3,0*%
%AMOutline5P*
0 Free polygon, 5 corners , with rotation*
0 The origin of the aperture is its center*
0 number of corners: always 5*
0 $1 to $10 corner X, Y*
0 $11 Rotation angle, in degrees counterclockwise*
0 create outline with 5 corners*
4,1,5,$1,$2,$3,$4,$5,$6,$7,$8,$9,$10,$1,$2,$11*%
%AMOutline6P*
0 Free polygon, 6 corners , with rotation*
0 The origin of the aperture is its center*
0 number of corners: always 6*
0 $1 to $12 corner X, Y*
0 $13 Rotation angle, in degrees counterclockwise*
0 create outline with 6 corners*
4,1,6,$1,$2,$3,$4,$5,$6,$7,$8,$9,$10,$11,$12,$1,$2,$13*%
%AMOutline7P*
0 Free polygon, 7 corners , with rotation*
0 The origin of the aperture is its center*
0 number of corners: always 7*
0 $1 to $14 corner X, Y*
0 $15 Rotation angle, in degrees counterclockwise*
0 create outline with 7 corners*
4,1,7,$1,$2,$3,$4,$5,$6,$7,$8,$9,$10,$11,$12,$13,$14,$1,$2,$15*%
%AMOutline8P*
0 Free polygon, 8 corners , with rotation*
0 The origin of the aperture is its center*
0 number of corners: always 8*
0 $1 to $16 corner X, Y*
0 $17 Rotation angle, in degrees counterclockwise*
0 create outline with 8 corners*
4,1,8,$1,$2,$3,$4,$5,$6,$7,$8,$9,$10,$11,$12,$13,$14,$15,$16,$1,$2,$17*%
%AMFreePoly0*
4,1,43,1.102950,0.110584,1.224483,0.068057,1.333507,-0.000447,1.424553,-0.091493,1.493057,-0.200517,1.535584,-0.322050,1.550000,-0.450000,1.533253,-0.512500,1.487500,-0.558253,1.425000,-0.575000,1.362500,-0.558253,1.316747,-0.512500,1.300000,-0.450000,1.302546,-0.440498,1.287946,-0.348318,1.241208,-0.256589,1.168411,-0.183792,1.076682,-0.137054,0.984502,-0.122454,0.975000,-0.125000,
-0.975000,-0.125000,-0.984502,-0.122454,-1.076682,-0.137054,-1.168411,-0.183792,-1.241208,-0.256589,-1.287946,-0.348318,-1.302546,-0.440498,-1.300000,-0.450000,-1.316747,-0.512500,-1.362500,-0.558253,-1.425000,-0.575000,-1.487500,-0.558253,-1.533253,-0.512500,-1.550000,-0.450000,-1.535584,-0.322050,-1.493057,-0.200517,-1.424553,-0.091493,-1.333507,-0.000447,-1.224483,0.068057,-1.102950,0.110584,
-0.975000,0.125000,0.975000,0.125000,1.102950,0.110584,1.102950,0.110584,$1*%
%AMFreePoly1*
4,1,24,1.812500,0.558253,1.858253,0.512500,1.875000,0.450000,1.860584,0.322050,1.818057,0.200517,1.749553,0.091493,1.658507,0.000447,1.549483,-0.068057,1.427950,-0.110584,1.300000,-0.125000,-1.300000,-0.125000,-1.300000,0.125000,1.300000,0.125000,1.309502,0.122454,1.401682,0.137054,1.493411,0.183792,1.566208,0.256589,1.612946,0.348318,1.627546,0.440498,1.625000,0.450000,
1.641747,0.512500,1.687500,0.558253,1.750000,0.575000,1.812500,0.558253,1.812500,0.558253,$1*%
%AMFreePoly2*
4,1,37,1.095671,1.230970,1.176777,1.176777,1.230970,1.095671,1.250000,1.000000,1.234645,0.804672,1.188955,0.614144,1.114055,0.433095,1.011784,0.265974,0.884654,0.116888,0.735790,-0.010501,0.568848,-0.113064,0.387930,-0.188280,0.197482,-0.234302,0.002181,-0.249998,-0.093523,-0.231135,-0.174723,-0.177083,-0.229058,-0.096072,-0.248255,-0.000434,-0.229392,0.095270,-0.175340,0.176470,
-0.094329,0.230805,0.001309,0.250002,0.013523,0.247595,0.148154,0.261077,0.289312,0.304116,0.419377,0.373837,0.533361,0.467569,0.626893,0.581716,0.696388,0.711902,0.739180,0.853136,0.752428,0.987793,0.750000,1.000000,0.769030,1.095671,0.823223,1.176777,0.904329,1.230970,1.000000,1.250000,1.095671,1.230970,1.095671,1.230970,$1*%
%AMFreePoly3*
4,1,72,4.686553,7.086501,4.817859,7.046669,4.938871,6.981987,5.044939,6.894939,5.131987,6.788871,5.196669,6.667859,5.236501,6.536553,5.249950,6.400000,5.249950,1.600000,5.230924,1.504348,5.176741,1.423259,5.112450,1.380300,5.112450,0.249950,6.600000,0.249950,6.695652,0.230924,6.776741,0.176741,6.830924,0.095652,6.849950,0.000000,6.830924,-0.095652,6.776741,-0.176741,
6.695652,-0.230924,6.600000,-0.249950,0.000000,-0.249950,-0.095652,-0.230924,-0.176741,-0.176741,-0.230924,-0.095652,-0.249950,0.000000,-0.230924,0.095652,-0.176741,0.176741,-0.095652,0.230924,0.000000,0.249950,4.612550,0.249950,4.612550,1.600000,4.631576,1.695652,4.685759,1.776741,4.750050,1.819700,4.750050,6.400000,4.751438,6.406980,4.742631,6.462590,4.713862,6.519052,
4.669052,6.563862,4.612590,6.592631,4.556980,6.601438,4.550000,6.600050,1.550000,6.600050,1.543020,6.601438,1.487410,6.592631,1.430948,6.563862,1.386138,6.519052,1.357369,6.462590,1.348562,6.406980,1.349950,6.400000,1.349950,5.900000,1.330924,5.804348,1.276741,5.723259,1.195652,5.669076,1.100000,5.650050,1.004348,5.669076,0.923259,5.723259,0.869076,5.804348,
0.850050,5.900000,0.850050,6.400000,0.863499,6.536553,0.903331,6.667859,0.968013,6.788871,1.055061,6.894939,1.161129,6.981987,1.282141,7.046669,1.413447,7.086501,1.550000,7.099950,4.550000,7.099950,4.686553,7.086501,4.686553,7.086501,$1*%
G04 Aperture macros list end*
%TA.AperFunction,ComponentPad*%
%ADD10R,1.700000X1.700000*%
%TD*%
%TA.AperFunction,ComponentPad*%
%ADD11O,1.700000X1.700000*%
%TD*%
%TA.AperFunction,ComponentPad*%
%ADD12R,1.000000X1.000000*%
%TD*%
%TA.AperFunction,ComponentPad*%
%ADD13O,1.000000X1.000000*%
%TD*%
%TA.AperFunction,SMDPad,CuDef*%
%ADD14R,0.600000X1.140000*%
%TD*%
%TA.AperFunction,SMDPad,CuDef*%
%ADD15RoundRect,0.075000X-0.075000X-0.495000X0.075000X-0.495000X0.075000X0.495000X-0.075000X0.495000X0*%
%TD*%
%TA.AperFunction,ComponentPad*%
%ADD16O,0.800000X1.600000*%
%TD*%
%TA.AperFunction,ComponentPad*%
%ADD17O,0.800000X1.300000*%
%TD*%
%TA.AperFunction,SMDPad,CuDef*%
%ADD18R,7.500000X5.250000*%
%TD*%
%TA.AperFunction,SMDPad,CuDef*%
%ADD19RoundRect,0.237500X0.237500X-0.287500X0.237500X0.287500X-0.237500X0.287500X-0.237500X-0.287500X0*%
%TD*%
%TA.AperFunction,SMDPad,CuDef*%
%ADD20RoundRect,0.200000X0.275000X-0.200000X0.275000X0.200000X-0.275000X0.200000X-0.275000X-0.200000X0*%
%TD*%
%TA.AperFunction,SMDPad,CuDef*%
%ADD21RoundRect,0.062500X0.287500X0.062500X-0.287500X0.062500X-0.287500X-0.062500X0.287500X-0.062500X0*%
%TD*%
%TA.AperFunction,SMDPad,CuDef*%
%ADD22RoundRect,0.062500X0.062500X0.287500X-0.062500X0.287500X-0.062500X-0.287500X0.062500X-0.287500X0*%
%TD*%
%TA.AperFunction,SMDPad,CuDef*%
%ADD23Outline5P,-1.000000X0.750000X-0.750000X1.000000X1.000000X1.000000X1.000000X-1.000000X-1.000000X-1.000000X180.000000*%
%TD*%
%TA.AperFunction,SMDPad,CuDef*%
%ADD24RoundRect,0.200000X-0.275000X0.200000X-0.275000X-0.200000X0.275000X-0.200000X0.275000X0.200000X0*%
%TD*%
%TA.AperFunction,SMDPad,CuDef*%
%ADD25RoundRect,0.200000X-0.200000X-0.275000X0.200000X-0.275000X0.200000X0.275000X-0.200000X0.275000X0*%
%TD*%
%TA.AperFunction,SMDPad,CuDef*%
%ADD26R,0.650000X0.400000*%
%TD*%
%TA.AperFunction,SMDPad,CuDef*%
%ADD27RoundRect,0.200000X0.200000X0.275000X-0.200000X0.275000X-0.200000X-0.275000X0.200000X-0.275000X0*%
%TD*%
%TA.AperFunction,SMDPad,CuDef*%
%ADD28R,0.450000X0.700000*%
%TD*%
%TA.AperFunction,SMDPad,CuDef*%
%ADD29R,2.000000X0.500000*%
%TD*%
%TA.AperFunction,SMDPad,CuDef*%
%ADD30FreePoly0,0.000000*%
%TD*%
%TA.AperFunction,SMDPad,CuDef*%
%ADD31R,0.600000X1.100000*%
%TD*%
%TA.AperFunction,SMDPad,CuDef*%
%ADD32RoundRect,0.225000X0.250000X-0.225000X0.250000X0.225000X-0.250000X0.225000X-0.250000X-0.225000X0*%
%TD*%
%TA.AperFunction,SMDPad,CuDef*%
%ADD33FreePoly1,0.000000*%
%TD*%
%TA.AperFunction,SMDPad,CuDef*%
%ADD34R,0.500000X2.000000*%
%TD*%
%TA.AperFunction,SMDPad,CuDef*%
%ADD35RoundRect,0.249375X-0.463125X-0.625625X0.463125X-0.625625X0.463125X0.625625X-0.463125X0.625625X0*%
%TD*%
%TA.AperFunction,SMDPad,CuDef*%
%ADD36R,1.425000X3.700000*%
%TD*%
%TA.AperFunction,SMDPad,CuDef*%
%ADD37FreePoly2,0.000000*%
%TD*%
%TA.AperFunction,SMDPad,CuDef*%
%ADD38RoundRect,0.250000X-0.475000X0.250000X-0.475000X-0.250000X0.475000X-0.250000X0.475000X0.250000X0*%
%TD*%
%TA.AperFunction,SMDPad,CuDef*%
%ADD39FreePoly3,0.000000*%
%TD*%
%TA.AperFunction,SMDPad,CuDef*%
%ADD40R,0.500000X4.000000*%
%TD*%
%TA.AperFunction,ViaPad*%
%ADD41C,0.800000*%
%TD*%
%TA.AperFunction,Conductor*%
%ADD42C,0.250000*%
%TD*%
%TA.AperFunction,Conductor*%
%ADD43C,0.200000*%
%TD*%
G04 APERTURE END LIST*
D10*
%TO.P,J1,1,Pin_1*%
%TO.N,GND*%
X182200000Y-56100000D03*
D11*
%TO.P,J1,2,Pin_2*%
%TO.N,GPIO0*%
X179660000Y-56100000D03*
%TO.P,J1,3,Pin_3*%
%TO.N,Net-(J1-Pad3)*%
X177120000Y-56100000D03*
%TO.P,J1,4,Pin_4*%
%TO.N,RXD*%
X174580000Y-56100000D03*
%TO.P,J1,5,Pin_5*%
%TO.N,TXD*%
X172040000Y-56100000D03*
%TD*%
D12*
%TO.P,J2,1,Pin_1*%
%TO.N,GND*%
X182600000Y-58600000D03*
D13*
%TO.P,J2,2,Pin_2*%
%TO.N,GPIO0*%
X181330000Y-58600000D03*
%TO.P,J2,3,Pin_3*%
%TO.N,Net-(J1-Pad3)*%
X180060000Y-58600000D03*
%TO.P,J2,4,Pin_4*%
%TO.N,+3V3*%
X178790000Y-58600000D03*
%TO.P,J2,5,Pin_5*%
%TO.N,RXD*%
X177520000Y-58600000D03*
%TO.P,J2,6,Pin_6*%
%TO.N,TXD*%
X176250000Y-58600000D03*
%TD*%
D14*
%TO.P,J3,A1,GND*%
%TO.N,GND*%
X173800000Y-76040000D03*
%TO.P,J3,A4,VBUS*%
%TO.N,VBUS*%
X174600000Y-76040000D03*
D15*
%TO.P,J3,A5,CC1*%
%TO.N,Net-(J3-PadA5)*%
X175750000Y-76040000D03*
%TO.P,J3,A6,D+*%
%TO.N,Net-(J3-PadA6)*%
X176750000Y-76040000D03*
%TO.P,J3,A7,D-*%
%TO.N,Net-(J3-PadA7)*%
X177250000Y-76040000D03*
%TO.P,J3,A8,SBU1*%
%TO.N,unconnected-(J3-PadA8)*%
X178250000Y-76040000D03*
D14*
%TO.P,J3,A9,VBUS*%
%TO.N,VBUS*%
X179400000Y-76040000D03*
%TO.P,J3,A12,GND*%
%TO.N,GND*%
X180200000Y-76040000D03*
%TO.P,J3,B1,GND*%
X180200000Y-76040000D03*
%TO.P,J3,B4,VBUS*%
%TO.N,VBUS*%
X179400000Y-76040000D03*
D15*
%TO.P,J3,B5,CC2*%
%TO.N,Net-(J3-PadB5)*%
X178750000Y-76040000D03*
%TO.P,J3,B6,D+*%
%TO.N,Net-(J3-PadA6)*%
X177750000Y-76040000D03*
%TO.P,J3,B7,D-*%
%TO.N,Net-(J3-PadA7)*%
X176250000Y-76040000D03*
%TO.P,J3,B8,SBU2*%
%TO.N,unconnected-(J3-PadB8)*%
X175250000Y-76040000D03*
D14*
%TO.P,J3,B9,VBUS*%
%TO.N,VBUS*%
X174600000Y-76040000D03*
%TO.P,J3,B12,GND*%
%TO.N,GND*%
X173800000Y-76040000D03*
D16*
%TO.P,J3,S1,SHIELD*%
X181320000Y-76620000D03*
X172680000Y-76620000D03*
D17*
X181320000Y-80810000D03*
X172680000Y-80810000D03*
D18*
X177000000Y-80025000D03*
%TD*%
D19*
%TO.P,D3,1,K*%
%TO.N,Net-(D3-Pad1)*%
X171100000Y-81775000D03*
%TO.P,D3,2,A*%
%TO.N,Net-(D3-Pad2)*%
X171100000Y-80025000D03*
%TD*%
D20*
%TO.P,R2,1*%
%TO.N,GND*%
X183300000Y-78925000D03*
%TO.P,R2,2*%
%TO.N,Net-(J3-PadB5)*%
X183300000Y-77275000D03*
%TD*%
D21*
%TO.P,U1,1,RXD*%
%TO.N,TXD*%
X182600000Y-63500000D03*
%TO.P,U1,2,~{RI}*%
%TO.N,GND*%
X182600000Y-63000000D03*
%TO.P,U1,3,GND*%
X182600000Y-62500000D03*
%TO.P,U1,4,~{DSR}*%
X182600000Y-62000000D03*
%TO.P,U1,5,~{DCD}*%
X182600000Y-61500000D03*
D22*
%TO.P,U1,6,~{CTS}*%
X181700000Y-60600000D03*
%TO.P,U1,7,CBUS2*%
%TO.N,unconnected-(U1-Pad7)*%
X181200000Y-60600000D03*
%TO.P,U1,8,USBDP*%
%TO.N,D+*%
X180700000Y-60600000D03*
%TO.P,U1,9,USBDM*%
%TO.N,D-*%
X180200000Y-60600000D03*
%TO.P,U1,10,3V3OUT*%
%TO.N,Net-(C1-Pad1)*%
X179700000Y-60600000D03*
D21*
%TO.P,U1,11,~{RESET}*%
X178800000Y-61500000D03*
%TO.P,U1,12,VCC*%
%TO.N,VBUS*%
X178800000Y-62000000D03*
%TO.P,U1,13,GND*%
%TO.N,GND*%
X178800000Y-62500000D03*
%TO.P,U1,14,CBUS1*%
%TO.N,unconnected-(U1-Pad14)*%
X178800000Y-63000000D03*
%TO.P,U1,15,CBUS0*%
%TO.N,Net-(D3-Pad1)*%
X178800000Y-63500000D03*
D22*
%TO.P,U1,16,CBUS3*%
%TO.N,unconnected-(U1-Pad16)*%
X179700000Y-64400000D03*
%TO.P,U1,17,TXD*%
%TO.N,RXD*%
X180200000Y-64400000D03*
%TO.P,U1,18,~{DTR}*%
%TO.N,GPIO0*%
X180700000Y-64400000D03*
%TO.P,U1,19,~{RTS}*%
%TO.N,RST*%
X181200000Y-64400000D03*
%TO.P,U1,20,VCCIO*%
%TO.N,Net-(C1-Pad1)*%
X181700000Y-64400000D03*
D23*
%TO.P,U1,21,GND*%
%TO.N,GND*%
X180700000Y-62500000D03*
%TD*%
D24*
%TO.P,R5,1*%
%TO.N,+3V3*%
X171100000Y-77075000D03*
%TO.P,R5,2*%
%TO.N,Net-(D3-Pad2)*%
X171100000Y-78725000D03*
%TD*%
%TO.P,R1,1*%
%TO.N,Net-(J3-PadA5)*%
X183300000Y-80175000D03*
%TO.P,R1,2*%
%TO.N,GND*%
X183300000Y-81825000D03*
%TD*%
D25*
%TO.P,R3,1*%
%TO.N,Net-(J3-PadA7)*%
X180575000Y-73000000D03*
%TO.P,R3,2*%
%TO.N,D-*%
X182225000Y-73000000D03*
%TD*%
%TO.P,R4,1*%
%TO.N,Net-(J3-PadA6)*%
X180575000Y-74320000D03*
%TO.P,R4,2*%
%TO.N,D+*%
X182225000Y-74320000D03*
%TD*%
D26*
%TO.P,D1,1,A1*%
%TO.N,GND*%
X180300000Y-69750000D03*
%TO.P,D1,2,K2*%
%TO.N,+3V3*%
X180300000Y-70400000D03*
%TO.P,D1,3,K1A2*%
%TO.N,RST*%
X180300000Y-71050000D03*
%TO.P,D1,4,A3*%
%TO.N,GND*%
X182200000Y-71050000D03*
%TO.P,D1,5,K4*%
%TO.N,+3V3*%
X182200000Y-70400000D03*
%TO.P,D1,6,K3A4*%
%TO.N,TXD*%
X182200000Y-69750000D03*
%TD*%
%TO.P,D2,1,A1*%
%TO.N,GND*%
X180300000Y-66850000D03*
%TO.P,D2,2,K2*%
%TO.N,+3V3*%
X180300000Y-67500000D03*
%TO.P,D2,3,K1A2*%
%TO.N,RXD*%
X180300000Y-68150000D03*
%TO.P,D2,4,A3*%
%TO.N,GND*%
X182200000Y-68150000D03*
%TO.P,D2,5,K4*%
%TO.N,+3V3*%
X182200000Y-67500000D03*
%TO.P,D2,6,K3A4*%
%TO.N,GPIO0*%
X182200000Y-66850000D03*
%TD*%
D27*
%TO.P,C1,1*%
%TO.N,Net-(C1-Pad1)*%
X177565000Y-61200000D03*
%TO.P,C1,2*%
%TO.N,GND*%
X176015000Y-61200000D03*
%TD*%
D28*
%TO.P,Q1,1,G*%
%TO.N,RST*%
X170750000Y-60800000D03*
%TO.P,Q1,2,S*%
%TO.N,+3V3*%
X172050000Y-60800000D03*
%TO.P,Q1,3,D*%
%TO.N,Net-(J1-Pad3)*%
X171400000Y-58800000D03*
%TD*%
D27*
%TO.P,R6,1*%
%TO.N,+3V3*%
X177175000Y-65450000D03*
%TO.P,R6,2*%
%TO.N,Net-(R6-Pad2)*%
X175525000Y-65450000D03*
%TD*%
D24*
%TO.P,R7,1*%
%TO.N,GND*%
X171700000Y-64475000D03*
%TO.P,R7,2*%
%TO.N,Net-(R6-Pad2)*%
X171700000Y-66125000D03*
%TD*%
D25*
%TO.P,C5,1*%
%TO.N,+3V3*%
X171325000Y-62400000D03*
%TO.P,C5,2*%
%TO.N,GND*%
X172875000Y-62400000D03*
%TD*%
D28*
%TO.P,Q2,1,G*%
%TO.N,RST*%
X173350000Y-60800000D03*
%TO.P,Q2,2,S*%
%TO.N,GND*%
X174650000Y-60800000D03*
%TO.P,Q2,3,D*%
%TO.N,Net-(J1-Pad3)*%
X174000000Y-58800000D03*
%TD*%
D29*
%TO.P,U2,*%
%TO.N,*%
X174680000Y-70100000D03*
D30*
X172305000Y-69200000D03*
D31*
X173730000Y-67400000D03*
D32*
X170680000Y-68225000D03*
X170680000Y-69775000D03*
D33*
X171980000Y-68300000D03*
D34*
X173730000Y-71050000D03*
D35*
X173577500Y-71920000D03*
D36*
X175180000Y-68800000D03*
D31*
X173730000Y-70100000D03*
%TO.P,U2,1,SHDN*%
%TO.N,VBUS*%
X171830000Y-70100000D03*
D37*
%TO.P,U2,2,VIN*%
X171720000Y-71300000D03*
D38*
X171930000Y-71350000D03*
D31*
X172780000Y-70100000D03*
D38*
%TO.P,U2,3,GND*%
%TO.N,GND*%
X171930000Y-73250000D03*
D39*
X171680000Y-73250000D03*
D38*
X178180000Y-73250000D03*
D31*
X172780000Y-67400000D03*
D35*
X176542500Y-71920000D03*
D36*
%TO.P,U2,4,VOUT*%
%TO.N,+3V3*%
X178180000Y-68800000D03*
D40*
X178180000Y-69550000D03*
D38*
X178180000Y-71350000D03*
D31*
%TO.P,U2,5,FB*%
%TO.N,Net-(R6-Pad2)*%
X171830000Y-67400000D03*
%TD*%
D41*
%TO.N,+3V3*%
X170750000Y-76150000D03*
%TO.N,GND*%
X181275498Y-66950000D03*
X180700000Y-62500000D03*
X179632974Y-72298800D03*
X170650000Y-57200000D03*
X178400000Y-56900000D03*
X183300000Y-75600000D03*
X174051693Y-64577922D03*
X175192248Y-58230015D03*
X174950000Y-63100000D03*
X173710000Y-74310000D03*
X179600000Y-69524500D03*
%TO.N,VBUS*%
X172384900Y-74565696D03*
X172800000Y-64100001D03*
%TO.N,RXD*%
X177264422Y-63826967D03*
%TO.N,+3V3*%
X170875146Y-63646916D03*
X170858173Y-59658942D03*
%TO.N,GPIO0*%
X180687701Y-65337701D03*
%TO.N,RST*%
X181222248Y-70001935D03*
X174100000Y-62200000D03*
%TO.N,D-*%
X182793105Y-71786211D03*
X178950592Y-60474008D03*
%TO.N,D+*%
X182775500Y-60184188D03*
X183250000Y-74000000D03*
%TO.N,Net-(C1-Pad1)*%
X176067108Y-62308294D03*
X182300000Y-64400000D03*
%TO.N,Net-(D3-Pad1)*%
X178787724Y-64200000D03*
X172350000Y-82250000D03*
%TO.N,Net-(J3-PadA6)*%
X176757146Y-74724500D03*
X181222137Y-74420989D03*
%TO.N,Net-(J3-PadA5)*%
X182000000Y-79200000D03*
X175000000Y-74200000D03*
%TD*%
D42*
%TO.N,+3V3*%
X171100000Y-76994974D02*
X171100000Y-77075000D01*
X171100010Y-76994974D02*
G75*
G03*
X170750000Y-76150000I-1195010J-26D01*
G01*
%TO.N,Net-(D3-Pad2)*%
X171100000Y-78725000D02*
X171100000Y-80025000D01*
%TO.N,Net-(D3-Pad1)*%
X171100000Y-81775000D02*
X171203249Y-81775000D01*
X172349986Y-82250014D02*
G75*
G03*
X171203249Y-81775000I-1146786J-1146786D01*
G01*
%TO.N,VBUS*%
X173746869Y-63858148D02*
X173751595Y-63853422D01*
%TO.N,+3V3*%
X171054882Y-63653418D02*
X170881648Y-63653418D01*
X176800000Y-64550000D02*
X175506239Y-64550000D01*
%TO.N,VBUS*%
X176394363Y-63560424D02*
X177100635Y-62854152D01*
X172800719Y-64061809D02*
X173004380Y-63858148D01*
%TO.N,+3V3*%
X174042851Y-65307149D02*
X173752805Y-65307149D01*
%TO.N,VBUS*%
X173751595Y-63853422D02*
X174351791Y-63853422D01*
X176359857Y-63666619D02*
X176394363Y-63560424D01*
X173004380Y-63858148D02*
X173746869Y-63858148D01*
%TO.N,+3V3*%
X170886984Y-64933159D02*
X170886984Y-63658754D01*
%TO.N,VBUS*%
X177950312Y-62412617D02*
X178362929Y-62000000D01*
X177100635Y-62854152D02*
X177888325Y-62854152D01*
X177950312Y-62768847D02*
X177950312Y-62412617D01*
X177888325Y-62854152D02*
X177950312Y-62768847D01*
%TO.N,GND*%
X174028719Y-64600896D02*
X174051693Y-64577922D01*
%TO.N,VBUS*%
X172800000Y-64100001D02*
X172800719Y-64061809D01*
%TO.N,+3V3*%
X171325000Y-62400000D02*
X171325000Y-63245501D01*
%TO.N,VBUS*%
X176168328Y-63858148D02*
X176359857Y-63666619D01*
%TO.N,GND*%
X174028719Y-64691024D02*
X174028719Y-64600896D01*
X172049501Y-64824500D02*
G75*
G02*
X171700000Y-64475000I-1J349500D01*
G01*
%TO.N,VBUS*%
X178362929Y-62000000D02*
X178800000Y-62000000D01*
X174351791Y-63853422D02*
X174356516Y-63858148D01*
%TO.N,+3V3*%
X170887021Y-64933154D02*
G75*
G03*
X171308217Y-65299999I423179J60654D01*
G01*
X176800000Y-64550000D02*
G75*
G02*
X177175000Y-64925000I0J-375000D01*
G01*
X170886984Y-63658754D02*
X170875146Y-63646916D01*
X174042851Y-65307120D02*
G75*
G03*
X174572312Y-65087837I49J748720D01*
G01*
X174830076Y-64830076D02*
X174630076Y-65030076D01*
X174630076Y-65030076D02*
X174572313Y-65087838D01*
X173745656Y-65300000D02*
X171308217Y-65300000D01*
%TO.N,GND*%
X172049501Y-64824501D02*
X173806711Y-64824501D01*
%TO.N,+3V3*%
X171054884Y-63653423D02*
G75*
G03*
X171325000Y-63245501I-176284J410123D01*
G01*
%TO.N,GND*%
X174028745Y-64691038D02*
G75*
G02*
X173806711Y-64824501I-224545J122138D01*
G01*
%TO.N,+3V3*%
X177175000Y-65450000D02*
X177175000Y-64925000D01*
%TO.N,VBUS*%
X174356516Y-63858148D02*
X176168328Y-63858148D01*
%TO.N,+3V3*%
X170881648Y-63653418D02*
X170875146Y-63646916D01*
X174830064Y-64830064D02*
G75*
G02*
X175506239Y-64550000I676136J-676136D01*
G01*
X173752805Y-65307149D02*
X173745656Y-65300000D01*
%TO.N,GND*%
X173800000Y-76040000D02*
X173220000Y-76620000D01*
X173220000Y-76620000D02*
X172680000Y-76620000D01*
X180200000Y-76040000D02*
X180780000Y-76620000D01*
X180780000Y-76620000D02*
X181320000Y-76620000D01*
X179731294Y-72200480D02*
X181049520Y-72200480D01*
X172875000Y-62400000D02*
X172336397Y-62938603D01*
X182600000Y-63000000D02*
X181200000Y-63000000D01*
X178025489Y-57274511D02*
X176824511Y-57274511D01*
X178800000Y-62500000D02*
X180700000Y-62500000D01*
X180350000Y-66850000D02*
X181225498Y-66850000D01*
X181200000Y-63000000D02*
X180700000Y-62500000D01*
X173400000Y-73250000D02*
X173710000Y-73560000D01*
X180300000Y-66850000D02*
X181175498Y-66850000D01*
X182200000Y-56850000D02*
X182200000Y-56100000D01*
X183300000Y-78925000D02*
X183300000Y-78705000D01*
X178774511Y-57274511D02*
X181775489Y-57274511D01*
X171930000Y-73250000D02*
X173400000Y-73250000D01*
X181225498Y-66850000D02*
X181325498Y-66950000D01*
X181320000Y-80790000D02*
X182128726Y-81598726D01*
X182600000Y-62500000D02*
X180700000Y-62500000D01*
X174950000Y-63100000D02*
X174564949Y-63100000D01*
X183300000Y-81825000D02*
X182675000Y-81825000D01*
X181700000Y-60600000D02*
X181700000Y-61500000D01*
X180400000Y-69750000D02*
X182000000Y-68150000D01*
X182600000Y-61500000D02*
X181700000Y-61500000D01*
X182000000Y-68150000D02*
X182250000Y-68150000D01*
X180700000Y-62500000D02*
X181700000Y-61500000D01*
X173710000Y-73560000D02*
X173710000Y-74310000D01*
X175726597Y-57676606D02*
X175192248Y-58210955D01*
X175192248Y-58210955D02*
X175192248Y-58230015D01*
X183300000Y-78705000D02*
X181325000Y-76730000D01*
X182600000Y-62000000D02*
X181200000Y-62000000D01*
X176015000Y-61200000D02*
X175540434Y-61674566D01*
X174650000Y-60800000D02*
X175615000Y-60800000D01*
X179632974Y-72298800D02*
X179731294Y-72200480D01*
X182199980Y-71050000D02*
G75*
G02*
X181049520Y-72200480I-1150480J0D01*
G01*
X174950010Y-63100000D02*
G75*
G02*
X175540435Y-61674567I2015890J0D01*
G01*
X171700003Y-64475000D02*
G75*
G02*
X172336398Y-62938604I2172797J0D01*
G01*
X176015000Y-61200000D02*
G75*
G03*
X175615000Y-60800000I-400000J0D01*
G01*
X182200011Y-56850000D02*
G75*
G02*
X181775489Y-57274511I-424511J0D01*
G01*
X181275500Y-66950000D02*
G75*
G03*
X181175498Y-66850000I-100000J0D01*
G01*
X178774511Y-57274500D02*
G75*
G02*
X178400000Y-56900000I-11J374500D01*
G01*
X178025489Y-57274500D02*
G75*
G03*
X178400000Y-56900000I11J374500D01*
G01*
X175726595Y-57676604D02*
G75*
G02*
X176824511Y-57274511I1102205J-1309596D01*
G01*
X172874986Y-62400014D02*
G75*
G03*
X174564949Y-63100000I1689914J1689914D01*
G01*
X182675000Y-81825014D02*
G75*
G02*
X182128726Y-81598726I0J772514D01*
G01*
%TO.N,VBUS*%
X170880480Y-72380480D02*
X170880480Y-73530480D01*
X174425489Y-75145489D02*
X172964693Y-75145489D01*
X171860000Y-70140000D02*
X172810000Y-70140000D01*
X174600000Y-76400000D02*
X174600000Y-76040000D01*
X174600000Y-75320000D02*
X174600000Y-76040000D01*
X171930000Y-71350000D02*
X171910960Y-71350000D01*
X178700000Y-77000000D02*
X175200000Y-77000000D01*
X171450000Y-74100000D02*
X171919204Y-74100000D01*
X179400000Y-76040000D02*
X179400000Y-76300000D01*
X172384911Y-74565696D02*
G75*
G03*
X172964693Y-75145489I579789J-4D01*
G01*
X172384900Y-74565696D02*
G75*
G03*
X171919204Y-74100000I-465700J-4D01*
G01*
X174600000Y-76400000D02*
G75*
G03*
X175200000Y-77000000I600000J0D01*
G01*
X170880500Y-72380480D02*
G75*
G02*
X171910960Y-71350000I1030500J-20D01*
G01*
X171450000Y-74100020D02*
G75*
G02*
X170880480Y-73530480I0J569520D01*
G01*
X174425489Y-75145500D02*
G75*
G02*
X174600000Y-75320000I11J-174500D01*
G01*
X178700000Y-77000000D02*
G75*
G03*
X179400000Y-76300000I0J700000D01*
G01*
%TO.N,RXD*%
X180200000Y-64400000D02*
X180200000Y-64797328D01*
X178000000Y-64150000D02*
X178000000Y-65150000D01*
X179897328Y-65100000D02*
X178050000Y-65100000D01*
X177264422Y-63826967D02*
X177676967Y-63826967D01*
X179250000Y-66900000D02*
X179250000Y-67400000D01*
X180300000Y-68150000D02*
X180000000Y-68150000D01*
X180200000Y-64797328D02*
X179897328Y-65100000D01*
X180350000Y-68150000D02*
X180000000Y-68150000D01*
X178000000Y-65150000D02*
X178000000Y-65650000D01*
X179250000Y-67400000D02*
G75*
G03*
X180000000Y-68150000I750000J0D01*
G01*
X178000033Y-64150000D02*
G75*
G03*
X177676967Y-63826967I-323033J0D01*
G01*
X179250000Y-66900000D02*
G75*
G03*
X178750000Y-66400000I-500000J0D01*
G01*
X178000000Y-65150000D02*
G75*
G02*
X178050000Y-65100000I50000J0D01*
G01*
X178750000Y-66400000D02*
G75*
G02*
X178000000Y-65650000I0J750000D01*
G01*
%TO.N,+3V3*%
X180350000Y-67500000D02*
X180650000Y-67500000D01*
X180775489Y-67625489D02*
X180974511Y-67625489D01*
X178210000Y-71390000D02*
X178300000Y-71300000D01*
X171033942Y-59658942D02*
X170858173Y-59658942D01*
X172050000Y-60675000D02*
X171033942Y-59658942D01*
X180900000Y-71600000D02*
X180100000Y-71600000D01*
X177175000Y-65450000D02*
X177175000Y-66075000D01*
X181023523Y-67674501D02*
X181625597Y-67674501D01*
X181000000Y-68200000D02*
X181000000Y-67650978D01*
X180974511Y-67625489D02*
X181023523Y-67674501D01*
X179030000Y-70400000D02*
X180300000Y-70400000D01*
X178180000Y-67080000D02*
X178180000Y-68800000D01*
X172050000Y-60800000D02*
X172050000Y-60675000D01*
X181800098Y-67500000D02*
X182250000Y-67500000D01*
X180650000Y-67500000D02*
X180775489Y-67625489D01*
X172625000Y-60100000D02*
X177290000Y-60100000D01*
X181625597Y-67674501D02*
X181800098Y-67500000D01*
X178180000Y-68800000D02*
X180400000Y-68800000D01*
X182100000Y-70400000D02*
X182300000Y-70400000D01*
X179400000Y-70900000D02*
X179400000Y-70400000D01*
X172625000Y-60100000D02*
G75*
G03*
X172050000Y-60675000I0J-575000D01*
G01*
X181000000Y-68200000D02*
G75*
G02*
X180400000Y-68800000I-600000J0D01*
G01*
X180900000Y-71600000D02*
G75*
G03*
X181500000Y-71000000I0J600000D01*
G01*
X178180000Y-67080000D02*
G75*
G03*
X177550000Y-66450000I-630000J0D01*
G01*
X178180000Y-69550000D02*
G75*
G03*
X179030000Y-70400000I850000J0D01*
G01*
X177550000Y-66450000D02*
G75*
G02*
X177175000Y-66075000I0J375000D01*
G01*
X179400000Y-70900000D02*
G75*
G03*
X180100000Y-71600000I700000J0D01*
G01*
X178790000Y-58600000D02*
G75*
G02*
X177290000Y-60100000I-1500000J0D01*
G01*
X181500000Y-71000000D02*
G75*
G02*
X182100000Y-70400000I600000J0D01*
G01*
%TO.N,GPIO0*%
X181676369Y-65600000D02*
X180800000Y-65600000D01*
X180700000Y-65500000D02*
X180700000Y-64400000D01*
X182250000Y-66750000D02*
X182250000Y-66173631D01*
X180673040Y-65534832D02*
X180578872Y-65440664D01*
X180578872Y-65440664D02*
X180578872Y-65345893D01*
X181676369Y-65600000D02*
G75*
G02*
X182250000Y-66173631I31J-573600D01*
G01*
X180673071Y-65534809D02*
G75*
G03*
X180800000Y-65599999I130029J97009D01*
G01*
%TO.N,TXD*%
X177074511Y-57775489D02*
X183175489Y-57775489D01*
X182200000Y-69750000D02*
X182650000Y-69750000D01*
X182600000Y-63500000D02*
X183450000Y-63500000D01*
X183500000Y-58100000D02*
X183500000Y-63450000D01*
X183500000Y-63450000D02*
X183500000Y-68900000D01*
X177074511Y-57775500D02*
G75*
G03*
X176250000Y-58600000I-11J-824500D01*
G01*
X183500000Y-63450000D02*
G75*
G02*
X183450000Y-63500000I-50000J0D01*
G01*
X183500011Y-58100000D02*
G75*
G03*
X183175489Y-57775489I-324511J0D01*
G01*
X183500000Y-68900000D02*
G75*
G02*
X182650000Y-69750000I-850000J0D01*
G01*
%TO.N,RST*%
X171400000Y-61550000D02*
X172725000Y-61550000D01*
X170750000Y-60800000D02*
X170750000Y-60900000D01*
X181527173Y-65124501D02*
X181200000Y-64797328D01*
X173350000Y-60800000D02*
X173350000Y-60925000D01*
X181222248Y-69674240D02*
X181222248Y-70001935D01*
X182868814Y-68798019D02*
X182098469Y-68798019D01*
X182868814Y-65672227D02*
X182868814Y-68798019D01*
X182321088Y-65124501D02*
X181527173Y-65124501D01*
X181200000Y-64797328D02*
X181200000Y-64400000D01*
X174100000Y-62200000D02*
X174100000Y-61550000D01*
X182098469Y-68798019D02*
X181222248Y-69674240D01*
X181222248Y-70001935D02*
X181222248Y-70127752D01*
X182321088Y-65124501D02*
X182868814Y-65672227D01*
X173350000Y-60800000D02*
G75*
G02*
X174100000Y-61550000I0J-750000D01*
G01*
X180300000Y-71050048D02*
G75*
G03*
X181222248Y-70127752I0J922248D01*
G01*
X171400000Y-61550000D02*
G75*
G02*
X170750000Y-60900000I0J650000D01*
G01*
X172725000Y-61550000D02*
G75*
G03*
X173350000Y-60925000I0J625000D01*
G01*
D43*
%TO.N,D-*%
X182336537Y-72888462D02*
X182225000Y-73000000D01*
D42*
X178950592Y-60474008D02*
X178950592Y-60299408D01*
X179350000Y-59900000D02*
X179850000Y-59900000D01*
X180200000Y-60600000D02*
X180200000Y-60250000D01*
D43*
X182336529Y-72888454D02*
G75*
G03*
X182793105Y-71786211I-1102229J1102254D01*
G01*
D42*
X179350000Y-59899992D02*
G75*
G03*
X178950592Y-60299408I0J-399408D01*
G01*
X179850000Y-59900000D02*
G75*
G02*
X180200000Y-60250000I0J-350000D01*
G01*
%TO.N,D+*%
X182930000Y-74320000D02*
X182225000Y-74320000D01*
X182491312Y-59900000D02*
X181200000Y-59900000D01*
X180700000Y-60600000D02*
X180700000Y-60400000D01*
X182930000Y-74320000D02*
G75*
G03*
X183250000Y-74000000I0J320000D01*
G01*
X182491312Y-59900000D02*
G75*
G02*
X182775500Y-60184188I-12J-284200D01*
G01*
X181200000Y-59900000D02*
G75*
G03*
X180700000Y-60400000I0J-500000D01*
G01*
%TO.N,Net-(C1-Pad1)*%
X177865000Y-61500000D02*
X177565000Y-61200000D01*
X178800000Y-61500000D02*
X177865000Y-61500000D01*
X181700000Y-64400000D02*
X182300000Y-64400000D01*
X177565000Y-61200000D02*
X177565000Y-61935000D01*
X176067108Y-62308294D02*
X177191706Y-62308294D01*
X177191706Y-62308300D02*
G75*
G03*
X177565000Y-61935000I-6J373300D01*
G01*
X178800000Y-61500000D02*
G75*
G03*
X179700000Y-60600000I0J900000D01*
G01*
%TO.N,Net-(J1-Pad3)*%
X174000000Y-58800000D02*
X171400000Y-58800000D01*
X174324555Y-58016455D02*
X175619470Y-56721540D01*
X174324555Y-58016455D02*
G75*
G03*
X174000000Y-58800000I783545J-783545D01*
G01*
X177120000Y-56100009D02*
G75*
G03*
X175619470Y-56721540I0J-2122091D01*
G01*
%TO.N,Net-(D3-Pad1)*%
X178800000Y-63500000D02*
X178800000Y-64337744D01*
%TO.N,Net-(J3-PadA7)*%
X175850000Y-74500000D02*
X175850000Y-74567158D01*
X178455026Y-74150000D02*
X177812783Y-74150000D01*
X177485829Y-74525130D02*
X177486899Y-74475884D01*
X176250000Y-76040000D02*
X176250000Y-75465685D01*
X179300000Y-73800000D02*
X179750000Y-73350000D01*
X179764125Y-73335876D02*
X179750000Y-73350000D01*
X177485829Y-74525130D02*
X177485829Y-74868098D01*
X176350000Y-74000000D02*
X176960699Y-74000000D01*
X177250000Y-76040000D02*
X177250000Y-75437439D01*
X175850000Y-74500000D02*
G75*
G02*
X176350000Y-74000000I500000J0D01*
G01*
X177378111Y-75128111D02*
G75*
G03*
X177250000Y-75437439I309289J-309289D01*
G01*
X176050013Y-75049987D02*
G75*
G02*
X176250000Y-75532842I-482813J-482813D01*
G01*
X177486900Y-74475884D02*
G75*
G02*
X177812783Y-74150000I325900J-16D01*
G01*
X177378124Y-75128124D02*
G75*
G03*
X177485829Y-74868098I-260024J260024D01*
G01*
X179299993Y-73799993D02*
G75*
G02*
X178455026Y-74150000I-844993J844993D01*
G01*
X177485800Y-74525130D02*
G75*
G03*
X176960699Y-74000000I-525100J30D01*
G01*
X179764135Y-73335886D02*
G75*
G02*
X180575000Y-73000000I810865J-810814D01*
G01*
X176049987Y-75050013D02*
G75*
G02*
X175850000Y-74567158I482813J482813D01*
G01*
%TO.N,Net-(J3-PadA6)*%
X176750000Y-74731646D02*
X176757146Y-74724500D01*
X180256065Y-74638935D02*
X178211065Y-74638935D01*
X180575000Y-74320000D02*
X180256065Y-74638935D01*
X181222137Y-74414146D02*
X181222137Y-74420989D01*
X181191267Y-74383276D02*
X181222137Y-74414146D01*
X177750000Y-76040000D02*
X177750000Y-75482784D01*
X176750000Y-76040000D02*
X176750000Y-74731646D01*
X180575000Y-74320000D02*
X181067926Y-74320000D01*
X178020735Y-74829330D02*
G75*
G02*
X178211065Y-74638935I190365J30D01*
G01*
X177814236Y-75327726D02*
G75*
G03*
X177750000Y-75482784I155064J-155074D01*
G01*
X181191252Y-74383288D02*
G75*
G03*
X181067926Y-74320000I-126352J-94412D01*
G01*
X177814223Y-75327713D02*
G75*
G03*
X178020670Y-74829330I-498423J498413D01*
G01*
%TO.N,Net-(J3-PadA5)*%
X175316074Y-74963070D02*
X175750000Y-75396996D01*
X175750000Y-75396996D02*
X175750000Y-76040000D01*
X182554809Y-79429810D02*
X183300000Y-80175000D01*
X174999988Y-74200000D02*
G75*
G03*
X175316075Y-74963069I1079112J0D01*
G01*
X182554805Y-79429814D02*
G75*
G03*
X182000000Y-79200000I-554805J-554786D01*
G01*
%TO.N,Net-(J3-PadB5)*%
X182400000Y-76180411D02*
X182400000Y-76700000D01*
X182975000Y-77275000D02*
X183300000Y-77275000D01*
X178924511Y-75145489D02*
X181365078Y-75145489D01*
X178750000Y-76040000D02*
X178750000Y-75320000D01*
X182975000Y-77275000D02*
G75*
G02*
X182400000Y-76700000I0J575000D01*
G01*
X182400011Y-76180411D02*
G75*
G03*
X181365078Y-75145489I-1034911J11D01*
G01*
X178924511Y-75145500D02*
G75*
G03*
X178750000Y-75320000I-11J-174500D01*
G01*
%TO.N,Net-(R6-Pad2)*%
X172484619Y-65800000D02*
X175225000Y-65800000D01*
X171830000Y-67400000D02*
X171830000Y-66255000D01*
X175525000Y-65500000D02*
G75*
G02*
X175225000Y-65800000I-300000J0D01*
G01*
X172484619Y-65800009D02*
G75*
G03*
X171700001Y-66125001I-19J-1109591D01*
G01*
%TD*%
%TA.AperFunction,Conductor*%
%TO.N,GND*%
G36*
X173570121Y-76386002D02*
G01*
X173616614Y-76439658D01*
X173628000Y-76492000D01*
X173628000Y-76748000D01*
X173607998Y-76816121D01*
X173554342Y-76862614D01*
X173502000Y-76874000D01*
X172952115Y-76874000D01*
X172936876Y-76878475D01*
X172935671Y-76879865D01*
X172934000Y-76887548D01*
X172934000Y-77876182D01*
X172937973Y-77889713D01*
X172948468Y-77891222D01*
X172955675Y-77889690D01*
X172968161Y-77885633D01*
X173130471Y-77813368D01*
X173141843Y-77806802D01*
X173285574Y-77702376D01*
X173295337Y-77693585D01*
X173414214Y-77561558D01*
X173421938Y-77550927D01*
X173467377Y-77472224D01*
X173518760Y-77423231D01*
X173588473Y-77409795D01*
X173654384Y-77436181D01*
X173669243Y-77449936D01*
X173753226Y-77541266D01*
X173760521Y-77545789D01*
X173760522Y-77545790D01*
X173875044Y-77616797D01*
X173882344Y-77621323D01*
X174028235Y-77663709D01*
X174039007Y-77664500D01*
X174148057Y-77664500D01*
X174152303Y-77663918D01*
X174152309Y-77663918D01*
X174231054Y-77653131D01*
X174260518Y-77649095D01*
X174319158Y-77623719D01*
X174392064Y-77592169D01*
X174392065Y-77592169D01*
X174399946Y-77588758D01*
X174447909Y-77549919D01*
X174511339Y-77498555D01*
X174511341Y-77498553D01*
X174518013Y-77493150D01*
X174532885Y-77472224D01*
X174601044Y-77376315D01*
X174601044Y-77376314D01*
X174606020Y-77369313D01*
X174610305Y-77357411D01*
X174612488Y-77354423D01*
X174612909Y-77353619D01*
X174613030Y-77353682D01*
X174652197Y-77300091D01*
X174718429Y-77274520D01*
X174782106Y-77285893D01*
X174858724Y-77321620D01*
X174858728Y-77321622D01*
X174863711Y-77323945D01*
X174869019Y-77325367D01*
X174869021Y-77325368D01*
X175023947Y-77366880D01*
X175023949Y-77366880D01*
X175029262Y-77368304D01*
X175034746Y-77368784D01*
X175034753Y-77368785D01*
X175121735Y-77376396D01*
X175129883Y-77377624D01*
X175133851Y-77379018D01*
X175139416Y-77379500D01*
X175151729Y-77379500D01*
X175162691Y-77379978D01*
X175181696Y-77381641D01*
X175190160Y-77382680D01*
X175190205Y-77382680D01*
X175200000Y-77384231D01*
X175220078Y-77381051D01*
X175239788Y-77379500D01*
X178660212Y-77379500D01*
X178679922Y-77381051D01*
X178700000Y-77384231D01*
X178708562Y-77382875D01*
X178710791Y-77382680D01*
X178711408Y-77382680D01*
X178712938Y-77382492D01*
X178888169Y-77367161D01*
X178893482Y-77365737D01*
X178893484Y-77365737D01*
X179065311Y-77319696D01*
X179065313Y-77319695D01*
X179070621Y-77318273D01*
X179075745Y-77315884D01*
X179122523Y-77294071D01*
X179205281Y-77255481D01*
X179275471Y-77244820D01*
X179340283Y-77273800D01*
X179370796Y-77312473D01*
X179406668Y-77382875D01*
X179430392Y-77429436D01*
X179436205Y-77435757D01*
X179436206Y-77435759D01*
X179519760Y-77526622D01*
X179533226Y-77541266D01*
X179540521Y-77545789D01*
X179540522Y-77545790D01*
X179655044Y-77616797D01*
X179662344Y-77621323D01*
X179808235Y-77663709D01*
X179819007Y-77664500D01*
X179928057Y-77664500D01*
X179932303Y-77663918D01*
X179932309Y-77663918D01*
X180011054Y-77653131D01*
X180040518Y-77649095D01*
X180099158Y-77623719D01*
X180172064Y-77592169D01*
X180172065Y-77592169D01*
X180179946Y-77588758D01*
X180227909Y-77549919D01*
X180291339Y-77498555D01*
X180291341Y-77498553D01*
X180298013Y-77493150D01*
X180302988Y-77486150D01*
X180302991Y-77486147D01*
X180320433Y-77461603D01*
X180376198Y-77417662D01*
X180446867Y-77410846D01*
X180510002Y-77443319D01*
X180532258Y-77471592D01*
X180578062Y-77550927D01*
X180585786Y-77561558D01*
X180704663Y-77693585D01*
X180714426Y-77702376D01*
X180858157Y-77806802D01*
X180869529Y-77813368D01*
X181031839Y-77885633D01*
X181044325Y-77889690D01*
X181048278Y-77890530D01*
X181062341Y-77889457D01*
X181066000Y-77879503D01*
X181066000Y-76892115D01*
X181061525Y-76876876D01*
X181060135Y-76875671D01*
X181052452Y-76874000D01*
X180498000Y-76874000D01*
X180429879Y-76853998D01*
X180383386Y-76800342D01*
X180372000Y-76748000D01*
X180372000Y-76492000D01*
X180392002Y-76423879D01*
X180445658Y-76377386D01*
X180498000Y-76366000D01*
X181448000Y-76366000D01*
X181516121Y-76386002D01*
X181562614Y-76439658D01*
X181574000Y-76492000D01*
X181574000Y-77876182D01*
X181577973Y-77889713D01*
X181588468Y-77891222D01*
X181595675Y-77889690D01*
X181608161Y-77885633D01*
X181770471Y-77813368D01*
X181781843Y-77806802D01*
X181925574Y-77702376D01*
X181935337Y-77693585D01*
X182054214Y-77561558D01*
X182061935Y-77550931D01*
X182131415Y-77430589D01*
X182182798Y-77381596D01*
X182252512Y-77368161D01*
X182318423Y-77394548D01*
X182329629Y-77404495D01*
X182359116Y-77433982D01*
X182363625Y-77437139D01*
X182363627Y-77437141D01*
X182412828Y-77471592D01*
X182495927Y-77529779D01*
X182500912Y-77532104D01*
X182500918Y-77532107D01*
X182527472Y-77544489D01*
X182580758Y-77591406D01*
X182593106Y-77616936D01*
X182615669Y-77681188D01*
X182615671Y-77681192D01*
X182618791Y-77690076D01*
X182699990Y-77800010D01*
X182707561Y-77805602D01*
X182771208Y-77852613D01*
X182814119Y-77909174D01*
X182819638Y-77979956D01*
X182786014Y-78042486D01*
X182744791Y-78067628D01*
X182745677Y-78069591D01*
X182725012Y-78078921D01*
X182591426Y-78159824D01*
X182579557Y-78169131D01*
X182469131Y-78279557D01*
X182459824Y-78291426D01*
X182378921Y-78425012D01*
X182372715Y-78438757D01*
X182355993Y-78492119D01*
X182316536Y-78551141D01*
X182251433Y-78579461D01*
X182205064Y-78576644D01*
X182090004Y-78547743D01*
X182090000Y-78547743D01*
X182082633Y-78545892D01*
X182075034Y-78545852D01*
X182075033Y-78545852D01*
X182009181Y-78545507D01*
X181924221Y-78545062D01*
X181916841Y-78546834D01*
X181916839Y-78546834D01*
X181777563Y-78580271D01*
X181777560Y-78580272D01*
X181770184Y-78582043D01*
X181629414Y-78654700D01*
X181510039Y-78758838D01*
X181418950Y-78888444D01*
X181416190Y-78895524D01*
X181368293Y-79018374D01*
X181361406Y-79036037D01*
X181360414Y-79043570D01*
X181360414Y-79043571D01*
X181342113Y-79182587D01*
X181340729Y-79193096D01*
X181341563Y-79200646D01*
X181356326Y-79334364D01*
X181358113Y-79350553D01*
X181360723Y-79357684D01*
X181360723Y-79357686D01*
X181376527Y-79400871D01*
X181412553Y-79499319D01*
X181416789Y-79505622D01*
X181416789Y-79505623D01*
X181495909Y-79623365D01*
X181500908Y-79630805D01*
X181506526Y-79635917D01*
X181506527Y-79635918D01*
X181532799Y-79659823D01*
X181569722Y-79720463D01*
X181574000Y-79753017D01*
X181574000Y-80537885D01*
X181578475Y-80553124D01*
X181579865Y-80554329D01*
X181587548Y-80556000D01*
X182209885Y-80556000D01*
X182225124Y-80551525D01*
X182226329Y-80550135D01*
X182228000Y-80542452D01*
X182228000Y-80515698D01*
X182227656Y-80509138D01*
X182213741Y-80376739D01*
X182211011Y-80363898D01*
X182156111Y-80194934D01*
X182150765Y-80182926D01*
X182059639Y-80025091D01*
X182042901Y-79956096D01*
X182066122Y-79889004D01*
X182121929Y-79845117D01*
X182140628Y-79839271D01*
X182215929Y-79822025D01*
X182215933Y-79822024D01*
X182223332Y-79820329D01*
X182265293Y-79799225D01*
X182335138Y-79786488D01*
X182400781Y-79813533D01*
X182411001Y-79822696D01*
X182533595Y-79945290D01*
X182567621Y-80007602D01*
X182570500Y-80034385D01*
X182570501Y-80429314D01*
X182573507Y-80461127D01*
X182618791Y-80590076D01*
X182699990Y-80700010D01*
X182707561Y-80705602D01*
X182771208Y-80752613D01*
X182814119Y-80809174D01*
X182819638Y-80879956D01*
X182786014Y-80942486D01*
X182744791Y-80967628D01*
X182745677Y-80969591D01*
X182725012Y-80978921D01*
X182591426Y-81059824D01*
X182579557Y-81069131D01*
X182469131Y-81179557D01*
X182455133Y-81197408D01*
X182453771Y-81196340D01*
X182408266Y-81237944D01*
X182338286Y-81249916D01*
X182272943Y-81222154D01*
X182232981Y-81163471D01*
X182227851Y-81114189D01*
X182227483Y-81114170D01*
X182227606Y-81111831D01*
X182227580Y-81111586D01*
X182227656Y-81110859D01*
X182228000Y-81104302D01*
X182228000Y-81082115D01*
X182223525Y-81066876D01*
X182222135Y-81065671D01*
X182214452Y-81064000D01*
X181592115Y-81064000D01*
X181576876Y-81068475D01*
X181575671Y-81069865D01*
X181574000Y-81077548D01*
X181574000Y-81916182D01*
X181577973Y-81929713D01*
X181588468Y-81931222D01*
X181595675Y-81929690D01*
X181608161Y-81925633D01*
X181770471Y-81853368D01*
X181781843Y-81846802D01*
X181925574Y-81742376D01*
X181935337Y-81733585D01*
X182054214Y-81601558D01*
X182061938Y-81590927D01*
X182091298Y-81540073D01*
X182142680Y-81491080D01*
X182212394Y-81477644D01*
X182278305Y-81504030D01*
X182321313Y-81567574D01*
X182321474Y-81568124D01*
X182322865Y-81569329D01*
X182330548Y-81571000D01*
X183428000Y-81571000D01*
X183496121Y-81591002D01*
X183542614Y-81644658D01*
X183554000Y-81697000D01*
X183554000Y-81953000D01*
X183533998Y-82021121D01*
X183480342Y-82067614D01*
X183428000Y-82079000D01*
X182335116Y-82079000D01*
X182319877Y-82083475D01*
X182318672Y-82084865D01*
X182317709Y-82089294D01*
X182323132Y-82148315D01*
X182325743Y-82161351D01*
X182372715Y-82311243D01*
X182378921Y-82324988D01*
X182459824Y-82458574D01*
X182469131Y-82470443D01*
X182529093Y-82530405D01*
X182563119Y-82592717D01*
X182558054Y-82663532D01*
X182515507Y-82720368D01*
X182448987Y-82745179D01*
X182439998Y-82745500D01*
X173041980Y-82745500D01*
X172973859Y-82725498D01*
X172927366Y-82671842D01*
X172917262Y-82601568D01*
X172928511Y-82567928D01*
X172927755Y-82567624D01*
X172944026Y-82527148D01*
X172986842Y-82420641D01*
X173009162Y-82263807D01*
X173009307Y-82250000D01*
X172990276Y-82092733D01*
X172975086Y-82052534D01*
X172969718Y-81981743D01*
X173003475Y-81919285D01*
X173041703Y-81892890D01*
X173130471Y-81853368D01*
X173141843Y-81846802D01*
X173285574Y-81742376D01*
X173295337Y-81733585D01*
X173414214Y-81601558D01*
X173421938Y-81590927D01*
X173510765Y-81437074D01*
X173516111Y-81425066D01*
X173571011Y-81256102D01*
X173573741Y-81243261D01*
X173587656Y-81110862D01*
X173588000Y-81104302D01*
X180412000Y-81104302D01*
X180412344Y-81110862D01*
X180426259Y-81243261D01*
X180428989Y-81256102D01*
X180483889Y-81425066D01*
X180489235Y-81437074D01*
X180578062Y-81590927D01*
X180585786Y-81601558D01*
X180704663Y-81733585D01*
X180714426Y-81742376D01*
X180858157Y-81846802D01*
X180869529Y-81853368D01*
X181031839Y-81925633D01*
X181044325Y-81929690D01*
X181048278Y-81930530D01*
X181062341Y-81929457D01*
X181066000Y-81919503D01*
X181066000Y-81082115D01*
X181061525Y-81066876D01*
X181060135Y-81065671D01*
X181052452Y-81064000D01*
X180430115Y-81064000D01*
X180414876Y-81068475D01*
X180413671Y-81069865D01*
X180412000Y-81077548D01*
X180412000Y-81104302D01*
X173588000Y-81104302D01*
X173588000Y-81082115D01*
X173583525Y-81066876D01*
X173582135Y-81065671D01*
X173574452Y-81064000D01*
X171790115Y-81064000D01*
X171763805Y-81071725D01*
X171722707Y-81098139D01*
X171651710Y-81098140D01*
X171611643Y-81078070D01*
X171583382Y-81056890D01*
X171583381Y-81056889D01*
X171576199Y-81051507D01*
X171567798Y-81048357D01*
X171567795Y-81048356D01*
X171486772Y-81017982D01*
X171430008Y-80975340D01*
X171405308Y-80908779D01*
X171420516Y-80839430D01*
X171470802Y-80789312D01*
X171486772Y-80782018D01*
X171567795Y-80751644D01*
X171567798Y-80751643D01*
X171576199Y-80748493D01*
X171688974Y-80663974D01*
X171713095Y-80631789D01*
X171732097Y-80606435D01*
X171788956Y-80563920D01*
X171832923Y-80556000D01*
X172407885Y-80556000D01*
X172423124Y-80551525D01*
X172424329Y-80550135D01*
X172426000Y-80542452D01*
X172426000Y-80537885D01*
X172934000Y-80537885D01*
X172938475Y-80553124D01*
X172939865Y-80554329D01*
X172947548Y-80556000D01*
X173569885Y-80556000D01*
X173585124Y-80551525D01*
X173586329Y-80550135D01*
X173588000Y-80542452D01*
X173588000Y-80537885D01*
X180412000Y-80537885D01*
X180416475Y-80553124D01*
X180417865Y-80554329D01*
X180425548Y-80556000D01*
X181047885Y-80556000D01*
X181063124Y-80551525D01*
X181064329Y-80550135D01*
X181066000Y-80542452D01*
X181066000Y-79703818D01*
X181062027Y-79690287D01*
X181051532Y-79688778D01*
X181044325Y-79690310D01*
X181031839Y-79694367D01*
X180869529Y-79766632D01*
X180858157Y-79773198D01*
X180714426Y-79877624D01*
X180704663Y-79886415D01*
X180585786Y-80018442D01*
X180578062Y-80029073D01*
X180489235Y-80182926D01*
X180483889Y-80194934D01*
X180428989Y-80363898D01*
X180426259Y-80376739D01*
X180412344Y-80509138D01*
X180412000Y-80515698D01*
X180412000Y-80537885D01*
X173588000Y-80537885D01*
X173588000Y-80515698D01*
X173587656Y-80509138D01*
X173573741Y-80376739D01*
X173571011Y-80363898D01*
X173516111Y-80194934D01*
X173510765Y-80182926D01*
X173421938Y-80029073D01*
X173414214Y-80018442D01*
X173295337Y-79886415D01*
X173285574Y-79877624D01*
X173141843Y-79773198D01*
X173130471Y-79766632D01*
X172968161Y-79694367D01*
X172955675Y-79690310D01*
X172951722Y-79689470D01*
X172937659Y-79690543D01*
X172934000Y-79700497D01*
X172934000Y-80537885D01*
X172426000Y-80537885D01*
X172426000Y-79703818D01*
X172422027Y-79690287D01*
X172411532Y-79688778D01*
X172404325Y-79690310D01*
X172391839Y-79694367D01*
X172229529Y-79766632D01*
X172218157Y-79773198D01*
X172074426Y-79877624D01*
X172064662Y-79886416D01*
X172049136Y-79903659D01*
X171988690Y-79940898D01*
X171917706Y-79939546D01*
X171858722Y-79900032D01*
X171830464Y-79834901D01*
X171829500Y-79819348D01*
X171829500Y-79690930D01*
X171822964Y-79630764D01*
X171773493Y-79498801D01*
X171700098Y-79400870D01*
X171675251Y-79334364D01*
X171690304Y-79264982D01*
X171700973Y-79250722D01*
X171700010Y-79250010D01*
X171736471Y-79200646D01*
X171781209Y-79140076D01*
X171826493Y-79011127D01*
X171829500Y-78979315D01*
X171829499Y-78470686D01*
X171826493Y-78438873D01*
X171781209Y-78309924D01*
X171700010Y-78199990D01*
X171590076Y-78118791D01*
X171461127Y-78073507D01*
X171453485Y-78072785D01*
X171453482Y-78072784D01*
X171438579Y-78071376D01*
X171429315Y-78070500D01*
X171100223Y-78070500D01*
X170770686Y-78070501D01*
X170767738Y-78070780D01*
X170767729Y-78070780D01*
X170746522Y-78072784D01*
X170746520Y-78072784D01*
X170738873Y-78073507D01*
X170609924Y-78118791D01*
X170499990Y-78199990D01*
X170494398Y-78207561D01*
X170481851Y-78224548D01*
X170425290Y-78267458D01*
X170354508Y-78272978D01*
X170291978Y-78239354D01*
X170257554Y-78177261D01*
X170254500Y-78149688D01*
X170254500Y-77650312D01*
X170274502Y-77582191D01*
X170328158Y-77535698D01*
X170398432Y-77525594D01*
X170463012Y-77555088D01*
X170481851Y-77575452D01*
X170499990Y-77600010D01*
X170609924Y-77681209D01*
X170738873Y-77726493D01*
X170746515Y-77727215D01*
X170746518Y-77727216D01*
X170761421Y-77728624D01*
X170770685Y-77729500D01*
X171099777Y-77729500D01*
X171429314Y-77729499D01*
X171432262Y-77729220D01*
X171432271Y-77729220D01*
X171453478Y-77727216D01*
X171453480Y-77727216D01*
X171461127Y-77726493D01*
X171590076Y-77681209D01*
X171700010Y-77600010D01*
X171705603Y-77592438D01*
X171735806Y-77551547D01*
X171792368Y-77508636D01*
X171863150Y-77503117D01*
X171925679Y-77536742D01*
X171939095Y-77552349D01*
X171945782Y-77561554D01*
X172064663Y-77693585D01*
X172074426Y-77702376D01*
X172218157Y-77806802D01*
X172229529Y-77813368D01*
X172391839Y-77885633D01*
X172404325Y-77889690D01*
X172408278Y-77890530D01*
X172422341Y-77889457D01*
X172426000Y-77879503D01*
X172426000Y-76492000D01*
X172446002Y-76423879D01*
X172499658Y-76377386D01*
X172552000Y-76366000D01*
X173502000Y-76366000D01*
X173570121Y-76386002D01*
G37*
%TD.AperFunction*%
%TA.AperFunction,Conductor*%
G36*
X183698374Y-74589594D02*
G01*
X183738976Y-74647835D01*
X183745500Y-74687853D01*
X183745500Y-76494500D01*
X183725498Y-76562621D01*
X183671842Y-76609114D01*
X183619500Y-76620500D01*
X183123609Y-76620501D01*
X182970686Y-76620501D01*
X182967738Y-76620780D01*
X182967729Y-76620780D01*
X182955158Y-76621968D01*
X182938873Y-76623507D01*
X182932227Y-76625841D01*
X182861675Y-76620920D01*
X182804765Y-76578473D01*
X182779837Y-76511997D01*
X182779500Y-76502787D01*
X182779500Y-76220197D01*
X182781050Y-76200497D01*
X182784231Y-76180415D01*
X182783543Y-76176073D01*
X182766419Y-75958464D01*
X182714447Y-75741977D01*
X182629247Y-75536286D01*
X182512919Y-75346457D01*
X182432712Y-75252547D01*
X182403682Y-75187760D01*
X182414287Y-75117559D01*
X182461161Y-75064237D01*
X182501521Y-75047646D01*
X182503485Y-75047215D01*
X182511127Y-75046493D01*
X182518370Y-75043949D01*
X182518372Y-75043949D01*
X182591024Y-75018435D01*
X182640076Y-75001209D01*
X182750010Y-74920010D01*
X182831209Y-74810076D01*
X182839839Y-74785503D01*
X182881280Y-74727859D01*
X182939011Y-74702804D01*
X182948811Y-74701252D01*
X182956169Y-74700308D01*
X182982401Y-74697724D01*
X183067126Y-74689379D01*
X183073052Y-74687581D01*
X183073059Y-74687580D01*
X183166246Y-74659312D01*
X183204798Y-74653902D01*
X183269125Y-74654913D01*
X183311319Y-74655576D01*
X183311322Y-74655576D01*
X183318916Y-74655695D01*
X183473332Y-74620329D01*
X183562887Y-74575288D01*
X183632730Y-74562550D01*
X183698374Y-74589594D01*
G37*
%TD.AperFunction*%
%TA.AperFunction,Conductor*%
G36*
X180396121Y-75544991D02*
G01*
X180442614Y-75598647D01*
X180454000Y-75650989D01*
X180454000Y-76168000D01*
X180433998Y-76236121D01*
X180380342Y-76282614D01*
X180328000Y-76294000D01*
X180080500Y-76294000D01*
X180012379Y-76273998D01*
X179965886Y-76220342D01*
X179954500Y-76168000D01*
X179954499Y-75650989D01*
X179974501Y-75582868D01*
X180028156Y-75536375D01*
X180080499Y-75524989D01*
X180328000Y-75524989D01*
X180396121Y-75544991D01*
G37*
%TD.AperFunction*%
%TA.AperFunction,Conductor*%
G36*
X173987621Y-75544991D02*
G01*
X174034114Y-75598647D01*
X174045500Y-75650989D01*
X174045501Y-76036739D01*
X174045501Y-76168000D01*
X174025499Y-76236121D01*
X173971844Y-76282614D01*
X173919501Y-76294000D01*
X173078000Y-76294000D01*
X173009879Y-76273998D01*
X172963386Y-76220342D01*
X172952000Y-76168000D01*
X172952000Y-75912000D01*
X172972002Y-75843879D01*
X173025658Y-75797386D01*
X173078000Y-75786000D01*
X173527885Y-75786000D01*
X173543124Y-75781525D01*
X173544329Y-75780135D01*
X173546000Y-75772452D01*
X173546000Y-75650989D01*
X173566002Y-75582868D01*
X173619658Y-75536375D01*
X173672000Y-75524989D01*
X173919500Y-75524989D01*
X173987621Y-75544991D01*
G37*
%TD.AperFunction*%
%TA.AperFunction,Conductor*%
G36*
X174288795Y-74033681D02*
G01*
X174335288Y-74087337D01*
X174345596Y-74156124D01*
X174341720Y-74185563D01*
X174341720Y-74185569D01*
X174340729Y-74193096D01*
X174358113Y-74350553D01*
X174360723Y-74357684D01*
X174360723Y-74357686D01*
X174407032Y-74484231D01*
X174412553Y-74499319D01*
X174416788Y-74505622D01*
X174416792Y-74505629D01*
X174459855Y-74569713D01*
X174481248Y-74637410D01*
X174462644Y-74705926D01*
X174409951Y-74753507D01*
X174355274Y-74765989D01*
X173162723Y-74765989D01*
X173094602Y-74745987D01*
X173048109Y-74692331D01*
X173037980Y-74622237D01*
X173044062Y-74579503D01*
X173044207Y-74565696D01*
X173025176Y-74408429D01*
X172969180Y-74260242D01*
X172964881Y-74253987D01*
X172964879Y-74253983D01*
X172935369Y-74211046D01*
X172913269Y-74143576D01*
X172931155Y-74074869D01*
X172983347Y-74026739D01*
X173039209Y-74013679D01*
X174220674Y-74013679D01*
X174288795Y-74033681D01*
G37*
%TD.AperFunction*%
%TA.AperFunction,Conductor*%
G36*
X179265896Y-71608453D02*
G01*
X179310656Y-71637300D01*
X179403460Y-71730104D01*
X179407968Y-71733261D01*
X179407971Y-71733263D01*
X179471790Y-71777950D01*
X179558188Y-71838446D01*
X179586211Y-71851513D01*
X179724396Y-71915950D01*
X179724402Y-71915952D01*
X179729379Y-71918273D01*
X179734687Y-71919695D01*
X179734689Y-71919696D01*
X179770211Y-71929214D01*
X179911831Y-71967161D01*
X180024736Y-71977039D01*
X180030837Y-71977960D01*
X180033851Y-71979018D01*
X180039416Y-71979500D01*
X180047367Y-71979500D01*
X180058348Y-71979980D01*
X180066321Y-71980677D01*
X180087047Y-71982491D01*
X180088587Y-71982680D01*
X180089209Y-71982680D01*
X180091438Y-71982875D01*
X180100000Y-71984231D01*
X180120078Y-71981051D01*
X180139788Y-71979500D01*
X180860212Y-71979500D01*
X180879922Y-71981051D01*
X180900000Y-71984231D01*
X180909795Y-71982680D01*
X180909840Y-71982680D01*
X180918294Y-71981642D01*
X181070738Y-71968304D01*
X181216625Y-71929214D01*
X181230979Y-71925368D01*
X181230981Y-71925367D01*
X181236289Y-71923945D01*
X181248453Y-71918273D01*
X181386634Y-71853839D01*
X181386639Y-71853836D01*
X181391621Y-71851513D01*
X181484882Y-71786211D01*
X181527505Y-71756366D01*
X181527508Y-71756364D01*
X181532016Y-71753207D01*
X181539545Y-71745678D01*
X181601857Y-71711652D01*
X181672870Y-71716791D01*
X181757395Y-71748478D01*
X181772649Y-71752105D01*
X181823514Y-71757631D01*
X181830328Y-71758000D01*
X182018627Y-71758000D01*
X182086748Y-71778002D01*
X182133241Y-71831658D01*
X182143866Y-71870173D01*
X182150222Y-71927742D01*
X182151218Y-71936764D01*
X182153828Y-71943895D01*
X182153828Y-71943897D01*
X182190336Y-72043659D01*
X182205658Y-72085530D01*
X182207870Y-72088821D01*
X182220687Y-72157077D01*
X182193986Y-72222861D01*
X182135958Y-72263766D01*
X182095318Y-72270501D01*
X181970686Y-72270501D01*
X181967738Y-72270780D01*
X181967729Y-72270780D01*
X181946522Y-72272784D01*
X181946520Y-72272784D01*
X181938873Y-72273507D01*
X181809924Y-72318791D01*
X181699990Y-72399990D01*
X181618791Y-72509924D01*
X181573507Y-72638873D01*
X181570500Y-72670685D01*
X181570501Y-73329314D01*
X181570780Y-73332262D01*
X181570780Y-73332271D01*
X181572067Y-73345892D01*
X181573507Y-73361127D01*
X181618791Y-73490076D01*
X181674583Y-73565612D01*
X181689007Y-73585140D01*
X181713390Y-73651819D01*
X181697854Y-73721094D01*
X181689007Y-73734860D01*
X181651131Y-73786139D01*
X181594569Y-73829050D01*
X181523787Y-73834569D01*
X181490825Y-73822636D01*
X181458411Y-73805473D01*
X181304770Y-73766881D01*
X181297171Y-73766841D01*
X181297170Y-73766841D01*
X181257770Y-73766635D01*
X181226109Y-73766469D01*
X181158094Y-73746111D01*
X181111883Y-73692212D01*
X181102147Y-73621886D01*
X181125418Y-73565612D01*
X181175611Y-73497655D01*
X181175613Y-73497652D01*
X181181209Y-73490076D01*
X181226493Y-73361127D01*
X181229500Y-73329315D01*
X181229499Y-72670686D01*
X181226493Y-72638873D01*
X181181209Y-72509924D01*
X181100010Y-72399990D01*
X180990076Y-72318791D01*
X180861127Y-72273507D01*
X180853485Y-72272785D01*
X180853482Y-72272784D01*
X180838579Y-72271376D01*
X180829315Y-72270500D01*
X180575172Y-72270500D01*
X180320686Y-72270501D01*
X180317738Y-72270780D01*
X180317729Y-72270780D01*
X180296522Y-72272784D01*
X180296520Y-72272784D01*
X180288873Y-72273507D01*
X180159924Y-72318791D01*
X180049990Y-72399990D01*
X179968791Y-72509924D01*
X179923507Y-72638873D01*
X179920500Y-72670685D01*
X179920500Y-72689423D01*
X179900498Y-72757544D01*
X179850230Y-72802428D01*
X179810235Y-72822152D01*
X179643883Y-72933310D01*
X179640786Y-72936027D01*
X179640785Y-72936027D01*
X179614419Y-72959151D01*
X179550016Y-72989030D01*
X179479682Y-72979347D01*
X179425750Y-72933176D01*
X179406011Y-72877424D01*
X179403238Y-72850693D01*
X179403237Y-72850690D01*
X179402526Y-72843834D01*
X179395293Y-72822152D01*
X179348868Y-72683002D01*
X179346550Y-72676054D01*
X179253478Y-72525652D01*
X179128303Y-72400695D01*
X179122072Y-72396854D01*
X178983968Y-72311725D01*
X178983966Y-72311724D01*
X178977738Y-72307885D01*
X178844723Y-72263766D01*
X178824680Y-72257118D01*
X178766320Y-72216687D01*
X178739083Y-72151123D01*
X178751616Y-72081242D01*
X178799941Y-72029230D01*
X178822599Y-72018642D01*
X178859302Y-72005753D01*
X178859301Y-72005753D01*
X178868184Y-72002634D01*
X178875754Y-71997042D01*
X178875757Y-71997041D01*
X178969579Y-71927742D01*
X178977150Y-71922150D01*
X179029324Y-71851513D01*
X179052041Y-71820757D01*
X179052042Y-71820754D01*
X179057634Y-71813184D01*
X179102519Y-71685369D01*
X179105572Y-71686441D01*
X179132694Y-71637072D01*
X179195093Y-71603206D01*
X179265896Y-71608453D01*
G37*
%TD.AperFunction*%
%TA.AperFunction,Conductor*%
G36*
X183714124Y-69768817D02*
G01*
X183744084Y-69833183D01*
X183745500Y-69852018D01*
X183745500Y-73312453D01*
X183725498Y-73380574D01*
X183671842Y-73427067D01*
X183601568Y-73437171D01*
X183560545Y-73423809D01*
X183486274Y-73384484D01*
X183332633Y-73345892D01*
X183325034Y-73345852D01*
X183325033Y-73345852D01*
X183259181Y-73345507D01*
X183174221Y-73345062D01*
X183166841Y-73346834D01*
X183166839Y-73346834D01*
X183139149Y-73353482D01*
X183034913Y-73378507D01*
X182964006Y-73374960D01*
X182906272Y-73333640D01*
X182880042Y-73267667D01*
X182879500Y-73255988D01*
X182879499Y-72804672D01*
X182895430Y-72745224D01*
X182894816Y-72744921D01*
X182896340Y-72741832D01*
X182896341Y-72741829D01*
X182922186Y-72689423D01*
X183003923Y-72523680D01*
X183003924Y-72523678D01*
X183005749Y-72519977D01*
X183007073Y-72516076D01*
X183007077Y-72516067D01*
X183033394Y-72438540D01*
X183074232Y-72380464D01*
X183096094Y-72366477D01*
X183151174Y-72338775D01*
X183157960Y-72335362D01*
X183163731Y-72330433D01*
X183163734Y-72330431D01*
X183272641Y-72237415D01*
X183272641Y-72237414D01*
X183278419Y-72232480D01*
X183370860Y-72103835D01*
X183429947Y-71956852D01*
X183442283Y-71870173D01*
X183451686Y-71804102D01*
X183451686Y-71804099D01*
X183452267Y-71800018D01*
X183452412Y-71786211D01*
X183433381Y-71628944D01*
X183377385Y-71480757D01*
X183308416Y-71380406D01*
X183291960Y-71356462D01*
X183291959Y-71356460D01*
X183287658Y-71350203D01*
X183169380Y-71244822D01*
X183161994Y-71240911D01*
X183036093Y-71174250D01*
X183036094Y-71174250D01*
X183029379Y-71170695D01*
X182875738Y-71132103D01*
X182868139Y-71132063D01*
X182868138Y-71132063D01*
X182802286Y-71131718D01*
X182717326Y-71131273D01*
X182709946Y-71133045D01*
X182709944Y-71133045D01*
X182570668Y-71166482D01*
X182570665Y-71166483D01*
X182563289Y-71168254D01*
X182432100Y-71235966D01*
X182374310Y-71250000D01*
X182126000Y-71250000D01*
X182057879Y-71229998D01*
X182011386Y-71176342D01*
X182000000Y-71124000D01*
X182000000Y-70980500D01*
X182020002Y-70912379D01*
X182073658Y-70865886D01*
X182126000Y-70854500D01*
X182530593Y-70854499D01*
X182550066Y-70854499D01*
X182560513Y-70852421D01*
X182585093Y-70850000D01*
X183014884Y-70850000D01*
X183030123Y-70845525D01*
X183031328Y-70844135D01*
X183032999Y-70836452D01*
X183032999Y-70805331D01*
X183032629Y-70798510D01*
X183027105Y-70747648D01*
X183023479Y-70732396D01*
X182978324Y-70611946D01*
X182969786Y-70596351D01*
X182893285Y-70494276D01*
X182880728Y-70481719D01*
X182829935Y-70443652D01*
X182787420Y-70386792D01*
X182779500Y-70342826D01*
X182779499Y-70232678D01*
X182799500Y-70164557D01*
X182853156Y-70118064D01*
X182876081Y-70110159D01*
X183031111Y-70072940D01*
X183035684Y-70071046D01*
X183205333Y-70000775D01*
X183205337Y-70000773D01*
X183209907Y-69998880D01*
X183374917Y-69897762D01*
X183522076Y-69772076D01*
X183525284Y-69768320D01*
X183528792Y-69764812D01*
X183530031Y-69766051D01*
X183583126Y-69731382D01*
X183654121Y-69730868D01*
X183714124Y-69768817D01*
G37*
%TD.AperFunction*%
%TA.AperFunction,Conductor*%
G36*
X179457650Y-69199502D02*
G01*
X179504143Y-69253158D01*
X179514247Y-69323432D01*
X179507511Y-69349729D01*
X179476522Y-69432391D01*
X179472895Y-69447649D01*
X179467369Y-69498514D01*
X179467000Y-69505328D01*
X179467000Y-69531885D01*
X179471475Y-69547124D01*
X179472865Y-69548329D01*
X179480548Y-69550000D01*
X180374000Y-69550000D01*
X180442121Y-69570002D01*
X180488614Y-69623658D01*
X180500000Y-69676000D01*
X180500000Y-69819500D01*
X180479998Y-69887621D01*
X180426342Y-69934114D01*
X180374000Y-69945500D01*
X179968946Y-69945501D01*
X179949934Y-69945501D01*
X179940193Y-69947439D01*
X179939486Y-69947579D01*
X179914907Y-69950000D01*
X179485116Y-69950000D01*
X179469876Y-69954475D01*
X179451816Y-69975317D01*
X179392090Y-70013701D01*
X179374850Y-70016875D01*
X179369813Y-70016439D01*
X179359705Y-70018950D01*
X179349322Y-70019767D01*
X179349272Y-70019127D01*
X179338048Y-70020500D01*
X179273000Y-70020500D01*
X179204879Y-70000498D01*
X179158386Y-69946842D01*
X179147000Y-69894500D01*
X179147000Y-69305500D01*
X179167002Y-69237379D01*
X179220658Y-69190886D01*
X179273000Y-69179500D01*
X179389529Y-69179500D01*
X179457650Y-69199502D01*
G37*
%TD.AperFunction*%
%TA.AperFunction,Conductor*%
G36*
X179939276Y-65479575D02*
G01*
X180003465Y-65487360D01*
X180058136Y-65532655D01*
X180071996Y-65559802D01*
X180092551Y-65615971D01*
X180100254Y-65637020D01*
X180104490Y-65643323D01*
X180104490Y-65643324D01*
X180173943Y-65746680D01*
X180188609Y-65768506D01*
X180194228Y-65773619D01*
X180194229Y-65773620D01*
X180297661Y-65867735D01*
X180305777Y-65875120D01*
X180444994Y-65950709D01*
X180450489Y-65952151D01*
X180505819Y-65995325D01*
X180529294Y-66062328D01*
X180512817Y-66131387D01*
X180501911Y-66146763D01*
X180500000Y-66155548D01*
X180500000Y-66631885D01*
X180504475Y-66647124D01*
X180505865Y-66648329D01*
X180513548Y-66650000D01*
X181114884Y-66650000D01*
X181130123Y-66645525D01*
X181131328Y-66644135D01*
X181132999Y-66636452D01*
X181132999Y-66605331D01*
X181132629Y-66598510D01*
X181127105Y-66547648D01*
X181123479Y-66532396D01*
X181078324Y-66411946D01*
X181069786Y-66396351D01*
X180993285Y-66294276D01*
X180980724Y-66281715D01*
X180880132Y-66206326D01*
X180837617Y-66149467D01*
X180832591Y-66078649D01*
X180866651Y-66016355D01*
X180928982Y-65982365D01*
X180955697Y-65979500D01*
X181636594Y-65979500D01*
X181656298Y-65981050D01*
X181666597Y-65982681D01*
X181666601Y-65982681D01*
X181676390Y-65984231D01*
X181683798Y-65983057D01*
X181704549Y-65985100D01*
X181726090Y-65989384D01*
X181771512Y-66008197D01*
X181792807Y-66022425D01*
X181827575Y-66057193D01*
X181841803Y-66078488D01*
X181860616Y-66123910D01*
X181864900Y-66145451D01*
X181866943Y-66166202D01*
X181865769Y-66173610D01*
X181867319Y-66183399D01*
X181867319Y-66183403D01*
X181868950Y-66193702D01*
X181870500Y-66213406D01*
X181870500Y-66289429D01*
X181850498Y-66357550D01*
X181792716Y-66405839D01*
X181787874Y-66407844D01*
X181775699Y-66410266D01*
X181765379Y-66417161D01*
X181765378Y-66417162D01*
X181763560Y-66418377D01*
X181691516Y-66466516D01*
X181635266Y-66550699D01*
X181620500Y-66624933D01*
X181620501Y-67075066D01*
X181621235Y-67078754D01*
X181608164Y-67147678D01*
X181578461Y-67184983D01*
X181578680Y-67185222D01*
X181577164Y-67186612D01*
X181577074Y-67186725D01*
X181574591Y-67188813D01*
X181572664Y-67190740D01*
X181570736Y-67192509D01*
X181570651Y-67192555D01*
X181570539Y-67192432D01*
X181570004Y-67192904D01*
X181564284Y-67195990D01*
X181557217Y-67203635D01*
X181527682Y-67235586D01*
X181524252Y-67239152D01*
X181505308Y-67258096D01*
X181442996Y-67292122D01*
X181416213Y-67295001D01*
X181252038Y-67295001D01*
X181183917Y-67274999D01*
X181137424Y-67221343D01*
X181126775Y-67155394D01*
X181132631Y-67101488D01*
X181133000Y-67094672D01*
X181133000Y-67068115D01*
X181128525Y-67052876D01*
X181127135Y-67051671D01*
X181119452Y-67050000D01*
X180685100Y-67050000D01*
X180660519Y-67047579D01*
X180656135Y-67046707D01*
X180650067Y-67045500D01*
X180634720Y-67045500D01*
X180225999Y-67045501D01*
X180157880Y-67025499D01*
X180111386Y-66971844D01*
X180100000Y-66919501D01*
X180100000Y-66160116D01*
X180095525Y-66144877D01*
X180094135Y-66143672D01*
X180086452Y-66142001D01*
X179930331Y-66142001D01*
X179923510Y-66142371D01*
X179872648Y-66147895D01*
X179857396Y-66151521D01*
X179736946Y-66196676D01*
X179721351Y-66205214D01*
X179619276Y-66281715D01*
X179606716Y-66294275D01*
X179599912Y-66303353D01*
X179543051Y-66345867D01*
X179472233Y-66350891D01*
X179409940Y-66316830D01*
X179401696Y-66307728D01*
X179374910Y-66275090D01*
X179240989Y-66165184D01*
X179197617Y-66142001D01*
X179093657Y-66086433D01*
X179093654Y-66086432D01*
X179088199Y-66083516D01*
X178922412Y-66033225D01*
X178761628Y-66017389D01*
X178761090Y-66017320D01*
X178760925Y-66017320D01*
X178757930Y-66017025D01*
X178750000Y-66015769D01*
X178740204Y-66017321D01*
X178734111Y-66017321D01*
X178717660Y-66016243D01*
X178670552Y-66010041D01*
X178638783Y-66001528D01*
X178580076Y-65977210D01*
X178551593Y-65960765D01*
X178501178Y-65922080D01*
X178477920Y-65898822D01*
X178439235Y-65848407D01*
X178422791Y-65819927D01*
X178398471Y-65761214D01*
X178389959Y-65729447D01*
X178383757Y-65682341D01*
X178382679Y-65665890D01*
X178382679Y-65659796D01*
X178384231Y-65650000D01*
X178382211Y-65637243D01*
X178381051Y-65629923D01*
X178379500Y-65610212D01*
X178379500Y-65605500D01*
X178399502Y-65537379D01*
X178453158Y-65490886D01*
X178505500Y-65479500D01*
X179843408Y-65479500D01*
X179867356Y-65482049D01*
X179869021Y-65482128D01*
X179879204Y-65484320D01*
X179889545Y-65483096D01*
X179912551Y-65480373D01*
X179918482Y-65480023D01*
X179918474Y-65479928D01*
X179923653Y-65479500D01*
X179928852Y-65479500D01*
X179933979Y-65478647D01*
X179939164Y-65478218D01*
X179939276Y-65479575D01*
G37*
%TD.AperFunction*%
%TA.AperFunction,Conductor*%
G36*
X174285378Y-64235414D02*
G01*
X174290367Y-64237166D01*
X174295932Y-64237648D01*
X174298640Y-64237648D01*
X174301251Y-64237761D01*
X174301372Y-64237797D01*
X174301365Y-64237955D01*
X174302043Y-64237998D01*
X174308254Y-64239856D01*
X174362125Y-64237745D01*
X174367060Y-64237648D01*
X174592138Y-64237648D01*
X174660259Y-64257650D01*
X174706752Y-64311306D01*
X174716856Y-64381580D01*
X174687362Y-64446160D01*
X174675222Y-64458374D01*
X174616255Y-64510085D01*
X174610247Y-64514621D01*
X174608844Y-64515295D01*
X174604569Y-64518889D01*
X174595746Y-64527712D01*
X174589733Y-64533345D01*
X174582154Y-64539991D01*
X174579034Y-64542727D01*
X174570028Y-64549923D01*
X174566407Y-64552554D01*
X174566405Y-64552556D01*
X174558384Y-64558384D01*
X174552557Y-64566404D01*
X174552555Y-64566406D01*
X174546436Y-64574829D01*
X174533595Y-64589863D01*
X174404571Y-64718887D01*
X174332107Y-64791350D01*
X174317075Y-64804190D01*
X174300627Y-64816139D01*
X174294799Y-64824161D01*
X174290486Y-64828473D01*
X174278095Y-64839339D01*
X174240659Y-64868063D01*
X174212171Y-64884509D01*
X174197664Y-64890517D01*
X174153767Y-64908697D01*
X174121998Y-64917208D01*
X174119096Y-64917590D01*
X174074986Y-64923395D01*
X174058544Y-64924471D01*
X174052673Y-64924471D01*
X174042876Y-64922918D01*
X174033079Y-64924469D01*
X174022782Y-64926099D01*
X174003080Y-64927649D01*
X173851463Y-64927649D01*
X173824945Y-64924827D01*
X173819282Y-64923608D01*
X173811805Y-64920982D01*
X173806240Y-64920500D01*
X173803532Y-64920500D01*
X173800898Y-64920386D01*
X173800800Y-64920357D01*
X173800807Y-64920193D01*
X173800103Y-64920149D01*
X173793878Y-64918287D01*
X173740021Y-64920403D01*
X173735074Y-64920500D01*
X173156287Y-64920500D01*
X173088166Y-64900498D01*
X173041673Y-64846842D01*
X173031569Y-64776568D01*
X173061063Y-64711988D01*
X173099673Y-64681935D01*
X173158071Y-64652564D01*
X173164855Y-64649152D01*
X173170626Y-64644223D01*
X173170629Y-64644221D01*
X173279536Y-64551205D01*
X173279536Y-64551204D01*
X173285314Y-64546270D01*
X173377755Y-64417625D01*
X173380589Y-64410576D01*
X173380592Y-64410570D01*
X173418346Y-64316652D01*
X173462312Y-64260907D01*
X173535253Y-64237648D01*
X173692949Y-64237648D01*
X173716897Y-64240197D01*
X173718562Y-64240276D01*
X173728745Y-64242468D01*
X173739086Y-64241244D01*
X173762092Y-64238521D01*
X173768023Y-64238171D01*
X173768015Y-64238076D01*
X173773195Y-64237648D01*
X173778393Y-64237648D01*
X173783515Y-64236795D01*
X173783520Y-64236795D01*
X173796511Y-64234632D01*
X173817201Y-64232922D01*
X174261966Y-64232922D01*
X174285378Y-64235414D01*
G37*
%TD.AperFunction*%
%TA.AperFunction,Conductor*%
G36*
X175121734Y-61678737D02*
G01*
X175153020Y-61730302D01*
X175162717Y-61761246D01*
X175168921Y-61774988D01*
X175249824Y-61908574D01*
X175259131Y-61920443D01*
X175369551Y-62030863D01*
X175379981Y-62039041D01*
X175421246Y-62096814D01*
X175427157Y-62154640D01*
X175407837Y-62301390D01*
X175425221Y-62458847D01*
X175427831Y-62465978D01*
X175427831Y-62465980D01*
X175465828Y-62569811D01*
X175479661Y-62607613D01*
X175568016Y-62739099D01*
X175573635Y-62744212D01*
X175573636Y-62744213D01*
X175649241Y-62813008D01*
X175685184Y-62845713D01*
X175824401Y-62921302D01*
X175977630Y-62961501D01*
X176065124Y-62962875D01*
X176128429Y-62963870D01*
X176128431Y-62963870D01*
X176136024Y-62963989D01*
X176140072Y-62963062D01*
X176208467Y-62975572D01*
X176260312Y-63024076D01*
X176277703Y-63092909D01*
X176255120Y-63160218D01*
X176240890Y-63177203D01*
X176161317Y-63256776D01*
X176142224Y-63272446D01*
X176139648Y-63274167D01*
X176139646Y-63274169D01*
X176130988Y-63279954D01*
X176110626Y-63306634D01*
X176107198Y-63310895D01*
X176103725Y-63314368D01*
X176090166Y-63333341D01*
X176087865Y-63336458D01*
X176054338Y-63380387D01*
X176052160Y-63385530D01*
X176051567Y-63387354D01*
X176048849Y-63391158D01*
X176045930Y-63400919D01*
X176045639Y-63401595D01*
X176042466Y-63408073D01*
X175994538Y-63460451D01*
X175929311Y-63478648D01*
X174446341Y-63478648D01*
X174422929Y-63476156D01*
X174417940Y-63474404D01*
X174412375Y-63473922D01*
X174409667Y-63473922D01*
X174407056Y-63473809D01*
X174406935Y-63473773D01*
X174406942Y-63473615D01*
X174406264Y-63473572D01*
X174400053Y-63471714D01*
X174351252Y-63473626D01*
X174346181Y-63473825D01*
X174341247Y-63473922D01*
X173805520Y-63473922D01*
X173781562Y-63471372D01*
X173779903Y-63471294D01*
X173769719Y-63469101D01*
X173759377Y-63470325D01*
X173759374Y-63470325D01*
X173736374Y-63473048D01*
X173730443Y-63473398D01*
X173730451Y-63473494D01*
X173725275Y-63473922D01*
X173720071Y-63473922D01*
X173708850Y-63475790D01*
X173701948Y-63476938D01*
X173681263Y-63478648D01*
X173566092Y-63478648D01*
X173497971Y-63458646D01*
X173451478Y-63404990D01*
X173441374Y-63334716D01*
X173470868Y-63270136D01*
X173500821Y-63244872D01*
X173508571Y-63240178D01*
X173520443Y-63230869D01*
X173630869Y-63120443D01*
X173640176Y-63108574D01*
X173721079Y-62974988D01*
X173727285Y-62961243D01*
X173744142Y-62907451D01*
X173783599Y-62848429D01*
X173848703Y-62820109D01*
X173896348Y-62823254D01*
X174010522Y-62853207D01*
X174094477Y-62854526D01*
X174161319Y-62855576D01*
X174161322Y-62855576D01*
X174168916Y-62855695D01*
X174323332Y-62820329D01*
X174426644Y-62768369D01*
X174458072Y-62752563D01*
X174458075Y-62752561D01*
X174464855Y-62749151D01*
X174470626Y-62744222D01*
X174470629Y-62744220D01*
X174579536Y-62651204D01*
X174579536Y-62651203D01*
X174585314Y-62646269D01*
X174677755Y-62517624D01*
X174736842Y-62370641D01*
X174759162Y-62213807D01*
X174759307Y-62200000D01*
X174740276Y-62042733D01*
X174684280Y-61894546D01*
X174661412Y-61861272D01*
X174657352Y-61855365D01*
X174635253Y-61787895D01*
X174653139Y-61719189D01*
X174705331Y-61671059D01*
X174761193Y-61657999D01*
X174919669Y-61657999D01*
X174926490Y-61657629D01*
X174977352Y-61652105D01*
X175000293Y-61646651D01*
X175000874Y-61649095D01*
X175059366Y-61644815D01*
X175121734Y-61678737D01*
G37*
%TD.AperFunction*%
%TA.AperFunction,Conductor*%
G36*
X176251578Y-56799639D02*
G01*
X176276194Y-56820737D01*
X176276533Y-56820389D01*
X176421938Y-56962035D01*
X176590720Y-57074812D01*
X176596023Y-57077090D01*
X176596026Y-57077092D01*
X176771921Y-57152662D01*
X176777228Y-57154942D01*
X176809887Y-57162332D01*
X176846743Y-57170672D01*
X176908770Y-57205215D01*
X176942274Y-57267809D01*
X176936620Y-57338580D01*
X176893601Y-57395059D01*
X176848349Y-57416083D01*
X176758851Y-57437568D01*
X176706115Y-57450228D01*
X176706112Y-57450229D01*
X176701305Y-57451383D01*
X176696738Y-57453275D01*
X176696734Y-57453276D01*
X176530794Y-57522009D01*
X176530790Y-57522011D01*
X176526215Y-57523906D01*
X176521995Y-57526492D01*
X176521989Y-57526495D01*
X176423360Y-57586934D01*
X176364626Y-57622926D01*
X176360868Y-57626135D01*
X176360866Y-57626137D01*
X176228794Y-57738936D01*
X176220517Y-57746005D01*
X176159780Y-57817118D01*
X176100329Y-57855926D01*
X176093197Y-57857782D01*
X176086957Y-57858438D01*
X176004688Y-57886444D01*
X175933387Y-57910717D01*
X175933384Y-57910718D01*
X175926717Y-57912988D01*
X175920719Y-57916678D01*
X175920717Y-57916679D01*
X175788543Y-57997993D01*
X175788541Y-57997995D01*
X175782544Y-58001684D01*
X175661605Y-58120117D01*
X175657794Y-58126031D01*
X175657792Y-58126033D01*
X175612246Y-58196707D01*
X175569909Y-58262400D01*
X175566441Y-58271929D01*
X175514425Y-58414840D01*
X175514424Y-58414845D01*
X175512015Y-58421463D01*
X175490800Y-58589399D01*
X175507318Y-58757862D01*
X175560748Y-58918479D01*
X175564397Y-58924504D01*
X175637049Y-59044466D01*
X175648435Y-59063267D01*
X175653326Y-59068332D01*
X175653327Y-59068333D01*
X175701902Y-59118634D01*
X175766021Y-59185031D01*
X175907660Y-59277717D01*
X176066315Y-59336720D01*
X176073296Y-59337651D01*
X176073298Y-59337652D01*
X176227118Y-59358176D01*
X176227122Y-59358176D01*
X176234099Y-59359107D01*
X176241110Y-59358469D01*
X176241114Y-59358469D01*
X176395652Y-59344405D01*
X176402673Y-59343766D01*
X176563659Y-59291458D01*
X176709056Y-59204784D01*
X176798712Y-59119406D01*
X176861836Y-59086915D01*
X176932507Y-59093708D01*
X176976240Y-59123126D01*
X177036021Y-59185031D01*
X177177660Y-59277717D01*
X177336315Y-59336720D01*
X177343296Y-59337651D01*
X177343298Y-59337652D01*
X177497118Y-59358176D01*
X177497122Y-59358176D01*
X177504099Y-59359107D01*
X177511110Y-59358469D01*
X177511114Y-59358469D01*
X177665652Y-59344405D01*
X177672673Y-59343766D01*
X177762239Y-59314664D01*
X177806019Y-59300439D01*
X177876986Y-59298411D01*
X177937784Y-59335074D01*
X177969110Y-59398786D01*
X177961017Y-59469320D01*
X177917227Y-59523484D01*
X177859276Y-59564061D01*
X177840263Y-59575038D01*
X177683225Y-59648267D01*
X177662585Y-59655779D01*
X177495218Y-59700625D01*
X177473597Y-59704437D01*
X177324649Y-59717469D01*
X177309711Y-59716946D01*
X177309711Y-59717321D01*
X177299795Y-59717321D01*
X177290000Y-59715769D01*
X177280207Y-59717320D01*
X177280206Y-59717320D01*
X177269923Y-59718949D01*
X177250212Y-59720500D01*
X172664788Y-59720500D01*
X172645077Y-59718949D01*
X172634794Y-59717320D01*
X172634793Y-59717320D01*
X172625000Y-59715769D01*
X172614036Y-59717506D01*
X172605333Y-59718575D01*
X172458620Y-59731410D01*
X172351997Y-59759980D01*
X172302605Y-59773214D01*
X172302603Y-59773215D01*
X172297295Y-59774637D01*
X172292314Y-59776959D01*
X172292313Y-59776960D01*
X172150914Y-59842895D01*
X172150909Y-59842898D01*
X172145927Y-59845221D01*
X172012470Y-59938670D01*
X172012469Y-59938670D01*
X172009116Y-59941018D01*
X172008644Y-59940344D01*
X171947832Y-59966967D01*
X171877726Y-59955758D01*
X171842772Y-59931078D01*
X171540927Y-59629233D01*
X171506901Y-59566921D01*
X171504936Y-59555282D01*
X171503768Y-59545630D01*
X171515444Y-59475601D01*
X171563128Y-59423001D01*
X171628856Y-59404499D01*
X171650066Y-59404499D01*
X171691827Y-59396193D01*
X171712126Y-59392156D01*
X171712128Y-59392155D01*
X171724301Y-59389734D01*
X171734621Y-59382839D01*
X171734622Y-59382838D01*
X171798168Y-59340377D01*
X171808484Y-59333484D01*
X171864734Y-59249301D01*
X171865063Y-59249521D01*
X171903353Y-59202003D01*
X171975216Y-59179500D01*
X173424784Y-59179500D01*
X173492905Y-59199502D01*
X173534788Y-59249620D01*
X173535266Y-59249301D01*
X173591516Y-59333484D01*
X173675699Y-59389734D01*
X173749933Y-59404500D01*
X173999959Y-59404500D01*
X174250066Y-59404499D01*
X174291827Y-59396193D01*
X174312126Y-59392156D01*
X174312128Y-59392155D01*
X174324301Y-59389734D01*
X174334621Y-59382839D01*
X174334622Y-59382838D01*
X174398168Y-59340377D01*
X174408484Y-59333484D01*
X174464734Y-59249301D01*
X174479500Y-59175067D01*
X174479499Y-58469414D01*
X174494373Y-58410026D01*
X174496438Y-58406162D01*
X174510158Y-58385626D01*
X174570910Y-58311600D01*
X174581676Y-58301453D01*
X174581212Y-58300989D01*
X174588228Y-58293973D01*
X174596247Y-58288147D01*
X174608196Y-58271701D01*
X174621036Y-58256668D01*
X175859680Y-57018024D01*
X175874710Y-57005186D01*
X175891160Y-56993235D01*
X175896989Y-56985212D01*
X175901457Y-56980744D01*
X175914321Y-56966644D01*
X176052978Y-56845048D01*
X176066052Y-56835016D01*
X176115358Y-56802071D01*
X176183111Y-56780856D01*
X176251578Y-56799639D01*
G37*
%TD.AperFunction*%
%TA.AperFunction,Conductor*%
G36*
X171108346Y-55274502D02*
G01*
X171154839Y-55328158D01*
X171164943Y-55398432D01*
X171139174Y-55458506D01*
X171113301Y-55491325D01*
X171113295Y-55491334D01*
X171109720Y-55495869D01*
X171107031Y-55500980D01*
X171107029Y-55500983D01*
X171094073Y-55525609D01*
X171015203Y-55675515D01*
X170955007Y-55869378D01*
X170931148Y-56070964D01*
X170944424Y-56273522D01*
X170945845Y-56279118D01*
X170945846Y-56279123D01*
X170966119Y-56358945D01*
X170994392Y-56470269D01*
X170996809Y-56475512D01*
X171034010Y-56556208D01*
X171079377Y-56654616D01*
X171196533Y-56820389D01*
X171341938Y-56962035D01*
X171510720Y-57074812D01*
X171516023Y-57077090D01*
X171516026Y-57077092D01*
X171691921Y-57152662D01*
X171697228Y-57154942D01*
X171766745Y-57170672D01*
X171889579Y-57198467D01*
X171889584Y-57198468D01*
X171895216Y-57199742D01*
X171900987Y-57199969D01*
X171900989Y-57199969D01*
X171960756Y-57202317D01*
X172098053Y-57207712D01*
X172198499Y-57193148D01*
X172293231Y-57179413D01*
X172293236Y-57179412D01*
X172298945Y-57178584D01*
X172304409Y-57176729D01*
X172304414Y-57176728D01*
X172485693Y-57115192D01*
X172485698Y-57115190D01*
X172491165Y-57113334D01*
X172668276Y-57014147D01*
X172679056Y-57005182D01*
X172819913Y-56888031D01*
X172824345Y-56884345D01*
X172894795Y-56799639D01*
X172950453Y-56732718D01*
X172950455Y-56732715D01*
X172954147Y-56728276D01*
X173053334Y-56551165D01*
X173055190Y-56545698D01*
X173055192Y-56545693D01*
X173116728Y-56364414D01*
X173116729Y-56364409D01*
X173118584Y-56358945D01*
X173119412Y-56353236D01*
X173119413Y-56353231D01*
X173136991Y-56231996D01*
X173147712Y-56158053D01*
X173149232Y-56100000D01*
X173130658Y-55897859D01*
X173129090Y-55892299D01*
X173077125Y-55708046D01*
X173077124Y-55708044D01*
X173075557Y-55702487D01*
X173064978Y-55681033D01*
X172988331Y-55525609D01*
X172985776Y-55520428D01*
X172937582Y-55455888D01*
X172912850Y-55389340D01*
X172928024Y-55319984D01*
X172978286Y-55269841D01*
X173038540Y-55254500D01*
X173580225Y-55254500D01*
X173648346Y-55274502D01*
X173694839Y-55328158D01*
X173704943Y-55398432D01*
X173679174Y-55458506D01*
X173653301Y-55491325D01*
X173653295Y-55491334D01*
X173649720Y-55495869D01*
X173647031Y-55500980D01*
X173647029Y-55500983D01*
X173634073Y-55525609D01*
X173555203Y-55675515D01*
X173495007Y-55869378D01*
X173471148Y-56070964D01*
X173484424Y-56273522D01*
X173485845Y-56279118D01*
X173485846Y-56279123D01*
X173506119Y-56358945D01*
X173534392Y-56470269D01*
X173536809Y-56475512D01*
X173574010Y-56556208D01*
X173619377Y-56654616D01*
X173736533Y-56820389D01*
X173881938Y-56962035D01*
X174050720Y-57074812D01*
X174056023Y-57077090D01*
X174056026Y-57077092D01*
X174231921Y-57152662D01*
X174237228Y-57154942D01*
X174306745Y-57170672D01*
X174350474Y-57180567D01*
X174412501Y-57215110D01*
X174446005Y-57277703D01*
X174440351Y-57348474D01*
X174411761Y-57392555D01*
X174084342Y-57719974D01*
X174069309Y-57732814D01*
X174052863Y-57744763D01*
X174046389Y-57753673D01*
X174039196Y-57762675D01*
X173928100Y-57889354D01*
X173928089Y-57889368D01*
X173925375Y-57892463D01*
X173923086Y-57895889D01*
X173923082Y-57895894D01*
X173843434Y-58015097D01*
X173817036Y-58054604D01*
X173774778Y-58140296D01*
X173726710Y-58192545D01*
X173698201Y-58203567D01*
X173687873Y-58207845D01*
X173675699Y-58210266D01*
X173665379Y-58217161D01*
X173665378Y-58217162D01*
X173606542Y-58256476D01*
X173591516Y-58266516D01*
X173535266Y-58350699D01*
X173534937Y-58350479D01*
X173496647Y-58397997D01*
X173424784Y-58420500D01*
X171975216Y-58420500D01*
X171907095Y-58400498D01*
X171865212Y-58350380D01*
X171864734Y-58350699D01*
X171861765Y-58346256D01*
X171808484Y-58266516D01*
X171724301Y-58210266D01*
X171650067Y-58195500D01*
X171400041Y-58195500D01*
X171149934Y-58195501D01*
X171114182Y-58202612D01*
X171087874Y-58207844D01*
X171087872Y-58207845D01*
X171075699Y-58210266D01*
X171065379Y-58217161D01*
X171065378Y-58217162D01*
X171006542Y-58256476D01*
X170991516Y-58266516D01*
X170935266Y-58350699D01*
X170920500Y-58424933D01*
X170920500Y-58431120D01*
X170920501Y-58878066D01*
X170900499Y-58946187D01*
X170846844Y-58992680D01*
X170793841Y-59004064D01*
X170793667Y-59004063D01*
X170782394Y-59004004D01*
X170775014Y-59005776D01*
X170775012Y-59005776D01*
X170635736Y-59039213D01*
X170635733Y-59039214D01*
X170628357Y-59040985D01*
X170487587Y-59113642D01*
X170481870Y-59118629D01*
X170481863Y-59118634D01*
X170463330Y-59134802D01*
X170398848Y-59164511D01*
X170328541Y-59154642D01*
X170274730Y-59108328D01*
X170254500Y-59039854D01*
X170254500Y-56037476D01*
X170256921Y-56012894D01*
X170257065Y-56012170D01*
X170259486Y-56000000D01*
X170257065Y-55987830D01*
X170257065Y-55980144D01*
X170257672Y-55967793D01*
X170267609Y-55866908D01*
X170272425Y-55842691D01*
X170307649Y-55726574D01*
X170317093Y-55703774D01*
X170374292Y-55596761D01*
X170388011Y-55576230D01*
X170464981Y-55482444D01*
X170482444Y-55464981D01*
X170576230Y-55388011D01*
X170596761Y-55374292D01*
X170703774Y-55317093D01*
X170726574Y-55307649D01*
X170842691Y-55272425D01*
X170866908Y-55267609D01*
X170967793Y-55257672D01*
X170980144Y-55257065D01*
X170987830Y-55257065D01*
X171000000Y-55259486D01*
X171012897Y-55256921D01*
X171037476Y-55254500D01*
X171040225Y-55254500D01*
X171108346Y-55274502D01*
G37*
%TD.AperFunction*%
%TA.AperFunction,Conductor*%
G36*
X178728346Y-55274502D02*
G01*
X178774839Y-55328158D01*
X178784943Y-55398432D01*
X178759174Y-55458506D01*
X178733301Y-55491325D01*
X178733295Y-55491334D01*
X178729720Y-55495869D01*
X178727031Y-55500980D01*
X178727029Y-55500983D01*
X178714073Y-55525609D01*
X178635203Y-55675515D01*
X178575007Y-55869378D01*
X178551148Y-56070964D01*
X178564424Y-56273522D01*
X178565845Y-56279118D01*
X178565846Y-56279123D01*
X178586119Y-56358945D01*
X178614392Y-56470269D01*
X178616809Y-56475512D01*
X178654010Y-56556208D01*
X178699377Y-56654616D01*
X178816533Y-56820389D01*
X178961938Y-56962035D01*
X179130720Y-57074812D01*
X179136023Y-57077090D01*
X179136026Y-57077092D01*
X179315550Y-57154221D01*
X179370243Y-57199489D01*
X179391780Y-57267140D01*
X179373323Y-57335696D01*
X179320732Y-57383390D01*
X179265812Y-57395989D01*
X177501660Y-57395989D01*
X177433539Y-57375987D01*
X177387046Y-57322331D01*
X177376942Y-57252057D01*
X177406436Y-57187477D01*
X177461159Y-57150676D01*
X177565693Y-57115192D01*
X177565698Y-57115190D01*
X177571165Y-57113334D01*
X177748276Y-57014147D01*
X177759056Y-57005182D01*
X177899913Y-56888031D01*
X177904345Y-56884345D01*
X177974795Y-56799639D01*
X178030453Y-56732718D01*
X178030455Y-56732715D01*
X178034147Y-56728276D01*
X178133334Y-56551165D01*
X178135190Y-56545698D01*
X178135192Y-56545693D01*
X178196728Y-56364414D01*
X178196729Y-56364409D01*
X178198584Y-56358945D01*
X178199412Y-56353236D01*
X178199413Y-56353231D01*
X178216991Y-56231996D01*
X178227712Y-56158053D01*
X178229232Y-56100000D01*
X178210658Y-55897859D01*
X178209090Y-55892299D01*
X178157125Y-55708046D01*
X178157124Y-55708044D01*
X178155557Y-55702487D01*
X178144978Y-55681033D01*
X178068331Y-55525609D01*
X178065776Y-55520428D01*
X178017582Y-55455888D01*
X177992850Y-55389340D01*
X178008024Y-55319984D01*
X178058286Y-55269841D01*
X178118540Y-55254500D01*
X178660225Y-55254500D01*
X178728346Y-55274502D01*
G37*
%TD.AperFunction*%
%TD*%
M02*
