%TF.GenerationSoftware,KiCad,Pcbnew,(6.0.10-0)*%
%TF.CreationDate,2023-01-07T14:54:37+00:00*%
%TF.ProjectId,Shelly,5368656c-6c79-42e6-9b69-6361645f7063,4*%
%TF.SameCoordinates,Original*%
%TF.FileFunction,Legend,Top*%
%TF.FilePolarity,Positive*%
%FSLAX46Y46*%
G04 Gerber Fmt 4.6, Leading zero omitted, Abs format (unit mm)*
G04 Created by KiCad (PCBNEW (6.0.10-0)) date 2023-01-07 14:54:37*
%MOMM*%
%LPD*%
G01*
G04 APERTURE LIST*
%ADD10C,0.120000*%
G04 APERTURE END LIST*
D10*
X183676190Y-64247619D02*
X183176190Y-64247619D01*
X183342857Y-64009523D02*
X183676190Y-64009523D01*
X183390476Y-64009523D02*
X183366666Y-63985714D01*
X183342857Y-63938095D01*
X183342857Y-63866666D01*
X183366666Y-63819047D01*
X183414285Y-63795238D01*
X183676190Y-63795238D01*
X183342857Y-63604761D02*
X183676190Y-63485714D01*
X183342857Y-63366666D01*
X183652380Y-62985714D02*
X183676190Y-63033333D01*
X183676190Y-63128571D01*
X183652380Y-63176190D01*
X183604761Y-63200000D01*
X183414285Y-63200000D01*
X183366666Y-63176190D01*
X183342857Y-63128571D01*
X183342857Y-63033333D01*
X183366666Y-62985714D01*
X183414285Y-62961904D01*
X183461904Y-62961904D01*
X183509523Y-63200000D01*
X183676190Y-62747619D02*
X183342857Y-62747619D01*
X183438095Y-62747619D02*
X183390476Y-62723809D01*
X183366666Y-62700000D01*
X183342857Y-62652380D01*
X183342857Y-62604761D01*
X183342857Y-62509523D02*
X183342857Y-62319047D01*
X183176190Y-62438095D02*
X183604761Y-62438095D01*
X183652380Y-62414285D01*
X183676190Y-62366666D01*
X183676190Y-62319047D01*
X183676190Y-61485714D02*
X183438095Y-61652380D01*
X183676190Y-61771428D02*
X183176190Y-61771428D01*
X183176190Y-61580952D01*
X183200000Y-61533333D01*
X183223809Y-61509523D01*
X183271428Y-61485714D01*
X183342857Y-61485714D01*
X183390476Y-61509523D01*
X183414285Y-61533333D01*
X183438095Y-61580952D01*
X183438095Y-61771428D01*
X183176190Y-61342857D02*
X183176190Y-61057142D01*
X183676190Y-61200000D02*
X183176190Y-61200000D01*
X183652380Y-60914285D02*
X183676190Y-60842857D01*
X183676190Y-60723809D01*
X183652380Y-60676190D01*
X183628571Y-60652380D01*
X183580952Y-60628571D01*
X183533333Y-60628571D01*
X183485714Y-60652380D01*
X183461904Y-60676190D01*
X183438095Y-60723809D01*
X183414285Y-60819047D01*
X183390476Y-60866666D01*
X183366666Y-60890476D01*
X183319047Y-60914285D01*
X183271428Y-60914285D01*
X183223809Y-60890476D01*
X183200000Y-60866666D01*
X183176190Y-60819047D01*
X183176190Y-60700000D01*
X183200000Y-60628571D01*
%TO.C,D3*%
X170700000Y-81150000D02*
X171500000Y-81150000D01*
%TO.C,R2*%
X183550000Y-78500000D02*
X183550000Y-77900000D01*
X182550000Y-78500000D02*
X182550000Y-77900000D01*
%TO.C,U1*%
X178590000Y-64610000D02*
X178590000Y-63885000D01*
X178590000Y-60390000D02*
X178590000Y-61115000D01*
X179315000Y-60390000D02*
X178590000Y-60390000D01*
X182810000Y-60390000D02*
X182810000Y-61115000D01*
X182085000Y-60390000D02*
X182810000Y-60390000D01*
X179315000Y-64610000D02*
X178590000Y-64610000D01*
X182782843Y-64300000D02*
G75*
G03*
X182782843Y-64300000I-282843J0D01*
G01*
%TO.C,R5*%
X170600000Y-77600000D02*
X170600000Y-78200000D01*
X171600000Y-77600000D02*
X171600000Y-78200000D01*
%TO.C,R1*%
X182550000Y-80800000D02*
X182550000Y-81400000D01*
X183550000Y-80800000D02*
X183550000Y-81400000D01*
%TO.C,R3*%
X181100000Y-72500000D02*
X181700000Y-72500000D01*
X181100000Y-73500000D02*
X181700000Y-73500000D01*
%TO.C,R4*%
X181100000Y-74820000D02*
X181700000Y-74820000D01*
X181100000Y-73820000D02*
X181700000Y-73820000D01*
%TO.C,D1*%
X181950000Y-69240000D02*
X180050000Y-69240000D01*
X180550000Y-71560000D02*
X181950000Y-71560000D01*
%TO.C,D2*%
X181950000Y-66340000D02*
X180050000Y-66340000D01*
X180550000Y-68660000D02*
X181950000Y-68660000D01*
%TO.C,C1*%
X177090000Y-61700000D02*
X176490000Y-61700000D01*
X177090000Y-60700000D02*
X176490000Y-60700000D01*
%TO.C,Q1*%
X170240000Y-59070000D02*
X170240000Y-61100000D01*
X170240000Y-59070000D02*
X170900000Y-59070000D01*
X172560000Y-60480000D02*
X172560000Y-59070000D01*
X171900000Y-59070000D02*
X172560000Y-59070000D01*
%TO.C,R6*%
X176650000Y-64950000D02*
X176050000Y-64950000D01*
X176650000Y-65950000D02*
X176050000Y-65950000D01*
%TO.C,R7*%
X171200000Y-65000000D02*
X171200000Y-65600000D01*
X172200000Y-65000000D02*
X172200000Y-65600000D01*
%TO.C,C5*%
X171800000Y-61900000D02*
X172400000Y-61900000D01*
X171800000Y-62900000D02*
X172400000Y-62900000D01*
%TO.C,Q2*%
X172840000Y-59070000D02*
X172840000Y-61100000D01*
X175160000Y-60480000D02*
X175160000Y-59070000D01*
X172840000Y-59070000D02*
X173500000Y-59070000D01*
X174500000Y-59070000D02*
X175160000Y-59070000D01*
%TO.C,U2*%
X174505000Y-71125000D02*
X174505000Y-72725000D01*
X171230000Y-68075000D02*
X174330000Y-68075000D01*
%TD*%
M02*
