%TF.GenerationSoftware,KiCad,Pcbnew,(6.0.9-0)*%
%TF.CreationDate,2023-01-05T14:33:45+00:00*%
%TF.ProjectId,Shelly,5368656c-6c79-42e6-9b69-6361645f7063,4*%
%TF.SameCoordinates,Original*%
%TF.FileFunction,Soldermask,Top*%
%TF.FilePolarity,Negative*%
%FSLAX46Y46*%
G04 Gerber Fmt 4.6, Leading zero omitted, Abs format (unit mm)*
G04 Created by KiCad (PCBNEW (6.0.9-0)) date 2023-01-05 14:33:45*
%MOMM*%
%LPD*%
G01*
G04 APERTURE LIST*
G04 Aperture macros list*
%AMRoundRect*
0 Rectangle with rounded corners*
0 $1 Rounding radius*
0 $2 $3 $4 $5 $6 $7 $8 $9 X,Y pos of 4 corners*
0 Add a 4 corners polygon primitive as box body*
4,1,4,$2,$3,$4,$5,$6,$7,$8,$9,$2,$3,0*
0 Add four circle primitives for the rounded corners*
1,1,$1+$1,$2,$3*
1,1,$1+$1,$4,$5*
1,1,$1+$1,$6,$7*
1,1,$1+$1,$8,$9*
0 Add four rect primitives between the rounded corners*
20,1,$1+$1,$2,$3,$4,$5,0*
20,1,$1+$1,$4,$5,$6,$7,0*
20,1,$1+$1,$6,$7,$8,$9,0*
20,1,$1+$1,$8,$9,$2,$3,0*%
%AMFreePoly0*
4,1,14,1.007071,1.007071,1.010000,1.000000,1.010000,-1.000000,1.007071,-1.007071,1.000000,-1.010000,-1.000000,-1.010000,-1.007071,-1.007071,-1.010000,-1.000000,-1.010000,0.750000,-1.007071,0.757071,-0.757071,1.007071,-0.750000,1.010000,1.000000,1.010000,1.007071,1.007071,1.007071,1.007071,$1*%
G04 Aperture macros list end*
%ADD10RoundRect,0.247500X0.237500X-0.287500X0.237500X0.287500X-0.237500X0.287500X-0.237500X-0.287500X0*%
%ADD11RoundRect,0.210000X0.275000X-0.200000X0.275000X0.200000X-0.275000X0.200000X-0.275000X-0.200000X0*%
%ADD12RoundRect,0.010000X-0.850000X0.850000X-0.850000X-0.850000X0.850000X-0.850000X0.850000X0.850000X0*%
%ADD13O,1.720000X1.720000*%
%ADD14RoundRect,0.072500X0.287500X0.062500X-0.287500X0.062500X-0.287500X-0.062500X0.287500X-0.062500X0*%
%ADD15RoundRect,0.072500X0.062500X0.287500X-0.062500X0.287500X-0.062500X-0.287500X0.062500X-0.287500X0*%
%ADD16FreePoly0,180.000000*%
%ADD17RoundRect,0.010000X-0.300000X-0.570000X0.300000X-0.570000X0.300000X0.570000X-0.300000X0.570000X0*%
%ADD18RoundRect,0.085000X-0.075000X-0.495000X0.075000X-0.495000X0.075000X0.495000X-0.075000X0.495000X0*%
%ADD19C,1.270000*%
%ADD20C,0.870000*%
%ADD21C,1.520000*%
%ADD22RoundRect,0.010000X-3.750000X-2.625000X3.750000X-2.625000X3.750000X2.625000X-3.750000X2.625000X0*%
%ADD23RoundRect,0.210000X-0.275000X0.200000X-0.275000X-0.200000X0.275000X-0.200000X0.275000X0.200000X0*%
%ADD24RoundRect,0.210000X-0.200000X-0.275000X0.200000X-0.275000X0.200000X0.275000X-0.200000X0.275000X0*%
%ADD25RoundRect,0.010000X-0.325000X-0.200000X0.325000X-0.200000X0.325000X0.200000X-0.325000X0.200000X0*%
%ADD26RoundRect,0.210000X0.200000X0.275000X-0.200000X0.275000X-0.200000X-0.275000X0.200000X-0.275000X0*%
%ADD27RoundRect,0.010000X-0.225000X-0.350000X0.225000X-0.350000X0.225000X0.350000X-0.225000X0.350000X0*%
%ADD28RoundRect,0.010000X0.300000X-0.550000X0.300000X0.550000X-0.300000X0.550000X-0.300000X-0.550000X0*%
%ADD29RoundRect,0.235000X0.250000X-0.225000X0.250000X0.225000X-0.250000X0.225000X-0.250000X-0.225000X0*%
%ADD30RoundRect,0.259375X-0.463125X-0.625625X0.463125X-0.625625X0.463125X0.625625X-0.463125X0.625625X0*%
%ADD31RoundRect,0.010000X0.712500X-1.850000X0.712500X1.850000X-0.712500X1.850000X-0.712500X-1.850000X0*%
%ADD32RoundRect,0.260000X-0.475000X0.250000X-0.475000X-0.250000X0.475000X-0.250000X0.475000X0.250000X0*%
%ADD33RoundRect,0.010000X0.500000X-0.500000X0.500000X0.500000X-0.500000X0.500000X-0.500000X-0.500000X0*%
%ADD34O,1.020000X1.020000*%
G04 APERTURE END LIST*
D10*
%TO.C,D3*%
X171000000Y-81875000D03*
X171000000Y-80125000D03*
%TD*%
D11*
%TO.C,R2*%
X183300000Y-78925000D03*
X183300000Y-77275000D03*
%TD*%
D12*
%TO.C,J1*%
X182200000Y-56100000D03*
D13*
X179660000Y-56100000D03*
X177120000Y-56100000D03*
X174580000Y-56100000D03*
X172040000Y-56100000D03*
%TD*%
D14*
%TO.C,U1*%
X182600000Y-63500000D03*
X182600000Y-63000000D03*
X182600000Y-62500000D03*
X182600000Y-62000000D03*
X182600000Y-61500000D03*
D15*
X181700000Y-60600000D03*
X181200000Y-60600000D03*
X180700000Y-60600000D03*
X180200000Y-60600000D03*
X179700000Y-60600000D03*
D14*
X178800000Y-61500000D03*
X178800000Y-62000000D03*
X178800000Y-62500000D03*
X178800000Y-63000000D03*
X178800000Y-63500000D03*
D15*
X179700000Y-64400000D03*
X180200000Y-64400000D03*
X180700000Y-64400000D03*
X181200000Y-64400000D03*
X181700000Y-64400000D03*
D16*
X180700000Y-62500000D03*
%TD*%
D17*
%TO.C,J3*%
X173800000Y-76040000D03*
X174600000Y-76040000D03*
D18*
X175750000Y-76040000D03*
X176750000Y-76040000D03*
X177250000Y-76040000D03*
X178250000Y-76040000D03*
D17*
X180200000Y-76040000D03*
X179400000Y-76040000D03*
D18*
X178750000Y-76040000D03*
X177750000Y-76040000D03*
X176250000Y-76040000D03*
X175250000Y-76040000D03*
D19*
X172680000Y-80790000D03*
D20*
X179890000Y-77110000D03*
X174110000Y-77110000D03*
D19*
X181320000Y-80790000D03*
D21*
X181320000Y-76620000D03*
X172680000Y-76620000D03*
D22*
X177000000Y-80025000D03*
%TD*%
D23*
%TO.C,R5*%
X171000000Y-77175000D03*
X171000000Y-78825000D03*
%TD*%
%TO.C,R1*%
X183300000Y-80175000D03*
X183300000Y-81825000D03*
%TD*%
D24*
%TO.C,R3*%
X180575000Y-73000000D03*
X182225000Y-73000000D03*
%TD*%
%TO.C,R4*%
X180575000Y-74320000D03*
X182225000Y-74320000D03*
%TD*%
D25*
%TO.C,D1*%
X180300000Y-69750000D03*
X180300000Y-70400000D03*
X180300000Y-71050000D03*
X182200000Y-71050000D03*
X182200000Y-70400000D03*
X182200000Y-69750000D03*
%TD*%
%TO.C,D2*%
X180300000Y-66850000D03*
X180300000Y-67500000D03*
X180300000Y-68150000D03*
X182200000Y-68150000D03*
X182200000Y-67500000D03*
X182200000Y-66850000D03*
%TD*%
D26*
%TO.C,C1*%
X177565000Y-61200000D03*
X176015000Y-61200000D03*
%TD*%
D27*
%TO.C,Q1*%
X170750000Y-60800000D03*
X172050000Y-60800000D03*
X171400000Y-58800000D03*
%TD*%
D26*
%TO.C,R6*%
X177175000Y-65450000D03*
X175525000Y-65450000D03*
%TD*%
D23*
%TO.C,R7*%
X171700000Y-64475000D03*
X171700000Y-66125000D03*
%TD*%
D24*
%TO.C,C5*%
X171325000Y-62400000D03*
X172875000Y-62400000D03*
%TD*%
D27*
%TO.C,Q2*%
X173350000Y-60800000D03*
X174650000Y-60800000D03*
X174000000Y-58800000D03*
%TD*%
D28*
%TO.C,U2*%
X173730000Y-67400000D03*
D29*
X170680000Y-68225000D03*
X170680000Y-69775000D03*
D30*
X173577500Y-71920000D03*
D31*
X175180000Y-68800000D03*
D28*
X173730000Y-70100000D03*
X171830000Y-70100000D03*
D32*
X171930000Y-71350000D03*
D28*
X172780000Y-70100000D03*
D32*
X171930000Y-73250000D03*
X178180000Y-73250000D03*
D28*
X172780000Y-67400000D03*
D30*
X176542500Y-71920000D03*
D31*
X178180000Y-68800000D03*
D32*
X178180000Y-71350000D03*
D28*
X171830000Y-67400000D03*
%TD*%
D33*
%TO.C,J2*%
X182600000Y-58600000D03*
D34*
X181330000Y-58600000D03*
X180060000Y-58600000D03*
X178790000Y-58600000D03*
X177520000Y-58600000D03*
X176250000Y-58600000D03*
%TD*%
M02*
