%TF.GenerationSoftware,KiCad,Pcbnew,(6.0.10-0)*%
%TF.CreationDate,2023-01-07T14:07:36+00:00*%
%TF.ProjectId,Shelly,5368656c-6c79-42e6-9b69-6361645f7063,4*%
%TF.SameCoordinates,Original*%
%TF.FileFunction,Legend,Bot*%
%TF.FilePolarity,Positive*%
%FSLAX46Y46*%
G04 Gerber Fmt 4.6, Leading zero omitted, Abs format (unit mm)*
G04 Created by KiCad (PCBNEW (6.0.10-0)) date 2023-01-07 14:07:36*
%MOMM*%
%LPD*%
G01*
G04 APERTURE LIST*
%ADD10C,0.150000*%
%ADD11C,0.100000*%
G04 APERTURE END LIST*
D10*
X182600000Y-59300000D02*
X182600000Y-60400000D01*
X182200000Y-57100000D02*
X182600000Y-58000000D01*
X182200000Y-61216785D02*
X182152380Y-61121547D01*
X182152380Y-60978690D01*
X182200000Y-60835833D01*
X182295238Y-60740595D01*
X182390476Y-60692976D01*
X182580952Y-60645357D01*
X182723809Y-60645357D01*
X182914285Y-60692976D01*
X183009523Y-60740595D01*
X183104761Y-60835833D01*
X183152380Y-60978690D01*
X183152380Y-61073928D01*
X183104761Y-61216785D01*
X183057142Y-61264404D01*
X182723809Y-61264404D01*
X182723809Y-61073928D01*
X183152380Y-61692976D02*
X182152380Y-61692976D01*
X183152380Y-62264404D01*
X182152380Y-62264404D01*
X183152380Y-62740595D02*
X182152380Y-62740595D01*
X182152380Y-62978690D01*
X182200000Y-63121547D01*
X182295238Y-63216785D01*
X182390476Y-63264404D01*
X182580952Y-63312023D01*
X182723809Y-63312023D01*
X182914285Y-63264404D01*
X183009523Y-63216785D01*
X183104761Y-63121547D01*
X183152380Y-62978690D01*
X183152380Y-62740595D01*
X175130833Y-59599761D02*
X174987976Y-59647380D01*
X174749880Y-59647380D01*
X174654642Y-59599761D01*
X174607023Y-59552142D01*
X174559404Y-59456904D01*
X174559404Y-59361666D01*
X174607023Y-59266428D01*
X174654642Y-59218809D01*
X174749880Y-59171190D01*
X174940357Y-59123571D01*
X175035595Y-59075952D01*
X175083214Y-59028333D01*
X175130833Y-58933095D01*
X175130833Y-58837857D01*
X175083214Y-58742619D01*
X175035595Y-58695000D01*
X174940357Y-58647380D01*
X174702261Y-58647380D01*
X174559404Y-58695000D01*
X174130833Y-59647380D02*
X174130833Y-58647380D01*
X173702261Y-59647380D02*
X173702261Y-59123571D01*
X173749880Y-59028333D01*
X173845119Y-58980714D01*
X173987976Y-58980714D01*
X174083214Y-59028333D01*
X174130833Y-59075952D01*
X172845119Y-59599761D02*
X172940357Y-59647380D01*
X173130833Y-59647380D01*
X173226071Y-59599761D01*
X173273690Y-59504523D01*
X173273690Y-59123571D01*
X173226071Y-59028333D01*
X173130833Y-58980714D01*
X172940357Y-58980714D01*
X172845119Y-59028333D01*
X172797500Y-59123571D01*
X172797500Y-59218809D01*
X173273690Y-59314047D01*
X172226071Y-59647380D02*
X172321309Y-59599761D01*
X172368928Y-59504523D01*
X172368928Y-58647380D01*
X171702261Y-59647380D02*
X171797500Y-59599761D01*
X171845119Y-59504523D01*
X171845119Y-58647380D01*
X171416547Y-58980714D02*
X171178452Y-59647380D01*
X170940357Y-58980714D02*
X171178452Y-59647380D01*
X171273690Y-59885476D01*
X171321309Y-59933095D01*
X171416547Y-59980714D01*
X178749880Y-60257380D02*
X178178452Y-60257380D01*
X178464166Y-61257380D02*
X178464166Y-60257380D01*
X177416547Y-61257380D02*
X177416547Y-60733571D01*
X177464166Y-60638333D01*
X177559404Y-60590714D01*
X177749880Y-60590714D01*
X177845119Y-60638333D01*
X177416547Y-61209761D02*
X177511785Y-61257380D01*
X177749880Y-61257380D01*
X177845119Y-61209761D01*
X177892738Y-61114523D01*
X177892738Y-61019285D01*
X177845119Y-60924047D01*
X177749880Y-60876428D01*
X177511785Y-60876428D01*
X177416547Y-60828809D01*
X176987976Y-61209761D02*
X176892738Y-61257380D01*
X176702261Y-61257380D01*
X176607023Y-61209761D01*
X176559404Y-61114523D01*
X176559404Y-61066904D01*
X176607023Y-60971666D01*
X176702261Y-60924047D01*
X176845119Y-60924047D01*
X176940357Y-60876428D01*
X176987976Y-60781190D01*
X176987976Y-60733571D01*
X176940357Y-60638333D01*
X176845119Y-60590714D01*
X176702261Y-60590714D01*
X176607023Y-60638333D01*
X176130833Y-61257380D02*
X176130833Y-60590714D01*
X176130833Y-60685952D02*
X176083214Y-60638333D01*
X175987976Y-60590714D01*
X175845119Y-60590714D01*
X175749880Y-60638333D01*
X175702261Y-60733571D01*
X175702261Y-61257380D01*
X175702261Y-60733571D02*
X175654642Y-60638333D01*
X175559404Y-60590714D01*
X175416547Y-60590714D01*
X175321309Y-60638333D01*
X175273690Y-60733571D01*
X175273690Y-61257380D01*
X174654642Y-61257380D02*
X174749880Y-61209761D01*
X174797500Y-61162142D01*
X174845119Y-61066904D01*
X174845119Y-60781190D01*
X174797500Y-60685952D01*
X174749880Y-60638333D01*
X174654642Y-60590714D01*
X174511785Y-60590714D01*
X174416547Y-60638333D01*
X174368928Y-60685952D01*
X174321309Y-60781190D01*
X174321309Y-61066904D01*
X174368928Y-61162142D01*
X174416547Y-61209761D01*
X174511785Y-61257380D01*
X174654642Y-61257380D01*
X174035595Y-60590714D02*
X173654642Y-60590714D01*
X173892738Y-60257380D02*
X173892738Y-61114523D01*
X173845119Y-61209761D01*
X173749880Y-61257380D01*
X173654642Y-61257380D01*
X173321309Y-61257380D02*
X173321309Y-60590714D01*
X173321309Y-60257380D02*
X173368928Y-60305000D01*
X173321309Y-60352619D01*
X173273690Y-60305000D01*
X173321309Y-60257380D01*
X173321309Y-60352619D01*
X172940357Y-60590714D02*
X172416547Y-60590714D01*
X172940357Y-61257380D01*
X172416547Y-61257380D01*
X171654642Y-61209761D02*
X171749880Y-61257380D01*
X171940357Y-61257380D01*
X172035595Y-61209761D01*
X172083214Y-61114523D01*
X172083214Y-60733571D01*
X172035595Y-60638333D01*
X171940357Y-60590714D01*
X171749880Y-60590714D01*
X171654642Y-60638333D01*
X171607023Y-60733571D01*
X171607023Y-60828809D01*
X172083214Y-60924047D01*
X171178452Y-61257380D02*
X171178452Y-60590714D01*
X171178452Y-60781190D02*
X171130833Y-60685952D01*
X171083214Y-60638333D01*
X170987976Y-60590714D01*
X170892738Y-60590714D01*
D11*
%TO.C,Art1*%
X177907142Y-65760714D02*
X177783333Y-66194047D01*
X177659523Y-65884523D01*
X177535714Y-66194047D01*
X177411904Y-65760714D01*
X177226190Y-65760714D02*
X177102380Y-66194047D01*
X176978571Y-65884523D01*
X176854761Y-66194047D01*
X176730952Y-65760714D01*
X176545238Y-65760714D02*
X176421428Y-66194047D01*
X176297619Y-65884523D01*
X176173809Y-66194047D01*
X176050000Y-65760714D01*
X175802380Y-66132142D02*
X175771428Y-66163095D01*
X175802380Y-66194047D01*
X175833333Y-66163095D01*
X175802380Y-66132142D01*
X175802380Y-66194047D01*
X175492857Y-66194047D02*
X175492857Y-65760714D01*
X175492857Y-65822619D02*
X175461904Y-65791666D01*
X175400000Y-65760714D01*
X175307142Y-65760714D01*
X175245238Y-65791666D01*
X175214285Y-65853571D01*
X175214285Y-66194047D01*
X175214285Y-65853571D02*
X175183333Y-65791666D01*
X175121428Y-65760714D01*
X175028571Y-65760714D01*
X174966666Y-65791666D01*
X174935714Y-65853571D01*
X174935714Y-66194047D01*
X174378571Y-66163095D02*
X174440476Y-66194047D01*
X174564285Y-66194047D01*
X174626190Y-66163095D01*
X174657142Y-66101190D01*
X174657142Y-65853571D01*
X174626190Y-65791666D01*
X174564285Y-65760714D01*
X174440476Y-65760714D01*
X174378571Y-65791666D01*
X174347619Y-65853571D01*
X174347619Y-65915476D01*
X174657142Y-65977380D01*
X174069047Y-66132142D02*
X174038095Y-66163095D01*
X174069047Y-66194047D01*
X174100000Y-66163095D01*
X174069047Y-66132142D01*
X174069047Y-66194047D01*
X173480952Y-65760714D02*
X173480952Y-66194047D01*
X173759523Y-65760714D02*
X173759523Y-66101190D01*
X173728571Y-66163095D01*
X173666666Y-66194047D01*
X173573809Y-66194047D01*
X173511904Y-66163095D01*
X173480952Y-66132142D01*
X173171428Y-66194047D02*
X173171428Y-65544047D01*
X173109523Y-65946428D02*
X172923809Y-66194047D01*
X172923809Y-65760714D02*
X173171428Y-66008333D01*
%TD*%
M02*
